<svg xmlns="http://www.w3.org/2000/svg" xmlns:xlink="http://www.w3.org/1999/xlink" width="950" height="640" viewBox="0 0 950 640"><defs><clipPath id="b"><rect width="950" height="640"/></clipPath></defs><g id="a" clip-path="url(#b)"><g transform="translate(17 20)"><path d="M489.969,47.594c-6.567-1.995-8.08-10.463-8.327-17.322-.1-2.708-.128-5.616,1.375-7.871s5.163-3.228,6.915-1.161c1,1.175,1.049,2.855,1.054,4.4q.021,7.1.041,14.2c1.626,1.119,3.915-.609,4.295-2.547s-.372-3.894-.632-5.851c-.871-6.545,4.077-12.814,10.168-15.363s13-2.117,19.513-1.005c1.528.261,3.51,1.306,2.951,2.752-2.433-.29-4.632,1.783-5.4,4.111s-.466,4.851-.265,7.293A85.13,85.13,0,0,1,520.9,49.53c-.338,2.134-.97,4.547-2.906,5.5-2.241,1.108-5.057-.533-6.12-2.8s-.859-4.889-.632-7.379l1-11.017c.283-3.108.519-6.445-1.047-9.145s-5.7-4.086-7.864-1.839c.85,5.576,1.675,11.436-.275,16.729S495.366,49.233,489.969,47.594Z" transform="translate(4.386 0.129)"/><path d="M478.562,30.2c1.842,1.973-1.381,4.756-4.058,5.109s-6.3.991-6.4,3.689c-.073,2.061,2.317,3.377,4.379,3.392s4.1-.743,6.15-.531,4.212,2.086,3.556,4.042a13.41,13.41,0,0,1-22.87-4.958c-2.914,1.441-1.2,6.078-2.71,8.958-1.283,2.45-4.773,2.969-7.3,1.842s-4.3-3.418-5.975-5.622L431.291,30.228,431.1,46.947c-.027,2.432-.307,5.316-2.425,6.511-1.923,1.085-4.5.049-5.793-1.742a11.509,11.509,0,0,1-1.685-6.308c-.381-8.547,1.567-17.008,3.5-25.342.778-3.349,2.549-7.5,5.982-7.311,2.51.136,4.129,2.632,5.323,4.843l12.24,22.662,2.087-18.36c.166-1.463.387-3.043,1.423-4.088,1.179-1.19,3.03-1.312,4.7-1.362L471.7,16c3.467-.1,7.845.389,8.942,3.679-1.261,1.817-3.691,2.358-5.9,2.5s-4.542.064-6.473,1.141-3.1,3.889-1.636,5.544l9.007.425A4.125,4.125,0,0,1,478.562,30.2Z" transform="translate(3.835 0.116)"/><path d="M570.568,27.066c.451-4.016,5.456-6.227,9.339-5.106s6.675,4.486,8.816,7.912a53.684,53.684,0,0,1,7.714,21.684,5.367,5.367,0,0,1-.555,3.9c-1.583,2.129-5.119.948-6.805-1.1s-2.624-4.776-4.811-6.278a6.264,6.264,0,0,0-8.853,2.466c-.734,1.62-.92,3.768-2.523,4.539a4.289,4.289,0,0,1-1.941.3c-11.522-.19-21.218-8.235-29.865-15.853-4.113,2.783,1.452,10.445-2.07,13.945-1.943,1.931-5.513.884-7.08-1.364s-1.681-5.168-1.695-7.908q-.059-11.742,1-23.454A3.527,3.527,0,0,1,531.5,19.5c.592-1.214,2.224-1.343,3.567-1.484,3.772-.395,7.244-2.161,10.879-3.242s7.887-1.372,10.926.9c3.15,2.351,4.025,6.823,3.308,10.689s-2.718,7.347-4.386,10.907a4.211,4.211,0,0,0-.568,2.622,4.345,4.345,0,0,0,1.627,2.158l8.52,7.351a98.72,98.72,0,0,0,5.191-22.335M541.451,37.12c1.176.43,2.424-.38,3.35-1.223a22.006,22.006,0,0,0,6.892-12.936c.071-.483-.059-1.181-.547-1.144A12.693,12.693,0,0,0,539.84,33.686c-.039,1.353.34,2.969,1.611,3.434m40.73-.474c1.017-1.257-1.512-2.844-2.716-1.765s-1,3-.549,4.556a4.239,4.239,0,0,0,.922,1.847,2.3,2.3,0,1,0,2.822-3.59Z" transform="translate(4.829 0.127)"/><path d="M408.367,207.131l1.345-101.574c.069-5.24,6.861-11.882,8.312-6.846q-.584,54.033.091,108.07,127.862-10.615,256.218-13.272-2.3-51.6-3.754-103.228c2.765-4.377,8.336,2.559,8.588,7.73l4.643,95.361,192.944-12.486c-13.418,9.067-30.426,10.425-46.585,11.5l-144.247,9.625,9.676,194.41,219.447-11.395c-1.949,8.3-12.631,10.35-21.145,10.72l-197.728,8.591,9.055,180.988c.3,6.044-1.739,14.488-7.753,13.825L686.916,412.945c-.139-2.452-.4-5.176-2.237-6.809s-4.535-1.583-6.97-1.452L432.193,417.858c-3.364.181-7.141.56-9.275,3.167-1.869,2.283-1.838,5.524-1.715,8.472l4.736,113.374c-4.688,3.749-9.449-4.682-9.628-10.682l-3.295-110.631-241.8,11.87c-3.956-2.9,2.671-7.907,7.567-8.173l233.985-12.692-4.477-197.8L193.047,227.754c-4.923.3-11.725-1.075-11.614-6.005q113.221-10.627,226.934-14.617m15.9,7.3a8.527,8.527,0,0,0-4.342,1.155c-2.171,1.546-2.4,4.628-2.413,7.294q-.582,94.039,5.216,187.973,127.56-9.312,255.4-14.064c2.412-.09,5.238-.413,6.453-2.5a7.237,7.237,0,0,0,.646-3.726q-.569-94.518-9.424-188.743Q549.88,204.255,424.267,214.432Z" transform="translate(1.548 0.81)"/><path d="M208.9,10.6a2.22,2.22,0,0,1,1.924-.917c5.14-.209,8.043,6.047,8.029,11.192-.006,2.206.383,5.236,2.586,5.366,2.495-2.3,1.086-6.863,3.317-9.42,2.246-2.574,6.854-1.2,8.633,1.711s1.573,6.58,1.309,9.986l2.96.841,4.728-18.628c.767-3.021,5.766-2.578,7.263.156s.618,6.1-.293,9.084L243.9,37.835c-.873,2.858-2.216,6.17-5.136,6.8-4.339.941-6.951-4.592-7.87-8.935l-2.293-.566c-2.469,3.49-.675,9.542-4.4,11.632-1.93,1.082-4.479.3-6.058-1.249a14.422,14.422,0,0,1-3.119-5.788,131.185,131.185,0,0,1-6.266-27.524A2.672,2.672,0,0,1,208.9,10.6Z" transform="translate(1.901 0.079)"/><path d="M485.65,132.733c1.441-4.6,3.451-10.524-.353-13.479-4.267-3.314-4.513-10.147-1.54-14.658s8.318-6.951,13.635-7.91c2.861-.516,6.749-1.894,6.127-4.734-1.555-7.1,2.588-14.6,8.694-18.543S525.962,68.6,533.2,69.229c10.6.921,21.349,5.208,27.837,13.636s7.514,21.4.6,29.479c-2.245,2.624-5.418,5.267-4.963,8.691,2.319,17.446-.337,37.166-13.481,48.869-11.51,10.248-29.969,11.671-42.914,3.309s-19.237-25.774-14.628-40.48m26.577-22.369c-5.013-1.261-10.3-2.674-13.908-6.373-1.405-1.44-3.863-.416-5.381.905-2.608,2.268-4.666,5.7-3.877,9.064s5.581,5.479,7.923,2.938c1.52.328.947,2.631.075,3.919-4.861,7.18-8.2,15.671-7.861,24.335s4.847,17.417,12.527,21.441c4.538,2.378,9.789,2.992,14.912,3.1,5.549.115,11.237-.35,16.3-2.612,6.924-3.091,12.127-9.4,14.793-16.494s2.96-14.926,1.851-22.427c-.474-3.208-1.367-6.655-3.948-8.617a14.039,14.039,0,0,0-5.2-2.081l-28.211-7.1m6-5.795c1.105-7.538,3.467-16.582,10.807-18.621A17.132,17.132,0,0,1,549.4,109.135c-.63,1.487-.81,4.025.8,3.915a2.067,2.067,0,0,0,.926-.375c8.256-5.182,8.255-18.3,1.881-25.677s-16.82-9.875-26.568-9.851c-4.248.01-8.8.542-12.023,3.312-3.5,3.006-4.611,8.173-3.562,12.662s3.962,8.35,7.375,11.45M531.544,94.3a4.047,4.047,0,0,0-2.109.663c-1.266.938-1.389,2.8-1.067,4.339a11.668,11.668,0,0,0,12.481,8.86c3.052-6.033-2.565-14.4-9.3-13.862m-24.772,4.125a1.612,1.612,0,0,0,.834,2.837,1.729,1.729,0,0,0-.931-2.974Z" transform="translate(4.388 0.629)"/><path d="M113.94,165a13.082,13.082,0,0,1-4.69,2.979c-5.778,1.729-11.185-4.495-11.915-10.482s1.34-11.968,1.344-18c0-2.17-.252-4.426.555-6.441,1.67-4.171,6.962-5.42,11.455-5.405,6.507.021,13.793,2.043,16.866,7.779,3.751,7-.611,15.586-5.774,21.623A78.584,78.584,0,0,1,113.94,165m-3.082-29.676c-2.687,1.434-3.156,5.02-3.3,8.062l-.606,12.821c-.071,1.51.091,3.406,1.5,3.956a35.019,35.019,0,0,0,8.774-11.491c1.406-2.959,2.395-6.381,1.353-9.487S113.748,133.786,110.857,135.329Z" transform="translate(0.885 1.163)"/><path d="M75.364,512.082,76.2,488.22a12.562,12.562,0,0,1,1.169-5.874c1-1.751,3.223-2.983,5.077-2.189,1.407.6,2.157,2.1,3.167,3.252s2.886,1.967,4,.916c1.688-1.595,4.647-.887,6.172.864s1.976,4.168,2.306,6.467a125.949,125.949,0,0,1,1.1,24.574c2.9-.652,6.161-1.244,8.642.383s2.492,6.423-.44,6.882L96.7,525.168c-2.578.4-5.805.527-7.15-1.709a6.667,6.667,0,0,1-.6-3.632l.585-24.844c.074-3.156-1.015-7.5-4.16-7.222L84.9,516.654c-.028,1.691-.125,3.558-1.3,4.775-1.884,1.951-5.46.837-6.917-1.45S75.269,514.792,75.364,512.082Z" transform="translate(0.686 4.371)"/><path d="M86.843,321.7l-1.621-18.57c-1.573,4.541-1.737,9.424-2.279,14.2s-1.562,9.7-4.512,13.5-8.309,6.082-12.722,4.183c-3.327-1.432-5.422-4.9-6.151-8.449s-.307-7.22.118-10.817l.485-4.108c.378-3.2.956-6.756,3.534-8.682s7.478-.081,6.772,3.058a81.1,81.1,0,0,0-1.808,22.855,19.4,19.4,0,0,0,6.01-17.374c-.9-5.236,2.787-10.4,7.464-12.917s10.149-2.988,15.446-3.4c2.581-.2,5.545-.268,7.317,1.621.577.615.97,1.393,1.6,1.957,3.052,2.747,7.368-1.449,11.363-2.4,4.5-1.066,9.13,2.8,9.989,7.341s-1.31,9.218-4.5,12.561c-1.778,1.864.152,5.363,2.721,5.554s4.819-1.966,5.707-4.385.761-5.069.821-7.645c.086-3.684.681-7.593,3.094-10.377s7.155-3.788,9.788-1.211A10.572,10.572,0,0,1,147.639,302l4.756,12.039c.969,2.454,1.942,5.216.929,7.652s-5.061,3.4-6.177,1.014c-.807-1.73-3.6-1.2-4.741.336s-1.356,3.561-2.263,5.241-3.216,2.977-4.678,1.749c-5.274-4.428-15.706.968-19.151-4.995-1.994,3.876-.877,10.341-5.14,11.25-1.985.423-3.988-1.016-4.893-2.832a13.926,13.926,0,0,1-1.015-5.949l-.513-22.548c-.061-2.689-4.185-3.512-6.194-1.724s-2.369,4.743-2.6,7.423c-.487,5.712-.878,11.863,2.093,16.766,1.345,2.219-.713,5.36-3.29,5.66s-5.019-1.548-6.233-3.84-1.462-4.957-1.688-7.541m31.619-10.19c1.036-1.568,2.119-3.367,1.72-5.2s-3.217-2.944-4.174-1.327a13.821,13.821,0,0,0-.254,13.354,7.492,7.492,0,0,0,2.74-6.661Z" transform="translate(0.539 2.687)"/><path d="M774.159,33.507c-2.512-1.086-4.75,2.128-5.195,4.828s-.72,6.053-3.237,7.125c-2.142.912-4.686-.671-5.661-2.785s-.805-4.555-.616-6.875l1.858-22.737c.171-2.089.4-4.33,1.772-5.917,2.286-2.649,6.8-2.1,9.431.21s3.85,5.786,4.965,9.1l9.307,27.685c-1.835,3.231-7.083,2.669-9.515-.14S774.442,37.212,774.159,33.507Z" transform="translate(6.915 0.049)"/><path d="M38.831,516.315c-.375,1.4-1.771,2.227-3.046,2.911-3.47,1.861-7.042,3.755-10.95,4.233s-8.285-.775-10.444-4.067a15.047,15.047,0,0,1-1.9-6.734,122.8,122.8,0,0,1,.012-26.544c.273-2.5.722-5.187,2.543-6.915,2.613-2.479,6.773-1.909,10.3-1.175,5.6,1.166,11.306,2.372,16.275,5.206a13.469,13.469,0,0,1-14.634,3.141c-1.615-.674-3.056,1.253-3.691,2.884-.735,1.888-1.367,3.986-.723,5.908s3.118,3.3,4.778,2.142a7.581,7.581,0,0,1,9.857,1.363,14.627,14.627,0,0,1-9.231,5.083,7.631,7.631,0,0,0-3.646,13.625,24.18,24.18,0,0,1,6.537-4.245,8.076,8.076,0,0,1,5.215-.8C37.821,512.789,39.3,514.583,38.831,516.315Z" transform="translate(0.107 4.348)"/><path d="M283.593,18.208c-4.012.136-8.245-.478-11.876,1.235s-5.781,7.172-2.7,9.741a22.759,22.759,0,0,1,17.963-3.342,3.054,3.054,0,0,1,2.068,1.2c.8,1.411-.76,2.976-2.165,3.789a48.061,48.061,0,0,1-17.331,5.976c-3.142.441-3.95,4.6-3.711,7.761s.343,7.133-2.473,8.594c-2.4,1.247-5.485-.5-6.653-2.941s-.955-5.29-.717-7.987l1.982-22.408c.213-2.411.506-5.01,2.142-6.794,1.746-1.9,4.544-2.354,7.122-2.527a61.175,61.175,0,0,1,15.9,1.017c2.454.484,5.54,2.228,4.712,4.589C287.305,17.7,285.283,18.151,283.593,18.208Z" transform="translate(2.33 0.094)"/><path d="M68.932,478.572c1.428-.157,3.151.382,3.544,1.764a4.019,4.019,0,0,1-.107,1.959l-6.891,30.817a18.079,18.079,0,0,1-2.553,6.859c-1.447,1.986-4.022,3.369-6.378,2.67-2.837-.841-4.09-4.081-4.919-6.921Q47.575,501.83,44.6,487.656c.039-3.2,4.732-4.544,7.342-2.683s3.414,5.352,3.684,8.546.246,6.574,1.863,9.341c2.6-4.007,2.416-9.119,3.2-13.828S64.186,479.093,68.932,478.572Z" transform="translate(0.406 4.358)"/><path d="M206.337,28.123c.7,3.184.541,7.695-2.664,8.3-5.253.986-5.441-10.074-10.779-10.333-5.218-.253-6.025,10.128-11.218,9.558-1.891-.208-3.27-2.055-3.559-3.935a12.094,12.094,0,0,1,.871-5.583A99.314,99.314,0,0,1,190.325,2.848a6.83,6.83,0,0,1,2.3-2.439c1.794-.95,4.115-.14,5.5,1.342a13.579,13.579,0,0,1,2.651,5.421q3.214,10.354,5.56,20.951m-11.75-14.115a3.235,3.235,0,0,0-1.953,5.018,2.946,2.946,0,0,0,4.012-1.058,2.346,2.346,0,0,0-2.035-3.273Z" transform="translate(1.621)"/><path d="M10.68,319.815c-5.191,3.846,1.022,13.5-3.381,18.227-1.306,1.4-3.8.907-5.077-.523s-1.628-3.441-1.84-5.345A62.333,62.333,0,0,1,2.43,308.06c.928-3.217,5.634-3.857,8.366-1.92s3.92,5.349,4.9,8.553,2.027,6.626,4.621,8.744c1.966-1.978,1.887-5.187,1.273-7.908s-1.634-5.488-1.09-8.223,3.554-5.214,6.045-3.959c2.075,1.045,2.436,3.8,2.532,6.123l.918,22.244a5.543,5.543,0,0,1-.328,2.662c-1.338,2.761-5.562,1.511-7.962-.4a38.4,38.4,0,0,1-11.019-14.16Z" transform="translate(0 2.76)"/><path d="M753.954,14.908a72.012,72.012,0,0,1,2.827,20.467c-.016,2.374-.56,5.307-2.833,5.992-2.257.68-4.415-1.553-5.065-3.819s-.454-4.739-1.33-6.928a3.528,3.528,0,0,0-2.637-2.425c-2.514-.241-3.4,3.4-2.616,5.8s2.255,5.049,1.018,7.251c-1.389,2.472-5.314,2.157-7.368.2s-2.826-4.85-3.847-7.5-2.661-5.41-5.395-6.159c3.15-1.7,2.553-6.308,1.691-9.784s-.812-8.311,2.627-9.309,6.107,3.122,6.741,6.633c.471,2.6,1.6,6.153,4.208,5.717,2.178-.363,2.666-3.332,2.141-5.478s-1.5-4.514-.4-6.429c1.251-2.177,4.62-2.222,6.616-.7s2.92,4.045,3.617,6.457Z" transform="translate(6.618 0.067)"/><path d="M321.281,22.878c.228,6.624-.464,13.642-4.306,19.042s-11.664,8.406-17.384,5.057c-5.923-3.468-6.988-11.5-6.808-18.364q.126-4.8.633-9.589a6.768,6.768,0,0,1,1.07-3.516c1.839-2.366,5.983-1.205,7.492,1.383s1.187,5.809.819,8.782l-1.086,8.767c-.2,1.638-.345,3.493.728,4.747,1.454,1.7,4.4,1.169,5.915-.475s1.982-3.97,2.386-6.169l2.368-12.868c.252-1.372.584-2.877,1.7-3.709,1.571-1.166,3.975-.307,5.1,1.293S321.214,20.922,321.281,22.878Z" transform="translate(2.666 0.13)"/><path d="M714.446,38.666c2.866-.207,5.04-2.581,7.636-3.814s6.82-.233,6.607,2.633A15.942,15.942,0,0,1,701.547,40.3c-4.627-6.124-4.2-14.971-.787-21.848a17.6,17.6,0,0,1,6.219-7.37c6.24-3.839,15.642-.531,18.1,6.37-1.061,3.586-7.076,4.035-8.657.645-1.054-2.26-4.573-2.231-6.389-.522s-2.345,4.349-2.7,6.817c-.438,3.035-.745,6.213.284,9.1S711.388,38.887,714.446,38.666Z" transform="translate(6.358 0.086)"/><path d="M791.012,13.785a16.922,16.922,0,0,1,16.068-3.572c9.235,2.86,14.269,14.891,9.823,23.476S799.726,45.1,792.061,39.212s-8.2-18.923-1.049-25.427M795.734,27c.112,3.052,1.585,6.437,4.525,7.262,4.3,1.208,7.911-3.873,8.164-8.337.167-2.953-.732-6.328-3.367-7.672a6.13,6.13,0,0,0-7.019,1.578,10.008,10.008,0,0,0-2.3,7.169Z" transform="translate(7.158 0.087)"/><path d="M41.605,335.634c-3.075-.487-5.486-3.07-6.652-5.956s-1.308-6.068-1.436-9.178l-.512-12.518c-.133-3.242,2.186-6.185,5.024-7.757s6.136-2.044,9.35-2.488c3.762-.52,8.944-.063,9.526,3.689-.488,2.163-2.888,3.311-5.08,3.64s-4.516.177-6.522,1.121-3.446,3.639-2.1,5.4c1.407,1.847,4.26,1.116,6.525.6s5.555.244,5.387,2.56c-1.416,2.052-3.974,2.919-6.354,3.662s-4.937,1.619-6.341,3.679-.7,5.62,1.761,6.031c1.394-2.07,3.042-4.314,5.494-4.776s5.275,2.379,3.824,4.409c-2.921,4.086-6.93,8.661-11.891,7.875Z" transform="translate(0.301 2.71)"/><path d="M18.163,159.866c.249,2.006,1.115,4.151,2.953,4.993s4.551-.6,4.2-2.593c-.408-2.29-.76-4.7.017-6.9s3.066-4.029,5.328-3.484c3.221.776,3.751,5.075,3.591,8.384l-.6,12.459c-.1,2.05-.227,4.2-1.287,5.954s-3.377,2.941-5.222,2.041c-3.653-1.783-2.924-9.6-6.941-8.975-5.089.792-9.8-3.77-10.922-8.8s.443-10.242,2.3-15.046c1.643-4.249,3.658-8.573,7.233-11.4s9.119-3.638,12.6-.7c1.552,1.313,2.557,3.516,1.831,5.415s-3.631,2.747-4.9,1.156c-1.122-1.411-3.46-1.214-4.857-.074a10.326,10.326,0,0,0-2.718,4.6c-1.56,4.167-3.146,8.539-2.6,12.954Z" transform="translate(0.081 1.22)"/><path d="M900.675,7.816c-1.674,2.337-5.284.952-8.156,1.071-5.44.225-8.606,7.578-5.841,12.269s9.467,6.007,14.433,3.772c2.761-1.243,5.276,3.157,3.677,5.728s-5.022,3.222-8.047,3.34c-7.474.292-16.016-1.9-19.42-8.56a16.852,16.852,0,0,1-1.189-10.519c1.028-5.9,4.575-11.722,10.186-13.829s13.066.875,14.358,6.727Z" transform="translate(7.976 0.004)"/><path d="M602.585,57.72c-2.168-2.3-2.5-5.727-2.726-8.882L598.24,25.892c-.228-3.236,4.768-4.537,7.241-2.438s2.924,5.681,3.2,8.913l1.281,14.925c.165,1.927,1.467,4.559,3.192,3.685a14.3,14.3,0,0,1,14.66,1.246,3.486,3.486,0,0,1,1.608,2.232c.206,1.927-2.2,2.927-4.1,3.3L615.777,59.6C611.214,60.481,605.771,61.1,602.585,57.72Z" transform="translate(5.448 0.204)"/><path d="M161.938,44.991a6.3,6.3,0,0,1-3.231-2.64,7.049,7.049,0,0,1-.379-3.594l1.791-25.938c.191-2.76.835-6.131,3.472-6.966,2.2-.7,4.572,1.023,5.433,3.161s.611,4.541.346,6.831l-1.964,17a10.21,10.21,0,0,0,.215,4.816c.579,1.516,2.177,2.777,3.756,2.4a12.259,12.259,0,0,1,13.012,5.5A28.675,28.675,0,0,1,161.938,44.991Z" transform="translate(1.441 0.052)"/><path d="M838.652,2.193c2.9-.052,6.227.143,8,2.436s-.635,6.745-3.174,5.351c-2.316-1.272-5.35.566-6.314,3.026s-.469,5.222.039,7.815l2.718,13.888c.648,3.311-4.383,5.255-7.171,3.354S829.12,32.5,828.5,29.179l-2.388-12.766a7.612,7.612,0,0,0-1.138-3.243c-1.33-1.774-3.825-2.026-5.969-2.589s-4.527-2.229-4.107-4.406c.415-2.151,3.121-2.818,5.3-3.009q9.205-.806,18.452-.973Z" transform="translate(7.421 0.02)"/><path d="M582.113,95.9c-2.609-1.867-.083-5.907,2.511-7.8,1.977-1.44,4.128-2.836,6.561-3.079s5.19,1.051,5.8,3.419a17.981,17.981,0,0,1-11.178,7.818A4.647,4.647,0,0,1,582.113,95.9Z" transform="translate(5.291 0.774)"/><path d="M66.5,147.2c-1.39,5.027-3.078,10.239-6.836,13.856s-10.215,4.958-14.169,1.558c-3.985-3.426-3.634-9.921-1.067-14.507,3.637-6.5,11.915-10.693,18.849-7.98A5.584,5.584,0,0,1,66.8,143.3a6.971,6.971,0,0,1-.3,3.9m-12.335.531a8.422,8.422,0,0,0-2.079,9.415,9.983,9.983,0,0,0,3.963-12.275,3.509,3.509,0,0,0-1.967,2.709Z" transform="translate(0.387 1.269)"/><path d="M70.053,147.7a18.089,18.089,0,0,1,7.932-12.3,15.086,15.086,0,0,1,14.4-.952,4.862,4.862,0,0,1,1.862,1.415,5.645,5.645,0,0,1,.73,3.395c-.057,6.512-1.494,13.483-6.236,17.947s-13.517,4.9-17.173-.493a12.458,12.458,0,0,1-1.518-9.016m18.318-4.764a3.584,3.584,0,0,0,.531-2.4c-.38-1.45-2.446-1.788-3.742-1.036s-2.045,2.15-2.9,3.379c-1.561,2.236-3.763,4.339-3.839,7.065s4.107,4.982,5.3,2.531Z" transform="translate(0.636 1.212)"/><path d="M583.818,123.1a5.361,5.361,0,0,1,2.454-.963c2.037-.111,3.532,1.806,4.644,3.517-1.659,1.4-2.578,3.466-3.953,5.143s-3.672,3.016-5.657,2.143c-1.916-.842-2.526-3.45-1.769-5.4A9.825,9.825,0,0,1,583.818,123.1Z" transform="translate(5.275 1.112)"/><path d="M325.858,15.443a6.893,6.893,0,0,1,1.237-4.168c1.9-2.152,5.769-.937,7.2,1.547s1.172,5.558.864,8.411L333.7,34.8c-.285,2.644,2.843,4.491,5.5,4.33s5.081-1.537,7.694-2.031,5.917.372,6.631,2.933c.661,2.371-1.391,4.76-3.712,5.579s-4.861.574-7.315.751c-5.656.407-12.469,2.693-16.2-1.575-2.226-2.543-2.106-6.312-1.861-9.683Z" transform="translate(2.953 0.093)"/><path d="M154.426,302.629c-.158-1.673-.272-3.514.716-4.873,1.5-2.069,4.92-1.79,6.779-.034s2.5,4.435,2.794,6.975a38.986,38.986,0,0,1-.4,11.655c-.531,2.842,3.622,3.827,6.508,3.656s7.02,1.36,6,4.066a35.742,35.742,0,0,1-12.964,5.947,6.881,6.881,0,0,1-4.009.044c-2.6-1-3.247-4.317-3.508-7.091Z" transform="translate(1.405 2.699)"/><path d="M432.026,514.584c1.1-.8,2.728.475,2.779,1.835s-.855,2.548-1.714,3.6l-2.015-1.216,1.4-3.761Z" transform="translate(3.926 4.684)"/><path d="M682.011,552.519l2.027,4.065a2.756,2.756,0,0,1-2.24-5.029Z" transform="translate(6.196 5.023)"/><path d="M395.75,285.566c1.78,1.817-.969,4.51-3.3,5.52l3.025-5.055Z" transform="translate(3.574 2.601)"/><path d="M846.578,380.977c.778,1.136-.993,2.829-2.093,2a3.507,3.507,0,0,1-.047-3.962c1.014-.328,1.713,1,1.947,2.043Z" transform="translate(7.685 3.451)"/><path d="M458.444,121.474a3.258,3.258,0,1,0-5.262,2.036A3.433,3.433,0,0,0,458.444,121.474Z" transform="translate(4.117 1.072)"/><path d="M680.953,527.664a1.582,1.582,0,0,1,.484,2.569,3.41,3.41,0,0,1-1.974-5.19,3.892,3.892,0,0,1,1.479,2.51Z" transform="translate(6.183 4.782)"/><path d="M487.484,4a3.221,3.221,0,0,1-4.507,2.679,5.239,5.239,0,0,1,4.476-2.755Z" transform="translate(4.399 0.036)"/><path d="M451.764,155.794c-.568,2.084-4,2.228-5.068.352s.213-4.49,2.241-5.235a5.93,5.93,0,0,1,5.94,1.581l-2.516,3.485Z" transform="translate(4.065 1.372)"/><path d="M729.476,181.238c-1.764-.016-1.742-2.684-1.1-4.326,1.737-.14,1.812,2.552,1.174,4.173Z" transform="translate(6.63 1.611)"/><path d="M39.792,139.6c-.109-1.726,2.547-1.792,4.16-1.169a3.016,3.016,0,0,1-4.071,1.238Z" transform="translate(0.362 1.257)"/><path d="M577.009,160.045c2.86-.29,4.639,3.829,2.987,6.181s-5.217,2.653-7.8,1.383c-2.962-1.457-4.971-5.23-3.509-8.189s6.856-2.942,7.573.28Z" transform="translate(5.175 1.432)"/><path d="M74.475,531.592c-.978-.111-1.23-1.58-.6-2.336a4.173,4.173,0,0,1,2.662-1.115,2.067,2.067,0,0,1-2.1,2.866Z" transform="translate(0.67 4.81)"/><path d="M426.725,428.437a1.8,1.8,0,1,1-.322-3.234,2.1,2.1,0,0,1,.05,2.928Z" transform="translate(3.861 3.872)"/><path d="M514.345,193.189c-1.715-1,.567-4.2,2.075-2.911a3.823,3.823,0,0,1-2.028,2.708Z" transform="translate(4.679 1.73)"/><path d="M460.551,88.842c2.058.107,2.146,3.609.312,4.548s-4.076,0-5.727-1.233c-1.863-1.392-3.508-4.041-2.094-5.887,1.745-2.278,5.318-.3,7.354,1.724Z" transform="translate(4.121 0.776)"/><path d="M348.932,224.121l3.973.109c-1.2,1.368-4.236,2.079-4.068.267Z" transform="translate(3.177 2.041)"/><path d="M400.506,135.932c-.934-.436.029-2.208.9-1.662,1.286.459-.166,2.865-1.171,1.941Z" transform="translate(3.644 1.222)"/><path d="M398.838,228.476c-.433.934-2.205-.026-1.66-.9.464-1.278,2.862.133,1.97,1.159Z" transform="translate(3.616 2.068)"/><path d="M433.229,287.048a5.846,5.846,0,0,0-1.325-3.807c1.794-.424,3,2.66,1.4,3.566Z" transform="translate(3.933 2.579)"/><path d="M852.8,29.187,850.868,7.78c-.287-3.182,4.581-4.586,7.083-2.6s3.072,5.492,3.462,8.662L863.341,29.5c.421,3.415.248,7.867-2.99,9.03-2.192.787-4.683-.631-5.893-2.621S853.009,31.506,852.8,29.187Z" transform="translate(7.749 0.039)"/><path d="M510.39,161.9c-2.582.5-6.224.314-6.645-2.281-.4-2.463,2.691-3.867,5.142-4.335,3.272-.624,7.986-.077,8.117,3.25a16.124,16.124,0,0,1-6.411,3.86Z" transform="translate(4.587 1.412)"/><path d="M738.417,53.953c-.828.657-1.644-1.108-.947-1.9a2.3,2.3,0,0,1,1.968.715c.394.613-.432,1.65-.953,1.14Z" transform="translate(6.714 0.474)"/><path d="M681.715,31.148c-1-.984,1.066-2.817,1.907-1.693s-1.574,2.551-2.135,1.264Z" transform="translate(6.206 0.265)"/><path d="M171.831,211.987c1.5-.1,1.233,2.924-.236,2.595s-.575-3.151.831-2.613Z" transform="translate(1.556 1.93)"/><path d="M497.394,131.08c2.149-1.041,4.663,1.38,4.672,3.768s-1.546,4.462-3.027,6.335c-.957,1.21-2.35,2.56-3.8,2.045a11.647,11.647,0,0,1,.369-10.2A4.359,4.359,0,0,1,497.394,131.08Z" transform="translate(4.501 1.192)"/><path d="M507.626,133.768c.368-1.533.826-3.2,2.117-4.108,1.993-1.4,5.005-.013,5.991,2.213s.433,4.839-.54,7.07c-.8,1.841-2.218,3.771-4.226,3.82-1.861.045-3.392-1.664-3.8-3.48A12.278,12.278,0,0,1,507.626,133.768Z" transform="translate(4.617 1.176)"/></g></g></svg>