<svg xmlns="http://www.w3.org/2000/svg" viewBox="0 0 950 640">
	<path d="M511 68c-6-2-8-11-8-18l1-7c1-2 6-4 7-2l1 5v14c2 1 4-1 5-3s-1-3-1-5c-1-7 4-13 10-16s13-2 20-1l3 3c-3 0-5 2-6 4v7a85 85 0 0 1-1 21c0 2-1 4-3 5s-5 0-6-3v-7l1-11-1-9c-1-3-6-4-8-2 1 6 1 11-1 17s-7 9-13 8zM499 50c2 2-1 5-4 5s-6 1-6 4c0 2 2 3 4 4s4-1 6-1 5 2 4 4a13 13 0 0 1-23-5c-3 2-1 6-3 9-1 2-4 3-7 2s-4-4-6-6l-12-16v17c0 2 0 5-2 7-2 1-5 0-6-2a12 12 0 0 1-2-6c0-9 2-17 4-26 0-3 2-7 6-7 2 0 4 3 5 5l12 22 2-18 2-4 4-1 16-1c3 0 7 1 8 4-1 2-3 2-5 2l-7 1c-2 1-3 4-2 6h9a4 4 0 0 1 3 1zM592 47c1-4 6-6 10-5s6 5 9 8a54 54 0 0 1 7 22 5 5 0 0 1 0 4c-2 2-5 1-7-2l-5-6a6 6 0 0 0-9 3l-2 4a4 4 0 0 1-2 1c-12-1-21-9-30-16-4 2 1 10-2 14-2 2-6 0-7-2l-2-8 1-23a4 4 0 0 1 0-1c1-2 3-2 4-2 4 0 7-2 11-3s8-1 11 1 4 7 3 10l-4 11a4 4 0 0 0-1 3 4 4 0 0 0 2 2l8 8a99 99 0 0 0 5-23m-29 10c1 1 3 0 4-1a22 22 0 0 0 7-13l-1-1a13 13 0 0 0-11 12l1 3m41 0c1-1-2-3-3-2v5a4 4 0 0 0 1 1 2 2 0 1 0 2-3zM427 228l1-102c0-5 7-12 9-6v108q128-11 256-14l-4-103c3-4 8 3 9 8l4 95 193-12c-13 9-30 10-46 11l-145 10 10 194 220-11c-2 8-13 10-22 11l-197 8 9 181c0 6-2 15-8 14l-11-186c0-3 0-5-2-7s-4-2-7-2l-245 14c-4 0-7 0-10 3l-1 8 4 114c-4 3-9-5-9-11l-3-111-242 12c-4-3 2-8 7-8l234-13-4-197-215 13c-5 0-12-2-12-6q113-11 227-15m16 7a9 9 0 0 0-5 1c-2 2-2 5-2 8q-1 94 5 188 128-10 256-14c2 0 5-1 6-3a7 7 0 0 0 1-4q-1-94-10-188-126 2-251 12zM228 31a2 2 0 0 1 2-1c5 0 8 6 8 11 0 2 0 5 2 5 3-2 1-7 4-9 2-3 7-1 8 2l2 10h3l4-18c1-3 6-3 8 0s0 6-1 9l-5 18c-1 3-2 6-5 7-5 1-7-5-8-9l-2-1c-3 4-1 10-5 12-2 1-4 0-6-1a14 14 0 0 1-3-6 131 131 0 0 1-6-28 3 3 0 0 1 0-1z"/>
	<path d="M507 153c1-4 3-10 0-13-5-3-5-10-2-15s8-7 14-8c3 0 7-2 6-4-2-8 2-15 9-19s13-5 21-4c10 1 21 5 27 13s8 22 1 30c-2 3-5 5-5 9 2 17 0 37-13 49-12 10-30 11-43 3s-20-26-15-41m27-22c-5-1-11-3-14-6-2-2-4-1-6 1s-4 5-4 9 6 5 8 3c2 0 1 2 0 3-4 8-8 16-7 25s4 17 12 21c5 3 10 3 15 3 6 0 11 0 16-2 7-3 12-10 15-17s3-15 2-22c-1-3-1-7-4-9a14 14 0 0 0-5-2l-28-7m6-6c1-7 3-16 10-18a17 17 0 0 1 21 23c-1 1-1 4 1 4a2 2 0 0 0 1-1c8-5 8-18 1-25s-16-10-26-10c-4 0-9 0-12 3-4 3-5 8-4 13s4 8 8 11m13-10a4 4 0 0 0-2 1c-1 1-2 2-1 4a12 12 0 0 0 12 9c3-6-2-15-9-14m-25 4a2 2 0 0 0 1 3 2 2 0 0 0-1-3zM132 186a13 13 0 0 1-5 3c-6 2-11-4-12-10s2-12 2-18v-7c2-4 7-5 12-5 6 0 13 2 16 8 4 7 0 15-5 21a79 79 0 0 1-8 8m-3-30c-3 2-3 6-4 9v12l1 4a35 35 0 0 0 9-11c2-3 3-7 1-10s-4-5-7-4zM93 536l1-23a13 13 0 0 1 1-6c1-2 3-3 5-2 2 0 2 2 3 3s3 2 4 1c2-2 5-1 6 1l3 6a126 126 0 0 1 1 25c3-1 6-2 9 0s2 6-1 7l-11 2c-2 0-5 0-7-2a7 7 0 0 1 0-4v-25c0-3-1-7-4-7v29l-2 5c-2 2-5 1-7-2s-1-5-1-8zM104 344l-1-18c-2 4-2 9-3 14s-1 10-4 14-8 6-13 4c-3-2-5-5-6-9s0-7 0-11l1-4c0-3 1-6 3-8s8 0 7 3a81 81 0 0 0-2 23 19 19 0 0 0 6-18c-1-5 3-10 8-13s10-3 15-3l7 1 2 2c3 3 7-1 11-2 5-1 10 3 10 7s-1 10-4 13c-2 2 0 5 3 5s4-1 5-4l1-8c0-3 1-7 3-10s7-4 10-1a11 11 0 0 1 2 4l5 12c1 2 2 5 1 7s-5 4-6 1c-1-1-4-1-5 1l-2 5c-1 2-4 3-5 2-5-5-16 1-19-5-2 4-1 10-5 11-2 0-4-1-5-3a14 14 0 0 1-1-6l-1-22c0-3-4-4-6-2s-2 5-3 7c0 6 0 12 3 17 1 2-1 5-4 6s-5-2-6-4l-2-8m32-10l2-5c0-2-3-3-4-1a14 14 0 0 0-1 13 7 7 0 0 0 3-7zM798 54c-2-2-5 2-5 4s-1 6-3 8c-3 0-5-1-6-3l-1-7 2-23 2-6c2-2 7-2 9 0l5 10 10 27c-2 3-7 3-10 0s-3-7-3-10zM56 541l-3 3-11 4c-4 1-8-1-11-4a15 15 0 0 1-1-7 123 123 0 0 1 0-27c0-2 0-5 2-6 3-3 7-2 10-2 6 2 12 3 17 6a13 13 0 0 1-15 3c-2-1-3 1-4 3v6c1 2 3 3 4 2a8 8 0 0 1 10 1 15 15 0 0 1-9 5 8 8 0 0 0-4 14 24 24 0 0 1 7-5 8 8 0 0 1 5 0c2 0 3 2 3 4zM303 38c-4 0-8 0-12 2s-6 7-3 9a23 23 0 0 1 18-3 3 3 0 0 1 2 1c1 2 0 3-2 4a48 48 0 0 1-17 6c-3 0-4 5-4 8s1 7-2 8c-3 2-6 0-7-3l-1-8 2-22 2-7c2-2 5-2 8-2a61 61 0 0 1 15 1c3 0 6 2 5 4 0 2-2 2-4 2zM86 503c2 0 3 0 4 2a4 4 0 0 1 0 2l-7 30a18 18 0 0 1-3 7c-1 2-4 4-6 3-3-1-4-4-5-7l-7-28c0-3 5-5 7-3s4 6 4 9 0 6 2 9c2-4 2-9 3-14s4-10 8-10zM225 48c1 3 0 8-3 8-5 1-5-10-10-10-6 0-7 10-12 10-2-1-3-2-3-4a12 12 0 0 1 1-6 99 99 0 0 1 11-23 7 7 0 0 1 2-3c2-1 4 0 6 2a14 14 0 0 1 2 5l6 21m-12-14a3 3 0 0 0-2 5 3 3 0 0 0 4-1 2 2 0 0 0-2-3zM28 343c-6 3 1 13-4 18-1 1-4 1-5-1l-2-5a62 62 0 0 1 2-24c1-3 6-4 9-2s4 5 5 8 2 7 4 9c2-2 2-5 2-8l-1-8c1-3 3-5 6-4 2 1 2 4 2 6l1 22a6 6 0 0 1 0 3c-2 3-6 2-8 0a38 38 0 0 1-11-14zM778 35a72 72 0 0 1 2 20c0 3 0 6-2 6-3 1-5-1-5-3l-2-7a4 4 0 0 0-2-3c-3 0-4 4-3 6s2 5 1 7c-1 3-5 2-7 1s-3-5-4-8-3-5-6-6c3-2 3-6 2-10s-1-8 3-9 6 3 6 6c1 3 2 7 5 6 2 0 2-3 2-5s-2-5-1-7c2-2 5-2 7 0l4 6zM341 43c0 7-1 14-4 19s-12 8-18 5-7-11-7-18l1-10a7 7 0 0 1 1-3c2-3 6-2 8 1s1 6 0 9l-1 9 1 4c2 2 5 1 6 0l2-6 3-13 1-4c2-1 4 0 6 1s1 4 1 6z"/>
    <path d="M738 59c3 0 5-3 7-4s7 0 7 3a16 16 0 0 1-27 2c-5-6-4-15-1-21a18 18 0 0 1 6-8c7-4 16 0 18 7-1 3-7 4-8 0-1-2-5-2-7 0s-2 4-2 6v10c1 3 4 5 7 5zM815 34a17 17 0 0 1 16-4c9 3 15 15 10 24s-17 11-25 5-8-19-1-25m5 13c0 3 1 7 4 7 5 2 8-4 9-8 0-3-1-6-4-8a6 6 0 0 0-7 2 10 10 0 0 0-2 7zM59 358c-3 0-6-3-7-6l-1-9-1-12c0-4 2-6 5-8s6-2 10-3c3 0 9 0 9 4 0 2-3 3-5 4l-6 1c-2 1-4 4-2 5 1 2 4 1 6 1s6 0 5 2c-1 3-4 3-6 4s-5 2-6 4-1 5 1 6l6-5c2-1 5 2 4 4-3 5-7 9-12 8zM35 181c0 2 1 4 3 5s5-1 4-3v-6c0-2 3-4 6-4 3 1 3 5 3 8v13c0 2 0 4-2 6s-3 3-5 2c-3-2-3-10-7-9-5 1-10-4-11-9s1-10 3-15c1-4 3-8 7-11s9-4 12-1c2 1 3 4 2 5s-3 3-5 2c-1-2-3-2-4 0a10 10 0 0 0-3 4c-2 4-3 9-3 13zM926 28c-2 2-6 1-9 1-5 0-8 7-5 12s9 6 14 4c3-1 5 3 4 6s-5 3-8 3c-8 0-16-2-20-9a17 17 0 0 1-1-10c1-6 5-12 10-14s13 1 15 7zM625 78c-2-2-2-6-3-9l-1-23c-1-3 4-4 7-2s3 5 3 9l1 14c1 2 2 5 4 4a14 14 0 0 1 14 1 3 3 0 0 1 2 3c0 2-2 3-4 3l-10 2c-4 1-10 1-13-2zM180 65a6 6 0 0 1-3-3 7 7 0 0 1 0-3l2-26c0-3 0-6 3-7 2-1 5 1 5 3l1 7-2 17a10 10 0 0 0 0 5l4 2a12 12 0 0 1 13 6 29 29 0 0 1-23-1zM863 22c3 0 6 0 8 3s-1 6-3 5-5 1-6 3-1 5 0 8l2 14c1 3-4 5-7 3s-3-5-4-9l-2-13a8 8 0 0 0-2-3c-1-2-3-2-6-2s-4-3-4-5c1-2 3-3 6-3l18-1zM604 117c-2-2 0-6 3-8l6-3c2 0 6 1 6 3a18 18 0 0 1-11 8 5 5 0 0 1-4 0zM84 168c-2 5-3 11-7 14s-10 5-14 2c-4-4-4-10-1-15 3-6 12-10 19-8a6 6 0 0 1 3 4 7 7 0 0 1 0 3m-12 1a8 8 0 0 0-3 9 10 10 0 0 0 4-12 4 4 0 0 0-2 3zM88 169a18 18 0 0 1 8-12 15 15 0 0 1 14-1 5 5 0 0 1 2 1 6 6 0 0 1 1 3c0 7-2 14-7 18s-13 5-17 0a12 12 0 0 1-1-9m18-5a4 4 0 0 0 1-2c-1-2-3-2-4-1l-3 3c-2 2-4 4-4 7s4 5 5 3zM606 144a5 5 0 0 1 3-1c2 0 3 2 4 4l-4 5c-2 2-3 3-5 2s-3-3-2-5a10 10 0 0 1 4-5zM346 36a7 7 0 0 1 1-5c2-2 6-1 7 2l1 8-1 14c-1 3 2 4 5 4l8-2c3-1 6 1 6 3 1 2-1 5-3 6h-8c-5 1-12 3-16-1-2-3-2-6-2-10zM173 325l1-5c1-2 4-1 6 0s3 5 3 7a39 39 0 0 1 0 12c-1 3 3 4 6 4s7 1 6 4a36 36 0 0 1-13 6 7 7 0 0 1-4 0c-2-1-3-5-3-7zM453 539c1-1 3 1 3 2l-2 4-2-2 1-3zM705 578l2 4a3 3 0 0 1-2-5zM416 308c2 2-1 5-3 6l3-5zM871 404c1 2-1 3-2 2a4 4 0 0 1 0-4c1 0 2 1 2 3zM480 143a3 3 0 1 0-6 2 3 3 0 0 0 6-2zM704 552a2 2 0 0 1 1 3 3 3 0 0 1-2-5 4 4 0 0 1 1 2zM509 24a3 3 0 0 1-5 3 5 5 0 0 1 5-3zM473 177c-1 2-4 2-5 1s0-5 2-6a6 6 0 0 1 6 2l-3 3zM753 203c-2 0-2-3-1-4 2-1 2 2 1 4zM57 161c0-2 3-2 4-1a3 3 0 0 1-4 1zM599 181c3 0 5 4 3 7s-5 2-8 1-5-5-3-8 7-3 7 0zM92 556v-2a4 4 0 0 1 2-1 2 2 0 0 1-2 3zM448 452a2 2 0 1 1-1-3 2 2 0 0 1 0 3zM536 215c-2-1 1-4 2-3a4 4 0 0 1-2 3zM482 110c2 0 2 3 0 4s-4 0-6-1-3-4-2-6c2-2 5 0 8 2zM369 246h4c-1 2-4 2-4 1zM421 157l1-2c1 1 0 3-1 2zM419 251s-2 0-1-1c0-2 3 0 2 1zM454 310a6 6 0 0 0-1-4c2-1 3 2 1 3zM878 49l-2-21c-1-3 4-5 7-3s3 6 3 9l2 16c1 3 0 7-3 9-2 0-5-1-6-3l-1-7zM532 183c-3 1-6 1-7-2 0-2 3-4 5-4 4-1 8 0 9 3a16 16 0 0 1-7 4zM762 74c-1 1-2-1-1-1a2 2 0 0 1 2 0c1 1 0 2-1 1zM705 51c-1-1 1-2 2-1s-2 2-2 1zM190 234c2 0 2 3 0 3s0-4 1-3zM519 152c2-1 5 2 5 4l-3 6c-1 2-3 3-4 2a12 12 0 0 1 0-10 4 4 0 0 1 2-2zM529 155l2-4c2-2 5 0 6 2s1 5 0 7-2 4-4 4-4-2-4-4a12 12 0 0 1 0-5z"/>
</svg>
