<svg xmlns="http://www.w3.org/2000/svg" xmlns:xlink="http://www.w3.org/1999/xlink" width="950" height="640" viewBox="0 0 950 640"><defs><clipPath id="b"><rect width="950" height="640"/></clipPath></defs><g id="a" clip-path="url(#b)"><g transform="translate(166 20)"><path d="M272.591,444.323a20.231,20.231,0,0,1,6.225-5.03,19.433,19.433,0,0,1,5.432-1.362c14.707-2.016,30.516.843,42.146,10.068,2.384,1.891,4.752,5.113,3.133,7.689-1.081,1.721-3.55,2.1-5.457,1.4a13.512,13.512,0,0,1-4.792-3.678c-1.09-1.135-2.73.67-3.271,2.148-2.032,5.556-4.882,11.149-9.806,14.428a16.9,16.9,0,0,1-26.228-12.931c-.152-2.263,0-4.911-1.75-6.356L268.9,465.1a6.611,6.611,0,0,1-1.938,2.193c-2.466,1.5-5.8-1.041-6.148-3.908s1.259-5.578,2.9-7.955a101.122,101.122,0,0,1,8.88-11.111m18.844,3.658a2.878,2.878,0,0,0,1.494,4.456,2.242,2.242,0,0,0,.866-1.465,9.732,9.732,0,0,1-1.7-2.436,1.39,1.39,0,0,0,1.124-1.751,1.242,1.242,0,0,0-1.742,1.225m28.78,1.49.02-1.325a10.288,10.288,0,0,0-4.7-3.084,7.068,7.068,0,0,0,4.283,4.958m-44.716,2.673a1.909,1.909,0,0,0-2.494-1.137,3.675,3.675,0,0,0-1.994,2.249,3.121,3.121,0,0,0,4.212-1.137m29.775,12.087a1.432,1.432,0,0,0,1.828,1.746,1.277,1.277,0,1,0-1.83-1.778m-14.071-10.522c-.594-.364-.964.726-.82,1.408a.957.957,0,1,0,.821-1.466m-5.629.349c.591.534,1.632-.551,1.074-1.119a.833.833,0,1,0-1.052,1.1m5.24-8.2a.947.947,0,0,0-1.663.491,1.016,1.016,0,0,0,1.741-.548Z" transform="translate(-106.844 -179.183)"/><path d="M277.89,909.865c2.744,5.819,8.464,9.838,14.6,11.773s12.7,2.012,19.121,1.663c49.67-2.7,95.192-29.716,131.813-63.381,2.234-2.054,4.637-4.232,7.637-4.691s6.579,1.758,6.276,4.778c-.181,1.806-1.609,3.2-2.955,4.418-23.133,20.91-48.842,39.333-77.492,51.644s-60.412,18.317-91.323,14.209a46.352,46.352,0,0,1-17.9-27.055c1.156-2.309,4.8-1.986,6.632-.165s2.488,4.471,3.589,6.806m156.573-36.5a1.261,1.261,0,0,0-1.371.274,9.99,9.99,0,0,0-.692,4.722,3.344,3.344,0,0,0,2.116.273,10.983,10.983,0,0,0-.033-5.314m-5.936,3.154a1.565,1.565,0,1,0,1.033,2.506,1.649,1.649,0,0,0-1.033-2.506m24.485-15.806a1.685,1.685,0,0,0-1.917-.855c-.794.91-.81,2.586.27,3.127s2.429-1.274,1.4-1.912M406.772,895.2a1.9,1.9,0,0,0,1.173,2.939,2.728,2.728,0,0,0,.859-2.481c-.264-.877-1.655-1.293-2.106-.5m-2.622,3.244q0-1.182,0-2.364a2.248,2.248,0,0,0-1.527-.3,8.668,8.668,0,0,0-.24,3.264,1.14,1.14,0,0,0,1.666-.633m8.627-9.236a2.06,2.06,0,0,0-1.135,3.112l2.065-.2-.88-2.791M354.5,918.95l-2.666-.226a2.251,2.251,0,0,0-.292,1.517,5.072,5.072,0,0,0,2.655.3,1.959,1.959,0,0,0,.273-1.474m66.678-34.145A1.432,1.432,0,0,0,422.9,883.1a1.277,1.277,0,1,0-1.778,1.83M363.185,918.24a1.2,1.2,0,1,0-2.076.151,1.164,1.164,0,0,0,1.9-.242M369,914.117a1.592,1.592,0,0,0-.672,2.267,1.575,1.575,0,0,0,1.965-.8c.261-.74-.555-1.671-1.27-1.351m74.608-48.28c.294-.8-1.1-1.022-1.854-.621a1.083,1.083,0,0,0,1.826.6m-6.252,7.922c-.5.785,1.02,1.723,1.5.926.375-.59-.726-.962-1.407-.807Z" transform="translate(-109.672 -350.391)"/><path d="M264.064,982.327c-1.792-2.448-3.1-5.747-1.751-8.464s6.338-2.955,6.924.021c.94,4.774,5.09,8.417,9.671,10.058s9.571,1.612,14.433,1.426a255.68,255.68,0,0,0,91.811-20.929c4.918-2.137,11.293-4.2,15.071-.393-6.427,8.014-16.946,11.269-26.819,14.108-23.2,6.669-46.559,13.37-70.593,15.576-14.044,1.289-30.418-.022-38.748-11.4m127.675-17.094a1.886,1.886,0,0,0,1.391,2.62,2.562,2.562,0,0,0,.716-2.791c-.471-.911-2.172-.91-2.321.1M372.207,973.7a1.846,1.846,0,0,0,2.6,1.712,1.447,1.447,0,1,0-2.369-1.658m7.974-3.28a1.212,1.212,0,1,0,.883-1.466,2.247,2.247,0,0,0-.874,1.471m-56.775,16.532a1.122,1.122,0,0,0,1.561.835,1.277,1.277,0,0,0,.028-1.717c-.672-.1-1.708.238-1.4.846m-6.367.263c-.5.786,1.021,1.723,1.5.926.374-.59-.727-.962-1.408-.807Z" transform="translate(-107.25 -394.131)"/><path d="M481.722,239.741l4.448,9.285a75.163,75.163,0,0,0-8.191-49.563,129.327,129.327,0,0,0-10.757-15.733c-3.161-4.112-6.52-8.287-11.09-10.74s-10.691-2.761-14.617.629c-1.557.108-2.533-1.962-1.927-3.4a5.5,5.5,0,0,1,3.633-2.71,17.036,17.036,0,0,1,14.317,1.989,33.616,33.616,0,0,1,5.876,5.388l7.481,8.04c4.771,5.128,9.59,10.32,13.023,16.426,7.909,14.066,7.707,31.527,15.3,45.765,1.2,2.252,2.609,4.455,3.132,6.953s-.073,5.444-2.186,6.874c-2.922,1.978-2.6,6.269-2.327,9.787a49.508,49.508,0,0,1-1.541,16.654c-.758,2.823-3,6.223-5.739,5.209a110.669,110.669,0,0,0,1.7-48.386c-6.081,17.991-.4,38.931-8.927,55.9a197.813,197.813,0,0,0,2.085-24.176l-5.492,7.452a92.452,92.452,0,0,0,1.8-41.641M497.763,253.1a1.842,1.842,0,1,0-.581-3.637,3.028,3.028,0,0,0,.528,3.609Z" transform="translate(-180.039 -68.32)"/><path d="M328.748,381.184A5.094,5.094,0,0,1,335.6,388.5l5.636-.571a9.124,9.124,0,0,0-4.6,6.427,6.194,6.194,0,0,1,7.237.293c-6.8,2.354-14.132,2.51-21.326,2.643l-72.125,1.327c-3.841.071-8.7-.544-9.832-4.214-.4-1.279-.671-3.147-2.009-3.092-3.351.138-4.491-5.108-2.191-7.549s6.032-2.688,9.385-2.772q29.679-.747,59.363-1.313c3.1-.059,6.558.015,8.786,2.173-1.357-1.231,1.1-2.98,2.929-3.141l13.863-1.23-1.976,3.707m-15.594,8.967c1.481.743,1.76,3.471,3.407,3.292a1.8,1.8,0,0,0,1.325-1.119c1.014-2.194-.889-4.864-3.226-5.484a5.523,5.523,0,0,0-4.547.758c-1.1-.424-2.376-.841-3.426-.294s-1.117,2.524.058,2.664a2.643,2.643,0,0,1,2.167,3.092l2.5.029a4.121,4.121,0,0,1,1.744-2.938m20.214,4.572a2.854,2.854,0,0,1,2.107-3.2l-1.914-5.576c1.649.24,2.377-2.726.8-3.276s-2.854,2.221-1.416,3.062a4.263,4.263,0,0,1-2.408.261l.339,6.029a4.241,4.241,0,0,0,.524,2.182,1.461,1.461,0,0,0,1.964.518m-5.22-6.074a1.43,1.43,0,0,0,.964-2.212,7.578,7.578,0,0,1-7.653.171c-.731-.419-1.577.653-1.308,1.451a3.193,3.193,0,0,0,1.866,1.6l6.56,3.093a7.007,7.007,0,0,0-.43-4.1m-43.985,3.926c.772-.062,1.684-.217,2.01-.919.532-1.144-.989-2.119-2.2-2.476-1.424-.42-3.438-.564-3.922.84a2.019,2.019,0,0,0,1.258,2.314,5.879,5.879,0,0,0,2.853.241m15.673-4.993a6.9,6.9,0,0,0-3.023.407,3.47,3.47,0,0,0-1.763,1.886,8.324,8.324,0,0,0,3.06,1.445,2.838,2.838,0,0,0,2.967-1.186,1.745,1.745,0,0,0-1.24-2.552m-16.894-2.441a5.265,5.265,0,0,0-5.442-.508c-.674.34-1.334.97-1.246,1.719a4.73,4.73,0,0,0,6.687-1.212m39.419,8.213a3.127,3.127,0,0,0,3.329,1.53,1.89,1.89,0,0,0-3.461-1.514M276.3,395.106a1.878,1.878,0,0,0,2.925-1.146,2.636,2.636,0,0,0-2.686-.853,2.834,2.834,0,0,0-.24,2.036m25.006-3.425c-1.514.655-.416,3.475,1.194,3.116a1.914,1.914,0,0,0-1.148-2.95m-23.977-2.011a1.52,1.52,0,0,0-2.83,1.11,1.873,1.873,0,0,0,2.91-1.15m-22.1.4c-1.281.44-.838,2.826.516,2.776,1.272-.5.8-2.865-.562-2.843m69.961-7.532-1.5-.227a2.368,2.368,0,0,0-.008,2.408,2.059,2.059,0,0,0,1.772-.47c.429-.468.307-1.4-.312-1.543m-56.6,6.388a1.3,1.3,0,0,0-1.8,1.242,2.086,2.086,0,0,0,1.479.282,1.931,1.931,0,0,0,.271-1.468m37.847,2.958c-.113-.881-1.171-1.814-1.77-1.158-.514.888,1.072,1.945,1.695,1.13m-34.991-4.355c.456-.825-1.1-1.71-1.578-.9a.9.9,0,0,0,1.4.726m45.173-5.411c.785.5,1.723-1.02.926-1.5-.59-.375-.962.726-.807,1.407Z" transform="translate(-96.366 -154.665)"/><path d="M292.867,134.266c-.9-.963-.724-2.471-.528-3.774a67.991,67.991,0,0,0-.049-20.541c-1.89-.886-2.922,2.224-2.837,4.309s-1.836,5-3.278,3.493c-6.694-30.014-29.489-55.929-58.4-66.4C232.84,55.224,237.917,59.1,242.62,63.4a107.934,107.934,0,0,1,33.762,64.561c.368,2.726-1.005,6.815-3.538,5.742-1.562-.662-1.638-2.8-1.576-4.5.355-9.7-3.168-19.348-9.007-27.1,2.415,10.457,4.8,21.586,1.276,31.722-.572,1.643-1.457,3.393-3.095,3.978s-3.877-1-3.2-2.6a48.046,48.046,0,0,0,3.7-15.965c.2-3.58-.954-8.258-4.528-8.548,2.328.9,3.258-3,2.588-5.4A86.115,86.115,0,0,0,245.889,78.04a11.851,11.851,0,0,1,5.565,4.515c1.32.309,1.253-1.963.482-3.078C241.071,63.736,226.45,48.508,207.5,45.887a138.366,138.366,0,0,1,41.152,71.989c1.216,5.632,1.808,12.276-2.192,16.422a154.016,154.016,0,0,0-22.114-62.466c-6.058-9.707-13.788-19.169-24.554-23.044-12.743-4.587-26.791-.43-39.681,3.729-1.138.367-2.137-1.174-1.757-2.308a4.638,4.638,0,0,1,2.59-2.342,48.123,48.123,0,0,1,41.17-.513,13.57,13.57,0,0,0-11.751-8.833c-3.487-.2-7.278.93-10.305-.813a310.088,310.088,0,0,1,59.494-14.761c1.467-.213,3.621.212,3.413,1.68l-18.714,3.967c.943,1.959,3.609,2.14,5.782,2.08,10.811-.3,21.815.334,32.026,3.9s19.629,10.342,24.6,19.944c.82,1.583,1.31,3.935-.245,4.808-5.164-6.509-10.562-13.214-17.966-16.985-4.17-2.124-8.779-3.206-13.336-4.27-19.975-4.664-41.7-9.18-60.358-.655,4.856,6.027,14.181,4.233,21.891,3.559,8.686-.759,17.4.667,26,2.089,5.559.919,11.264,1.888,16.114,4.756a45.694,45.694,0,0,1,6.163,4.656l13.437,11.4c6.371,5.4,12.882,10.974,16.922,18.285s5.137,16.854.539,23.828c.07-14.137-8.864-26.717-18.782-36.791-12.373-12.568-28.67-23.525-46.231-21.9a118.628,118.628,0,0,1,63.407,64.25c2.3,5.7,4.17,11.718,4,17.862a6.987,6.987,0,0,1-1.261,4.394c-1,1.187-3.037,1.6-4.1.468M225.58,44.547c.526,1.182,1.3,2.43,2.553,2.736s2.77-1.121,2.063-2.2a2.508,2.508,0,0,0-1.184-.812c-1.078-.463-2.561-.826-3.234.136m57.065,28.074a4.763,4.763,0,0,0,2.371,1.87,2.82,2.82,0,0,0-2.4-3.724,1.638,1.638,0,0,0-.041,1.892m-61.1-42.8c.144-.659-.206-1.718-.784-1.368-.82.414.138,1.957.873,1.405Z" transform="translate(-64.851 -9.381)"/><path d="M49.438,130.091A71.011,71.011,0,0,0,91.421,145.3c-3.937,5.3-12.094,4.271-18.333,2.113a105.938,105.938,0,0,1-22.063-10.628c-5.512-3.493-10.852-7.672-13.973-13.4-6.706-12.317-1.384-27.518,4.587-40.207,1.248-2.652-1.747-5.728-4.677-5.673s-5.416,2.084-7.523,4.122a80.24,80.24,0,0,0-23.557,46.75c-2.194,1.2-3.808-2.407-3.584-4.9,1.36-15.163,10.915-28.169,20.117-40.3,2.422-3.193,5.031-6.53,8.756-8.006,3.753-1.487,7.969-.82,11.99-1.187s8.549-2.512,9.13-6.507l.316,5.172a23.329,23.329,0,0,1,15.546-5.3c2.693.1,2.585-4.417.456-6.067s-5.2-2.243-6.545-4.576c1.054-1.694,3.6-.687,5.572-.392,5.245.784,8.952-4.84,11.2-9.644s5.9-10.446,11.151-9.735c-4.586,1.876-5.2,8.041-4.869,12.986.166,2.522.412,5.131,1.656,7.331s3.762,3.882,6.236,3.366c10.336-2.157,21.215.089,30.825,4.462s18.139,10.775,26.445,17.293c8.772,6.884,17.781,14.489,21.544,24.986.4,1.113.705,2.449,0,3.4-2.639,3.591-.793,8.663,1.444,12.517s4.909,8.183,3.618,12.449c-.516,1.705-3.188,3.078-3.763,1.392-6.412-18.812-15.155-37.311-29.165-51.409s-34.011-23.283-53.7-20.594a3.223,3.223,0,0,0-1.882.7c-.758.745-.628,1.98-.424,3.022a88.727,88.727,0,0,0,38.939,57.1L107.788,91.667l1.964-2.831a194.8,194.8,0,0,0,18.758,33.945c4.521,6.543,10.307,13.321,18.207,14.236a36.731,36.731,0,0,1-13.336-20.925,37.031,37.031,0,0,0,10.287,14.52c1.462,1.258,3.069,2.456,3.961,4.166s.79,4.138-.8,5.228c-4.482.557-8.7-2.007-12.445-4.53-10.974-7.39-21.658-15.414-30.4-25.348S88.5,88.18,86.473,75.107c-.476-3.069-.745-6.325-2.508-8.882s-5.69-3.941-8.022-1.89c-1.5,1.316-1.81,3.5-1.942,5.484a70.091,70.091,0,0,0,52.6,72.565c-8.285,2.4-17.106-1.452-24.176-6.395a79.374,79.374,0,0,1-33.266-65.8c-3.681.165-7.466.354-10.824,1.87s-6.237,4.693-6.27,8.378c-1.443-1.182-3.722-.7-5.1.548A11.879,11.879,0,0,0,44.214,85.8c-4.532,12.027-8.87,26.268-1.825,37.018a31.827,31.827,0,0,0,7.048,7.273M77.6,55.687a3.892,3.892,0,0,0-.514,2.215c.315,1.813,3.082,2.126,4.428.872s1.618-3.253,1.809-5.083l.642-6.139a1.713,1.713,0,0,0-.371-1.577c-.793-.614-1.784.468-2.2,1.381L77.6,55.687m86.665,49.987c.283-1.125-.926-2.509-1.938-1.941a1.481,1.481,0,1,0,2.106,2.036m2.543,2.511c-.629-.076-1.112.7-.922,1.307a1.744,1.744,0,0,0,1.452,1.067A1.57,1.57,0,0,0,167,108.22m-9.8-15.509c.591.534,1.632-.551,1.074-1.119a.833.833,0,1,0-1.052,1.1Z" transform="translate(-0.933 -15.114)"/><path d="M467.734,144.759a34.434,34.434,0,0,1,23.778,10.934c4.839,5.247,7.9,11.858,10.706,18.419,9.811,22.916,17.663,47.914,13.488,72.489L512.08,222.57c-2.172-14.4-4.662-29.543-13.81-40.872,3.177-1.67,1.953-6.478.142-9.577-5.884-10.067-14.292-19.689-25.653-22.31-6.6-1.522-15.081-1.436-17.95-7.571,18.414-8.642,42.85-.916,52.948,16.741a65.821,65.821,0,0,0-35.048-16.829C470.531,141.834,467.347,142.592,467.734,144.759Z" transform="translate(-186.35 -56.826)"/><path d="M290.511,634.6c-.005,2.853-3.178,4.489-5.873,5.423A255.861,255.861,0,0,1,199.6,654.09a6.884,6.884,0,0,1-3.941-.831c-2.45-1.7-1.558-5.861.895-7.556s5.659-1.662,8.639-1.629a213.2,213.2,0,0,0,74.13-12.466c2.148-.77,4.385-1.588,6.651-1.318s4.537,2.028,4.533,4.309m-26.1,3.758-4.777,3.173a1.854,1.854,0,0,0,1.948,3.154c.114-1.137,1.2-1.907,2.242-2.38a6.568,6.568,0,0,0,2.869-1.793c.661-.932.327-2.609-.812-2.71a2.406,2.406,0,0,0-1.47.557m18.048.377,3.179-6.516a3.648,3.648,0,0,0-3.179,6.516m-8.85-.764a3.486,3.486,0,0,1,2.083-.225,1.645,1.645,0,0,0,.245-1.421,3.02,3.02,0,0,0-4.2.982,1.634,1.634,0,0,0,1.892.8m-2.343,3.486a2.125,2.125,0,0,0,.317-2.613c-1.065-.008-2.3.508-2.489,1.556s1.569,1.89,1.96.9m-40.6,6.059a1.6,1.6,0,0,0-2.28-.662,1.747,1.747,0,0,0,2.054,2.083,1.819,1.819,0,0,0,.275-1.453m5.636-.3c-.654-.288-.985.8-.876,1.5a1.563,1.563,0,0,0,2.37-1.285l-1.483-.3m7.983-.207a1.709,1.709,0,0,0,.243,1.467,2.1,2.1,0,0,0,1.561-.289l-.239-2.236-1.661.9Z" transform="translate(-79.575 -258.228)"/><path d="M133.221,921.753l-6.579,16.833c-3.6-1.706-5.324-6.067-5.113-10.05s1.966-7.7,3.689-11.295c2.5-5.208,5.368-10.8,10.6-13.243,17.893-8.35,39-9.268,55.5-20.116,1.876-1.233,4.084-2.651,6.194-1.885,2.53.918,3,4.586,1.561,6.857s-4.064,3.457-6.543,4.5a228.51,228.51,0,0,1-28.411,10.282c-5.994,1.641-12.143,2.9-17.783,5.51s-10.852,6.814-13.114,12.6m13.08-19.632a4.584,4.584,0,0,0-2.2.908,2.3,2.3,0,0,0-.72,1.435l6.845.446c.893-.686.4-2.259-.613-2.759a5.065,5.065,0,0,0-3.31-.031M127.14,931.568c-1.167-.94,1.315-2.637.863-4.065-.442-1.4-2.743-.385-3.043,1.048s.2,3.058-.561,4.308l1.645.42.886-1.562m-1.739-7.533a3.005,3.005,0,0,0,3.451-3.878,3.306,3.306,0,0,0-3.321,3.742m7.557-11.791a3.011,3.011,0,0,0,.863-3.864,3.707,3.707,0,0,0-2.662,3.868,1.585,1.585,0,0,0,1.822.055m26.528-12.45a1.638,1.638,0,1,0,2.719-.806,1.725,1.725,0,0,0-2.719.806m-20.922,8.9c1.354.133,1.609-2.453.255-2.586s-1.609,2.453-.255,2.586m31.822-11.01a1.72,1.72,0,0,0,.846-1.964,1.225,1.225,0,1,0-.82,1.992Z" transform="translate(-49.787 -361.294)"/><path d="M390.676,82.738c-.948,2.736-3.9,5.675-6.292,4.04a52.817,52.817,0,0,0-8.313-45.984c-8.328-11.062-20.922-18.444-34.264-22.148S314.37,14.7,300.585,16c7.657-5.59,17.641-7.217,27.086-6.4s18.535,3.865,27.52,6.892c7.708,2.6,16.1,5.74,20.057,12.845a196.164,196.164,0,0,1,12.839,28c2.988,8.155,5.431,17.189,2.588,25.4M353.214,18.269a2.273,2.273,0,0,0-2.972-.6,1.729,1.729,0,0,0,3.111.663m9.3,5.224c.293-1.219-2.1-1.656-2.3-.417s2.124,1.657,2.414.437m7.009,1.174a1.58,1.58,0,0,0-2.443-1.159l.914,2.043c.68.126,1.723-.248,1.413-.865M342.921,14.424c-.78-.254-1.126,1.078-.634,1.734a1.126,1.126,0,0,0,1.519-.5A.876.876,0,0,0,342.9,14.5Z" transform="translate(-123.159 -3.853)"/><path d="M113.918,430.966a12.134,12.134,0,0,1,3.769,4.374,4.85,4.85,0,0,1-.8,5.407c-.913.835-2.2,1.159-3.136,1.965a9.064,9.064,0,0,0-2.078,3.616,17.288,17.288,0,0,1-5.149,7.192,10.2,10.2,0,0,1-8.4,2.093,10.067,10.067,0,0,1-5.873-4.29,12.494,12.494,0,0,1-1.752-3.975,12.707,12.707,0,0,1,1.851-10.094c-2.52.31-5.515.441-7.112-1.533-1.333-1.648-1.05-4.055-.454-6.089a12.267,12.267,0,0,1,2.021-4.251,10.257,10.257,0,0,1,8.442-3.433,22.166,22.166,0,0,1,8.974,2.741,54.467,54.467,0,0,1,9.7,6.275M97.563,449.974a1.642,1.642,0,0,0,.555-1.774,1.445,1.445,0,0,0-2.251,1.159,1.223,1.223,0,0,0,1.708.631Z" transform="translate(-34.535 -172.883)"/><path d="M1123.158,582.437c-3.28,1.519-7.155.432-10.448-1.058s-6.554-3.4-10.166-3.534l-.267,2.027c2,.193,3.368,2.044,4.469,3.726,1.563,2.39,3.107,5.656,1.3,7.867-1.352,1.653-4.025,1.636-5.845.519a12.347,12.347,0,0,1-3.994-4.913A96.859,96.859,0,0,1,1090.646,569a6.765,6.765,0,0,1-.41-3.218c.432-2.211,2.964-3.486,5.21-3.31s4.25,1.413,6.154,2.615l17.62,11.127c1.063-2.8-1.636-5.5-4.032-7.305s-5.073-4.542-3.962-7.325a4.549,4.549,0,0,1,4.808-2.445,10.016,10.016,0,0,1,5.081,2.631c3.925,3.364,6.774,7.783,9.564,12.135,1.386,2.161,2.717,5.192.944,7.049-2.03,2.127-5.8.248-8.466,1.483m4.454-5.979-.784-1.516a1.953,1.953,0,0,0-1.513.266l-.746,4.227a2.428,2.428,0,0,0,3.022-2.975m-24.969,6.736q.17,2.561.339,5.121c1.221.635,2.63-.952,2.393-2.308s-1.406-2.322-2.5-3.162m16.782-4.207a2.253,2.253,0,0,0-3.173,1.252c.774.927,1.96,1.753,3.114,1.4s1.33-2.465.128-2.583Z" transform="translate(-446.676 -229.082)"/><path d="M924.151,747.614l-4.577-4.25a3.545,3.545,0,0,0-1.648-1.037,3.389,3.389,0,0,0-1.983.433,37.262,37.262,0,0,0-6.684,3.942,5.511,5.511,0,1,1-6.118,9.048c-1.554-1.389-2.187-3.509-2.746-5.517-1.721-6.193-3.394-12.477-3.527-18.9-.082-3.993.759-8.537,4.134-10.671,2.694-1.7,6.307-1.3,9.124.193s5.011,3.909,7.145,6.277l10.3,11.43c1.235,1.371,2.561,3.106,2.035,4.874-.67,2.25-3.668,2.652-5.451,4.18m-21.593-2.78,2.714,8.121c.34,1.019.883,2.211,1.949,2.336.9-.982.648-2.543.175-3.791a15.774,15.774,0,0,0-4.838-6.665m8.029-10.2c.461-.88-.532-2.015-1.517-1.889a2.165,2.165,0,0,0-1.688,2.15,4.512,4.512,0,0,0,1.079,2.718,1.963,1.963,0,0,0,1.085.841c1.471.3,1.707-2.055,1.211-3.471m12.6,8.2,2.709.267c.774-1.335-.813-2.773-2.171-3.506-.768-.415-1.764-.817-2.45-.276a1.563,1.563,0,0,0-.063,2.118,4.543,4.543,0,0,0,1.971,1.234m-2.949-6.441a2.11,2.11,0,0,0,2.366,1.879,3.024,3.024,0,0,0-.473-2.407c-.58-.613-1.938-.318-1.859.523m-13.887-8.542c-.642-.3-.984.777-.875,1.477a1.357,1.357,0,0,0,1.743.014c.1-.674-.238-1.712-.85-1.409Z" transform="translate(-367.474 -294.821)"/><path d="M1039.518,701.2l-3.239-13.8a14.171,14.171,0,0,1-.548-5.458,4.823,4.823,0,0,1,3.281-4.045c2.317-.555,4.487,1.27,6.05,3.068a46.469,46.469,0,0,1,6.826,10.394,2.275,2.275,0,0,0,2.251.36q-.37-7.346-.739-14.693a5.261,5.261,0,0,1,.364-2.776c1.12-2.084,4.292-1.7,6.293-.436,3.164,2,5.264,5.26,7.85,7.963s6.245,5,9.883,4.123c2.084-.5,3.91,2.083,3.357,4.153s-2.615,3.4-4.676,3.983a12.707,12.707,0,0,1-11.676-2.657,1.94,1.94,0,0,0-2.588.44,10.226,10.226,0,0,0-1.344,2.573,8.544,8.544,0,0,1-9.442,4.48c-.885-.217-1.695.68-1.862,1.576a18.917,18.917,0,0,0,.031,2.728c-.134,3.383-4.842,5.521-7.477,3.4-1.577-1.272-2.131-3.395-2.594-5.368m2.045-10.069a2.531,2.531,0,0,0,.763,1.615,1.335,1.335,0,0,0,1.353.14,7.653,7.653,0,0,0,.27-3.83,2.631,2.631,0,0,0-2.855-2.047,28.081,28.081,0,0,0,.469,4.122m6.971.948a1.191,1.191,0,0,0-2.042-.449,5.014,5.014,0,0,0,.369,3.043c.535.891,1.942,1.312,2.622.526.776-.9-.03-2.258-.863-3.1Z" transform="translate(-424.332 -275.656)"/><path d="M1008.141,618.349a134.781,134.781,0,0,1-12.86-13.876c-.9-1.07-1.857-2.293-1.764-3.689.138-2.063,2.63-3.287,4.658-2.883s3.638,1.9,5.131,3.327l6.874,6.582c1.188-.595.189-2.327-.563-3.423a6.322,6.322,0,0,1,2.137-8.776A18.364,18.364,0,0,1,1023,604.229c.425.75.872,1.6,1.687,1.877s1.92-.6,1.464-1.33a20.829,20.829,0,0,1-3.094-9.639,2.462,2.462,0,0,1,.562-2.089,2.166,2.166,0,0,1,1.234-.415c3.573-.308,6.86,2.381,8.4,5.619s1.708,6.936,1.85,10.519c.092,2.336.09,4.943-1.5,6.654-1.771,1.9-4.854,1.884-7.273.938s-4.481-2.628-6.828-3.741c-1.252,1.338.151,3.448.156,5.28.006,2.445-2.762,4.157-5.194,3.914s-4.5-1.839-6.319-3.469m20.062-15.534a1.414,1.414,0,0,0,2.043.326l-1.3-5.215a2,2,0,0,0-1.863,2.04,5.8,5.8,0,0,0,.982,2.885m-17.592,10.637a1.539,1.539,0,0,0-1.433.25,2.648,2.648,0,0,0,2.132,3.243,20.269,20.269,0,0,0-.662-3.537m4.93-2.075c.289-1.144-.3-2.757-1.469-2.617a7.743,7.743,0,0,0-.208,3.208,1.03,1.03,0,0,0,1.746-.573m1.194,4.492a1.846,1.846,0,0,0-1.712,2.6,1.447,1.447,0,1,0,1.658-2.369m-7.643-5.9v2.363a2.051,2.051,0,0,0,1.476.287,5.066,5.066,0,0,0,.294-2.648,1.515,1.515,0,0,0-1.8-.045m6.22-10.262a2.032,2.032,0,0,0-1.519.234,1.4,1.4,0,0,0,2.333,1.168c.269-.614-.178-1.6-.8-1.344M1004.2,610.785a1.06,1.06,0,0,0,1.79.589,1.077,1.077,0,0,0-.511-1.506.9.9,0,0,0-1.135.966Z" transform="translate(-407.073 -242.811)"/><path d="M836.157,545.469a15.309,15.309,0,0,0,2.009-2.036c3.038-3.1,8.193-3.2,12.125-1.371s6.9,5.2,9.653,8.555c1.028,1.252,2.1,2.682,1.995,4.3-.182,2.833-4,4.143-6.609,3.028s-4.257-3.66-5.924-5.957a5.165,5.165,0,0,0-2.441-2.135c-1.815-.555-3.7,1-4.324,2.794s-.381,3.751-.38,5.649-.344,3.981-1.784,5.217c-2.6,2.227-6.892.016-8.225-3.133-.674-1.591-.91-3.4-1.962-4.773s-3.448-1.935-4.4-.495c-.628.947-.3,2.206.044,3.288l1.889,5.9c.615,1.922,1.187,4.179.02,5.826-1.343,1.9-4.377,1.783-6.233.387s-2.825-3.647-3.714-5.793l-3.017-7.281c-1-2.4-1.8-5.643.274-7.221,3.458-2.637,7.355-5.412,11.69-5.06,3.187.258,6.692,2.138,9.318.314m19.276,8.207a19.685,19.685,0,0,1-2.786-5.981l-2.811-.935a6.889,6.889,0,0,0,5.6,6.915m-29.988,11.317c-1-1.042-3.006.124-2.981,1.569a3.228,3.228,0,0,0,2.859,2.786,7.751,7.751,0,0,0,.076-4.274m12.219-6.236c.225,1.393,2.781.751,2.7-.658s-1.823-2.2-3.2-1.894a2.162,2.162,0,0,0,.269,2.653M823.9,557.626c-1.464-1.454-4.5.079-4.2,2.12l3.889-.633.346-1.376m12.527-7.55a2.28,2.28,0,0,0-1.359,2.922,1.662,1.662,0,0,0,1.511-2.95m-7.11-2.11a.947.947,0,0,0,.492,1.663,1.016,1.016,0,0,0-.548-1.741Z" transform="translate(-333.462 -221.607)"/><path d="M808.386,788.193a5.011,5.011,0,0,1-4.706-2.268,14.316,14.316,0,0,1-1.962-5.113c-1.777-7.429-3.3-15.048-2.658-22.659.257-3.031,3.927-4.79,6.908-4.181s5.343,2.808,7.529,4.925c5.631,5.453,11.257,11.03,15.439,17.66-1.14,2.412-3.09,5.257-5.7,4.691-1.611-.35-2.71-1.96-4.313-2.346-2.425-.583-4.484,1.805-5.639,4.016S810.841,787.753,808.386,788.193Z" transform="translate(-327.339 -308.877)"/><path d="M720.947,712c-2.287-.874-4.333,1.853-4.84,4.248s-.672,5.264-2.743,6.571c-1.87,1.18-4.483.328-5.946-1.33a13.131,13.131,0,0,1-2.514-6.057,115.373,115.373,0,0,1-2.492-18.616c-.084-1.637-.1-3.406.839-4.751a5.51,5.51,0,0,1,3.636-2.052c4.07-.718,8.115,1.331,11.458,3.763s6.435,5.355,10.3,6.82a5.7,5.7,0,0,1,2.132,1.106,1.579,1.579,0,0,1,.182,2.163c-1.287,1.209-.009,3.25.783,4.828a6.482,6.482,0,0,1-.665,7.071c-1.675,1.875-4.961,2.2-6.71.4-1.27-1.312-1.712-3.512-3.418-4.164m-9.245,2.048a2.077,2.077,0,0,0,1.28,3.521,7.84,7.84,0,0,0,.234-3.176,1.888,1.888,0,0,0-1.459-.272m9.395-11.968a2.191,2.191,0,0,0-1.377,2.828,1.485,1.485,0,1,0,1.378-2.6m9.164,9.055a1.714,1.714,0,0,0-.242-1.459,1.138,1.138,0,0,0-1.522.729,3.292,3.292,0,0,0,.11,1.9,1.376,1.376,0,0,0,1.388.292,1.835,1.835,0,0,0,.274-1.451Z" transform="translate(-287.785 -282.661)"/><path d="M624.517,615.254c.957,1.282,2.935.72,4.484.323s3.861.154,3.658,1.74c-.241,1.887,3.28,2.876,2.677,4.681-.234.7-1.014,1.036-1.716,1.266a22.725,22.725,0,0,1-13,.72c-4.243-1.172-8.094-4.224-9.529-8.385-1.235-3.581-.615-7.507.073-11.232q.631-3.418,1.324-6.824c.482-2.369,1.355-5.149,3.682-5.806,1.921-.542,3.973.78,4.933,2.53a13.44,13.44,0,0,1,1.2,5.812c.039.724.95,1.13,1.648.933a3.738,3.738,0,0,0,1.68-1.328c2.9-3.384,6.074-6.732,10.156-8.525s9.3-1.679,12.544,1.383a4.568,4.568,0,0,1,1.658,3.947c-.271,1.464-2.089,2.594-3.333,1.777-3.661-2.4-8.481.269-11.782,3.147a76.347,76.347,0,0,0-9.4,9.789c-.939,1.171-1.861,2.85-.963,4.053m5.813,2.637A1.916,1.916,0,0,0,628,619.975a2.08,2.08,0,0,0,2.922,1.349,2.275,2.275,0,0,0,.641-3.244l-1.107-.563m3.352-21.091-.241,1.519a2.781,2.781,0,0,0,3.672-2.38,2.367,2.367,0,0,0-3.256.9m11.282-1.768.175-1.461a5.212,5.212,0,0,0-2.7-1c-.814,1.254,1.038,3.089,2.284,2.263m-30.594,10.256c-.5-.367-.994.666-.551,1.1a1.65,1.65,0,0,0,1.6-.371l-.9-.9Z" transform="translate(-250.096 -241.736)"/><path d="M947.78,525.448a3.88,3.88,0,0,0,1.962-.291,11.885,11.885,0,0,0,5.411-4.012,12.916,12.916,0,0,1,1.954-2.417c1.783-1.458,4.517-1.171,6.47.05a16.746,16.746,0,0,1,4.6,5.085l6.307,9.272c1.129,1.659.178,4.161-1.609,5.074a5.852,5.852,0,0,1-5.712-.616,14.919,14.919,0,0,1-4.014-4.429,8.922,8.922,0,0,0-2.509-2.846,2.828,2.828,0,0,0-3.513.226,11.89,11.89,0,0,1-15.26,1.757,15.02,15.02,0,0,1-5.222-7.442c-2.314-6.694-.79-14.854,4.572-19.481s14.487-4.587,19.109.78a7.8,7.8,0,0,1-2.092,3.2,2.678,2.678,0,0,1-3.515-.015c-2.165-2.417-6.512-1.13-8.238,1.618s-1.6,6.225-1.421,9.464c.115,2.06.686,4.667,2.719,5.019m11.847-2.975c1.188-.281,2.071,1.089,2.4,2.263s.735,2.611,1.921,2.9c1.025-1.606,1.425-3.821.32-5.375s-4-1.58-4.646.212m9.172,11.661c-.563.1-.717.92-.39,1.389a2.6,2.6,0,0,0,1.463.833c1.029.313,2.423.489,2.926-.462.438-.829-.31-1.884-1.218-2.119a4.723,4.723,0,0,0-2.737.409m-14.24-5.407a1.644,1.644,0,0,0-2.339,1.82,1.555,1.555,0,0,0,2.237-1.757m10.713,2.923c-.21.578.792,1.075,1.125.558a1.559,1.559,0,0,0-.355-1.595l-.9.9Z" transform="translate(-383.345 -205.691)"/><path d="M1088.218,481.823c4.922-1.374,10.272-1.769,15.09-.065s8.975,5.789,9.807,10.831c1.055,6.393-3.369,12.63-8.912,15.986a8.918,8.918,0,0,1-3.853,1.459c-4.214.319-7.065-4.07-8.934-7.861l-5.433-11.023c-1.31-2.658-2.452-6.293-.2-8.218a6.234,6.234,0,0,1,2.433-1.111m14.278,13.571a7.828,7.828,0,0,0-.511-2.561c-1.183-2.654-4.954-3.178-7.57-1.913a10.488,10.488,0,0,1,5,7.241c.175,1.057,1.854,1.142,2.536.315A4.227,4.227,0,0,0,1102.5,495.393Z" transform="translate(-444.356 -196.929)"/><path d="M1112.025,667.468c-4.4-.585-8.214-3.241-11.831-5.817a13.013,13.013,0,0,1-3.728-3.479,3.93,3.93,0,0,1,4.289-6.228,13.008,13.008,0,0,1,4.385,2.12l6.925,4.5a4.107,4.107,0,0,0,2.225.882c.81-.018,1.651-.752,1.454-1.539a20.762,20.762,0,0,1-.93-7.513c.31-2.52,1.766-5.063,4.157-5.918s5.553.694,5.738,3.226a60.014,60.014,0,0,0,9.747,28.593c.846,1.28-.443,2.951-1.827,3.615s-3.068,1.015-3.9,2.306a25.852,25.852,0,0,1-8.714-11.6c-1.062-2.84-4.986-2.75-7.992-3.15m2.529-2.383c.785.5,1.723-1.021.926-1.5-.59-.374-.962.727-.807,1.408Z" transform="translate(-448.932 -263.966)"/><path d="M1175.893,566.673a13.973,13.973,0,0,1-17.5-16.184c.752-3.767,3.018-7.057,5.538-9.955,1.836-2.111,3.99-4.168,6.719-4.784s6.083.8,6.647,3.542c-1.741,3.172-4.923,5.26-7.232,8.046s-3.592,7.193-1.155,9.867a4.843,4.843,0,0,0,8.423-3.338c-.027-1.683-.922-3.37-.446-4.984.668-2.27,3.8-2.962,5.93-1.927s3.458,3.174,4.673,5.205l7.348,12.283c1.027,1.718,1.988,4.115.555,5.512a3.554,3.554,0,0,1-1.982.844,8.4,8.4,0,0,1-8.249-3.864c-.868-1.437-2.782-1.9-4.446-1.687a34.675,34.675,0,0,0-4.821,1.422m11.251-4.885a2.059,2.059,0,0,0-.9,2.079,8.813,8.813,0,0,0,4.722-.013,1.7,1.7,0,0,0-1.182-2.047,4.944,4.944,0,0,0-2.609.071m-25.618-6.419a2.21,2.21,0,0,0,3.51-1.723,9.606,9.606,0,0,0-3.332-.234,2.892,2.892,0,0,0-.243,2.054m29.186,13.291c.769.187,1.28-.761,1.5-1.522a3.462,3.462,0,0,0-3.282-.792,1.548,1.548,0,0,0,1.754,2.227m-23.578-9.938c-.737-.213-1.3.684-1.432,1.44a3.011,3.011,0,0,0,3.195,1.489,1.6,1.6,0,0,0,.248-1.4l-2.075-1.457m11.269,4.61c1.126.282,2.513-.927,1.942-1.939a1.481,1.481,0,1,0-2.036,2.106m-4.035-.727-1.774,0a2.059,2.059,0,0,0-.287,1.476,4.948,4.948,0,0,0,2.636.277,1.047,1.047,0,0,0-.571-1.765m4.394-2.588a1.3,1.3,0,0,0,1.8-1.241,2.087,2.087,0,0,0-1.48-.283,1.93,1.93,0,0,0-.271,1.469m7.578-4.069a.943.943,0,0,0-1.66.488,1.012,1.012,0,0,0,1.74-.544Z" transform="translate(-474.526 -219.456)"/><path d="M963.73,609.339a55.093,55.093,0,0,1,13.749,17.251,6.17,6.17,0,0,1,.79,2.3,3.327,3.327,0,0,1-1.579,3.028c-1.783,1.063-4.141.192-5.69-1.191s-2.645-3.22-4.232-4.559-4.024-2.077-5.712-.868c-3.984,2.854,1.7,10.68-2.171,13.68-1.691,1.309-4.312.567-5.733-1.031s-1.943-3.781-2.393-5.872q-1.489-6.911-2.654-13.886c-.677-4.052-.984-8.925,2.2-11.525a7.833,7.833,0,0,1,7.072-1.1,18.1,18.1,0,0,1,6.357,3.771m10.431,17.182c.529-.939-.571-2.22-1.623-1.985a1.883,1.883,0,0,0-1.114,2.585,2.177,2.177,0,0,0,3.015-.443m-20.331,9.946a2,2,0,0,0,3.026,1.163,1.651,1.651,0,0,0-.885-1.979,1.537,1.537,0,0,0-1.961.842m9.192-15.073.226-1.493a2.263,2.263,0,0,0-1.525-.292,2.028,2.028,0,0,0-.287,1.477,1.928,1.928,0,0,0,1.467.271m-8.748,10.7c.457-.825-1.1-1.71-1.577-.894a.9.9,0,0,0,1.4.725m13.638-8.784c.659.144,1.718-.206,1.368-.784-.414-.82-1.957.138-1.405.873Z" transform="translate(-388.288 -247.968)"/><path d="M420.758,184.209c9.783-2.019,19.524,3.763,26.724,10.687A79.439,79.439,0,0,1,471,259.826c-.531,4.815-1.763,10.009-5.587,12.982a90.751,90.751,0,0,0-13.64-65.23c-5.413-8.145-12.687-15.719-22.127-18.272-3.453-.934-7.759-1.7-8.891-5.1m25.052,10.964-1.71-.758a1.616,1.616,0,0,0,1.726,2.391,1.357,1.357,0,0,0,.045-1.751Z" transform="translate(-172.398 -75.309)"/><path d="M892.308,626.568a14.016,14.016,0,0,1,21.578,5.6,6.17,6.17,0,0,1,.583,2.628c-.081,1.835-1.432,3.575-.99,5.358.889,3.583,7.361,2.8,8.545,6.3.884,2.61-2.316,4.991-5.066,4.818s-5.182-1.793-7.842-2.512a3.7,3.7,0,0,0-2.584.033,1.59,1.59,0,0,0-.753,2.2c1.582,0,3.734.591,3.584,2.165a2.06,2.06,0,0,1-1.062,1.47,4.711,4.711,0,0,1-4.846-.341,12.849,12.849,0,0,1-3.448-3.735,116.274,116.274,0,0,1-9.162-15.764,7.791,7.791,0,0,1-1.093-4.5,6.286,6.286,0,0,1,2.558-3.713m12.1,9.879a3.182,3.182,0,0,0-1.428-3.725c-1.311-.613-3.192.468-3.013,1.9a7.8,7.8,0,0,0,.887,3.224,2.663,2.663,0,0,0,2.845,1.32c1.076-.324,1.609-1.943.732-2.645m2.73-.254,1.414-.3a4.421,4.421,0,0,0-.074-2.358,1.524,1.524,0,0,0-1.917-.932,2.879,2.879,0,0,0,.532,3.545m.656,8.4a2.118,2.118,0,0,0,2.381,2.728,2.009,2.009,0,0,0-2.147-2.7Z" transform="translate(-364.537 -255.506)"/><path d="M166.626,604.242l-6.829-4.356a18.975,18.975,0,0,1-4.845-3.9,6.426,6.426,0,0,1-1.385-5.833,3.021,3.021,0,0,1,2.66-2.241,4.123,4.123,0,0,1,1.668.513,57.617,57.617,0,0,1,10.539,6.52c2.883,2.246,7.053.6,10.247-1.174s7.2-3.622,10.273-1.649c2.064,1.324,4.831.712,7-.432s4.1-2.775,6.434-3.534,5.356-.31,6.508,1.855a4.9,4.9,0,0,1-.842,5.23,12.33,12.33,0,0,1-4.607,3.123,56.724,56.724,0,0,1-20.5,5c-2.148.111-3.548,2.261-5.442,3.281-3.439,1.852-7.586-.3-10.879-2.4m36.887-12.866a2.4,2.4,0,0,0-3.8,1.875,5.445,5.445,0,0,0,3.014,1.9c1.206.127,2.554-1.084,2.053-2.188l-1.315-1.547m-16.541,5.265c.659.144,1.717-.208,1.366-.784-.412-.819-1.952.138-1.4.87m-2.679,2.087a.947.947,0,0,0-1.663.492,1.016,1.016,0,0,0,1.741-.548Z" transform="translate(-62.822 -240.846)"/><path d="M943.061,699.451a20.059,20.059,0,0,1,6.317-1.384,6.79,6.79,0,0,1,5.665,2.621,10.821,10.821,0,0,1-6.616,6.951c-.925.33-.707,1.692-.3,2.584a95.135,95.135,0,0,0,9.833,16.726c1.381,1.88.189,4.842-1.948,5.778a6.656,6.656,0,0,1-6.55-1.227,19.607,19.607,0,0,1-4.323-5.453l-7.32-11.914c-1.967-3.2-8.143-2.416-8.981-6.08-.643-2.811,2.705-4.738,5.439-5.656l8.782-2.948m7.616,1.788c.025-.744-1.019-1.158-1.657-.773a2.058,2.058,0,0,0-.792,1.966,3.444,3.444,0,0,0,2.081.259,1.884,1.884,0,0,0,.273-1.462Z" transform="translate(-380.543 -286.02)"/><path d="M863.808,665.621c-2.176,1.884-4.548,3.751-7.377,4.284s-6.2-.733-7.107-3.465l-5.757-17.364c-.6-1.8-1.191-3.8-.454-5.548.987-2.342,3.848-3.161,6.359-3.555,4.636-.727,9.5-.965,13.912.635s8.277,5.387,8.81,10.049c.677,5.921-3.88,11.063-8.386,14.963m-.246-14.594c-1.785-2.752-5.609-3.1-8.889-3.116-1.273-.007-2.786.125-3.417,1.231-.546.957-.132,2.154.289,3.173l3.957,9.566a2.356,2.356,0,0,0,.8,1.179c.758.471,1.729-.04,2.454-.561a15.1,15.1,0,0,0,4.747-4.906,6.611,6.611,0,0,0,.055-6.566m-7.373-5.985.134-1.448a5.559,5.559,0,0,0-3.39-1.12c-1.2.15-2.284,1.54-1.658,2.58l4.773-.031m-5.017,17.413q0,.887,0,1.775a2.213,2.213,0,0,0,1.5.3,3.153,3.153,0,0,0,.242-2.065A1.446,1.446,0,0,0,851,662.4m-2.047-5.623c.659.145,1.718-.206,1.368-.784-.414-.82-1.957.138-1.405.873Z" transform="translate(-345.31 -261.987)"/><path d="M870.248,754.938c1.807,3.516,3.129,8.226.385,11.072-2.106,2.184-5.685,2.09-8.529,1.033s-5.364-2.891-8.257-3.8c-.508,2.523,2.661,4.146,3.691,6.5,1.276,2.925-1.994,6.639-5.057,5.742-1.74-.509-2.947-2.048-4.032-3.5-3.966-5.3-8.058-10.9-9.042-17.453-.352-2.342-.112-5.106,1.8-6.508,2.659-1.953,6.334.033,8.992,1.987l9.258,6.808c.739.543,1.731,1.1,2.506.614.829-.523.668-1.759.4-2.7l-.727-2.6c.572-1.866,3.148-2.441,4.9-1.578s2.822,2.655,3.714,4.391m-14.28,5.874a4.051,4.051,0,0,0,5.549,1.728,4.416,4.416,0,0,0-5.086-1.79m-3.057,9.344a1.126,1.126,0,0,0-1.86-.25c-.708,1.175-.011,3.079,1.359,3.132s1.87-2.455.515-2.665m12.436-6.714a1.868,1.868,0,0,0-1.485.232c-.22,1.158.935,2.485,2.042,2.079s.586-2.582-.531-2.206Z" transform="translate(-343.876 -306.161)"/><path d="M417.227,207.93a87.694,87.694,0,0,1,20.083,20.142c1.169,1.635,2.335,3.6,1.8,5.537-1.106,4-.351,8.245.339,12.337a356.938,356.938,0,0,1,4.178,35.614c.183,2.749.292,5.686-1.109,8.058-1.647-.083-2.32-2.122-2.567-3.753q-4.2-27.749-7.516-55.624c-.306-2.578-2.166-4.666-3.988-6.515A135.7,135.7,0,0,0,407.8,206.559C410.27,204.129,414.413,205.906,417.227,207.93Z" transform="translate(-167.088 -84.152)"/><path d="M781.932,585.579c-1.675-1.314-4.075-.018-5.776,1.263-2.566,1.934-5.3,4.1-6.1,7.212-.555,2.135-3.853,2.319-5.4.743s-1.763-3.988-1.825-6.192a103.777,103.777,0,0,1,.786-16.005c.335-2.633.98-5.582,3.245-6.966,2.642-1.614,6.065-.264,8.7,1.359a46.579,46.579,0,0,1,12.01,10.651,8.533,8.533,0,0,1,1.776,3.127,4.673,4.673,0,0,1-7.418,4.808m-5.391-7.834a4.036,4.036,0,0,0-4.557-1.166c-1.519.721-2.183,2.978-1.039,4.211a8.7,8.7,0,0,1,7.1.641,6.588,6.588,0,0,0-1.508-3.686m7.986,3.436c-.494-1.275-2.866-.808-2.84.559a6.032,6.032,0,0,0,3.258,2.06,2.152,2.152,0,0,0-.479-2.5Z" transform="translate(-312.539 -231.46)"/><path d="M565.721,205.485c-1.083-5.8-2.648-11.788-6.581-16.187-1.267-1.417.636-3.823,2.527-3.625s3.247,1.884,4.2,3.527c3.981,6.844,4.831,15,5.594,22.882.979,10.106,1.959,20.279,1.107,30.4s-3.652,20.285-9.6,28.513A146.524,146.524,0,0,0,565.721,205.485Z" transform="translate(-228.93 -76.072)"/><path d="M1067.315,506.583c-.623,6.4-7.044,11.781-13.416,10.885s-11.092-8.271-8.89-14.318a17.5,17.5,0,0,1,4.833-6.518c1.051-.981,2.278-1.975,3.716-1.97a6.073,6.073,0,0,1,2.894,1.052l6.29,3.607c1.564.9,3.212,1.88,4.03,3.487a6.859,6.859,0,0,1,.543,3.773m-9.864-1.862a2.46,2.46,0,0,0-3.536,1.514,2.27,2.27,0,0,0,2.788,2.479,2.1,2.1,0,0,0,.427-3.583m-3.181,8.586.181-2.082a2.425,2.425,0,0,0-1.551-.3,3.257,3.257,0,0,0-.246,2.074,1.84,1.84,0,0,0,1.452.273Z" transform="translate(-427.949 -202.679)"/><path d="M1003.305,721.525a14.009,14.009,0,0,1-19.448-19.2c2.261-3.629,7.4-6.1,10.838-3.558,1.067.787,2.5.779,3.811.959a11.9,11.9,0,0,1,4.8,21.8m-9.523-15.435a6.848,6.848,0,0,0-.12,7.292c.749,1.344,2.271,2.6,3.7,2.021,1.492-.607,1.629-2.632,1.522-4.239l-.138-2.08c-.12-1.811-.7-4.126-2.5-4.311a2.9,2.9,0,0,0-2.459,1.318m10.98,2.067c.449-2.032-.526-4.608-2.582-4.933a1.431,1.431,0,0,0-.471,2.281c.737.681.548,1.9.111,2.8a6.715,6.715,0,0,0-1.071,2.781c0,1,1.149,2.026,1.97,1.448l2.108-4.365m-14,7.357-.226,1.493a2.263,2.263,0,0,0,1.525.292,2.028,2.028,0,0,0,.287-1.477,1.928,1.928,0,0,0-1.467-.271m7.315,3.9c.786.5,1.723-1.021.926-1.5-.59-.374-.962.727-.807,1.408Z" transform="translate(-402.295 -285.88)"/><path d="M771.183,697.243a3.6,3.6,0,0,1,.182,2.059,3.776,3.776,0,0,1-1.753,1.838c-1.85,1.207-4.266,2.431-6.122,1.233a5.805,5.805,0,0,1-1.839-2.515l-4.973-10.317c-.99-2.053-3.9-1.862-6.171-1.7-2.7.19-5.711-.263-7.455-2.329s-1.069-6.025,1.589-6.525a44.165,44.165,0,0,0,17.5-7.48,6.283,6.283,0,0,1,7.5.311,3.6,3.6,0,0,1,.819.943c1.036,1.823-.446,4.047-2.028,5.424s-3.514,2.837-3.578,4.932c-.044,1.433.832,2.708,1.609,3.913a40.32,40.32,0,0,1,4.717,10.214m-3.3-2.772-1.488-.13a4.443,4.443,0,0,0-.8,3.334c.354,1.122,2.2,1.628,2.666.55.5-1.136-1.037-2.558-.315-3.566m-2.244-20.233a2.213,2.213,0,0,0-3.123,1.162,5.771,5.771,0,0,0,2.664,1.049,1.983,1.983,0,0,0,2.117-1.552l-1.506-.917m-2.784,18.74a.947.947,0,0,0-1.663.492,1.016,1.016,0,0,0,1.741-.548m.9-5.021c-.779-.3-1.063,1.067-.647,1.789.792.286,1.078-1.077.683-1.821Z" transform="translate(-304.057 -274.689)"/><path d="M1016.843,523.781a15.714,15.714,0,0,1-4.462,3.76,9.905,9.905,0,0,1-13.888-12.087c.965-2.747,3.072-4.914,5.117-6.986,1.77-1.793,4.576-3.678,6.524-2.081,2.385,1.954,6.039,1.687,8.427,3.637a7.216,7.216,0,0,1,2.076,7.079,15.457,15.457,0,0,1-3.794,6.678m-5.488-5.867a4.24,4.24,0,0,0-1.632-5.812,21.94,21.94,0,0,0-1.125,8.937,1.844,1.844,0,1,0,2.5-2.709m-10.122-1.269-.226,1.493a2.263,2.263,0,0,0,1.525.292,2.029,2.029,0,0,0,.287-1.477,1.928,1.928,0,0,0-1.467-.271m15.229-1.808-.226,1.493a2.263,2.263,0,0,0,1.525.292,2.027,2.027,0,0,0,.287-1.477,1.927,1.927,0,0,0-1.467-.271m-7.069-5.333c-.789-.3-1.041,1.085-.639,1.83a1.924,1.924,0,0,0,1.39-.768c.255-.485-.277-1.249-.741-.959Z" transform="translate(-408.898 -207.237)"/><path d="M496.4,124.857c-1.864.1-3.714.377-5.56.651a2.545,2.545,0,0,1-1.094,0,1.728,1.728,0,0,1-.73-2.476,4.254,4.254,0,0,1,2.38-1.664c7.233-2.631,15.377-.529,22.255,2.924A61.228,61.228,0,0,1,546.4,171.049c-5.062-10.983-10.241-22.147-18.309-31.156S508.478,124.191,496.4,124.857Z" transform="translate(-200.269 -49.245)"/><path d="M82.673,144.19c12.38,14.717,25.464,29.961,43.239,37.3,1.992.823,4.487,2.605,3.482,4.512-.874,1.659-3.36,1.147-5.055.343-13.26-6.286-24.7-15.979-34.384-27-3.8-4.319-7.54-9.41-7.282-15.155Z" transform="translate(-33.869 -59.079)"/><path d="M1082.366,585.341l6.252,14.933a5.892,5.892,0,0,1,.669,2.989,3.635,3.635,0,0,1-3.109,2.88,6.118,6.118,0,0,1-4.276-1.19c-3.21-2.206-4.712-6.108-6.036-9.771l-3.607-9.983a4.883,4.883,0,0,1-.424-2.73c.529-2.231,3.635-2.532,5.824-1.851a7.05,7.05,0,0,1,2.742,1.437A9.07,9.07,0,0,1,1082.366,585.341Z" transform="translate(-439.136 -237.766)"/><path d="M490.171,231.984a38.807,38.807,0,0,0-2.5-8.55c-4.815-12.181-12.013-23.3-20.091-33.609-1.621-2.069-3.36-4.323-3.4-6.951,3.123,1.062,5.481,3.61,7.587,6.149a115.958,115.958,0,0,1,14.349,21.955c4.476,8.912,7.846,18.9,6.287,28.749C490.6,237.677,490.569,234.684,490.171,231.984Z" transform="translate(-190.19 -74.929)"/><path d="M244.524,168.244c1.394,1.507,2.881,3.263,2.75,5.312s-3.052,3.667-4.289,2.028a155.424,155.424,0,0,0-38.674-36.219c.212-1.45,2.353-1.341,3.705-.774C222.594,144.7,233.793,156.639,244.524,168.244Z" transform="translate(-83.713 -56.625)"/><path d="M468.452,92.92c-1.387-.3-1.829-2.164-1.377-3.509s1.467-2.434,2.007-3.746a10.758,10.758,0,0,0,.5-4.613A78.139,78.139,0,0,0,457.818,43.44c-.9-1.439-1.891-3.013-1.679-4.7,5.918,6.349,11.029,13.606,13.9,21.8a93.669,93.669,0,0,1,2.807,10.587c1.543,6.893,2.849,14.893-1.617,20.366C470.536,92.342,469.524,93.155,468.452,92.92Z" transform="translate(-186.883 -15.874)"/><path d="M417.375,115.337c1.012-3.622-.064-7.466-1.195-11.052q-3.5-11.1-7.777-21.939c-.721-1.826-1.463-3.866-.749-5.695a154.781,154.781,0,0,1,12.852,27.283c1.772,4.968,3.264,10.581,1.073,15.38-.648,1.418-2.047,2.861-3.533,2.393a2.781,2.781,0,0,1-1.6-2.914A17.469,17.469,0,0,1,417.375,115.337Z" transform="translate(-166.911 -31.406)"/><path d="M705.557,607.706a3.34,3.34,0,0,1-1.41-1.046c-3.785-4.177-5.137-9.949-6.356-15.453-.437-1.977-.79-4.3.572-5.8,1.444-1.588,4.173-1.274,5.833.088s2.512,3.447,3.3,5.443c1.871,4.729,3.721,10.186,1.386,14.7-.652,1.262-1.97,2.483-3.327,2.065m1.256-5.013a2.294,2.294,0,0,0-2.452-2.123c-.33,1.223-.508,2.723.423,3.582s2.93-.384,2.118-1.356m-4.262-6.929a1.75,1.75,0,0,0,1.469-.239c.162-.986-.5-2.231-1.49-2.1a2.343,2.343,0,0,0,.01,2.376Z" transform="translate(-285.747 -239.422)"/><path d="M538.838,260.669a45.536,45.536,0,0,1-2.3-16.513c.028-.614.421-1.461.978-1.2A30.466,30.466,0,0,1,538.838,260.669Z" transform="translate(-219.817 -99.526)"/><path d="M383.642.175a11.173,11.173,0,0,1,3.323,4.45l-3.387-3.048c-.571-.514-.51-1.942.11-1.489Z" transform="translate(-157.003 0)"/><path d="M102.933,60.68a11.642,11.642,0,0,1,3.92-2.737,3.342,3.342,0,0,1-3.709,2.848Z" transform="translate(-42.175 -23.741)"/><path d="M261.084,914.862a2.312,2.312,0,0,1-1.982,2.949,2.647,2.647,0,0,1,1.854-2.95Z" transform="translate(-106.146 -374.848)"/><path d="M1204.984,660.433a5.446,5.446,0,0,1-1.922-3.488,9.388,9.388,0,0,1,2.536,2.807.932.932,0,0,1,.157.872c-.145.273-.7.2-.632-.106Z" transform="translate(-492.933 -269.172)"/><path d="M629.909,464.156a5.38,5.38,0,0,1,2.743,3.376,4.034,4.034,0,0,1-2.719-3.235Z" transform="translate(-258.094 -190.18)"/><path d="M263.235,792.949a2.3,2.3,0,0,1-1.464.88l-.735-2.064a1.361,1.361,0,1,1,2.323,1.309Z" transform="translate(-106.955 -324.032)"/><path d="M877.838,958.958c-.226-.835-.076-2.144.781-2.03a2.94,2.94,0,0,1-.556,3.568,1.933,1.933,0,0,1-.3-1.5Z" transform="translate(-359.631 -392.081)"/><path d="M632.084,452.275a3.293,3.293,0,0,1-2.408-1.291,2.745,2.745,0,0,1,2.676-.139.823.823,0,0,1-.291,1.34Z" transform="translate(-257.999 -184.61)"/><path d="M1158.137,478.03c.828.2.034,1.652-.768,1.365s-1.041-1.283-1.161-2.126a1.374,1.374,0,0,1,1.705,1.091Z" transform="translate(-473.736 -195.53)"/><path d="M1170.759,684.974a1.313,1.313,0,0,1-.732,2,5.148,5.148,0,0,1-.289-2.679c.349-.5,1.325-.013,1.136.566Z" transform="translate(-479.253 -280.291)"/><path d="M555.616,223.992,553.6,222.9l3.387-.882a2.574,2.574,0,0,1-1.246,1.67Z" transform="translate(-226.826 -90.97)"/><path d="M455.569,763.762a1.721,1.721,0,0,1-.479-1.972,4.933,4.933,0,0,1,1.332,3.611c-.626.382-1.071-.723-.962-1.448Z" transform="translate(-186.411 -312.13)"/><path d="M245.137,757.28a.955.955,0,0,1,1.673.5,3.538,3.538,0,0,1-2.75.884l.889-1.5Z" transform="translate(-99.999 -310.142)"/><path d="M475.5,19.988a2.146,2.146,0,0,1,2.291-.69,8.889,8.889,0,0,1-2.667,2.1.942.942,0,0,1,.315-1.433Z" transform="translate(-194.586 -7.867)"/><path d="M19.849,293.614a4.583,4.583,0,0,1-1.755-3.709,6.3,6.3,0,0,1,1.846,3.553Z" transform="translate(-7.413 -118.784)"/><path d="M1049.772,474.443a2.178,2.178,0,0,1,2.723-.24,4.032,4.032,0,0,1-2.527,1.035c-.321.013-.708-.058-.828-.355s.409-.621.511-.316Z" transform="translate(-429.859 -194.145)"/><path d="M1234.967,445.864q-.029,1.46-.057,2.92c-.871-.909-1.418-2.872-.166-3Z" transform="translate(-505.613 -182.652)"/><path d="M797.831,609.21a2.2,2.2,0,0,1-.715-2.252c1.256-.257,1.911,2.02.71,2.469Z" transform="translate(-326.573 -248.682)"/><path d="M1017.106,439.444a2.234,2.234,0,0,1,2.671-.305,1.947,1.947,0,0,1-2.815.553Z" transform="translate(-416.682 -179.802)"/><path d="M177.813,927.518c-.29-.212.315-.608.529-.319s.04.693-.136,1.006l-1.258,2.237a2.258,2.258,0,0,1,.671-2.865Z" transform="translate(-72.396 -379.861)"/><path d="M1025.287,657.191a7.238,7.238,0,0,1-4.558-.041,13.955,13.955,0,0,1,4.446-.254Z" transform="translate(-418.225 -269.121)"/><path d="M1185.439,651.871l1.055,2.62a2.625,2.625,0,0,1-1.711-2.687c.032-.3.194-.648.491-.644s.226.624-.021.459Z" transform="translate(-485.438 -266.801)"/><path d="M101.677,665.332c-1.033-.007-1.022-1.57-.644-2.532,1.017-.082,1.06,1.494.686,2.443Z" transform="translate(-41.3 -271.569)"/><path d="M507.4,972.32a.853.853,0,0,1-.32-1.408l2.074,2.077a1.147,1.147,0,0,1-1.68-.631Z" transform="translate(-207.665 -397.814)"/><path d="M798.417,729.371l.977-1.193a.973.973,0,1,1-.839,1.386Z" transform="translate(-327.137 -298.358)"/><path d="M463.608,85.553c.567,4.126.119,9.135-3.482,11.228-1.021.593-2.372-.335-2.7-1.471a7.113,7.113,0,0,1,.291-3.489c2.3-10.08-2.413-20.293-7-29.56.662-.91,2.08-.086,2.809.771A44.308,44.308,0,0,1,463.608,85.553Z" transform="translate(-184.677 -25.347)"/><path d="M600.718,102.734c-.212.5-1.062.248-1.2-.272a2,2,0,0,1,.439-1.507c.734-.376.979,1,.64,1.756Z" transform="translate(-245.624 -41.338)"/><path d="M598.242,310.951c.488-.377.968.648.56,1.109a3.537,3.537,0,0,1-2.083-.21,2.176,2.176,0,0,1,1.5-.938Z" transform="translate(-244.495 -127.373)"/><path d="M594.253,281.8l2.092.252a9.334,9.334,0,0,1-3.573.835,1.827,1.827,0,0,1,1.468-.992Z" transform="translate(-242.878 -115.462)"/><path d="M888.949,734.165c.413.193-.3.793-.606.454s-.16-.864-.1-1.316-.164-1.065-.617-1.008c.8-.526,1.84.963,1.068,1.535Z" transform="translate(-363.688 -299.999)"/><path d="M1186.273,670.407a5.848,5.848,0,0,1-4.039-5.2,4.5,4.5,0,0,1,4.36-4.509,6.788,6.788,0,0,1,3.648,1.642,6.331,6.331,0,0,1,2.668,3.468C1193.578,669,1189.363,671.457,1186.273,670.407Z" transform="translate(-484.399 -270.708)"/><path d="M848.151,726.039c.428-.432,1.206.227,1.089.824s-.7.971-1.223,1.275a1.319,1.319,0,0,1,.353-1.924Z" transform="translate(-347.348 -297.424)"/><path d="M492.726,171.607a1.5,1.5,0,0,1-1.863,1.053A2.048,2.048,0,0,1,493,171.269Z" transform="translate(-201.123 -70.169)"/><path d="M110.235,163.626c.484-.381.961.64.566,1.114l-2.1-1.408a.925.925,0,0,1,1.462.252Z" transform="translate(-44.538 -66.817)"/><path d="M252.91,144.461a1.349,1.349,0,0,1-.776,2.022,1.809,1.809,0,0,1,.864-2.226Z" transform="translate(-103.261 -59.107)"/><path d="M305.714,632.651c-.779.3-1.063-1.067-.647-1.789.792-.286,1.078,1.077.683,1.821Z" transform="translate(-124.917 -258.469)"/><path d="M693.767,566.383a1.687,1.687,0,0,1,.258-1.474l.885,2.066c-.353.5-1.324.01-1.139-.57Z" transform="translate(-284.23 -231.461)"/><path d="M188.168,590.951c.649-.225,1.631.184,1.437.843a1.033,1.033,0,0,1-1.573-.921Z" transform="translate(-77.039 -242.099)"/><path d="M1026.94,834.376a.953.953,0,0,1-.808,1.406,1.053,1.053,0,0,1,.926-1.6Z" transform="translate(-420.369 -341.787)"/><path d="M773.223,526.12c.323.03.044.619-.258.5s-.366-.511-.383-.835c-.044-.823.164-1.945.988-1.972l-.344,2.12Z" transform="translate(-316.549 -214.623)"/><path d="M523.8,532.584a2.558,2.558,0,0,1,1.715-1.259,1.274,1.274,0,0,1-1.759,1.282Z" transform="translate(-214.6 -217.701)"/><path d="M984.021,478.5c-.555.142-.776-.845-.309-1.178a1.9,1.9,0,0,1,1.655,0,2.126,2.126,0,0,1-1.44.848Z" transform="translate(-402.954 -195.496)"/><path d="M644.027,791.889a2.518,2.518,0,0,1-2.181-.72,1.451,1.451,0,0,1,2.018.334Z" transform="translate(-262.985 -324.057)"/><path d="M0,212.505c.187-.854,1.45-.7,2.245-.334a1.392,1.392,0,0,1-2.031.266Z" transform="translate(0 -86.814)"/><path d="M509.259,571.344a.717.717,0,0,1-1.226.376c.318-.541.8-1.161,1.416-1.046s.3,1.385-.175.974Z" transform="translate(-208.158 -233.818)"/><path d="M404.965,151.642a3,3,0,0,1,.086-1.5c2.595-11.629-1.031-23.646-4.674-34.991-.271-.845-.329-2.1.538-2.284a50.412,50.412,0,0,1,8.576,35.923,5.327,5.327,0,0,1-1.411,3.388C407.133,152.992,405.325,152.841,404.965,151.642Z" transform="translate(-163.975 -46.244)"/><path d="M172.19,877.2a.717.717,0,0,1,.376,1.226c-.541-.318-1.161-.8-1.046-1.416s1.385-.3.974.175Z" transform="translate(-70.271 -359.201)"/><path d="M652.71,788.436c.2.582-1.018.6-1.1-.006s.495-1.082,1-1.424a1.93,1.93,0,0,1,.244,1.424Z" transform="translate(-266.983 -322.462)"/><path d="M317.932,278.988a31.367,31.367,0,0,1-2.46,16L311.4,276.741c.7,9.014-3.1,22.1-11.8,19.662L295.1,285.586a20.986,20.986,0,0,1-3.505,17.921c-6.121-20.386,6.915-42.525,2.122-63.263-2-8.652-6.959-16.295-10.126-24.591s-4.28-18.351.982-25.5a217.127,217.127,0,0,1,16.654,90.223c5.379-1.272,7.123-9.665,2.7-12.974a24.335,24.335,0,0,0,8.667-11.161l5.677,15.818c.856-15.607,21.029-26.391,34.482-18.434a208.832,208.832,0,0,0,5.263-110.463c-1.619-7.172-3.568-14.949-.491-21.627a87.481,87.481,0,0,0-23.938-35.99L352.538,95.86a48.072,48.072,0,0,0-43.679-19.3l-2.593-19.429a33.142,33.142,0,0,1-5.213,17.6c.091-29.139-26.744-55.608-55.879-55.116,24.162-5.08,50.956,8.644,60.953,31.22,3.651,8.244,6.909,18.911,15.8,20.407,25.044,4.213,43.692,26.99,50.752,51.385s4.777,50.387,2.433,75.675l-6.386-27.069a167.379,167.379,0,0,1-13.036,85.679c12.046,16.838,11.01,41.833-2.389,57.616-4.969,5.854-11.575,10.815-13.849,18.149-1.761,5.679-.588,11.875-1.784,17.7s-6.717,11.764-12.307,9.74L320.978,346.3A325.622,325.622,0,0,1,180.833,468c16.205,22.14,33.171,46.668,31.853,74.073,4.551.857,8.585-3.528,9.7-8.021s.362-9.237.915-13.835c1.427-11.843,11.041-20.786,20.04-28.616l98.278-85.51-22.769-29.382c-3.335-4.3,4.352-9.89,9.147-7.312s6.436,8.479,8.445,13.539,6.128,10.508,11.525,9.794c10.244-1.357,18.669,7.834,23.948,16.717,6.189,10.415,10.979,22.1,10.8,34.215s-6.172,24.653-16.992,30.1Q432.36,492.412,496.967,517.5c12.674,4.922,25.618,10.243,35.4,19.688s15.778,24.063,11.344,36.915c1.927-2.079.13-6.163-2.7-6.147s-4.585,4.12-2.635,6.177c-5.038-1.851-4.667-8.879-5.116-14.227-1.569-18.712-22.383-28.587-40.127-34.731l-113.622-39.34c-8.143-2.819-17.809-5.453-24.815-.437l-83.559,59.818c-7.43,5.319-18.412,2.281-24.786-4.266s-9.266-15.632-11.955-24.365a86.742,86.742,0,0,1-24.332,56.746c-3.6,3.688-12.533,4.44-11.254-.552a102.086,102.086,0,0,1,18.836-20.794c-10.008,1.026-15.834-11.225-16.614-21.255s-.394-21.821-8.356-27.97a39.636,39.636,0,0,0,5.151,41.785c-7.446,2.392-16-5.489-14.229-13.106a26.823,26.823,0,0,0-20.107,18.715c-16.148-16.193-9.038-48.452,12.42-56.358,6.918-2.549,7.83-12.983,3.064-18.608s-12.768-7.254-20.141-7.3-14.843,1.113-22.061-.391c-14.482-3.017-24.549-15.793-33.321-27.7-20.5-27.843-41.212-56.051-54.308-88.052s-17.991-68.711-6.12-101.187a20.387,20.387,0,0,1-21.16-14.439c-1.061-4.494,4.871-8.787,8.808-6.375a67.326,67.326,0,0,1,7.954-63.858c-16.486,1.438-32.63-12.962-33.078-29.5,4.837,14.483,19.485,25.095,34.755,25.178-16.943-6.73-29.054-24.171-29.442-42.4s10.972-36.166,27.613-43.61C22.429,84.271,19.189,107.847,28.438,123.6s27.372,24.361,45.337,27.656A66.856,66.856,0,0,1,18.49,135.145a46.926,46.926,0,0,0,39.826,20.526,11.71,11.71,0,0,1-15.076-2.578c8.793,19.9-15.278,42.547-8.123,63.091,3.646,10.469,16,17.028,26.711,14.187a23.478,23.478,0,0,1,12.846,16.183L52.8,249.809c-5.18,21.7-10.389,44.171-6.366,66.116,2.716,14.818,9.513,28.543,16.648,41.811a718.265,718.265,0,0,0,46,74.307c7.277,10.3,15.409,20.871,27.079,25.646,9,3.683,19.144,3.457,28.747,1.906,46.571-7.523,82.882-43.047,115.861-76.778,15.949-16.313,32.766-34.37,35.434-57.028.895-.079,1.79-.159,2.681-.268,24.609-3.008,42.081-32.321,33.021-55.4-2.588-6.59-9.281-13.261-15.823-10.553-8.647,3.579-8.839,20.359-18.15,19.419M265.408,401.2a3.939,3.939,0,0,0,4.653-3.186c-.476-1.24-2.351-.418-3.265.546-2,2.114-4.094,4.392-4.652,7.251a2.168,2.168,0,0,0,2.71-1.183,6.3,6.3,0,0,0,.356-3.231m94.354,7.07c-.431-.769-.97-1.61-1.834-1.787a3.151,3.151,0,0,0-2.3.81,202,202,0,0,0-30.508,26.171c.217-3.061-1.018-7.468-4-6.744a12.189,12.189,0,0,1,1.293,5.7c-.2,1.96-1.709,3.937-3.68,3.944-1.736,2.934-4.342,5.235-6.9,7.484L241.49,505.608c-1.3,1.141-.6,3.254.187,4.794l15.1,29.491c.546,1.066,2.09,2.2,2.658,1.141,2.542-4.716,7.946-6.948,12.8-9.214,13.294-6.207,25.139-15.074,36.877-23.876,14.526-10.893,29.1-21.823,42.123-34.47,5.711-5.545,11.109-11.4,16.369-17.379,3.263-3.707,6.7-8.3,5.533-13.1a136.488,136.488,0,0,0-13.577-34.529M324.551,332.16,323.1,344.3a13.419,13.419,0,0,1,7.275,2.683,10.669,10.669,0,0,1,.674-8.5c1.34-2.474,3.76-4.8,3.237-7.565a1.5,1.5,0,0,0-.363-.8,1.874,1.874,0,0,0-1.543-.3l-5.873.614a2.225,2.225,0,0,0-1.627.645,2.2,2.2,0,0,0-.325,1.079M165.833,529.268a1.979,1.979,0,0,0,.126-1.175c-.325-3.966,1.207-7.883,3.34-11.242s4.862-6.292,7.288-9.447a3.561,3.561,0,0,0,1-2.361c-.082-.872-1.177-1.627-1.855-1.071-3.728,3.054-7.516,6.173-10.161,10.2s-4.02,9.181-2.463,13.741c.415,1.215,2.075,2.459,2.727,1.353M19,117.531c-.3-2.361-.727-5.5-3.085-5.822a26.279,26.279,0,0,0,12.7,25.958c.1-2.881-2.01-5.29-3.787-7.559-2.884-3.683-5.244-7.936-5.828-12.577m347.8,12.813a40.332,40.332,0,0,0-2.025-14.411,6.117,6.117,0,0,0-1.49-2.7,2.327,2.327,0,0,0-2.851-.343l4.2,17.164a3.6,3.6,0,0,0,2.164.286m-31.07,284.52a7.366,7.366,0,0,0-4.673,2.061c-1.518,1.481-2.327,3.878-1.4,5.788a2.356,2.356,0,0,0,2.607,1.454c1.034-.333,1.2-2.18.131-2.388-.457-1,.42-2.128,1.379-2.673s2.107-.866,2.777-1.742.285-2.565-.816-2.5m-26.555-56.181a5.133,5.133,0,0,0,3.121,1.3,12.048,12.048,0,0,0-.625-7.418,2.882,2.882,0,0,0-1.341,3.467,5.808,5.808,0,0,0-4.636,7.151,2.52,2.52,0,0,0,1.977.316l1.5-4.815M39.182,139.473a10.731,10.731,0,0,0,7.641,7.939,21.006,21.006,0,0,0,3.155.478c.45-1.184-.793-2.278-1.872-2.94l-8.924-5.478M341.212,252.7a20.5,20.5,0,0,0-9.807,1.545.953.953,0,0,0-.371,1.385,13.968,13.968,0,0,0,5.974.852c2.006-.3,3.989-1.764,4.2-3.781M55.889,352.556a7.153,7.153,0,0,0,1.782,9.033c.36.272,1.144.207.958-.2a8.6,8.6,0,0,0-2.74-8.829M356.32,105.849a3.826,3.826,0,0,0,3.238,3.93,11.166,11.166,0,0,0-4.438-9.8,5.4,5.4,0,0,0,1.323,5.694M260.961,485.66a16.91,16.91,0,0,0,.921-5.255,9.5,9.5,0,0,0-7.955,6.6,10.028,10.028,0,0,0,5.595-3.923q.007,1.148.013,2.3a1.8,1.8,0,0,0,1.426.279m187.17,21.24c1.393.146,1.337-2.154.436-3.225a9.193,9.193,0,0,0-6.989-3.224c-.856.808.258,2.233,1.4,2.52s2.519.22,3.259,1.135.721,2.671,1.895,2.794M300.338,520.013c.578-1.073-.987-2.264-2.138-1.863s-1.778,1.61-2.293,2.715l-1.363,2.924c2.3,1.122,4.579-1.52,5.794-3.775m-206.6-98.931a3.775,3.775,0,0,0,2.094,4.543,11.612,11.612,0,0,0-1.846-10.776l.032,6.163M65.87,244.848c.614,1.347,2.614.939,3.957.316,1.23-.57,2.688-1.888,1.888-2.983a4.077,4.077,0,0,0-5.252.432,2.13,2.13,0,0,0-.593,2.235m-24.8,56.359a1.533,1.533,0,0,0,1.37.243,5.417,5.417,0,0,0,.421-4.048,2.99,2.99,0,0,0-3.232-2.038c-1.359.3-2.162,2.213-1.2,3.224a2.2,2.2,0,0,0,2.39.551,3.063,3.063,0,0,1,.255,2.067m252.149,74.686a11.1,11.1,0,0,0,6.13-4.093,4.258,4.258,0,0,0,.952-2.153c-1.223-.861-2.873.246-3.784,1.431s-1.884,2.662-3.379,2.692l.08,2.122M111.539,442.528a3.941,3.941,0,0,0-2.672-5.349l-.133,4a5.45,5.45,0,0,0,.328,2.564,1.869,1.869,0,0,0,2.117,1.106c.825-.278,1.06-1.663.26-2.005m104.881,1.528c.262,1.026,1.71.966,2.7,1.349a4.1,4.1,0,0,0,1.178.434c1.591.094,1.434-2.42,2.18-3.828a5.926,5.926,0,0,0-4.927.3c-.658.357-1.313,1.022-1.128,1.747m89.937,74.374c-1.4-.442.327-2.7-.3-4.023a1.513,1.513,0,0,0-2.166-.422,2.812,2.812,0,0,0-1.043,2.189A5.2,5.2,0,0,0,305.7,521.4a3.068,3.068,0,0,0,.4-2.371m21.226-193.664a2.445,2.445,0,0,0-.487,2.354,4.262,4.262,0,0,0,5.918-3.571,6.031,6.031,0,0,0-5.327,1.33M93.192,414.046a2.6,2.6,0,0,0-.272-1.71,2.888,2.888,0,0,0-5.394,1.865,2.8,2.8,0,0,1,3.566.757c.564.787,1.91.037,2.1-.912M536.529,558.705a4.01,4.01,0,0,0-.727,2.44c.127.856,1.121,1.608,1.863,1.162l3.754-6.316a6.073,6.073,0,0,0-4.941,2.677M344.758,318.11c.4.751,1.524.632,2.269.225a5.571,5.571,0,0,0,2.8-5.363l-1.3-.144-3.031,3.234c-.531.567-1.1,1.36-.738,2.048M241.725,430.138a3.061,3.061,0,0,0,1.09-2.713,1.863,1.863,0,0,0-2.24-1.5c-.964.328-1.182,1.953-.247,2.356a3.714,3.714,0,0,0-2.888,2.874,4.639,4.639,0,0,0,4.284-1.019m74.717,77.393a2.3,2.3,0,0,0-.9,2.249,3.739,3.739,0,0,0,3.582-6.009,5.617,5.617,0,0,0-2.6,3.747M51.43,349.893a2.955,2.955,0,0,0,.262-2.059l1.749-.624a.987.987,0,0,0-.559-1.433,1.463,1.463,0,0,0-1.556.641A4.97,4.97,0,0,0,48.05,343.3a34.139,34.139,0,0,0,2.173,6.17.833.833,0,0,0,1.207.419M521.007,534.97a1.856,1.856,0,0,0,.261,1.525l2.047-.219a5.424,5.424,0,0,0-3.307-5.835,2.9,2.9,0,0,0,1.033,4.374M46.336,255.155c.22-1.352-.086-3.334-1.452-3.236a6.024,6.024,0,0,0-1.577,3.8c.094,1.4,1.63,2.723,2.872,2.075l.3-2.61m250.348,199.1a11.286,11.286,0,0,0-2.41-4.788,2.515,2.515,0,1,0,1.819,4.629m43.091-62.631a1.945,1.945,0,0,0,2.375,1.259,4.81,4.81,0,0,0-6.307-3.727,1.149,1.149,0,0,0-.329,1.33l4.114,1.171m-34.827-25.969q0-1.771,0-3.542a1.672,1.672,0,0,0-1.426-.247,5.341,5.341,0,0,0-.911,5.559,1.553,1.553,0,0,0,2.25-1.746M345,255.157a1.6,1.6,0,0,0-.855-.165,1.086,1.086,0,0,0-.591,1.545,2.657,2.657,0,0,0,1.492,1.134,11.279,11.279,0,0,0,4.45.793,1.743,1.743,0,0,0,.264-1.435L345,255.157M103.106,435.8a4.162,4.162,0,0,0,2.58,4.448,2.864,2.864,0,0,0-2.781-4.9M67.063,375q0,1.481,0,2.962a3.42,3.42,0,0,0,2.136.282,28.313,28.313,0,0,0,.329-3.864,2.457,2.457,0,0,0-.207-1.242,1.275,1.275,0,1,0-1.991,1.544M290.775,525.516l0,2.369a2.334,2.334,0,0,0,1.969.2,6.755,6.755,0,0,0,1.078-2.861,2.313,2.313,0,0,0-1.5-2.417,3.446,3.446,0,0,0-1.618,2.7m19.081-254.924a1.919,1.919,0,0,0,1.436,2.645,4.831,4.831,0,0,0,.271-6.069,4.375,4.375,0,0,0-1.683,3.363m106.65,223.291a1.275,1.275,0,0,0,.45.51,12.335,12.335,0,0,0,5.514,2.4,6.1,6.1,0,0,0-4.108-3.953c-.852-.236-2.174.22-1.856,1.044M303.694,447.093c1.316.814,2.684-.965,3.219-2.417a3.066,3.066,0,0,0,.108-2.731,4.966,4.966,0,0,0-3.327,5.147m38.973,40.823c-1,1.115-1.944,2.995-.745,3.887a1.878,1.878,0,0,0,2.539-.732,5.448,5.448,0,0,0,.567-2.875l-2-.229m2.455-77.418a2.772,2.772,0,0,0-4.527.3,2.389,2.389,0,0,0,4.744-.434m144.709,109.9a4.9,4.9,0,0,0,2.461,2.275c1.1.308,2.538-.633,2.219-1.73a1.823,1.823,0,0,0-.679-.893,3.682,3.682,0,0,0-4.333-.027M432.36,498.38a7.321,7.321,0,0,0,3.936,1.573c.837-.917.114-2.527-1.03-3.008a5.909,5.909,0,0,0-3.657.1.915.915,0,0,0,.565,1.466m98.789,41.5c.051-1.339-.168-2.85-1.238-3.656s-3.079-.1-2.909,1.226c.2,1.593,2.575,1.482,3.911,2.374M309.56,436.321a2.561,2.561,0,0,0,.217,3.961c1.039-.8,2.176-1.775,2.2-3.084s-2.027-2.3-2.6-1.119m-28.024,28.308,1.278-.269a5.369,5.369,0,0,0,1.8-1.955,1.636,1.636,0,1,0-2.985-1.143,5.377,5.377,0,0,0,.071,2.951m-4.691,4.116c-.907-.753-2.245.932-1.517,1.86s2.312.65,3.086-.239a6.039,6.039,0,0,0,1.1-3.3l-1.52-.272a1.972,1.972,0,0,1-1.01,1.935m25.049-19.279a1.874,1.874,0,0,0,.528-1.934l-5.344-.089a2.968,2.968,0,0,0,4.637,1.842m33.419-56.979c-1.079.5-1.033,2.21-.151,3a4.242,4.242,0,0,0,3.376.725,3.091,3.091,0,0,0-3.135-3.35M33.76,195.821a2.189,2.189,0,0,0-.6-3.625,4.29,4.29,0,0,0-1.45,4.528,1.453,1.453,0,0,0,2.211-.613M62.248,368.5a1.091,1.091,0,0,0,1.826.586,5.645,5.645,0,0,0-.217-3.033,2.213,2.213,0,0,0-2.466-1.367,3.516,3.516,0,0,0,.978,3.785m183.395,53.993a1.911,1.911,0,1,0-.075,3.308,2.013,2.013,0,0,0,.075-3.308m73.562,10.625a7.662,7.662,0,0,0,1.054-3.938,2.151,2.151,0,0,0-2.568,1.2,6.26,6.26,0,0,0-.4,3.064,1.309,1.309,0,0,0,1.971-.3m42.267-146.639a3.091,3.091,0,0,0-2.827-2.468c-.294,1.293-.523,2.836.406,3.783s3.1-.21,2.313-1.28M59,242.318c-.935.681-.444,2.313.591,2.83a5.146,5.146,0,0,0,3.4.025c.323-1.721-2.1-2.463-3.848-2.465m263.537,25.011a1.837,1.837,0,0,0-2.777,1.512,2.01,2.01,0,0,0,2.945,1.468,2.216,2.216,0,0,0,.186-3.405M330.165,498.6a2.042,2.042,0,0,0,2.342-2.274,1.987,1.987,0,0,0-3.041-1.091,1.936,1.936,0,0,0,.535,3.152M78.871,390.169l-4-.193a2.263,2.263,0,1,0,4.465.272m150.972,43.6a4.57,4.57,0,0,0-3.857,2.559,2.279,2.279,0,0,0,3.96-2.139m136.2,27.133a3.847,3.847,0,0,0-2.7,3.31,4.492,4.492,0,0,0,2.673.245,2.472,2.472,0,0,0,.119-3.565m-11.22-194.147a2.288,2.288,0,0,0,2.356,1.235,2.662,2.662,0,0,0-3.03-3.519,1.485,1.485,0,0,0,.644,2.228M116.1,451.144a1.66,1.66,0,0,0,1.958,2.017,7.414,7.414,0,0,0,1.014-3.849,1.988,1.988,0,0,0-2.724,1.812M46.235,264.343l.184-1.451a2.873,2.873,0,0,0-4.208,2.469,5.7,5.7,0,0,0,3.837-1.12M352.56,307.186a2.027,2.027,0,1,0-.648,3.87l.8-3.574m-85.246,96.244c-1.172.913-2.344,2.814-1.092,3.614a1.623,1.623,0,0,0,2.158-.841,4.7,4.7,0,0,0,.21-2.571l-1.254-.43m104.96,17.146c-.737.652.316,2.025,1.242,1.69a1.768,1.768,0,0,0,.67-2.5,4.1,4.1,0,0,0-2.383-1.627,1.611,1.611,0,0,0,.233,2.247m-52.654-89.884a2.594,2.594,0,0,0,1.545,4.12,3.193,3.193,0,0,0-1.571-4.5M483.78,516.072a3.487,3.487,0,0,0,2.693,3.389,4.884,4.884,0,0,0-.3-3.227c-.578-.94-2.177-1.261-2.735-.309M178.846,522.8a2.381,2.381,0,0,0-1.176-3.6,4.623,4.623,0,0,0-.749,3.939,1.333,1.333,0,0,0,1.987-.293m186.7-308.68.181-2.08a2.138,2.138,0,0,0-1.5-.284,11.775,11.775,0,0,0-.826,4.638,1.063,1.063,0,0,0,1.566-.406,3.073,3.073,0,0,0,.165-1.837M190.841,537.627l.229-2.664a2.274,2.274,0,0,0-1.534-.294l-.929,4.417a2.338,2.338,0,0,0,1.555.3l.584-1.767M364.989,190.862l.751,4.114a2.253,2.253,0,0,0,1.7.244l-.632-4.377a1.263,1.263,0,0,0-1.7-.015M42.27,274.66a1.627,1.627,0,1,0,.8,2.7,1.714,1.714,0,0,0-.8-2.7M504.705,522.949c-.065-.809-1.455-.74-1.781,0a2.814,2.814,0,0,0,.419,2.315,1.8,1.8,0,0,0,.915,1.013c.714.225,1.412-.573,1.391-1.321a3.576,3.576,0,0,0-.963-1.984M316.369,353.821a9.494,9.494,0,0,0,.348-4.2,1.758,1.758,0,0,0-1.4-.279,5.008,5.008,0,0,0,.362,4.847m-3.063,80.43q0,1.187-.006,2.374a3.339,3.339,0,0,0,2.11.277,8.011,8.011,0,0,0,.244-3.241,1.531,1.531,0,0,0-2.277.623M209.254,542.035a1.611,1.611,0,1,0-2.573,1.08,1.7,1.7,0,0,0,2.573-1.08M45.013,273.222c1.4.277,1.767-2.4.379-2.725s-2.506,1.659-1.732,2.857a.93.93,0,0,0,1.234.359m356.574,217.2c.782.389,1.924-.682,1.291-1.284a4.445,4.445,0,0,0-2.219-1.379c-.875-.135-1.918.505-1.842,1.387l2.784,1.283m-36.711-347.91a2.9,2.9,0,0,0,1.066,2.059,5.184,5.184,0,0,0,.754-2.776c-.111-.966-1.02-1.906-1.963-1.668s-1,1.978-.028,2.03M113.693,446.717c-1.163-.119-1.21,2.053-.072,2.323s2.185-.874,2.378-2.028a1.734,1.734,0,0,0-2.344-.66M45.989,332.091a2.156,2.156,0,0,0-1.572-3.464,2.4,2.4,0,0,0,1.684,3.729M370.748,460.321a1.551,1.551,0,0,0,1.405-2.009,2.267,2.267,0,0,0-3.571,1.736,3.868,3.868,0,0,0,2.17.226M357.74,297.734a1.589,1.589,0,0,0-.641,2.154,4.608,4.608,0,0,0,1.815,1.714c1.392-.9.526-3.581-1.132-3.5M44.92,321.019a1.661,1.661,0,0,0-1.471.259q0,1.775,0,3.55a1.416,1.416,0,0,0,1.807,0l-.123-3.847m281.945-56.706a1.642,1.642,0,0,0-1.44,2.06c.97.553,2.37.74,3.07-.129s-.654-2.489-1.393-1.652m79.447,224.66h-2.954a2.249,2.249,0,0,0-.3,1.531,11.163,11.163,0,0,0,3.829.211,1.036,1.036,0,0,0-.575-1.752m-63.3-92.89a2.338,2.338,0,0,0,1.784,3.212c1.279-1.3-.213-3.966-1.987-3.556m-68.982,1.211a1.769,1.769,0,1,0,.258,3.482,3.172,3.172,0,0,0-.213-3.29m99.04,39.691a4.082,4.082,0,0,0,3.526.762,2.283,2.283,0,0,0-3.193-2.184l-.4,1.3m-1.963-273.55c-.984,1.425.968,3.649,2.509,2.858a2.18,2.18,0,0,0-2.442-2.622m-7.5,303.456a6.355,6.355,0,0,0,.965,2.641l1.814.033a2.208,2.208,0,0,0-2.759-2.775M38.206,313.631a2.212,2.212,0,0,0,2.037,2.707,3.675,3.675,0,0,0-.062-2.838c-.52-.824-2.1-.838-2.25.125M288.9,376.189a1.148,1.148,0,0,0,1.584.837l.864-3.287c-1.267-.735-2.992,1.114-2.172,2.328m-216.048,9.6c-1.429,1.112-.377,3.881,1.434,3.9a4.111,4.111,0,0,0-1.179-3.776m309.32,62.737a2.421,2.421,0,0,0-2.6-2.985,2.287,2.287,0,0,0,2.451,2.908M42.272,282.916l.006-2.37a2.652,2.652,0,0,0-2.027-.227c-1.076,1.2.649,3.442,2.082,2.712m223.64,257.249c.216-.735-.683-1.3-1.438-1.431a3.023,3.023,0,0,0-1.565,2.664,2.154,2.154,0,0,0,2.856-1.286m101.11-343.021-1.509-.212a5.157,5.157,0,0,0,.011,3.615,1.346,1.346,0,0,0,1.589-1.068,3.9,3.9,0,0,0-.282-2.111m-7.019,42.279a4.717,4.717,0,0,0,1.156-3.893c-1.8.1-2.709,2.752-1.472,4.065M275.342,393.846c.563-.662-.516-1.672-1.335-1.383s-1.216,1.2-1.522,2.009a2.3,2.3,0,0,0,1.468.887l1.475-1.473m82.679-118.248a1.476,1.476,0,1,0,.244,2.773,2.007,2.007,0,0,0-.275-2.6M269.308,477.8a1.4,1.4,0,1,0-.348-2.4,1.474,1.474,0,0,0,.348,2.4M246.583,535.56a2.147,2.147,0,0,0,1.91,2.683c1.115-1.183-.529-3.5-2.014-2.842m231.346-17.553a1.636,1.636,0,0,0,1.552,1.448,2.456,2.456,0,0,0,.833-2.63,1.436,1.436,0,0,0-2.235,1.175M98.946,429.3l.728-2.387c-1.284-.815-3.159,1-2.386,2.311a1.136,1.136,0,0,0,1.667.071M39.532,305.575a2.311,2.311,0,0,0-1.01-3.505,2.489,2.489,0,0,0,1.032,3.685M294.7,226.748c.568-.972-1.548-1.651-1.94-.6s.8,2.14,1.922,2.136l.313-1.432M470.762,512.548l.894,2.084c.912.376,1.853-.916,1.409-1.8a2,2,0,0,0-2.586-.68M336.221,330.267l1.574.2.3-2.752c-1.121-.764-2.655,1.256-1.617,2.131M45.269,333.7c.079-.633-.716-1.112-1.321-.91a1.8,1.8,0,0,0-1.066,1.475,2.026,2.026,0,0,0,2.051.887,1.928,1.928,0,0,0,.271-1.466m251.881,34.543.246-1.513a1.647,1.647,0,0,0-2.388,1.794,1.38,1.38,0,0,0,2.019-.31M43.437,281.725a1.734,1.734,0,0,0-.561,1.8,1.6,1.6,0,0,0,2.29-1.773,1.353,1.353,0,0,0-1.747-.039M199.894,506.706a3.606,3.606,0,0,0-.6,3.037,1.361,1.361,0,1,0,.822-2.565m254.182,1.232a1.752,1.752,0,0,0,.564-1.806,2.934,2.934,0,0,0-2.038-.234c-.827.875.4,2.592,1.493,2.1m-410.406-191,.18-2.082a2.253,2.253,0,0,0-1.517-.29,5.073,5.073,0,0,0-.3,2.652.943.943,0,0,0,1.434-.316M31.468,215.341l.236-1.521a3.238,3.238,0,0,0-2.1-.228c-.986.961.895,2.826,1.847,1.831m326.311,89.605a2.1,2.1,0,0,0,.9-2.091,1.649,1.649,0,0,0-2.323,1.882l1.412.322m-2.233-3.027.246-1.513a1.647,1.647,0,0,0-2.388,1.794,1.38,1.38,0,0,0,2.019-.31M200.421,452.319a1.62,1.62,0,0,0,2.069,1.424,1.266,1.266,0,1,0-2.026-1.413M47.584,249.271l-.019,1.844a1.641,1.641,0,0,0,1.673-2.379.956.956,0,0,0-1.521.57m215.313,161.7a2.015,2.015,0,0,0-2.372-1.825q0,.917.006,1.834a2.284,2.284,0,0,0,2.378.006m47.531,104.743c1.219.293,1.656-2.1.417-2.3s-1.657,2.124-.437,2.413m158.785-2.473a1.642,1.642,0,0,0-1.774-.555,1.445,1.445,0,0,0,1.159,2.251,1.223,1.223,0,0,0,.631-1.708M82.338,399.34a1.209,1.209,0,1,0-.418-1.84,1.336,1.336,0,0,0,.517,1.7m106.087,59.339.181-2.082a2.43,2.43,0,0,0-1.551-.3,3.256,3.256,0,0,0-.246,2.074,1.835,1.835,0,0,0,1.452.273M358.521,293.85l.181-2.082a2.43,2.43,0,0,0-1.551-.3,3.256,3.256,0,0,0-.246,2.074,1.835,1.835,0,0,0,1.452.273M350.1,261.487c.9-.086,1.014-1.356.861-2.25a1.183,1.183,0,1,0-.846,2.1M347.452,482.9l-1.527-.235a3.851,3.851,0,0,0-.267,2.141c.843.839,2.442-.778,1.593-1.611m-22.973,19.937a1.867,1.867,0,0,0-2.12-1.287,1.4,1.4,0,1,0,2.44,1.384M265.1,478.115c.9-.086,1.014-1.356.861-2.25a1.183,1.183,0,1,0-.846,2.1m-136.669-19.74,0,1.775a2.216,2.216,0,0,0,1.5.3,3.155,3.155,0,0,0,.242-2.065,1.445,1.445,0,0,0-1.779-.039M301.99,280.555l0,1.775a2.216,2.216,0,0,0,1.5.3,3.155,3.155,0,0,0,.241-2.065,1.445,1.445,0,0,0-1.779-.039m-8.473,89.423c-.589-.856-2.26-.115-2.021.9a1.553,1.553,0,0,0,1.367.854,1.282,1.282,0,0,0,.639-1.736M35.767,183.277l1.527.235a3.851,3.851,0,0,0,.267-2.141c-.843-.839-2.442.778-1.593,1.611m318.866,298.56a1.533,1.533,0,0,0-1.23-2.333,3.156,3.156,0,0,0-.239,2.037,1.841,1.841,0,0,0,1.451.272m-.939-4.048a1.292,1.292,0,0,0-1.94-1.174,1,1,0,1,0,1.558,1.062M28.7,199.688l-.013,1.8a1.365,1.365,0,0,0,1.7-1.76,1.272,1.272,0,0,0-1.724-.046M325.045,325.294a1.508,1.508,0,0,0-1.774,1.916c.84.82,2.4-.8,1.545-1.608M532.851,545.575l-.233-1.493a1.312,1.312,0,0,0-1.652,1.464c.254.869,1.781.929,2.014.054M214.057,445.124l-1.493-.228a2.43,2.43,0,0,0-.3,1.553,3.2,3.2,0,0,0,2.071.243.912.912,0,0,0-.316-1.407m161.144-288.17a.852.852,0,0,0,.322-1.407H373.7a1.445,1.445,0,0,0,0,1.819l1.5-.179M330.606,259.64a1.364,1.364,0,0,0-1.409.275.988.988,0,1,0,1.392-.269M297.447,450.83l-.227,1.492a2.265,2.265,0,0,0,1.525.292,2.025,2.025,0,0,0,.287-1.476,1.923,1.923,0,0,0-1.467-.271m55.17-52.143,1.492.227a2.265,2.265,0,0,0,.292-1.525,2.025,2.025,0,0,0-1.476-.287,1.923,1.923,0,0,0-.271,1.467m.749,4.412-.227,1.492a2.265,2.265,0,0,0,1.525.292,2.025,2.025,0,0,0,.287-1.476,1.923,1.923,0,0,0-1.467-.271M49.324,340.164a1.7,1.7,0,0,0-.243-1.462,1.684,1.684,0,0,0-1.455.286c-.517.9,1.058,1.979,1.71,1.175m313.49,64.945a1.4,1.4,0,0,0,.267,1.41.991.991,0,1,0-.277-1.367M45.241,335.924l-1.492-.227a2.265,2.265,0,0,0-.292,1.525,2.025,2.025,0,0,0,1.476.287,1.923,1.923,0,0,0,.271-1.467M188.479,529.96l.227-1.492a2.265,2.265,0,0,0-1.525-.292,2.025,2.025,0,0,0-.287,1.476,1.923,1.923,0,0,0,1.467.271m150.527-115.71a1.4,1.4,0,0,0,1.41-.267.991.991,0,1,0-1.367.277m53.353,71.861,1.492.227a2.265,2.265,0,0,0,.292-1.525,2.025,2.025,0,0,0-1.476-.287,1.923,1.923,0,0,0-.271,1.467M175.974,498.621a1.4,1.4,0,0,0,1.41-.267.991.991,0,1,0-1.367.277M49.983,239.832a1.4,1.4,0,0,0,.267,1.41.991.991,0,1,0-.277-1.367M65.255,241a1.4,1.4,0,0,0-.267-1.41.991.991,0,1,0,.277,1.367M376.093,454.41c.534-.591-.551-1.632-1.119-1.074a.833.833,0,1,0,1.1,1.052m-50.78-28.922c.789.3,1.041-1.085.639-1.83a1.924,1.924,0,0,0-1.39.768c-.255.485.277,1.249.741.959M169.759,507.182c.92-.259-.1-1.984-.772-1.3-.853.349.09,1.951.809,1.376M285.48,205.59a1.235,1.235,0,0,0,1.75,1.2,2.116,2.116,0,0,0-.274-1.546l-1.51.187M268.678,537.12a1.126,1.126,0,0,0-.641,1.625,1.111,1.111,0,0,0,1.516-.5.881.881,0,0,0-.919-1.152m-39.35-12.716a1.044,1.044,0,0,0-1.6-.594.945.945,0,1,0,1.709.56m11.6-3.2c.456-.825-1.1-1.711-1.578-.9a.9.9,0,0,0,1.4.726M37.175,177.492c-.5.785,1.02,1.723,1.5.926.375-.59-.726-.962-1.407-.807m337.725,9.439c.456-.825-1.1-1.71-1.578-.9a.9.9,0,0,0,1.4.726M226.334,531.422a1.121,1.121,0,0,0,1.86.585c.33-.765-1.046-.994-1.8-.647M353.034,260.143c.659.144,1.717-.208,1.366-.784-.412-.819-1.952.138-1.4.87M54.476,244.306c.456-.825-1.1-1.71-1.578-.9a.9.9,0,0,0,1.4.726M160.918,539.1c.294-.8-1.1-1.022-1.854-.621a1.083,1.083,0,0,0,1.826.6m93.29-122.755c.294-.8-1.1-1.022-1.854-.621a1.083,1.083,0,0,0,1.826.6m12.14,63.514c-.659-.144-1.717.208-1.366.784.412.819,1.952-.138,1.4-.87m88-172.856c.456-.825-1.1-1.71-1.578-.9a.9.9,0,0,0,1.4.726M41.916,307.929a.947.947,0,0,0-.492-1.663,1.016,1.016,0,0,0,.548,1.741M427.2,498.893a.947.947,0,0,0,1.663-.492,1.016,1.016,0,0,0-1.741.548Z" transform="translate(-2.273 -7.604)"/></g></g></svg>