<svg xmlns="http://www.w3.org/2000/svg" viewBox="0 0 950 640">
	<path
		d="M332 285a20 20 0 0 1 6-5 19 19 0 0 1 5-1c15-2 31 1 43 10 2 2 4 5 3 8-1 1-4 2-6 1a14 14 0 0 1-5-4c-1-1-2 1-3 2-2 6-5 12-10 15a17 17 0 0 1-26-13c0-2 0-5-2-6l-9 14a7 7 0 0 1-2 2c-2 2-6-1-6-4s1-5 3-8a101 101 0 0 1 9-11m19 4a3 3 0 0 0 1 4 2 2 0 0 0 1-1 10 10 0 0 1-2-3 1 1 0 0 0 1-1 1 1 0 0 0-1 1m28 1v-1a10 10 0 0 0-4-3 7 7 0 0 0 4 5m-45 3a2 2 0 0 0-2-2 4 4 0 0 0-2 3 3 3 0 0 0 4-1m30 12a1 1 0 0 0 2 1 1 1 0 1 0-2-1m-14-11l-1 1a1 1 0 1 0 1-1m-6 0c1 1 2 0 1-1a1 1 0 1 0-1 1m5-8a1 1 0 0 0-1 1 1 1 0 0 0 1-1zM334 579c3 6 9 10 15 12s13 2 19 2c50-3 95-30 132-63 2-3 4-5 7-5s7 2 7 5l-3 4c-23 21-49 39-78 52s-60 18-91 14a46 46 0 0 1-18-27c1-2 5-2 7 0l3 6m157-36a1 1 0 0 0-2 0 10 10 0 0 0 0 5 3 3 0 0 0 2 0 11 11 0 0 0 0-5m-6 3a2 2 0 1 0 1 3 2 2 0 0 0-1-3m24-16a2 2 0 0 0-2-1l1 4c1 1 2-2 1-2m-46 34a2 2 0 0 0 1 3 3 3 0 0 0 1-3h-2m-3 3v-2a2 2 0 0 0-1-1 9 9 0 0 0 0 4 1 1 0 0 0 1-1m9-9a2 2 0 0 0-1 3h2l-1-3m-58 30l-3-1a2 2 0 0 0 0 2 5 5 0 0 0 3 0 2 2 0 0 0 0-1m66-34a1 1 0 0 0 2-2 1 1 0 1 0-2 2m-57 33a1 1 0 1 0-3 0 1 1 0 0 0 2 0m6-4a2 2 0 0 0 0 2 2 2 0 0 0 2-1l-2-1m75-48l-2-1a1 1 0 0 0 2 1m-6 7c-1 1 1 2 1 1h-1z"
	/>
	<path
		d="M323 608c-2-2-3-6-2-8s6-3 7 0c1 5 5 8 10 10s9 1 14 1a256 256 0 0 0 92-21c5-2 11-4 15 0-6 8-17 11-27 14-23 7-46 13-70 16-14 1-31 0-39-12m127-17a2 2 0 0 0 2 3 3 3 0 0 0 1-3h-3m-19 9a2 2 0 0 0 3 1 1 1 0 1 0-3-1m8-4a1 1 0 1 0 1-1 2 2 0 0 0-1 1m-57 17a1 1 0 0 0 2 1 1 1 0 0 0 0-2c-1 0-2 0-1 1m-7 0c0 1 1 2 2 1l-2-1zM468 191l4 10a75 75 0 0 0-8-50 129 129 0 0 0-11-16c-3-4-6-8-11-10s-11-3-15 0c-1 0-2-2-1-3a6 6 0 0 1 3-3 17 17 0 0 1 14 2 34 34 0 0 1 6 6l8 8 13 16c8 14 8 32 15 46 1 2 3 4 3 7s0 5-2 7c-3 2-2 6-2 9a50 50 0 0 1-2 17c-1 3-3 6-5 5a111 111 0 0 0 1-48c-6 18 0 39-9 56a198 198 0 0 0 2-24l-5 7a92 92 0 0 0 2-42m16 14a2 2 0 1 0-1-4 3 3 0 0 0 1 4zM398 247a5 5 0 0 1 7 7l6-1a9 9 0 0 0-5 7 6 6 0 0 1 8 0c-7 2-15 2-22 3l-72 1c-4 0-9-1-10-4 0-2 0-3-2-3-3 0-4-5-2-8s6-3 9-3l60-1c3 0 6 0 9 2-2-1 1-3 2-3l14-1-2 4m-15 8l3 4a2 2 0 0 0 2-1c1-3-1-5-4-6a6 6 0 0 0-4 1h-4v2a3 3 0 0 1 3 3h2a4 4 0 0 1 2-3m20 5a3 3 0 0 1 2-3l-2-6c2 1 3-2 1-3s-3 2-1 3a4 4 0 0 1-3 0l1 6a4 4 0 0 0 0 3 1 1 0 0 0 2 0m-5-6a1 1 0 0 0 1-2 8 8 0 0 1-8 0l-1 1a3 3 0 0 0 2 2l6 3a7 7 0 0 0 0-4m-44 4l2-1-2-2h-4a2 2 0 0 0 1 3 6 6 0 0 0 3 0m15-5a7 7 0 0 0-3 0 3 3 0 0 0-1 2 8 8 0 0 0 3 2 3 3 0 0 0 3-2 2 2 0 0 0-2-2m-16-3a5 5 0 0 0-6 0l-1 2a5 5 0 0 0 7-2m39 9a3 3 0 0 0 3 1 2 2 0 0 0-3-1m-46 1a2 2 0 0 0 3-1 3 3 0 0 0-3-1 3 3 0 0 0 0 2m25-3c-2 1 0 4 1 3a2 2 0 0 0-1-3m-24-2a2 2 0 0 0-3 1 2 2 0 0 0 3-1m-22 1c-1 0-1 2 1 2 1 0 0-3-1-2m70-8h-2a2 2 0 0 0 0 2 2 2 0 0 0 2 0v-2m-57 7a1 1 0 0 0-2 1 2 2 0 0 0 2 0 2 2 0 0 0 0-1m38 3l-2-2 2 2m-35-5c0-1-1-2-2-1a1 1 0 0 0 2 1m45-5c1 0 2-1 1-2l-1 1zM394 145l-1-4a68 68 0 0 0 0-20c-1-1-2 2-2 4s-2 5-4 3c-6-30-29-56-58-66l15 12a108 108 0 0 1 34 65c0 2-1 6-4 5-2 0-2-2-2-4 1-10-3-20-9-27 3 10 5 21 2 31l-3 4-4-2a48 48 0 0 0 4-16c0-4-1-8-4-9 2 1 3-3 2-5a86 86 0 0 0-13-27 12 12 0 0 1 6 4v-3c-11-16-25-31-44-33a138 138 0 0 1 41 71c1 6 2 13-2 17a154 154 0 0 0-23-63c-6-9-13-19-24-23-13-4-27 0-40 4-1 1-2-1-1-2a5 5 0 0 1 2-3 48 48 0 0 1 41 0 14 14 0 0 0-11-9c-4 0-8 1-11-1a310 310 0 0 1 60-14c1-1 3 0 3 1l-19 4c1 2 4 2 6 2 11 0 22 1 32 4s20 11 25 20v5c-6-7-11-13-18-17l-14-4c-20-5-41-9-60-1 5 6 14 4 22 4a104 104 0 0 1 42 6 46 46 0 0 1 6 5l14 11c6 6 12 11 16 19s6 17 1 24c0-15-9-27-19-37-12-13-28-24-46-22a119 119 0 0 1 63 64c3 6 5 12 4 18a7 7 0 0 1-1 4c-1 2-3 2-4 1m-67-90l2 3c1 0 3-1 2-2a3 3 0 0 0-1-1h-3m57 28a5 5 0 0 0 2 2 3 3 0 0 0-2-4 2 2 0 0 0 0 2m-61-43l-1-1c-1 0 0 2 1 1z"
	/>
	<path
		d="M215 135a71 71 0 0 0 41 15c-3 5-12 4-18 2a106 106 0 0 1-22-10c-5-4-11-8-14-14-7-12-1-27 5-40 1-3-2-6-5-6s-5 2-7 5a80 80 0 0 0-24 46c-2 1-4-2-4-5 2-15 11-28 20-40l9-8 12-1c4 0 9-3 9-7l1 6a23 23 0 0 1 15-6c3 0 3-4 1-6s-6-2-7-4c1-2 4-1 6-1 5 1 9-5 11-9s6-11 11-10c-5 2-5 8-5 13l2 7c1 2 4 4 6 4 10-3 21 0 31 4s18 11 26 17c9 7 18 15 22 25v4c-3 3-1 8 1 12s5 8 4 13c-1 1-3 3-4 1-6-19-15-37-29-51s-34-24-54-21a3 3 0 0 0-2 1v3a89 89 0 0 0 39 57l-19-34 2-3a195 195 0 0 0 19 34c4 6 10 13 18 14a37 37 0 0 1-14-21 37 37 0 0 0 11 14l4 5c1 2 0 4-1 5-5 0-9-2-13-5-11-7-21-15-30-25s-15-22-17-35l-3-9c-2-3-6-4-8-2l-2 6a70 70 0 0 0 53 72c-9 3-17-1-25-6a79 79 0 0 1-33-66c-3 0-7 0-11 2s-6 5-6 8c-1-1-4 0-5 1a12 12 0 0 0-3 5c-4 12-9 26-2 37a32 32 0 0 0 8 7m28-74a4 4 0 0 0-1 2c0 2 3 2 5 1s1-4 1-5l1-7a2 2 0 0 0 0-1c-1-1-2 0-3 1l-3 9m86 50c1-2-1-3-2-2a1 1 0 1 0 3 2m2 2l-1 1a2 2 0 0 0 2 2 2 2 0 0 0-1-3m-10-15c1 0 2-1 1-2a1 1 0 1 0-1 2zM447 108a34 34 0 0 1 24 11c5 5 8 12 11 18 10 23 18 48 13 73l-3-24c-2-15-5-30-14-41 3-2 2-7 0-10-6-10-14-19-26-22-6-2-15-1-18-8 19-8 43-1 53 17a66 66 0 0 0-35-17c-2 0-5 1-5 3zM377 396c0 3-3 5-6 6a256 256 0 0 1-85 14 7 7 0 0 1-4-1c-2-2-1-6 1-8s6-1 9-1a213 213 0 0 0 74-13l6-1c2 0 5 2 5 4m-26 4l-5 3a2 2 0 0 0 2 3l2-2a7 7 0 0 0 3-2c1-1 0-2-1-2a2 2 0 0 0-1 0m18 1l3-7a4 4 0 0 0-3 7m-9-1a3 3 0 0 1 2 0 2 2 0 0 0 0-2 3 3 0 0 0-4 1 2 2 0 0 0 2 1m-2 3a2 2 0 0 0 0-2l-2 1 1 1m-40 6a2 2 0 0 0-2 0 2 2 0 0 0 2 2 2 2 0 0 0 0-2m6 0l-1 1a2 2 0 0 0 2-1h-1m8 0a2 2 0 0 0 0 1 2 2 0 0 0 1 0v-2h-2zM249 580l-6 17c-4-1-5-6-5-10s2-7 3-11c3-5 6-11 11-13 18-9 39-10 56-20 1-2 4-3 6-2s3 4 1 7-4 3-6 4a229 229 0 0 1-29 10c-6 2-12 3-17 6s-11 7-14 12m14-19a5 5 0 0 0-3 1 2 2 0 0 0 0 1l6 1v-3a5 5 0 0 0-3 0m-20 29c-1-1 2-2 1-4l-3 1v5h1l1-2m-2-7a3 3 0 0 0 4-4 3 3 0 0 0-3 4m7-12a3 3 0 0 0 1-4 4 4 0 0 0-3 4 2 2 0 0 0 2 0m27-12a2 2 0 1 0 2-1 2 2 0 0 0-2 1m-21 8v-2c-1 0-2 2 0 2m32-11a2 2 0 0 0 0-2 1 1 0 1 0 0 2zM434 99c-1 3-4 6-7 4a53 53 0 0 0-8-46c-8-11-21-19-34-22s-28-4-42-3c8-5 18-7 28-6s18 4 27 7c8 2 16 5 20 12a196 196 0 0 1 13 28c3 9 5 18 3 26m-38-65a2 2 0 0 0-3 0 2 2 0 0 0 3 0m9 6c1-2-2-2-2-1s2 2 3 1m7 1a2 2 0 0 0-3-1l1 2 2-1m-27-10c-1-1-1 1-1 1a1 1 0 0 0 2 0 1 1 0 0 0-1-1zM245 278a12 12 0 0 1 4 4 5 5 0 0 1-1 6l-3 2a9 9 0 0 0-2 3 17 17 0 0 1-5 8 10 10 0 0 1-8 2 10 10 0 0 1-6-5 12 12 0 0 1-2-4 13 13 0 0 1 2-10c-3 1-6 1-7-1-2-2-1-4-1-6a12 12 0 0 1 2-5 10 10 0 0 1 9-3 22 22 0 0 1 9 3 54 54 0 0 1 9 6m-16 19a2 2 0 0 0 1-2 1 1 0 0 0-3 1 1 1 0 0 0 2 1zM842 373c-3 2-7 1-10-1s-7-3-10-3v2c2 0 3 2 4 4 2 2 3 5 1 7-1 2-4 2-5 1a12 12 0 0 1-4-5 97 97 0 0 1-8-18 7 7 0 0 1 0-3c0-3 3-4 5-4l6 3 18 11c1-3-2-5-4-7s-6-5-4-7a5 5 0 0 1 4-3 10 10 0 0 1 5 3c4 3 7 7 10 12 1 2 3 5 1 7s-6 0-9 1m5-6l-1-1a2 2 0 0 0-1 0l-1 4a2 2 0 0 0 3-3m-25 7v5c2 1 3-1 3-2l-3-3m17-4a2 2 0 0 0-3 1c1 1 2 2 3 1s1-2 0-2zM723 473l-5-4a4 4 0 0 0-2-1 3 3 0 0 0-2 0 37 37 0 0 0-6 4 6 6 0 1 1-6 9c-2-1-3-4-3-6l-4-18c0-4 1-9 5-11 2-2 6-1 9 0s5 4 7 6l10 12c1 1 3 3 2 5l-5 4m-22-3l3 8 2 2v-3a16 16 0 0 0-5-7m8-10c1-1 0-2-1-2a2 2 0 0 0-2 2 5 5 0 0 0 1 3 2 2 0 0 0 1 1c2 0 2-2 1-4m13 8l3 1c0-2-1-3-3-4h-2a2 2 0 0 0 0 2 5 5 0 0 0 2 1m-3-6a2 2 0 0 0 2 2 3 3 0 0 0 0-3l-2 1m-14-9l-1 2a1 1 0 0 0 2 0l-1-2zM781 446l-3-14a14 14 0 0 1-1-6 5 5 0 0 1 4-4l6 3a46 46 0 0 1 7 11 2 2 0 0 0 2 0l-1-15a5 5 0 0 1 0-2c2-2 5-2 7-1l8 8c3 3 6 5 9 4 3 0 4 2 4 4s-3 4-5 4a13 13 0 0 1-12-2 2 2 0 0 0-2 0 10 10 0 0 0-1 3 9 9 0 0 1-10 4l-2 2a19 19 0 0 0 0 3c0 3-5 5-7 3-2-1-2-3-3-5m2-11a3 3 0 0 0 1 2 1 1 0 0 0 1 0 8 8 0 0 0 1-4 3 3 0 0 0-3-2 28 28 0 0 0 0 4m7 1a1 1 0 0 0-2 0 5 5 0 0 0 1 3l2 1c1-1 0-3-1-4zM767 396a135 135 0 0 1-13-14l-2-4c1-2 3-3 5-3s4 2 5 3l7 7v-3a6 6 0 0 1 2-9 18 18 0 0 1 11 8l2 2c1 0 2 0 1-1a21 21 0 0 1-3-10 2 2 0 0 1 1-2 2 2 0 0 1 1 0c3 0 7 2 8 5l2 11-1 7c-2 2-5 1-8 1s-4-3-7-4c-1 1 1 3 1 5 0 3-3 4-6 4s-4-2-6-3m20-16a1 1 0 0 0 2 0l-1-5a2 2 0 0 0-2 2 6 6 0 0 0 1 3m-18 11a2 2 0 0 0-1 0 3 3 0 0 0 2 3 20 20 0 0 0-1-3m5-2c1-2 0-3-1-3a8 8 0 0 0 0 3 1 1 0 0 0 1 0m2 4a2 2 0 0 0-2 3 1 1 0 1 0 2-3m-8-6v3a2 2 0 0 0 1 0 5 5 0 0 0 1-3 2 2 0 0 0-2 0m6-10a2 2 0 0 0-1 0 1 1 0 0 0 2 1l-1-1m-11 11a1 1 0 0 0 2 1 1 1 0 0 0-1-2 1 1 0 0 0-1 1zM669 344a15 15 0 0 0 2-2c3-3 8-3 12-2s7 6 9 9c2 1 3 3 2 4 0 3-4 4-6 3l-6-6a5 5 0 0 0-2-2c-2 0-4 1-5 3v6l-2 5c-3 2-7 0-8-3l-2-5c-1-1-4-2-5 0v3l2 6c1 2 2 4 0 6h-6c-2-1-3-4-4-6l-3-7c-1-3-1-6 1-7 3-3 7-6 11-5 4 0 7 2 10 0m19 8a20 20 0 0 1-3-6l-3-1a7 7 0 0 0 6 7m-30 11c-1-1-3 1-3 2a3 3 0 0 0 3 3 8 8 0 0 0 0-5m12-6c0 2 3 1 3 0l-3-2a2 2 0 0 0 0 2m-14-1c-1-1-4 0-4 2h4v-2m13-7a2 2 0 0 0-1 3 2 2 0 0 0 1-3m-7-3a1 1 0 0 0 1 2 1 1 0 0 0-1-2zM647 499a5 5 0 0 1-5-2 14 14 0 0 1-2-5c-1-7-3-15-2-23 0-3 4-5 7-4l7 5c6 5 11 11 16 18-2 2-3 5-6 4l-4-2c-3-1-5 2-6 4s-2 5-5 5zM599 449c-2-1-4 2-5 5s0 5-2 6-5 0-6-1a13 13 0 0 1-3-6 115 115 0 0 1-2-19v-5a6 6 0 0 1 4-2c4 0 8 2 12 4l10 7a6 6 0 0 1 2 1 2 2 0 0 1 0 2c-1 1 0 3 1 5a6 6 0 0 1-1 7c-1 2-5 2-6 1l-4-5m-9 2a2 2 0 0 0 1 4 8 8 0 0 0 0-3 2 2 0 0 0-1-1m9-12a2 2 0 0 0-1 3 1 1 0 1 0 1-2m10 9a2 2 0 0 0-1-2 1 1 0 0 0-1 1 3 3 0 0 0 0 2 1 1 0 0 0 1 0 2 2 0 0 0 1-1zM540 394h5c2 0 4 0 4 2-1 1 3 2 2 4l-1 2a23 23 0 0 1-13 0c-5-1-9-4-10-8v-11l1-7c1-3 2-5 4-6s4 1 5 3a13 13 0 0 1 1 5l2 1a4 4 0 0 0 2-1c2-3 6-7 10-9s9-1 12 2a5 5 0 0 1 2 4l-3 2c-4-3-9 0-12 3a76 76 0 0 0-10 9l-1 5m6 2a2 2 0 0 0-2 2 2 2 0 0 0 3 2 2 2 0 0 0 0-4h-1m4-21l-1 1a3 3 0 0 0 4-2 2 2 0 0 0-3 1m11-2v-2a5 5 0 0 0-2-1c-1 2 1 4 2 3m-31 10v1a2 2 0 0 0 1 0l-1-1zM730 340a4 4 0 0 0 2-1 12 12 0 0 0 6-4 13 13 0 0 1 2-2h6a17 17 0 0 1 5 5l6 9c1 2 0 5-1 6a6 6 0 0 1-6-1 15 15 0 0 1-4-5 9 9 0 0 0-3-2 3 3 0 0 0-3 0 12 12 0 0 1-15 2 15 15 0 0 1-6-8c-2-7 0-15 5-19s14-5 19 0a8 8 0 0 1-2 4 3 3 0 0 1-4 0c-2-3-6-1-8 1s-1 6-1 10c0 2 0 4 2 5m12-3c1-1 2 1 3 2l2 3v-5c-1-1-4-2-5 0m9 11v2a3 3 0 0 0 2 1l2-1c1-1 0-2-1-2a5 5 0 0 0-3 0m-14-5a2 2 0 0 0-2 2 2 2 0 0 0 2-2m11 3l1 1a2 2 0 0 0 0-2l-1 1zM810 305c5-1 10-2 15 0s9 6 10 11c1 6-4 12-9 16a9 9 0 0 1-4 1c-4 0-7-4-9-8l-5-11c-2-2-3-6-1-8a6 6 0 0 1 3-1m14 13a8 8 0 0 0 0-2c-2-3-5-3-8-2a10 10 0 0 1 5 7l3 1a4 4 0 0 0 0-4zM829 424l-12-6a13 13 0 0 1-3-4 4 4 0 0 1 4-6 13 13 0 0 1 4 2l7 5a4 4 0 0 0 2 0l2-1a21 21 0 0 1-1-8c0-2 2-5 4-5s6 0 6 3a60 60 0 0 0 10 28l-2 4-4 2a26 26 0 0 1-9-11c-1-3-5-3-8-4m3-2l1-1c-1-1-1 0-1 1zM867 367a14 14 0 0 1-17-16l5-10 7-5c3-1 6 1 7 4l-7 8c-2 3-4 7-2 10a5 5 0 0 0 9-4l-1-5c1-2 4-3 6-2l5 6 7 12c1 2 2 4 1 5a4 4 0 0 1-2 1 8 8 0 0 1-8-4l-5-1a35 35 0 0 0-5 1m12-5a2 2 0 0 0-1 2 9 9 0 0 0 4 0 2 2 0 0 0-1-2 5 5 0 0 0-2 0m-26-6a2 2 0 0 0 4-2 10 10 0 0 0-4 0 3 3 0 0 0 0 2m29 13c1 1 1 0 2-1a3 3 0 0 0-4-1 2 2 0 0 0 2 2m-23-10l-2 2a3 3 0 0 0 3 1 2 2 0 0 0 1-1l-3-2m12 5l2-2a1 1 0 1 0-2 2m-4-1h-2a2 2 0 0 0 0 2 5 5 0 0 0 2 0 1 1 0 0 0 0-2m4-2a1 1 0 0 0 2-1 2 2 0 0 0-2-1 2 2 0 0 0 0 2m8-4a1 1 0 0 0-2 0 1 1 0 0 0 2 0zM741 381a55 55 0 0 1 14 18 6 6 0 0 1 1 2 3 3 0 0 1-2 3c-1 1-4 0-5-1l-5-5c-2-2-4-2-5-1-4 3 1 11-2 14-2 1-5 1-6-1l-3-6-2-14c-1-4-1-9 2-11a8 8 0 0 1 7-1 18 18 0 0 1 6 3m11 18c0-1-1-3-2-2a2 2 0 0 0-1 2 2 2 0 0 0 3 0m-20 10a2 2 0 0 0 3 1 2 2 0 0 0-1-2 2 2 0 0 0-2 1m9-15v-2a2 2 0 0 0-1 0 2 2 0 0 0 0 1 2 2 0 0 0 1 1m-9 10c1-1-1-1-1-1a1 1 0 0 0 1 1m14-9h0zM414 129c10-2 20 4 27 11a79 79 0 0 1 24 65c-1 4-2 10-6 12a91 91 0 0 0-14-65c-5-8-12-15-22-18-3-1-8-2-9-5m25 11l-1-1a2 2 0 0 0 1 2 1 1 0 0 0 0-1zM694 391a14 14 0 0 1 21 6 6 6 0 0 1 1 2c0 2-2 4-1 6 1 3 7 2 8 6 1 3-2 5-5 5l-7-3a4 4 0 0 0-3 0 2 2 0 0 0-1 2c2 0 4 1 4 3a2 2 0 0 1-1 1 5 5 0 0 1-5 0 13 13 0 0 1-4-4 116 116 0 0 1-9-16 8 8 0 0 1-1-4 6 6 0 0 1 3-4m12 10a3 3 0 0 0-2-4l-3 2a8 8 0 0 0 1 3 3 3 0 0 0 3 2c1-1 2-2 1-3m3 0l1-1a4 4 0 0 0 0-2 2 2 0 0 0-2-1 3 3 0 0 0 1 4m0 8a2 2 0 0 0 3 3 2 2 0 0 0-3-3zM270 383l-7-4a19 19 0 0 1-5-4 6 6 0 0 1-1-6 3 3 0 0 1 2-2 4 4 0 0 1 2 1 58 58 0 0 1 11 6c2 2 7 1 10-1s7-4 10-2c2 2 5 1 7 0l7-4c3-1 5 0 6 2a5 5 0 0 1-1 5 12 12 0 0 1-4 4 57 57 0 0 1-21 5c-2 0-3 2-5 3-4 2-8-1-11-3m37-12a2 2 0 0 0-4 1 5 5 0 0 0 3 2l2-2-1-1m-17 5c1 0 2 0 1-1l-1 1m-3 2a1 1 0 0 0-1 1 1 1 0 0 0 1-1zM729 433a20 20 0 0 1 6-1 7 7 0 0 1 6 3 11 11 0 0 1-7 7v2a95 95 0 0 0 9 17c2 2 1 5-2 6a7 7 0 0 1-6-2 20 20 0 0 1-4-5l-8-12c-2-3-8-2-9-6 0-3 3-5 6-6l9-3m7 2l-2-1a2 2 0 0 0 0 2 3 3 0 0 0 2 1 2 2 0 0 0 0-2zM684 424l-7 4c-3 1-6-1-7-4l-6-17v-5c1-3 4-4 6-4 5-1 10-1 14 1s8 5 9 10c1 6-4 11-9 15m0-15c-2-3-5-3-9-3l-3 1v3l4 10a2 2 0 0 0 1 1h2a15 15 0 0 0 5-5 7 7 0 0 0 0-7m-7-6v-1a6 6 0 0 0-3-2c-2 1-3 2-2 3h5m-5 17v2a2 2 0 0 0 1 1 3 3 0 0 0 0-3 1 1 0 0 0-1 0m-2-5l1-1c0-1-2 0-1 1zM692 469c2 3 4 8 1 11-2 2-6 2-9 1l-8-4c-1 3 3 4 4 7s-2 6-5 5c-2 0-3-2-4-3-4-5-8-11-9-18-1-2-1-5 1-6 3-2 7 0 9 2l10 7h2v-5c0-2 3-2 5-2s2 3 3 5m-14 6a4 4 0 0 0 6 1 4 4 0 0 0-5-1m-3 9a1 1 0 0 0-2 0c-1 1 0 3 1 3s2-3 1-3m12-7a2 2 0 0 0-2 1c0 1 1 2 3 2s0-3-1-2z"
	/>
	<path
		d="M416 144a88 88 0 0 1 20 20c1 2 3 4 2 5v13a357 357 0 0 1 5 35c0 3 0 6-2 8l-2-3-8-56c0-2-2-5-4-6a136 136 0 0 0-20-18c2-2 6 0 9 2zM635 374c-1-1-4 0-5 1-3 2-6 4-6 8-1 2-4 2-6 0s-2-4-2-6a104 104 0 0 1 1-16c0-2 1-5 3-7 3-1 6 0 9 2a47 47 0 0 1 12 10 9 9 0 0 1 2 3 5 5 0 0 1-8 5m-5-8a4 4 0 0 0-5-1c-1 1-2 3-1 4a9 9 0 0 1 8 1 7 7 0 0 0-2-4m8 4c-1-2-3-1-3 0a6 6 0 0 0 3 2 2 2 0 0 0 0-2zM503 149c-1-5-3-11-7-16-1-1 1-4 3-3l4 3c4 7 5 15 6 23l1 30c0 10-4 21-10 29a147 147 0 0 0 3-66zM805 324c0 6-7 12-13 11s-11-8-9-15a18 18 0 0 1 5-6l4-2a6 6 0 0 1 3 1l6 4 4 3a7 7 0 0 1 0 4m-9-2a2 2 0 0 0-4 2 2 2 0 0 0 3 2 2 2 0 0 0 0-4m-3 9v-2a2 2 0 0 0-1 0 3 3 0 0 0-1 2 2 2 0 0 0 2 0zM767 456a14 14 0 0 1-19-20c2-3 7-6 10-3l4 1a12 12 0 0 1 5 22m-10-16a7 7 0 0 0 0 8l4 2c2-1 2-3 2-5l-1-2c0-2 0-4-2-4a3 3 0 0 0-3 1m11 2c1-2 0-4-2-5a1 1 0 0 0-1 3l1 2a7 7 0 0 0-2 3l2 2 3-5m-14 8l-1 1a2 2 0 0 0 2 0 2 2 0 0 0 0-1 2 2 0 0 0-1 0m7 4c1 0 2-1 1-2l-1 1zM633 443a4 4 0 0 1 0 2 4 4 0 0 1-1 1c-2 2-5 3-7 2a6 6 0 0 1-1-3l-5-10c-1-2-4-2-7-2-2 0-5 0-7-2s-1-6 2-7a44 44 0 0 0 17-7 6 6 0 0 1 8 0 4 4 0 0 1 0 1c1 2 0 4-2 5s-3 3-3 5l1 4a40 40 0 0 1 5 11m-3-3h-2a4 4 0 0 0 0 3l2 1v-4m-2-20a2 2 0 0 0-3 1 6 6 0 0 0 2 1 2 2 0 0 0 2-2l-1-1m-3 19a1 1 0 0 0-2 1 1 1 0 0 0 2-1m1-5l-1 2 1-2zM774 337a16 16 0 0 1-5 3 10 10 0 0 1-13-12l5-7c1-2 4-3 6-2l9 4a7 7 0 0 1 2 7 15 15 0 0 1-4 7m-6-6a4 4 0 0 0-1-6 22 22 0 0 0-1 9 2 2 0 1 0 2-3m-10-1v1a2 2 0 0 0 1 1 2 2 0 0 0 1-2 2 2 0 0 0-2 0m15-2v2a2 2 0 0 0 2 0 2 2 0 0 0 0-2 2 2 0 0 0-1 0m-8-5v2a2 2 0 0 0 1-1l-1-1z"
	/>
	<path
		d="M462 96h-5a3 3 0 0 1-2 0 2 2 0 0 1 0-2 4 4 0 0 1 2-2c7-3 16 0 22 3a61 61 0 0 1 33 47c-5-11-10-22-18-31s-20-16-32-15zM215 105c12 15 25 30 43 37 2 1 5 3 4 5s-4 1-6 0c-13-6-24-16-34-27-4-4-7-9-7-15zM809 368l6 15a6 6 0 0 1 1 2 4 4 0 0 1-3 3 6 6 0 0 1-4-1c-3-2-5-6-6-10l-4-10a5 5 0 0 1 0-2c0-3 3-3 6-2a7 7 0 0 1 2 1 9 9 0 0 1 2 4zM466 177a39 39 0 0 0-3-8c-4-13-12-24-20-34-1-2-3-4-3-7l8 6a116 116 0 0 1 14 22c4 9 8 19 6 29-2-2-2-5-2-8zM327 132c1 1 3 3 3 5s-3 4-5 2a155 155 0 0 0-38-36c0-2 2-2 3-1 15 6 26 18 37 30zM448 97c-2 0-2-2-2-3l2-4a11 11 0 0 0 1-5 78 78 0 0 0-12-37l-2-5c6 6 11 13 14 22a94 94 0 0 1 3 10c2 7 3 15-2 21l-2 1zM416 104c1-4 0-8-1-11l-8-22v-6a155 155 0 0 1 13 28c1 4 3 10 1 15-1 1-2 3-4 2a3 3 0 0 1-1-3 17 17 0 0 1 0-3zM586 388a3 3 0 0 1-2-1c-3-4-5-10-6-15 0-2-1-5 1-6 1-2 4-1 5 0l4 6c2 4 3 10 1 14-1 1-2 3-3 2m1-5a2 2 0 0 0-2-2v4c1 1 3-1 2-2m-4-7a2 2 0 0 0 1 0c1-1 0-2-1-2a2 2 0 0 0 0 2zM485 181a46 46 0 0 1-2-16l1-2a30 30 0 0 1 1 18zM393 20a11 11 0 0 1 3 5l-3-3v-2zM227 57a12 12 0 0 1 4-3 3 3 0 0 1-4 3zM321 560a2 2 0 0 1-2 3 3 3 0 0 1 2-3zM878 411a5 5 0 0 1-2-3 9 9 0 0 1 3 3h-1zM538 294a5 5 0 0 1 3 3 4 4 0 0 1-3-3zM322 489a2 2 0 0 1-1 1l-1-2a1 1 0 1 1 2 1zM684 587l1-2a3 3 0 0 1-1 3 2 2 0 0 1 0-1zM540 288a3 3 0 0 1-2-2 3 3 0 0 1 2 0 1 1 0 0 1 0 2zM850 303v1l-2-2a1 1 0 0 1 2 1zM858 425a1 1 0 0 1-1 2 5 5 0 0 1-1-3l2 1zM495 153l-2-1 3-1a3 3 0 0 1-1 2zM435 472a2 2 0 0 1 0-2 5 5 0 0 1 1 3c-1 1-1 0-1-1zM311 467a1 1 0 0 1 2 1 4 4 0 0 1-3 1l1-2zM447 32a2 2 0 0 1 2-1 9 9 0 0 1-2 3 1 1 0 0 1 0-2zM178 195a5 5 0 0 1-1-4 6 6 0 0 1 2 4zM786 300a2 2 0 0 1 3 0 4 4 0 0 1-3 1h-1l1-1zM895 283v3-3zM637 381a2 2 0 0 1 0-3v3zM766 280a2 2 0 0 1 3-1 2 2 0 0 1-3 1zM271 568l1-1v1l-1 3a2 2 0 0 1 0-3zM773 408a7 7 0 0 1-4 0 14 14 0 0 1 4 0zM866 405l1 3a3 3 0 0 1-2-3l1-1v1zM226 414v-3 3zM466 595a1 1 0 0 1-1-2l2 2a1 1 0 0 1-1 0zM637 451l1-1a1 1 0 1 1-1 1z"
	/>
	<path
		d="M445 80c0 4 0 9-4 11-1 1-2 0-2-1a7 7 0 0 1 0-4c2-10-2-20-7-29 1-1 2 0 3 1a44 44 0 0 1 10 22zM521 81h-1a2 2 0 0 1 0-1c1-1 1 1 1 1zM520 204v1a4 4 0 0 1-2-1 2 2 0 0 1 2 0zM517 186l2 1a9 9 0 0 1-3 0 2 2 0 0 1 1-1zM691 454v-1c1-1-1-1-1-1 1 0 2 1 1 2zM868 420a6 6 0 0 1-4-6 5 5 0 0 1 4-4 7 7 0 0 1 4 2 6 6 0 0 1 3 3c0 3-4 6-7 5zM667 449h1l-1 2a1 1 0 0 1 0-2zM458 121a2 2 0 0 1-2 1 2 2 0 0 1 2-1zM232 117v1l-2-1a1 1 0 0 1 2 0zM316 105a1 1 0 0 1-1 2 2 2 0 0 1 1-2zM347 394l-1-2 1 2zM576 355a2 2 0 0 1 0-2l1 3c-1 0-2 0-1-1zM277 369l2 1a1 1 0 0 1-2-1zM773 513a1 1 0 0 1-1 1 1 1 0 0 1 1-2zM623 331l-1 1v-1l1-2v2zM475 335a3 3 0 0 1 2-1 1 1 0 0 1-2 1zM747 303v-1a2 2 0 0 1 1 0 2 2 0 0 1-1 1zM547 488a3 3 0 0 1-2-1 1 1 0 0 1 2 0zM166 146l2-1a1 1 0 0 1-2 1zM467 358a1 1 0 0 1-1 0l1-1v1zM407 125a3 3 0 0 1 0-1c3-12-1-24-5-35l1-2a50 50 0 0 1 9 36 5 5 0 0 1-2 3c-1 1-3 1-3-1zM268 538a1 1 0 0 1 0 1l-1-1h1zM552 486h-1l1-1a2 2 0 0 1 0 1z"
	/>
	<path
		d="M482 291a31 31 0 0 1-3 16l-4-18c1 9-3 22-12 20l-4-11a21 21 0 0 1-4 18c-6-20 7-43 2-63-2-9-7-17-10-25s-4-18 1-25a217 217 0 0 1 17 90c5-2 7-10 3-13a24 24 0 0 0 8-11l6 15c1-15 21-26 34-18a209 209 0 0 0 6-110c-2-8-4-15-1-22a87 87 0 0 0-24-36l19 10a48 48 0 0 0-43-19l-3-19a33 33 0 0 1-5 17c0-29-27-55-56-55 24-5 51 9 61 31 4 8 7 19 16 21 25 4 43 27 50 51s5 50 3 76l-7-27a167 167 0 0 1-13 85c12 17 11 42-2 58-5 6-12 11-14 18-2 6 0 12-2 18s-6 12-12 10l-4-14a326 326 0 0 1-140 121c16 23 33 47 31 74 5 1 9-3 10-8l1-13c1-12 11-21 20-29l98-86-22-29c-4-4 4-10 9-7s6 8 8 13 6 11 12 10c10-1 18 8 24 17 6 10 11 22 10 34s-6 25-17 30q67 19 132 44c12 5 25 10 35 20s16 24 11 36c2-2 1-6-2-6s-5 4-3 7c-5-2-5-9-5-15-2-18-22-28-40-34l-114-40c-8-3-18-5-25 0l-83 60c-8 5-19 2-25-5s-9-15-12-24a87 87 0 0 1-24 57c-4 3-13 4-11-1a102 102 0 0 1 18-21c-10 1-15-11-16-21s-1-22-9-28a40 40 0 0 0 6 42c-8 2-16-6-15-13a27 27 0 0 0-20 19c-16-17-9-49 13-57 7-2 7-13 3-18s-13-8-20-8-15 1-22 0c-15-3-25-16-34-28-20-28-41-56-54-88s-18-69-6-101a20 20 0 0 1-21-14c-1-5 4-9 8-7a67 67 0 0 1 8-64c-16 2-32-13-33-29 5 14 20 25 35 25-17-7-29-24-29-42s11-37 27-44c-16 9-19 32-10 48s28 24 46 28a67 67 0 0 1-56-16 47 47 0 0 0 40 20 12 12 0 0 1-15-3c9 20-15 43-8 64 3 10 16 17 27 14a23 23 0 0 1 12 16l-21 3c-6 22-11 44-7 66 3 15 10 29 17 42a718 718 0 0 0 46 74c7 11 15 21 27 26 9 4 19 4 29 2 46-8 83-43 115-77 16-16 33-34 36-57h3c24-3 42-32 33-55-3-7-10-14-16-11-9 4-9 20-18 19m-53 123a4 4 0 0 0 5-4c-1-1-3 0-3 1-2 2-5 4-5 7a2 2 0 0 0 3-1 6 6 0 0 0 0-3m94 7l-2-2a3 3 0 0 0-2 1 202 202 0 0 0-30 26c0-3-1-7-4-7a12 12 0 0 1 1 6c0 2-2 4-4 4-1 3-4 5-7 7l-70 62v5l16 29 2 1c3-4 8-7 13-9 13-6 25-15 37-24a428 428 0 0 0 58-52c4-3 7-8 6-13a136 136 0 0 0-14-34m-35-76l-1 12a13 13 0 0 1 7 2 11 11 0 0 1 1-8c1-3 4-5 3-8a2 2 0 0 0-2-1l-6 1a2 2 0 0 0-1 0 2 2 0 0 0-1 2M330 542a2 2 0 0 0 0-2c-1-3 1-7 3-11l7-9a4 4 0 0 0 1-3l-2-1-10 11c-3 4-4 9-2 13 0 2 2 3 3 2M183 130c-1-2-1-6-3-6a26 26 0 0 0 12 26c0-3-2-5-3-7-3-4-6-8-6-13m348 13a40 40 0 0 0-2-15 6 6 0 0 0-2-2 2 2 0 0 0-3-1l4 17a4 4 0 0 0 3 1m-32 284a7 7 0 0 0-4 2c-2 2-3 4-2 6a2 2 0 0 0 3 2v-3l1-3 3-1c0-1 1-3-1-3m-26-56a5 5 0 0 0 3 1 12 12 0 0 0-1-7 3 3 0 0 0-1 3 6 6 0 0 0-5 8 3 3 0 0 0 2 0l2-5M203 152a11 11 0 0 0 8 8 21 21 0 0 0 3 0l-2-3-9-5m302 113a21 21 0 0 0-10 2 1 1 0 0 0 0 1 14 14 0 0 0 6 1c2 0 4-2 4-4M220 365a7 7 0 0 0 1 9h1a9 9 0 0 0-2-9m300-247a4 4 0 0 0 3 4 11 11 0 0 0-4-10 5 5 0 0 0 1 6m-95 380a17 17 0 0 0 1-5 10 10 0 0 0-8 6 10 10 0 0 0 5-4v3a2 2 0 0 0 2 0m187 21v-3a9 9 0 0 0-7-3c-1 1 1 2 2 2l3 2 2 2m-148 13c1-1-1-2-2-1l-2 2-2 3c3 1 5-1 6-4m-207-99a4 4 0 0 0 3 5 12 12 0 0 0-2-11v6m-28-176c0 2 2 1 4 1 1-1 2-2 1-3a4 4 0 0 0-5 0 2 2 0 0 0 0 2m-25 57a2 2 0 0 0 1 0 5 5 0 0 0 1-4 3 3 0 0 0-4-2c-1 0-2 2-1 3a2 2 0 0 0 3 1 3 3 0 0 1 0 2m252 74a11 11 0 0 0 6-4 4 4 0 0 0 1-2c-1-1-3 0-4 1l-3 3v2m-182 67a4 4 0 0 0-2-5l-1 4a5 5 0 0 0 1 2 2 2 0 0 0 2 1v-2m105 2l3 1a4 4 0 0 0 1 1c2 0 1-3 2-4a6 6 0 0 0-5 0l-1 2m90 74v-4a2 2 0 0 0-2 0 3 3 0 0 0-2 2 5 5 0 0 0 3 5 3 3 0 0 0 1-3m21-193a2 2 0 0 0 0 2 4 4 0 0 0 5-3 6 6 0 0 0-5 1m-234 88a3 3 0 0 0 0-1 3 3 0 0 0-6 2 3 3 0 0 1 4 0l2-1m443 145a4 4 0 0 0 0 3l1 1 4-7a6 6 0 0 0-5 3M508 331h3a6 6 0 0 0 3-6h-2l-3 3-1 3M405 443a3 3 0 0 0 2-3 2 2 0 0 0-3-2v3a4 4 0 0 0-3 3 5 5 0 0 0 4-1m75 77a2 2 0 0 0-1 2 4 4 0 0 0 4-6 6 6 0 0 0-3 4M215 362a3 3 0 0 0 0-2h2a1 1 0 0 0 0-2 1 1 0 0 0-2 1 5 5 0 0 0-3-3 34 34 0 0 0 2 6 1 1 0 0 0 1 0m470 185a2 2 0 0 0 0 2h2a5 5 0 0 0-3-6 3 3 0 0 0 1 4M210 268l-1-4a6 6 0 0 0-2 4c0 2 2 3 3 2v-2m251 199a11 11 0 0 0-3-5 3 3 0 1 0 2 5m43-63a2 2 0 0 0 2 1 5 5 0 0 0-6-4 1 1 0 0 0 0 2l4 1m-35-26v-4a2 2 0 0 0-1 0 5 5 0 0 0-1 6 2 2 0 0 0 2-2m41-110a2 2 0 0 0-1-1 1 1 0 0 0-1 2 3 3 0 0 0 2 1 11 11 0 0 0 4 1 2 2 0 0 0 0-2l-4-1M267 448a4 4 0 0 0 2 5 3 3 0 0 0-2-5m-36-61v3a3 3 0 0 0 2 1 28 28 0 0 0 0-4 2 2 0 0 0 0-1 1 1 0 1 0-2 1m224 151v2a2 2 0 0 0 1 0 7 7 0 0 0 2-2 2 2 0 0 0-2-3 3 3 0 0 0-2 3m20-255a2 2 0 0 0 1 3 5 5 0 0 0 0-6 4 4 0 0 0-1 3m106 223a1 1 0 0 0 1 1 12 12 0 0 0 5 2 6 6 0 0 0-4-4l-2 1m-113-47c2 1 3 0 4-2a3 3 0 0 0 0-3 5 5 0 0 0-4 5m39 41c-1 1-2 3 0 4a2 2 0 0 0 2-1 5 5 0 0 0 1-2l-2-1m2-77a3 3 0 0 0-4 0 2 2 0 0 0 4 0m145 110a5 5 0 0 0 3 2l2-2a2 2 0 0 0-1-1 4 4 0 0 0-4 0m-58-21a7 7 0 0 0 4 1c1-1 0-2-1-3a6 6 0 0 0-4 0 1 1 0 0 0 1 2m99 41c0-1 0-2-2-3s-3 0-2 1c0 2 2 1 3 2M473 449a3 3 0 0 0 1 4l2-3c0-1-2-3-3-2m-28 29h1a5 5 0 0 0 2-2 2 2 0 1 0-3-2 5 5 0 0 0 0 3m-4 4c-1 0-3 1-2 2s2 1 3 0a6 6 0 0 0 1-3h-1a2 2 0 0 1-1 1m25-19a2 2 0 0 0 0-2h-5a3 3 0 0 0 5 2m33-57v3a4 4 0 0 0 3 1 3 3 0 0 0-3-4M197 208a2 2 0 0 0 0-3 4 4 0 0 0-2 4 1 1 0 0 0 3 0m28 172a1 1 0 0 0 2 0 6 6 0 0 0 0-3 2 2 0 0 0-3-1 4 4 0 0 0 1 4m183 54a2 2 0 1 0 0 3 2 2 0 0 0 0-3m74 10a8 8 0 0 0 1-3 2 2 0 0 0-2 1 6 6 0 0 0-1 3 1 1 0 0 0 2 0m42-147a3 3 0 0 0-2-3v4c1 1 3 0 2-1m-302-44v3a5 5 0 0 0 4 0c0-2-2-3-4-3m263 25a2 2 0 0 0-2 2 2 2 0 0 0 3 1 2 2 0 0 0 0-3m7 231a2 2 0 0 0 2-2 2 2 0 0 0-3-1 2 2 0 0 0 1 3M243 403l-4-1a2 2 0 1 0 4 1m151 43a5 5 0 0 0-4 3 2 2 0 0 0 4-2m136 27a4 4 0 0 0-2 3 4 4 0 0 0 2 0 2 2 0 0 0 0-3m-11-194a2 2 0 0 0 3 1 3 3 0 0 0-3-4 1 1 0 0 0 0 3M280 464a2 2 0 0 0 2 2 7 7 0 0 0 1-4 2 2 0 0 0-3 2m-70-187v-2a3 3 0 0 0-4 3 6 6 0 0 0 4-1m306 43a2 2 0 1 0 0 3v-3m-85 96c-1 1-2 3-1 4a2 2 0 0 0 2-1 5 5 0 0 0 0-3h-1m105 17c-1 1 0 2 1 2a2 2 0 0 0 1-3 4 4 0 0 0-2-1 2 2 0 0 0 0 2m-53-90a3 3 0 0 0 2 4 3 3 0 0 0-2-4m165 185a3 3 0 0 0 2 4 5 5 0 0 0 0-3c-1-1-2-2-3-1m-304 7a2 2 0 0 0-2-3 5 5 0 0 0 0 4 1 1 0 0 0 2-1m186-308l1-3a2 2 0 0 0-2 0 12 12 0 0 0-1 5 1 1 0 0 0 2-1 3 3 0 0 0 0-1M355 550v-3a2 2 0 0 0-2 0l-1 4a2 2 0 0 0 2 1v-2m175-347v4a2 2 0 0 0 2 1v-5a1 1 0 0 0-2 0m-323 84a2 2 0 1 0 1 3 2 2 0 0 0-1-3m462 248h-1a3 3 0 0 0 0 3 2 2 0 0 0 1 1l1-2a4 4 0 0 0-1-2M480 366a9 9 0 0 0 0-4 2 2 0 0 0-1 0 5 5 0 0 0 0 5m-3 80v2a3 3 0 0 0 2 1 8 8 0 0 0 1-4 2 2 0 0 0-3 1M373 554a2 2 0 1 0-3 2 2 2 0 0 0 3-2M209 286c1 0 2-3 0-3s-2 2-2 3a1 1 0 0 0 2 0m356 217c1 1 2 0 1-1a4 4 0 0 0-2-1l-2 1 3 1m-37-348a3 3 0 0 0 2 2 5 5 0 0 0 0-2l-2-2v2M277 459v2c1 0 3 0 3-2a2 2 0 0 0-3 0m-67-115a2 2 0 0 0-2-3 2 2 0 0 0 2 4m324 128a2 2 0 0 0 2-2 2 2 0 0 0-4 1 4 4 0 0 0 2 1m-13-163a2 2 0 0 0 0 2 5 5 0 0 0 2 2c1-1 0-4-1-4m-313 23a2 2 0 0 0-2 1v3a1 1 0 0 0 2 0v-4m282-56a2 2 0 0 0-2 2h3s0-3-1-2m79 225h-2a2 2 0 0 0-1 1 11 11 0 0 0 4 0 1 1 0 0 0-1-1m-63-93a2 2 0 0 0 2 3c1-1 0-4-2-4m-69 2a2 2 0 1 0 0 3 3 3 0 0 0 0-3m99 39a4 4 0 0 0 4 1 2 2 0 0 0-4-2v1m-2-273c-1 1 1 3 3 3a2 2 0 0 0-3-3m-7 303a6 6 0 0 0 1 3h1a2 2 0 0 0-2-3M202 326a2 2 0 0 0 2 3 4 4 0 0 0 0-3h-2m251 63a1 1 0 0 0 1 0l1-3c-1-1-3 1-2 2m-216 10c-2 1-1 4 1 4a4 4 0 0 0-1-4m309 63a2 2 0 0 0-2-3 2 2 0 0 0 2 3M206 295v-2a3 3 0 0 0-2 0c-1 1 1 3 2 2m224 258l-2-2a3 3 0 0 0-1 3 2 2 0 0 0 3-1m101-343l-2-1a5 5 0 0 0 0 4 1 1 0 0 0 2-1 4 4 0 0 0-1-2m-7 42a5 5 0 0 0 2-4c-2 0-3 3-2 4m-84 154l-1-1-2 2a2 2 0 0 0 2 1l1-2m83-118a1 1 0 1 0 0 3 2 2 0 0 0 0-3m-89 202a1 1 0 1 0 0-2 1 1 0 0 0 0 2m-23 58a2 2 0 0 0 2 3c1-2 0-4-2-3m232-18a2 2 0 0 0 1 2 2 2 0 0 0 1-3 1 1 0 0 0-2 1m-379-88v-3c-1-1-3 1-2 3a1 1 0 0 0 2 0m-60-124a2 2 0 0 0-1-4 2 2 0 0 0 1 4m255-79c1-1-1-2-2 0s1 2 2 2l1-2m175 286l1 2 2-2a2 2 0 0 0-3 0M500 343h2v-3c-1-1-3 1-2 2m-291 4l-1-1a2 2 0 0 0-1 2 2 2 0 0 0 2 1 2 2 0 0 0 0-2m252 35v-2a2 2 0 0 0-2 2 1 1 0 0 0 2 0m-254-87a2 2 0 0 0 0 2 2 2 0 0 0 2-2 1 1 0 0 0-2 0m157 225a4 4 0 0 0-1 3 1 1 0 1 0 1-2m254 1a2 2 0 0 0 1-2 3 3 0 0 0-2 0c-1 1 0 2 1 2M208 330v-2a2 2 0 0 0-2-1 5 5 0 0 0 0 3 1 1 0 0 0 1 0m-12-102v-2a3 3 0 0 0-2 0c-1 1 1 3 2 2m326 89a2 2 0 0 0 1-2 2 2 0 0 0-2 2l1 1m-2-3v-2a2 2 0 0 0-2 2 1 1 0 0 0 2-1M364 465a2 2 0 0 0 2 1 1 1 0 1 0-2-1M211 262v2a2 2 0 0 0 2-3 1 1 0 0 0-2 1m216 161a2 2 0 0 0-3-1v1a2 2 0 0 0 3 0m47 105c2 0 2-2 1-2s-2 2-1 2m159-2a2 2 0 0 0-2-1 1 1 0 0 0 1 2 1 1 0 0 0 1-1M246 412a1 1 0 1 0 0-2 1 1 0 0 0 0 2m106 59v-2a2 2 0 0 0-1 0 3 3 0 0 0 0 2 2 2 0 0 0 1 0m170-165v-2a2 2 0 0 0-1 0 3 3 0 0 0 0 2 2 2 0 0 0 1 0m-8-32l1-2a1 1 0 1 0-1 2m-3 221h-1a4 4 0 0 0-1 2c1 1 3-1 2-1m-23 20a2 2 0 0 0-2-2 1 1 0 1 0 2 2m-59-25l1-3a1 1 0 1 0-1 2m-137-19v1a2 2 0 0 0 2 1 3 3 0 0 0 0-2 1 1 0 0 0-2 0m174-178v2a2 2 0 0 0 1 0 3 3 0 0 0 0-2 1 1 0 0 0-1 0m-9 89l-2 1a2 2 0 0 0 2 1 1 1 0 0 0 0-2M199 196h2a4 4 0 0 0 0-2c-1-1-2 1-1 1m319 299a2 2 0 0 0-2-2 3 3 0 0 0 0 2 2 2 0 0 0 2 0m-1-4a1 1 0 0 0-2-1 1 1 0 1 0 1 1M192 212v2a1 1 0 0 0 2-2 1 1 0 0 0-2 0m297 126a2 2 0 0 0-2 2l2-2m208 220l-1-2a1 1 0 0 0-1 2h2M378 458l-2-1a2 2 0 0 0 0 2 3 3 0 0 0 2 0 1 1 0 0 0 0-1m161-288a1 1 0 0 0 0-2h-2a1 1 0 0 0 0 2h2m-45 102a1 1 0 0 0-1 0 1 1 0 1 0 1 0m-33 191v2a2 2 0 0 0 1 0 2 2 0 0 0 1-1 2 2 0 0 0-2-1m55-52h2a2 2 0 0 0 0-1 2 2 0 0 0-1 0 2 2 0 0 0-1 1m1 4v2a2 2 0 0 0 2 0 2 2 0 0 0 0-1 2 2 0 0 0-2-1m-304-62a2 2 0 0 0 0-2 2 2 0 0 0-2 0l2 2m314 65a1 1 0 0 0 0 1 1 1 0 1 0 0-1m-318-70h-2a2 2 0 0 0 0 2 2 2 0 0 0 2 0 2 2 0 0 0 0-2m143 194v-1a2 2 0 0 0-1 0 2 2 0 0 0 0 1 2 2 0 0 0 1 0m151-115a1 1 0 0 0 1-1 1 1 0 1 0-1 1m53 71l2 1a2 2 0 0 0 0-2 2 2 0 0 0-2 0 2 2 0 0 0 0 1m-216 13a1 1 0 0 0 1 0 1 1 0 1 0-1 0M214 252a1 1 0 0 0 0 2 1 1 0 1 0 0-2m15 1a1 1 0 0 0 0-1 1 1 0 1 0 0 1m311 214l-1-1a1 1 0 1 0 1 1m-51-29l1-2a2 2 0 0 0-2 1l1 1m-156 82v-2c-1 1 0 2 1 2m115-302a1 1 0 0 0 2 1 2 2 0 0 0 0-1h-2m-17 332a1 1 0 0 0 0 1 1 1 0 0 0 1 0 1 1 0 0 0-1-2m-39-12a1 1 0 0 0-2-1 1 1 0 1 0 2 1m12-3c0-1-1-2-2-1a1 1 0 0 0 2 0M201 190c-1 1 1 2 1 1 1-1 0-1-1-1m338 9h-2a1 1 0 0 0 2 0M390 544a1 1 0 0 0 2 0h-2m127-271l1-1c0-1-2 0-1 1m-299-16c1-1-1-2-1-1a1 1 0 0 0 1 1m107 294h-2a1 1 0 0 0 2 0m93-122l-2-1a1 1 0 0 0 2 1m12 63c-1 0-2 0-1 1 0 1 2 0 1-1m88-173c1-1-1-1-2-1a1 1 0 0 0 2 1m-312 1a1 1 0 0 0-1-1 1 1 0 0 0 1 1m385 191a1 1 0 0 0 2 0 1 1 0 0 0-2 0z"
	/>
</svg>
