<svg xmlns="http://www.w3.org/2000/svg" viewBox="0 0 950 640">
	<path
		d="M433 119a4 4 0 0 1 1 3 7 7 0 0 1-3 2 4 4 0 0 1 2-4zM226 328l2 1a3 3 0 0 1-2 2v-3zM379 206c6-8 17-10 27-11 7-1 15-2 22 0s14 7 15 14a33 33 0 0 1 35 2c3-3-2-8 0-13l5-4a72 72 0 0 1 58 5c8 5 17 0 26-2s21 1 22 10l-27 2c-4 0-9 1-13 3s-7 7-5 12c2 6-1 13-6 18s-12 6-18 6a40 40 0 0 1-20-4c-7-4-13-10-19-16s-12-11-20-12-17 3-19 10c-3 12-13 21-25 22s-23-2-32-11c-8-8-13-21-6-31m23 17a2 2 0 1 1-1 0m10-3a4 4 0 0 0 5-1 4 4 0 0 0-5 1m102-16a1 1 0 1 0-1 3 1 1 0 0 0 1-3m-104-2c-2 0-1 3 1 3a2 2 0 0 0-1-3zM454 158l-6-7-4-6c-1-2 0-5 2-7s6 0 8 2l7 6c2-3-1-5-3-8-2-2-2-5-2-8V99c0-4 7-5 10-2s3 7 3 11v32c0 2 2 5 4 4-1-3 3-6 6-4s4 5 3 8l-6 8c-4 5-10 9-16 7l-6-5m5-2a2 2 0 0 0 4 1c-3 0-3-3-4-5s-4-4-5-2l5 6m14-9a2 2 0 0 0 0 2c1 2 4 2 4 0s-2-3-3-2zM748 367c10-1 23-1 27 8 2 5 9 5 14 4s12-3 16 1c1 2 5 1 7 0l5-6c6-7 17-8 27-9 11-1 25 0 31 10a28 28 0 0 1 3 9c2 11 2 24-7 30-6 5-14 5-22 5-7 0-14 0-20-2s-13-7-15-14a20 20 0 0 0-37 1c-3 10-15 16-25 17-11 0-22-3-29-10s-12-18-10-28c0-4 2-8 4-10 4-3 9-4 13-4l18-2m15 12a3 3 0 0 0 3 3 6 6 0 0 0-1-4c-1-1-2-1-3 1m-3 16c-3 0-4 4-3 6a5 5 0 0 0 3-5m1 12c-2 0-1 3 0 5a3 3 0 0 0 0-5m46-22a4 4 0 0 0-4-1c0 2 3 3 4 1m56 26l2-2a3 3 0 0 0-2-2 3 3 0 0 0 0 4m-42-16c-1 0-3 2-1 2 1 1 1-1 1-2m25-10c1 1 1-1 1-1a2 2 0 0 0-2-1 2 2 0 0 0 1 2m-13 23zM811 472c-3 0-7 1-10-1s-5-4-4-7 5-4 8-4h10c4-1 7-5 11-8s10-4 13 0c2 4-2 9-6 11a59 59 0 0 1-22 9z"
	/>
	<path
		d="M674 399a8 8 0 0 1 11 0c1-21 2-42 11-61 6-11 16-21 25-30s19-18 31-23c25-11 53-4 78 3 21 7 42 14 58 30 14 14 21 33 24 53s0 39-4 59-11 41-24 57c-19 22-49 31-78 28s-55-16-77-34c-20-16-37-38-42-63 0-5-1-9-3-13s-5-7-10-6m39 49c6 9 14 17 23 24 20 16 42 28 67 31s52-4 69-22c14-15 20-37 24-57 6-33 8-71-14-96-13-15-32-22-51-29-14-4-28-9-43-9-23 0-45 10-61 27s-25 37-29 60c-3 24 1 51 15 71m195-43c-2-1-1-3-1-5s0-4-2-3a7 7 0 0 0 2 9m-4-46l3 9a12 12 0 0 0-2-11l-2 1m0 60a2 2 0 0 0 3 1 9 9 0 0 0-2-8l-1 7m-20-100l-2-2a13 13 0 0 0 5 7 6 6 0 0 0-3-5m24 54a2 2 0 0 0 1 3 4 4 0 0 0 1-2l-2-1m-9 72c1 1 3-2 1-3a3 3 0 0 0-1 3m-205-35a2 2 0 0 0 1 4 3 3 0 0 0-1-5m189 74a2 2 0 0 0 1-2 2 2 0 0 0-2 1l1 1m-172-33a4 4 0 0 0-3-2 4 4 0 0 0 1 3l3-1m157-140a3 3 0 0 0 2-1l-2-1v2m35 118a2 2 0 0 0 1 3 2 2 0 0 0-1-3m-16 41a3 3 0 0 0 2 3c1-1 0-4-2-3zM105 304c18-6 38-5 57-1 10 2 20 4 29 9 21 9 38 28 47 49s10 47 3 69c-7 30-29 57-58 66-16 5-33 5-49 3-23-3-47-9-64-24-23-19-34-49-32-78a115 115 0 0 1 67-93m65 184c32-6 56-36 62-69 6-31-4-67-30-87-8-6-19-11-29-14-18-6-38-8-57-4s-36 14-47 29c-10 13-14 29-18 45-2 12-4 24-2 35 3 21 18 39 35 50s40 16 60 17c9 0 18 0 26-2m70-107a4 4 0 0 0-1 6l1-5m-13-32c0-2-2-3-3-2a2 2 0 0 0 3 2m10 79c0-1-1-3-2-2-1 0 1 3 2 2m0-50c1 1 3-2 1-3l-1 3m-34-52a2 2 0 0 0 3 0c0-1-3-2-3 0zM395 445a2 2 0 0 1 0 3 2 2 0 0 1 0-3z"
	/>
	<path
		d="M453 278c4-5 1-12 1-18s5-14 10-11c3 2 3 6 3 10v20c1-5 10-5 12-1 3 9-12 12-14 21 26 0 52 8 73 24s36 39 39 65c6 40-19 81-54 99s-81 15-116-5c-11-6-22-15-29-26a78 78 0 0 1-10-25 113 113 0 0 1 82-136c-3-3-7-7-7-12s6-9 10-5m59 202c29-12 50-41 53-72s-13-63-39-80a162 162 0 0 0-85-21c-8 1-15 5-21 10a113 113 0 0 0-44 87 85 85 0 0 0 3 25c6 20 21 36 39 46s39 13 60 12a107 107 0 0 0 34-7m-138-47l-3-18a19 19 0 0 0 3 18m193-15l1 5c2-1 2-5 0-6M453 292l2 3c1-2-1-5-2-4m-79 84a1 1 0 0 0 1 2c2-1 0-3-1-2m188-19l-2-2c-1 1 1 4 2 2m2 12l2-1-1-2-1 3z"
	/>
	<path
		d="M413 402c-2-1-5-4-4-7a7 7 0 0 1 3-4c3-2 8-2 11 0s3 8 0 11c-2 2-7 2-10 0zM515 402a6 6 0 0 1-2-2c-1-3 0-5 2-7a11 11 0 0 1 4-5c6-2 13 4 11 10s-10 8-15 4zM501 437c3-1 8-1 11 2s2 8-2 8l-66 4c-5 0-11-1-12-6 2-4 8-5 12-5zM165 441h7c2 1 4 4 4 6-1 4-6 5-9 5l-44 1-8-1c-2-1-4-4-2-7a6 6 0 0 1 3-2l10-1zM179 390a9 9 0 1 1 2 12 9 9 0 0 1-2-12zM82 395a8 8 0 0 1 0-3c1-5 8-8 13-5s4 11-1 14c-4 3-12-1-12-6z"
	/>
</svg>
