<svg xmlns="http://www.w3.org/2000/svg" xmlns:xlink="http://www.w3.org/1999/xlink" width="950" height="640" viewBox="0 0 950 640"><defs><clipPath id="b"><rect width="950" height="640"/></clipPath></defs><g id="a" clip-path="url(#b)"><g transform="translate(38 95)"><path d="M391.934,24.2a3.769,3.769,0,0,1,1.488,2.5,7.024,7.024,0,0,1-3.593,2.608,3.653,3.653,0,0,1,2.192-4.843Z" transform="translate(2.829 0.176)"/><path d="M187.035,231.221c.744-.357,1.512.718,1.229,1.494a3.19,3.19,0,0,1-1.852,1.54l-.166-3.013Z" transform="translate(1.353 1.679)"/><path d="M338.443,110.469c5.636-8.366,16.9-10.331,26.911-11.563,7.336-.9,14.886-1.793,22.029.107s13.873,7.279,15.079,14.571a33.488,33.488,0,0,1,35.424,1.814c2.593-3.488-2.115-8.542-.568-12.6.853-2.239,3.314-3.363,5.579-4.144a72.1,72.1,0,0,1,57.472,4.919c7.936,4.365,17.537-.1,26.31-2.348s21.271.615,21.482,9.67l-26.273,2.133c-4.655.378-9.5.815-13.493,3.238s-6.806,7.477-5.126,11.834c2.4,6.226-.408,13.623-5.491,17.945s-11.966,5.984-18.635,6.186a40.023,40.023,0,0,1-19.775-4.17c-7.142-3.746-12.612-9.945-18.382-15.578s-12.4-11.012-20.356-12.355-17.331,2.813-19.213,10.655c-2.725,11.359-13.173,20.114-24.707,21.96s-23.633-2.746-31.951-10.949c-8.232-8.119-12.776-21.732-6.316-31.322m22.731,17.07a2.483,2.483,0,1,1-.113-.028m9.413-3.371a3.545,3.545,0,0,0,5.124-1.286,3.689,3.689,0,0,0-4.911,1.064m101.86-15.266a1.307,1.307,0,1,0-.689,2.318,1.216,1.216,0,0,0,.512-2.168M368.153,106.33c-1.564.45-.472,3.453,1.016,2.793a1.77,1.77,0,0,0-1.088-2.656Z" transform="translate(2.436 0.689)"/><path d="M413.313,63.162l-6.421-7.268c-1.632-1.847-3.307-3.77-4.042-6.123s-.266-5.27,1.753-6.684c2.529-1.771,6.1-.434,8.443,1.581s4.189,4.687,6.957,6.055c1.829-2.228-1.35-4.972-2.955-7.366-1.525-2.275-1.6-5.19-1.622-7.928q-.13-15.672-.26-31.344c-.034-4.157,6.471-5.406,9.452-2.509s3.238,7.519,3.306,11.675q.256,15.863.512,31.726c.036,2.229,1.453,5.376,3.43,4.346-1.05-3.076,3.247-5.96,6.159-4.516s3.8,5.394,2.826,8.494-3.333,5.54-5.613,7.857c-4.274,4.344-10.035,9.068-15.766,6.995-2.512-.909-4.39-2.987-6.159-4.989m5.124-2.531a1.979,1.979,0,0,0,3.261,1.227c-2.192-.089-2.849-2.927-3.53-5.012s-3.791-3.926-4.694-1.926l4.467,5.78m14.227-9.075a1.607,1.607,0,0,0-.035,2.348c.461,1.867,3.753,1.868,4.215,0s-2.449-3.4-3.728-1.967Z" transform="translate(2.923 0)"/><path d="M705.6,269.785c10-1.159,22.909-.693,26.569,8.688,1.974,5.059,9.155,4.942,14.377,3.453s11.739-3.114,15.355.937c1.683,1.886,4.867,1.477,6.911-.009s3.359-3.747,5.032-5.643c6.484-7.351,17.353-8.45,27.137-9.044,11.594-.7,25.6-.216,31.56,9.753a27.84,27.84,0,0,1,3.078,9.5c1.912,10.689,1.4,23.456-7.2,30.082-6.211,4.784-14.728,4.827-22.565,4.659-6.745-.145-13.62-.311-19.995-2.521s-12.285-6.839-14.281-13.284a19.555,19.555,0,0,0-37.56.689c-2.818,10.437-14.465,16.209-25.261,16.767-10.408.538-21.152-2.727-28.858-9.744s-12.015-17.894-10.252-28.166c.633-3.688,2.1-7.386,4.934-9.835,3.464-3,8.313-3.651,12.863-4.179l18.157-2.1M720.3,281.826a3.067,3.067,0,0,0,3.294,3.167,5.647,5.647,0,0,0-1.093-3.66c-.895-.945-2.839-.891-3.2.36m-3.524,16.833c-2.417-.254-4.113,3.338-2.379,5.042a4.549,4.549,0,0,0,2.338-4.646m.985,11.782c-1.857.728-.841,3.584.614,4.948a2.773,2.773,0,0,0-.656-4.449m46.283-22.244a3.814,3.814,0,0,0-3.892-1.214c.056,2.009,3.2,2.993,4.389,1.376m55.751,25.72,2.326-1.7a3.092,3.092,0,0,0-2.511-1.682,2.663,2.663,0,0,0-.113,3.115M777.236,298.9c-1.352-.142-2.689,1.782-1.553,2.528,1.08.543,1.664-1.317,1.447-2.506m24.881-9.71c.651.575,1.6-.7,1.077-1.4a2.191,2.191,0,0,0-2.406-.411,1.693,1.693,0,0,0,1.252,1.805M788.83,311.6a1.411,1.411,0,1,1-.085,0Z" transform="translate(4.861 1.946)"/><path d="M767.155,374.233c-3.065.5-6.329.8-9.173-.453s-5.015-4.53-4.012-7.47c1.03-3.017,4.7-4.231,7.887-4.213s6.426.832,9.525.085c4.553-1.1,7.621-5.207,11.366-8.018s10.026-3.872,12.424.151c2.433,4.081-1.506,9.028-5.488,11.62A58.523,58.523,0,0,1,767.155,374.233Z" transform="translate(5.474 2.554)"/><path d="M631.861,302.3a8.242,8.242,0,0,1,10.616.555c.751-20.75,1.694-42.271,11.185-60.738,6.068-11.808,15.305-21.662,24.854-30.885,9.361-9.042,19.378-17.8,31.366-22.865,24.261-10.254,52.06-3.827,77.271,3.8,20.993,6.349,42.562,13.926,58.069,29.436,13.96,13.963,21.681,33.318,24.174,52.905s.094,39.5-3.951,58.826c-4.3,20.538-10.808,41.344-24.508,57.238C822.289,412.2,792,421.752,763.555,419.126s-55.021-16.273-77.085-34.411c-19.958-16.406-37.373-37.9-41.615-63.389-.7-4.215-1.062-8.586-2.946-12.421s-5.8-7.078-10.048-6.607m38.285,49.428c6.418,9.249,14.7,17.063,23.481,24.111,19.441,15.608,42.235,27.983,66.968,31.126s51.532-4.019,68.443-22.339c14.255-15.442,20.141-36.7,24.19-57.325,6.427-32.727,8.162-70.412-13.837-95.48-12.985-14.8-32.105-22.489-50.749-28.812-14.126-4.791-28.677-9.135-43.593-9.149-22.573-.02-44.629,10.271-60.431,26.39s-25.516,37.7-28.927,60.017c-3.763,24.611.262,51.007,14.455,71.462m194.921-43.309c-1.457-.772-.944-2.925-.49-4.51s-.124-4.035-1.74-3.707a6.589,6.589,0,0,0,1.279,9.744m-3.744-46.752,2.908,9.25a12.26,12.26,0,0,0-2-10.7l-1.464,1.307m-.573,59.594a1.856,1.856,0,0,0,2.741,1.059,9.422,9.422,0,0,0-1.336-7.742l-1.724,6.7m-19.5-100.182-2.4-1.877a12.627,12.627,0,0,0,5.662,6.794,5.783,5.783,0,0,0-3.344-4.743m24,53.886a2.267,2.267,0,0,0,1.2,3.416,4.071,4.071,0,0,0,.7-2.754c-.227-.943-1.55-1.6-2.2-.876m-9.1,72.739c1.9.736,3.445-2.761,1.618-3.669a3.4,3.4,0,0,0-1.508,3.491M649.182,313.237a2.451,2.451,0,0,0,.757,3.979,2.764,2.764,0,0,0-.755-4.258m189.692,74.1a1.51,1.51,0,0,0,.6-2.43,2.115,2.115,0,0,0-2.194,1.186c-.264.855.943,1.835,1.54,1.168M666.608,353.973a4.211,4.211,0,0,0-2.931-2.133,4.1,4.1,0,0,0,1.147,2.654c.772.616,2.25.3,2.3-.689m157.19-140.437a3.25,3.25,0,0,0,2.5-.36c-.485-.7-1.114-1.486-1.969-1.465s-1.28,1.538-.434,1.66m34.8,118.664a1.625,1.625,0,0,0,1.374,2.4,1.789,1.789,0,0,0-1.568-2.733M843.89,373.046a2.615,2.615,0,0,0,1.518,2.346c1.372-.751-.267-3.338-1.532-2.419Z" transform="translate(4.589 1.329)"/><path d="M67.1,207.672c18.09-6.609,38.143-4.792,57.035-1.043,9.725,1.93,19.41,4.367,28.465,8.405,21.4,9.547,38.407,28.042,47.261,49.742s9.727,46.353,3.622,68.982c-7.979,29.577-29.255,56.633-58.43,65.977-15.77,5.051-32.77,4.782-49.208,2.78C72.8,399.71,49.4,393.208,31.5,378.419,9.211,360-1.989,329.845.291,301.02s17.206-55.944,38.6-75.4c8.3-7.546,17.675-14.1,28.211-17.95m64.949,184.283c32.213-6.48,55.912-36.863,62.006-69.151,5.986-31.716-4.045-67.457-29.716-87.02-8.769-6.683-18.967-11.306-29.47-14.659-18.213-5.814-37.862-7.911-56.582-4.029s-36.42,14.055-47.654,29.525c-9.514,13.1-13.993,29.148-17.2,45.019-2.351,11.637-4.12,23.614-2.334,35.351,3.156,20.737,17.449,38.716,35.352,49.646s39.086,15.453,60.03,16.6c8.544.469,17.18.4,25.569-1.286m69.449-107.4a4.014,4.014,0,0,0-.38,6.346l1.108-5.54m-13.37-32.292c-.105-1.524-1.939-3.031-3.083-2.018a2.175,2.175,0,0,0,3.05,2.071m9.956,79.534c.246-1.124-.355-2.929-1.338-2.331-1.4.7.235,3.332,1.485,2.392m-.17-50.312c1.34.85,2.94-1.741,1.58-2.558-1.006-.641-1.642,1.239-1.377,2.4m-33.73-51.881a1.545,1.545,0,0,0,2.48.566c.029-1.486-2.8-1.96-2.737-.475Z" transform="translate(0 1.476)"/><path d="M354.833,347.321a1.616,1.616,0,0,1-.839,2.839,1.733,1.733,0,0,1,.936-2.971Z" transform="translate(2.567 2.522)"/><path d="M412.41,181.851c3.815-4.761,1.474-11.662,1.078-17.75s4.914-13.909,10.174-10.82c3.021,1.774,3.372,5.926,3.373,9.429l.005,20.563c.931-5.074,9.655-5.772,11.381-.911,2.876,8.1-11.424,11.94-13.664,20.237,26.081.606,52.251,8.572,73.059,24.307s35.869,39.472,39.26,65.339c5.225,39.855-18.972,80.743-54.814,98.94s-80.724,14.693-115.593-5.3c-11.276-6.466-21.812-14.718-28.968-25.569a78.433,78.433,0,0,1-10.371-25.28A113.311,113.311,0,0,1,410.01,199.09c-3.838-2.926-7.612-6.9-7.524-11.73s6.562-8.972,9.924-5.509m59.68,201.672c28.7-11.988,49.718-40.607,52.573-71.577S512.081,249,486.057,231.966c-18.289-11.969-40.324-16.527-61.85-20.313-7.854-1.381-15.926-2.691-23.753-1.165-7.673,1.5-14.583,5.63-20.814,10.351a113.142,113.142,0,0,0-44.1,87.444,84.694,84.694,0,0,0,3.033,24.533c5.744,19.859,20.635,36.442,38.815,46.284s39.392,13.29,60.026,12.01a107.112,107.112,0,0,0,34.681-7.588m-138-46.714-3.568-17.771a18.686,18.686,0,0,0,3.568,17.771m192.678-14.892q.243,2.726.486,5.452c2.278-1.17,2.21-5.1-.106-6.189M336.764,344.249a5.9,5.9,0,1,1-.231-.289M412.7,195.4l1.9,3c1.345-1.4-.549-4.2-2.349-3.467m-78.576,83.787a1.443,1.443,0,0,0,1.229,2.252c1.393-.732-.191-3.367-1.491-2.481m187.922-18.521-2.031-2.032c-1.13,1.278,1.107,3.525,2.39,2.4m2.385,11.14c.187.864,1.725.383,1.731-.5s-.835-1.519-1.623-1.919l-.455,2.478Z" transform="translate(2.356 1.108)"/><path d="M372.652,305.269c-2.626-1.4-4.913-4.137-4.448-7.075a6.746,6.746,0,0,1,3.14-4.371c3.288-2.159,8.043-2.107,10.943.551s3.178,7.856.234,10.465C379.9,307.163,375.747,306.916,372.652,305.269Z" transform="translate(2.674 2.123)"/><path d="M474.032,305.065a6.425,6.425,0,0,1-2-2.409c-1.037-2.352-.006-5.1,1.395-7.258a11.178,11.178,0,0,1,4.634-4.341c5.454-2.395,12.136,3.971,10.5,9.7S478.734,308.723,474.032,305.065Z" transform="translate(3.425 2.11)"/><path d="M459.891,339.044c3.757-.232,7.946-.325,10.771,2.161s2.16,8.445-1.594,8.711q-32.961,2.338-66,3.366c-4.665.145-10.788-.859-11.508-5.47,1.874-4.152,7.294-5,11.841-5.283Z" transform="translate(2.844 2.462)"/><path d="M126.176,343.087c2.5-.08,5.107-.14,7.384.9s4.1,3.531,3.517,5.965c-.83,3.454-5.3,4.264-8.851,4.372L84.2,355.667c-2.6.079-5.351.125-7.622-1.147s-3.736-4.366-2.347-6.567a5.9,5.9,0,0,1,2.976-2.138c3.242-1.259,6.8-1.385,10.272-1.5Z" transform="translate(0.535 2.491)"/><path d="M140.3,292.426a8.94,8.94,0,1,1,2.181,12.656A9.28,9.28,0,0,1,140.3,292.426Z" transform="translate(1.007 2.098)"/><path d="M43.371,297.641a8.309,8.309,0,0,1,.083-2.35c.969-5.4,8.221-8.478,12.778-5.428s4.474,10.929-.146,13.883c-4.736,3.027-12.116-.516-12.716-6.1Z" transform="translate(0.315 2.096)"/></g></g></svg>