<svg xmlns="http://www.w3.org/2000/svg" xmlns:xlink="http://www.w3.org/1999/xlink" width="950" height="640" viewBox="0 0 950 640"><defs><clipPath id="b"><rect width="950" height="640"/></clipPath></defs><g id="a" clip-path="url(#b)"><g transform="translate(109 20)"><path d="M1189.141,653.242c1.96-1.381,5.028-1.663,6.509.222.889,1.131.951,2.677,1.3,4.073s1.3,2.907,2.743,2.909a13.247,13.247,0,0,1,.96-6.487,5.986,5.986,0,0,1,5.16-3.577c2.441.035,4.492,2.06,5.342,4.348a18.379,18.379,0,0,1,.644,7.242q-.677,15.228-1.355,30.456a3.591,3.591,0,0,1-.592,2.2,2.375,2.375,0,0,1-3,.246,5.582,5.582,0,0,1-1.937-2.6c-4.274-9.712.167-21.068-1.608-31.529-2.664,1.214-2.757,4.861-2.885,7.786s-1.785,6.661-4.667,6.15c-2.119-.376-3.256,2.5-3.042,4.643s.81,4.668-.738,6.163c-1.57,1.517-4.4.654-5.642-1.139s-1.354-4.113-1.419-6.295q-.149-4.993-.3-9.986C1184.451,662.678,1184.727,656.352,1189.141,653.242Z" transform="translate(-418.717 -229.892)"/><path d="M509.867,569.416c-1.043,1.725-2.219,3.563-4.1,4.281s-4.549-.482-4.441-2.494a4.591,4.591,0,0,1,.772-1.993l13.435-23.085a11.83,11.83,0,0,1,3.487-4.271c1.563-1,3.877-1.1,5.1.3L540.369,560.7c.706.805,1.461,1.8,1.188,2.839-.479,1.809-3.172,1.486-4.8.563a23.876,23.876,0,0,1-7.711-6.985c-.942-.139-1.362,1.138-1.408,2.09a237.706,237.706,0,0,0,1.349,39.387c.511,4.336,1.166,8.742,3.09,12.661s5.327,7.339,9.6,8.242c1.634.346,3.443.359,4.755,1.393s1.352,3.659-.289,3.969c-8.731,1.651-17.378-4.746-21.284-12.727s-4.166-17.189-4.351-26.073l-.69-33.087Z" transform="translate(-177.204 -191.265)"/><path d="M97.955,650.53c5.058-1.091,10.3-.066,15.377.957,13.276,2.68,27.16,5.644,37.53,14.355,11.668,9.8,16.969,25.6,17.271,40.832s-3.807,30.182-8.154,44.787c-2.194,7.369-4.509,14.83-8.731,21.255-5.031,7.657-12.493,13.4-20.314,18.176A131.55,131.55,0,0,1,73.5,809.615c-13.509,1.116-27.41.067-39.992-4.976S9.748,790.261,4.224,777.882c-5.462-12.239-5.06-26.4-2-39.445,5.225-22.25,17.938-42.513,35.012-57.707s38.373-25.383,60.715-30.2m-2.5,12.675c1.014,2.145-2.513,3.353-4.882,3.22-18.084-1.014-35.962,6.84-49.425,18.957S18.3,713.576,11.588,730.4c-3.725,9.339-6.725,19.29-5.84,29.306,1.343,15.2,11.864,28.684,25.315,35.883s29.42,8.663,44.532,6.564,29.545-7.552,43.562-13.573c5.446-2.339,10.914-4.807,15.573-8.469,10.629-8.353,15.747-21.766,19.809-34.66,4.37-13.875,8.116-28.325,6.787-42.811s-8.614-29.166-21.521-35.877c-5.755-2.992-12.228-4.247-18.6-5.468l-16.645-3.189c-2.132-.409-4.4-.808-6.426-.041S94.531,661.242,95.459,663.2Z" transform="translate(0 -229.78)"/><path d="M745.732,695.744a67.346,67.346,0,0,0,21.046.252,27.518,27.518,0,0,1-2.641-19.222c.809-3.49,2.521-7.046,5.682-8.734s7.905-.536,8.94,2.894c1.157,3.836-2.486,7.229-5.282,10.1s-4.771,8.214-1.379,10.345c3.327,2.442,6.388,5.852,10.5,6.185,2.321.188,4.582-.668,6.873-1.081s4.966-.251,6.505,1.5.614,5.3-1.714,5.253l-44.191-.82c-2.536-.047-5.4.039-7.121,1.9-.774.839-2.022,2.051-2.733,1.158-2.989-3.752-8.527-3.923-13.322-3.77L589.313,706.1c-2.055.066-4.3.073-5.917-1.192s-1.848-4.316.051-5.1a4.453,4.453,0,0,1,1.618-.237l55.971-1.212c3.683-.08,7.446-.148,10.952.98,2.716-1.138,5.736-1.25,8.679-1.346l70.464-2.3c5.18-.169,8.359-5.9,9.06-11.034s.072-10.627,2.4-15.258c3.236-6.439,13.866-8.365,17.615-2.21,3.548,5.826-1.019,13.227-6.063,17.819-.977.889-2.456,1.779-3.5.968A2.822,2.822,0,0,1,750,683.36a29.043,29.043,0,0,1,4.761-12.954c-2.605-1.716-5.119,2.342-5.642,5.418Z" transform="translate(-205.757 -234.507)"/><path d="M649.819,53.159a1.6,1.6,0,0,0,2.234-.8,4.636,4.636,0,0,0,.125-2.674l-1.7-11.217c-.286-1.894-.407-4.209,1.155-5.317,1.434-1.018,3.563-.287,4.652,1.094a10.486,10.486,0,0,1,1.688,4.935L661.194,59c.236,1.455.423,3.112-.51,4.254-1.478,1.808-4.371.927-6.442-.152a134.486,134.486,0,0,1-16.522-10.191c-1.084-.782-2.722.068-3.232,1.3a6.733,6.733,0,0,0,.042,3.946l2.377,11.122c.4,1.86.678,4.112-.74,5.379-1.333,1.191-3.563.742-4.846-.5a9.956,9.956,0,0,1-2.3-4.77,83.291,83.291,0,0,1-2.615-25.746A5.466,5.466,0,0,1,626.7,41.9c.642-1.6,2.661-2.276,4.356-1.953a11.337,11.337,0,0,1,4.513,2.435l14.249,10.779m5.547-.916c1.128,0,1.117-1.713.7-2.763-1.112-.089-1.159,1.634-.75,2.672m-.407-11.926c-.12-.555-1.107-.246-1.111.322s.536.975,1.042,1.232l.292-1.591Z" transform="translate(-221.374 -11.549)"/><path d="M925.74,669.217l1.211-8.046c.19-1.261.217-2.865-.917-3.449a3.812,3.812,0,0,0-2.368,0,8.662,8.662,0,0,1-8.5-3.746c-.925-1.429.1-3.457,1.615-4.229a10.065,10.065,0,0,1,5.012-.591c1.7.07,3.53.043,4.925-.933,2.137-1.5,2.383-4.51,2.424-7.117q.087-5.489.174-10.978c.043-2.72,4.326-3.425,6.22-1.473s1.972,4.981,1.932,7.7l-.111,7.7c-.02,1.366.6,3.285,1.925,2.941a15.459,15.459,0,0,1,5.556-.74,5.251,5.251,0,0,1,4.426,3.019c.663,1.759-.427,4.118-2.3,4.307-3.919.4-8.321,1.337-10.357,4.708a13.631,13.631,0,0,0-1.435,4.417l-1.67,8.244c-.549,2.709-1.973,6.118-4.725,5.863a3.881,3.881,0,0,1-3.1-3.02,11.385,11.385,0,0,1,.064-4.576m2.757,2.194a.927.927,0,0,0,.789,1.446c.894-.47-.123-2.162-.957-1.592Z" transform="translate(-323.361 -221.822)"/><path d="M1089.636,637.189c.979-2.422,3.007-5.059,5.574-4.578,2.01.376,3.2,2.628,3.156,4.673s-.97,3.948-1.745,5.841a41.623,41.623,0,0,0-2.232,23.993c.537,2.608,1.978,5.692,4.641,5.713a5.014,5.014,0,0,0,2.858-1.093c3.374-2.4,5.234-6.452,6.033-10.515s.681-8.241.927-12.374c.115-1.941.532-4.213,2.285-5.056,1.786-.859,4.008.422,4.882,2.2s.766,3.862.639,5.84q-1.06,16.51-2.12,33.021a1.925,1.925,0,0,1-.257,1.013,1.7,1.7,0,0,1-1.663.453,6.511,6.511,0,0,1-5.392-5.993c-.065-1.667-2.531-1.573-4.172-1.276-6.7,1.213-13.213-4.15-15.58-10.537s-1.576-13.467-.526-20.2A50.121,50.121,0,0,1,1089.636,637.189Z" transform="translate(-383.845 -223.591)"/><path d="M1154.967,667.484a3.809,3.809,0,0,1,4.129,1.558,11.157,11.157,0,0,1,1.651,4.394l3.434,15.537c-4.615-1.851-9.463,2.863-14.419,2.459-3.757-.307-6.66-3.516-8.289-6.916-5-10.444-1.355-23.1,4.734-32.947,1.619-2.618,4.577-5.473,7.307-4.051,1.766.919,2.3,3.3,1.789,5.23a18.022,18.022,0,0,1-2.891,5.191,34.477,34.477,0,0,0-5.769,20,9.488,9.488,0,0,0,.972,4.474,3.953,3.953,0,0,0,3.793,2.133c2.559-.384,3.452-3.739,2.914-6.27s-1.9-4.973-1.59-7.542A3.866,3.866,0,0,1,1154.967,667.484Z" transform="translate(-402.65 -228.746)"/><path d="M266.689,34.51q.628,10.847,1.233,21.7c6.121-1.532,8.223-9,9.241-15.232l4.049-24.751c.344-2.1.727-4.3,2.023-5.991s3.814-2.651,5.621-1.522c1.447.9,1.946,2.738,2.326,4.4l2.967,12.953a33.837,33.837,0,0,1,7.017-10.453c2.584-2.618,6.626-4.891,9.755-2.957,2.98,1.841,2.958,6.105,2.581,9.587l-3.474,32.034,63.893,1.574c2.335.058,2.788,3.819,1,5.317s-4.4,1.327-6.723,1.093c-63.532-6.4-127.624.273-191.453-1.488-3.511-.1-8.432-2.413-6.764-5.5.955-1.77,3.426-1.831,5.431-1.669a478.255,478.255,0,0,0,70.343.488A51.23,51.23,0,0,1,258.232,5.2c1.578-1.607,3.554-3.211,5.8-3s3.93,3.417,2.146,4.792a43.943,43.943,0,0,0-16.265,40.7c.294,1.9,1,4.1,2.843,4.633,2.822.822,6.551-2.791,8.289-.421a4,4,0,0,0-1.294,6.286,6.054,6.054,0,0,1,6.472-2.265,25.51,25.51,0,0,1-5.177-22.986,15.693,15.693,0,0,1-8.966,2.33c1.2-2.793,2.985-5.523,5.724-6.84s6.562-.695,8.028,1.967a9.572,9.572,0,0,1,.861,4.115M306.725,19.6l-8.934,11.982c-1.571,2.107-3.751,4.462-6.322,3.92-1.79-.377-2.995-2.1-3.55-3.843s-.647-3.607-1.21-5.347c-1.237.639-1.618,2.193-1.869,3.563l-4.4,24.033a3.079,3.079,0,0,0,.228,2.422c.505.666,1.876.519,1.88-.317.01-2.268,3.074-2.935,5.341-2.884l14.5.327c1.425.032,3.465-.759,2.9-2.068-1.636-3.8-1.206-8.122-.746-12.23L306.725,19.6M286.8,15.823a1.944,1.944,0,0,1,.511,2.161,1.992,1.992,0,0,0-2.38,2.355c1.376-.332,2.911-.783,3.576-2.033s-.6-3.246-1.857-2.6m22.177,12.461a1.059,1.059,0,0,0,.909,1.549A3.45,3.45,0,0,0,310,27.473c-.371-.55-1.441,0-1.213.62m-2.049,25.883a2.1,2.1,0,0,0,1.068,1.6,3.511,3.511,0,0,0,.254-2.241c-.371-.549-1.441,0-1.213.62Z" transform="translate(-59.965 -0.772)"/><path d="M656.63,677.791a6.238,6.238,0,0,1,.3-3.071,2.143,2.143,0,0,1,2.522-1.282c2.422.947,4.687-1.545,6.246-3.627s4.409-4.214,6.457-2.611c2.591,2.027,6.39-1.687,9.5-.615,2.445.843,2.978,4,3.1,6.586l1.013,20.769a3.939,3.939,0,0,1-.291,2.125,2.633,2.633,0,0,1-3.5.705,6.283,6.283,0,0,1-2.422-3.054,23.176,23.176,0,0,1-1.294-15.55c-1.79,1.539-4.178,3.176-6.312,2.166-1.961-.928-4.263.749-5.17,2.72s-.995,4.235-1.853,6.227-3.041,3.769-5.065,2.988c-1.981-.765-2.433-3.313-2.585-5.431l-.647-9.046m4.364,7.036a1.536,1.536,0,0,0,.562,2.531l.978-2.293a2.121,2.121,0,0,0-1.613-.3Z" transform="translate(-232.082 -235.55)"/><path d="M725.155,692.862c-6.454,4.181-16.269,1.577-19.8-5.253-1.738-3.36-2.027-7.29-1.8-11.066a18.77,18.77,0,0,1,1.1-5.764,13.323,13.323,0,0,1,11.637-8.005,16.361,16.361,0,0,1,13.06,6.067,3.415,3.415,0,0,1,.926,1.845,3.519,3.519,0,0,1-.864,2.189,26.114,26.114,0,0,1-16.021,10.317c-.714.14-.67,1.239-.194,1.79s1.2.927,1.431,1.617c.531,1.6,2.56,2.152,4.241,1.983s3.345-.8,5.014-.543,3.3,1.986,2.583,3.517a3.378,3.378,0,0,1-1.312,1.308m-10.607-22.75a12.472,12.472,0,0,0-2.41,5.419,6.071,6.071,0,0,0,6.8-6.442c-.123-.934-1.391-1.321-2.243-.921a4.559,4.559,0,0,0-1.817,2.1Z" transform="translate(-248.664 -234.267)"/><path d="M607.364,677.7l4.142-25.431c.284-1.745.69-3.688,2.158-4.673-1-1.241-2.982-.889-4.39-.149s-2.831,1.788-4.409,1.587c-2.762-.352-3.5-4.464-1.763-6.636s4.729-2.812,7.48-3.239a161.649,161.649,0,0,1,18.619-1.8c1.7-.065,3.518-.072,4.946.852s2.128,3.147.932,4.356a4.379,4.379,0,0,1-2.545.968l-9.409,1.43c-1.983.3-2.812,2.654-3.234,4.615q-3.686,17.121-6.35,34.442c-.357,2.324-4.116,2.409-5.494.5s-1.061-4.507-.683-6.828m3.266,1.3c.853.325,1.165-1.168.709-1.959-.868-.313-1.18,1.18-.748,1.995Z" transform="translate(-212.85 -225.281)"/><path d="M729.916,29.693a23.828,23.828,0,0,1,1.383-8.585c1.141-2.683,3.5-5.04,6.4-5.342,2.109-.22,4.163.643,6.108,1.488,2.157.937,4.737,2.686,4.106,4.952-.618,2.222-3.882,2.415-5.826,1.173a2.436,2.436,0,0,0-3.177,1.064,7.075,7.075,0,0,0-.683,3.628l-.07,7.819c-.021,2.286,2.892,3.569,5.113,3.028s3.978-2.184,5.959-3.324,4.7-1.7,6.406-.176c-1.976,4.564-5.655,8.571-10.4,10.047s-10.522-.045-13.259-4.2c-2.193-3.327-2.19-7.591-2.056-11.573m5.011-2.616c.383-.542-.711-1.144-1.129-.629l-.577,4.3a2.96,2.96,0,0,0,1.664-3.634m1.013-5.632c.638-.175.084-1.3-.557-1.143s-.918.908-1.037,1.558a1.079,1.079,0,0,0,1.614-.329Z" transform="translate(-257.989 -5.56)"/><path d="M781.107,18.325c-.02,1.39.548,3.413,1.877,3l4.859-15.641c.864-2.782,2.732-6.206,5.586-5.624a4.074,4.074,0,0,1,2.889,3.641,11.941,11.941,0,0,1-.8,4.864l-3,9.6c-.3.946,1.11,1.416,2.1,1.417a44.546,44.546,0,0,1,12.367,1.765,4.517,4.517,0,0,1,2.708,1.6c.988,1.557-.261,3.746-1.981,4.409s-3.646.267-5.444-.138l-16.787-3.774c-1.426-.321-2.164,1.811-1.619,3.167s1.708,2.528,1.7,3.989c-.008,2.495-3.608,3.572-5.716,2.237s-2.982-3.922-3.709-6.308L770.726,8.774c-.39-1.279-.766-2.721-.135-3.9a3.389,3.389,0,0,1,4.257-1.157,7.611,7.611,0,0,1,3.334,3.4,21.859,21.859,0,0,1,2.925,11.21M778.2,26.776c.569.882,2.118.184,2.28-.853a3.981,3.981,0,0,0-1.14-2.838,3.424,3.424,0,0,0-.877,3.565Z" transform="translate(-272.264 0)"/><path d="M302.662,113.136c36.452,3.345,70.3,27.351,85.509,60.646,35.585-46.732,95.7-73.618,154.254-68.992,44.861,3.544,83.842,38.914,97.444,81.81s3.93,91.143-19.979,129.267-60.852,66.794-101.152,86.817c-20.6,10.236-45.264,5.465-67.361-.935-22.128-6.409-44.868-14.912-60.01-32.273-3.72-4.265-10.556-.5-14.9,3.129-41.615,34.841-98.8,50.326-152.306,41.246-29.315-4.975-58.265-17.652-77.581-40.257-10.256-12-17.47-26.392-22.4-41.39-21.564-65.564,4.337-143.778,60.772-183.512,18.295-12.881,39.119-21.869,60.571-28.228,18.522-5.49,37.9-9.093,57.136-7.328m43.828,21.928c-16.68-11.561-37.371-16.556-57.663-16.247s-40.254,5.673-59.037,13.361c-26.47,10.834-51.2,26.517-70.68,47.454a110.743,110.743,0,0,0-17.52,24.042c-4.717,9.069-7.711,18.93-10.189,28.847-6.147,24.6-9.265,50.267-5.818,75.391s13.838,49.751,31.857,67.6c18.952,18.77,45.107,28.937,71.487,32.881,54.343,8.125,112.491-9.9,151.078-49.015-18.614-23.361-19.995-55.617-20.556-85.482-.3-15.938-.589-32,2.247-47.687s9.047-31.164,20.165-42.588c1.757-1.805.676-4.8-.531-7.011-8.735-16.011-19.85-31.153-34.84-41.542M613.247,152.6c-6.453-9.48-13.188-19.038-22.329-25.965-11.612-8.8-26.246-12.673-40.7-14.5-54.5-6.871-111.795,14.427-148.573,55.23-5.675,6.3-11.081,15.577-6.419,22.656,13.071,19.849,18.76,43.831,19.982,67.565s-1.781,47.462-4.839,71.031c-1.31,10.1-3.822,21.878-13.114,26.04-3.134,1.4-4.027,5.718-2.747,8.905s4.1,5.463,6.866,7.494c26.466,19.411,59.064,29.79,91.844,31.434,5.1.256,10.51.231,14.887-2.393,24.3-14.567,48.745-29.234,70.142-47.806s39.8-41.447,49.021-68.239a204.2,204.2,0,0,0,6.661-26.019c4.11-20.309,7.2-41.522,1.985-61.574-4.166-16.01-13.357-30.188-22.665-43.864M383.722,340.878a263.706,263.706,0,0,0,1.255-119.409c-.721-3.24-1.666-6.727-4.3-8.746a208.11,208.11,0,0,0,3.045,128.155m25.5-103.381-1.964,5.623c-.824,2.36,2.842,4.754,1.715,6.985,1.551.5,2.064-2.058,1.529-3.6s-.663-3.98.964-4.057l-2.244-4.954m-15.142,1.41c-.787.4-.5,1.738.305,2.1a2.892,2.892,0,0,0,2.518-.4,9.788,9.788,0,0,0,4.759-6.668c-1.671-.13-2.715,1.687-3.569,3.129s-2.7,2.883-4.014,1.838m13.462-4.993q.084-2.12.169-4.24a2.745,2.745,0,0,0-2.671.74c.592,1.094.2,2.433.228,3.677s1.016,2.735,2.19,2.323l-.271-2.493M616.6,315.9a7.609,7.609,0,0,0,4.958-5.016A6.13,6.13,0,0,0,616.6,315.9M405.042,221.236l-1.887,1.26,1.01,1.772a4.948,4.948,0,0,0,2.637-2.174c.457-1.072-.328-2.652-1.476-2.448l-.336,1.632m-1.8-4.346a1.915,1.915,0,0,0-.417,3.336,2.724,2.724,0,0,0,.688-3.867m-7.2-17.367a3.956,3.956,0,0,0-1.7-2.621,3.524,3.524,0,0,0,.161,2.826c.568.792,2.184.624,2.169-.35m-268.544,35.96a1.417,1.417,0,0,0,.354-2.143,1.295,1.295,0,1,0-.311,2.534m507.242,28.453a2.311,2.311,0,0,0,.492,3.279,2.61,2.61,0,0,0-.4-3.5m-3.742,22.47a2,2,0,0,0-.269-1.647,1.751,1.751,0,0,0-1.236,2.782l1.605-1.019m-70.191,83.02a2.692,2.692,0,0,0-1.375,1.931,3.089,3.089,0,0,0,2.918-1.751l-1.552-.318m39.132-33.125a.923.923,0,0,0-.38,1.516,6.924,6.924,0,0,0,2.379-2.925,1.288,1.288,0,0,0-1.757,1.282m-482-58.1c.421.461,1.27.052,1.432-.551a2.665,2.665,0,0,0-.387-1.79c-.953-.137-1.13,1.322-.881,2.252m2.173-13.314c-1.13.01-1.116,1.72-.7,2.772,1.113.089,1.161-1.635.752-2.673M410.225,258.8a.794.794,0,0,0,1.344.617l-.145-2.237c-.709-.423-1.318.769-1.132,1.574m-20.965-35.129a1.573,1.573,0,0,0,.486,2.554,1.774,1.774,0,0,0-.485-2.733m-2.071,118.928A2.206,2.206,0,0,0,388.7,339.9a1.753,1.753,0,0,0-1.441,2.634M370.181,216.643l-1.7-.256-.334,1.692a1.394,1.394,0,0,0,2.012-1.292M523.682,395.844a1.3,1.3,0,0,0-1.366,1.635,2.324,2.324,0,0,0,1.864-.359c.471-.453.177-1.517-.464-1.383m114.4-138.655a1.277,1.277,0,0,0,.693-1.832,2.3,2.3,0,0,0-1.676.285,1.844,1.844,0,0,0,1.04,1.588m-5.4,20.5a.927.927,0,0,0,.789,1.446c.894-.47-.122-2.161-.957-1.592M121.26,261.383c-.23.633.868,1.178,1.232.611a1.707,1.707,0,0,0-.389-1.747l-.983.985M404.35,214.9,403,213.67c-.931.516.258,2.258,1.078,1.579M145.451,191.1a2.232,2.232,0,0,0,1.465-2.4,2.548,2.548,0,0,0-1.591,2.547M390.889,321.533c-.385.292.268.915.682.665s.468-.817.477-1.3c-.32-.567-1.406.013-1.113.594m195.795,29.666a3.23,3.23,0,0,0-1.905,1.434,1.373,1.373,0,0,0,1.915-1.347Z" transform="translate(-41.223 -36.859)"/><path d="M232.651,3.317c1.792,1.639.432,4.553-.81,6.639a39.267,39.267,0,0,0-3.67,31.446c.536,1.705,1.293,3.5,2.832,4.407a5.473,5.473,0,0,0,5.683-.522,15.083,15.083,0,0,0,3.928-4.51c.586-.9,2.161-.3,2.449.738a4.281,4.281,0,0,1-.745,3.05c-1.4,2.606-2.975,5.38-5.657,6.628-3.491,1.624-7.824-.013-10.374-2.9s-3.679-6.735-4.516-10.493c-2.478-11.124-2.647-23.915,4.693-32.633C228.019,3.322,230.869,1.687,232.651,3.317Z" transform="translate(-77.846 -0.936)"/><path d="M893.407,674.713c2.248.657,3.856-2.13,5.918-3.242,2.783-1.5,6.416.445,7.864,3.255s1.312,6.14,1.141,9.3l-.477,8.808c-.131,2.423-3.934,3.022-5.589,1.248s-1.589-4.53-1.132-6.913c.268-1.4-.02-3.54-1.42-3.3-2.811,1.312-1.264,6.216-3.657,8.189-1.491,1.229-3.912.575-5.126-.928a8.588,8.588,0,0,1-1.477-5.487,24.929,24.929,0,0,1,1.763-9.126c.386-.968,1.192-2.093,2.193-1.8m1,7.137a1.8,1.8,0,1,0,2.969-2.023l-2.854,2.008Z" transform="translate(-314.397 -237.163)"/><path d="M1039.108,664.575c2.019-.182,3.8,1.344,4.945,3.02,2.978,4.369,3.253,9.973,3.428,15.258.088,2.659-.477,6.16-3.108,6.555a3.761,3.761,0,0,1-3.654-2.23,11.022,11.022,0,0,1-.86-4.458q-.236-4.562-.472-9.125c-1.816,1.413-2.12,3.971-2.714,6.194s-2.193,4.69-4.483,4.47c-2.622-.252-3.5-3.592-3.716-6.217a17.193,17.193,0,0,1,.249-6.257,5.842,5.842,0,0,1,4.183-4.277C1035.178,667.089,1036.809,664.782,1039.108,664.575Z" transform="translate(-363.481 -234.904)"/><path d="M609.561,884.174l1.191-8.872c-3.1.212-4.062,4.257-4.179,7.364s-1.086,7.152-4.188,7.355c-2.011.131-3.688-1.684-4.281-3.61-1.641-5.33,2.594-10.571,6.783-14.253,2.285-2.008,5.074-4.038,8.074-3.534,2.872.483,4.912,3.264,5.467,6.123s-.061,5.8-.676,8.647l-1,4.657c-.339,1.569-.83,3.342-2.27,4.051-1.727.85-3.89-.465-4.652-2.233S609.3,886.082,609.561,884.174Z" transform="translate(-211.286 -307.008)"/><path d="M1007.02,685.289a16.862,16.862,0,0,1-5.693,6.075,8.617,8.617,0,0,1-8.051.564c-4.2-2.13-5.014-7.752-4.691-12.449.278-4.047,1.97-9.024,6.011-9.374,2.1-.181,4.995.657,5.745-1.31.83-2.176,4.11-2.082,5.988-.7a9.965,9.965,0,0,1,3.674,8.326,18.531,18.531,0,0,1-2.984,8.873m-6.693-11.864a22.011,22.011,0,0,0-5.007,9.651c-.253,1.093-.293,2.5.683,3.055,1.2.68,2.544-.607,3.268-1.779a38.571,38.571,0,0,0,3.381-6.955,4.529,4.529,0,0,0,.3-3.187C1002.546,673.2,1001.055,672.611,1000.327,673.425Z" transform="translate(-349.417 -235.802)"/><path d="M805.937,673.619c-2.948.287-6.009.562-8.8-.433s-5.225-3.646-4.959-6.6a7.407,7.407,0,0,1,.724-2.432,10.025,10.025,0,0,1,4.883-5.087,6.536,6.536,0,0,1,6.782.829,2.415,2.415,0,0,1,.7.9c.439,1.13-.549,2.318-1.6,2.925s-2.3,1.014-2.972,2.026-.036,2.841,1.154,2.611a11.022,11.022,0,0,1,10.5,3.885,2.3,2.3,0,0,1,.655,1.728c-.767,4.461-2.273,8.981-5.445,12.21s-8.323,4.823-12.391,2.838a2.617,2.617,0,0,1-.869-.609c-1.221-1.431.756-3.334,2.357-4.323A24.469,24.469,0,0,0,805.937,673.619Z" transform="translate(-280.007 -232.76)"/><path d="M473.946,881.4c-.346,2.456-4.219,2.763-5.85.9s-1.6-4.623-1.426-7.1a190.864,190.864,0,0,1,4.112-28.29c.564-2.531,4.639-2.488,6.157-.386s1.223,4.961.861,7.528Z" transform="translate(-164.928 -298.677)"/><path d="M377.714,859.059c-.488-2.558-.659-6.037,1.8-6.89a3.525,3.525,0,0,1,3.744,1.378,8.989,8.989,0,0,1,1.486,3.947,45.688,45.688,0,0,1-2.279,24.779c-.8,2.08-2.621,4.5-4.712,3.721-1.886-.7-1.982-3.285-1.794-5.286s-.092-4.628-2.042-5.121c-1.751-.443-3.512-1.529-4.012-3.265s.984-3.94,2.752-3.574c2.122.439,4.232-1.242,4.987-3.273A12.024,12.024,0,0,0,377.714,859.059Z" transform="translate(-130.717 -301.169)"/><path d="M498.322,858.834c1.774.325,3.6,1.32,4.173,3.029s-.829,3.971-2.606,3.661c-3.054-.533-6.146,2.14-6.4,5.23a7.125,7.125,0,0,0,4.981,7.028c1.553.494,3.24.5,4.762,1.083s2.921,2.088,2.559,3.677-2.19,2.317-3.8,2.525a15.1,15.1,0,0,1-16.212-11.974,13.089,13.089,0,0,1,2.622-10.469A10.74,10.74,0,0,1,498.322,858.834Z" transform="translate(-171.64 -303.522)"/><path d="M411.558,901.676c-1.838,2.082-4.217,4.327-6.956,3.865-2.281-1.427-2.077-4.958-.608-7.211s3.8-3.811,5.415-5.966,2.281-5.518.314-7.353c-1.869-1.743-2.935-5.242-.737-6.548,1.948-1.157,4.4.812,5.135,2.955a5.583,5.583,0,0,0,1.193,2.508c.7.626,2.127.448,2.224-.485a3.621,3.621,0,0,1,7.215.156c.1,1.711-.987,3.239-2.036,4.594Q417.354,895.11,411.558,901.676Z" transform="translate(-142.41 -310.392)"/><path d="M305.837,895.907a5.756,5.756,0,0,1-3.233-5.241,15.489,15.489,0,0,1,1.526-6.287,8.628,8.628,0,0,1,2.2-3.532c2.014-1.671,5.013-1.26,7.495-.428,3.585,1.2,7.441,3.989,7.047,7.749-.176,1.678-1.21,3.215-1.173,4.9.045,2.021,1.2,4.861-.721,5.5-1.427.473-2.537-1.21-3.8-2.028C312.513,894.809,308.795,897.07,305.837,895.907Z" transform="translate(-106.961 -310.949)"/><path d="M284.813,857.784c.94,1.323-.1,3.188-1.411,4.152s-2.947,1.6-3.785,2.995.069,3.812,1.652,3.453c3.75-.851,7.662,2.312,8.3,6.1s-1.5,7.691-4.644,9.9c-4.275,3-10.558,3.03-14.573-.309.183-2.526,3.321-3.489,5.815-3.927s5.6-1.788,5.356-4.308c-.218-2.21-2.839-3.126-4.661-4.394a8.145,8.145,0,0,1,5.712-14.762A3.166,3.166,0,0,1,284.813,857.784Z" transform="translate(-95.563 -302.794)"/><path d="M260.322,45.961a15.939,15.939,0,0,1-3.447-6.2c-1.385-4.785-.456-9.9.48-14.789l2.9-15.167a11.311,11.311,0,0,1,1.979-5.286c1.222-1.459,3.554-2.176,5.067-1.021A4.6,4.6,0,0,1,268.8,6.52c.84,5.325-1.956,10.445-3.7,15.548a41.168,41.168,0,0,0-.816,23.682c.235.887-.772,1.712-1.686,1.635a3.7,3.7,0,0,1-2.276-1.424m4.86-33.328c-.8-.795-.111-2.114.449-3.093s.655-2.654-.46-2.821c-1.059-.158-1.508,1.3-1.536,2.367q-.079,3-.157,6.006a1.766,1.766,0,0,0,1.449-2.2Z" transform="translate(-90.55 -1.033)"/><path d="M534.11,870.524c.423,3.155-2.551,5.575-4.935,7.684s-4.526,5.8-2.468,8.224c1.062,1.253,3.087,1.872,3.286,3.5.192,1.567-1.614,2.7-3.193,2.705-3,0-5.484-2.449-6.835-5.129a16.408,16.408,0,0,1,1.847-17.286,9.606,9.606,0,0,1,6.543-3.876C530.959,866.179,533.763,867.938,534.11,870.524Z" transform="translate(-183.211 -306.227)"/><path d="M354.724,857.908a152.412,152.412,0,0,1-2.91,25.2c-.2,1.008-.686,2.251-1.714,2.261a11.741,11.741,0,0,1-4.373-7.9,34.844,34.844,0,0,1,.251-9.24l1.839-15.786c.263-2.258,3.791-2.65,5.349-.994S354.8,855.635,354.724,857.908Z" transform="translate(-122.128 -300.608)"/><path d="M643.846,851.85c-.175-2.416-3.581-2.917-5.155-4.759-1.763-2.063-.79-5.281.743-7.521,1.475-2.155,4.6-4.068,6.47-2.247,1.234,1.2,1.4,3.682,3.113,3.876,1.014.115,1.858-.752,2.84-1.026,1.909-.533,3.773,1.431,3.924,3.407s-.853,3.835-1.825,5.562c-1.158,2.056-2.455,4.243-4.611,5.2S644.017,854.2,643.846,851.85Z" transform="translate(-225.427 -295.715)"/><path d="M553.967,890.411c-4.059-1.546-5.092-6.706-5.52-11.028l-.548-5.535a5.357,5.357,0,0,1,.387-3.333c1.146-1.883,4.224-1.523,5.681.131s1.737,4.005,1.952,6.2l.558,5.693c1.779.123,2.114-2.618,3.562-3.659,1.343-.965,3.4-.05,4.086,1.457a5.972,5.972,0,0,1-.358,4.8C562.1,888.879,557.793,891.869,553.967,890.411Z" transform="translate(-193.639 -307.256)"/><path d="M647.056,678.27a4.708,4.708,0,0,1,1.085,2.961,69.66,69.66,0,0,1,.089,14.926,9.15,9.15,0,0,1-1.376,4.595c-.962,1.3-2.859,2.055-4.256,1.236s-1.668-2.656-1.766-4.256a98.092,98.092,0,0,1,.12-13.7,9.044,9.044,0,0,1,1.463-5.008C643.511,677.645,645.782,677.048,647.056,678.27Z" transform="translate(-226.453 -239.517)"/><path d="M700.726,54.972a3.736,3.736,0,0,1-4.272-.957,10.935,10.935,0,0,1-2.186-4.12l-6.353-17.744c-.861-2.405-1.4-5.742.857-6.941,2.447-1.3,5,1.526,6.246,4a87.476,87.476,0,0,1,7.044,19.564C702.572,51,702.721,53.876,700.726,54.972Z" transform="translate(-242.897 -8.795)"/><path d="M425.459,926.587a5.475,5.475,0,0,1-5.044-.795l7.415-1.023a2.058,2.058,0,0,1-2.287,1.768Z" transform="translate(-148.606 -326.882)"/><path d="M524.147,685.784l-.216,2.174c-.116,1.168-.906,2.753-1.959,2.235a6.849,6.849,0,0,1,1.549-4.371Z" transform="translate(-184.503 -242.407)"/><path d="M103.769,647.029q0-.971,0-1.942a2.031,2.031,0,0,1,1.6-.29c.91.957-.424,2.846-1.63,2.309Z" transform="translate(-36.667 -227.9)"/><path d="M587.858,893.044c-1.8,1.318-4.551-.039-5.469-2.076s-.557-4.4-.179-6.6l.655-3.818c.292-1.7.775-3.665,2.35-4.376,2.152-.972,4.533,1.337,4.88,3.672s-.513,4.67-.648,7.027C589.32,889.077,589.64,891.742,587.858,893.044Z" transform="translate(-205.655 -309.624)"/><path d="M193.911,45.851a1.051,1.051,0,1,1,1.479-1.046,1.614,1.614,0,0,1-1.443.91Z" transform="translate(-68.341 -15.508)"/><path d="M651.425,663.22a2.384,2.384,0,1,0-4.113-.36A2.512,2.512,0,0,0,651.425,663.22Z" transform="translate(-228.742 -233.106)"/><path d="M263.159,862.349c-1.817,1.415-4.549-.432-5.28-2.615s-.373-4.606-1.033-6.812c-.614-2.054,2.22-3.807,4.195-2.973s2.925,3.1,3.266,5.216a16.651,16.651,0,0,1,.152,4.055,4.3,4.3,0,0,1-1.3,3.129Z" transform="translate(-90.758 -300.359)"/><path d="M139.737,788.168c-.954-.245-1.111-1.677-.472-2.426a3.98,3.98,0,0,1,2.675-1.071,3.873,3.873,0,0,1-2.2,3.192Z" transform="translate(-49.09 -277.36)"/><path d="M248.791,861.191c-.075,2.168-3.529,2.53-5.005.94s-1.625-3.95-2.151-6.055c-.413-1.653,1.357-3.276,3.054-3.131a4.591,4.591,0,0,1,3.636,3.189A13.5,13.5,0,0,1,248.791,861.191Z" transform="translate(-85.39 -301.491)"/><path d="M590.926,843.639a2.224,2.224,0,0,1,1.276-.963,2.654,2.654,0,0,1,2.111.9c1.41,1.233,2.809,2.953,2.384,4.778-.51,2.186-3.735,2.9-5.416,1.416S589.605,845.454,590.926,843.639Z" transform="translate(-208.54 -297.854)"/><path d="M65.914,729.474a6.078,6.078,0,0,1-.091-1.395,4.437,4.437,0,0,1,3.2-3.542,13.036,13.036,0,0,1,5.017-.291L91.385,725.5c3.462.249,7.459.809,9.257,3.779,2.176,3.594-.381,8.25-3.519,11.044a22.357,22.357,0,0,1-13.347,5.846,16.5,16.5,0,0,1-13.317-5.307C67.749,737.726,66.521,733.572,65.914,729.474Z" transform="translate(-23.262 -255.966)"/><path d="M181.94,726.636a14.155,14.155,0,0,1,6.749,1.742c4.883,3.143,4.515,10.99.618,15.3s-9.962,5.837-15.713,6.645a17.848,17.848,0,0,1-7.3-.077c-6.155-1.733-9.05-8.877-9.537-15.252-.207-2.706.43-6.187,3.082-6.764A78.135,78.135,0,0,1,181.94,726.636Z" transform="translate(-55.396 -256.778)"/><path d="M143.958,810.1c-1,2.459-4.523,2.1-7.127,1.577-18.711-3.774-37.781,6.8-56.739,4.577a8.968,8.968,0,0,1-4.506-1.467,3.565,3.565,0,0,1-1.276-4.23c.98-1.9,3.634-1.912,5.769-1.791,19.79,1.129,39.722-9.243,58.912-4.274C141.743,805.208,145.031,807.47,143.958,810.1Z" transform="translate(-26.164 -283.888)"/></g></g></svg>