<svg xmlns="http://www.w3.org/2000/svg" viewBox="0 0 950 640">
	<path
		d="M879 443c2-1 5-1 7 1l1 4c0 2 2 3 3 3a13 13 0 0 1 1-7 6 6 0 0 1 5-4c3 1 5 3 5 5a18 18 0 0 1 1 7l-1 31a4 4 0 0 1-1 2 2 2 0 0 1-3 0 6 6 0 0 1-2-3c-4-9 0-21-1-31-3 1-3 5-3 8s-2 6-5 6c-2-1-3 2-3 4s1 5-1 7c-1 1-4 0-5-2l-2-6v-10c0-5 0-12 4-15zM442 398l-4 4c-1 0-5 0-5-2a5 5 0 0 1 1-2l13-23a12 12 0 0 1 4-4c1-1 4-2 5 0l16 18c1 1 2 2 1 3 0 2-3 2-4 1a24 24 0 0 1-8-7l-2 2a238 238 0 0 0 2 39c0 5 1 9 3 13s5 7 9 8l5 2c1 1 2 3 0 4-9 1-17-5-21-13s-5-17-5-26v-33zM207 441c5-1 10 0 15 1 14 2 27 5 38 14 12 10 17 26 17 41a160 160 0 0 1-17 66c-5 8-12 13-20 18a132 132 0 0 1-57 19c-14 1-28 0-40-5s-24-15-30-27c-5-12-5-26-2-39 5-23 18-43 35-58s39-25 61-30m-3 12c1 3-2 4-4 4-19-1-36 6-50 19s-23 28-29 45c-4 9-7 19-6 29 1 15 12 29 25 36s29 8 45 6a158 158 0 0 0 59-22c10-8 15-21 20-34 4-14 8-29 6-43s-8-29-21-36c-6-3-12-4-19-5l-16-4h-7c-2 0-3 3-3 5zM649 481a67 67 0 0 0 21 0 28 28 0 0 1-3-19c1-3 3-7 6-8s8-1 9 2c1 4-2 8-5 11s-5 8-2 10c4 2 7 6 11 6l7-1 6 1c1 1 1 6-1 6l-45-1c-2 0-5 0-7 2-1 1-2 2-3 1-3-4-8-4-13-4l-137 5c-2 0-5 0-6-2s-2-4 0-5a4 4 0 0 1 1 0l56-1 11 1 9-2 70-2c6 0 9-6 9-11s1-10 3-15c3-7 14-8 17-2 4 6-1 13-6 18h-3a3 3 0 0 1-1-2 29 29 0 0 1 5-13c-3-2-5 2-6 5zM537 62a2 2 0 0 0 3-1 5 5 0 0 0 0-3l-2-11 1-5c2-1 4-1 5 1a10 10 0 0 1 2 5l3 19-1 5c-1 2-4 1-6 0a134 134 0 0 1-17-11c-1 0-2 0-3 2a7 7 0 0 0 0 4l3 11-1 5h-5a10 10 0 0 1-2-5 83 83 0 0 1-3-26 5 5 0 0 1 0-2l5-2a11 11 0 0 1 4 3l14 11m6-1l1-3-1 3m0-12h-2l1 1 1-1zM711 467l2-8-1-3a4 4 0 0 0-3 0 9 9 0 0 1-8-4c-1-1 0-3 1-4a10 10 0 0 1 5-1l5-1c2-1 3-4 3-7v-11c0-2 4-3 6-1s2 5 2 8v7c0 2 1 4 2 3a15 15 0 0 1 5-1 5 5 0 0 1 5 3c1 2-1 5-2 5-4 0-9 1-11 4a14 14 0 0 0-1 5l-2 8c0 3-2 6-5 6a4 4 0 0 1-3-3 11 11 0 0 1 0-5m3 3a1 1 0 0 0 1 1l-1-2zM815 434c1-3 3-5 5-5s4 3 4 5l-2 6a42 42 0 0 0-2 24c0 2 2 5 4 5a5 5 0 0 0 3-1c3-2 5-6 6-10l1-13 2-5c2-1 4 1 5 2l1 6-2 33a2 2 0 0 1-1 1 2 2 0 0 1-1 1 7 7 0 0 1-6-6c0-2-2-2-4-2-6 2-13-4-15-10s-2-14-1-20a50 50 0 0 1 3-11zM861 459a4 4 0 0 1 4 1 11 11 0 0 1 2 5l4 15c-5-2-10 3-15 3-4-1-7-4-8-7-5-11-2-23 5-33 1-3 4-6 7-4 2 1 2 3 2 5a18 18 0 0 1-3 5 34 34 0 0 0-6 20 9 9 0 0 0 1 5 4 4 0 0 0 4 2c2-1 3-4 3-6l-2-8a4 4 0 0 1 2-3zM316 54l1 21c6-1 8-9 9-15l4-25 2-6c1-2 4-2 6-1l2 4 3 13a34 34 0 0 1 7-10c3-3 7-5 10-3s3 6 3 9l-4 33 64 1c2 0 3 4 1 5l-7 1c-63-6-127 1-191-1-4 0-9-2-7-5 1-2 3-2 5-2a478 478 0 0 0 71 0 51 51 0 0 1 12-49l6-3c2 0 4 4 2 5a44 44 0 0 0-16 41c0 2 1 4 3 5 3 0 6-3 8-1a4 4 0 0 0-1 6 6 6 0 0 1 6-2 26 26 0 0 1-5-23 16 16 0 0 1-9 2c1-2 3-5 6-6s6-1 8 2a10 10 0 0 1 1 4m40-15l-9 12c-2 2-4 4-6 4l-4-4-1-5-2 3-5 24a3 3 0 0 0 1 3l2-1c0-2 3-3 5-3l14 1c2 0 4-1 3-2V58l2-19m-20-4a2 2 0 0 1 0 2 2 2 0 0 0-2 3l4-2c1-1-1-4-2-3m22 12a1 1 0 0 0 1 2 3 3 0 0 0 0-2h-1m-2 26a2 2 0 0 0 1 2 4 4 0 0 0 0-2h-1z"
	/>
	<path
		d="M534 462a6 6 0 0 1 0-3 2 2 0 0 1 2-1c3 1 5-2 7-4s4-4 6-2c3 2 6-2 10-1 2 1 3 4 3 7l1 20a4 4 0 0 1-1 3 3 3 0 0 1-3 0 6 6 0 0 1-3-3 23 23 0 0 1-1-15c-2 1-4 3-6 2s-4 1-5 3l-2 6c-1 2-3 3-5 3-2-1-3-4-3-6v-9m4 7a2 2 0 0 0 0 3l1-2a2 2 0 0 0-1-1zM585 479c-6 4-16 1-19-6-2-3-2-7-2-11a19 19 0 0 1 1-5 13 13 0 0 1 12-8 16 16 0 0 1 13 6 3 3 0 0 1 1 1 4 4 0 0 1-1 3 26 26 0 0 1-16 10v2l1 1c0 2 3 2 4 2h5c1 0 4 2 3 3a3 3 0 0 1-2 2m-10-23a12 12 0 0 0-3 5 6 6 0 0 0 7-6l-2-1a5 5 0 0 0-2 2zM504 472l4-25c0-2 0-4 2-5h-5l-4 2c-3-1-3-5-2-7s5-3 8-3a162 162 0 0 1 18-2l5 1c1 1 2 3 1 4a4 4 0 0 1-2 1l-10 2c-2 0-3 2-3 4q-4 17-6 35c-1 2-4 2-6 0s-1-4 0-7m3 2v-2 2zM581 44a24 24 0 0 1 1-8c1-3 4-5 7-6l6 2c2 1 5 2 4 5-1 2-4 2-6 1a2 2 0 0 0-3 1 7 7 0 0 0-1 4v7c0 3 3 4 5 3l6-3c2-1 5-2 7 0-2 4-6 8-11 10s-10 0-13-4c-2-4-2-8-2-12m5-2l-1-1-1 4a3 3 0 0 0 2-3m1-6l-1-1-1 1a1 1 0 0 0 2 0zM618 38c0 2 0 4 2 3l5-15c0-3 2-7 5-6a4 4 0 0 1 3 4 12 12 0 0 1-1 5l-3 9 2 2a45 45 0 0 1 13 1 5 5 0 0 1 2 2c1 2 0 4-2 4h-5l-17-4c-1 0-2 2-1 4l1 4c0 2-3 3-5 2s-3-4-4-6l-6-18v-4a3 3 0 0 1 5-1 8 8 0 0 1 3 3 22 22 0 0 1 3 11m-3 9c1 1 2 0 2-1a4 4 0 0 0-1-3 3 3 0 0 0-1 4zM370 96c37 4 71 28 86 61 36-47 96-74 154-69 45 3 84 39 98 82s4 91-20 129-61 67-101 87c-21 10-46 5-68-1-22-7-45-15-60-32-4-5-10-1-15 3-41 35-99 50-152 41-29-5-58-18-78-40-10-12-17-27-22-42a167 167 0 0 1 121-211c19-6 38-9 57-8m44 22c-16-11-37-16-57-16s-41 6-59 13c-27 11-52 27-71 48a111 111 0 0 0-18 24l-10 29c-6 24-9 50-6 75s14 50 32 68c19 18 45 29 72 33 54 8 112-10 151-49-19-24-20-56-21-86 0-16 0-32 2-48s10-31 21-42c1-2 0-5-1-7-9-16-20-31-35-42m267 18c-6-10-13-19-22-26-12-9-27-13-41-15-55-7-112 15-149 56-5 6-11 15-6 22 13 20 19 44 20 68s-2 47-5 71c-1 10-4 22-13 26-3 1-4 6-3 9s4 5 7 7c27 20 59 30 92 32 5 0 11 0 15-3 24-14 49-29 70-48s40-41 49-68a204 204 0 0 0 7-26c4-20 7-41 2-61-4-16-14-31-23-44M451 324a264 264 0 0 0 2-119c-1-4-2-7-5-9a208 208 0 0 0 3 128m26-103l-2 5c-1 3 3 5 2 7 1 1 2-2 1-3s0-4 1-4l-2-5m-15 1v2a3 3 0 0 0 3 0 10 10 0 0 0 4-7l-3 3c-1 1-3 3-4 2m13-5v-4a3 3 0 0 0-2 1v3l2 3v-3m209 82a8 8 0 0 0 5-5 6 6 0 0 0-5 5m-211-95l-2 2 1 1a5 5 0 0 0 3-2l-2-2v1m-2-4a2 2 0 0 0 0 3 3 3 0 0 0 0-3m-7-18a4 4 0 0 0-2-2 4 4 0 0 0 0 2h3m-269 36a1 1 0 0 0 0-2 1 1 0 1 0 0 2m507 29a2 2 0 0 0 1 3 3 3 0 0 0 0-3m-4 22a2 2 0 0 0-1-2 2 2 0 0 0-1 3l2-1m-70 83a3 3 0 0 0-2 2 3 3 0 0 0 3-2h-1m39-33a1 1 0 0 0-1 1 7 7 0 0 0 3-2 1 1 0 0 0-2 1m-482-58l1-1a3 3 0 0 0 0-2l-1 3m2-14v0m289-5a1 1 0 0 0 1 1v-3l-1 2m-21-35a2 2 0 0 0 1 2 2 2 0 0 0-1-2m-2 119a2 2 0 0 0 1-3 2 2 0 0 0-1 3m-17-126h-2v1a1 1 0 0 0 2-1m153 179a1 1 0 0 0-1 2 2 2 0 0 0 2-1l-1-1m115-139a1 1 0 0 0 1-2 2 2 0 0 0-2 1 2 2 0 0 0 1 1m-5 21a1 1 0 0 0 0 1c1 0 0-2-1-1m-511-16h1a2 2 0 0 0 0-2l-1 1m283-46l-1-1c-1 0 0 2 1 1m-259-24a2 2 0 0 0 2-2 3 3 0 0 0-2 2m246 131c-1 0 0 1 0 0l1-1c0-1-2 0-1 1m196 29a3 3 0 0 0-2 2 1 1 0 0 0 2-2zM264 22c2 2 0 5-1 7a39 39 0 0 0-4 31l3 5a5 5 0 0 0 6-1 15 15 0 0 0 4-4l2 1a4 4 0 0 1-1 3l-5 6c-4 2-8 0-11-3s-3-6-4-10c-3-11-3-24 5-33 1-2 4-3 6-2zM688 458c2 0 4-3 6-4 3-1 6 1 8 4s1 6 1 9l-1 9c0 2-3 3-5 1s-2-5-1-7c0-1 0-4-2-3s-1 6-3 8c-2 1-4 0-5-1a9 9 0 0 1-2-6 25 25 0 0 1 2-9c0-1 1-2 2-1m1 7a2 2 0 1 0 3-2l-3 2zM785 450c2-1 3 1 5 3 3 4 3 10 3 15 0 3 0 6-3 7a4 4 0 0 1-4-3 11 11 0 0 1-1-4v-9c-2 1-2 4-3 6s-2 5-4 4c-3 0-4-3-4-6a17 17 0 0 1 0-6 6 6 0 0 1 4-4c3-1 4-3 7-3zM507 597l1-9c-3 1-4 5-4 8s-1 7-4 7c-2 0-4-2-4-4-2-5 2-10 7-14 2-2 5-4 8-3 3 0 5 3 5 6l-1 8-1 5c0 2 0 3-2 4s-4 0-4-2l-1-6zM767 469a17 17 0 0 1-6 7 9 9 0 0 1-8 0c-4-2-5-8-5-12s2-9 6-10c2 0 5 1 6-1s4-2 6-1a10 10 0 0 1 4 9 19 19 0 0 1-3 8m-7-11a22 22 0 0 0-5 9l1 3c1 1 2 0 3-1a39 39 0 0 0 3-7 5 5 0 0 0 1-4h-3zM635 461l-9-1c-3-1-5-3-5-6a7 7 0 0 1 1-3 10 10 0 0 1 5-5 7 7 0 0 1 7 1 2 2 0 0 1 0 1c1 1 0 2-1 3l-3 2 1 3a11 11 0 0 1 10 3 2 2 0 0 1 1 2c-1 5-2 9-5 12s-9 5-13 3a3 3 0 0 1-1 0c-1-2 1-4 3-5a24 24 0 0 0 9-10zM418 603c0 2-4 2-6 1s-1-5-1-7a191 191 0 0 1 4-29c0-2 4-2 6 0s1 5 1 7zM356 578c0-3-1-6 2-7a4 4 0 0 1 4 1 9 9 0 0 1 1 4 46 46 0 0 1-2 25c-1 2-3 5-5 4s-2-3-2-5 0-5-2-6c-2 0-3-1-4-3s1-4 3-3c2 0 4-2 5-4a12 12 0 0 0 0-6zM436 575l4 3c1 1-1 4-3 4-3-1-6 2-6 5a7 7 0 0 0 5 7l5 1c2 0 3 2 2 4s-2 2-4 3a15 15 0 0 1-16-12 13 13 0 0 1 3-11 11 11 0 0 1 10-4zM378 611c-2 2-4 5-7 4-2-1-2-5 0-7l5-6c2-2 2-6 0-7-2-2-3-6 0-7 2-1 4 1 5 3a6 6 0 0 0 1 3l2-1a4 4 0 0 1 7 0l-2 5-11 13zM308 605a6 6 0 0 1-3-5 15 15 0 0 1 1-7 9 9 0 0 1 2-3c2-2 5-1 8-1 3 2 7 4 7 8l-1 5c0 2 1 5-1 6l-4-2c-2-2-6 0-9-1zM298 575c1 1 0 3-1 4l-4 3c-1 1 0 4 2 4 3-1 7 2 8 6s-1 7-5 10-10 3-14-1c0-2 3-3 6-4s5-1 5-4c0-2-3-3-5-4a8 8 0 0 1 6-15 3 3 0 0 1 2 1zM279 65a16 16 0 0 1-4-6c-1-5 0-10 1-15l3-15a11 11 0 0 1 2-6c1-1 3-2 5-1a5 5 0 0 1 1 3c1 6-2 11-3 16a41 41 0 0 0-1 24l-2 1a4 4 0 0 1-2-1m5-33v-3-3l-2 2v6a2 2 0 0 0 1-2zM460 584c0 3-3 6-5 8s-5 6-3 8c2 1 4 2 4 4l-3 2c-3 0-6-2-7-5a16 16 0 0 1 2-17 10 10 0 0 1 6-4c3 0 6 2 6 4zM342 577a152 152 0 0 1-3 25l-2 3a12 12 0 0 1-4-8 35 35 0 0 1 0-9l2-16c0-2 3-3 5-1s2 4 2 6zM527 576c0-2-3-3-5-5-1-2-1-5 1-7 1-2 5-4 6-2 2 1 2 3 4 3 1 1 1 0 2-1 2 0 4 2 4 4l-1 5-5 6c-2 1-5-1-6-3zM469 603c-4-1-5-7-5-11l-1-5a5 5 0 0 1 1-4c1-2 4-1 5 0l2 7 1 5c2 0 2-2 3-3 2-1 4 0 4 1a6 6 0 0 1 0 5c-2 4-6 7-10 5zM530 459a5 5 0 0 1 1 3 70 70 0 0 1 0 15 9 9 0 0 1-2 4c-1 2-2 2-4 1s-2-2-2-4a98 98 0 0 1 0-13 9 9 0 0 1 2-5c1-2 3-2 5-1zM567 66a4 4 0 0 1-4-1 11 11 0 0 1-3-4l-6-18c-1-2-1-5 1-7 2-1 5 2 6 4a87 87 0 0 1 7 20c1 2 1 5-1 6zM386 620a5 5 0 0 1-5-1l7-1a2 2 0 0 1-2 2zM449 463l-1 3c0 1 0 2-2 2a7 7 0 0 1 2-5zM176 439v-2a2 2 0 0 1 2 0c1 1-1 3-2 2zM491 603c-2 2-4 0-5-2v-10c1-2 1-4 3-4 2-1 4 1 4 3v7c0 2 0 5-2 6zM235 50a1 1 0 1 1 1-1 2 2 0 0 1-1 1zM532 450a2 2 0 1 0-4 0 3 3 0 0 0 4 0zM281 582c-1 1-4 0-5-3l-1-6c-1-2 2-4 4-3s3 3 4 5a17 17 0 0 1 0 4 4 4 0 0 1-2 3zM200 531l-1-3a4 4 0 0 1 3-1 4 4 0 0 1-2 4zM272 580c0 2-3 2-5 1s-1-4-2-6c0-2 2-4 3-4a5 5 0 0 1 4 4 14 14 0 0 1 0 5zM491 566a2 2 0 0 1 2-1 3 3 0 0 1 2 1c1 1 3 3 2 5 0 2-4 2-5 1s-2-4-1-6zM152 494a6 6 0 0 1 0-2 4 4 0 0 1 3-3 13 13 0 0 1 5-1l17 2c4 0 8 0 9 3 3 4 0 9-3 11a22 22 0 0 1-13 6 17 17 0 0 1-14-5c-3-3-4-7-4-11zM236 490a14 14 0 0 1 6 2c5 3 5 11 1 15s-10 6-16 7a18 18 0 0 1-7-1c-6-1-9-8-10-15 0-2 1-6 3-7a78 78 0 0 1 23-1zM227 546c-1 3-5 2-7 2-19-4-38 7-57 4a9 9 0 0 1-5-1 4 4 0 0 1-1-4c1-2 4-2 6-2 20 1 40-9 59-4 3 0 6 3 5 5z"
	/>
</svg>
