<svg preserveAspectRatio="none" overflow="visible" style="display: block;" width="20" height="20" viewBox="0 0 20 20" fill="none" xmlns="http://www.w3.org/2000/svg">
<g id="external-link">
<path id="Vector" fill-rule="evenodd" clip-rule="evenodd" d="M4 2.66667C3.26363 2.66667 2.66667 3.26363 2.66667 4V16C2.66667 16.7364 3.26363 17.3333 4 17.3333H16C16.7364 17.3333 17.3333 16.7364 17.3333 16V11.3333C17.3333 10.9651 17.0348 10.6667 16.6667 10.6667C16.2985 10.6667 16 10.9651 16 11.3333V16H4V4H8.66667C9.03485 4 9.33333 3.70152 9.33333 3.33333C9.33333 2.96515 9.03485 2.66667 8.66667 2.66667H4ZM17.1381 2.86193C17.202 2.92585 17.2503 2.99952 17.2828 3.07815C17.3148 3.15559 17.3328 3.2404 17.3333 3.32933V3.33333V7.33333C17.3333 7.70152 17.0348 8 16.6667 8C16.2985 8 16 7.70152 16 7.33333V4.94281L9.13807 11.8047C8.87772 12.0651 8.45561 12.0651 8.19527 11.8047C7.93491 11.5444 7.93491 11.1223 8.19527 10.8619L15.0572 4H12.6667C12.2985 4 12 3.70152 12 3.33333C12 2.96515 12.2985 2.66667 12.6667 2.66667H16.6665C16.7569 2.66667 16.8432 2.68465 16.9219 2.71725C17.0005 2.74979 17.0741 2.79801 17.1381 2.86193Z" fill="currentColor"/>
</g>
</svg>
