<svg preserveAspectRatio="none" overflow="visible" style="display: block;" width="12" height="12" viewBox="0 0 12 12" fill="none" xmlns="http://www.w3.org/2000/svg">
<g id="Data Type Icon">
<path id="Vector" fill-rule="evenodd" clip-rule="evenodd" d="M1.2 4.2C1.53137 4.2 1.8 3.93137 1.8 3.6C1.8 3.26863 1.53137 3 1.2 3C0.868632 3 0.6 3.26863 0.6 3.6C0.6 3.93137 0.868632 4.2 1.2 4.2ZM3.2 3.6C3.2 3.37909 3.37909 3.2 3.6 3.2H10.8C11.0209 3.2 11.2 3.37909 11.2 3.6C11.2 3.82091 11.0209 4 10.8 4H3.6C3.37909 4 3.2 3.82091 3.2 3.6ZM3.6 5.6C3.37909 5.6 3.2 5.77909 3.2 6C3.2 6.22091 3.37909 6.4 3.6 6.4H10.8C11.0209 6.4 11.2 6.22091 11.2 6C11.2 5.77909 11.0209 5.6 10.8 5.6H3.6ZM3.6 8C3.37909 8 3.2 8.17912 3.2 8.4C3.2 8.62088 3.37909 8.8 3.6 8.8H10.8C11.0209 8.8 11.2 8.62088 11.2 8.4C11.2 8.17912 11.0209 8 10.8 8H3.6ZM1.8 6C1.8 6.33137 1.53137 6.6 1.2 6.6C0.868632 6.6 0.6 6.33137 0.6 6C0.6 5.66863 0.868632 5.4 1.2 5.4C1.53137 5.4 1.8 5.66863 1.8 6ZM1.2 9C1.53137 9 1.8 8.73136 1.8 8.4C1.8 8.06864 1.53137 7.8 1.2 7.8C0.868632 7.8 0.6 8.06864 0.6 8.4C0.6 8.73136 0.868632 9 1.2 9Z" fill="var(--icon-hint)"/>
</g>
</svg>
