<svg preserveAspectRatio="none" overflow="visible" style="display: block;" width="20" height="20" viewBox="0 0 20 20" fill="none" xmlns="http://www.w3.org/2000/svg">
<g id="person">
<path id="Vector" fill-rule="evenodd" clip-rule="evenodd" d="M9.99984 1.16667C7.33047 1.16667 5.16651 3.33063 5.16651 6C5.16651 8.20384 6.6415 10.0632 8.65815 10.6447C7.06611 10.8387 5.7006 11.4018 4.67194 12.4156C3.36272 13.7059 2.69987 15.6267 2.69987 18.1332C2.69987 18.4831 2.98343 18.7665 3.3332 18.7665C3.68299 18.7665 3.96654 18.4831 3.96654 18.1332C3.96654 15.8399 4.57032 14.2941 5.56106 13.3177C6.55366 12.3395 8.0355 11.8333 9.99978 11.8333C11.9641 11.8333 13.446 12.3395 14.4386 13.3177C15.4293 14.2941 16.0332 15.8399 16.0332 18.1332C16.0332 18.4831 16.3166 18.7665 16.6665 18.7665C17.0162 18.7667 17.2998 18.4831 17.2998 18.1333C17.2998 15.6267 16.6369 13.7059 15.3277 12.4155C14.299 11.4018 12.9335 10.8387 11.3415 10.6447C13.3581 10.0632 14.8332 8.20385 14.8332 6C14.8332 3.33063 12.6692 1.16667 9.99984 1.16667ZM6.43318 6C6.43318 4.03019 8.03003 2.43333 9.99984 2.43333C11.9697 2.43333 13.5665 4.03019 13.5665 6C13.5665 7.96981 11.9697 9.56667 9.99984 9.56667C8.03003 9.56667 6.43318 7.96981 6.43318 6Z" fill="currentColor"/>
</g>
</svg>
