<svg width="384" height="128" viewBox="0 0 384 128" fill="none" xmlns="http://www.w3.org/2000/svg">
<path d="M0.5 6C0.5 2.96243 2.96243 0.5 6 0.5H378C381.038 0.5 383.5 2.96243 383.5 6V122C383.5 125.038 381.038 127.5 378 127.5H6C2.96243 127.5 0.5 125.038 0.5 122V6Z" fill="#FCFDFC"/>
<path d="M0.5 6C0.5 2.96243 2.96243 0.5 6 0.5H378C381.038 0.5 383.5 2.96243 383.5 6V122C383.5 125.038 381.038 127.5 378 127.5H6C2.96243 127.5 0.5 125.038 0.5 122V6Z" stroke="#D7DAD7"/>
<path d="M107.533 38H105.973L110.767 24.9091H112.314L117.108 38H115.548L111.592 26.8523H111.489L107.533 38ZM108.217 32.9119H114.864V34.2351H108.217V32.9119ZM125.854 30.3679L124.575 30.7322C124.486 30.4893 124.356 30.2571 124.186 30.0355C124.015 29.8139 123.787 29.6328 123.502 29.4922C123.216 29.3516 122.854 29.2812 122.415 29.2812C121.797 29.2812 121.286 29.424 120.881 29.7095C120.476 29.995 120.274 30.3572 120.274 30.7962C120.274 31.1839 120.412 31.4929 120.689 31.723C120.966 31.9489 121.399 32.1364 121.987 32.2855L123.45 32.6435C124.316 32.8523 124.959 33.1761 125.381 33.6151C125.807 34.0497 126.02 34.6058 126.02 35.2834C126.02 35.8459 125.86 36.3466 125.541 36.7855C125.225 37.2244 124.782 37.5717 124.211 37.8274C123.644 38.0788 122.986 38.2045 122.236 38.2045C121.243 38.2045 120.423 37.9872 119.775 37.5526C119.127 37.1179 118.716 36.4851 118.541 35.6541L119.89 35.3217C120.026 35.8629 120.289 36.2699 120.676 36.5426C121.068 36.8153 121.58 36.9517 122.21 36.9517C122.926 36.9517 123.495 36.7962 123.917 36.4851C124.343 36.174 124.556 35.7969 124.556 35.3537C124.556 35 124.433 34.7038 124.186 34.4652C123.943 34.2223 123.57 34.0412 123.067 33.9219L121.437 33.5384C120.551 33.3253 119.899 32.995 119.481 32.5476C119.063 32.1001 118.855 31.5398 118.855 30.8665C118.855 30.3168 119.008 29.831 119.315 29.4091C119.626 28.9872 120.05 28.657 120.587 28.4183C121.124 28.1754 121.733 28.054 122.415 28.054C123.369 28.054 124.122 28.2649 124.671 28.6868C125.225 29.1087 125.619 29.669 125.854 30.3679ZM135.223 30.3679L133.945 30.7322C133.855 30.4893 133.725 30.2571 133.555 30.0355C133.384 29.8139 133.156 29.6328 132.871 29.4922C132.585 29.3516 132.223 29.2812 131.784 29.2812C131.166 29.2812 130.655 29.424 130.25 29.7095C129.845 29.995 129.643 30.3572 129.643 30.7962C129.643 31.1839 129.781 31.4929 130.058 31.723C130.335 31.9489 130.768 32.1364 131.356 32.2855L132.82 32.6435C133.685 32.8523 134.328 33.1761 134.75 33.6151C135.176 34.0497 135.389 34.6058 135.389 35.2834C135.389 35.8459 135.229 36.3466 134.91 36.7855C134.594 37.2244 134.151 37.5717 133.58 37.8274C133.013 38.0788 132.355 38.2045 131.605 38.2045C130.612 38.2045 129.792 37.9872 129.144 37.5526C128.496 37.1179 128.085 36.4851 127.911 35.6541L129.259 35.3217C129.396 35.8629 129.658 36.2699 130.045 36.5426C130.438 36.8153 130.949 36.9517 131.58 36.9517C132.295 36.9517 132.864 36.7962 133.286 36.4851C133.712 36.174 133.925 35.7969 133.925 35.3537C133.925 35 133.802 34.7038 133.555 34.4652C133.312 34.2223 132.939 34.0412 132.436 33.9219L130.806 33.5384C129.92 33.3253 129.268 32.995 128.85 32.5476C128.433 32.1001 128.224 31.5398 128.224 30.8665C128.224 30.3168 128.377 29.831 128.684 29.4091C128.995 28.9872 129.419 28.657 129.956 28.4183C130.493 28.1754 131.102 28.054 131.784 28.054C132.739 28.054 133.491 28.2649 134.04 28.6868C134.594 29.1087 134.989 29.669 135.223 30.3679ZM141.671 38.2045C140.793 38.2045 140.022 37.9936 139.357 37.5717C138.697 37.1456 138.181 36.5533 137.81 35.7947C137.439 35.0362 137.254 34.152 137.254 33.142C137.254 32.1236 137.439 31.233 137.81 30.4702C138.181 29.7074 138.697 29.1151 139.357 28.6932C140.022 28.267 140.793 28.054 141.671 28.054C142.549 28.054 143.318 28.267 143.979 28.6932C144.643 29.1151 145.161 29.7074 145.532 30.4702C145.903 31.233 146.088 32.1236 146.088 33.142C146.088 34.152 145.903 35.0362 145.532 35.7947C145.161 36.5533 144.643 37.1456 143.979 37.5717C143.318 37.9936 142.549 38.2045 141.671 38.2045ZM141.671 36.9261C142.344 36.9261 142.903 36.7514 143.346 36.402C143.793 36.0526 144.126 35.5902 144.343 35.0149C144.56 34.4396 144.669 33.8153 144.669 33.142C144.669 32.4645 144.56 31.8381 144.343 31.2628C144.126 30.6832 143.793 30.2166 143.346 29.8629C142.903 29.505 142.344 29.326 141.671 29.326C140.998 29.326 140.437 29.505 139.99 29.8629C139.547 30.2166 139.216 30.6832 138.999 31.2628C138.782 31.8381 138.673 32.4645 138.673 33.142C138.673 33.8153 138.782 34.4396 138.999 35.0149C139.216 35.5902 139.547 36.0526 139.99 36.402C140.437 36.7514 140.998 36.9261 141.671 36.9261ZM152.382 38.2045C151.471 38.2045 150.684 37.9872 150.024 37.5526C149.363 37.1179 148.854 36.5192 148.496 35.7564C148.138 34.9893 147.959 34.1179 147.959 33.142C147.959 32.1449 148.142 31.2649 148.509 30.5021C148.875 29.7351 149.389 29.1364 150.049 28.706C150.71 28.2713 151.479 28.054 152.357 28.054C153.039 28.054 153.654 28.1818 154.204 28.4375C154.754 28.6932 155.203 29.0511 155.553 29.5114C155.907 29.9673 156.126 30.5021 156.211 31.1158H154.792C154.677 30.6428 154.415 30.2273 154.006 29.8693C153.597 29.5071 153.056 29.326 152.382 29.326C151.782 29.326 151.255 29.4837 150.804 29.799C150.356 30.1101 150.007 30.549 149.755 31.1158C149.504 31.6783 149.378 32.3366 149.378 33.0909C149.378 33.858 149.502 34.5291 149.749 35.1044C149.996 35.6797 150.343 36.1271 150.791 36.4467C151.243 36.7663 151.773 36.9261 152.382 36.9261C152.783 36.9261 153.147 36.8558 153.475 36.7152C153.808 36.5703 154.087 36.3636 154.313 36.0952C154.543 35.8267 154.703 35.5071 154.792 35.1364H156.211C156.126 35.7202 155.915 36.2443 155.578 36.7088C155.246 37.169 154.807 37.5334 154.262 37.8018C153.721 38.0703 153.094 38.2045 152.382 38.2045ZM158.469 38V28.1818H159.888V38H158.469ZM159.192 26.5327C158.915 26.5327 158.676 26.4389 158.476 26.2514C158.275 26.0597 158.175 25.8295 158.175 25.5611C158.175 25.2926 158.275 25.0646 158.476 24.8771C158.676 24.6854 158.915 24.5895 159.192 24.5895C159.469 24.5895 159.707 24.6854 159.907 24.8771C160.108 25.0646 160.208 25.2926 160.208 25.5611C160.208 25.8295 160.108 26.0597 159.907 26.2514C159.707 26.4389 159.469 26.5327 159.192 26.5327ZM165.556 38.2301C164.943 38.2301 164.385 38.1129 163.882 37.8786C163.379 37.6399 162.978 37.2969 162.68 36.8494C162.386 36.402 162.239 35.8608 162.239 35.2259C162.239 34.6804 162.343 34.2351 162.552 33.8899C162.765 33.5405 163.053 33.2656 163.415 33.0653C163.777 32.8608 164.184 32.7053 164.636 32.5987C165.092 32.4922 165.559 32.4091 166.036 32.3494C166.624 32.2727 167.105 32.2131 167.48 32.1705C167.855 32.1278 168.132 32.0575 168.311 31.9595C168.49 31.8572 168.58 31.6825 168.58 31.4354V31.3395C168.58 30.7003 168.401 30.2017 168.043 29.8438C167.685 29.4858 167.152 29.3068 166.445 29.3068C165.729 29.3068 165.162 29.4645 164.745 29.7798C164.327 30.0909 164.033 30.4339 163.863 30.8089L162.52 30.3295C162.767 29.7457 163.1 29.2898 163.517 28.9616C163.935 28.6293 164.395 28.3949 164.898 28.2585C165.405 28.1222 165.906 28.054 166.4 28.054C166.733 28.054 167.103 28.0945 167.512 28.1754C167.922 28.2521 168.314 28.4077 168.689 28.642C169.068 28.8764 169.379 29.2216 169.622 29.6776C169.869 30.1293 169.993 30.7301 169.993 31.4801V38H168.58V36.6129H168.503C168.392 36.8473 168.213 37.0902 167.966 37.3416C167.723 37.5888 167.402 37.7997 167.001 37.9744C166.605 38.1449 166.123 38.2301 165.556 38.2301ZM165.767 36.9517C166.368 36.9517 166.877 36.8303 167.295 36.5874C167.713 36.3445 168.03 36.0291 168.248 35.6413C168.469 35.2493 168.58 34.8338 168.58 34.3949V33.0014C168.512 33.0824 168.371 33.1548 168.158 33.2188C167.945 33.2784 167.702 33.3317 167.429 33.3786C167.157 33.4212 166.89 33.4595 166.63 33.4936C166.37 33.5234 166.153 33.5511 165.978 33.5767C165.548 33.6321 165.156 33.7195 164.802 33.8388C164.449 33.9581 164.167 34.1349 163.958 34.3693C163.754 34.5994 163.652 34.9084 163.652 35.2962C163.652 35.8374 163.852 36.2486 164.252 36.5298C164.653 36.8111 165.158 36.9517 165.767 36.9517ZM176.998 28.1818V29.3899H172.012V28.1818H176.998ZM173.489 25.8295H174.908V35.2514C174.908 35.6733 174.972 35.9929 175.1 36.2102C175.228 36.4233 175.394 36.5682 175.598 36.6449C175.807 36.7216 176.027 36.7599 176.257 36.7599C176.419 36.7599 176.553 36.7514 176.659 36.7344C176.766 36.7131 176.853 36.696 176.922 36.6832L177.209 37.9553C177.107 37.9936 176.966 38.032 176.787 38.0703C176.608 38.1129 176.385 38.1342 176.116 38.1342C175.69 38.1342 175.277 38.0426 174.876 37.8594C174.475 37.6761 174.143 37.3991 173.879 37.0284C173.619 36.6534 173.489 36.1847 173.489 35.6222V25.8295ZM179.352 38V28.1818H180.771V38H179.352ZM180.074 26.5327C179.797 26.5327 179.559 26.4389 179.358 26.2514C179.158 26.0597 179.058 25.8295 179.058 25.5611C179.058 25.2926 179.158 25.0646 179.358 24.8771C179.559 24.6854 179.797 24.5895 180.074 24.5895C180.351 24.5895 180.59 24.6854 180.79 24.8771C180.991 25.0646 181.091 25.2926 181.091 25.5611C181.091 25.8295 180.991 26.0597 180.79 26.2514C180.59 26.4389 180.351 26.5327 180.074 26.5327ZM187.532 38.2045C186.654 38.2045 185.883 37.9936 185.218 37.5717C184.558 37.1456 184.042 36.5533 183.672 35.7947C183.301 35.0362 183.115 34.152 183.115 33.142C183.115 32.1236 183.301 31.233 183.672 30.4702C184.042 29.7074 184.558 29.1151 185.218 28.6932C185.883 28.267 186.654 28.054 187.532 28.054C188.41 28.054 189.179 28.267 189.84 28.6932C190.505 29.1151 191.022 29.7074 191.393 30.4702C191.764 31.233 191.949 32.1236 191.949 33.142C191.949 34.152 191.764 35.0362 191.393 35.7947C191.022 36.5533 190.505 37.1456 189.84 37.5717C189.179 37.9936 188.41 38.2045 187.532 38.2045ZM187.532 36.9261C188.206 36.9261 188.764 36.7514 189.207 36.402C189.654 36.0526 189.987 35.5902 190.204 35.0149C190.422 34.4396 190.53 33.8153 190.53 33.142C190.53 32.4645 190.422 31.8381 190.204 31.2628C189.987 30.6832 189.654 30.2166 189.207 29.8629C188.764 29.505 188.206 29.326 187.532 29.326C186.859 29.326 186.299 29.505 185.851 29.8629C185.408 30.2166 185.078 30.6832 184.86 31.2628C184.643 31.8381 184.534 32.4645 184.534 33.142C184.534 33.8153 184.643 34.4396 184.86 35.0149C185.078 35.5902 185.408 36.0526 185.851 36.402C186.299 36.7514 186.859 36.9261 187.532 36.9261ZM195.706 32.0362V38H194.294V28.1818H195.661V29.7159H195.783C196.013 29.2173 196.365 28.8168 196.838 28.5142C197.311 28.2074 197.916 28.054 198.653 28.054C199.318 28.054 199.899 28.1903 200.398 28.4631C200.896 28.7358 201.284 29.1449 201.561 29.6903C201.838 30.2315 201.977 30.9112 201.977 31.7294V38H200.564V31.8253C200.564 31.0455 200.357 30.4361 199.944 29.9972C199.531 29.554 198.968 29.3324 198.257 29.3324C197.767 29.3324 197.33 29.4389 196.946 29.652C196.563 29.8608 196.26 30.1676 196.039 30.5724C195.817 30.9773 195.706 31.4652 195.706 32.0362ZM210.488 38H208.928L213.722 24.9091H215.269L220.063 38H218.503L214.547 26.8523H214.444L210.488 38ZM211.172 32.9119H217.819V34.2351H211.172V32.9119ZM223.357 32.0362V38H221.944V28.1818H223.312V29.7159H223.433C223.663 29.2173 224.015 28.8168 224.488 28.5142C224.961 28.2074 225.566 28.054 226.303 28.054C226.968 28.054 227.55 28.1903 228.048 28.4631C228.547 28.7358 228.935 29.1449 229.212 29.6903C229.489 30.2315 229.627 30.9112 229.627 31.7294V38H228.214V31.8253C228.214 31.0455 228.008 30.4361 227.594 29.9972C227.181 29.554 226.619 29.3324 225.907 29.3324C225.417 29.3324 224.98 29.4389 224.597 29.652C224.213 29.8608 223.911 30.1676 223.689 30.5724C223.467 30.9773 223.357 31.4652 223.357 32.0362ZM235.306 38.2301C234.693 38.2301 234.135 38.1129 233.632 37.8786C233.129 37.6399 232.728 37.2969 232.43 36.8494C232.136 36.402 231.989 35.8608 231.989 35.2259C231.989 34.6804 232.093 34.2351 232.302 33.8899C232.515 33.5405 232.803 33.2656 233.165 33.0653C233.527 32.8608 233.934 32.7053 234.386 32.5987C234.842 32.4922 235.309 32.4091 235.786 32.3494C236.374 32.2727 236.855 32.2131 237.23 32.1705C237.605 32.1278 237.882 32.0575 238.061 31.9595C238.24 31.8572 238.33 31.6825 238.33 31.4354V31.3395C238.33 30.7003 238.151 30.2017 237.793 29.8438C237.435 29.4858 236.902 29.3068 236.195 29.3068C235.479 29.3068 234.912 29.4645 234.495 29.7798C234.077 30.0909 233.783 30.4339 233.613 30.8089L232.27 30.3295C232.517 29.7457 232.85 29.2898 233.267 28.9616C233.685 28.6293 234.145 28.3949 234.648 28.2585C235.155 28.1222 235.656 28.054 236.15 28.054C236.483 28.054 236.853 28.0945 237.262 28.1754C237.672 28.2521 238.064 28.4077 238.439 28.642C238.818 28.8764 239.129 29.2216 239.372 29.6776C239.619 30.1293 239.743 30.7301 239.743 31.4801V38H238.33V36.6129H238.253C238.142 36.8473 237.963 37.0902 237.716 37.3416C237.473 37.5888 237.152 37.7997 236.751 37.9744C236.355 38.1449 235.873 38.2301 235.306 38.2301ZM235.517 36.9517C236.118 36.9517 236.627 36.8303 237.045 36.5874C237.463 36.3445 237.78 36.0291 237.998 35.6413C238.219 35.2493 238.33 34.8338 238.33 34.3949V33.0014C238.262 33.0824 238.121 33.1548 237.908 33.2188C237.695 33.2784 237.452 33.3317 237.179 33.3786C236.907 33.4212 236.64 33.4595 236.38 33.4936C236.12 33.5234 235.903 33.5511 235.728 33.5767C235.298 33.6321 234.906 33.7195 234.552 33.8388C234.199 33.9581 233.917 34.1349 233.708 34.3693C233.504 34.5994 233.402 34.9084 233.402 35.2962C233.402 35.8374 233.602 36.2486 234.002 36.5298C234.403 36.8111 234.908 36.9517 235.517 36.9517ZM243.993 24.9091V38H242.581V24.9091H243.993ZM247.744 41.6818C247.497 41.6818 247.273 41.6605 247.073 41.6179C246.872 41.5795 246.73 41.5391 246.644 41.4964L247.009 40.25C247.379 40.348 247.708 40.3821 247.993 40.3523C248.283 40.3267 248.539 40.1989 248.76 39.9688C248.982 39.7429 249.184 39.3828 249.367 38.8885L249.668 38.0639L246.044 28.1818H247.578L250.339 36.1271H250.441L253.203 28.1818H254.737L250.575 39.4638C250.388 39.9624 250.158 40.3757 249.885 40.7038C249.617 41.0362 249.303 41.2813 248.945 41.4389C248.588 41.6009 248.187 41.6818 247.744 41.6818ZM263.649 30.3679L262.37 30.7322C262.281 30.4893 262.151 30.2571 261.98 30.0355C261.81 29.8139 261.582 29.6328 261.297 29.4922C261.011 29.3516 260.649 29.2812 260.21 29.2812C259.592 29.2812 259.081 29.424 258.676 29.7095C258.271 29.995 258.069 30.3572 258.069 30.7962C258.069 31.1839 258.207 31.4929 258.484 31.723C258.761 31.9489 259.194 32.1364 259.782 32.2855L261.245 32.6435C262.11 32.8523 262.754 33.1761 263.176 33.6151C263.602 34.0497 263.815 34.6058 263.815 35.2834C263.815 35.8459 263.655 36.3466 263.336 36.7855C263.02 37.2244 262.577 37.5717 262.006 37.8274C261.439 38.0788 260.781 38.2045 260.031 38.2045C259.038 38.2045 258.218 37.9872 257.57 37.5526C256.922 37.1179 256.511 36.4851 256.336 35.6541L257.685 35.3217C257.821 35.8629 258.083 36.2699 258.471 36.5426C258.863 36.8153 259.375 36.9517 260.005 36.9517C260.721 36.9517 261.29 36.7962 261.712 36.4851C262.138 36.174 262.351 35.7969 262.351 35.3537C262.351 35 262.228 34.7038 261.98 34.4652C261.738 34.2223 261.365 34.0412 260.862 33.9219L259.232 33.5384C258.346 33.3253 257.694 32.995 257.276 32.5476C256.858 32.1001 256.65 31.5398 256.65 30.8665C256.65 30.3168 256.803 29.831 257.11 29.4091C257.421 28.9872 257.845 28.657 258.382 28.4183C258.919 28.1754 259.528 28.054 260.21 28.054C261.164 28.054 261.917 28.2649 262.466 28.6868C263.02 29.1087 263.414 29.669 263.649 30.3679ZM266.153 38V28.1818H267.572V38H266.153ZM266.875 26.5327C266.598 26.5327 266.36 26.4389 266.159 26.2514C265.959 26.0597 265.859 25.8295 265.859 25.5611C265.859 25.2926 265.959 25.0646 266.159 24.8771C266.36 24.6854 266.598 24.5895 266.875 24.5895C267.152 24.5895 267.391 24.6854 267.591 24.8771C267.791 25.0646 267.892 25.2926 267.892 25.5611C267.892 25.8295 267.791 26.0597 267.591 26.2514C267.391 26.4389 267.152 26.5327 266.875 26.5327ZM277.254 30.3679L275.976 30.7322C275.886 30.4893 275.756 30.2571 275.586 30.0355C275.415 29.8139 275.188 29.6328 274.902 29.4922C274.616 29.3516 274.254 29.2812 273.815 29.2812C273.197 29.2812 272.686 29.424 272.281 29.7095C271.876 29.995 271.674 30.3572 271.674 30.7962C271.674 31.1839 271.812 31.4929 272.089 31.723C272.366 31.9489 272.799 32.1364 273.387 32.2855L274.851 32.6435C275.716 32.8523 276.359 33.1761 276.781 33.6151C277.207 34.0497 277.42 34.6058 277.42 35.2834C277.42 35.8459 277.261 36.3466 276.941 36.7855C276.626 37.2244 276.183 37.5717 275.612 37.8274C275.045 38.0788 274.386 38.2045 273.636 38.2045C272.643 38.2045 271.823 37.9872 271.175 37.5526C270.528 37.1179 270.116 36.4851 269.942 35.6541L271.29 35.3217C271.427 35.8629 271.689 36.2699 272.077 36.5426C272.469 36.8153 272.98 36.9517 273.611 36.9517C274.327 36.9517 274.896 36.7962 275.317 36.4851C275.744 36.174 275.957 35.7969 275.957 35.3537C275.957 35 275.833 34.7038 275.586 34.4652C275.343 34.2223 274.97 34.0412 274.467 33.9219L272.837 33.5384C271.951 33.3253 271.299 32.995 270.881 32.5476C270.464 32.1001 270.255 31.5398 270.255 30.8665C270.255 30.3168 270.408 29.831 270.715 29.4091C271.026 28.9872 271.45 28.657 271.987 28.4183C272.524 28.1754 273.134 28.054 273.815 28.054C274.77 28.054 275.522 28.2649 276.072 28.6868C276.626 29.1087 277.02 29.669 277.254 30.3679Z" fill="#1D211C"/>
<path d="M39.8975 62H36.9798V52.5455H40.0267C40.9439 52.5455 41.7287 52.7347 42.3811 53.1133C43.0336 53.4888 43.5337 54.0289 43.8815 54.7337C44.2293 55.4354 44.4031 56.2756 44.4031 57.2543C44.4031 58.2391 44.2277 59.087 43.8769 59.7979C43.526 60.5058 43.0151 61.0505 42.3442 61.4322C41.6733 61.8107 40.8577 62 39.8975 62ZM38.1247 60.9844H39.8236C40.6053 60.9844 41.2532 60.8336 41.7671 60.532C42.2811 60.2304 42.6643 59.801 42.9166 59.244C43.169 58.6869 43.2952 58.0237 43.2952 57.2543C43.2952 56.491 43.1705 55.8339 42.9213 55.283C42.672 54.729 42.2996 54.3043 41.8041 54.0089C41.3086 53.7103 40.6915 53.5611 39.9529 53.5611H38.1247V60.9844ZM49.1489 62.1477C48.4656 62.1477 47.8763 61.9969 47.3808 61.6953C46.8883 61.3906 46.5083 60.9659 46.2405 60.4212C45.9758 59.8733 45.8435 59.2363 45.8435 58.5099C45.8435 57.7836 45.9758 57.1435 46.2405 56.5895C46.5083 56.0324 46.8807 55.5985 47.3577 55.2876C47.8378 54.9737 48.3979 54.8168 49.0381 54.8168C49.4074 54.8168 49.7721 54.8783 50.1322 55.0014C50.4923 55.1245 50.82 55.3246 51.1155 55.6016C51.411 55.8755 51.6464 56.2386 51.8218 56.6911C51.9972 57.1435 52.085 57.7005 52.085 58.3622V58.8239H46.6191V57.8821H50.977C50.977 57.482 50.897 57.125 50.7369 56.8111C50.58 56.4972 50.3553 56.2494 50.0629 56.0678C49.7736 55.8862 49.432 55.7955 49.0381 55.7955C48.6041 55.7955 48.2287 55.9032 47.9117 56.1186C47.5977 56.331 47.3561 56.608 47.1869 56.9496C47.0176 57.2912 46.933 57.6574 46.933 58.0483V58.6761C46.933 59.2116 47.0253 59.6656 47.21 60.038C47.3977 60.4073 47.6578 60.6889 47.9901 60.8828C48.3225 61.0736 48.7088 61.169 49.1489 61.169C49.4351 61.169 49.6936 61.129 49.9244 61.049C50.1584 60.9659 50.3599 60.8428 50.5292 60.6797C50.6985 60.5135 50.8293 60.3073 50.9216 60.0611L51.9742 60.3565C51.8634 60.7135 51.6772 61.0275 51.4156 61.2983C51.154 61.5661 50.8308 61.7753 50.4461 61.9261C50.0614 62.0739 49.629 62.1477 49.1489 62.1477ZM56.8261 54.9091V55.8324H53.1514V54.9091H56.8261ZM54.2224 53.2102H55.3119V59.9688C55.3119 60.2765 55.3565 60.5073 55.4458 60.6612C55.5381 60.812 55.655 60.9136 55.7966 60.9659C55.9413 61.0152 56.0936 61.0398 56.2536 61.0398C56.3737 61.0398 56.4722 61.0336 56.5491 61.0213C56.626 61.0059 56.6876 60.9936 56.7338 60.9844L56.9553 61.9631C56.8815 61.9908 56.7784 62.0185 56.646 62.0462C56.5137 62.0769 56.346 62.0923 56.1428 62.0923C55.8351 62.0923 55.5335 62.0262 55.238 61.8938C54.9456 61.7615 54.7025 61.5599 54.5086 61.2891C54.3178 61.0182 54.2224 60.6766 54.2224 60.2642V53.2102ZM61.3618 62.1477C60.6785 62.1477 60.0892 61.9969 59.5937 61.6953C59.1012 61.3906 58.7211 60.9659 58.4534 60.4212C58.1887 59.8733 58.0564 59.2363 58.0564 58.5099C58.0564 57.7836 58.1887 57.1435 58.4534 56.5895C58.7211 56.0324 59.0935 55.5985 59.5706 55.2876C60.0507 54.9737 60.6108 54.8168 61.251 54.8168C61.6203 54.8168 61.985 54.8783 62.3451 55.0014C62.7052 55.1245 63.0329 55.3246 63.3284 55.6016C63.6238 55.8755 63.8593 56.2386 64.0347 56.6911C64.2101 57.1435 64.2979 57.7005 64.2979 58.3622V58.8239H58.8319V57.8821H63.1899C63.1899 57.482 63.1099 57.125 62.9498 56.8111C62.7929 56.4972 62.5682 56.2494 62.2758 56.0678C61.9865 55.8862 61.6449 55.7955 61.251 55.7955C60.817 55.7955 60.4416 55.9032 60.1246 56.1186C59.8106 56.331 59.569 56.608 59.3998 56.9496C59.2305 57.2912 59.1459 57.6574 59.1459 58.0483V58.6761C59.1459 59.2116 59.2382 59.6656 59.4229 60.038C59.6106 60.4073 59.8706 60.6889 60.203 60.8828C60.5354 61.0736 60.9217 61.169 61.3618 61.169C61.648 61.169 61.9065 61.129 62.1373 61.049C62.3712 60.9659 62.5728 60.8428 62.7421 60.6797C62.9114 60.5135 63.0422 60.3073 63.1345 60.0611L64.1871 60.3565C64.0763 60.7135 63.8901 61.0275 63.6285 61.2983C63.3669 61.5661 63.0437 61.7753 62.659 61.9261C62.2743 62.0739 61.8419 62.1477 61.3618 62.1477ZM65.9552 62V54.9091H67.0077V55.9801H67.0816C67.2108 55.6293 67.4448 55.3446 67.7833 55.1261C68.1218 54.9076 68.5035 54.7983 68.9282 54.7983C69.0082 54.7983 69.1082 54.7998 69.2282 54.8029C69.3483 54.806 69.4391 54.8106 69.5006 54.8168V55.9247C69.4637 55.9155 69.3791 55.9016 69.2467 55.8832C69.1175 55.8616 68.9805 55.8509 68.8358 55.8509C68.4912 55.8509 68.1834 55.9232 67.9126 56.0678C67.6448 56.2094 67.4324 56.4064 67.2755 56.6587C67.1216 56.908 67.0447 57.1927 67.0447 57.5128V62H65.9552ZM70.7921 62V54.9091H71.8446V56.017H71.937C72.0847 55.6385 72.3232 55.3446 72.6525 55.1353C72.9818 54.9229 73.3773 54.8168 73.839 54.8168C74.3068 54.8168 74.6961 54.9229 75.0069 55.1353C75.3208 55.3446 75.5655 55.6385 75.7409 56.017H75.8148C75.9964 55.6508 76.2688 55.36 76.6319 55.1445C76.9951 54.926 77.4306 54.8168 77.9384 54.8168C78.5724 54.8168 79.091 55.0153 79.4941 55.4123C79.8973 55.8062 80.0989 56.4202 80.0989 57.2543V62H79.0094V57.2543C79.0094 56.7311 78.8663 56.3571 78.5801 56.1325C78.2939 55.9078 77.9569 55.7955 77.5691 55.7955C77.0705 55.7955 76.6842 55.9463 76.4103 56.2479C76.1364 56.5464 75.9995 56.925 75.9995 57.3835V62H74.8915V57.1435C74.8915 56.7403 74.7607 56.4156 74.4991 56.1694C74.2375 55.9201 73.9005 55.7955 73.4881 55.7955C73.205 55.7955 72.9403 55.8709 72.6941 56.0217C72.4509 56.1725 72.254 56.3817 72.1032 56.6495C71.9554 56.9142 71.8816 57.2204 71.8816 57.5682V62H70.7921ZM82.0909 62V54.9091H83.1804V62H82.0909ZM82.6449 53.7273C82.4325 53.7273 82.2494 53.6549 82.0955 53.5103C81.9447 53.3656 81.8693 53.1918 81.8693 52.9886C81.8693 52.7855 81.9447 52.6116 82.0955 52.467C82.2494 52.3223 82.4325 52.25 82.6449 52.25C82.8572 52.25 83.0388 52.3223 83.1896 52.467C83.3435 52.6116 83.4205 52.7855 83.4205 52.9886C83.4205 53.1918 83.3435 53.3656 83.1896 53.5103C83.0388 53.6549 82.8572 53.7273 82.6449 53.7273ZM86.2654 57.7344V62H85.1759V54.9091H86.2284V56.017H86.3208C86.4869 55.657 86.7393 55.3677 87.0779 55.1491C87.4164 54.9276 87.8534 54.8168 88.3889 54.8168C88.8691 54.8168 89.2892 54.9152 89.6492 55.1122C90.0093 55.3061 90.2894 55.6016 90.4894 55.9986C90.6895 56.3925 90.7895 56.8911 90.7895 57.4943V62H89.7V57.5682C89.7 57.0111 89.5554 56.5772 89.2661 56.2663C88.9768 55.9524 88.5798 55.7955 88.075 55.7955C87.7272 55.7955 87.4164 55.8709 87.1425 56.0217C86.8717 56.1725 86.6578 56.3925 86.5008 56.6818C86.3438 56.9711 86.2654 57.322 86.2654 57.7344ZM95.7534 62.1477C95.0701 62.1477 94.4808 61.9969 93.9853 61.6953C93.4928 61.3906 93.1127 60.9659 92.845 60.4212C92.5803 59.8733 92.448 59.2363 92.448 58.5099C92.448 57.7836 92.5803 57.1435 92.845 56.5895C93.1127 56.0324 93.4851 55.5985 93.9622 55.2876C94.4423 54.9737 95.0024 54.8168 95.6426 54.8168C96.0119 54.8168 96.3766 54.8783 96.7367 55.0014C97.0968 55.1245 97.4245 55.3246 97.72 55.6016C98.0154 55.8755 98.2509 56.2386 98.4263 56.6911C98.6017 57.1435 98.6895 57.7005 98.6895 58.3622V58.8239H93.2235V57.8821H97.5815C97.5815 57.482 97.5015 57.125 97.3414 56.8111C97.1845 56.4972 96.9598 56.2494 96.6674 56.0678C96.3781 55.8862 96.0365 55.7955 95.6426 55.7955C95.2086 55.7955 94.8332 55.9032 94.5162 56.1186C94.2022 56.331 93.9606 56.608 93.7914 56.9496C93.6221 57.2912 93.5375 57.6574 93.5375 58.0483V58.6761C93.5375 59.2116 93.6298 59.6656 93.8145 60.038C94.0022 60.4073 94.2623 60.6889 94.5946 60.8828C94.927 61.0736 95.3133 61.169 95.7534 61.169C96.0396 61.169 96.2981 61.129 96.5289 61.049C96.7628 60.9659 96.9644 60.8428 97.1337 60.6797C97.303 60.5135 97.4338 60.3073 97.5261 60.0611L98.5787 60.3565C98.4679 60.7135 98.2817 61.0275 98.0201 61.2983C97.7585 61.5661 97.4353 61.7753 97.0506 61.9261C96.6659 62.0739 96.2335 62.1477 95.7534 62.1477ZM107.087 54.9091V55.8324H103.412V54.9091H107.087ZM104.483 53.2102H105.573V59.9688C105.573 60.2765 105.617 60.5073 105.706 60.6612C105.799 60.812 105.916 60.9136 106.057 60.9659C106.202 61.0152 106.354 61.0398 106.514 61.0398C106.634 61.0398 106.733 61.0336 106.81 61.0213C106.887 61.0059 106.948 60.9936 106.994 60.9844L107.216 61.9631C107.142 61.9908 107.039 62.0185 106.907 62.0462C106.774 62.0769 106.607 62.0923 106.404 62.0923C106.096 62.0923 105.794 62.0262 105.499 61.8938C105.206 61.7615 104.963 61.5599 104.769 61.2891C104.579 61.0182 104.483 60.6766 104.483 60.2642V53.2102ZM109.968 57.7344V62H108.878V52.5455H109.968V56.017H110.06C110.226 55.6508 110.475 55.36 110.808 55.1445C111.143 54.926 111.589 54.8168 112.146 54.8168C112.63 54.8168 113.053 54.9137 113.416 55.1076C113.779 55.2984 114.061 55.5923 114.261 55.9893C114.464 56.3833 114.566 56.8849 114.566 57.4943V62H113.476V57.5682C113.476 57.005 113.33 56.5695 113.037 56.2617C112.748 55.9509 112.347 55.7955 111.833 55.7955C111.476 55.7955 111.155 55.8709 110.872 56.0217C110.592 56.1725 110.371 56.3925 110.208 56.6818C110.048 56.9711 109.968 57.322 109.968 57.7344ZM119.532 62.1477C118.848 62.1477 118.259 61.9969 117.764 61.6953C117.271 61.3906 116.891 60.9659 116.623 60.4212C116.359 59.8733 116.226 59.2363 116.226 58.5099C116.226 57.7836 116.359 57.1435 116.623 56.5895C116.891 56.0324 117.263 55.5985 117.741 55.2876C118.221 54.9737 118.781 54.8168 119.421 54.8168C119.79 54.8168 120.155 54.8783 120.515 55.0014C120.875 55.1245 121.203 55.3246 121.498 55.6016C121.794 55.8755 122.029 56.2386 122.205 56.6911C122.38 57.1435 122.468 57.7005 122.468 58.3622V58.8239H117.002V57.8821H121.36C121.36 57.482 121.28 57.125 121.12 56.8111C120.963 56.4972 120.738 56.2494 120.446 56.0678C120.156 55.8862 119.815 55.7955 119.421 55.7955C118.987 55.7955 118.611 55.9032 118.294 56.1186C117.981 56.331 117.739 56.608 117.57 56.9496C117.4 57.2912 117.316 57.6574 117.316 58.0483V58.6761C117.316 59.2116 117.408 59.6656 117.593 60.038C117.781 60.4073 118.041 60.6889 118.373 60.8828C118.705 61.0736 119.092 61.169 119.532 61.169C119.818 61.169 120.076 61.129 120.307 61.049C120.541 60.9659 120.743 60.8428 120.912 60.6797C121.081 60.5135 121.212 60.3073 121.304 60.0611L122.357 60.3565C122.246 60.7135 122.06 61.0275 121.798 61.2983C121.537 61.5661 121.214 61.7753 120.829 61.9261C120.444 62.0739 120.012 62.1477 119.532 62.1477ZM130.754 62.1477C130.071 62.1477 129.482 61.9969 128.986 61.6953C128.494 61.3906 128.114 60.9659 127.846 60.4212C127.581 59.8733 127.449 59.2363 127.449 58.5099C127.449 57.7836 127.581 57.1435 127.846 56.5895C128.114 56.0324 128.486 55.5985 128.963 55.2876C129.443 54.9737 130.003 54.8168 130.644 54.8168C131.013 54.8168 131.378 54.8783 131.738 55.0014C132.098 55.1245 132.426 55.3246 132.721 55.6016C133.016 55.8755 133.252 56.2386 133.427 56.6911C133.603 57.1435 133.69 57.7005 133.69 58.3622V58.8239H128.225V57.8821H132.582C132.582 57.482 132.502 57.125 132.342 56.8111C132.185 56.4972 131.961 56.2494 131.668 56.0678C131.379 55.8862 131.037 55.7955 130.644 55.7955C130.21 55.7955 129.834 55.9032 129.517 56.1186C129.203 56.331 128.962 56.608 128.792 56.9496C128.623 57.2912 128.538 57.6574 128.538 58.0483V58.6761C128.538 59.2116 128.631 59.6656 128.815 60.038C129.003 60.4073 129.263 60.6889 129.596 60.8828C129.928 61.0736 130.314 61.169 130.754 61.169C131.041 61.169 131.299 61.129 131.53 61.049C131.764 60.9659 131.965 60.8428 132.135 60.6797C132.304 60.5135 132.435 60.3073 132.527 60.0611L133.58 60.3565C133.469 60.7135 133.283 61.0275 133.021 61.2983C132.759 61.5661 132.436 61.7753 132.052 61.9261C131.667 62.0739 131.234 62.1477 130.754 62.1477ZM138.505 54.9091V55.8324H134.683V54.9091H138.505ZM135.828 62V53.9304C135.828 53.5241 135.923 53.1856 136.114 52.9148C136.305 52.6439 136.553 52.4408 136.857 52.3054C137.162 52.17 137.484 52.1023 137.822 52.1023C138.09 52.1023 138.308 52.1238 138.478 52.1669C138.647 52.21 138.773 52.25 138.856 52.2869L138.542 53.2287C138.487 53.2102 138.41 53.1871 138.312 53.1594C138.216 53.1317 138.09 53.1179 137.933 53.1179C137.573 53.1179 137.313 53.2087 137.153 53.3903C136.996 53.5719 136.917 53.8381 136.917 54.1889V62H135.828ZM143.19 54.9091V55.8324H139.368V54.9091H143.19ZM140.512 62V53.9304C140.512 53.5241 140.608 53.1856 140.799 52.9148C140.989 52.6439 141.237 52.4408 141.542 52.3054C141.847 52.17 142.168 52.1023 142.507 52.1023C142.775 52.1023 142.993 52.1238 143.162 52.1669C143.332 52.21 143.458 52.25 143.541 52.2869L143.227 53.2287C143.172 53.2102 143.095 53.1871 142.996 53.1594C142.901 53.1317 142.775 53.1179 142.618 53.1179C142.257 53.1179 141.997 53.2087 141.837 53.3903C141.68 53.5719 141.602 53.8381 141.602 54.1889V62H140.512ZM147.398 62.1477C146.715 62.1477 146.125 61.9969 145.63 61.6953C145.137 61.3906 144.757 60.9659 144.49 60.4212C144.225 59.8733 144.093 59.2363 144.093 58.5099C144.093 57.7836 144.225 57.1435 144.49 56.5895C144.757 56.0324 145.13 55.5985 145.607 55.2876C146.087 54.9737 146.647 54.8168 147.287 54.8168C147.656 54.8168 148.021 54.8783 148.381 55.0014C148.741 55.1245 149.069 55.3246 149.365 55.6016C149.66 55.8755 149.895 56.2386 150.071 56.6911C150.246 57.1435 150.334 57.7005 150.334 58.3622V58.8239H144.868V57.8821H149.226C149.226 57.482 149.146 57.125 148.986 56.8111C148.829 56.4972 148.604 56.2494 148.312 56.0678C148.023 55.8862 147.681 55.7955 147.287 55.7955C146.853 55.7955 146.478 55.9032 146.161 56.1186C145.847 56.331 145.605 56.608 145.436 56.9496C145.267 57.2912 145.182 57.6574 145.182 58.0483V58.6761C145.182 59.2116 145.274 59.6656 145.459 60.038C145.647 60.4073 145.907 60.6889 146.239 60.8828C146.572 61.0736 146.958 61.169 147.398 61.169C147.684 61.169 147.943 61.129 148.173 61.049C148.407 60.9659 148.609 60.8428 148.778 60.6797C148.948 60.5135 149.078 60.3073 149.171 60.0611L150.223 60.3565C150.112 60.7135 149.926 61.0275 149.665 61.2983C149.403 61.5661 149.08 61.7753 148.695 61.9261C148.31 62.0739 147.878 62.1477 147.398 62.1477ZM154.872 62.1477C154.207 62.1477 153.635 61.9908 153.155 61.6768C152.675 61.3629 152.305 60.9305 152.047 60.3796C151.788 59.8287 151.659 59.1993 151.659 58.4915C151.659 57.7713 151.791 57.1358 152.056 56.5849C152.324 56.0309 152.696 55.5985 153.173 55.2876C153.653 54.9737 154.213 54.8168 154.854 54.8168C155.352 54.8168 155.801 54.9091 156.202 55.0938C156.602 55.2784 156.929 55.5369 157.185 55.8693C157.44 56.2017 157.599 56.5895 157.66 57.0327H156.571C156.488 56.7095 156.303 56.4233 156.017 56.174C155.734 55.9216 155.352 55.7955 154.872 55.7955C154.447 55.7955 154.075 55.9062 153.755 56.1278C153.438 56.3464 153.19 56.6557 153.012 57.0558C152.836 57.4528 152.748 57.919 152.748 58.4545C152.748 59.0024 152.835 59.4794 153.007 59.8857C153.182 60.2919 153.429 60.6074 153.746 60.832C154.066 61.0567 154.441 61.169 154.872 61.169C155.155 61.169 155.412 61.1198 155.643 61.0213C155.874 60.9228 156.069 60.7812 156.229 60.5966C156.389 60.4119 156.503 60.1903 156.571 59.9318H157.66C157.599 60.3504 157.446 60.7274 157.203 61.0629C156.963 61.3952 156.645 61.6599 156.248 61.8569C155.854 62.0508 155.395 62.1477 154.872 62.1477ZM162.337 54.9091V55.8324H158.662V54.9091H162.337ZM159.733 53.2102H160.823V59.9688C160.823 60.2765 160.867 60.5073 160.956 60.6612C161.049 60.812 161.166 60.9136 161.307 60.9659C161.452 61.0152 161.604 61.0398 161.764 61.0398C161.884 61.0398 161.983 61.0336 162.06 61.0213C162.137 61.0059 162.198 60.9936 162.244 60.9844L162.466 61.9631C162.392 61.9908 162.289 62.0185 162.157 62.0462C162.024 62.0769 161.857 62.0923 161.654 62.0923C161.346 62.0923 161.044 62.0262 160.749 61.8938C160.456 61.7615 160.213 61.5599 160.019 61.2891C159.829 61.0182 159.733 60.6766 159.733 60.2642V53.2102ZM170.513 62.1477C169.872 62.1477 169.311 61.9954 168.828 61.6907C168.347 61.386 167.972 60.9598 167.701 60.4119C167.433 59.8641 167.3 59.224 167.3 58.4915C167.3 57.7528 167.433 57.1081 167.701 56.5572C167.972 56.0063 168.347 55.5785 168.828 55.2738C169.311 54.9691 169.872 54.8168 170.513 54.8168C171.153 54.8168 171.713 54.9691 172.193 55.2738C172.676 55.5785 173.052 56.0063 173.319 56.5572C173.59 57.1081 173.726 57.7528 173.726 58.4915C173.726 59.224 173.59 59.8641 173.319 60.4119C173.052 60.9598 172.676 61.386 172.193 61.6907C171.713 61.9954 171.153 62.1477 170.513 62.1477ZM170.513 61.169C170.999 61.169 171.399 61.0444 171.713 60.7951C172.027 60.5458 172.259 60.218 172.41 59.8118C172.561 59.4055 172.636 58.9654 172.636 58.4915C172.636 58.0175 172.561 57.5759 172.41 57.1665C172.259 56.7572 172.027 56.4264 171.713 56.174C171.399 55.9216 170.999 55.7955 170.513 55.7955C170.026 55.7955 169.626 55.9216 169.312 56.174C168.998 56.4264 168.766 56.7572 168.615 57.1665C168.464 57.5759 168.389 58.0175 168.389 58.4915C168.389 58.9654 168.464 59.4055 168.615 59.8118C168.766 60.218 168.998 60.5458 169.312 60.7951C169.626 61.0444 170.026 61.169 170.513 61.169ZM178.546 54.9091V55.8324H174.724V54.9091H178.546ZM175.869 62V53.9304C175.869 53.5241 175.964 53.1856 176.155 52.9148C176.346 52.6439 176.594 52.4408 176.898 52.3054C177.203 52.17 177.525 52.1023 177.863 52.1023C178.131 52.1023 178.349 52.1238 178.519 52.1669C178.688 52.21 178.814 52.25 178.897 52.2869L178.583 53.2287C178.528 53.2102 178.451 53.1871 178.353 53.1594C178.257 53.1317 178.131 53.1179 177.974 53.1179C177.614 53.1179 177.354 53.2087 177.194 53.3903C177.037 53.5719 176.958 53.8381 176.958 54.1889V62H175.869ZM185.816 62.1662C185.367 62.1662 184.959 62.0816 184.593 61.9123C184.227 61.7399 183.936 61.4922 183.72 61.169C183.505 60.8428 183.397 60.4489 183.397 59.9872C183.397 59.581 183.477 59.2517 183.637 58.9993C183.797 58.7438 184.011 58.5438 184.279 58.3991C184.547 58.2545 184.842 58.1468 185.165 58.076C185.492 58.0021 185.819 57.9437 186.149 57.9006C186.579 57.8452 186.929 57.8036 187.197 57.7759C187.467 57.7451 187.664 57.6944 187.787 57.6236C187.914 57.5528 187.977 57.4297 187.977 57.2543V57.2173C187.977 56.7618 187.852 56.4079 187.603 56.1555C187.357 55.9032 186.983 55.777 186.481 55.777C185.961 55.777 185.553 55.8909 185.258 56.1186C184.962 56.3464 184.754 56.5895 184.634 56.848L183.6 56.4787C183.785 56.0478 184.031 55.7124 184.339 55.4723C184.65 55.2292 184.988 55.0599 185.355 54.9645C185.724 54.866 186.087 54.8168 186.444 54.8168C186.672 54.8168 186.933 54.8445 187.229 54.8999C187.527 54.9522 187.815 55.0614 188.092 55.2276C188.372 55.3938 188.605 55.6446 188.789 55.9801C188.974 56.3156 189.066 56.7649 189.066 57.3281V62H187.977V61.0398H187.921C187.847 61.1937 187.724 61.3583 187.552 61.5337C187.38 61.7092 187.15 61.8584 186.864 61.9815C186.578 62.1046 186.229 62.1662 185.816 62.1662ZM185.982 61.1875C186.413 61.1875 186.776 61.1029 187.072 60.9336C187.37 60.7643 187.595 60.5458 187.746 60.2781C187.9 60.0103 187.977 59.7287 187.977 59.4332V58.4361C187.931 58.4915 187.829 58.5423 187.672 58.5884C187.518 58.6315 187.34 58.67 187.137 58.7038C186.936 58.7346 186.741 58.7623 186.55 58.7869C186.363 58.8085 186.21 58.8269 186.093 58.8423C185.81 58.8793 185.545 58.9393 185.299 59.0224C185.056 59.1024 184.859 59.224 184.708 59.3871C184.561 59.5471 184.487 59.7656 184.487 60.0426C184.487 60.4212 184.627 60.7074 184.907 60.9013C185.19 61.0921 185.548 61.1875 185.982 61.1875ZM194.711 64.6591V54.9091H195.764V56.0355H195.893C195.973 55.9124 196.084 55.7554 196.225 55.5646C196.37 55.3707 196.576 55.1984 196.844 55.0476C197.115 54.8937 197.481 54.8168 197.943 54.8168C198.54 54.8168 199.066 54.966 199.521 55.2646C199.977 55.5631 200.332 55.9863 200.588 56.5341C200.843 57.0819 200.971 57.7282 200.971 58.473C200.971 59.224 200.843 59.8749 200.588 60.4258C200.332 60.9736 199.978 61.3983 199.526 61.6999C199.074 61.9985 198.552 62.1477 197.961 62.1477C197.506 62.1477 197.141 62.0723 196.867 61.9215C196.593 61.7676 196.382 61.5937 196.234 61.3999C196.087 61.2029 195.973 61.0398 195.893 60.9105H195.801V64.6591H194.711ZM195.782 58.4545C195.782 58.9901 195.861 59.4625 196.017 59.8718C196.174 60.2781 196.404 60.5966 196.705 60.8274C197.007 61.0552 197.376 61.169 197.813 61.169C198.269 61.169 198.649 61.049 198.954 60.8089C199.261 60.5658 199.492 60.2396 199.646 59.8303C199.803 59.4179 199.881 58.9593 199.881 58.4545C199.881 57.956 199.805 57.5066 199.651 57.1065C199.5 56.7034 199.271 56.3848 198.963 56.1509C198.658 55.9139 198.275 55.7955 197.813 55.7955C197.37 55.7955 196.998 55.9078 196.696 56.1325C196.395 56.354 196.167 56.6649 196.013 57.065C195.859 57.462 195.782 57.9252 195.782 58.4545ZM202.633 62V54.9091H203.685V55.9801H203.759C203.889 55.6293 204.122 55.3446 204.461 55.1261C204.8 54.9076 205.181 54.7983 205.606 54.7983C205.686 54.7983 205.786 54.7998 205.906 54.8029C206.026 54.806 206.117 54.8106 206.178 54.8168V55.9247C206.141 55.9155 206.057 55.9016 205.924 55.8832C205.795 55.8616 205.658 55.8509 205.514 55.8509C205.169 55.8509 204.861 55.9232 204.59 56.0678C204.323 56.2094 204.11 56.4064 203.953 56.6587C203.799 56.908 203.722 57.1927 203.722 57.5128V62H202.633ZM210.227 62.1477C209.544 62.1477 208.954 61.9969 208.459 61.6953C207.966 61.3906 207.586 60.9659 207.319 60.4212C207.054 59.8733 206.922 59.2363 206.922 58.5099C206.922 57.7836 207.054 57.1435 207.319 56.5895C207.586 56.0324 207.959 55.5985 208.436 55.2876C208.916 54.9737 209.476 54.8168 210.116 54.8168C210.486 54.8168 210.85 54.8783 211.21 55.0014C211.57 55.1245 211.898 55.3246 212.194 55.6016C212.489 55.8755 212.725 56.2386 212.9 56.6911C213.075 57.1435 213.163 57.7005 213.163 58.3622V58.8239H207.697V57.8821H212.055C212.055 57.482 211.975 57.125 211.815 56.8111C211.658 56.4972 211.433 56.2494 211.141 56.0678C210.852 55.8862 210.51 55.7955 210.116 55.7955C209.682 55.7955 209.307 55.9032 208.99 56.1186C208.676 56.331 208.434 56.608 208.265 56.9496C208.096 57.2912 208.011 57.6574 208.011 58.0483V58.6761C208.011 59.2116 208.103 59.6656 208.288 60.038C208.476 60.4073 208.736 60.6889 209.068 60.8828C209.401 61.0736 209.787 61.169 210.227 61.169C210.513 61.169 210.772 61.129 211.003 61.049C211.236 60.9659 211.438 60.8428 211.607 60.6797C211.777 60.5135 211.907 60.3073 212 60.0611L213.052 60.3565C212.941 60.7135 212.755 61.0275 212.494 61.2983C212.232 61.5661 211.909 61.7753 211.524 61.9261C211.14 62.0739 210.707 62.1477 210.227 62.1477ZM217.498 62.1477C216.907 62.1477 216.385 61.9985 215.933 61.6999C215.481 61.3983 215.127 60.9736 214.871 60.4258C214.616 59.8749 214.488 59.224 214.488 58.473C214.488 57.7282 214.616 57.0819 214.871 56.5341C215.127 55.9863 215.482 55.5631 215.938 55.2646C216.393 54.966 216.919 54.8168 217.516 54.8168C217.978 54.8168 218.343 54.8937 218.611 55.0476C218.881 55.1984 219.088 55.3707 219.229 55.5646C219.374 55.7554 219.486 55.9124 219.566 56.0355H219.658V52.5455H220.748V62H219.695V60.9105H219.566C219.486 61.0398 219.372 61.2029 219.225 61.3999C219.077 61.5937 218.866 61.7676 218.592 61.9215C218.318 62.0723 217.953 62.1477 217.498 62.1477ZM217.646 61.169C218.083 61.169 218.452 61.0552 218.754 60.8274C219.055 60.5966 219.285 60.2781 219.441 59.8718C219.598 59.4625 219.677 58.9901 219.677 58.4545C219.677 57.9252 219.6 57.462 219.446 57.065C219.292 56.6649 219.064 56.354 218.763 56.1325C218.461 55.9078 218.089 55.7955 217.646 55.7955C217.184 55.7955 216.799 55.9139 216.492 56.1509C216.187 56.3848 215.958 56.7034 215.804 57.1065C215.653 57.5066 215.578 57.956 215.578 58.4545C215.578 58.9593 215.654 59.4179 215.808 59.8303C215.965 60.2396 216.196 60.5658 216.501 60.8089C216.809 61.049 217.19 61.169 217.646 61.169ZM222.895 62V54.9091H223.984V62H222.895ZM223.449 53.7273C223.236 53.7273 223.053 53.6549 222.899 53.5103C222.748 53.3656 222.673 53.1918 222.673 52.9886C222.673 52.7855 222.748 52.6116 222.899 52.467C223.053 52.3223 223.236 52.25 223.449 52.25C223.661 52.25 223.843 52.3223 223.993 52.467C224.147 52.6116 224.224 52.7855 224.224 52.9886C224.224 53.1918 224.147 53.3656 223.993 53.5103C223.843 53.6549 223.661 53.7273 223.449 53.7273ZM228.86 62.1477C228.195 62.1477 227.623 61.9908 227.143 61.6768C226.663 61.3629 226.294 60.9305 226.035 60.3796C225.776 59.8287 225.647 59.1993 225.647 58.4915C225.647 57.7713 225.78 57.1358 226.044 56.5849C226.312 56.0309 226.684 55.5985 227.161 55.2876C227.642 54.9737 228.202 54.8168 228.842 54.8168C229.34 54.8168 229.79 54.9091 230.19 55.0938C230.59 55.2784 230.918 55.5369 231.173 55.8693C231.429 56.2017 231.587 56.5895 231.649 57.0327H230.559C230.476 56.7095 230.291 56.4233 230.005 56.174C229.722 55.9216 229.34 55.7955 228.86 55.7955C228.436 55.7955 228.063 55.9062 227.743 56.1278C227.426 56.3464 227.178 56.6557 227 57.0558C226.824 57.4528 226.737 57.919 226.737 58.4545C226.737 59.0024 226.823 59.4794 226.995 59.8857C227.171 60.2919 227.417 60.6074 227.734 60.832C228.054 61.0567 228.429 61.169 228.86 61.169C229.143 61.169 229.4 61.1198 229.631 61.0213C229.862 60.9228 230.057 60.7812 230.218 60.5966C230.378 60.4119 230.491 60.1903 230.559 59.9318H231.649C231.587 60.3504 231.435 60.7274 231.192 61.0629C230.952 61.3952 230.633 61.6599 230.236 61.8569C229.842 62.0508 229.383 62.1477 228.86 62.1477ZM236.325 54.9091V55.8324H232.65V54.9091H236.325ZM233.721 53.2102H234.811V59.9688C234.811 60.2765 234.856 60.5073 234.945 60.6612C235.037 60.812 235.154 60.9136 235.296 60.9659C235.44 61.0152 235.593 61.0398 235.753 61.0398C235.873 61.0398 235.971 61.0336 236.048 61.0213C236.125 61.0059 236.187 60.9936 236.233 60.9844L236.454 61.9631C236.381 61.9908 236.277 62.0185 236.145 62.0462C236.013 62.0769 235.845 62.0923 235.642 62.0923C235.334 62.0923 235.032 62.0262 234.737 61.8938C234.445 61.7615 234.202 61.5599 234.008 61.2891C233.817 61.0182 233.721 60.6766 233.721 60.2642V53.2102ZM240.768 62.1477C240.128 62.1477 239.567 61.9954 239.083 61.6907C238.603 61.386 238.228 60.9598 237.957 60.4119C237.689 59.8641 237.555 59.224 237.555 58.4915C237.555 57.7528 237.689 57.1081 237.957 56.5572C238.228 56.0063 238.603 55.5785 239.083 55.2738C239.567 54.9691 240.128 54.8168 240.768 54.8168C241.409 54.8168 241.969 54.9691 242.449 55.2738C242.932 55.5785 243.308 56.0063 243.575 56.5572C243.846 57.1081 243.982 57.7528 243.982 58.4915C243.982 59.224 243.846 59.8641 243.575 60.4119C243.308 60.9598 242.932 61.386 242.449 61.6907C241.969 61.9954 241.409 62.1477 240.768 62.1477ZM240.768 61.169C241.255 61.169 241.655 61.0444 241.969 60.7951C242.283 60.5458 242.515 60.218 242.666 59.8118C242.817 59.4055 242.892 58.9654 242.892 58.4915C242.892 58.0175 242.817 57.5759 242.666 57.1665C242.515 56.7572 242.283 56.4264 241.969 56.174C241.655 55.9216 241.255 55.7955 240.768 55.7955C240.282 55.7955 239.882 55.9216 239.568 56.174C239.254 56.4264 239.022 56.7572 238.871 57.1665C238.72 57.5759 238.645 58.0175 238.645 58.4915C238.645 58.9654 238.72 59.4055 238.871 59.8118C239.022 60.218 239.254 60.5458 239.568 60.7951C239.882 61.0444 240.282 61.169 240.768 61.169ZM245.645 62V54.9091H246.697V55.9801H246.771C246.9 55.6293 247.134 55.3446 247.473 55.1261C247.811 54.9076 248.193 54.7983 248.618 54.7983C248.698 54.7983 248.798 54.7998 248.918 54.8029C249.038 54.806 249.129 54.8106 249.19 54.8168V55.9247C249.153 55.9155 249.069 55.9016 248.936 55.8832C248.807 55.8616 248.67 55.8509 248.525 55.8509C248.181 55.8509 247.873 55.9232 247.602 56.0678C247.334 56.2094 247.122 56.4064 246.965 56.6587C246.811 56.908 246.734 57.1927 246.734 57.5128V62H245.645ZM257.018 62.1477C256.378 62.1477 255.817 61.9954 255.333 61.6907C254.853 61.386 254.478 60.9598 254.207 60.4119C253.939 59.8641 253.805 59.224 253.805 58.4915C253.805 57.7528 253.939 57.1081 254.207 56.5572C254.478 56.0063 254.853 55.5785 255.333 55.2738C255.817 54.9691 256.378 54.8168 257.018 54.8168C257.659 54.8168 258.219 54.9691 258.699 55.2738C259.182 55.5785 259.558 56.0063 259.825 56.5572C260.096 57.1081 260.232 57.7528 260.232 58.4915C260.232 59.224 260.096 59.8641 259.825 60.4119C259.558 60.9598 259.182 61.386 258.699 61.6907C258.219 61.9954 257.659 62.1477 257.018 62.1477ZM257.018 61.169C257.505 61.169 257.905 61.0444 258.219 60.7951C258.533 60.5458 258.765 60.218 258.916 59.8118C259.067 59.4055 259.142 58.9654 259.142 58.4915C259.142 58.0175 259.067 57.5759 258.916 57.1665C258.765 56.7572 258.533 56.4264 258.219 56.174C257.905 55.9216 257.505 55.7955 257.018 55.7955C256.532 55.7955 256.132 55.9216 255.818 56.174C255.504 56.4264 255.272 56.7572 255.121 57.1665C254.97 57.5759 254.895 58.0175 254.895 58.4915C254.895 58.9654 254.97 59.4055 255.121 59.8118C255.272 60.218 255.504 60.5458 255.818 60.7951C256.132 61.0444 256.532 61.169 257.018 61.169ZM262.984 57.7344V62H261.895V54.9091H262.947V56.017H263.04C263.206 55.657 263.458 55.3677 263.797 55.1491C264.135 54.9276 264.572 54.8168 265.108 54.8168C265.588 54.8168 266.008 54.9152 266.368 55.1122C266.728 55.3061 267.008 55.6016 267.208 55.9986C267.408 56.3925 267.508 56.8911 267.508 57.4943V62H266.419V57.5682C266.419 57.0111 266.274 56.5772 265.985 56.2663C265.696 55.9524 265.299 55.7955 264.794 55.7955C264.446 55.7955 264.135 55.8709 263.861 56.0217C263.59 56.1725 263.377 56.3925 263.22 56.6818C263.063 56.9711 262.984 57.322 262.984 57.7344ZM275.242 62.1662C274.793 62.1662 274.385 62.0816 274.019 61.9123C273.652 61.7399 273.362 61.4922 273.146 61.169C272.931 60.8428 272.823 60.4489 272.823 59.9872C272.823 59.581 272.903 59.2517 273.063 58.9993C273.223 58.7438 273.437 58.5438 273.705 58.3991C273.972 58.2545 274.268 58.1468 274.591 58.076C274.917 58.0021 275.245 57.9437 275.574 57.9006C276.005 57.8452 276.355 57.8036 276.622 57.7759C276.893 57.7451 277.09 57.6944 277.213 57.6236C277.339 57.5528 277.403 57.4297 277.403 57.2543V57.2173C277.403 56.7618 277.278 56.4079 277.029 56.1555C276.782 55.9032 276.408 55.777 275.907 55.777C275.387 55.777 274.979 55.8909 274.683 56.1186C274.388 56.3464 274.18 56.5895 274.06 56.848L273.026 56.4787C273.211 56.0478 273.457 55.7124 273.765 55.4723C274.076 55.2292 274.414 55.0599 274.78 54.9645C275.15 54.866 275.513 54.8168 275.87 54.8168C276.098 54.8168 276.359 54.8445 276.655 54.8999C276.953 54.9522 277.241 55.0614 277.518 55.2276C277.798 55.3938 278.03 55.6446 278.215 55.9801C278.4 56.3156 278.492 56.7649 278.492 57.3281V62H277.403V61.0398H277.347C277.273 61.1937 277.15 61.3583 276.978 61.5337C276.805 61.7092 276.576 61.8584 276.29 61.9815C276.004 62.1046 275.654 62.1662 275.242 62.1662ZM275.408 61.1875C275.839 61.1875 276.202 61.1029 276.498 60.9336C276.796 60.7643 277.021 60.5458 277.172 60.2781C277.326 60.0103 277.403 59.7287 277.403 59.4332V58.4361C277.356 58.4915 277.255 58.5423 277.098 58.5884C276.944 58.6315 276.765 58.67 276.562 58.7038C276.362 58.7346 276.167 58.7623 275.976 58.7869C275.788 58.8085 275.636 58.8269 275.519 58.8423C275.236 58.8793 274.971 58.9393 274.725 59.0224C274.482 59.1024 274.285 59.224 274.134 59.3871C273.986 59.5471 273.912 59.7656 273.912 60.0426C273.912 60.4212 274.052 60.7074 274.333 60.9013C274.616 61.0921 274.974 61.1875 275.408 61.1875ZM281.57 57.7344V62H280.481V54.9091H281.533V56.017H281.625C281.792 55.657 282.044 55.3677 282.383 55.1491C282.721 54.9276 283.158 54.8168 283.694 54.8168C284.174 54.8168 284.594 54.9152 284.954 55.1122C285.314 55.3061 285.594 55.6016 285.794 55.9986C285.994 56.3925 286.094 56.8911 286.094 57.4943V62H285.005V57.5682C285.005 57.0111 284.86 56.5772 284.571 56.2663C284.281 55.9524 283.884 55.7955 283.38 55.7955C283.032 55.7955 282.721 55.8709 282.447 56.0217C282.176 56.1725 281.962 56.3925 281.805 56.6818C281.649 56.9711 281.57 57.322 281.57 57.7344ZM294.622 62.1477C293.982 62.1477 293.42 61.9954 292.937 61.6907C292.457 61.386 292.081 60.9598 291.811 60.4119C291.543 59.8641 291.409 59.224 291.409 58.4915C291.409 57.7528 291.543 57.1081 291.811 56.5572C292.081 56.0063 292.457 55.5785 292.937 55.2738C293.42 54.9691 293.982 54.8168 294.622 54.8168C295.262 54.8168 295.822 54.9691 296.302 55.2738C296.786 55.5785 297.161 56.0063 297.429 56.5572C297.7 57.1081 297.835 57.7528 297.835 58.4915C297.835 59.224 297.7 59.8641 297.429 60.4119C297.161 60.9598 296.786 61.386 296.302 61.6907C295.822 61.9954 295.262 62.1477 294.622 62.1477ZM294.622 61.169C295.108 61.169 295.508 61.0444 295.822 60.7951C296.136 60.5458 296.369 60.218 296.519 59.8118C296.67 59.4055 296.746 58.9654 296.746 58.4915C296.746 58.0175 296.67 57.5759 296.519 57.1665C296.369 56.7572 296.136 56.4264 295.822 56.174C295.508 55.9216 295.108 55.7955 294.622 55.7955C294.136 55.7955 293.736 55.9216 293.422 56.174C293.108 56.4264 292.875 56.7572 292.725 57.1665C292.574 57.5759 292.498 58.0175 292.498 58.4915C292.498 58.9654 292.574 59.4055 292.725 59.8118C292.875 60.218 293.108 60.5458 293.422 60.7951C293.736 61.0444 294.136 61.169 294.622 61.169ZM303.967 59.1009V54.9091H305.056V62H303.967V60.7997H303.893C303.727 61.1598 303.468 61.466 303.117 61.7184C302.767 61.9677 302.323 62.0923 301.788 62.0923C301.345 62.0923 300.951 61.9954 300.606 61.8015C300.261 61.6045 299.991 61.3091 299.794 60.9151C299.597 60.5181 299.498 60.018 299.498 59.4148V54.9091H300.588V59.3409C300.588 59.858 300.732 60.2704 301.022 60.5781C301.314 60.8859 301.686 61.0398 302.139 61.0398C302.41 61.0398 302.685 60.9705 302.965 60.832C303.248 60.6935 303.485 60.4812 303.676 60.195C303.87 59.9087 303.967 59.544 303.967 59.1009ZM310.136 54.9091V55.8324H306.461V54.9091H310.136ZM307.532 53.2102H308.621V59.9688C308.621 60.2765 308.666 60.5073 308.755 60.6612C308.848 60.812 308.965 60.9136 309.106 60.9659C309.251 61.0152 309.403 61.0398 309.563 61.0398C309.683 61.0398 309.782 61.0336 309.859 61.0213C309.936 61.0059 309.997 60.9936 310.043 60.9844L310.265 61.9631C310.191 61.9908 310.088 62.0185 309.956 62.0462C309.823 62.0769 309.656 62.0923 309.452 62.0923C309.145 62.0923 308.843 62.0262 308.548 61.8938C308.255 61.7615 308.012 61.5599 307.818 61.2891C307.627 61.0182 307.532 60.6766 307.532 60.2642V53.2102ZM314.579 62.1477C313.914 62.1477 313.342 61.9908 312.862 61.6768C312.382 61.3629 312.012 60.9305 311.754 60.3796C311.495 59.8287 311.366 59.1993 311.366 58.4915C311.366 57.7713 311.498 57.1358 311.763 56.5849C312.031 56.0309 312.403 55.5985 312.88 55.2876C313.36 54.9737 313.92 54.8168 314.561 54.8168C315.059 54.8168 315.508 54.9091 315.909 55.0938C316.309 55.2784 316.636 55.5369 316.892 55.8693C317.147 56.2017 317.306 56.5895 317.367 57.0327H316.278C316.195 56.7095 316.01 56.4233 315.724 56.174C315.441 55.9216 315.059 55.7955 314.579 55.7955C314.154 55.7955 313.782 55.9062 313.462 56.1278C313.145 56.3464 312.897 56.6557 312.719 57.0558C312.543 57.4528 312.455 57.919 312.455 58.4545C312.455 59.0024 312.542 59.4794 312.714 59.8857C312.889 60.2919 313.136 60.6074 313.453 60.832C313.773 61.0567 314.148 61.169 314.579 61.169C314.862 61.169 315.119 61.1198 315.35 61.0213C315.581 60.9228 315.776 60.7812 315.936 60.5966C316.096 60.4119 316.21 60.1903 316.278 59.9318H317.367C317.306 60.3504 317.153 60.7274 316.91 61.0629C316.67 61.3952 316.352 61.6599 315.955 61.8569C315.561 62.0508 315.102 62.1477 314.579 62.1477ZM321.841 62.1477C321.201 62.1477 320.639 61.9954 320.156 61.6907C319.676 61.386 319.3 60.9598 319.029 60.4119C318.762 59.8641 318.628 59.224 318.628 58.4915C318.628 57.7528 318.762 57.1081 319.029 56.5572C319.3 56.0063 319.676 55.5785 320.156 55.2738C320.639 54.9691 321.201 54.8168 321.841 54.8168C322.481 54.8168 323.041 54.9691 323.521 55.2738C324.004 55.5785 324.38 56.0063 324.648 56.5572C324.918 57.1081 325.054 57.7528 325.054 58.4915C325.054 59.224 324.918 59.8641 324.648 60.4119C324.38 60.9598 324.004 61.386 323.521 61.6907C323.041 61.9954 322.481 62.1477 321.841 62.1477ZM321.841 61.169C322.327 61.169 322.727 61.0444 323.041 60.7951C323.355 60.5458 323.587 60.218 323.738 59.8118C323.889 59.4055 323.964 58.9654 323.964 58.4915C323.964 58.0175 323.889 57.5759 323.738 57.1665C323.587 56.7572 323.355 56.4264 323.041 56.174C322.727 55.9216 322.327 55.7955 321.841 55.7955C321.354 55.7955 320.954 55.9216 320.64 56.174C320.327 56.4264 320.094 56.7572 319.943 57.1665C319.793 57.5759 319.717 58.0175 319.717 58.4915C319.717 58.9654 319.793 59.4055 319.943 59.8118C320.094 60.218 320.327 60.5458 320.64 60.7951C320.954 61.0444 321.354 61.169 321.841 61.169ZM326.717 62V54.9091H327.769V56.017H327.862C328.009 55.6385 328.248 55.3446 328.577 55.1353C328.907 54.9229 329.302 54.8168 329.764 54.8168C330.232 54.8168 330.621 54.9229 330.932 55.1353C331.246 55.3446 331.49 55.6385 331.666 56.017H331.74C331.921 55.6508 332.194 55.36 332.557 55.1445C332.92 54.926 333.355 54.8168 333.863 54.8168C334.497 54.8168 335.016 55.0153 335.419 55.4123C335.822 55.8062 336.024 56.4202 336.024 57.2543V62H334.934V57.2543C334.934 56.7311 334.791 56.3571 334.505 56.1325C334.219 55.9078 333.882 55.7955 333.494 55.7955C332.995 55.7955 332.609 55.9463 332.335 56.2479C332.061 56.5464 331.924 56.925 331.924 57.3835V62H330.816V57.1435C330.816 56.7403 330.686 56.4156 330.424 56.1694C330.162 55.9201 329.825 55.7955 329.413 55.7955C329.13 55.7955 328.865 55.8709 328.619 56.0217C328.376 56.1725 328.179 56.3817 328.028 56.6495C327.88 56.9142 327.806 57.2204 327.806 57.5682V62H326.717ZM340.989 62.1477C340.305 62.1477 339.716 61.9969 339.221 61.6953C338.728 61.3906 338.348 60.9659 338.08 60.4212C337.816 59.8733 337.683 59.2363 337.683 58.5099C337.683 57.7836 337.816 57.1435 338.08 56.5895C338.348 56.0324 338.72 55.5985 339.198 55.2876C339.678 54.9737 340.238 54.8168 340.878 54.8168C341.247 54.8168 341.612 54.8783 341.972 55.0014C342.332 55.1245 342.66 55.3246 342.955 55.6016C343.251 55.8755 343.486 56.2386 343.662 56.6911C343.837 57.1435 343.925 57.7005 343.925 58.3622V58.8239H338.459V57.8821H342.817C342.817 57.482 342.737 57.125 342.577 56.8111C342.42 56.4972 342.195 56.2494 341.903 56.0678C341.613 55.8862 341.272 55.7955 340.878 55.7955C340.444 55.7955 340.069 55.9032 339.752 56.1186C339.438 56.331 339.196 56.608 339.027 56.9496C338.857 57.2912 338.773 57.6574 338.773 58.0483V58.6761C338.773 59.2116 338.865 59.6656 339.05 60.038C339.238 60.4073 339.498 60.6889 339.83 60.8828C340.162 61.0736 340.549 61.169 340.989 61.169C341.275 61.169 341.533 61.129 341.764 61.049C341.998 60.9659 342.2 60.8428 342.369 60.6797C342.538 60.5135 342.669 60.3073 342.761 60.0611L343.814 60.3565C343.703 60.7135 343.517 61.0275 343.255 61.2983C342.994 61.5661 342.671 61.7753 342.286 61.9261C341.901 62.0739 341.469 62.1477 340.989 62.1477ZM346.376 62.0739C346.148 62.0739 345.953 61.9923 345.79 61.8292C345.627 61.6661 345.545 61.4706 345.545 61.2429C345.545 61.0152 345.627 60.8197 345.79 60.6566C345.953 60.4935 346.148 60.4119 346.376 60.4119C346.604 60.4119 346.799 60.4935 346.962 60.6566C347.126 60.8197 347.207 61.0152 347.207 61.2429C347.207 61.3937 347.169 61.5322 347.092 61.6584C347.018 61.7846 346.918 61.8861 346.792 61.9631C346.669 62.0369 346.53 62.0739 346.376 62.0739Z" fill="#686E67"/>
<path d="M109 80C109 78.6193 110.119 77.5 111.5 77.5H272.5C273.881 77.5 275 78.6193 275 80V106C275 107.381 273.881 108.5 272.5 108.5H111.5C110.119 108.5 109 107.381 109 106V80Z" fill="#F5F7F5"/>
<path d="M109 80C109 78.6193 110.119 77.5 111.5 77.5H272.5C273.881 77.5 275 78.6193 275 80V106C275 107.381 273.881 108.5 272.5 108.5H111.5C110.119 108.5 109 107.381 109 106V80Z" stroke="#CCCFCC"/>
<path fill-rule="evenodd" clip-rule="evenodd" d="M125.639 89.9941C125.827 90.1816 125.827 90.4855 125.639 90.6729L123.792 92.5202H133.208L131.361 90.6729C131.173 90.4855 131.173 90.1816 131.361 89.9941C131.548 89.8067 131.852 89.8067 132.039 89.9941L134.706 92.6608C134.894 92.8482 134.894 93.1521 134.706 93.3396L132.039 96.0063C131.852 96.1937 131.548 96.1937 131.361 96.0063C131.173 95.8188 131.173 95.5149 131.361 95.3274L133.208 93.4802H123.792L125.639 95.3274C125.827 95.5149 125.827 95.8188 125.639 96.0063C125.452 96.1937 125.148 96.1937 124.961 96.0063L122.294 93.3396C122.106 93.1521 122.106 92.8482 122.294 92.6608L124.961 89.9941C125.148 89.8067 125.452 89.8067 125.639 89.9941Z" fill="#717A6D"/>
<path d="M149.829 91.0742C149.787 90.6992 149.612 90.4076 149.302 90.1992C148.992 89.9909 148.605 89.8867 148.142 89.8867C147.806 89.8867 147.514 89.9401 147.267 90.0469C147.022 90.151 146.832 90.2956 146.696 90.4805C146.563 90.6654 146.496 90.875 146.493 91.1094C146.493 91.3047 146.54 91.4727 146.634 91.6133C146.728 91.7539 146.849 91.8724 146.997 91.9687C147.148 92.0625 147.31 92.1406 147.481 92.2031C147.653 92.263 147.816 92.3125 147.97 92.3516L148.759 92.5586C149.004 92.6185 149.259 92.7018 149.524 92.8086C149.79 92.9128 150.037 93.0508 150.267 93.2227C150.498 93.3945 150.686 93.6094 150.829 93.8672C150.975 94.125 151.048 94.4362 151.048 94.8008C151.048 95.2461 150.932 95.6445 150.7 95.9961C150.471 96.3477 150.136 96.625 149.696 96.8281C149.259 97.0313 148.728 97.1328 148.103 97.1328C147.511 97.1328 147 97.0391 146.567 96.8516C146.135 96.6641 145.795 96.3984 145.548 96.0547C145.303 95.7083 145.168 95.2982 145.142 94.8242H146.302C146.325 95.1185 146.42 95.362 146.587 95.5547C146.756 95.7448 146.972 95.8867 147.235 95.9805C147.498 96.0742 147.786 96.1211 148.099 96.1211C148.448 96.1211 148.759 96.0664 149.032 95.957C149.306 95.8451 149.522 95.6888 149.681 95.4883C149.84 95.2878 149.919 95.0534 149.919 94.7852C149.919 94.543 149.85 94.3438 149.712 94.1875C149.574 94.0312 149.389 93.9036 149.157 93.8047C148.925 93.7057 148.668 93.6172 148.384 93.5391L147.427 93.2773C146.789 93.1003 146.284 92.8437 145.911 92.5078C145.541 92.1693 145.356 91.724 145.356 91.1719C145.356 90.7161 145.48 90.3177 145.728 89.9766C145.978 89.6328 146.315 89.3659 146.739 89.1758C147.164 88.9857 147.64 88.8906 148.169 88.8906C148.703 88.8906 149.175 88.9857 149.587 89.1758C149.998 89.3633 150.324 89.6211 150.563 89.9492C150.803 90.2773 150.928 90.6523 150.938 91.0742H149.829ZM155.176 91V91.8984H151.938V91H155.176ZM152.824 89.5625H153.93V95.25C153.93 95.4844 153.965 95.6602 154.035 95.7773C154.105 95.8945 154.197 95.974 154.309 96.0156C154.421 96.0573 154.54 96.0781 154.668 96.0781C154.764 96.0781 154.846 96.0716 154.914 96.0586C154.984 96.0456 155.039 96.0352 155.078 96.0273L155.285 96.957C155.217 96.9831 155.122 97.0091 155 97.0352C154.878 97.0638 154.725 97.0781 154.543 97.0781C154.249 97.0833 153.97 97.0286 153.707 96.9141C153.444 96.7995 153.23 96.6237 153.066 96.3867C152.905 96.1497 152.824 95.8516 152.824 95.4922V89.5625ZM158.243 97.1328C157.863 97.1328 157.519 97.0625 157.212 96.9219C156.905 96.7786 156.661 96.5716 156.481 96.3008C156.302 96.0273 156.212 95.6953 156.212 95.3047C156.212 94.9635 156.277 94.6849 156.407 94.4687C156.54 94.25 156.717 94.0781 156.938 93.9531C157.162 93.8255 157.411 93.7305 157.685 93.668C157.958 93.6029 158.237 93.5521 158.521 93.5156C158.88 93.474 159.172 93.4401 159.396 93.4141C159.619 93.3854 159.784 93.3411 159.888 93.2812C159.992 93.2188 160.044 93.1159 160.044 92.9727V92.9453C160.044 92.5937 159.945 92.3216 159.747 92.1289C159.552 91.9336 159.26 91.8359 158.872 91.8359C158.466 91.8359 158.147 91.9245 157.915 92.1016C157.683 92.2786 157.523 92.474 157.435 92.6875L156.392 92.4219C156.53 92.0573 156.725 91.7656 156.978 91.5469C157.23 91.3255 157.518 91.1667 157.841 91.0703C158.166 90.9714 158.502 90.9219 158.849 90.9219C159.078 90.9219 159.324 90.9492 159.587 91.0039C159.853 91.056 160.104 91.1562 160.341 91.3047C160.578 91.4505 160.772 91.6615 160.923 91.9375C161.074 92.2135 161.149 92.5755 161.149 93.0234V97H160.063V96.1836H160.017C159.946 96.3268 159.836 96.4727 159.685 96.6211C159.536 96.7669 159.342 96.8893 159.103 96.9883C158.866 97.0846 158.579 97.1328 158.243 97.1328ZM158.47 96.2266C158.803 96.2266 159.087 96.1615 159.321 96.0312C159.558 95.8984 159.738 95.7266 159.86 95.5156C159.983 95.3021 160.044 95.0755 160.044 94.8359V94.043C160.002 94.0872 159.92 94.1276 159.798 94.1641C159.678 94.1979 159.54 94.2279 159.384 94.2539C159.23 94.2799 159.079 94.3021 158.931 94.3203C158.782 94.3385 158.66 94.3542 158.563 94.3672C158.334 94.3984 158.123 94.4479 157.931 94.5156C157.738 94.5833 157.584 94.6823 157.47 94.8125C157.355 94.9401 157.298 95.1107 157.298 95.3242C157.298 95.6211 157.407 95.8464 157.626 96C157.847 96.151 158.129 96.2266 158.47 96.2266ZM162.734 97V91H163.805V91.9414H163.867C163.977 91.6263 164.171 91.3763 164.449 91.1914C164.728 91.0039 165.044 90.9102 165.398 90.9102C165.469 90.9102 165.553 90.9128 165.652 90.918C165.754 90.9206 165.833 90.9258 165.891 90.9336V92.0078C165.849 91.9948 165.77 91.9805 165.652 91.9648C165.535 91.9466 165.415 91.9375 165.293 91.9375C165.014 91.9375 164.766 91.9961 164.547 92.1133C164.328 92.2305 164.155 92.3919 164.027 92.5977C163.902 92.8034 163.84 93.0391 163.84 93.3047V97H162.734ZM170.043 91V91.8984H166.805V91H170.043ZM167.691 89.5625H168.797V95.25C168.797 95.4844 168.832 95.6602 168.902 95.7773C168.973 95.8945 169.064 95.974 169.176 96.0156C169.288 96.0573 169.408 96.0781 169.535 96.0781C169.632 96.0781 169.714 96.0716 169.781 96.0586C169.852 96.0456 169.906 96.0352 169.945 96.0273L170.152 96.957C170.085 96.9831 169.99 97.0091 169.867 97.0352C169.745 97.0638 169.592 97.0781 169.41 97.0781C169.116 97.0833 168.837 97.0286 168.574 96.9141C168.311 96.7995 168.098 96.6237 167.934 96.3867C167.772 96.1497 167.691 95.8516 167.691 95.4922V89.5625ZM180.846 89V97H179.775L175.639 91.0313H175.564V97H174.416V89H175.486L179.635 94.9805H179.709V89H180.846ZM185.109 97.1211C184.523 97.1211 184.018 96.9948 183.594 96.7422C183.169 96.487 182.842 96.1289 182.613 95.668C182.384 95.2044 182.27 94.6628 182.27 94.043C182.27 93.4284 182.384 92.8867 182.613 92.418C182.842 91.9466 183.163 91.5794 183.574 91.3164C183.988 91.0534 184.471 90.9219 185.023 90.9219C185.357 90.9219 185.68 90.9766 185.992 91.0859C186.307 91.1953 186.591 91.3698 186.844 91.6094C187.096 91.8464 187.296 92.1562 187.441 92.5391C187.59 92.9219 187.664 93.3867 187.664 93.9336V94.3398H182.93V93.4844H186.57C186.568 93.1719 186.503 92.8932 186.375 92.6484C186.25 92.401 186.072 92.207 185.84 92.0664C185.611 91.9232 185.341 91.8516 185.031 91.8516C184.693 91.8516 184.398 91.9349 184.148 92.1016C183.901 92.2656 183.71 92.4805 183.574 92.7461C183.439 93.0117 183.371 93.2982 183.371 93.6055V94.25C183.371 94.6641 183.444 95.0156 183.59 95.3047C183.736 95.5937 183.939 95.8138 184.199 95.9648C184.462 96.1159 184.768 96.1914 185.117 96.1914C185.346 96.1914 185.553 96.1589 185.738 96.0937C185.923 96.0286 186.083 95.931 186.219 95.8008C186.354 95.6706 186.458 95.5091 186.531 95.3164L187.582 95.5273C187.493 95.8477 187.336 96.1276 187.109 96.3672C186.883 96.6068 186.6 96.793 186.262 96.9258C185.923 97.056 185.539 97.1211 185.109 97.1211ZM190.29 97L188.513 91H189.657L190.864 95.4531H190.923L192.13 91H193.278L194.474 95.4336H194.536L195.735 91H196.884L195.103 97H193.985L192.743 92.5977H192.653L191.411 97H190.29ZM207.657 91.5742H206.505C206.453 91.3112 206.362 91.0794 206.231 90.8789C206.101 90.6758 205.941 90.5052 205.751 90.3672C205.563 90.2266 205.353 90.1211 205.118 90.0508C204.886 89.9805 204.642 89.9453 204.384 89.9453C203.918 89.9453 203.498 90.0625 203.126 90.2969C202.756 90.5312 202.463 90.8763 202.247 91.332C202.034 91.7852 201.927 92.3411 201.927 93C201.927 93.6615 202.035 94.2201 202.251 94.6758C202.467 95.1289 202.76 95.4727 203.13 95.707C203.5 95.9388 203.918 96.0547 204.384 96.0547C204.639 96.0547 204.882 96.0208 205.114 95.9531C205.346 95.8828 205.556 95.7786 205.743 95.6406C205.933 95.5026 206.095 95.3333 206.228 95.1328C206.36 94.9323 206.453 94.7018 206.505 94.4414L207.657 94.4453C207.592 94.8437 207.465 95.207 207.274 95.5352C207.087 95.8607 206.849 96.1419 206.56 96.3789C206.273 96.6133 205.945 96.7943 205.575 96.9219C205.205 97.0469 204.806 97.1094 204.376 97.1094C203.686 97.1094 203.071 96.944 202.532 96.6133C201.993 96.2826 201.569 95.8099 201.259 95.1953C200.949 94.5807 200.794 93.849 200.794 93C200.794 92.1484 200.949 91.4167 201.259 90.8047C201.571 90.1901 201.997 89.7174 202.536 89.3867C203.075 89.056 203.688 88.8906 204.376 88.8906C204.795 88.8906 205.187 88.9505 205.552 89.0703C205.919 89.1901 206.248 89.3659 206.54 89.5977C206.832 89.8294 207.074 90.1107 207.267 90.4414C207.459 90.7721 207.59 91.1497 207.657 91.5742ZM211.537 97.1211C210.98 97.1211 210.493 96.9922 210.076 96.7344C209.66 96.4766 209.335 96.1159 209.104 95.6523C208.874 95.1888 208.76 94.6471 208.76 94.0273C208.76 93.4049 208.874 92.8607 209.104 92.3945C209.335 91.9284 209.66 91.5664 210.076 91.3086C210.493 91.0508 210.98 90.9219 211.537 90.9219C212.094 90.9219 212.581 91.0508 212.998 91.3086C213.415 91.5664 213.738 91.9284 213.967 92.3945C214.199 92.8607 214.314 93.4049 214.314 94.0273C214.314 94.6471 214.199 95.1888 213.967 95.6523C213.738 96.1159 213.415 96.4766 212.998 96.7344C212.581 96.9922 212.094 97.1211 211.537 97.1211ZM211.541 96.1797C211.916 96.1797 212.226 96.0807 212.471 95.8828C212.718 95.6849 212.902 95.4232 213.021 95.0977C213.141 94.7721 213.201 94.4154 213.201 94.0273C213.201 93.6393 213.141 93.2812 213.021 92.9531C212.902 92.625 212.718 92.3607 212.471 92.1602C212.226 91.9596 211.916 91.8594 211.541 91.8594C211.161 91.8594 210.847 91.9596 210.6 92.1602C210.355 92.3607 210.173 92.625 210.053 92.9531C209.933 93.2812 209.873 93.6393 209.873 94.0273C209.873 94.4154 209.933 94.7721 210.053 95.0977C210.173 95.4232 210.355 95.6849 210.6 95.8828C210.847 96.0807 211.161 96.1797 211.541 96.1797ZM215.64 97V91H216.702V91.9687H216.776C216.901 91.6406 217.104 91.3841 217.386 91.1992C217.67 91.0143 218.009 90.9219 218.405 90.9219C218.804 90.9219 219.138 91.0143 219.409 91.1992C219.68 91.3841 219.883 91.6406 220.019 91.9687H220.081C220.227 91.6484 220.455 91.3945 220.765 91.207C221.075 91.0169 221.446 90.9219 221.878 90.9219C222.422 90.9219 222.866 91.0924 223.21 91.4336C223.554 91.7721 223.726 92.2878 223.726 92.9805V97H222.616V93.0625C222.616 92.6458 222.503 92.3464 222.276 92.1641C222.052 91.9792 221.784 91.8867 221.472 91.8867C221.078 91.8867 220.774 92.0065 220.558 92.2461C220.341 92.4831 220.233 92.7865 220.233 93.1562V97H219.128V92.9805C219.128 92.6523 219.024 92.388 218.815 92.1875C218.607 91.987 218.338 91.8867 218.007 91.8867C217.783 91.8867 217.575 91.9466 217.382 92.0664C217.189 92.1836 217.034 92.3477 216.917 92.5586C216.802 92.7669 216.745 93.0104 216.745 93.2891V97H215.64ZM225.318 99.25V91H226.396V91.9687H226.494C226.564 91.849 226.662 91.707 226.787 91.543C226.912 91.3789 227.088 91.2344 227.314 91.1094C227.544 90.9844 227.846 90.9219 228.221 90.9219C228.71 90.9219 229.145 91.0456 229.525 91.293C229.908 91.5378 230.208 91.8919 230.424 92.3555C230.643 92.8164 230.752 93.3685 230.752 94.0117C230.752 94.6576 230.644 95.2122 230.428 95.6758C230.212 96.1393 229.913 96.4961 229.533 96.7461C229.156 96.9935 228.722 97.1172 228.232 97.1172C227.863 97.1172 227.563 97.056 227.334 96.9336C227.105 96.8086 226.925 96.6641 226.795 96.5C226.665 96.3359 226.564 96.1927 226.494 96.0703H226.424V99.25H225.318ZM226.404 94C226.404 94.4297 226.465 94.8073 226.588 95.1328C226.713 95.4557 226.894 95.7083 227.131 95.8906C227.37 96.0729 227.662 96.1641 228.006 96.1641C228.365 96.1641 228.665 96.069 228.904 95.8789C229.146 95.6888 229.329 95.431 229.451 95.1055C229.574 94.7773 229.635 94.4089 229.635 94C229.635 93.5964 229.575 93.2344 229.455 92.9141C229.335 92.5937 229.154 92.3411 228.912 92.1562C228.67 91.9687 228.368 91.875 228.006 91.875C227.66 91.875 227.367 91.9635 227.127 92.1406C226.89 92.3177 226.71 92.5664 226.588 92.8867C226.465 93.2044 226.404 93.5755 226.404 94ZM233.836 97.1328C233.456 97.1328 233.112 97.0625 232.805 96.9219C232.497 96.7786 232.254 96.5716 232.074 96.3008C231.895 96.0273 231.805 95.6953 231.805 95.3047C231.805 94.9635 231.87 94.6849 232 94.4687C232.133 94.25 232.31 94.0781 232.531 93.9531C232.755 93.8255 233.004 93.7305 233.277 93.668C233.551 93.6029 233.829 93.5521 234.113 93.5156C234.473 93.474 234.764 93.4401 234.988 93.4141C235.212 93.3854 235.376 93.3411 235.48 93.2812C235.585 93.2188 235.637 93.1159 235.637 92.9727V92.9453C235.637 92.5937 235.538 92.3216 235.34 92.1289C235.145 91.9336 234.853 91.8359 234.465 91.8359C234.059 91.8359 233.74 91.9245 233.508 92.1016C233.276 92.2786 233.116 92.474 233.027 92.6875L231.984 92.4219C232.122 92.0573 232.318 91.7656 232.57 91.5469C232.823 91.3255 233.111 91.1667 233.434 91.0703C233.759 90.9714 234.095 90.9219 234.441 90.9219C234.671 90.9219 234.917 90.9492 235.18 91.0039C235.445 91.056 235.697 91.1562 235.934 91.3047C236.171 91.4505 236.365 91.6615 236.516 91.9375C236.667 92.2135 236.742 92.5755 236.742 93.0234V97H235.656V96.1836H235.609C235.539 96.3268 235.428 96.4727 235.277 96.6211C235.129 96.7669 234.935 96.8893 234.695 96.9883C234.458 97.0846 234.172 97.1328 233.836 97.1328ZM234.063 96.2266C234.396 96.2266 234.68 96.1615 234.914 96.0312C235.151 95.8984 235.331 95.7266 235.453 95.5156C235.576 95.3021 235.637 95.0755 235.637 94.8359V94.043C235.595 94.0872 235.513 94.1276 235.391 94.1641C235.271 94.1979 235.133 94.2279 234.977 94.2539C234.823 94.2799 234.672 94.3021 234.523 94.3203C234.375 94.3385 234.253 94.3542 234.156 94.3672C233.927 94.3984 233.716 94.4479 233.523 94.5156C233.331 94.5833 233.177 94.6823 233.062 94.8125C232.948 94.9401 232.891 95.1107 232.891 95.3242C232.891 95.6211 233 95.8464 233.219 96C233.44 96.151 233.721 96.2266 234.063 96.2266ZM238.327 97V91H239.397V91.9414H239.46C239.569 91.6263 239.763 91.3763 240.042 91.1914C240.321 91.0039 240.637 90.9102 240.991 90.9102C241.062 90.9102 241.146 90.9128 241.245 90.918C241.347 90.9206 241.426 90.9258 241.483 90.9336V92.0078C241.442 91.9948 241.362 91.9805 241.245 91.9648C241.128 91.9466 241.008 91.9375 240.886 91.9375C240.607 91.9375 240.358 91.9961 240.14 92.1133C239.921 92.2305 239.748 92.3919 239.62 92.5977C239.495 92.8034 239.433 93.0391 239.433 93.3047V97H238.327ZM242.527 97V91H243.633V97H242.527ZM243.086 90.0547C242.891 90.0547 242.721 89.9883 242.578 89.8555C242.438 89.7227 242.367 89.5638 242.367 89.3789C242.367 89.1914 242.438 89.0312 242.578 88.8984C242.721 88.7656 242.891 88.6992 243.086 88.6992C243.284 88.6992 243.453 88.7656 243.594 88.8984C243.734 89.0312 243.805 89.1914 243.805 89.3789C243.805 89.5638 243.734 89.7227 243.594 89.8555C243.453 89.9883 243.284 90.0547 243.086 90.0547ZM249.668 92.4336L248.668 92.6328C248.621 92.4974 248.549 92.3672 248.453 92.2422C248.357 92.1172 248.227 92.0156 248.063 91.9375C247.898 91.8568 247.691 91.8164 247.441 91.8164C247.103 91.8164 246.819 91.8932 246.59 92.0469C246.363 92.1979 246.251 92.3919 246.254 92.6289C246.251 92.8372 246.327 93.0039 246.48 93.1289C246.634 93.2539 246.879 93.3568 247.215 93.4375L248.156 93.6562C248.703 93.7839 249.111 93.9818 249.379 94.25C249.65 94.5156 249.785 94.8594 249.785 95.2812C249.785 95.638 249.682 95.9557 249.477 96.2344C249.271 96.5104 248.986 96.7279 248.621 96.8867C248.259 97.043 247.839 97.1211 247.359 97.1211C246.701 97.1211 246.161 96.9805 245.742 96.6992C245.326 96.418 245.068 96.0143 244.969 95.4883L246.031 95.3008C246.107 95.6055 246.255 95.8346 246.477 95.9883C246.701 96.1393 246.991 96.2148 247.348 96.2148C247.743 96.2148 248.059 96.1315 248.293 95.9648C248.527 95.7982 248.645 95.5964 248.645 95.3594C248.645 95.1641 248.574 95.0013 248.434 94.8711C248.293 94.7409 248.077 94.6419 247.785 94.5742L246.777 94.3477C246.217 94.2227 245.806 94.0208 245.543 93.7422C245.28 93.4635 245.148 93.112 245.148 92.6875C245.148 92.3385 245.246 92.0312 245.441 91.7656C245.637 91.5 245.906 91.293 246.25 91.1445C246.596 90.9961 246.991 90.9219 247.434 90.9219C248.069 90.9219 248.569 91.0599 248.934 91.3359C249.298 91.6094 249.543 91.9753 249.668 92.4336ZM253.593 97.1211C253.035 97.1211 252.549 96.9922 252.132 96.7344C251.715 96.4766 251.391 96.1159 251.159 95.6523C250.93 95.1888 250.815 94.6471 250.815 94.0273C250.815 93.4049 250.93 92.8607 251.159 92.3945C251.391 91.9284 251.715 91.5664 252.132 91.3086C252.549 91.0508 253.035 90.9219 253.593 90.9219C254.15 90.9219 254.637 91.0508 255.054 91.3086C255.47 91.5664 255.793 91.9284 256.022 92.3945C256.254 92.8607 256.37 93.4049 256.37 94.0273C256.37 94.6471 256.254 95.1888 256.022 95.6523C255.793 96.1159 255.47 96.4766 255.054 96.7344C254.637 96.9922 254.15 97.1211 253.593 97.1211ZM253.597 96.1797C253.972 96.1797 254.282 96.0807 254.526 95.8828C254.774 95.6849 254.957 95.4232 255.077 95.0977C255.197 94.7721 255.257 94.4154 255.257 94.0273C255.257 93.6393 255.197 93.2812 255.077 92.9531C254.957 92.625 254.774 92.3607 254.526 92.1602C254.282 91.9596 253.972 91.8594 253.597 91.8594C253.216 91.8594 252.903 91.9596 252.655 92.1602C252.41 92.3607 252.228 92.625 252.108 92.9531C251.989 93.2812 251.929 93.6393 251.929 94.0273C251.929 94.4154 251.989 94.7721 252.108 95.0977C252.228 95.4232 252.41 95.6849 252.655 95.8828C252.903 96.0807 253.216 96.1797 253.597 96.1797ZM258.801 93.4258V97H257.695V91H258.758V91.9687H258.832C258.973 91.651 259.189 91.3971 259.48 91.207C259.775 91.0169 260.147 90.9219 260.598 90.9219C261.007 90.9219 261.363 91.0065 261.668 91.1758C261.975 91.3451 262.214 91.5977 262.383 91.9336C262.555 92.2695 262.639 92.6862 262.637 93.1836V97H261.531V93.3047C261.531 92.8594 261.415 92.5117 261.184 92.2617C260.954 92.0117 260.638 91.8867 260.234 91.8867C259.958 91.8867 259.712 91.9479 259.496 92.0703C259.28 92.1901 259.109 92.3646 258.984 92.5937C258.862 92.8229 258.801 93.1003 258.801 93.4258Z" fill="#464D45"/>
</svg>
