<svg xmlns="http://www.w3.org/2000/svg" width="16" height="16" viewBox="152.0 98.0 16 16" fill="none">
<path d="M158 100L156 101L155 102L154 104V108L155 110L156 111L158 112H162L164 111L165 110L166 108V104L165 102L164 101L162 100H158Z" fill="var(--icon-component)"/>
<path d="M158 102H159V105H158V102ZM161 102H162V105H161V102ZM162 110H158V109H162V110ZM163 109H162V108H163V109ZM158 109H157V108H158V109ZM157 108H156V107H157V108ZM164 108H163V107H164V108ZM153 104H154V108H153V104ZM154 102H155V104H154V102ZM155 101H156V102H155V101ZM156 100H158V101H156V100ZM158 99H162V100H158V99ZM162 100H164V101H162V100ZM164 101H165V102H164V101ZM165 102H166V104H165V102ZM166 104H167V108H166V104ZM165 108H166V110H165V108ZM164 110H165V111H164V110ZM162 111H164V112H162V111ZM158 112H162V113H158V112ZM156 111H158V112H156V111ZM155 110H156V111H155V110ZM154 108H155V110H154V108Z" fill="var(--icon-accent)"/>
</svg>