<svg preserveAspectRatio="none" overflow="visible" style="display: block;" width="16" height="16" viewBox="0 0 16 16" fill="none" xmlns="http://www.w3.org/2000/svg">
<g id="magnifying-glass">
<path id="Vector" fill-rule="evenodd" clip-rule="evenodd" d="M10.6667 6.93333C10.6667 8.9952 8.9952 10.6667 6.93333 10.6667C4.87147 10.6667 3.2 8.9952 3.2 6.93333C3.2 4.87147 4.87147 3.2 6.93333 3.2C8.9952 3.2 10.6667 4.87147 10.6667 6.93333ZM9.92943 10.6836C9.10828 11.3406 8.06668 11.7333 6.93333 11.7333C4.28237 11.7333 2.13333 9.5843 2.13333 6.93333C2.13333 4.28237 4.28237 2.13333 6.93333 2.13333C9.5843 2.13333 11.7333 4.28237 11.7333 6.93333C11.7333 8.06668 11.3406 9.10828 10.6836 9.92943L13.7105 12.9562C13.9187 13.1645 13.9187 13.5022 13.7105 13.7105C13.5022 13.9187 13.1645 13.9187 12.9562 13.7105L9.92943 10.6836Z" fill="var(--icon-hint)"/>
</g>
</svg>
