<svg xmlns="http://www.w3.org/2000/svg" width="608" height="384" fill="none" viewBox="0 0 608 384" class="portfolio-widget"><path d="M.5 6A5.5 5.5 0 016 .5h596a5.5 5.5 0 015.5 5.5v372a5.5 5.5 0 01-5.5 5.5H6A5.5 5.5 0 01.5 378z" class="fill-container"/><path d="M.5 6A5.5 5.5 0 016 .5h596a5.5 5.5 0 015.5 5.5v372a5.5 5.5 0 01-5.5 5.5H6A5.5 5.5 0 01.5 378z" class="stroke-divider"/><g clip-path="url(#widget-__a)"><path d="M16.5 19a2.5 2.5 0 012.5-2.5h174a2.5 2.5 0 012.5 2.5v34a2.5 2.5 0 01-2.5 2.5H19a2.5 2.5 0 01-2.5-2.5z" class="fill-tint"/><path d="M16.5 19a2.5 2.5 0 012.5-2.5h174a2.5 2.5 0 012.5 2.5v34a2.5 2.5 0 01-2.5 2.5H19a2.5 2.5 0 01-2.5-2.5z" class="stroke-divider-subtle"/><path d="M40.956 34.675h-1.579a2.3 2.3 0 00-.295-.78 2 2 0 00-.522-.577q-.309-.24-.702-.36a2.8 2.8 0 00-.83-.12 2.6 2.6 0 00-1.418.397q-.618.398-.974 1.163-.355.767-.355 1.875 0 1.122.355 1.888.36.766.979 1.159.618.387 1.408.387.434 0 .821-.115a2.4 2.4 0 00.702-.346 2.1 2.1 0 00.526-.568 2.2 2.2 0 00.305-.771l1.579.005a3.7 3.7 0 01-1.274 2.299 3.7 3.7 0 01-1.191.678q-.675.24-1.487.24-1.237 0-2.206-.581-.97-.582-1.529-1.667-.553-1.09-.553-2.608t.558-2.609q.563-1.089 1.533-1.666.97-.582 2.197-.582.771 0 1.436.222.669.216 1.191.637.526.42.868 1.025.345.604.457 1.375m4.588 6.468q-1.02 0-1.773-.457a3.1 3.1 0 01-1.168-1.283q-.411-.822-.411-1.916 0-1.104.41-1.93.416-.826 1.169-1.283.752-.457 1.773-.457t1.772.457 1.164 1.283q.415.826.415 1.93 0 1.094-.415 1.916a3.1 3.1 0 01-1.164 1.283q-.752.457-1.772.457m.004-1.251q.61 0 1.007-.328.4-.328.6-.872.198-.55.198-1.21a3.6 3.6 0 00-.198-1.214 1.96 1.96 0 00-.6-.882q-.397-.332-1.007-.332-.615 0-1.015.332a1.96 1.96 0 00-.6.882 3.6 3.6 0 00-.2 1.214q0 .66.2 1.21.198.545.6.872.401.328 1.015.328m6.352-3.075V41h-1.528v-7.09h1.464v1.18h.088a2 2 0 01.775-.927q.531-.346 1.325-.346.73 0 1.274.31.545.308.845.904.305.595.305 1.459V41H54.92v-4.298q0-.743-.384-1.159-.382-.42-1.057-.42-.461 0-.817.199a1.4 1.4 0 00-.558.577q-.204.378-.203.919m7.846 0V41h-1.528v-7.09h1.464v1.18h.087a2 2 0 01.776-.927q.53-.346 1.325-.346.728 0 1.274.31.545.308.845.904.304.595.304 1.459V41h-1.528v-4.298q0-.743-.383-1.159-.383-.42-1.057-.42-.462 0-.817.199a1.4 1.4 0 00-.559.577q-.203.378-.203.919m9.42 4.326q-1.057 0-1.823-.448a3 3 0 01-1.178-1.27q-.41-.821-.41-1.924 0-1.094.41-1.925a3.13 3.13 0 011.16-1.293q.742-.466 1.744-.466.632 0 1.205.203t1.02.637q.448.43.707 1.108.263.678.263 1.625v.498h-5.73v-1.08h4.248q0-.507-.212-.905a1.6 1.6 0 00-.596-.632 1.67 1.67 0 00-.886-.23 1.74 1.74 0 00-.96.262q-.406.264-.633.693a2.05 2.05 0 00-.226.932v.891q0 .665.24 1.136t.67.72q.428.245 1.001.245.383 0 .692-.106.31-.111.531-.324.226-.217.347-.535l1.435.208a2.4 2.4 0 01-.563 1.043q-.405.443-1.034.692-.623.245-1.422.245m7.608 0q-1.043 0-1.796-.466a3.14 3.14 0 01-1.154-1.293q-.401-.825-.401-1.897 0-1.084.41-1.911t1.16-1.293q.75-.466 1.767-.466.836 0 1.487.31.65.303 1.043.858.397.553.462 1.297h-1.473a1.55 1.55 0 00-.485-.859q-.379-.35-1.01-.35-.546 0-.956.29-.407.286-.637.822-.227.53-.227 1.27 0 .747.227 1.292.225.54.632.836.411.29.96.29.384 0 .688-.142.31-.144.517-.411.213-.273.291-.656h1.473a2.7 2.7 0 01-.448 1.283 2.6 2.6 0 01-1.025.878q-.642.318-1.505.318m7.84-7.234v1.2h-3.975v-1.2zm-2.955-1.699h1.528v6.685q0 .365.111.558.111.19.291.259.185.065.402.065.162 0 .286-.023l.198-.037.268 1.223a4 4 0 01-.364.092q-.236.056-.578.065-.585.014-1.075-.194a1.77 1.77 0 01-.78-.642q-.291-.433-.287-1.09zM86.072 41v-7.09H87.6V41zm.77-8.139a.92.92 0 01-.65-.254.82.82 0 01-.268-.614q0-.355.268-.61a.92.92 0 01.65-.253q.379 0 .647.254.272.254.272.61 0 .36-.272.613a.9.9 0 01-.646.254m5.585 8.282q-1.02 0-1.772-.457a3.1 3.1 0 01-1.168-1.283q-.411-.822-.411-1.916 0-1.104.41-1.93.416-.826 1.169-1.283.752-.457 1.772-.457t1.773.457q.753.456 1.163 1.283.416.826.416 1.93 0 1.094-.415 1.916a3.1 3.1 0 01-1.164 1.283q-.753.457-1.773.457m.005-1.251q.61 0 1.006-.328.402-.328.6-.872.2-.55.199-1.21a3.6 3.6 0 00-.198-1.214 1.96 1.96 0 00-.6-.882q-.397-.332-1.007-.332-.614 0-1.016.332a1.96 1.96 0 00-.6.882 3.6 3.6 0 00-.198 1.214q0 .66.198 1.21.2.545.6.872.402.328 1.016.328m6.352-3.075V41h-1.528v-7.09h1.464v1.18h.087a2 2 0 01.776-.927q.53-.346 1.325-.346.73 0 1.274.31.545.308.845.904.304.595.304 1.459V41h-1.528v-4.298q0-.743-.383-1.159-.383-.42-1.057-.42-.462 0-.817.199a1.4 1.4 0 00-.559.577q-.203.378-.203.919m16.115-2.266a2.7 2.7 0 00-.337-.716 2.2 2.2 0 00-.508-.54 2 2 0 00-.669-.342 2.8 2.8 0 00-.822-.115 2.54 2.54 0 00-1.403.397q-.614.393-.974 1.159-.356.766-.356 1.874t.356 1.879q.355.766.979 1.163.628.397 1.444.397.744 0 1.293-.295a2.07 2.07 0 00.854-.836q.305-.54.305-1.274l.378.065h-2.64v-1.26h3.781v1.103q0 1.205-.513 2.087a3.53 3.53 0 01-1.408 1.357q-.895.475-2.059.475-1.293 0-2.271-.586-.974-.591-1.519-1.68-.545-1.09-.545-2.586 0-1.135.319-2.035t.895-1.529a3.9 3.9 0 011.362-.964 4.3 4.3 0 011.704-.333q.776 0 1.445.231.674.226 1.195.642a3.56 3.56 0 011.321 2.262zM118.216 41v-7.09h1.482v1.153h.074a1.75 1.75 0 01.674-.923 1.88 1.88 0 011.099-.337q.133 0 .309.014.175.009.286.027v1.432a2 2 0 00-.318-.06 3 3 0 00-.43-.033q-.475 0-.849.203a1.5 1.5 0 00-.586.554 1.54 1.54 0 00-.213.813V41zm7.031.148a2.9 2.9 0 01-1.214-.245 2 2 0 01-.859-.72q-.314-.48-.314-1.177 0-.605.227-.993.23-.393.618-.623.388-.232.868-.346.485-.12.997-.176.629-.073 1.02-.124.393-.051.573-.162.18-.11.18-.355v-.033q0-.558-.328-.868-.323-.309-.946-.309-.656 0-1.034.286-.38.287-.522.656l-1.426-.259q.207-.646.641-1.062a2.7 2.7 0 011.03-.618q.6-.204 1.292-.203.47 0 .961.11.494.11.914.38.42.267.678.747.264.48.263 1.219V41h-1.477v-.97h-.055q-.14.278-.411.536a2.1 2.1 0 01-.688.42 2.7 2.7 0 01-.988.162m.365-1.164q.54 0 .928-.212.387-.217.595-.563.213-.352.213-.757v-.877a.8.8 0 01-.277.129 5 5 0 01-.448.101q-.25.042-.49.074l-.41.056a3.5 3.5 0 00-.698.17 1.17 1.17 0 00-.498.333q-.185.212-.185.558 0 .49.36.74.36.248.91.248m5.02 3.675v-9.75h1.496v1.159h.106q.129-.236.36-.526.231-.296.633-.508.4-.217 1.043-.217a2.75 2.75 0 011.505.425q.67.425 1.057 1.241.388.818.388 1.985 0 1.154-.383 1.976-.384.818-1.048 1.251-.665.434-1.514.434-.629 0-1.034-.207a2 2 0 01-.642-.5 3.4 3.4 0 01-.365-.535h-.074v3.772zm1.501-6.204q0 .715.203 1.26.207.54.6.845.392.3.955.3.582 0 .979-.314a1.9 1.9 0 00.596-.859q.203-.545.203-1.232 0-.683-.199-1.215a1.83 1.83 0 00-.595-.84q-.393-.31-.984-.31-.572.001-.964.296a1.8 1.8 0 00-.596.822q-.198.531-.198 1.247m8.101-.637V41h-1.528v-9.454h1.501v3.545h.087q.245-.591.762-.933.522-.34 1.339-.341.734 0 1.283.304.55.306.85.9.304.596.304 1.469V41h-1.528v-4.298q0-.747-.383-1.163-.382-.416-1.071-.416-.466 0-.835.199a1.4 1.4 0 00-.573.577q-.208.378-.208.919" class="fill-primary"/><g clip-path="url(#widget-__b)"><path fill-rule="evenodd" d="M171.542 28.693a.91.91 0 00-.884.707l-.254 1.12a5.7 5.7 0 00-1.151.477l-.972-.612a.91.91 0 00-1.125.126l-.646.646c-.3.3-.352.766-.126 1.125l.613.972c-.199.361-.36.747-.477 1.15l-1.12.255a.91.91 0 00-.707.884v.914c0 .424.294.79.707.885l1.12.254q.177.608.477 1.151l-.613.972a.91.91 0 00.126 1.124l.647.647c.299.3.766.352 1.124.126l.972-.613q.544.3 1.151.477l.254 1.12a.91.91 0 00.884.707h.915c.423 0 .79-.294.884-.707l.254-1.12q.608-.177 1.151-.477l.972.613a.91.91 0 001.125-.126l.646-.646c.3-.3.352-.767.126-1.125l-.612-.971q.3-.544.478-1.152l1.119-.254a.91.91 0 00.707-.885v-.914a.91.91 0 00-.707-.884l-1.119-.254a5.7 5.7 0 00-.478-1.152l.613-.972a.91.91 0 00-.126-1.124l-.647-.647a.906.906 0 00-1.124-.126l-.972.613a5.7 5.7 0 00-1.152-.478l-.254-1.12a.91.91 0 00-.884-.706zm-2.293 3.373a4.8 4.8 0 011.914-.793l.379-1.673h.915l.379 1.672a4.8 4.8 0 011.915.794l1.451-.915.647.647-.915 1.451c.394.562.67 1.212.794 1.915l1.672.38v.913l-1.673.38a4.8 4.8 0 01-.793 1.915l.914 1.45-.646.647-1.451-.915a4.8 4.8 0 01-1.915.794l-.379 1.672h-.915l-.379-1.673a4.8 4.8 0 01-1.914-.793l-1.451.915-.647-.647.915-1.45a4.8 4.8 0 01-.793-1.915l-1.673-.38v-.914l1.673-.38a4.8 4.8 0 01.793-1.913l-.915-1.452.646-.646zM173.627 36a1.627 1.627 0 11-3.254-.001 1.627 1.627 0 013.254 0m.96 0a2.587 2.587 0 11-5.173 0 2.587 2.587 0 015.173 0" clip-rule="evenodd" class="fill-symbol"/></g><path d="M207.917 28.11a3 3 0 01-.985-.188 2.36 2.36 0 01-.898-.606q-.407-.43-.653-1.16-.246-.735-.246-1.843 0-1.063.199-1.883.2-.825.579-1.387.378-.567.914-.86a2.5 2.5 0 011.215-.292q.671 0 1.195.27.527.265.859.741.333.477.43 1.098h-.953a1.77 1.77 0 00-.516-.895q-.383-.355-1.015-.355-.93 0-1.465.809-.532.808-.535 2.27h.062a2.35 2.35 0 011.969-1.063q.687 0 1.258.343.57.34.914.942.343.597.343 1.37 0 .744-.332 1.36a2.5 2.5 0 01-.933.977q-.598.36-1.406.351m0-.86q.492 0 .882-.246a1.76 1.76 0 00.621-.66 1.86 1.86 0 00.231-.922q0-.496-.223-.902a1.7 1.7 0 00-.605-.653 1.6 1.6 0 00-.875-.242q-.371 0-.692.148-.32.146-.562.399-.238.254-.375.582a1.846 1.846 0 00.703 2.242q.394.255.895.254m4.356 3V22h.891v.953h.109q.102-.156.281-.398.184-.246.524-.438.344-.195.929-.195.759 0 1.336.379.578.378.903 1.074.324.695.324 1.64 0 .954-.324 1.653-.325.695-.899 1.078a2.35 2.35 0 01-1.324.379q-.578 0-.926-.191a1.7 1.7 0 01-.535-.442 6 6 0 01-.289-.414h-.078v3.172zm.906-5.25q0 .68.199 1.2.2.515.582.808.383.29.938.289.578 0 .965-.305.39-.309.586-.828.2-.523.199-1.164a3.2 3.2 0 00-.195-1.14 1.77 1.77 0 00-.582-.81q-.387-.3-.973-.3-.562 0-.945.285-.383.281-.578.79a3.2 3.2 0 00-.196 1.175m5.797 3v-6h.891v.938h.078a1.5 1.5 0 01.605-.747q.419-.27 1.004-.27.594 0 .988.27.399.266.622.747h.062a1.75 1.75 0 01.691-.739q.461-.277 1.106-.277.804 0 1.316.504.512.5.512 1.558V28h-.922v-4.016q0-.663-.363-.949a1.34 1.34 0 00-.856-.285q-.632 0-.98.383-.348.379-.348.96V28h-.937v-4.11q0-.51-.332-.824-.333-.316-.856-.316-.358 0-.672.191a1.45 1.45 0 00-.5.532 1.57 1.57 0 00-.187.777V28z" class="fill-secondary"/><path d="M216.5 36v8" class="stroke-divider"/><path d="M291.114 28h-1.016l2.938-8h1l2.937 8h-1.015l-2.391-6.734h-.063zm.375-3.125h4.094v.86h-4.094zm10.386.672V22h.922v6h-.922v-1.016h-.062a1.97 1.97 0 01-.656.778q-.445.316-1.125.316-.563 0-1-.246a1.72 1.72 0 01-.688-.75q-.25-.505-.25-1.27V22h.922v3.75q0 .657.367 1.047.372.39.946.39.344 0 .699-.175.359-.175.601-.54.246-.363.246-.925m5.033 4.828q-.668 0-1.149-.172a2.5 2.5 0 01-.801-.445 2.5 2.5 0 01-.503-.586l.734-.516q.125.165.316.375.192.215.524.371.336.16.879.16.726 0 1.199-.351.473-.352.473-1.102v-1.218h-.079q-.101.163-.289.406-.183.238-.531.426-.344.183-.93.183a2.5 2.5 0 01-1.304-.343 2.4 2.4 0 01-.91-1q-.332-.657-.332-1.594 0-.922.324-1.606.324-.687.902-1.062a2.4 2.4 0 011.336-.38q.587 0 .93.196.348.192.531.438.187.242.289.398h.094V22h.89v6.172q0 .773-.351 1.258a2 2 0 01-.938.715 3.5 3.5 0 01-1.304.23m-.032-3.297q.555 0 .938-.254.382-.255.582-.73.2-.477.199-1.14 0-.65-.195-1.145-.195-.496-.578-.778-.383-.28-.946-.281-.586 0-.976.297a1.8 1.8 0 00-.582.797 3.1 3.1 0 00-.192 1.11q0 .624.196 1.105.2.476.586.75.39.27.968.27M318.08 20v8h-.969v-6.984h-.047l-1.953 1.297v-.985l2-1.328zm6.09 8.11a3 3 0 01-.984-.188 2.35 2.35 0 01-.898-.606q-.407-.43-.653-1.16-.246-.735-.246-1.843 0-1.063.199-1.883.2-.825.579-1.387.378-.567.914-.86a2.5 2.5 0 011.214-.292q.672 0 1.196.27.527.265.859.741.332.477.43 1.098h-.953a1.77 1.77 0 00-.516-.895q-.383-.355-1.016-.355-.93 0-1.464.809-.532.808-.536 2.27h.063a2.37 2.37 0 011.191-.934q.367-.13.778-.13.687 0 1.257.344.57.34.915.942.343.597.343 1.37 0 .744-.332 1.36a2.5 2.5 0 01-.933.977q-.599.36-1.407.351m0-.86q.493 0 .883-.246a1.76 1.76 0 00.621-.66 1.86 1.86 0 00.231-.922q0-.496-.223-.902a1.7 1.7 0 00-.605-.653 1.6 1.6 0 00-.875-.242q-.371 0-.692.148-.32.146-.562.399-.238.254-.375.582a1.846 1.846 0 00.703 2.242q.394.255.894.254" class="fill-secondary"/><path d="M309.25 36v8" class="stroke-divider"/><path d="M393.669 28.11a3 3 0 01-.984-.188 2.35 2.35 0 01-.899-.606q-.406-.43-.652-1.16-.246-.735-.246-1.843 0-1.063.199-1.883.199-.825.578-1.387.379-.567.914-.86a2.5 2.5 0 011.215-.292q.672 0 1.195.27.527.265.86.741a2.6 2.6 0 01.429 1.098h-.953a1.76 1.76 0 00-.515-.895q-.383-.355-1.016-.355-.93 0-1.465.809-.53.808-.535 2.27h.062a2.35 2.35 0 011.969-1.063q.688 0 1.258.343.57.34.914.942.344.597.344 1.37 0 .744-.332 1.36a2.54 2.54 0 01-.934.977q-.597.36-1.406.351m0-.86q.492 0 .883-.246a1.76 1.76 0 00.621-.66 1.87 1.87 0 00.23-.922q0-.496-.222-.902a1.7 1.7 0 00-.606-.653 1.6 1.6 0 00-.875-.242q-.371 0-.691.148-.32.146-.563.399-.238.254-.375.582a1.856 1.856 0 00.086 1.574q.227.414.617.668.395.255.895.254m6.122.89q-.57 0-1.035-.214a1.77 1.77 0 01-.738-.63q-.274-.412-.274-1 0-.515.203-.835.204-.324.543-.508.34-.183.75-.273.414-.094.832-.149.547-.07.887-.105.344-.04.5-.13.16-.088.16-.312v-.03q0-.579-.316-.9-.313-.32-.949-.32-.661 0-1.036.29-.375.288-.527.617l-.875-.313q.235-.546.625-.851.394-.31.859-.43a3.6 3.6 0 01.922-.125q.29 0 .664.07.379.067.731.277.355.211.59.637t.234 1.14V28h-.922v-.812h-.047q-.093.195-.312.418t-.582.378-.887.157m.141-.828q.546 0 .922-.214a1.47 1.47 0 00.57-.555q.195-.34.195-.715v-.844q-.058.07-.258.13-.195.054-.453.097a20 20 0 01-.883.117 3.5 3.5 0 00-.671.152q-.31.102-.5.31-.188.202-.188.554 0 .48.355.726.36.243.911.242m4.292.688v-6h.89v.938h.078q.188-.48.606-.747.417-.27 1.004-.27.594 0 .988.27.399.266.621.747h.063q.23-.465.691-.739.46-.277 1.106-.277.804 0 1.316.504.512.5.512 1.558V28h-.922v-4.016q0-.663-.364-.949a1.34 1.34 0 00-.855-.285q-.633 0-.98.383-.348.379-.348.96V28h-.938v-4.11q0-.51-.332-.824-.332-.316-.855-.316-.36 0-.672.191a1.45 1.45 0 00-.5.532 1.57 1.57 0 00-.187.777V28z" class="fill-secondary"/><path d="M402 36v8" class="stroke-divider"/><path d="M483.637 20v8h-.969v-6.984h-.047l-1.953 1.297v-.985l2-1.328zm3.544 8v-.703l2.64-2.89q.465-.51.766-.884.3-.379.445-.71.149-.336.149-.704 0-.42-.203-.73a1.33 1.33 0 00-.547-.477 1.8 1.8 0 00-.782-.168q-.46 0-.804.192-.34.187-.528.527a1.66 1.66 0 00-.183.797h-.922q0-.703.324-1.234.325-.531.883-.828a2.66 2.66 0 011.262-.297q.703 0 1.246.297.543.296.851.8.309.504.309 1.121 0 .442-.16.864-.156.418-.547.933-.387.512-1.074 1.25l-1.797 1.922v.063h3.719V28zm6.903 2.25V22h.891v.953h.109q.101-.156.281-.398.184-.246.524-.438.344-.195.929-.195.759 0 1.336.379.578.378.903 1.074.324.695.324 1.64 0 .954-.324 1.653-.325.695-.899 1.078a2.35 2.35 0 01-1.324.379q-.578 0-.926-.191a1.7 1.7 0 01-.535-.442 6 6 0 01-.289-.414h-.078v3.172zm.906-5.25q0 .68.199 1.2.2.515.582.808.383.29.938.289.578 0 .965-.305.39-.309.586-.828.2-.523.199-1.164a3.2 3.2 0 00-.195-1.14 1.77 1.77 0 00-.582-.81q-.387-.3-.973-.3-.563 0-.945.285-.383.281-.578.79A3.2 3.2 0 00494.99 25m5.797 3v-6h.891v.938h.078a1.5 1.5 0 01.605-.747q.419-.27 1.004-.27.594 0 .989.27.397.266.621.747h.062q.23-.465.692-.739.46-.277 1.105-.277.804 0 1.316.504.512.5.512 1.558V28h-.922v-4.016q0-.663-.363-.949a1.34 1.34 0 00-.856-.285q-.632 0-.98.383-.348.379-.348.96V28h-.937v-4.11q0-.51-.332-.824-.333-.316-.856-.316-.358 0-.672.191a1.45 1.45 0 00-.5.532 1.57 1.57 0 00-.187.777V28z" class="fill-secondary"/><path d="M494.75 36v8" class="stroke-divider"/><path d="M578.917 28.11a3 3 0 01-.985-.188 2.36 2.36 0 01-.898-.606q-.407-.43-.653-1.16-.246-.735-.246-1.843 0-1.063.199-1.883.2-.825.579-1.387.378-.567.914-.86a2.5 2.5 0 011.215-.292q.671 0 1.195.27.527.265.859.741.333.477.43 1.098h-.953a1.77 1.77 0 00-.516-.895q-.383-.355-1.015-.355-.93 0-1.465.809-.532.808-.535 2.27h.062a2.35 2.35 0 011.969-1.063q.687 0 1.258.343.57.34.914.942.343.597.343 1.37 0 .744-.332 1.36a2.5 2.5 0 01-.933.977q-.598.36-1.406.351m0-.86q.492 0 .882-.246a1.76 1.76 0 00.621-.66 1.86 1.86 0 00.231-.922q0-.496-.223-.902a1.7 1.7 0 00-.605-.653 1.6 1.6 0 00-.875-.242q-.371 0-.692.148-.32.146-.562.399-.238.254-.375.582a1.846 1.846 0 00.703 2.242q.394.255.895.254m4.356 3V22h.891v.953h.109q.101-.156.281-.398.184-.246.524-.438.344-.195.929-.195.759 0 1.336.379.578.378.903 1.074.324.695.324 1.64 0 .954-.324 1.653-.325.695-.899 1.078a2.35 2.35 0 01-1.324.379q-.578 0-.926-.191a1.7 1.7 0 01-.535-.442 6 6 0 01-.289-.414h-.078v3.172zm.906-5.25q0 .68.199 1.2.2.515.582.808.384.29.938.289.578 0 .965-.305.39-.309.586-.828.2-.523.199-1.164a3.2 3.2 0 00-.195-1.14 1.77 1.77 0 00-.582-.81q-.387-.3-.973-.3-.563 0-.945.285-.384.281-.578.79a3.2 3.2 0 00-.196 1.175m5.797 3v-6h.891v.938h.078a1.5 1.5 0 01.605-.747q.419-.27 1.004-.27.594 0 .988.27.399.266.622.747h.062a1.75 1.75 0 01.691-.739q.462-.277 1.106-.277.804 0 1.316.504.512.5.512 1.558V28h-.922v-4.016q0-.663-.363-.949a1.34 1.34 0 00-.856-.285q-.632 0-.98.383-.348.379-.348.96V28h-.937v-4.11q0-.51-.332-.824-.333-.316-.856-.316-.359 0-.672.191a1.45 1.45 0 00-.5.532 1.57 1.57 0 00-.187.777V28z" class="fill-secondary"/><path d="M587.5 36v8" class="stroke-divider"/><path d="M216 47.5a1.5 1.5 0 011.5-1.5h1.828a1.5 1.5 0 011.5 1.5v7a1.5 1.5 0 01-1.5 1.5H217.5a1.5 1.5 0 01-1.5-1.5z" class="fill-main"/><path d="M221.828 47.5a1.5 1.5 0 011.5-1.5h1.828a1.5 1.5 0 011.5 1.5v7a1.5 1.5 0 01-1.5 1.5h-1.828a1.5 1.5 0 01-1.5-1.5z" opacity=".8" class="fill-main"/><path d="M227.656 47.5a1.5 1.5 0 011.5-1.5h1.828a1.5 1.5 0 011.5 1.5v7a1.5 1.5 0 01-1.5 1.5h-1.828a1.5 1.5 0 01-1.5-1.5z" opacity=".1" class="fill-main"/><path d="M233.484 47.5a1.5 1.5 0 011.5-1.5h1.828a1.5 1.5 0 011.5 1.5v7a1.5 1.5 0 01-1.5 1.5h-1.828a1.5 1.5 0 01-1.5-1.5z" opacity=".25" class="fill-main"/><path d="M239.312 47.5a1.5 1.5 0 011.5-1.5h1.829a1.5 1.5 0 011.5 1.5v7a1.5 1.5 0 01-1.5 1.5h-1.829a1.5 1.5 0 01-1.5-1.5z" opacity=".15" class="fill-main"/><path d="M245.141 47.5a1.5 1.5 0 011.5-1.5h1.828a1.5 1.5 0 011.5 1.5v7a1.5 1.5 0 01-1.5 1.5h-1.828a1.5 1.5 0 01-1.5-1.5z" opacity=".5" class="fill-main"/><path d="M250.969 47.5a1.5 1.5 0 011.5-1.5h1.828a1.5 1.5 0 011.5 1.5v7a1.5 1.5 0 01-1.5 1.5h-1.828a1.5 1.5 0 01-1.5-1.5z" opacity=".75" class="fill-main"/><path d="M256.797 47.5a1.5 1.5 0 011.5-1.5h1.828a1.5 1.5 0 011.5 1.5v7a1.5 1.5 0 01-1.5 1.5h-1.828a1.5 1.5 0 01-1.5-1.5z" opacity=".95" class="fill-main"/><path d="M262.625 47.5a1.5 1.5 0 011.5-1.5h1.828a1.5 1.5 0 011.5 1.5v7a1.5 1.5 0 01-1.5 1.5h-1.828a1.5 1.5 0 01-1.5-1.5z" class="fill-main"/><path d="M268.453 47.5a1.5 1.5 0 011.5-1.5h1.828a1.5 1.5 0 011.5 1.5v7a1.5 1.5 0 01-1.5 1.5h-1.828a1.5 1.5 0 01-1.5-1.5z" opacity=".55" class="fill-main"/><path d="M274.281 47.5a1.5 1.5 0 011.5-1.5h1.828a1.5 1.5 0 011.5 1.5v7a1.5 1.5 0 01-1.5 1.5h-1.828a1.5 1.5 0 01-1.5-1.5z" opacity=".1" class="fill-main"/><path d="M280.109 47.5a1.5 1.5 0 011.5-1.5h1.829a1.5 1.5 0 011.5 1.5v7a1.5 1.5 0 01-1.5 1.5h-1.829a1.5 1.5 0 01-1.5-1.5z" opacity=".99" class="fill-main"/><path d="M285.938 47.5a1.5 1.5 0 011.5-1.5h1.828a1.5 1.5 0 011.5 1.5v7a1.5 1.5 0 01-1.5 1.5h-1.828a1.5 1.5 0 01-1.5-1.5z" opacity=".15" class="fill-main"/><path d="M291.766 47.5a1.5 1.5 0 011.5-1.5h1.828a1.5 1.5 0 011.5 1.5v7a1.5 1.5 0 01-1.5 1.5h-1.828a1.5 1.5 0 01-1.5-1.5z" opacity=".5" class="fill-main"/><path d="M297.594 47.5a1.5 1.5 0 011.5-1.5h1.828a1.5 1.5 0 011.5 1.5v7a1.5 1.5 0 01-1.5 1.5h-1.828a1.5 1.5 0 01-1.5-1.5z" opacity=".05" class="fill-main"/><path d="M303.422 47.5a1.5 1.5 0 011.5-1.5h1.828a1.5 1.5 0 011.5 1.5v7a1.5 1.5 0 01-1.5 1.5h-1.828a1.5 1.5 0 01-1.5-1.5z" opacity=".15" class="fill-main"/><path d="M309.25 47.5a1.5 1.5 0 011.5-1.5h1.828a1.5 1.5 0 011.5 1.5v7a1.5 1.5 0 01-1.5 1.5h-1.828a1.5 1.5 0 01-1.5-1.5z" class="fill-main"/><path d="M315.078 47.5a1.5 1.5 0 011.5-1.5h1.828a1.5 1.5 0 011.5 1.5v7a1.5 1.5 0 01-1.5 1.5h-1.828a1.5 1.5 0 01-1.5-1.5z" opacity=".8" class="fill-main"/><path d="M320.906 47.5a1.5 1.5 0 011.5-1.5h1.828a1.5 1.5 0 011.5 1.5v7a1.5 1.5 0 01-1.5 1.5h-1.828a1.5 1.5 0 01-1.5-1.5z" opacity=".1" class="fill-main"/><path d="M326.734 47.5a1.5 1.5 0 011.5-1.5h1.828a1.5 1.5 0 011.5 1.5v7a1.5 1.5 0 01-1.5 1.5h-1.828a1.5 1.5 0 01-1.5-1.5z" opacity=".25" class="fill-main"/><path d="M332.562 47.5a1.5 1.5 0 011.5-1.5h1.829a1.5 1.5 0 011.5 1.5v7a1.5 1.5 0 01-1.5 1.5h-1.829a1.5 1.5 0 01-1.5-1.5z" opacity=".15" class="fill-main"/><path d="M338.391 47.5a1.5 1.5 0 011.5-1.5h1.828a1.5 1.5 0 011.5 1.5v7a1.5 1.5 0 01-1.5 1.5h-1.828a1.5 1.5 0 01-1.5-1.5z" opacity=".5" class="fill-main"/><path d="M344.219 47.5a1.5 1.5 0 011.5-1.5h1.828a1.5 1.5 0 011.5 1.5v7a1.5 1.5 0 01-1.5 1.5h-1.828a1.5 1.5 0 01-1.5-1.5z" opacity=".75" class="fill-main"/><path d="M350.047 47.5a1.5 1.5 0 011.5-1.5h1.828a1.5 1.5 0 011.5 1.5v7a1.5 1.5 0 01-1.5 1.5h-1.828a1.5 1.5 0 01-1.5-1.5z" opacity=".95" class="fill-main"/><path d="M355.875 47.5a1.5 1.5 0 011.5-1.5h1.828a1.5 1.5 0 011.5 1.5v7a1.5 1.5 0 01-1.5 1.5h-1.828a1.5 1.5 0 01-1.5-1.5z" class="fill-main"/><path d="M361.703 47.5a1.5 1.5 0 011.5-1.5h1.828a1.5 1.5 0 011.5 1.5v7a1.5 1.5 0 01-1.5 1.5h-1.828a1.5 1.5 0 01-1.5-1.5z" opacity=".55" class="fill-main"/><path d="M367.531 47.5a1.5 1.5 0 011.5-1.5h1.828a1.5 1.5 0 011.5 1.5v7a1.5 1.5 0 01-1.5 1.5h-1.828a1.5 1.5 0 01-1.5-1.5z" opacity=".1" class="fill-main"/><path d="M379.188 47.5a1.5 1.5 0 011.5-1.5h1.828a1.5 1.5 0 011.5 1.5v7a1.5 1.5 0 01-1.5 1.5h-1.828a1.5 1.5 0 01-1.5-1.5z" opacity=".15" class="fill-main"/><path d="M385.016 47.5a1.5 1.5 0 011.5-1.5h1.828a1.5 1.5 0 011.5 1.5v7a1.5 1.5 0 01-1.5 1.5h-1.828a1.5 1.5 0 01-1.5-1.5z" opacity=".5" class="fill-main"/><path d="M390.844 47.5a1.5 1.5 0 011.5-1.5h1.828a1.5 1.5 0 011.5 1.5v7a1.5 1.5 0 01-1.5 1.5h-1.828a1.5 1.5 0 01-1.5-1.5z" opacity=".05" class="fill-main"/><path d="M396.672 47.5a1.5 1.5 0 011.5-1.5H400a1.5 1.5 0 011.5 1.5v7A1.5 1.5 0 01400 56h-1.828a1.5 1.5 0 01-1.5-1.5z" opacity=".15" class="fill-main"/><path d="M414.156 47.5a1.5 1.5 0 011.5-1.5h1.828a1.5 1.5 0 011.5 1.5v7a1.5 1.5 0 01-1.5 1.5h-1.828a1.5 1.5 0 01-1.5-1.5z" opacity=".1" class="fill-main"/><path d="M419.984 47.5a1.5 1.5 0 011.5-1.5h1.828a1.5 1.5 0 011.5 1.5v7a1.5 1.5 0 01-1.5 1.5h-1.828a1.5 1.5 0 01-1.5-1.5z" opacity=".25" class="fill-main"/><path d="M425.812 47.5a1.5 1.5 0 011.5-1.5h1.829a1.5 1.5 0 011.5 1.5v7a1.5 1.5 0 01-1.5 1.5h-1.829a1.5 1.5 0 01-1.5-1.5z" opacity=".15" class="fill-main"/><path d="M431.641 47.5a1.5 1.5 0 011.5-1.5h1.828a1.5 1.5 0 011.5 1.5v7a1.5 1.5 0 01-1.5 1.5h-1.828a1.5 1.5 0 01-1.5-1.5z" opacity=".5" class="fill-main"/><path d="M443.297 47.5a1.5 1.5 0 011.5-1.5h1.828a1.5 1.5 0 011.5 1.5v7a1.5 1.5 0 01-1.5 1.5h-1.828a1.5 1.5 0 01-1.5-1.5z" opacity=".25" class="fill-main"/><path d="M460.781 47.5a1.5 1.5 0 011.5-1.5h1.828a1.5 1.5 0 011.5 1.5v7a1.5 1.5 0 01-1.5 1.5h-1.828a1.5 1.5 0 01-1.5-1.5z" opacity=".1" class="fill-main"/><path d="M466.609 47.5a1.5 1.5 0 011.5-1.5h1.829a1.5 1.5 0 011.5 1.5v7a1.5 1.5 0 01-1.5 1.5h-1.829a1.5 1.5 0 01-1.5-1.5z" opacity=".99" class="fill-main"/><path d="M472.438 47.5a1.5 1.5 0 011.5-1.5h1.828a1.5 1.5 0 011.5 1.5v7a1.5 1.5 0 01-1.5 1.5h-1.828a1.5 1.5 0 01-1.5-1.5z" opacity=".15" class="fill-main"/><path d="M478.266 47.5a1.5 1.5 0 011.5-1.5h1.828a1.5 1.5 0 011.5 1.5v7a1.5 1.5 0 01-1.5 1.5h-1.828a1.5 1.5 0 01-1.5-1.5z" opacity=".5" class="fill-main"/><path d="M484.094 47.5a1.5 1.5 0 011.5-1.5h1.828a1.5 1.5 0 011.5 1.5v7a1.5 1.5 0 01-1.5 1.5h-1.828a1.5 1.5 0 01-1.5-1.5z" opacity=".05" class="fill-main"/><path d="M489.922 47.5a1.5 1.5 0 011.5-1.5h1.828a1.5 1.5 0 011.5 1.5v7a1.5 1.5 0 01-1.5 1.5h-1.828a1.5 1.5 0 01-1.5-1.5z" opacity=".15" class="fill-main"/><path d="M507.406 47.5a1.5 1.5 0 011.5-1.5h1.828a1.5 1.5 0 011.5 1.5v7a1.5 1.5 0 01-1.5 1.5h-1.828a1.5 1.5 0 01-1.5-1.5z" opacity=".1" class="fill-main"/><path d="M513.234 47.5a1.5 1.5 0 011.5-1.5h1.828a1.5 1.5 0 011.5 1.5v7a1.5 1.5 0 01-1.5 1.5h-1.828a1.5 1.5 0 01-1.5-1.5z" opacity=".25" class="fill-main"/><path d="M519.062 47.5a1.5 1.5 0 011.5-1.5h1.829a1.5 1.5 0 011.5 1.5v7a1.5 1.5 0 01-1.5 1.5h-1.829a1.5 1.5 0 01-1.5-1.5z" opacity=".15" class="fill-main"/><path d="M524.891 47.5a1.5 1.5 0 011.5-1.5h1.828a1.5 1.5 0 011.5 1.5v7a1.5 1.5 0 01-1.5 1.5h-1.828a1.5 1.5 0 01-1.5-1.5z" opacity=".5" class="fill-main"/><path d="M548.203 47.5a1.5 1.5 0 011.5-1.5h1.828a1.5 1.5 0 011.5 1.5v7a1.5 1.5 0 01-1.5 1.5h-1.828a1.5 1.5 0 01-1.5-1.5z" opacity=".55" class="fill-main"/><path d="M554.031 47.5a1.5 1.5 0 011.5-1.5h1.828a1.5 1.5 0 011.5 1.5v7a1.5 1.5 0 01-1.5 1.5h-1.828a1.5 1.5 0 01-1.5-1.5z" opacity=".1" class="fill-main"/><path d="M559.859 47.5a1.5 1.5 0 011.5-1.5h1.829a1.5 1.5 0 011.5 1.5v7a1.5 1.5 0 01-1.5 1.5h-1.829a1.5 1.5 0 01-1.5-1.5z" opacity=".99" class="fill-main"/><path d="M565.688 47.5a1.5 1.5 0 011.5-1.5h1.828a1.5 1.5 0 011.5 1.5v7a1.5 1.5 0 01-1.5 1.5h-1.828a1.5 1.5 0 01-1.5-1.5z" opacity=".15" class="fill-main"/><path d="M571.516 47.5a1.5 1.5 0 011.5-1.5h1.828a1.5 1.5 0 011.5 1.5v7a1.5 1.5 0 01-1.5 1.5h-1.828a1.5 1.5 0 01-1.5-1.5z" opacity=".5" class="fill-main"/><path d="M577.344 47.5a1.5 1.5 0 011.5-1.5h1.828a1.5 1.5 0 011.5 1.5v7a1.5 1.5 0 01-1.5 1.5h-1.828a1.5 1.5 0 01-1.5-1.5z" opacity=".05" class="fill-main"/><path d="M583.172 47.5a1.5 1.5 0 011.5-1.5h1.828a1.5 1.5 0 011.5 1.5v7a1.5 1.5 0 01-1.5 1.5h-1.828a1.5 1.5 0 01-1.5-1.5z" opacity=".15" class="fill-main"/><path d="M17.492 82h-1.215l2.891-8h1.297l2.894 8h-1.215l-2.296-6.594h-.063zm.254-3.129h4.14v.973h-4.14zm10.49.648V76h1.105v6h-1.09v-1.035h-.062a1.9 1.9 0 01-.66.797q-.455.316-1.13.316a2 2 0 01-1.015-.254 1.76 1.76 0 01-.695-.758q-.25-.503-.25-1.25V76h1.105v3.695q0 .625.348.996.346.368.898.368.332 0 .664-.165.331-.167.555-.507.225-.345.226-.868M33.69 76v.898h-3.238V76zm-2.351-1.437h1.105v5.687q0 .351.106.527.105.176.273.239.168.062.36.062.144 0 .246-.02l.164-.03.207.929a2 2 0 01-.285.078 2 2 0 01-.457.043 2 2 0 01-.836-.164 1.5 1.5 0 01-.641-.527q-.242-.355-.242-.895zm4.903 3.863V82h-1.105v-8h1.093v2.969h.075q.21-.48.64-.762.434-.285 1.133-.285.617 0 1.078.25.465.25.719.754.258.504.258 1.258V82h-1.106v-3.695q0-.672-.347-1.043-.348-.375-.965-.375a1.54 1.54 0 00-.758.183 1.3 1.3 0 00-.523.524q-.192.343-.192.832m7.984 3.695q-.837 0-1.461-.387a2.6 2.6 0 01-.973-1.082q-.344-.695-.344-1.625 0-.933.344-1.633.348-.7.973-1.085.624-.387 1.46-.387.837 0 1.462.387.625.386.968 1.085.348.7.348 1.633 0 .93-.348 1.625a2.6 2.6 0 01-.968 1.082q-.626.387-1.461.387m.004-.941q.561 0 .93-.297.37-.297.55-.785.18-.49.18-1.07 0-.583-.18-1.075a1.8 1.8 0 00-.55-.793q-.369-.3-.93-.3-.57 0-.942.3-.367.3-.547.793a3.1 3.1 0 00-.18 1.074q0 .582.18 1.07t.547.786q.37.297.941.297m4.098.82v-6h1.07v.941h.063q.164-.472.582-.75.418-.28.95-.28.105 0 .253.007.153.004.238.016v1.074a2 2 0 00-.238-.043 2.3 2.3 0 00-.36-.028q-.417.001-.745.176a1.35 1.35 0 00-.52.485 1.33 1.33 0 00-.187.707V82zm8.634-4.566-1 .199a1.4 1.4 0 00-.215-.39 1.05 1.05 0 00-.39-.305 1.4 1.4 0 00-.622-.122q-.507 0-.851.23-.34.228-.336.583a.6.6 0 00.226.5q.231.188.735.308l.941.22q.82.19 1.223.593.405.4.406 1.031 0 .536-.308.953-.309.414-.856.653-.543.234-1.262.234-.988 0-1.617-.422-.625-.422-.773-1.21l1.062-.188q.114.458.446.687.335.227.87.227.594 0 .946-.25t.352-.606a.64.64 0 00-.212-.488q-.21-.196-.648-.297l-1.008-.226q-.84-.187-1.234-.606-.395-.418-.395-1.055 0-.524.293-.921.294-.399.809-.622a3 3 0 011.183-.222q.954 0 1.5.414.547.41.735 1.098" class="fill-primary"/><path fill-rule="evenodd" d="M64.926 79.253a.467.467 0 00.66.02l3.414-3.2 3.414 3.2a.467.467 0 10.638-.68l-3.733-3.5a.467.467 0 00-.638 0l-3.734 3.5a.467.467 0 00-.021.66" clip-rule="evenodd" class="fill-symbol"/><path fill-rule="evenodd" d="M20.4 97.7a.9.9 0 100-1.8.9.9 0 000 1.8m3.2 0a.9.9 0 100-1.8.9.9 0 000 1.8m.9 2.3a.9.9 0 11-1.8 0 .9.9 0 011.8 0m-4.1.9a.9.9 0 100-1.8.9.9 0 000 1.8m4.1 2.3a.9.9 0 11-1.8 0 .9.9 0 011.8 0m-4.1.9a.9.9 0 100-1.8.9.9 0 000 1.8" clip-rule="evenodd" class="fill-ghost"/><path d="M36.5 97a2.5 2.5 0 012.5-2.5h6a2.5 2.5 0 012.5 2.5v6a2.5 2.5 0 01-2.5 2.5h-6a2.5 2.5 0 01-2.5-2.5z" class="fill-component"/><path d="M36.5 97a2.5 2.5 0 012.5-2.5h6a2.5 2.5 0 012.5 2.5v6a2.5 2.5 0 01-2.5 2.5h-6a2.5 2.5 0 01-2.5-2.5z" class="stroke-border"/><path d="M56.969 104v-8h.968v7.141h3.72V104zm6.062 0v-6h.922v6zm.469-7a.66.66 0 01-.465-.184.6.6 0 01-.191-.441.6.6 0 01.191-.441.66.66 0 01.465-.184q.27 0 .46.184.196.184.196.441a.58.58 0 01-.195.441.64.64 0 01-.461.184m6.392 2.344-.828.234a1.5 1.5 0 00-.231-.402 1.1 1.1 0 00-.406-.328q-.258-.13-.66-.13-.552 0-.918.255-.364.25-.364.636 0 .345.25.543.25.2.782.332l.89.219q.805.196 1.2.598.394.398.394 1.027 0 .516-.297.922a2 2 0 01-.82.641q-.527.234-1.227.234-.917 0-1.52-.398-.6-.399-.761-1.165l.875-.218q.124.484.473.726.351.243.918.242.644 0 1.023-.273.383-.277.383-.664a.7.7 0 00-.219-.523q-.219-.215-.672-.321l-1-.234q-.825-.195-1.21-.606-.383-.414-.383-1.035 0-.507.285-.898.288-.39.785-.614.499-.222 1.133-.222.89 0 1.398.39.511.39.727 1.032m3.262 4.797q-.57 0-1.035-.215a1.8 1.8 0 01-.738-.629q-.273-.415-.274-1 0-.516.204-.836.203-.324.542-.508.34-.183.75-.273.415-.094.833-.149.546-.07.886-.105.345-.039.5-.129.16-.09.16-.313v-.03q0-.579-.316-.9-.312-.32-.95-.32-.66 0-1.034.29-.375.288-.528.617l-.875-.313q.235-.547.625-.851a2.3 2.3 0 01.86-.43q.469-.126.922-.125.288 0 .664.07.378.066.73.277.356.211.59.637t.234 1.141V104h-.922v-.813h-.046q-.094.196-.313.418a1.8 1.8 0 01-.582.379q-.363.157-.887.157m.14-.829q.548 0 .923-.214a1.47 1.47 0 00.765-1.27v-.844q-.059.07-.257.129-.196.055-.453.098a22 22 0 01-.883.117q-.36.047-.672.152a1.16 1.16 0 00-.5.309q-.188.203-.188.555 0 .48.356.726.36.243.91.242m7.512.688v-8h.968v3.563h4.266V96h.969v8h-.969v-3.578h-4.266V104zm10.533.125q-.867 0-1.496-.383a2.57 2.57 0 01-.965-1.078q-.336-.695-.336-1.617t.336-1.625a2.65 2.65 0 01.945-1.102q.61-.398 1.422-.398.469 0 .926.156.457.157.832.508.376.348.598.922t.222 1.414v.39h-4.625v-.796h3.688q0-.508-.203-.907a1.53 1.53 0 00-.57-.628 1.6 1.6 0 00-.868-.231q-.55 0-.953.273-.399.27-.613.704-.216.434-.215.929v.532q0 .68.234 1.152.24.469.66.715.422.242.98.242.364 0 .657-.102a1.4 1.4 0 00.512-.312 1.4 1.4 0 00.332-.524l.89.25a2 2 0 01-.472.797 2.3 2.3 0 01-.82.531 3 3 0 01-1.098.188m8.137-4.781-.829.234a1.5 1.5 0 00-.23-.402 1.1 1.1 0 00-.406-.328q-.258-.13-.66-.13-.552 0-.918.255-.364.25-.364.636 0 .345.25.543.25.2.782.332l.89.219q.805.196 1.2.598.394.398.394 1.027 0 .516-.297.922a2 2 0 01-.82.641q-.527.234-1.227.234-.917 0-1.52-.398-.6-.399-.761-1.165l.875-.218q.124.484.473.726.351.243.918.242.644 0 1.023-.273.383-.277.383-.664a.7.7 0 00-.219-.523q-.219-.215-.672-.321l-1-.234q-.825-.195-1.21-.606-.384-.414-.384-1.035 0-.507.286-.898.288-.39.785-.614.499-.222 1.133-.222.89 0 1.398.39.511.39.727 1.032m3.934 4.781q-.844 0-1.453-.398a2.6 2.6 0 01-.937-1.098q-.329-.7-.329-1.598 0-.914.336-1.613.34-.703.946-1.098.609-.398 1.422-.398.632 0 1.14.234t.832.656q.324.423.403.985h-.922a1.44 1.44 0 00-.469-.727q-.36-.32-.969-.32a1.62 1.62 0 00-.945.281 1.83 1.83 0 00-.629.785q-.222.504-.223 1.184 0 .695.219 1.211.222.516.625.801.407.285.953.285.36 0 .653-.125a1.34 1.34 0 00.785-.922h.922a2.15 2.15 0 01-.387.957 2.17 2.17 0 01-.809.672q-.5.246-1.164.246m4.629-3.734V104h-.922v-8h.922v2.938h.078a1.7 1.7 0 01.633-.739q.426-.277 1.133-.277.614 0 1.074.246.461.242.715.746.258.5.258 1.274V104h-.922v-3.75q0-.715-.371-1.106-.368-.394-1.02-.394-.453 0-.812.191a1.4 1.4 0 00-.563.559q-.203.367-.203.891m8.015 3.734q-.813 0-1.426-.387a2.63 2.63 0 01-.953-1.082q-.34-.695-.34-1.625 0-.937.34-1.637.344-.7.953-1.085.613-.387 1.426-.387.811 0 1.422.387.612.386.953 1.085.343.7.343 1.637 0 .93-.343 1.625a2.6 2.6 0 01-.953 1.082q-.61.387-1.422.387m0-.828q.617 0 1.015-.317.4-.316.59-.832.192-.515.192-1.117a3.2 3.2 0 00-.192-1.12 1.9 1.9 0 00-.59-.84q-.398-.321-1.015-.321-.618 0-1.016.32a1.9 1.9 0 00-.59.84q-.19.52-.191 1.121 0 .602.191 1.117.191.517.59.832.398.317 1.016.317m5.048-2.906V104h-.922v-6h.89v.938h.078a1.7 1.7 0 01.641-.735q.43-.28 1.109-.281.61 0 1.067.25.458.246.711.75.254.5.254 1.266V104h-.922v-3.75q0-.706-.367-1.102-.368-.398-1.008-.398a1.6 1.6 0 00-.789.191q-.343.192-.543.559t-.199.891m7.934 5.984q-.668 0-1.148-.172a2.42 2.42 0 01-1.305-1.031l.734-.516q.126.165.317.375a1.6 1.6 0 00.523.371q.336.16.879.16.727 0 1.199-.351t.473-1.102v-1.218h-.078a5 5 0 01-.289.406q-.185.238-.531.426-.344.183-.93.183-.726 0-1.305-.343a2.4 2.4 0 01-.91-1.001q-.332-.656-.332-1.593 0-.922.324-1.606.324-.687.903-1.062a2.4 2.4 0 011.336-.38q.585 0 .929.196.348.192.531.438.188.242.29.398h.093V98h.891v6.172q0 .774-.352 1.258a2 2 0 01-.937.715q-.587.23-1.305.23m-.031-3.297q.555 0 .937-.254a1.57 1.57 0 00.582-.73q.2-.477.2-1.141 0-.648-.196-1.144-.195-.496-.578-.778-.382-.28-.945-.281-.586 0-.977.297a1.8 1.8 0 00-.582.797 3.1 3.1 0 00-.191 1.109q0 .625.195 1.106.2.475.586.75.39.269.969.269" class="fill-primary"/><path fill-rule="evenodd" d="M150.333 99.066a3.267 3.267 0 11-6.533 0 3.267 3.267 0 016.533 0m-.645 3.282a4.2 4.2 0 11.66-.66l2.649 2.648a.467.467 0 01-.66.66z" clip-rule="evenodd" class="fill-ghost"/><path d="M216 99.5h372" class="stroke-divider-subtle"/><path fill-rule="evenodd" d="M20.4 119.7a.9.9 0 100-1.8.9.9 0 000 1.8m3.2 0a.9.9 0 100-1.8.9.9 0 000 1.8m.9 2.3a.9.9 0 11-1.8 0 .9.9 0 011.8 0m-4.1.9a.9.9 0 100-1.8.9.9 0 000 1.8m4.1 2.3a.9.9 0 11-1.8 0 .9.9 0 011.8 0m-4.1.9a.9.9 0 100-1.8.9.9 0 000 1.8" clip-rule="evenodd" class="fill-ghost"/><path d="M36.5 119a2.5 2.5 0 012.5-2.5h6a2.5 2.5 0 012.5 2.5v6a2.5 2.5 0 01-2.5 2.5h-6a2.5 2.5 0 01-2.5-2.5z" class="fill-component"/><path d="M36.5 119a2.5 2.5 0 012.5-2.5h6a2.5 2.5 0 012.5 2.5v6a2.5 2.5 0 01-2.5 2.5h-6a2.5 2.5 0 01-2.5-2.5z" class="stroke-border"/><path d="M62.219 118h.968v5.297q0 .82-.386 1.465a2.7 2.7 0 01-1.082 1.011q-.7.368-1.64.368-.942 0-1.642-.368a2.73 2.73 0 01-1.085-1.011 2.8 2.8 0 01-.383-1.465V118h.968v5.219q0 .585.258 1.043.258.453.735.715.48.257 1.148.257t1.149-.257a1.8 1.8 0 00.734-.715q.258-.458.258-1.043zm2.778 8v-6h.89v.906h.063q.164-.446.594-.722.43-.278.969-.278.1 0 .254.004.152.004.23.012v.937a3.6 3.6 0 00-.562-.062q-.438 0-.782.183a1.348 1.348 0 00-.734 1.223V126zm8.343-4.656-.828.234a1.5 1.5 0 00-.23-.402 1.1 1.1 0 00-.407-.328q-.258-.129-.66-.129-.55 0-.918.254-.363.25-.363.636 0 .345.25.543.25.2.78.332l.892.219q.804.196 1.199.598.394.398.394 1.027 0 .516-.297.922a2 2 0 01-.82.641q-.527.234-1.226.234-.918 0-1.52-.398-.602-.399-.762-1.165l.875-.218q.126.484.473.726.351.243.918.242.644 0 1.023-.273.383-.277.383-.664a.7.7 0 00-.219-.523q-.219-.215-.671-.321l-1-.234q-.825-.195-1.212-.606-.382-.414-.382-1.035 0-.507.285-.898.289-.391.785-.613a2.75 2.75 0 011.133-.223q.891 0 1.398.39.512.391.727 1.032m5.278 2.203V120h.922v6h-.922v-1.016h-.062q-.212.457-.657.778-.444.316-1.125.316-.562 0-1-.246a1.73 1.73 0 01-.687-.75q-.25-.504-.25-1.27V120h.922v3.75q0 .655.367 1.047.371.39.945.39.345 0 .7-.175.36-.176.601-.539.246-.364.246-.926M82.15 118v8h-.922v-8zm3.454 8.141q-.57 0-1.035-.215a1.8 1.8 0 01-.738-.629q-.273-.415-.273-1 0-.516.203-.836a1.44 1.44 0 01.543-.508q.339-.183.75-.273.414-.094.832-.149.546-.07.886-.105.345-.039.5-.129.16-.09.16-.313v-.031q0-.578-.316-.898-.313-.321-.949-.321-.66 0-1.035.289-.375.29-.528.618l-.874-.313q.234-.546.624-.851.395-.309.86-.43.469-.125.922-.125.29 0 .664.07.378.066.73.278.356.21.59.636t.234 1.141V126h-.921v-.813h-.047q-.094.196-.313.418a1.8 1.8 0 01-.582.379q-.363.157-.886.157m.141-.829q.547 0 .922-.214a1.47 1.47 0 00.766-1.27v-.844q-.06.07-.258.129-.195.055-.453.098a22 22 0 01-.883.117q-.36.047-.672.152a1.16 1.16 0 00-.5.309q-.187.203-.187.555 0 .48.355.726.36.243.91.242m7.51.688v-8h4.798v.859h-3.828v2.703h3.468v.86h-3.468V126zm6.267 0v-6h.891v.906h.063q.164-.446.593-.722a1.75 1.75 0 01.969-.278q.102 0 .254.004t.23.012v.937a3.4 3.4 0 00-.562-.062q-.438 0-.781.183-.34.18-.539.5a1.34 1.34 0 00-.196.723V126zm5.859.141q-.57 0-1.035-.215a1.8 1.8 0 01-.739-.629q-.273-.415-.273-1 0-.516.203-.836.204-.324.543-.508.34-.183.75-.273.414-.094.832-.149.547-.07.887-.105.344-.039.5-.129.16-.09.16-.313v-.031q0-.578-.316-.898-.313-.321-.95-.321-.66 0-1.035.289-.375.29-.527.618l-.875-.313q.234-.546.625-.851a2.3 2.3 0 01.859-.43q.47-.125.922-.125.29 0 .664.07.379.066.731.278.355.21.589.636.235.426.235 1.141V126h-.922v-.813h-.047q-.094.196-.312.418-.219.223-.582.379-.364.157-.887.157m.14-.829q.547 0 .922-.214a1.47 1.47 0 00.766-1.27v-.844q-.059.07-.258.129-.195.055-.453.098a22 22 0 01-.883.117 3.6 3.6 0 00-.672.152 1.17 1.17 0 00-.5.309q-.187.203-.187.555 0 .48.355.726.36.243.91.242m5.214-2.921V126h-.922v-6h.891v.937h.078q.211-.456.641-.734.43-.28 1.109-.281.61 0 1.067.25.456.246.711.75.253.5.253 1.266V126h-.921v-3.75q0-.707-.368-1.102-.366-.398-1.007-.398a1.6 1.6 0 00-.789.191q-.345.192-.543.559-.2.367-.2.891m6.372 1.421-.015-1.14h.187l2.625-2.672h1.141l-2.797 2.828h-.078zm-.859 2.188v-8h.922v8zm3.813 0-2.344-2.969.656-.64 2.859 3.609zm3.092-8v8h-.922v-8zm1.689 8v-6h.922v6zm.469-7a.65.65 0 01-.465-.184.59.59 0 01-.192-.441q0-.258.192-.441a.65.65 0 01.465-.184q.269 0 .46.184a.58.58 0 01.196.441.58.58 0 01-.196.441.64.64 0 01-.46.184m3.063 3.391V126h-.922v-6h.891v.937h.078q.211-.456.641-.734.43-.28 1.109-.281.61 0 1.066.25.458.246.711.75.254.5.254 1.266V126h-.922v-3.75q0-.707-.367-1.102-.367-.398-1.008-.398-.441 0-.789.191-.344.192-.543.559t-.199.891" class="fill-primary"/><path fill-rule="evenodd" d="M151.333 121.066a3.267 3.267 0 11-6.533 0 3.267 3.267 0 016.533 0m-.645 3.282a4.2 4.2 0 11.66-.66l2.649 2.648a.467.467 0 01-.66.66z" clip-rule="evenodd" class="fill-ghost"/><path d="M216 121.5h372" class="stroke-divider-subtle"/><path fill-rule="evenodd" d="M20.4 141.7a.9.9 0 100-1.8.9.9 0 000 1.8m3.2 0a.9.9 0 100-1.8.9.9 0 000 1.8m.9 2.3a.9.9 0 11-1.8 0 .9.9 0 011.8 0m-4.1.9a.9.9 0 100-1.8.9.9 0 000 1.8m4.1 2.3a.9.9 0 11-1.8 0 .9.9 0 011.8 0m-4.1.9a.9.9 0 100-1.8.9.9 0 000 1.8" clip-rule="evenodd" class="fill-ghost"/><path d="M36.5 141a2.5 2.5 0 012.5-2.5h6a2.5 2.5 0 012.5 2.5v6a2.5 2.5 0 01-2.5 2.5h-6a2.5 2.5 0 01-2.5-2.5z" class="fill-component"/><path d="M36.5 141a2.5 2.5 0 012.5-2.5h6a2.5 2.5 0 012.5 2.5v6a2.5 2.5 0 01-2.5 2.5h-6a2.5 2.5 0 01-2.5-2.5z" class="stroke-border"/><path d="M56.969 148v-8h.968v3.562h4.266V140h.969v8h-.969v-3.578h-4.266V148zm9.783.141q-.57 0-1.035-.215a1.8 1.8 0 01-.739-.629q-.273-.415-.273-1 0-.516.203-.836a1.44 1.44 0 01.543-.508 2.9 2.9 0 01.75-.273q.415-.094.832-.149.547-.07.887-.105.345-.039.5-.129.16-.09.16-.313v-.031q0-.578-.316-.898-.313-.321-.95-.321-.66 0-1.035.289-.374.29-.527.618l-.875-.313q.234-.546.625-.851.395-.309.86-.43.469-.125.921-.125.29 0 .664.07.38.066.73.278.356.21.59.636.235.426.235 1.141V148h-.922v-.813h-.047q-.093.196-.312.418a1.8 1.8 0 01-.582.379q-.363.157-.887.157m.14-.829q.547 0 .922-.214a1.47 1.47 0 00.766-1.27v-.844q-.058.07-.258.129-.195.055-.453.098a22 22 0 01-.883.117q-.36.047-.672.152a1.16 1.16 0 00-.5.309q-.186.202-.187.555 0 .48.355.726.36.243.91.242m4.672 2.938a2 2 0 01-.672-.109l.234-.813a1.8 1.8 0 00.594.063.71.71 0 00.457-.231q.203-.202.37-.66l.173-.469L70.5 142h1l1.656 4.781h.063L74.876 142h1l-2.547 6.875q-.171.464-.426.77-.254.308-.59.457a1.8 1.8 0 01-.75.148m7.112-2.109q-.57 0-1.035-.215a1.8 1.8 0 01-.739-.629q-.273-.415-.273-1 0-.516.203-.836a1.44 1.44 0 01.543-.508q.34-.183.75-.273.414-.094.832-.149.547-.07.887-.105.344-.039.5-.129.16-.09.16-.313v-.031q0-.578-.317-.898-.312-.321-.949-.321-.66 0-1.035.289-.375.29-.527.618l-.875-.313q.234-.546.625-.851.395-.309.86-.43.468-.125.921-.125.29 0 .664.07.38.066.73.278.356.21.59.636.235.426.235 1.141V148h-.922v-.813h-.047q-.094.196-.312.418a1.8 1.8 0 01-.582.379q-.364.157-.887.157m.14-.829q.547 0 .922-.214a1.47 1.47 0 00.766-1.27v-.844q-.06.07-.258.129-.195.055-.453.098a22 22 0 01-.883.117q-.36.047-.672.152a1.16 1.16 0 00-.5.309q-.187.202-.187.555 0 .48.355.726.36.243.91.242m6.73.813q-.813 0-1.426-.387a2.63 2.63 0 01-.953-1.082q-.34-.695-.34-1.625 0-.937.34-1.636.345-.7.953-1.086.613-.387 1.426-.387t1.422.387q.613.386.953 1.086.344.699.344 1.636 0 .93-.344 1.625a2.6 2.6 0 01-.953 1.082q-.61.387-1.422.387m0-.828q.617 0 1.015-.317.4-.316.59-.832.192-.515.192-1.117a3.2 3.2 0 00-.192-1.121 1.9 1.9 0 00-.59-.84q-.398-.32-1.015-.32-.618 0-1.016.32a1.9 1.9 0 00-.59.84 3.2 3.2 0 00-.191 1.121q0 .602.191 1.117.192.517.59.832.398.317 1.016.317M92.89 140h1.156l2.719 6.641h.093L99.58 140h1.155v8h-.906v-6.078h-.078L97.25 148h-.875l-2.5-6.078h-.078V148h-.906zm9.661 8v-6h.922v6zm.469-7a.65.65 0 01-.465-.184.59.59 0 01-.192-.441q0-.258.192-.441a.65.65 0 01.465-.184q.269 0 .46.184a.58.58 0 01.196.441.58.58 0 01-.196.441.64.64 0 01-.46.184m2.735 9.25a2 2 0 01-.672-.109l.234-.813q.336.085.594.063a.71.71 0 00.457-.231q.203-.202.371-.66l.172-.469-2.219-6.031h1l1.657 4.781h.062l1.656-4.781h1l-2.547 6.875q-.171.464-.425.77a1.6 1.6 0 01-.59.457 1.8 1.8 0 01-.75.148m7.112-2.109q-.57 0-1.035-.215a1.8 1.8 0 01-.738-.629q-.274-.415-.274-1 0-.516.203-.836.204-.324.543-.508.34-.183.75-.273.415-.094.832-.149.548-.07.887-.105.344-.039.5-.129.16-.09.16-.313v-.031q0-.578-.316-.898-.313-.321-.949-.321-.66 0-1.035.289-.375.29-.528.618l-.875-.313q.234-.546.625-.851.395-.309.86-.43.468-.125.921-.125.29 0 .664.07.38.066.731.278.356.21.59.636t.234 1.141V148h-.922v-.813h-.047q-.093.196-.312.418-.219.223-.582.379-.363.157-.887.157m.141-.829q.547 0 .922-.214.378-.215.57-.555.195-.34.195-.715v-.844q-.059.07-.258.129-.195.055-.453.098a21 21 0 01-.882.117q-.36.047-.672.152a1.16 1.16 0 00-.5.309q-.188.202-.188.555 0 .48.356.726.359.243.91.242m4.12.688v-.703l3.406-4.375v-.063h-3.297V142h4.485v.734l-3.313 4.344v.063h3.422V148zm7.889.141q-.571 0-1.036-.215a1.8 1.8 0 01-.738-.629q-.273-.415-.273-1 0-.516.203-.836.203-.324.543-.508.339-.183.75-.273.414-.094.832-.149.546-.07.887-.105.343-.039.5-.129.16-.09.16-.313v-.031q0-.578-.317-.898-.312-.321-.949-.321-.66 0-1.035.289-.375.29-.527.618l-.875-.313q.234-.546.625-.851a2.3 2.3 0 01.859-.43q.469-.125.922-.125.29 0 .664.07.379.066.73.278.356.21.59.636t.235 1.141V148h-.922v-.813h-.047q-.094.196-.313.418-.219.223-.582.379-.363.157-.886.157m.14-.829q.547 0 .922-.214.38-.215.57-.555.196-.34.196-.715v-.844q-.059.07-.258.129-.195.055-.453.098a23 23 0 01-.883.117q-.36.047-.672.152a1.16 1.16 0 00-.5.309q-.187.202-.187.555 0 .48.355.726.36.243.91.242m5.152-1.5-.016-1.14h.187l2.625-2.672h1.141l-2.797 2.828h-.078zm-.86 2.188v-8h.922v8zm3.813 0-2.344-2.969.656-.64 2.86 3.609zm2.171 0v-6h.921v6zm.468-7a.65.65 0 01-.464-.184.59.59 0 01-.192-.441q0-.258.192-.441a.65.65 0 01.464-.184q.27 0 .461.184.196.183.196.441a.58.58 0 01-.196.441.64.64 0 01-.461.184" class="fill-primary"/><path fill-rule="evenodd" d="M155.333 143.066a3.267 3.267 0 11-6.533 0 3.267 3.267 0 016.533 0m-.645 3.282a4.2 4.2 0 11.66-.66l2.649 2.648a.467.467 0 01-.66.66z" clip-rule="evenodd" class="fill-ghost"/><path d="M216 143.5h372" class="stroke-divider-subtle"/><path fill-rule="evenodd" d="M20.4 163.7a.9.9 0 100-1.8.9.9 0 000 1.8m3.2 0a.9.9 0 100-1.8.9.9 0 000 1.8m.9 2.3a.9.9 0 11-1.8 0 .9.9 0 011.8 0m-4.1.9a.9.9 0 100-1.8.9.9 0 000 1.8m4.1 2.3a.9.9 0 11-1.8 0 .9.9 0 011.8 0m-4.1.9a.9.9 0 100-1.8.9.9 0 000 1.8" clip-rule="evenodd" class="fill-ghost"/><path d="M36.5 163a2.5 2.5 0 012.5-2.5h6a2.5 2.5 0 012.5 2.5v6a2.5 2.5 0 01-2.5 2.5h-6a2.5 2.5 0 01-2.5-2.5z" class="fill-component"/><path d="M36.5 163a2.5 2.5 0 012.5-2.5h6a2.5 2.5 0 012.5 2.5v6a2.5 2.5 0 01-2.5 2.5h-6a2.5 2.5 0 01-2.5-2.5z" class="stroke-border"/><path d="M56.969 170v-8h2.703q.938 0 1.539.32.602.317.89.871.29.555.29 1.262t-.29 1.254a2.03 2.03 0 01-.886.859q-.598.309-1.528.309H57.5V166h2.156q.64 0 1.032-.188.394-.187.57-.531.18-.348.18-.828t-.18-.84a1.23 1.23 0 00-.574-.554q-.395-.2-1.043-.2h-1.703V170zm3.765-3.594 1.97 3.594h-1.126l-1.937-3.594zm5.519 3.719q-.813 0-1.426-.387a2.63 2.63 0 01-.953-1.082q-.34-.695-.34-1.625 0-.937.34-1.636.345-.7.953-1.086.613-.387 1.426-.387t1.422.387q.613.386.953 1.086.344.699.344 1.636 0 .93-.344 1.625a2.6 2.6 0 01-.953 1.082q-.609.387-1.422.387m0-.828q.617 0 1.016-.317.398-.316.59-.832.19-.515.19-1.117a3.2 3.2 0 00-.19-1.121 1.9 1.9 0 00-.59-.84q-.4-.32-1.016-.32-.618 0-1.016.32a1.9 1.9 0 00-.59.84 3.2 3.2 0 00-.19 1.121q0 .602.19 1.117.192.517.59.832.4.317 1.016.317m4.25.703v-8h.923v2.953h.078q.102-.156.281-.398.184-.246.524-.438.343-.195.93-.195.757 0 1.335.379.578.378.903 1.074.324.695.324 1.641 0 .953-.324 1.652a2.56 2.56 0 01-.899 1.078 2.35 2.35 0 01-1.324.379q-.579 0-.926-.191a1.7 1.7 0 01-.535-.442 6 6 0 01-.29-.414h-.109V170zm.907-3q0 .68.2 1.199.198.515.581.809.383.29.938.289.578 0 .965-.305.39-.309.586-.828.199-.524.199-1.164a3.2 3.2 0 00-.195-1.141 1.76 1.76 0 00-.582-.808q-.387-.301-.973-.301-.562 0-.945.285a1.7 1.7 0 00-.578.789q-.195.504-.196 1.176m8.317 3.125q-.868 0-1.496-.383a2.57 2.57 0 01-.965-1.078q-.336-.695-.336-1.617t.336-1.625q.339-.707.945-1.102.609-.398 1.422-.398.468 0 .926.156.456.157.832.508.375.348.597.922.223.574.223 1.414v.39h-4.625v-.796h3.687a2 2 0 00-.203-.907 1.54 1.54 0 00-.57-.629 1.6 1.6 0 00-.867-.23q-.55 0-.953.273-.399.27-.614.704a2.1 2.1 0 00-.214.929v.532q0 .68.234 1.152.239.468.66.715.422.242.98.242.364 0 .657-.102a1.4 1.4 0 00.511-.312 1.4 1.4 0 00.333-.524l.89.25a2 2 0 01-.473.797 2.3 2.3 0 01-.82.531 3 3 0 01-1.097.188m3.886-.125v-6h.89v.906h.063q.165-.446.594-.722.43-.278.969-.278.102 0 .254.004t.23.012v.937a3.6 3.6 0 00-.562-.062q-.437 0-.782.183a1.349 1.349 0 00-.734 1.223V170zm7.078-6v.781h-3.109V164zm-2.203-1.438h.922v5.719q0 .391.113.586a.6.6 0 00.297.258q.184.063.387.062a2 2 0 00.25-.015l.156-.031.188.828q-.094.035-.262.07a2 2 0 01-.426.039q-.39 0-.765-.168a1.5 1.5 0 01-.617-.512q-.243-.344-.243-.867zm7.778-.562v8h-.97v-8zm1.817 8v-6h.89v.906h.063q.164-.446.594-.722.429-.278.969-.278.1 0 .254.004.152.004.23.012v.937a3.5 3.5 0 00-.562-.062q-.438 0-.782.183a1.349 1.349 0 00-.734 1.223V170zm5.549 0-1.828-6h.968l1.297 4.594h.063l1.281-4.594h.984l1.266 4.578h.063l1.296-4.578h.969l-1.828 6h-.906l-1.313-4.609h-.093L104.538 170zm7.578 0v-6h.922v6zm.469-7a.65.65 0 01-.465-.184.59.59 0 01-.192-.441q0-.258.192-.441a.65.65 0 01.465-.184q.269 0 .461.184.195.183.195.441a.58.58 0 01-.195.441.64.64 0 01-.461.184m3.063 3.391V170h-.922v-6h.891v.937h.078q.211-.456.641-.734.43-.28 1.109-.281.61 0 1.066.25.457.246.711.75.255.5.254 1.266V170h-.922v-3.75q0-.707-.367-1.102-.367-.398-1.008-.398-.441 0-.789.191-.343.192-.543.559-.198.368-.199.891" class="fill-primary"/><path fill-rule="evenodd" d="M137.333 165.066a3.267 3.267 0 11-6.533 0 3.267 3.267 0 016.533 0m-.645 3.282a4.2 4.2 0 11.66-.66l2.649 2.648a.467.467 0 01-.66.66z" clip-rule="evenodd" class="fill-ghost"/><path d="M216 165.5h372" class="stroke-divider-subtle"/><path d="M16.496 192.992V192h6.145v.992h-2.5V200h-1.145v-7.008zm8.371 7.141q-.57 0-1.031-.211a1.73 1.73 0 01-.73-.621q-.27-.411-.27-.996 0-.512.195-.836a1.44 1.44 0 01.532-.516q.335-.191.746-.285.41-.098.835-.152l.876-.102q.336-.043.492-.133.156-.093.156-.308v-.028q0-.526-.297-.816-.293-.293-.875-.293-.609 0-.957.266t-.48.585l-1.043-.265q.207-.547.586-.875.378-.332.863-.477a3.45 3.45 0 011.746-.066q.399.078.754.301.355.218.582.632.226.416.226 1.086V200h-1.085v-.816h-.047q-.105.215-.332.437a1.8 1.8 0 01-.582.367 2.3 2.3 0 01-.86.145m.227-.906q.5 0 .851-.196.355-.199.54-.515.183-.32.183-.68v-.793a.6.6 0 01-.246.121q-.18.051-.414.09a10 10 0 01-.453.066l-.367.047a3.2 3.2 0 00-.633.149 1.07 1.07 0 00-.461.296q-.172.192-.172.512 0 .445.328.676.332.227.844.227m6.757 3.148q-.704 0-1.211-.184a2.4 2.4 0 01-.829-.484 2.1 2.1 0 01-.488-.652l.938-.438q.11.169.289.367.183.2.496.34t.812.141q.68 0 1.122-.328.445-.329.445-1.047v-1.188h-.074q-.105.184-.301.422a1.6 1.6 0 01-.54.41q-.343.177-.902.176-.715 0-1.285-.336a2.37 2.37 0 01-.902-.992q-.332-.656-.332-1.609 0-.947.324-1.629.328-.688.898-1.055a2.37 2.37 0 011.31-.367q.561 0 .905.187.348.188.54.434.191.246.292.426h.09V194h1.078v6.145q0 .77-.355 1.261a2.07 2.07 0 01-.965.731 3.7 3.7 0 01-1.355.238m-.016-3.398q.516 0 .871-.243.36-.242.543-.691.188-.453.188-1.082 0-.618-.184-1.086-.18-.473-.54-.734-.355-.266-.878-.266-.543 0-.906.277a1.7 1.7 0 00-.543.75q-.18.473-.18 1.059 0 .597.184 1.051.183.453.546.711.364.254.899.254m8.725-3.543-1 .199a1.4 1.4 0 00-.215-.391 1.06 1.06 0 00-.39-.305 1.4 1.4 0 00-.622-.121q-.507 0-.852.231-.339.226-.336.582a.6.6 0 00.227.5q.23.188.734.308l.942.219q.82.192 1.222.594.407.399.407 1.031 0 .536-.309.953-.308.414-.855.653-.543.234-1.262.234-.988 0-1.617-.422-.626-.422-.774-1.211l1.063-.187q.113.457.445.687.336.227.871.227.594 0 .946-.25.351-.25.351-.606a.64.64 0 00-.21-.488q-.212-.195-.65-.297l-1.007-.226q-.84-.187-1.234-.606-.396-.417-.395-1.055 0-.523.293-.921.293-.399.809-.621a3 3 0 011.183-.223q.954 0 1.5.414.547.41.735 1.098" class="fill-primary"/><path fill-rule="evenodd" d="M48.926 197.253a.467.467 0 00.66.021L53 194.073l3.414 3.201a.467.467 0 00.638-.681l-3.733-3.5a.467.467 0 00-.638 0l-3.734 3.5a.467.467 0 00-.021.66" clip-rule="evenodd" class="fill-symbol"/><path fill-rule="evenodd" d="M20.4 215.7a.9.9 0 100-1.8.9.9 0 000 1.8m3.2 0a.9.9 0 100-1.8.9.9 0 000 1.8m.9 2.3a.9.9 0 11-1.8 0 .9.9 0 011.8 0m-4.1.9a.9.9 0 100-1.8.9.9 0 000 1.8m4.1 2.3a.9.9 0 11-1.8 0 .9.9 0 011.8 0m-4.1.9a.9.9 0 100-1.8.9.9 0 000 1.8" clip-rule="evenodd" class="fill-ghost"/><path d="M36.5 215a2.5 2.5 0 012.5-2.5h6a2.5 2.5 0 012.5 2.5v6a2.5 2.5 0 01-2.5 2.5h-6a2.5 2.5 0 01-2.5-2.5z" class="fill-component"/><path d="M36.5 215a2.5 2.5 0 012.5-2.5h6a2.5 2.5 0 012.5 2.5v6a2.5 2.5 0 01-2.5 2.5h-6a2.5 2.5 0 01-2.5-2.5z" class="stroke-border"/><path d="M62.219 214h.968v5.297q0 .82-.386 1.465a2.7 2.7 0 01-1.082 1.011q-.7.368-1.64.368-.942 0-1.642-.368a2.73 2.73 0 01-1.085-1.011 2.8 2.8 0 01-.383-1.465V214h.968v5.219q0 .585.258 1.043.258.453.735.715.48.257 1.148.257t1.149-.257a1.8 1.8 0 00.734-.715q.258-.458.258-1.043zm7.278 2a1.23 1.23 0 00-.57-.922q-.5-.328-1.227-.328-.531 0-.93.172a1.5 1.5 0 00-.617.473 1.13 1.13 0 00-.218.683q0 .32.152.551.156.226.398.379.243.148.508.246.266.093.488.152l.813.219q.312.082.695.227.387.144.739.394.355.246.586.633t.23.949q0 .648-.34 1.172-.336.523-.984.832-.645.309-1.567.309-.86 0-1.488-.278a2.37 2.37 0 01-.984-.773 2.2 2.2 0 01-.403-1.152h1q.04.453.305.749.27.294.68.438.414.141.89.141.555 0 .996-.18.442-.183.7-.508.257-.328.257-.766 0-.397-.222-.648a1.6 1.6 0 00-.586-.406 6 6 0 00-.785-.274l-.985-.281q-.938-.27-1.484-.769-.547-.5-.547-1.309 0-.672.363-1.172.367-.504.985-.781a3.3 3.3 0 011.386-.281q.774 0 1.375.277.602.273.954.75.354.477.375 1.082zm2.64 6v-8h2.797q.836 0 1.379.289.542.285.808.77.266.48.266 1.066 0 .516-.184.852-.18.336-.476.531-.294.195-.637.289v.078q.367.024.738.258.372.234.621.672.25.437.25 1.07 0 .602-.273 1.082-.274.48-.864.762-.589.28-1.535.281zm.969-.859h1.921q.95 0 1.348-.368.402-.37.402-.898 0-.406-.207-.75a1.5 1.5 0 00-.59-.555 1.86 1.86 0 00-.906-.211h-1.968zm0-3.625h1.796q.438 0 .79-.172.355-.172.562-.485.21-.312.21-.734 0-.528-.366-.895-.367-.37-1.164-.371h-1.828zM86.04 218q0 1.266-.457 2.187-.457.922-1.254 1.422t-1.82.5q-1.025 0-1.82-.5-.798-.5-1.254-1.422-.458-.921-.458-2.187t.458-2.188 1.253-1.421 1.82-.5q1.025 0 1.821.5.797.5 1.254 1.421.457.922.457 2.188m-.937 0q0-1.039-.348-1.754-.344-.714-.934-1.082a2.4 2.4 0 00-1.312-.367q-.727 0-1.317.367-.585.368-.933 1.082-.344.715-.344 1.754t.344 1.754q.347.714.933 1.082.59.367 1.317.367a2.4 2.4 0 001.312-.367q.59-.368.934-1.082.347-.715.347-1.754m6.238-4v8h-.969v-6.984h-.047l-1.953 1.296v-.984l2-1.328zm7.825 2a1.23 1.23 0 00-.57-.922q-.5-.328-1.227-.328-.531 0-.93.172a1.5 1.5 0 00-.617.473 1.13 1.13 0 00-.218.683q0 .32.152.551.156.226.398.379.243.148.508.246.266.093.488.152l.813.219q.312.082.695.227.387.144.738.394.356.246.586.633.231.387.231.949 0 .648-.34 1.172-.336.523-.984.832-.645.309-1.567.309-.86 0-1.488-.278a2.37 2.37 0 01-.984-.773 2.2 2.2 0 01-.403-1.152h1q.04.453.305.749.27.294.68.438.414.141.89.141.555 0 .996-.18.442-.183.7-.508.257-.328.257-.766 0-.397-.222-.648a1.6 1.6 0 00-.586-.406 6 6 0 00-.785-.274l-.985-.281q-.938-.27-1.484-.769-.547-.5-.547-1.309 0-.672.363-1.172.367-.504.985-.781a3.3 3.3 0 011.386-.281q.774 0 1.375.277.602.273.954.75.354.477.374 1.082zm2.64 6v-8h4.828v.859h-3.86v2.703h3.61v.86h-3.61v2.719h3.922V222zm9.043 0h-2.469v-8h2.578q1.164 0 1.992.48.828.477 1.27 1.372.441.89.441 2.132 0 1.25-.445 2.153a3.17 3.17 0 01-1.297 1.383q-.852.48-2.07.48m-1.5-.859h1.437q.993 0 1.645-.383t.972-1.09q.321-.707.321-1.684 0-.968-.317-1.668a2.34 2.34 0 00-.945-1.078q-.629-.379-1.567-.379h-1.546zm13.375-4.641h-.969a2 2 0 00-.817-1.266 2.2 2.2 0 00-.668-.328 2.7 2.7 0 00-.765-.109 2.44 2.44 0 00-1.317.367q-.585.368-.933 1.082-.344.715-.344 1.754t.344 1.754q.348.714.933 1.082a2.44 2.44 0 001.317.367q.398 0 .765-.109a2.2 2.2 0 00.668-.324 2.06 2.06 0 00.817-1.27h.969a3.2 3.2 0 01-.399 1.098 3 3 0 01-1.683 1.336 3.6 3.6 0 01-1.137.175q-1.023 0-1.82-.5t-1.254-1.422q-.457-.921-.457-2.187t.457-2.188q.456-.921 1.254-1.421.797-.5 1.82-.5.605 0 1.137.175.534.176.964.516.43.336.719.82.29.482.399 1.098m4.878 1.07v.86h-3.5v-.86zm4.34 4.539q-.882 0-1.504-.48-.62-.484-.949-1.402-.328-.922-.328-2.227 0-1.297.328-2.215.333-.921.953-1.406.626-.488 1.5-.488.876 0 1.496.488.626.485.954 1.406.332.918.332 2.215 0 1.305-.329 2.227-.327.918-.949 1.402-.62.48-1.504.48m0-.859q.876 0 1.36-.844.484-.843.484-2.406 0-1.04-.223-1.77-.218-.73-.632-1.113a1.4 1.4 0 00-.989-.383q-.867 0-1.355.856-.489.852-.488 2.41 0 1.039.218 1.766.22.726.629 1.105.414.38.996.379m8.201-7.25v8h-.969v-6.984h-.047l-1.953 1.296v-.984l2-1.328z" class="fill-primary"/><path fill-rule="evenodd" d="M160.333 217.066a3.267 3.267 0 11-6.533 0 3.267 3.267 0 016.533 0m-.645 3.282a4.2 4.2 0 11.66-.66l2.649 2.648a.467.467 0 01-.66.66z" clip-rule="evenodd" class="fill-ghost"/><path d="M216 217.5h372" class="stroke-divider-subtle"/><path fill-rule="evenodd" d="M20.4 237.7a.9.9 0 100-1.8.9.9 0 000 1.8m3.2 0a.9.9 0 100-1.8.9.9 0 000 1.8m.9 2.3a.9.9 0 11-1.8 0 .9.9 0 011.8 0m-4.1.9a.9.9 0 100-1.8.9.9 0 000 1.8m4.1 2.3a.9.9 0 11-1.8 0 .9.9 0 011.8 0m-4.1.9a.9.9 0 100-1.8.9.9 0 000 1.8" clip-rule="evenodd" class="fill-ghost"/><path d="M36.5 237a2.5 2.5 0 012.5-2.5h6a2.5 2.5 0 012.5 2.5v6a2.5 2.5 0 01-2.5 2.5h-6a2.5 2.5 0 01-2.5-2.5z" class="fill-component"/><path d="M36.5 237a2.5 2.5 0 012.5-2.5h6a2.5 2.5 0 012.5 2.5v6a2.5 2.5 0 01-2.5 2.5h-6a2.5 2.5 0 01-2.5-2.5z" class="stroke-border"/><path d="M56.969 244v-8h4.797v.859h-3.828v2.703h3.468v.86h-3.468V244zm6.456 0v-8h2.703q.938 0 1.539.32.602.317.89.871.29.555.29 1.262t-.29 1.254a2.03 2.03 0 01-.886.859q-.599.309-1.527.309h-2.188V240h2.156q.64 0 1.032-.188.395-.187.57-.531.18-.348.18-.828t-.18-.84a1.23 1.23 0 00-.574-.554q-.395-.2-1.043-.2h-1.703V244zm3.765-3.594L69.16 244h-1.126l-1.937-3.594zM70.46 244v-8h4.83v.859h-3.86v2.703h3.61v.86h-3.61v2.719h3.922V244zm9.169.109q-.883 0-1.504-.48-.62-.484-.95-1.402-.327-.922-.327-2.227 0-1.297.328-2.215.332-.921.953-1.406.626-.488 1.5-.488.875 0 1.496.488.625.485.953 1.406.332.918.332 2.215 0 1.305-.328 2.227-.328.918-.95 1.402-.62.48-1.503.48m0-.859q.874 0 1.36-.844.484-.843.484-2.406 0-1.04-.223-1.77-.219-.73-.633-1.113a1.4 1.4 0 00-.988-.383q-.867 0-1.356.856-.488.852-.488 2.41 0 1.039.219 1.766.219.726.629 1.105.414.38.996.379m8.2-7.25v8h-.969v-6.984h-.046l-1.954 1.296v-.984l2-1.328zm7.825 2a1.23 1.23 0 00-.57-.922q-.5-.328-1.227-.328-.531 0-.93.172a1.5 1.5 0 00-.617.473 1.13 1.13 0 00-.218.683q0 .32.152.551.156.226.399.379.241.148.507.246.266.093.489.152l.812.219q.313.082.696.227.386.144.738.394.355.246.586.633t.23.949q0 .648-.34 1.172-.336.523-.984.832-.645.309-1.566.309-.86 0-1.489-.278a2.37 2.37 0 01-.984-.773 2.2 2.2 0 01-.402-1.152h1q.039.453.304.749.27.294.68.438.414.141.89.141.555 0 .997-.18.441-.183.699-.508.258-.328.258-.766 0-.397-.223-.648a1.6 1.6 0 00-.586-.406 6 6 0 00-.785-.274l-.984-.281q-.938-.27-1.485-.769-.547-.5-.547-1.309 0-.672.364-1.172.367-.504.984-.781a3.3 3.3 0 011.387-.281q.773 0 1.375.277.6.273.953.75.355.477.375 1.082zm2.64 6v-8h4.828v.859h-3.86v2.703h3.61v.86h-3.61v2.719h3.923V244zm6.574 0v-8h2.703q.942 0 1.539.34.602.336.891.91t.289 1.281-.289 1.285q-.285.579-.883.922-.598.34-1.531.34h-1.938v-.859h1.907q.644 0 1.035-.223.39-.222.566-.601.18-.383.18-.864 0-.48-.18-.859a1.28 1.28 0 00-.57-.594q-.395-.219-1.047-.219h-1.703V244zm6.983 0v-8h2.703q.938 0 1.539.32.602.317.89.871.29.555.289 1.262 0 .707-.289 1.254a2.03 2.03 0 01-.886.859q-.598.309-1.528.309h-2.187V240h2.156q.64 0 1.031-.188a1.2 1.2 0 00.571-.531q.179-.348.179-.828t-.179-.84a1.23 1.23 0 00-.575-.554q-.394-.2-1.043-.2h-1.703V244zm3.765-3.594 1.969 3.594h-1.125l-1.938-3.594zm10.021-.406q0 1.266-.457 2.187-.457.922-1.254 1.422t-1.821.5-1.82-.5-1.254-1.422q-.456-.921-.457-2.187 0-1.266.457-2.188.457-.921 1.254-1.421t1.82-.5q1.025 0 1.821.5.797.5 1.254 1.421.456.922.457 2.188m-.938 0q0-1.039-.347-1.754-.345-.714-.934-1.082a2.4 2.4 0 00-1.313-.367q-.726 0-1.316.367-.586.368-.934 1.082-.343.715-.343 1.754t.343 1.754q.348.714.934 1.082.59.367 1.316.367a2.4 2.4 0 001.313-.367q.59-.368.934-1.082.347-.715.347-1.754m2.567 4v-8h2.797q.835 0 1.378.289.543.285.809.77.266.48.266 1.066 0 .516-.184.852-.18.336-.477.531-.292.195-.636.289v.078q.368.024.738.258t.621.672q.25.437.25 1.07 0 .602-.273 1.082-.274.48-.864.762-.59.28-1.535.281zm.968-.859h1.922q.95 0 1.348-.368.402-.37.402-.898 0-.406-.207-.75a1.5 1.5 0 00-.59-.555 1.86 1.86 0 00-.906-.211h-1.969zm0-3.625h1.797q.438 0 .789-.172a1.4 1.4 0 00.563-.485q.21-.312.211-.734 0-.528-.367-.895-.368-.37-1.164-.371h-1.829zM134.42 244v-8h4.828v.859h-3.859v2.703h3.609v.86h-3.609v2.719h3.922V244zm9.887-4.43v.86h-3.5v-.86zm4.34 4.539q-.882 0-1.503-.48-.622-.484-.95-1.402-.327-.922-.328-2.227 0-1.297.328-2.215.333-.921.953-1.406.626-.488 1.5-.488.875 0 1.497.488.624.485.953 1.406.332.918.332 2.215 0 1.305-.328 2.227-.329.918-.95 1.402-.62.48-1.504.48m0-.859q.876 0 1.36-.844.484-.843.484-2.406 0-1.04-.222-1.77-.219-.73-.633-1.113a1.4 1.4 0 00-.989-.383q-.866 0-1.355.856-.488.852-.488 2.41 0 1.039.218 1.766.22.726.629 1.105.414.38.996.379m8.201-7.25v8h-.969v-6.984h-.047l-1.953 1.296v-.984l2-1.328z" class="fill-primary"/><path fill-rule="evenodd" d="M177.333 239.066a3.267 3.267 0 11-6.533 0 3.267 3.267 0 016.533 0m-.645 3.282a4.2 4.2 0 11.66-.66l2.649 2.648a.467.467 0 01-.66.66z" clip-rule="evenodd" class="fill-ghost"/><path d="M216 239.5h372" class="stroke-divider-subtle"/><path fill-rule="evenodd" d="M20.4 259.7a.9.9 0 100-1.8.9.9 0 000 1.8m3.2 0a.9.9 0 100-1.8.9.9 0 000 1.8m.9 2.3a.9.9 0 11-1.8 0 .9.9 0 011.8 0m-4.1.9a.9.9 0 100-1.8.9.9 0 000 1.8m4.1 2.3a.9.9 0 11-1.8 0 .9.9 0 011.8 0m-4.1.9a.9.9 0 100-1.8.9.9 0 000 1.8" clip-rule="evenodd" class="fill-ghost"/><path d="M36.5 259a2.5 2.5 0 012.5-2.5h6a2.5 2.5 0 012.5 2.5v6a2.5 2.5 0 01-2.5 2.5h-6a2.5 2.5 0 01-2.5-2.5z" class="fill-component"/><path d="M36.5 259a2.5 2.5 0 012.5-2.5h6a2.5 2.5 0 012.5 2.5v6a2.5 2.5 0 01-2.5 2.5h-6a2.5 2.5 0 01-2.5-2.5z" class="stroke-border"/><path d="M56.969 266v-8h2.797q.836 0 1.379.289.542.285.808.77.266.48.266 1.066 0 .516-.184.852-.18.336-.476.531-.294.195-.637.289v.078q.367.024.738.258.372.234.621.672.25.437.25 1.07 0 .602-.273 1.082-.274.48-.864.762-.589.28-1.535.281zm.968-.859h1.922q.95 0 1.348-.368.402-.37.402-.898 0-.407-.207-.75a1.5 1.5 0 00-.59-.555 1.86 1.86 0 00-.906-.211h-1.968zm0-3.625h1.797q.438 0 .79-.172.354-.172.562-.485a1.3 1.3 0 00.21-.734q0-.528-.366-.895-.367-.37-1.164-.371h-1.828zm8.78 4.593q-.883 0-1.504-.48-.62-.484-.95-1.402-.328-.922-.328-2.227 0-1.297.329-2.215.332-.921.953-1.406.624-.489 1.5-.488.875 0 1.496.488.625.485.953 1.406.332.918.332 2.215 0 1.305-.328 2.227-.328.918-.95 1.402-.62.48-1.503.48m0-.859q.874 0 1.36-.844.483-.843.484-2.406 0-1.04-.223-1.77-.219-.73-.633-1.113a1.4 1.4 0 00-.988-.383q-.867 0-1.356.856-.488.852-.488 2.41 0 1.039.219 1.766.219.726.629 1.105.414.38.996.379m8.2-7.25v8h-.969v-6.984h-.047l-1.953 1.296v-.984l2-1.328zm7.825 2a1.23 1.23 0 00-.57-.922q-.5-.328-1.227-.328-.531 0-.93.172a1.5 1.5 0 00-.617.473 1.13 1.13 0 00-.218.683q0 .32.152.551.156.226.399.379.24.148.507.246.266.093.489.152l.812.219q.312.082.695.227.387.144.739.394.355.246.586.633t.23.949q0 .648-.34 1.172-.336.523-.984.832-.645.309-1.567.309-.859 0-1.488-.278a2.37 2.37 0 01-.984-.773 2.2 2.2 0 01-.403-1.152h1q.04.453.305.749.27.294.68.438.414.141.89.141.555 0 .996-.18.442-.183.7-.508.258-.328.258-.766 0-.397-.223-.648a1.6 1.6 0 00-.586-.406 6 6 0 00-.785-.274l-.985-.281q-.938-.27-1.484-.769-.547-.5-.547-1.309 0-.672.364-1.172.366-.504.984-.781a3.3 3.3 0 011.387-.281q.773 0 1.375.277.6.273.953.75.355.476.375 1.082zm2.64 6v-8h4.828v.859h-3.86v2.703h3.61v.86h-3.61v2.719h3.922V266zm6.574 0v-8h2.703q.937 0 1.54.32.6.317.89.871.29.555.289 1.262 0 .707-.29 1.254a2.03 2.03 0 01-.886.859q-.597.309-1.527.309h-2.188V262h2.157q.64 0 1.03-.188.396-.187.571-.531.18-.348.18-.828t-.18-.84a1.23 1.23 0 00-.574-.554q-.394-.2-1.043-.2h-1.703V266zm3.766-3.594L97.69 266h-1.125l-1.937-3.594zM101.46 266h-2.469v-8h2.578q1.164 0 1.992.48a3.14 3.14 0 011.27 1.372q.441.89.441 2.132 0 1.25-.445 2.153a3.17 3.17 0 01-1.297 1.383q-.851.48-2.07.48m-1.5-.859h1.437q.993 0 1.645-.383t.973-1.09.32-1.684q0-.967-.316-1.668a2.34 2.34 0 00-.946-1.078q-.628-.378-1.566-.379h-1.547zm6.937.859v-8h2.704q.94 0 1.539.34.602.336.89.91.29.575.289 1.281 0 .708-.289 1.285-.285.579-.883.922-.597.34-1.531.34h-1.937v-.859h1.906q.645 0 1.035-.223a1.33 1.33 0 00.567-.601q.179-.383.179-.864 0-.48-.179-.859a1.3 1.3 0 00-.571-.594q-.394-.219-1.047-.219h-1.703V266zm9.79-4.43v.86h-3.5v-.86zm5.419-3.57v8h-.968v-6.984h-.047l-1.953 1.296v-.984l2-1.328z" class="fill-primary"/><path fill-rule="evenodd" d="M142.333 261.066a3.267 3.267 0 11-6.533 0 3.267 3.267 0 016.533 0m-.645 3.282a4.2 4.2 0 11.66-.66l2.649 2.648a.467.467 0 01-.66.66z" clip-rule="evenodd" class="fill-ghost"/><path d="M216 261.5h372" class="stroke-divider-subtle"/><path d="M23.492 290.574H22.34a2 2 0 00-.274-.695 2.01 2.01 0 00-1.113-.828 2.5 2.5 0 00-.734-.106q-.7 0-1.258.352-.555.351-.879 1.035-.32.68-.32 1.668 0 .992.324 1.676.325.68.879 1.031.555.348 1.254.348.382 0 .73-.102.348-.105.63-.312.284-.207.483-.508a1.9 1.9 0 00.278-.692l1.152.004a3.2 3.2 0 01-.383 1.09 3 3 0 01-.715.844 3.2 3.2 0 01-.984.543q-.555.187-1.2.187-1.035 0-1.843-.496-.808-.495-1.273-1.418-.465-.921-.465-2.195 0-1.278.465-2.195.468-.923 1.277-1.418.809-.496 1.84-.496.63 0 1.176.179.55.18.988.528.438.347.727.843.288.497.39 1.133m3.126 5.559q-.57 0-1.031-.211a1.73 1.73 0 01-.73-.621q-.27-.411-.27-.996 0-.512.195-.836a1.44 1.44 0 01.532-.516q.335-.191.746-.285.41-.098.835-.152l.875-.102q.337-.043.493-.133.156-.093.156-.308v-.028q0-.526-.297-.816-.293-.293-.875-.293-.609 0-.957.266t-.48.585l-1.043-.265q.207-.547.585-.875.379-.332.864-.477a3.44 3.44 0 011.746-.066 2.2 2.2 0 01.754.301q.355.219.582.632.225.416.226 1.086V296H28.44v-.816h-.047q-.105.215-.332.437a1.8 1.8 0 01-.582.367 2.3 2.3 0 01-.86.145m.227-.906q.5 0 .851-.196.355-.199.54-.515.183-.32.183-.68v-.793a.6.6 0 01-.246.121 4 4 0 01-.414.09 10 10 0 01-.453.066l-.367.047a3.2 3.2 0 00-.633.149 1.07 1.07 0 00-.461.296q-.172.192-.172.512 0 .445.328.676.332.227.844.227M33.863 290v.898h-3.238V290zm-2.351-1.438h1.105v5.688q0 .351.106.527.105.176.273.239.168.062.36.062.144 0 .246-.019l.164-.032.207.93a2 2 0 01-.285.078 2 2 0 01-.458.043 2 2 0 01-.835-.164 1.5 1.5 0 01-.641-.527q-.242-.355-.242-.895zm6.17 7.559q-.878 0-1.515-.379a2.54 2.54 0 01-.98-1.074q-.344-.695-.344-1.625 0-.922.343-1.625.344-.707.962-1.102.62-.394 1.449-.394.5 0 .968.164.474.164.852.523.38.356.598.93.222.575.222 1.395v.406h-4.734v-.856h3.64a1.8 1.8 0 00-.195-.836 1.4 1.4 0 00-.535-.582 1.5 1.5 0 00-.808-.214q-.508 0-.883.25a1.67 1.67 0 00-.575.644 1.87 1.87 0 00-.203.859v.645q0 .621.22 1.055.218.433.608.66.396.226.918.226.345 0 .622-.097.277-.098.48-.293t.313-.485l1.05.211a1.96 1.96 0 01-.472.84q-.34.36-.848.559-.508.195-1.152.195m6.372 2.254q-.704 0-1.211-.184a2.4 2.4 0 01-.828-.484 2.1 2.1 0 01-.489-.652l.938-.438q.11.169.289.367.183.2.496.34t.813.141q.68 0 1.12-.328.446-.328.446-1.047v-1.188h-.074q-.105.184-.301.422a1.6 1.6 0 01-.54.41q-.343.176-.901.176-.715 0-1.286-.336a2.37 2.37 0 01-.902-.992q-.332-.656-.332-1.609 0-.946.324-1.629.328-.688.899-1.055.575-.367 1.308-.367.562 0 .907.187.347.188.539.434.19.246.293.426h.09V290h1.078v6.145q0 .77-.356 1.261a2.07 2.07 0 01-.965.731 3.7 3.7 0 01-1.355.238m-.016-3.398q.516 0 .871-.243.36-.242.543-.691.188-.453.188-1.082 0-.618-.184-1.086-.18-.473-.539-.734-.356-.266-.879-.266-.543 0-.906.277a1.7 1.7 0 00-.543.75 3 3 0 00-.18 1.059q0 .598.184 1.051.183.453.547.711.363.254.898.254m6.795 1.144q-.836 0-1.46-.387a2.6 2.6 0 01-.974-1.082q-.343-.695-.343-1.625 0-.933.343-1.632.348-.7.973-1.086.626-.387 1.461-.387t1.46.387.97 1.086q.348.699.347 1.632 0 .93-.347 1.625-.344.696-.97 1.082-.624.387-1.46.387m.004-.941q.563 0 .93-.297a1.76 1.76 0 00.55-.785q.18-.489.18-1.071t-.18-1.074a1.8 1.8 0 00-.55-.793q-.368-.3-.93-.301-.57 0-.942.301a1.8 1.8 0 00-.546.793q-.18.492-.18 1.074t.18 1.071q.18.488.547.785.37.297.94.297m4.098.82v-6h1.07v.941h.063q.165-.473.582-.75.418-.28.95-.281.105 0 .253.008.152.004.239.016v1.074a2 2 0 00-.239-.043 2.4 2.4 0 00-.359-.028q-.418 0-.746.176a1.35 1.35 0 00-.52.485 1.33 1.33 0 00-.187.707V296zm4.2 0v-6h1.106v6zm.56-6.945a.72.72 0 01-.508-.2.63.63 0 01-.211-.476q0-.282.21-.481a.73.73 0 01.508-.199q.297 0 .508.199.21.2.211.481a.63.63 0 01-.21.476q-.212.2-.509.2m4.714 7.066q-.879 0-1.515-.379a2.54 2.54 0 01-.98-1.074q-.345-.695-.345-1.625 0-.922.344-1.625.345-.707.961-1.102.62-.394 1.45-.394.5 0 .968.164.472.164.852.523.378.356.597.93.223.575.223 1.395v.406H62.23v-.856h3.64a1.8 1.8 0 00-.195-.836 1.4 1.4 0 00-.535-.582 1.5 1.5 0 00-.809-.214q-.508 0-.883.25a1.67 1.67 0 00-.574.644 1.9 1.9 0 00-.203.859v.645q0 .621.219 1.055.218.433.609.66.395.226.918.226.344 0 .621-.097.278-.098.48-.293.204-.195.313-.485l1.05.211a1.96 1.96 0 01-.472.84q-.34.36-.848.559-.507.195-1.152.195m8.313-4.687-1 .199a1.4 1.4 0 00-.215-.391 1.06 1.06 0 00-.39-.305 1.4 1.4 0 00-.622-.121q-.507 0-.851.231-.34.226-.336.582a.6.6 0 00.226.5q.231.188.735.308l.941.219q.82.192 1.223.594.406.399.406 1.031 0 .536-.309.953-.308.414-.855.653-.543.234-1.262.234-.989 0-1.617-.422-.626-.422-.774-1.211l1.063-.187q.114.457.445.687.337.227.871.227.594 0 .946-.25.351-.25.351-.606a.64.64 0 00-.21-.488q-.212-.195-.65-.297l-1.007-.226q-.84-.187-1.234-.606-.395-.417-.395-1.055 0-.523.293-.921.293-.399.809-.621a3 3 0 011.183-.223q.954 0 1.5.414.547.41.735 1.098" class="fill-primary"/><path fill-rule="evenodd" d="M80.926 293.253a.467.467 0 00.66.021L85 290.073l3.414 3.201a.467.467 0 00.638-.681l-3.733-3.5a.467.467 0 00-.638 0l-3.734 3.5a.467.467 0 00-.021.66" clip-rule="evenodd" class="fill-symbol"/><path fill-rule="evenodd" d="M20.4 311.7a.9.9 0 100-1.8.9.9 0 000 1.8m3.2 0a.9.9 0 100-1.8.9.9 0 000 1.8m.9 2.3a.9.9 0 11-1.8 0 .9.9 0 011.8 0m-4.1.9a.9.9 0 100-1.8.9.9 0 000 1.8m4.1 2.3a.9.9 0 11-1.8 0 .9.9 0 011.8 0m-4.1.9a.9.9 0 100-1.8.9.9 0 000 1.8" clip-rule="evenodd" class="fill-ghost"/><path d="M36.5 311a2.5 2.5 0 012.5-2.5h6a2.5 2.5 0 012.5 2.5v6a2.5 2.5 0 01-2.5 2.5h-6a2.5 2.5 0 01-2.5-2.5z" class="fill-component"/><path d="M36.5 311a2.5 2.5 0 012.5-2.5h6a2.5 2.5 0 012.5 2.5v6a2.5 2.5 0 01-2.5 2.5h-6a2.5 2.5 0 01-2.5-2.5z" class="stroke-border"/><path d="M56.969 318v-8h.968v7.141h3.72V318zm8.5.125q-.813 0-1.426-.387a2.63 2.63 0 01-.953-1.082q-.34-.695-.34-1.625 0-.937.34-1.636.344-.7.953-1.086.613-.387 1.426-.387t1.422.387q.612.386.953 1.086.344.699.344 1.636 0 .93-.344 1.625a2.6 2.6 0 01-.953 1.082q-.61.387-1.422.387m0-.828q.617 0 1.015-.317.4-.315.59-.832.192-.515.192-1.117a3.2 3.2 0 00-.192-1.121 1.9 1.9 0 00-.59-.84q-.398-.32-1.015-.32t-1.016.32a1.9 1.9 0 00-.59.84 3.2 3.2 0 00-.191 1.121q0 .602.191 1.117.192.517.59.832.398.317 1.016.317m6.548 3.078q-.668 0-1.149-.172a2.4 2.4 0 01-.8-.445 2.4 2.4 0 01-.504-.586l.734-.516q.125.165.316.375.192.215.524.371.336.16.879.16.726 0 1.199-.351t.473-1.102v-1.218h-.079a5 5 0 01-.289.406q-.184.239-.531.426-.344.183-.93.183-.726 0-1.304-.343a2.4 2.4 0 01-.91-1.001q-.332-.656-.332-1.593 0-.922.324-1.606.324-.687.902-1.062.577-.38 1.336-.379.585 0 .93.195.347.192.53.438.188.242.29.398h.094V312h.89v6.172q0 .774-.351 1.258a2 2 0 01-.938.715 3.6 3.6 0 01-1.304.23m-.032-3.297q.555 0 .938-.254a1.6 1.6 0 00.582-.73q.2-.477.2-1.141 0-.649-.196-1.144a1.7 1.7 0 00-.578-.778q-.382-.28-.946-.281-.585 0-.976.297a1.8 1.8 0 00-.582.797 3.1 3.1 0 00-.192 1.109q0 .625.196 1.106.2.476.586.75.39.269.968.269m4.313.922v-6h.922v6zm.469-7a.65.65 0 01-.465-.184.59.59 0 01-.192-.441q0-.258.192-.441a.65.65 0 01.465-.184.64.64 0 01.46.184q.195.183.196.441a.58.58 0 01-.195.441.64.64 0 01-.461.184m3.063 3.391V318h-.922v-6h.89v.937h.079q.21-.456.64-.734.43-.28 1.11-.281.61 0 1.066.25.458.246.711.75.255.5.254 1.266V318h-.922v-3.75q0-.707-.367-1.102-.367-.398-1.008-.398-.441 0-.789.191-.343.192-.543.559-.199.367-.199.891M88.561 318v-8h4.797v.859H89.53v2.703H93v.86H89.53V318zm8.097.141q-.57 0-1.035-.215a1.8 1.8 0 01-.738-.629q-.274-.414-.274-1 0-.516.203-.836a1.44 1.44 0 01.543-.508q.34-.183.75-.273.415-.094.832-.149.547-.07.887-.105.345-.039.5-.129.16-.09.16-.313v-.031q0-.578-.316-.898-.312-.321-.95-.321-.66 0-1.034.289-.375.29-.528.618l-.875-.313q.234-.546.625-.851.395-.309.86-.43.469-.125.921-.125.29 0 .665.07.378.066.73.278.356.21.59.636t.234 1.141V318h-.922v-.813h-.047q-.093.196-.312.418-.219.223-.582.379-.363.157-.887.157m.14-.829q.548 0 .923-.214a1.47 1.47 0 00.765-1.27v-.844q-.059.07-.258.129-.194.055-.453.098a22 22 0 01-.882.117q-.36.047-.672.152a1.16 1.16 0 00-.5.309q-.188.202-.188.555 0 .48.356.726.36.243.91.242m4.293.688v-6h.922v6zm.469-7a.65.65 0 01-.465-.184.59.59 0 01-.192-.441q0-.258.192-.441a.65.65 0 01.465-.184q.269 0 .461.184.195.183.195.441a.58.58 0 01-.195.441.64.64 0 01-.461.184m3.063-1v8h-.922v-8zm5.47 5.547V312h.922v6h-.922v-1.016h-.063q-.21.457-.656.778-.445.316-1.125.316-.562 0-1-.246a1.7 1.7 0 01-.687-.75q-.25-.504-.25-1.27V312h.921v3.75q0 .655.368 1.047.37.39.945.39.344 0 .699-.175.36-.176.602-.539.246-.364.246-.926m2.61 2.453v-6h.891v.906h.062q.165-.446.594-.722.429-.278.969-.278.1 0 .254.004.152.004.23.012v.937a3.5 3.5 0 00-.562-.062q-.438 0-.782.183-.34.18-.539.5a1.35 1.35 0 00-.195.723V318zm6.426.125q-.867 0-1.496-.383a2.57 2.57 0 01-.965-1.078q-.336-.695-.336-1.617t.336-1.625a2.66 2.66 0 01.945-1.102q.61-.398 1.422-.398.469 0 .926.156t.832.508q.375.348.598.922t.222 1.414v.39h-4.625v-.796h3.688q0-.508-.203-.907a1.54 1.54 0 00-.571-.629 1.6 1.6 0 00-.867-.23q-.55 0-.953.273-.399.27-.613.704a2.1 2.1 0 00-.215.929v.532q0 .68.234 1.152.239.469.66.715.423.242.981.242.363 0 .656-.102.297-.105.512-.312.215-.211.332-.524l.891.25a2 2 0 01-.473.797 2.3 2.3 0 01-.82.531 3 3 0 01-1.098.188" class="fill-primary"/><path d="M216 313.5h372" class="stroke-divider-subtle"/><path fill-rule="evenodd" d="M20.4 333.7a.9.9 0 100-1.8.9.9 0 000 1.8m3.2 0a.9.9 0 100-1.8.9.9 0 000 1.8m.9 2.3a.9.9 0 11-1.8 0 .9.9 0 011.8 0m-4.1.9a.9.9 0 100-1.8.9.9 0 000 1.8m4.1 2.3a.9.9 0 11-1.8 0 .9.9 0 011.8 0m-4.1.9a.9.9 0 100-1.8.9.9 0 000 1.8" clip-rule="evenodd" class="fill-ghost"/><path d="M36.5 333a2.5 2.5 0 012.5-2.5h6a2.5 2.5 0 012.5 2.5v6a2.5 2.5 0 01-2.5 2.5h-6a2.5 2.5 0 01-2.5-2.5z" class="fill-component"/><path d="M36.5 333a2.5 2.5 0 012.5-2.5h6a2.5 2.5 0 012.5 2.5v6a2.5 2.5 0 01-2.5 2.5h-6a2.5 2.5 0 01-2.5-2.5z" class="stroke-border"/><path d="M56.969 340v-8h.968v7.141h3.72V340zm8.5.125q-.813 0-1.426-.387a2.63 2.63 0 01-.953-1.082q-.34-.695-.34-1.625 0-.937.34-1.636.344-.7.953-1.086.613-.387 1.426-.387t1.422.387q.612.386.953 1.086.344.699.344 1.636 0 .93-.344 1.625a2.6 2.6 0 01-.953 1.082q-.61.387-1.422.387m0-.828q.617 0 1.015-.317.4-.315.59-.832.192-.515.192-1.117a3.2 3.2 0 00-.192-1.121 1.9 1.9 0 00-.59-.84q-.398-.32-1.015-.32t-1.016.32a1.9 1.9 0 00-.59.84 3.2 3.2 0 00-.191 1.121q0 .602.191 1.117.192.517.59.832.398.317 1.016.317m6.548 3.078q-.668 0-1.149-.172a2.4 2.4 0 01-.8-.445 2.4 2.4 0 01-.504-.586l.734-.516q.125.165.316.375.192.215.524.371.336.16.879.16.726 0 1.199-.351t.473-1.102v-1.218h-.079a5 5 0 01-.289.406q-.184.239-.531.426-.344.183-.93.183-.726 0-1.304-.343a2.4 2.4 0 01-.91-1.001q-.332-.656-.332-1.593 0-.922.324-1.606.324-.687.902-1.062.577-.38 1.336-.379.585 0 .93.195.347.192.53.438.188.242.29.398h.094V334h.89v6.172q0 .774-.351 1.258a2 2 0 01-.938.715 3.6 3.6 0 01-1.304.23m-.032-3.297q.555 0 .938-.254a1.6 1.6 0 00.582-.73q.2-.477.2-1.141 0-.649-.196-1.144a1.7 1.7 0 00-.578-.778q-.382-.28-.946-.281-.585 0-.976.297a1.8 1.8 0 00-.582.797 3.1 3.1 0 00-.192 1.109q0 .625.196 1.106.2.476.586.75.39.269.968.269m4.313.922v-6h.922v6zm.469-7a.65.65 0 01-.465-.184.59.59 0 01-.192-.441q0-.258.192-.441a.65.65 0 01.465-.184.64.64 0 01.46.184q.195.183.196.441a.58.58 0 01-.195.441.64.64 0 01-.461.184m3.063 3.391V340h-.922v-6h.89v.937h.079q.21-.456.64-.734.43-.28 1.11-.281.61 0 1.066.25.458.246.711.75.255.5.254 1.266V340h-.922v-3.75q0-.707-.367-1.102-.367-.398-1.008-.398-.441 0-.789.191-.343.192-.543.559-.199.367-.199.891M92.936 334a1.23 1.23 0 00-.57-.922q-.5-.328-1.226-.328-.532 0-.93.172a1.5 1.5 0 00-.617.473 1.13 1.13 0 00-.219.683q0 .32.152.551.157.226.399.379.241.148.508.246.266.093.488.152l.812.219q.313.082.696.227.386.144.738.394.355.246.586.633t.23.949q0 .648-.34 1.172-.335.523-.984.832-.645.309-1.566.309-.86 0-1.489-.278a2.37 2.37 0 01-.984-.773 2.2 2.2 0 01-.402-1.152h1q.039.453.304.749.27.294.68.438.414.141.89.141.556 0 .997-.18.44-.183.7-.508.257-.328.257-.766 0-.397-.223-.648a1.6 1.6 0 00-.586-.406 6 6 0 00-.785-.274l-.984-.281q-.938-.27-1.485-.769-.546-.5-.547-1.309 0-.672.364-1.172.368-.504.984-.781a3.3 3.3 0 011.387-.281q.773 0 1.375.277.601.273.953.75.355.476.375 1.082zm6.296 3.547V334h.922v6h-.922v-1.016h-.062q-.211.457-.656.778-.445.316-1.125.316-.563 0-1-.246a1.73 1.73 0 01-.688-.75q-.25-.504-.25-1.27V334h.922v3.75q0 .655.367 1.047.372.39.946.39.344 0 .699-.175.36-.176.601-.539.246-.364.246-.926m5.048 2.578q-.844 0-1.453-.398a2.6 2.6 0 01-.937-1.098q-.328-.7-.328-1.598 0-.914.335-1.613.34-.703.946-1.098.609-.398 1.422-.398.633 0 1.14.234.508.234.832.656.325.423.403.985h-.922a1.44 1.44 0 00-.469-.727q-.36-.32-.969-.32-.538 0-.945.281a1.84 1.84 0 00-.629.785q-.222.504-.223 1.184 0 .696.219 1.211.223.516.625.801.407.285.953.285.36 0 .653-.125a1.34 1.34 0 00.785-.922h.922a2.13 2.13 0 01-1.196 1.629q-.5.246-1.164.246m6.145 0q-.844 0-1.453-.398a2.6 2.6 0 01-.938-1.098q-.328-.7-.328-1.598 0-.914.336-1.613.34-.703.945-1.098.61-.398 1.422-.398.633 0 1.141.234.507.234.832.656t.402.985h-.922a1.43 1.43 0 00-.468-.727q-.36-.32-.969-.32-.54 0-.946.281a1.84 1.84 0 00-.628.785q-.223.504-.223 1.184 0 .696.219 1.211.222.516.625.801.406.285.953.285.359 0 .652-.125a1.33 1.33 0 00.785-.922h.922a2.13 2.13 0 01-1.195 1.629q-.5.246-1.164.246m6.222 0q-.867 0-1.496-.383a2.57 2.57 0 01-.964-1.078q-.336-.695-.336-1.617t.336-1.625q.339-.707.945-1.102.609-.398 1.422-.398.469 0 .925.156.458.156.833.508.375.348.597.922.223.574.223 1.414v.39h-4.625v-.796h3.687q0-.508-.203-.907a1.54 1.54 0 00-.57-.629 1.6 1.6 0 00-.867-.23q-.55 0-.953.273-.398.27-.614.704a2.1 2.1 0 00-.215.929v.532q0 .68.235 1.152.239.469.66.715.422.242.98.242.364 0 .657-.102.297-.105.511-.312.216-.211.332-.524l.891.25a2 2 0 01-.473.797 2.3 2.3 0 01-.82.531 3 3 0 01-1.098.188m8.137-4.781-.828.234a1.6 1.6 0 00-.23-.402 1.1 1.1 0 00-.407-.328q-.258-.129-.66-.129-.55 0-.918.254-.363.25-.363.636 0 .345.25.543.25.2.781.332l.891.219q.804.196 1.199.598.395.398.395 1.027 0 .516-.297.922a2 2 0 01-.821.641q-.527.234-1.226.234-.918 0-1.52-.398-.602-.399-.761-1.165l.875-.218q.124.484.472.726.353.243.918.242.645 0 1.024-.273.382-.277.382-.664a.7.7 0 00-.218-.523q-.219-.215-.672-.321l-1-.234q-.825-.195-1.211-.606-.383-.414-.383-1.035 0-.507.285-.898.29-.391.785-.613a2.75 2.75 0 011.133-.223q.89 0 1.399.39.511.392.726 1.032m5.747 0-.828.234a1.6 1.6 0 00-.23-.402 1.1 1.1 0 00-.407-.328q-.257-.129-.66-.129-.55 0-.918.254-.363.25-.363.636 0 .345.25.543.25.2.781.332l.891.219q.804.196 1.199.598.395.398.395 1.027 0 .516-.297.922a2 2 0 01-.821.641q-.527.234-1.226.234-.918 0-1.52-.398-.602-.399-.761-1.165l.875-.218q.125.484.472.726.352.243.918.242.645 0 1.024-.273.383-.277.383-.664a.7.7 0 00-.219-.523q-.219-.215-.672-.321l-1-.234q-.825-.195-1.211-.606-.383-.414-.383-1.035 0-.507.285-.898.29-.391.785-.613a2.75 2.75 0 011.133-.223q.89 0 1.399.39.512.392.726 1.032" class="fill-primary"/><path d="M216 335.5h372" class="stroke-divider-subtle"/><path d="M17.492 370h-1.215l2.891-8h1.297l2.894 8h-1.215l-2.296-6.594h-.063zm.254-3.129h4.14v.973h-4.14zm9.121 3.25q-.863 0-1.488-.394a2.6 2.6 0 01-.957-1.098q-.332-.699-.332-1.602 0-.914.344-1.613.344-.703.96-1.098.622-.394 1.462-.394.667 0 1.195.246.53.246.86.695.328.446.394 1.039h-1.082a1.4 1.4 0 00-.438-.726q-.34-.309-.914-.309-.5 0-.875.262a1.7 1.7 0 00-.586.742q-.207.477-.207 1.129 0 .664.203 1.152.207.489.582.754.376.266.883.266.344 0 .617-.121a1.26 1.26 0 00.465-.356q.192-.23.27-.558h1.082a2.18 2.18 0 01-1.22 1.726q-.518.258-1.218.258m6.47-6.121v.898h-3.238V364zm-2.352-1.438h1.106v5.688q0 .351.105.527t.274.239q.168.062.36.062.144 0 .245-.019l.164-.032.207.93a2 2 0 01-.285.078 2 2 0 01-.457.043 2 2 0 01-.836-.164 1.5 1.5 0 01-.64-.527q-.243-.355-.243-.895zm3.67 7.438v-6h1.105v6zm.558-6.945a.72.72 0 01-.508-.2.63.63 0 01-.21-.476q0-.282.21-.481a.73.73 0 01.508-.199q.297 0 .508.199.21.2.21.481a.63.63 0 01-.21.476q-.21.2-.508.2m7.222.945-2.187 6h-1.172l-2.187-6h1.191l1.55 4.66h.063l1.555-4.66zm1.125 6v-6h1.105v6zm.558-6.945a.72.72 0 01-.508-.2.63.63 0 01-.21-.476q0-.282.21-.481a.73.73 0 01.508-.199q.297 0 .508.199.21.2.21.481a.63.63 0 01-.21.476q-.21.2-.508.2m4.902.945v.898h-3.238V364zm-2.351-1.438h1.105v5.688q0 .351.106.527.105.176.273.239.168.062.36.062.144 0 .246-.019l.164-.032.207.93a2 2 0 01-.285.078 2 2 0 01-.457.043 2 2 0 01-.836-.164 1.5 1.5 0 01-.64-.527q-.243-.355-.243-.895zM50.338 370v-6h1.105v6zm.559-6.945a.72.72 0 01-.508-.2.63.63 0 01-.211-.476q0-.282.21-.481a.73.73 0 01.509-.199q.296 0 .507.199.21.2.211.481a.63.63 0 01-.21.476q-.211.2-.508.2m4.714 7.066q-.878 0-1.515-.379a2.54 2.54 0 01-.98-1.074q-.344-.695-.344-1.625 0-.922.343-1.625.345-.707.961-1.102.62-.394 1.45-.394.5 0 .968.164.473.164.852.523.379.356.597.93.223.575.223 1.395v.406h-4.734v-.856h3.64a1.8 1.8 0 00-.195-.836 1.4 1.4 0 00-.535-.582 1.5 1.5 0 00-.809-.214q-.508 0-.883.25a1.67 1.67 0 00-.574.644 1.9 1.9 0 00-.203.859v.645q0 .621.219 1.055t.61.66q.393.226.917.226.344 0 .621-.097.278-.098.48-.293.204-.195.313-.485l1.051.211a1.96 1.96 0 01-.473.84q-.34.36-.847.559-.508.195-1.153.195m8.313-4.687-1 .199a1.4 1.4 0 00-.215-.391 1.1 1.1 0 00-.39-.305 1.4 1.4 0 00-.622-.121q-.507 0-.851.231-.34.226-.336.582a.6.6 0 00.226.5q.231.188.735.308l.941.219q.82.192 1.223.594.406.399.406 1.031 0 .536-.309.953-.308.414-.855.653-.543.234-1.262.234-.989 0-1.617-.422-.625-.422-.773-1.211l1.062-.187q.114.457.445.687.337.227.871.227.595 0 .946-.25t.351-.606a.64.64 0 00-.21-.488q-.211-.195-.649-.297l-1.008-.226q-.84-.187-1.234-.606-.395-.417-.395-1.055 0-.523.293-.921.293-.399.809-.621.518-.223 1.184-.223.952 0 1.5.414.546.41.734 1.098" class="fill-primary"/><path fill-rule="evenodd" d="M71.926 367.253a.467.467 0 00.66.021L76 364.073l3.414 3.201a.467.467 0 00.638-.681l-3.733-3.5a.467.467 0 00-.638 0l-3.734 3.5a.467.467 0 00-.021.66" clip-rule="evenodd" class="fill-symbol"/><path d="M216.5 58v300M309.25 58v300M402 58v300M494.75 58v300M587.5 58v300" class="stroke-divider-subtle"/><path stroke-width="2" d="M217.73 121v118" opacity=".32" class="stroke-main"/><circle cx="217.73" cy="121" r="3" class="fill-main"/><circle cx="217.73" cy="239" r="3" class="fill-main"/><path stroke-width="2" d="M310.48 143v119" opacity=".32" class="stroke-main"/><circle cx="310.48" cy="143" r="3" class="fill-main"/><circle cx="310.48" cy="262" r="3" class="fill-main"/><path stroke-width="2" d="M310.48 262v51" opacity=".32" class="stroke-main"/><circle cx="310.48" cy="262" r="3" class="fill-main"/><circle cx="310.48" cy="313" r="3" class="fill-main"/><path stroke-width="2" d="M268.853 262v74" opacity=".32" class="stroke-main"/><circle cx="268.853" cy="262" r="3" class="fill-main"/><circle cx="268.853" cy="336" r="3" class="fill-main"/><path stroke-width="2" d="M463.116 262v51" opacity=".32" class="stroke-main"/><circle cx="463.116" cy="262" r="3" class="fill-main"/><circle cx="463.116" cy="313" r="3" class="fill-main"/><path stroke-width="2" d="M577.776 262v51" opacity=".32" class="stroke-main"/><circle cx="577.776" cy="262" r="3" class="fill-main"/><circle cx="577.776" cy="313" r="3" class="fill-main"/><path stroke-width="2" d="M568.282 262v51" opacity=".32" class="stroke-main"/><circle cx="568.282" cy="262" r="3" class="fill-main"/><circle cx="568.282" cy="313" r="3" class="fill-main"/><path stroke-width="2" d="M563.9 262v51" opacity=".32" class="stroke-main"/><circle cx="563.9" cy="262" r="3" class="fill-main"/><circle cx="563.9" cy="313" r="3" class="fill-main"/><path stroke-width="2" d="M232.337 262v51" opacity=".32" class="stroke-main"/><circle cx="232.337" cy="262" r="3" class="fill-main"/><circle cx="232.337" cy="313" r="3" class="fill-main"/><path stroke-width="2" d="M232.337 144v118" opacity=".32" class="stroke-main"/><circle cx="232.337" cy="144" r="3" class="fill-main"/><circle cx="232.337" cy="262" r="3" class="fill-main"/><path stroke-width="2" d="M587.27 262v74" opacity=".32" class="stroke-main"/><circle cx="587.27" cy="262" r="3" class="fill-main"/><circle cx="587.27" cy="336" r="3" class="fill-main"/><path stroke-dasharray="4 4" stroke-width="2" d="M310.48 313v76" opacity=".32" class="stroke-main"/><circle cx="310.48" cy="313" r="3" class="fill-main"/><path stroke-dasharray="4 4" stroke-width="2" d="M463.116 313v75" opacity=".32" class="stroke-main"/><circle cx="463.116" cy="313" r="3" class="fill-main"/><path stroke-dasharray="4 4" stroke-width="2" d="M577.776 313v75" opacity=".32" class="stroke-main"/><circle cx="577.776" cy="313" r="3" class="fill-main"/><path stroke-dasharray="4 4" stroke-width="2" d="M587.27 336v52" opacity=".32" class="stroke-main"/><circle cx="587.27" cy="336" r="3" class="fill-main"/><path stroke-width="2" d="M339.693 262v74" opacity=".32" class="stroke-main"/><circle cx="339.693" cy="262" r="3" class="fill-main"/><circle cx="339.693" cy="336" r="3" class="fill-main"/><path stroke-width="2" d="M344.075 262v74" opacity=".32" class="stroke-main"/><circle cx="344.075" cy="262" r="3" class="fill-main"/><circle cx="344.075" cy="336" r="3" class="fill-main"/><path stroke-width="2" d="M349.187 144v192" opacity=".32" class="stroke-main"/><circle cx="349.187" cy="144" r="3" class="fill-main"/><circle cx="349.187" cy="336" r="3" class="fill-main"/><path stroke-width="2" d="M388.624 217v96" opacity=".32" class="stroke-main"/><circle cx="388.624" cy="217" r="3" class="fill-main"/><circle cx="388.624" cy="313" r="3" class="fill-main"/><path stroke-width="2" d="M383.512 262v74" opacity=".32" class="stroke-main"/><circle cx="383.512" cy="262" r="3" class="fill-main"/><circle cx="383.512" cy="336" r="3" class="fill-main"/><path stroke-width="2" d="M541.26 262v74" opacity=".32" class="stroke-main"/><circle cx="541.26" cy="262" r="3" class="fill-main"/><circle cx="541.26" cy="336" r="3" class="fill-main"/><path stroke-dasharray="4 4" stroke-width="2" d="M339.693 336v73" opacity=".32" class="stroke-main"/><circle cx="339.693" cy="336" r="3" class="fill-main"/><path stroke-dasharray="4 4" stroke-width="2" d="M344.075 336v73" opacity=".32" class="stroke-main"/><circle cx="344.075" cy="336" r="3" class="fill-main"/><path stroke-dasharray="4 4" stroke-width="2" d="M388.624 313v96" opacity=".32" class="stroke-main"/><circle cx="388.624" cy="313" r="3" class="fill-main"/><path stroke-dasharray="4 4" stroke-width="2" d="M383.512 336v73" opacity=".32" class="stroke-main"/><circle cx="383.512" cy="336" r="3" class="fill-main"/><path stroke-width="2" d="M354.299 144v192" opacity=".32" class="stroke-main"/><circle cx="354.299" cy="144" r="3" class="fill-main"/><circle cx="354.299" cy="336" r="3" class="fill-main"/><path stroke-width="2" d="M383.512 144v118" opacity=".32" class="stroke-main"/><circle cx="383.512" cy="144" r="3" class="fill-main"/><circle cx="383.512" cy="262" r="3" class="fill-main"/><path stroke-width="2" d="M541.26 144v118" opacity=".32" class="stroke-main"/><circle cx="541.26" cy="144" r="3" class="fill-main"/><circle cx="541.26" cy="262" r="3" class="fill-main"/><path stroke-width="2" d="M388.624 144v73" opacity=".32" class="stroke-main"/><circle cx="388.624" cy="144" r="3" class="fill-main"/><circle cx="388.624" cy="217" r="3" class="fill-main"/><path stroke-width="2" d="M457.274 144v73" opacity=".32" class="stroke-main"/><circle cx="457.274" cy="144" r="3" class="fill-main"/><circle cx="457.274" cy="217" r="3" class="fill-main"/><path stroke-width="2" d="M587.27 143v119" opacity=".32" class="stroke-main"/><circle cx="587.27" cy="143" r="3" class="fill-main"/><circle cx="587.27" cy="262" r="3" class="fill-main"/><path stroke-width="2" d="M317.053 121v141" opacity=".32" class="stroke-main"/><circle cx="317.053" cy="121" r="3" class="fill-main"/><circle cx="317.053" cy="262" r="3" class="fill-main"/><path stroke-width="2" d="M462.386 121v141" opacity=".32" class="stroke-main"/><circle cx="462.386" cy="121" r="3" class="fill-main"/><circle cx="462.386" cy="262" r="3" class="fill-main"/><path stroke-width="2" d="M247.673 100v139" opacity=".32" class="stroke-main"/><circle cx="247.673" cy="100" r="3" class="fill-main"/><circle cx="247.673" cy="239" r="3" class="fill-main"/><path stroke-width="2" d="M480.644 100v162" opacity=".32" class="stroke-main"/><circle cx="480.644" cy="100" r="3" class="fill-main"/><circle cx="480.644" cy="262" r="3" class="fill-main"/><path stroke-width="2" d="M254.246 121v118" opacity=".32" class="stroke-main"/><circle cx="254.246" cy="121" r="3" class="fill-main"/><circle cx="254.246" cy="239" r="3" class="fill-main"/><path stroke-width="2" d="M489.408 121v141" opacity=".32" class="stroke-main"/><circle cx="489.408" cy="121" r="3" class="fill-main"/><circle cx="489.408" cy="262" r="3" class="fill-main"/><path stroke-width="2" d="M260.819 143v96" opacity=".32" class="stroke-main"/><circle cx="260.819" cy="143" r="3" class="fill-main"/><circle cx="260.819" cy="239" r="3" class="fill-main"/><path stroke-width="2" d="M494.52 165v97" opacity=".32" class="stroke-main"/><circle cx="494.52" cy="165" r="3" class="fill-main"/><circle cx="494.52" cy="262" r="3" class="fill-main"/><path stroke-width="2" d="M283.459 143v96" opacity=".32" class="stroke-main"/><circle cx="283.459" cy="143" r="3" class="fill-main"/><circle cx="283.459" cy="239" r="3" class="fill-main"/><path stroke-width="2" d="M504.014 143v119" opacity=".32" class="stroke-main"/><circle cx="504.014" cy="143" r="3" class="fill-main"/><circle cx="504.014" cy="262" r="3" class="fill-main"/></g><defs><clipPath id="widget-__a"><path d="M16 16h576v352H16z" class="fill-main-contrast"/></clipPath><clipPath id="widget-__b"><path d="M164 28h16v16h-16z" class="fill-main-contrast"/></clipPath></defs></svg>