<svg xmlns="http://www.w3.org/2000/svg" width="608" height="384" fill="none" viewBox="0 0 608 384" class="portfolio-widget"><path d="M.5 6A5.5 5.5 0 0 1 6 .5h596a5.5 5.5 0 0 1 5.5 5.5v372a5.5 5.5 0 0 1-5.5 5.5H6A5.5 5.5 0 0 1 .5 378z" class="fill-container"/><path d="M.5 6A5.5 5.5 0 0 1 6 .5h596a5.5 5.5 0 0 1 5.5 5.5v372a5.5 5.5 0 0 1-5.5 5.5H6A5.5 5.5 0 0 1 .5 378z" class="stroke-divider"/><g clip-path="url(#clip0_8394_40423)"><path d="M19 16.5h154a2.5 2.5 0 0 1 2.5 2.5v34a2.5 2.5 0 0 1-2.5 2.5H19a2.5 2.5 0 0 1-2.5-2.5V19a2.5 2.5 0 0 1 2.5-2.5" class="fill-tint"/><path d="M19 16.5h154a2.5 2.5 0 0 1 2.5 2.5v34a2.5 2.5 0 0 1-2.5 2.5H19a2.5 2.5 0 0 1-2.5-2.5V19a2.5 2.5 0 0 1 2.5-2.5Z" class="stroke-divider-subtle"/><path d="M33.994 41h-1.67l3.365-9.454h1.879L40.933 41h-1.671l-2.6-7.626h-.073zm.153-3.702h4.949v1.283h-4.95zm10.876 3.845q-1.044 0-1.796-.466a3.13 3.13 0 0 1-1.154-1.293q-.402-.825-.401-1.897 0-1.084.41-1.911t1.16-1.293q.75-.466 1.767-.466.836 0 1.487.31.651.303 1.043.858.397.553.462 1.297h-1.473a1.55 1.55 0 0 0-.485-.859q-.378-.35-1.01-.35-.545 0-.956.29-.406.286-.637.822-.227.53-.227 1.27 0 .747.227 1.292.225.54.632.836.411.29.96.29a1.6 1.6 0 0 0 .688-.142q.31-.144.517-.411.213-.273.291-.656h1.473a2.7 2.7 0 0 1-.448 1.283 2.6 2.6 0 0 1-1.025.878q-.642.318-1.505.318m7.84-7.234v1.2h-3.975v-1.2zm-2.955-1.699h1.529v6.685q0 .365.11.558.111.19.291.259.184.065.402.065.161 0 .286-.023l.198-.037.268 1.223a4 4 0 0 1-.364.092q-.236.056-.578.065-.586.014-1.075-.194a1.77 1.77 0 0 1-.78-.642q-.291-.433-.287-1.09zM54.322 41v-7.09h1.528V41zm.77-8.139a.92.92 0 0 1-.65-.254.82.82 0 0 1-.268-.614q0-.355.268-.61a.92.92 0 0 1 .65-.253q.379 0 .647.254.272.254.272.61 0 .36-.272.613a.9.9 0 0 1-.646.254m8.748 1.048L61.286 41h-1.662l-2.548-7.09h1.63l1.712 5.363h.074l1.717-5.364zM65.06 41v-7.09h1.528V41zm.77-8.139a.92.92 0 0 1-.65-.254.82.82 0 0 1-.268-.614q0-.355.268-.61a.92.92 0 0 1 .65-.253q.38 0 .647.254.273.254.273.61 0 .36-.273.613a.9.9 0 0 1-.646.254m5.973 1.048v1.2H67.83v-1.2zM68.85 32.21h1.528v6.685q0 .365.11.558.112.19.292.259.185.065.401.065.162 0 .286-.023l.199-.037.268 1.223a4 4 0 0 1-.365.092q-.236.056-.577.065-.586.014-1.076-.194a1.77 1.77 0 0 1-.78-.642q-.291-.433-.286-1.09zm5.368 11.45a3.3 3.3 0 0 1-.596-.052 2 2 0 0 1-.42-.115l.36-1.214q.375.105.665.092a.8.8 0 0 0 .512-.198q.226-.19.388-.628l.162-.425-2.585-7.21h1.625l1.712 5.428h.074l1.722-5.429h1.63L76.58 41.9a3.1 3.1 0 0 1-.521.956q-.319.392-.776.595-.453.208-1.066.208m16.268-9.11a2.7 2.7 0 0 0-.337-.715 2.18 2.18 0 0 0-1.177-.882 2.8 2.8 0 0 0-.822-.115q-.784 0-1.403.397-.614.393-.974 1.159-.356.766-.356 1.874t.356 1.879q.356.766.978 1.163.628.397 1.445.397.744 0 1.293-.295.554-.296.854-.836.305-.54.305-1.274l.378.065h-2.64v-1.26h3.78v1.103q0 1.205-.512 2.087a3.53 3.53 0 0 1-1.408 1.357q-.895.475-2.059.475-1.293 0-2.271-.586-.975-.591-1.519-1.68-.545-1.09-.545-2.586 0-1.135.319-2.035.318-.9.895-1.529a3.9 3.9 0 0 1 1.362-.964 4.3 4.3 0 0 1 1.704-.333q.775 0 1.445.231.674.226 1.195.642a3.58 3.58 0 0 1 1.32 2.262zM93.803 41v-7.09h1.482v1.153h.074q.195-.591.674-.923.485-.337 1.099-.337.133 0 .309.014.175.009.286.027v1.432a2 2 0 0 0-.318-.06 3 3 0 0 0-.43-.033q-.475 0-.85.203a1.5 1.5 0 0 0-.586.554 1.54 1.54 0 0 0-.212.813V41zm7.031.148q-.674 0-1.214-.245a2 2 0 0 1-.859-.72q-.314-.48-.314-1.177 0-.605.227-.993.23-.393.618-.623a3.1 3.1 0 0 1 .868-.346q.485-.12.997-.176.628-.073 1.02-.124.393-.051.573-.162.18-.11.18-.355v-.033q0-.558-.328-.868-.323-.309-.946-.309-.656 0-1.034.286-.38.287-.522.656l-1.426-.259q.207-.646.641-1.062.435-.42 1.03-.618.6-.204 1.292-.203.471 0 .96.11.494.11.915.38.42.267.678.747.264.48.263 1.219V41h-1.477v-.97h-.055q-.14.278-.411.536a2.1 2.1 0 0 1-.688.42 2.7 2.7 0 0 1-.988.162m.365-1.164q.54 0 .928-.212.387-.217.595-.563.213-.352.212-.757v-.877a.8.8 0 0 1-.277.129q-.198.055-.447.101-.25.042-.49.074l-.411.056a3.5 3.5 0 0 0-.697.17 1.17 1.17 0 0 0-.498.333q-.185.212-.185.558 0 .49.36.74.36.248.91.248m5.02 3.675v-9.75h1.496v1.159h.106q.129-.236.36-.526.231-.296.633-.508.4-.217 1.043-.217a2.75 2.75 0 0 1 1.505.425q.67.425 1.057 1.241.388.818.388 1.985 0 1.154-.383 1.976-.384.818-1.048 1.251-.665.434-1.514.434-.629 0-1.035-.207a2 2 0 0 1-.641-.5 3.4 3.4 0 0 1-.365-.535h-.074v3.772zm1.5-6.204q0 .715.204 1.26.207.54.6.845.392.3.955.3.582 0 .979-.314a1.9 1.9 0 0 0 .596-.859q.203-.545.203-1.232 0-.683-.199-1.215a1.83 1.83 0 0 0-.595-.84q-.393-.31-.984-.31-.572.001-.965.296-.392.291-.595.822-.198.531-.199 1.247m8.102-.637V41h-1.528v-9.454h1.501v3.545h.087q.245-.591.762-.933.522-.34 1.339-.341.734 0 1.283.304.55.306.85.9.304.596.304 1.469V41h-1.528v-4.298q0-.747-.383-1.163-.382-.416-1.071-.416-.466 0-.835.199a1.4 1.4 0 0 0-.573.577q-.208.378-.208.919" class="fill-primary"/><g clip-path="url(#clip1_8394_40423)"><path fill-rule="evenodd" d="M151.542 28.693a.91.91 0 0 0-.884.707l-.254 1.12a5.7 5.7 0 0 0-1.151.477l-.972-.612a.91.91 0 0 0-1.125.126l-.646.646c-.3.3-.352.766-.126 1.125l.613.972c-.199.361-.36.747-.477 1.15l-1.12.255a.91.91 0 0 0-.707.884v.914c0 .424.294.79.707.885l1.12.254q.177.608.477 1.151l-.613.972a.91.91 0 0 0 .126 1.124l.647.647c.299.3.766.352 1.124.126l.972-.613q.544.3 1.151.477l.254 1.12a.91.91 0 0 0 .884.707h.915c.423 0 .79-.294.884-.707l.254-1.12q.608-.177 1.151-.477l.972.613a.91.91 0 0 0 1.125-.126l.646-.646c.3-.3.352-.767.126-1.125l-.612-.971q.3-.544.478-1.152l1.119-.254a.91.91 0 0 0 .707-.885v-.914a.91.91 0 0 0-.707-.884l-1.119-.254a5.7 5.7 0 0 0-.478-1.152l.613-.972a.91.91 0 0 0-.126-1.124l-.647-.647a.906.906 0 0 0-1.124-.126l-.972.613a5.7 5.7 0 0 0-1.152-.478l-.254-1.12a.91.91 0 0 0-.884-.706zm-2.293 3.373a4.8 4.8 0 0 1 1.914-.793l.379-1.673h.915l.379 1.672a4.8 4.8 0 0 1 1.915.794l1.451-.915.647.647-.915 1.451c.394.562.67 1.212.794 1.915l1.672.38v.913l-1.673.38a4.8 4.8 0 0 1-.793 1.915l.914 1.45-.646.647-1.451-.915a4.8 4.8 0 0 1-1.915.794l-.379 1.672h-.915l-.379-1.673a4.8 4.8 0 0 1-1.914-.793l-1.451.915-.647-.647.915-1.45a4.8 4.8 0 0 1-.793-1.915l-1.673-.38v-.914l1.673-.38a4.8 4.8 0 0 1 .793-1.913l-.915-1.452.646-.646zM153.627 36a1.627 1.627 0 1 1-3.254-.001 1.627 1.627 0 0 1 3.254 0m.96 0a2.587 2.587 0 1 1-5.173 0 2.587 2.587 0 0 1 5.173 0" clip-rule="evenodd" class="fill-symbol"/></g><path d="M187.917 28.11a3 3 0 0 1-.985-.188 2.36 2.36 0 0 1-.898-.606q-.407-.43-.653-1.16-.246-.735-.246-1.843 0-1.063.199-1.883.2-.825.579-1.387.378-.567.914-.86a2.5 2.5 0 0 1 1.215-.292q.671 0 1.195.27.527.265.859.741.333.477.43 1.098h-.953a1.77 1.77 0 0 0-.516-.895q-.383-.355-1.015-.355-.93 0-1.465.809-.532.808-.535 2.27h.062a2.35 2.35 0 0 1 1.969-1.063q.687 0 1.258.343.57.34.914.942.343.597.343 1.37 0 .744-.332 1.36a2.5 2.5 0 0 1-.933.977q-.598.36-1.406.351m0-.86q.492 0 .882-.246a1.76 1.76 0 0 0 .621-.66 1.86 1.86 0 0 0 .231-.922q0-.496-.223-.902a1.7 1.7 0 0 0-.605-.653 1.6 1.6 0 0 0-.875-.242q-.371 0-.692.148-.32.146-.562.399-.238.254-.375.582a1.846 1.846 0 0 0 .703 2.242q.394.255.895.254m4.356 3V22h.891v.953h.109q.102-.156.281-.398.184-.246.524-.438.344-.195.929-.195.759 0 1.336.379.578.378.903 1.074.324.695.324 1.64 0 .954-.324 1.653-.325.695-.899 1.078a2.35 2.35 0 0 1-1.324.379q-.578 0-.926-.191a1.7 1.7 0 0 1-.535-.442 6 6 0 0 1-.289-.414h-.078v3.172zm.906-5.25q0 .68.199 1.2.2.515.582.808.383.29.938.289.578 0 .965-.305.39-.309.586-.828.2-.523.199-1.164a3.2 3.2 0 0 0-.195-1.14 1.77 1.77 0 0 0-.582-.81q-.387-.3-.973-.3-.562 0-.945.285-.383.281-.578.79a3.2 3.2 0 0 0-.196 1.175m5.797 3v-6h.891v.938h.078a1.5 1.5 0 0 1 .605-.747q.419-.27 1.004-.27.594 0 .988.27.399.266.622.747h.062a1.75 1.75 0 0 1 .691-.739q.461-.277 1.106-.277.804 0 1.316.504.512.5.512 1.558V28h-.922v-4.016q0-.663-.363-.949a1.34 1.34 0 0 0-.856-.285q-.632 0-.98.383-.348.379-.348.96V28h-.937v-4.11q0-.51-.332-.824-.333-.316-.856-.316-.358 0-.672.191a1.45 1.45 0 0 0-.5.532 1.57 1.57 0 0 0-.187.777V28z" class="fill-secondary"/><path d="M196.5 36v8" class="stroke-divider"/><path d="M276.114 28h-1.016l2.938-8h1l2.937 8h-1.015l-2.391-6.734h-.063zm.375-3.125h4.094v.86h-4.094zm10.386.672V22h.922v6h-.922v-1.016h-.062a1.97 1.97 0 0 1-.656.778q-.445.316-1.125.316-.563 0-1-.246a1.72 1.72 0 0 1-.688-.75q-.25-.505-.25-1.27V22h.922v3.75q0 .657.367 1.047.372.39.946.39.344 0 .699-.175.359-.175.601-.54.246-.363.246-.925m5.033 4.828q-.668 0-1.149-.172a2.5 2.5 0 0 1-.801-.445 2.5 2.5 0 0 1-.503-.586l.734-.516q.125.165.316.375.192.215.524.371.336.16.879.16.726 0 1.199-.351.473-.352.473-1.102v-1.218h-.079q-.101.163-.289.406-.183.238-.531.426-.344.183-.93.183a2.5 2.5 0 0 1-1.304-.343 2.4 2.4 0 0 1-.91-1q-.332-.657-.332-1.594 0-.922.324-1.606.324-.687.902-1.062a2.4 2.4 0 0 1 1.336-.38q.587 0 .93.196.348.192.531.438.187.242.289.398h.094V22h.89v6.172q0 .773-.351 1.258a2 2 0 0 1-.938.715 3.5 3.5 0 0 1-1.304.23m-.032-3.297q.555 0 .938-.254.382-.255.582-.73.2-.477.199-1.14 0-.65-.195-1.145-.195-.496-.578-.778-.383-.28-.946-.281-.586 0-.976.297a1.8 1.8 0 0 0-.582.797 3.1 3.1 0 0 0-.192 1.11q0 .624.196 1.105.2.476.586.75.39.27.968.27M303.08 20v8h-.969v-6.984h-.047l-1.953 1.297v-.985l2-1.328zm6.09 8.11a3 3 0 0 1-.984-.188 2.35 2.35 0 0 1-.898-.606q-.407-.43-.653-1.16-.246-.735-.246-1.843 0-1.063.199-1.883.2-.825.579-1.387.378-.567.914-.86a2.5 2.5 0 0 1 1.214-.292q.672 0 1.196.27.527.265.859.741.332.477.43 1.098h-.953a1.77 1.77 0 0 0-.516-.895q-.383-.355-1.016-.355-.93 0-1.464.809-.532.808-.536 2.27h.063a2.37 2.37 0 0 1 1.191-.934q.367-.13.778-.13.687 0 1.257.344.57.34.915.942.343.597.343 1.37 0 .744-.332 1.36a2.5 2.5 0 0 1-.933.977q-.599.36-1.407.351m0-.86q.493 0 .883-.246a1.76 1.76 0 0 0 .621-.66 1.86 1.86 0 0 0 .231-.922q0-.496-.223-.902a1.7 1.7 0 0 0-.605-.653 1.6 1.6 0 0 0-.875-.242q-.371 0-.692.148-.32.146-.562.399-.238.254-.375.582a1.846 1.846 0 0 0 .703 2.242q.394.255.894.254" class="fill-secondary"/><path d="M294.25 36v8" class="stroke-divider"/><path d="M383.669 28.11a3 3 0 0 1-.984-.188 2.35 2.35 0 0 1-.899-.606q-.406-.43-.652-1.16-.246-.735-.246-1.843 0-1.063.199-1.883.199-.825.578-1.387.379-.567.914-.86a2.5 2.5 0 0 1 1.215-.292q.672 0 1.195.27.527.265.86.741a2.6 2.6 0 0 1 .429 1.098h-.953a1.76 1.76 0 0 0-.515-.895q-.383-.355-1.016-.355-.93 0-1.465.809-.53.808-.535 2.27h.062a2.35 2.35 0 0 1 1.969-1.063q.688 0 1.258.343.57.34.914.942.344.597.344 1.37 0 .744-.332 1.36a2.54 2.54 0 0 1-.934.977q-.597.36-1.406.351m0-.86q.492 0 .883-.246a1.76 1.76 0 0 0 .621-.66 1.87 1.87 0 0 0 .23-.922q0-.496-.222-.902a1.7 1.7 0 0 0-.606-.653 1.6 1.6 0 0 0-.875-.242q-.371 0-.691.148-.32.146-.563.399-.238.254-.375.582a1.856 1.856 0 0 0 .086 1.574q.227.414.617.668.395.255.895.254m6.122.89q-.57 0-1.035-.214a1.77 1.77 0 0 1-.738-.63q-.274-.412-.274-1 0-.515.203-.835.204-.324.543-.508.34-.183.75-.273.414-.094.832-.149.547-.07.887-.105.344-.04.5-.13.16-.088.16-.312v-.03q0-.579-.316-.9-.313-.32-.949-.32-.661 0-1.036.29-.375.288-.527.617l-.875-.313q.235-.546.625-.851.394-.31.859-.43a3.6 3.6 0 0 1 .922-.125q.29 0 .664.07.379.067.731.277.355.211.59.637t.234 1.14V28h-.922v-.812h-.047q-.093.195-.312.418t-.582.378-.887.157m.141-.828q.546 0 .922-.214a1.47 1.47 0 0 0 .57-.555q.195-.34.195-.715v-.844q-.058.07-.258.13-.195.054-.453.097a20 20 0 0 1-.883.117 3.5 3.5 0 0 0-.671.152q-.31.102-.5.31-.188.202-.188.554 0 .48.355.726.36.243.911.242m4.292.688v-6h.89v.938h.078q.188-.48.606-.747.417-.27 1.004-.27.594 0 .988.27.399.266.621.747h.063q.23-.465.691-.739.46-.277 1.106-.277.804 0 1.316.504.512.5.512 1.558V28h-.922v-4.016q0-.663-.364-.949a1.34 1.34 0 0 0-.855-.285q-.633 0-.98.383-.348.379-.348.96V28h-.938v-4.11q0-.51-.332-.824-.332-.316-.855-.316-.36 0-.672.191a1.45 1.45 0 0 0-.5.532 1.57 1.57 0 0 0-.187.777V28z" class="fill-secondary"/><path d="M392 36v8" class="stroke-divider"/><path d="M478.637 20v8h-.969v-6.984h-.047l-1.953 1.297v-.985l2-1.328zm3.544 8v-.703l2.64-2.89q.465-.51.766-.884.3-.379.445-.71.149-.336.149-.704 0-.42-.203-.73a1.33 1.33 0 0 0-.547-.477 1.8 1.8 0 0 0-.782-.168q-.46 0-.804.192-.34.187-.528.527a1.66 1.66 0 0 0-.183.797h-.922q0-.703.324-1.234.325-.531.883-.828a2.66 2.66 0 0 1 1.262-.297q.703 0 1.246.297.543.296.851.8.309.504.309 1.121 0 .442-.16.864-.156.418-.547.933-.387.512-1.074 1.25l-1.797 1.922v.063h3.719V28zm6.903 2.25V22h.891v.953h.109q.101-.156.281-.398.184-.246.524-.438.344-.195.929-.195.759 0 1.336.379.578.378.903 1.074.324.695.324 1.64 0 .954-.324 1.653-.325.695-.899 1.078a2.35 2.35 0 0 1-1.324.379q-.578 0-.926-.191a1.7 1.7 0 0 1-.535-.442 6 6 0 0 1-.289-.414h-.078v3.172zm.906-5.25q0 .68.199 1.2.2.515.582.808.383.29.938.289.578 0 .965-.305.39-.309.586-.828.2-.523.199-1.164a3.2 3.2 0 0 0-.195-1.14 1.77 1.77 0 0 0-.582-.81q-.387-.3-.973-.3-.563 0-.945.285-.383.281-.578.79A3.2 3.2 0 0 0 489.99 25m5.797 3v-6h.891v.938h.078a1.5 1.5 0 0 1 .605-.747q.419-.27 1.004-.27.594 0 .989.27.397.266.621.747h.062q.23-.465.692-.739.46-.277 1.105-.277.804 0 1.316.504.512.5.512 1.558V28h-.922v-4.016q0-.663-.363-.949a1.34 1.34 0 0 0-.856-.285q-.632 0-.98.383-.348.379-.348.96V28h-.937v-4.11q0-.51-.332-.824-.333-.316-.856-.316-.358 0-.672.191a1.45 1.45 0 0 0-.5.532 1.57 1.57 0 0 0-.187.777V28z" class="fill-secondary"/><path d="M489.75 36v8" class="stroke-divider"/><path d="M578.917 28.11a3 3 0 0 1-.985-.188 2.36 2.36 0 0 1-.898-.606q-.407-.43-.653-1.16-.246-.735-.246-1.843 0-1.063.199-1.883.2-.825.579-1.387.378-.567.914-.86a2.5 2.5 0 0 1 1.215-.292q.671 0 1.195.27.527.265.859.741.333.477.43 1.098h-.953a1.77 1.77 0 0 0-.516-.895q-.383-.355-1.015-.355-.93 0-1.465.809-.532.808-.535 2.27h.062a2.35 2.35 0 0 1 1.969-1.063q.687 0 1.258.343.57.34.914.942.343.597.343 1.37 0 .744-.332 1.36a2.5 2.5 0 0 1-.933.977q-.598.36-1.406.351m0-.86q.492 0 .882-.246a1.76 1.76 0 0 0 .621-.66 1.86 1.86 0 0 0 .231-.922q0-.496-.223-.902a1.7 1.7 0 0 0-.605-.653 1.6 1.6 0 0 0-.875-.242q-.371 0-.692.148-.32.146-.562.399-.238.254-.375.582a1.846 1.846 0 0 0 .703 2.242q.394.255.895.254m4.356 3V22h.891v.953h.109q.101-.156.281-.398.184-.246.524-.438.344-.195.929-.195.759 0 1.336.379.578.378.903 1.074.324.695.324 1.64 0 .954-.324 1.653-.325.695-.899 1.078a2.35 2.35 0 0 1-1.324.379q-.578 0-.926-.191a1.7 1.7 0 0 1-.535-.442 6 6 0 0 1-.289-.414h-.078v3.172zm.906-5.25q0 .68.199 1.2.2.515.582.808.384.29.938.289.578 0 .965-.305.39-.309.586-.828.2-.523.199-1.164a3.2 3.2 0 0 0-.195-1.14 1.77 1.77 0 0 0-.582-.81q-.387-.3-.973-.3-.563 0-.945.285-.384.281-.578.79a3.2 3.2 0 0 0-.196 1.175m5.797 3v-6h.891v.938h.078a1.5 1.5 0 0 1 .605-.747q.419-.27 1.004-.27.594 0 .988.27.399.266.622.747h.062a1.75 1.75 0 0 1 .691-.739q.462-.277 1.106-.277.804 0 1.316.504.512.5.512 1.558V28h-.922v-4.016q0-.663-.363-.949a1.34 1.34 0 0 0-.856-.285q-.632 0-.98.383-.348.379-.348.96V28h-.937v-4.11q0-.51-.332-.824-.333-.316-.856-.316-.359 0-.672.191a1.45 1.45 0 0 0-.5.532 1.57 1.57 0 0 0-.187.777V28z" class="fill-secondary"/><path d="M587.5 36v8" class="stroke-divider"/><path d="M196 47.5a1.5 1.5 0 0 1 1.5-1.5h2.141a1.5 1.5 0 0 1 1.5 1.5v7a1.5 1.5 0 0 1-1.5 1.5H197.5a1.5 1.5 0 0 1-1.5-1.5z" class="fill-main"/><path d="M202.141 47.5a1.5 1.5 0 0 1 1.5-1.5h2.14a1.5 1.5 0 0 1 1.5 1.5v7a1.5 1.5 0 0 1-1.5 1.5h-2.14a1.5 1.5 0 0 1-1.5-1.5z" opacity=".8" class="fill-main"/><path d="M208.281 47.5a1.5 1.5 0 0 1 1.5-1.5h2.141a1.5 1.5 0 0 1 1.5 1.5v7a1.5 1.5 0 0 1-1.5 1.5h-2.141a1.5 1.5 0 0 1-1.5-1.5z" opacity=".1" class="fill-main"/><path d="M214.422 47.5a1.5 1.5 0 0 1 1.5-1.5h2.141a1.5 1.5 0 0 1 1.499 1.5v7a1.5 1.5 0 0 1-1.5 1.5h-2.14a1.5 1.5 0 0 1-1.5-1.5z" opacity=".25" class="fill-main"/><path d="M220.562 47.5a1.5 1.5 0 0 1 1.501-1.5h2.14a1.5 1.5 0 0 1 1.5 1.5v7a1.5 1.5 0 0 1-1.5 1.5h-2.141a1.5 1.5 0 0 1-1.5-1.5z" opacity=".15" class="fill-main"/><path d="M226.703 47.5a1.5 1.5 0 0 1 1.5-1.5h2.141a1.5 1.5 0 0 1 1.5 1.5v7a1.5 1.5 0 0 1-1.5 1.5h-2.141a1.5 1.5 0 0 1-1.5-1.5z" opacity=".5" class="fill-main"/><path d="M232.844 47.5a1.5 1.5 0 0 1 1.5-1.5h2.14a1.5 1.5 0 0 1 1.5 1.5v7a1.5 1.5 0 0 1-1.5 1.5h-2.14a1.5 1.5 0 0 1-1.5-1.5z" opacity=".75" class="fill-main"/><path d="M238.984 47.5a1.5 1.5 0 0 1 1.5-1.5h2.141a1.5 1.5 0 0 1 1.5 1.5v7a1.5 1.5 0 0 1-1.5 1.5h-2.141a1.5 1.5 0 0 1-1.5-1.5z" opacity=".95" class="fill-main"/><path d="M245.125 47.5a1.5 1.5 0 0 1 1.5-1.5h2.141a1.5 1.5 0 0 1 1.5 1.5v7a1.5 1.5 0 0 1-1.5 1.5h-2.141a1.5 1.5 0 0 1-1.5-1.5z" class="fill-main"/><path d="M251.266 47.5a1.5 1.5 0 0 1 1.5-1.5h2.14a1.5 1.5 0 0 1 1.5 1.5v7a1.5 1.5 0 0 1-1.5 1.5h-2.14a1.5 1.5 0 0 1-1.5-1.5z" opacity=".55" class="fill-main"/><path d="M257.406 47.5a1.5 1.5 0 0 1 1.5-1.5h2.141a1.5 1.5 0 0 1 1.5 1.5v7a1.5 1.5 0 0 1-1.5 1.5h-2.141a1.5 1.5 0 0 1-1.5-1.5z" opacity=".1" class="fill-main"/><path d="M263.547 47.5a1.5 1.5 0 0 1 1.5-1.5h2.141a1.5 1.5 0 0 1 1.5 1.5v7a1.5 1.5 0 0 1-1.501 1.5h-2.14a1.5 1.5 0 0 1-1.5-1.5z" opacity=".99" class="fill-main"/><path d="M269.688 47.5a1.5 1.5 0 0 1 1.5-1.5h2.14a1.5 1.5 0 0 1 1.5 1.5v7a1.5 1.5 0 0 1-1.5 1.5h-2.141a1.5 1.5 0 0 1-1.499-1.5z" opacity=".15" class="fill-main"/><path d="M275.828 47.5a1.5 1.5 0 0 1 1.5-1.5h2.141a1.5 1.5 0 0 1 1.5 1.5v7a1.5 1.5 0 0 1-1.5 1.5h-2.141a1.5 1.5 0 0 1-1.5-1.5z" opacity=".5" class="fill-main"/><path d="M281.969 47.5a1.5 1.5 0 0 1 1.5-1.5h2.14a1.5 1.5 0 0 1 1.5 1.5v7a1.5 1.5 0 0 1-1.5 1.5h-2.14a1.5 1.5 0 0 1-1.5-1.5z" opacity=".05" class="fill-main"/><path d="M288.109 47.5a1.5 1.5 0 0 1 1.5-1.5h2.141a1.5 1.5 0 0 1 1.5 1.5v7a1.5 1.5 0 0 1-1.5 1.5h-2.141a1.5 1.5 0 0 1-1.5-1.5z" opacity=".15" class="fill-main"/><path d="M294.25 47.5a1.5 1.5 0 0 1 1.5-1.5h2.141a1.5 1.5 0 0 1 1.5 1.5v7a1.5 1.5 0 0 1-1.5 1.5h-2.141a1.5 1.5 0 0 1-1.5-1.5z" class="fill-main"/><path d="M300.391 47.5a1.5 1.5 0 0 1 1.5-1.5h2.14a1.5 1.5 0 0 1 1.5 1.5v7a1.5 1.5 0 0 1-1.5 1.5h-2.14a1.5 1.5 0 0 1-1.5-1.5z" opacity=".8" class="fill-main"/><path d="M306.531 47.5a1.5 1.5 0 0 1 1.5-1.5h2.141a1.5 1.5 0 0 1 1.5 1.5v7a1.5 1.5 0 0 1-1.5 1.5h-2.141a1.5 1.5 0 0 1-1.5-1.5z" opacity=".1" class="fill-main"/><path d="M312.672 47.5a1.5 1.5 0 0 1 1.5-1.5h2.141a1.5 1.5 0 0 1 1.499 1.5v7a1.5 1.5 0 0 1-1.5 1.5h-2.14a1.5 1.5 0 0 1-1.5-1.5z" opacity=".25" class="fill-main"/><path d="M318.812 47.5a1.5 1.5 0 0 1 1.501-1.5h2.14a1.5 1.5 0 0 1 1.5 1.5v7a1.5 1.5 0 0 1-1.5 1.5h-2.141a1.5 1.5 0 0 1-1.5-1.5z" opacity=".15" class="fill-main"/><path d="M324.953 47.5a1.5 1.5 0 0 1 1.5-1.5h2.141a1.5 1.5 0 0 1 1.5 1.5v7a1.5 1.5 0 0 1-1.5 1.5h-2.141a1.5 1.5 0 0 1-1.5-1.5z" opacity=".5" class="fill-main"/><path d="M331.094 47.5a1.5 1.5 0 0 1 1.5-1.5h2.14a1.5 1.5 0 0 1 1.5 1.5v7a1.5 1.5 0 0 1-1.5 1.5h-2.14a1.5 1.5 0 0 1-1.5-1.5z" opacity=".75" class="fill-main"/><path d="M337.234 47.5a1.5 1.5 0 0 1 1.5-1.5h2.141a1.5 1.5 0 0 1 1.5 1.5v7a1.5 1.5 0 0 1-1.5 1.5h-2.141a1.5 1.5 0 0 1-1.5-1.5z" opacity=".95" class="fill-main"/><path d="M343.375 47.5a1.5 1.5 0 0 1 1.5-1.5h2.141a1.5 1.5 0 0 1 1.5 1.5v7a1.5 1.5 0 0 1-1.5 1.5h-2.141a1.5 1.5 0 0 1-1.5-1.5z" class="fill-main"/><path d="M349.516 47.5a1.5 1.5 0 0 1 1.5-1.5h2.14a1.5 1.5 0 0 1 1.5 1.5v7a1.5 1.5 0 0 1-1.5 1.5h-2.14a1.5 1.5 0 0 1-1.5-1.5z" opacity=".55" class="fill-main"/><path d="M355.656 47.5a1.5 1.5 0 0 1 1.5-1.5h2.141a1.5 1.5 0 0 1 1.5 1.5v7a1.5 1.5 0 0 1-1.5 1.5h-2.141a1.5 1.5 0 0 1-1.5-1.5z" opacity=".1" class="fill-main"/><path d="M367.938 47.5a1.5 1.5 0 0 1 1.5-1.5h2.14a1.5 1.5 0 0 1 1.5 1.5v7a1.5 1.5 0 0 1-1.5 1.5h-2.141a1.5 1.5 0 0 1-1.499-1.5z" opacity=".15" class="fill-main"/><path d="M374.078 47.5a1.5 1.5 0 0 1 1.5-1.5h2.141a1.5 1.5 0 0 1 1.5 1.5v7a1.5 1.5 0 0 1-1.5 1.5h-2.141a1.5 1.5 0 0 1-1.5-1.5z" opacity=".5" class="fill-main"/><path d="M380.219 47.5a1.5 1.5 0 0 1 1.5-1.5h2.14a1.5 1.5 0 0 1 1.5 1.5v7a1.5 1.5 0 0 1-1.5 1.5h-2.14a1.5 1.5 0 0 1-1.5-1.5z" opacity=".05" class="fill-main"/><path d="M386.359 47.5a1.5 1.5 0 0 1 1.5-1.5H390a1.5 1.5 0 0 1 1.5 1.5v7A1.5 1.5 0 0 1 390 56h-2.141a1.5 1.5 0 0 1-1.5-1.5z" opacity=".15" class="fill-main"/><path d="M404.781 47.5a1.5 1.5 0 0 1 1.5-1.5h2.141a1.5 1.5 0 0 1 1.5 1.5v7a1.5 1.5 0 0 1-1.5 1.5h-2.141a1.5 1.5 0 0 1-1.5-1.5z" opacity=".1" class="fill-main"/><path d="M410.922 47.5a1.5 1.5 0 0 1 1.5-1.5h2.141a1.5 1.5 0 0 1 1.499 1.5v7a1.5 1.5 0 0 1-1.5 1.5h-2.14a1.5 1.5 0 0 1-1.5-1.5z" opacity=".25" class="fill-main"/><path d="M417.062 47.5a1.5 1.5 0 0 1 1.501-1.5h2.14a1.5 1.5 0 0 1 1.5 1.5v7a1.5 1.5 0 0 1-1.5 1.5h-2.141a1.5 1.5 0 0 1-1.5-1.5z" opacity=".15" class="fill-main"/><path d="M423.203 47.5a1.5 1.5 0 0 1 1.5-1.5h2.141a1.5 1.5 0 0 1 1.5 1.5v7a1.5 1.5 0 0 1-1.5 1.5h-2.141a1.5 1.5 0 0 1-1.5-1.5z" opacity=".5" class="fill-main"/><path d="M435.484 47.5a1.5 1.5 0 0 1 1.5-1.5h2.141a1.5 1.5 0 0 1 1.5 1.5v7a1.5 1.5 0 0 1-1.5 1.5h-2.141a1.5 1.5 0 0 1-1.5-1.5z" opacity=".25" class="fill-main"/><path d="M453.906 47.5a1.5 1.5 0 0 1 1.5-1.5h2.141a1.5 1.5 0 0 1 1.5 1.5v7a1.5 1.5 0 0 1-1.5 1.5h-2.141a1.5 1.5 0 0 1-1.5-1.5z" opacity=".1" class="fill-main"/><path d="M460.047 47.5a1.5 1.5 0 0 1 1.5-1.5h2.141a1.5 1.5 0 0 1 1.5 1.5v7a1.5 1.5 0 0 1-1.501 1.5h-2.14a1.5 1.5 0 0 1-1.5-1.5z" opacity=".99" class="fill-main"/><path d="M466.188 47.5a1.5 1.5 0 0 1 1.5-1.5h2.14a1.5 1.5 0 0 1 1.5 1.5v7a1.5 1.5 0 0 1-1.5 1.5h-2.141a1.5 1.5 0 0 1-1.499-1.5z" opacity=".15" class="fill-main"/><path d="M472.328 47.5a1.5 1.5 0 0 1 1.5-1.5h2.141a1.5 1.5 0 0 1 1.5 1.5v7a1.5 1.5 0 0 1-1.5 1.5h-2.141a1.5 1.5 0 0 1-1.5-1.5z" opacity=".5" class="fill-main"/><path d="M478.469 47.5a1.5 1.5 0 0 1 1.5-1.5h2.14a1.5 1.5 0 0 1 1.5 1.5v7a1.5 1.5 0 0 1-1.5 1.5h-2.14a1.5 1.5 0 0 1-1.5-1.5z" opacity=".05" class="fill-main"/><path d="M484.609 47.5a1.5 1.5 0 0 1 1.5-1.5h2.141a1.5 1.5 0 0 1 1.5 1.5v7a1.5 1.5 0 0 1-1.5 1.5h-2.141a1.5 1.5 0 0 1-1.5-1.5z" opacity=".15" class="fill-main"/><path d="M503.031 47.5a1.5 1.5 0 0 1 1.5-1.5h2.141a1.5 1.5 0 0 1 1.5 1.5v7a1.5 1.5 0 0 1-1.5 1.5h-2.141a1.5 1.5 0 0 1-1.5-1.5z" opacity=".1" class="fill-main"/><path d="M509.172 47.5a1.5 1.5 0 0 1 1.5-1.5h2.141a1.5 1.5 0 0 1 1.499 1.5v7a1.5 1.5 0 0 1-1.5 1.5h-2.14a1.5 1.5 0 0 1-1.5-1.5z" opacity=".25" class="fill-main"/><path d="M515.312 47.5a1.5 1.5 0 0 1 1.501-1.5h2.14a1.5 1.5 0 0 1 1.5 1.5v7a1.5 1.5 0 0 1-1.5 1.5h-2.141a1.5 1.5 0 0 1-1.5-1.5z" opacity=".15" class="fill-main"/><path d="M521.453 47.5a1.5 1.5 0 0 1 1.5-1.5h2.141a1.5 1.5 0 0 1 1.5 1.5v7a1.5 1.5 0 0 1-1.5 1.5h-2.141a1.5 1.5 0 0 1-1.5-1.5z" opacity=".5" class="fill-main"/><path d="M546.016 47.5a1.5 1.5 0 0 1 1.5-1.5h2.14a1.5 1.5 0 0 1 1.5 1.5v7a1.5 1.5 0 0 1-1.5 1.5h-2.14a1.5 1.5 0 0 1-1.5-1.5z" opacity=".55" class="fill-main"/><path d="M552.156 47.5a1.5 1.5 0 0 1 1.5-1.5h2.141a1.5 1.5 0 0 1 1.5 1.5v7a1.5 1.5 0 0 1-1.5 1.5h-2.141a1.5 1.5 0 0 1-1.5-1.5z" opacity=".1" class="fill-main"/><path d="M558.297 47.5a1.5 1.5 0 0 1 1.5-1.5h2.141a1.5 1.5 0 0 1 1.5 1.5v7a1.5 1.5 0 0 1-1.501 1.5h-2.14a1.5 1.5 0 0 1-1.5-1.5z" opacity=".99" class="fill-main"/><path d="M564.438 47.5a1.5 1.5 0 0 1 1.5-1.5h2.14a1.5 1.5 0 0 1 1.5 1.5v7a1.5 1.5 0 0 1-1.5 1.5h-2.141a1.5 1.5 0 0 1-1.499-1.5z" opacity=".15" class="fill-main"/><path d="M570.578 47.5a1.5 1.5 0 0 1 1.5-1.5h2.141a1.5 1.5 0 0 1 1.5 1.5v7a1.5 1.5 0 0 1-1.5 1.5h-2.141a1.5 1.5 0 0 1-1.5-1.5z" opacity=".5" class="fill-main"/><path d="M576.719 47.5a1.5 1.5 0 0 1 1.5-1.5h2.14a1.5 1.5 0 0 1 1.5 1.5v7a1.5 1.5 0 0 1-1.5 1.5h-2.14a1.5 1.5 0 0 1-1.5-1.5z" opacity=".05" class="fill-main"/><path d="M582.859 47.5a1.5 1.5 0 0 1 1.5-1.5h2.141a1.5 1.5 0 0 1 1.5 1.5v7a1.5 1.5 0 0 1-1.5 1.5h-2.141a1.5 1.5 0 0 1-1.5-1.5z" opacity=".15" class="fill-main"/><path d="M17.492 82h-1.215l2.891-8h1.297l2.894 8h-1.215l-2.296-6.594h-.063zm.254-3.129h4.14v.973h-4.14zm10.49.648V76h1.105v6h-1.09v-1.035h-.062a1.9 1.9 0 0 1-.66.797q-.455.316-1.13.316a2 2 0 0 1-1.015-.254 1.76 1.76 0 0 1-.695-.758q-.25-.503-.25-1.25V76h1.105v3.695q0 .625.348.996.346.368.898.368.332 0 .664-.165.331-.167.555-.507.225-.345.226-.868M33.69 76v.898h-3.238V76zm-2.351-1.437h1.105v5.687q0 .351.106.527.105.176.273.239.168.062.36.062.144 0 .246-.02l.164-.03.207.929a2 2 0 0 1-.285.078 2 2 0 0 1-.457.043 2 2 0 0 1-.836-.164 1.5 1.5 0 0 1-.641-.527q-.242-.355-.242-.895zm4.903 3.863V82h-1.105v-8h1.093v2.969h.075q.21-.48.64-.762.434-.285 1.133-.285.617 0 1.078.25.465.25.719.754.258.504.258 1.258V82h-1.106v-3.695q0-.672-.347-1.043-.348-.375-.965-.375a1.54 1.54 0 0 0-.758.183 1.3 1.3 0 0 0-.523.524q-.192.343-.192.832m7.984 3.695q-.837 0-1.461-.387a2.6 2.6 0 0 1-.973-1.082q-.344-.695-.344-1.625 0-.933.344-1.633.348-.7.973-1.085.624-.387 1.46-.387.837 0 1.462.387.625.386.968 1.085.348.7.348 1.633 0 .93-.348 1.625a2.6 2.6 0 0 1-.968 1.082q-.626.387-1.461.387m.004-.941q.561 0 .93-.297.37-.297.55-.785.18-.49.18-1.07 0-.583-.18-1.075a1.8 1.8 0 0 0-.55-.793q-.369-.3-.93-.3-.57 0-.942.3-.367.3-.547.793a3.1 3.1 0 0 0-.18 1.074q0 .582.18 1.07t.547.786q.37.297.941.297m4.098.82v-6h1.07v.941h.063q.164-.472.582-.75.418-.28.95-.28.105 0 .253.007.153.004.238.016v1.074a2 2 0 0 0-.238-.043 2.3 2.3 0 0 0-.36-.028q-.417.001-.745.176a1.35 1.35 0 0 0-.52.485 1.33 1.33 0 0 0-.187.707V82zm8.634-4.566-1 .199a1.4 1.4 0 0 0-.215-.39 1.05 1.05 0 0 0-.39-.305 1.4 1.4 0 0 0-.622-.122q-.507 0-.851.23-.34.228-.336.583a.6.6 0 0 0 .226.5q.231.188.735.308l.941.22q.82.19 1.223.593.405.4.406 1.031 0 .536-.308.953-.309.414-.856.653-.543.234-1.262.234-.988 0-1.617-.422-.625-.422-.773-1.21l1.062-.188q.114.458.446.687.335.227.87.227.594 0 .946-.25t.352-.606a.64.64 0 0 0-.212-.488q-.21-.196-.648-.297l-1.008-.226q-.84-.187-1.234-.606-.395-.418-.395-1.055 0-.524.293-.921.294-.399.809-.622a3 3 0 0 1 1.183-.222q.954 0 1.5.414.547.41.735 1.098" class="fill-primary"/><path fill-rule="evenodd" d="M64.926 79.253a.467.467 0 0 0 .66.02l3.414-3.2 3.414 3.2a.467.467 0 1 0 .638-.68l-3.733-3.5a.467.467 0 0 0-.638 0l-3.734 3.5a.467.467 0 0 0-.021.66" clip-rule="evenodd" class="fill-symbol"/><path fill-rule="evenodd" d="M20.4 97.7a.9.9 0 1 0 0-1.8.9.9 0 0 0 0 1.8m3.2 0a.9.9 0 1 0 0-1.8.9.9 0 0 0 0 1.8m.9 2.3a.9.9 0 1 1-1.8 0 .9.9 0 0 1 1.8 0m-4.1.9a.9.9 0 1 0 0-1.8.9.9 0 0 0 0 1.8m4.1 2.3a.9.9 0 1 1-1.8 0 .9.9 0 0 1 1.8 0m-4.1.9a.9.9 0 1 0 0-1.8.9.9 0 0 0 0 1.8" clip-rule="evenodd" class="fill-ghost"/><path d="M36.5 97a2.5 2.5 0 0 1 2.5-2.5h6a2.5 2.5 0 0 1 2.5 2.5v6a2.5 2.5 0 0 1-2.5 2.5h-6a2.5 2.5 0 0 1-2.5-2.5z" class="fill-component"/><path d="M36.5 97a2.5 2.5 0 0 1 2.5-2.5h6a2.5 2.5 0 0 1 2.5 2.5v6a2.5 2.5 0 0 1-2.5 2.5h-6a2.5 2.5 0 0 1-2.5-2.5z" class="stroke-border"/><path d="M56.969 104v-8h.968v7.141h3.72V104zm6.062 0v-6h.922v6zm.469-7a.66.66 0 0 1-.465-.184.6.6 0 0 1-.191-.441.6.6 0 0 1 .191-.441.66.66 0 0 1 .465-.184q.27 0 .46.184.196.184.196.441a.58.58 0 0 1-.195.441.64.64 0 0 1-.461.184m6.392 2.344-.828.234a1.5 1.5 0 0 0-.231-.402 1.1 1.1 0 0 0-.406-.328q-.258-.13-.66-.13-.552 0-.918.255-.364.25-.364.636 0 .345.25.543.25.2.782.332l.89.219q.805.196 1.2.598.394.398.394 1.027 0 .516-.297.922a2 2 0 0 1-.82.641q-.527.234-1.227.234-.917 0-1.52-.398-.6-.399-.761-1.165l.875-.218q.124.484.473.726.351.243.918.242.644 0 1.023-.273.383-.277.383-.664a.7.7 0 0 0-.219-.523q-.219-.215-.672-.321l-1-.234q-.825-.195-1.21-.606-.383-.414-.383-1.035 0-.507.285-.898.288-.39.785-.614.499-.222 1.133-.222.89 0 1.398.39.511.39.727 1.032m3.262 4.797q-.57 0-1.035-.215a1.8 1.8 0 0 1-.738-.629q-.273-.415-.274-1 0-.516.204-.836.203-.324.542-.508.34-.183.75-.273.415-.094.833-.149.546-.07.886-.105.345-.039.5-.129.16-.09.16-.313v-.03q0-.579-.316-.9-.312-.32-.95-.32-.66 0-1.034.29-.375.288-.528.617l-.875-.313q.235-.547.625-.851a2.3 2.3 0 0 1 .86-.43q.469-.126.922-.125.288 0 .664.07.378.066.73.277.356.211.59.637t.234 1.141V104h-.922v-.813h-.046q-.094.196-.313.418a1.8 1.8 0 0 1-.582.379q-.363.157-.887.157m.14-.829q.548 0 .923-.214a1.47 1.47 0 0 0 .765-1.27v-.844q-.059.07-.257.129-.196.055-.453.098a22 22 0 0 1-.883.117q-.36.047-.672.152a1.16 1.16 0 0 0-.5.309q-.188.203-.188.555 0 .48.356.726.36.243.91.242m7.512.688v-8h.968v3.563h4.266V96h.969v8h-.969v-3.578h-4.266V104zm10.533.125q-.867 0-1.496-.383a2.57 2.57 0 0 1-.965-1.078q-.336-.695-.336-1.617t.336-1.625a2.65 2.65 0 0 1 .945-1.102q.61-.398 1.422-.398.469 0 .926.156.457.157.832.508.376.348.598.922t.222 1.414v.39h-4.625v-.796h3.688q0-.508-.203-.907a1.53 1.53 0 0 0-.57-.628 1.6 1.6 0 0 0-.868-.231q-.55 0-.953.273-.399.27-.613.704-.216.434-.215.929v.532q0 .68.234 1.152.24.469.66.715.422.242.98.242.364 0 .657-.102a1.4 1.4 0 0 0 .512-.312 1.4 1.4 0 0 0 .332-.524l.89.25a2 2 0 0 1-.472.797 2.3 2.3 0 0 1-.82.531 3 3 0 0 1-1.098.188m8.137-4.781-.829.234a1.5 1.5 0 0 0-.23-.402 1.1 1.1 0 0 0-.406-.328q-.258-.13-.66-.13-.552 0-.918.255-.364.25-.364.636 0 .345.25.543.25.2.782.332l.89.219q.805.196 1.2.598.394.398.394 1.027 0 .516-.297.922a2 2 0 0 1-.82.641q-.527.234-1.227.234-.917 0-1.52-.398-.6-.399-.761-1.165l.875-.218q.124.484.473.726.351.243.918.242.644 0 1.023-.273.383-.277.383-.664a.7.7 0 0 0-.219-.523q-.219-.215-.672-.321l-1-.234q-.825-.195-1.21-.606-.384-.414-.384-1.035 0-.507.286-.898.288-.39.785-.614.499-.222 1.133-.222.89 0 1.398.39.511.39.727 1.032m3.934 4.781q-.844 0-1.453-.398a2.6 2.6 0 0 1-.937-1.098q-.329-.7-.329-1.598 0-.914.336-1.613.34-.703.946-1.098.609-.398 1.422-.398.632 0 1.14.234t.832.656q.324.423.403.985h-.922a1.44 1.44 0 0 0-.469-.727q-.36-.32-.969-.32a1.62 1.62 0 0 0-.945.281 1.83 1.83 0 0 0-.629.785q-.222.504-.223 1.184 0 .695.219 1.211.222.516.625.801.407.285.953.285.36 0 .653-.125a1.34 1.34 0 0 0 .785-.922h.922a2.15 2.15 0 0 1-.387.957 2.17 2.17 0 0 1-.809.672q-.5.246-1.164.246m4.629-3.734V104h-.922v-8h.922v2.938h.078a1.7 1.7 0 0 1 .633-.739q.426-.277 1.133-.277.614 0 1.074.246.461.242.715.746.258.5.258 1.274V104h-.922v-3.75q0-.715-.371-1.106-.368-.394-1.02-.394-.453 0-.812.191a1.4 1.4 0 0 0-.563.559q-.203.367-.203.891m8.015 3.734q-.813 0-1.426-.387a2.63 2.63 0 0 1-.953-1.082q-.34-.695-.34-1.625 0-.937.34-1.637.344-.7.953-1.085.613-.387 1.426-.387.811 0 1.422.387.612.386.953 1.085.343.7.343 1.637 0 .93-.343 1.625a2.6 2.6 0 0 1-.953 1.082q-.61.387-1.422.387m0-.828q.617 0 1.015-.317.4-.316.59-.832.192-.515.192-1.117a3.2 3.2 0 0 0-.192-1.12 1.9 1.9 0 0 0-.59-.84q-.398-.321-1.015-.321-.618 0-1.016.32a1.9 1.9 0 0 0-.59.84q-.19.52-.191 1.121 0 .602.191 1.117.191.517.59.832.398.317 1.016.317m5.048-2.906V104h-.922v-6h.89v.938h.078a1.7 1.7 0 0 1 .641-.735q.43-.28 1.109-.281.61 0 1.067.25.458.246.711.75.254.5.254 1.266V104h-.922v-3.75q0-.706-.367-1.102-.368-.398-1.008-.398a1.6 1.6 0 0 0-.789.191q-.343.192-.543.559t-.199.891m7.934 5.984q-.668 0-1.148-.172a2.42 2.42 0 0 1-1.305-1.031l.734-.516q.126.165.317.375a1.6 1.6 0 0 0 .523.371q.336.16.879.16.727 0 1.199-.351t.473-1.102v-1.218h-.078a5 5 0 0 1-.289.406q-.185.238-.531.426-.344.183-.93.183-.726 0-1.305-.343a2.4 2.4 0 0 1-.91-1.001q-.332-.656-.332-1.593 0-.922.324-1.606.324-.687.903-1.062a2.4 2.4 0 0 1 1.336-.38q.585 0 .929.196.348.192.531.438.188.242.29.398h.093V98h.891v6.172q0 .774-.352 1.258a2 2 0 0 1-.937.715q-.587.23-1.305.23m-.031-3.297q.555 0 .937-.254a1.57 1.57 0 0 0 .582-.73q.2-.477.2-1.141 0-.648-.196-1.144-.195-.496-.578-.778-.382-.28-.945-.281-.586 0-.977.297a1.8 1.8 0 0 0-.582.797 3.1 3.1 0 0 0-.191 1.109q0 .625.195 1.106.2.475.586.75.39.269.969.269" class="fill-primary"/><path fill-rule="evenodd" d="M150.333 99.066a3.267 3.267 0 1 1-6.533 0 3.267 3.267 0 0 1 6.533 0m-.645 3.282a4.2 4.2 0 1 1 .66-.66l2.649 2.648a.467.467 0 0 1-.66.66z" clip-rule="evenodd" class="fill-ghost"/><path d="M196 99.5h392" class="stroke-divider-subtle"/><path fill-rule="evenodd" d="M20.4 119.7a.9.9 0 1 0 0-1.8.9.9 0 0 0 0 1.8m3.2 0a.9.9 0 1 0 0-1.8.9.9 0 0 0 0 1.8m.9 2.3a.9.9 0 1 1-1.8 0 .9.9 0 0 1 1.8 0m-4.1.9a.9.9 0 1 0 0-1.8.9.9 0 0 0 0 1.8m4.1 2.3a.9.9 0 1 1-1.8 0 .9.9 0 0 1 1.8 0m-4.1.9a.9.9 0 1 0 0-1.8.9.9 0 0 0 0 1.8" clip-rule="evenodd" class="fill-ghost"/><path d="M36.5 119a2.5 2.5 0 0 1 2.5-2.5h6a2.5 2.5 0 0 1 2.5 2.5v6a2.5 2.5 0 0 1-2.5 2.5h-6a2.5 2.5 0 0 1-2.5-2.5z" class="fill-component"/><path d="M36.5 119a2.5 2.5 0 0 1 2.5-2.5h6a2.5 2.5 0 0 1 2.5 2.5v6a2.5 2.5 0 0 1-2.5 2.5h-6a2.5 2.5 0 0 1-2.5-2.5z" class="stroke-border"/><path d="M62.219 118h.968v5.297q0 .82-.386 1.465a2.7 2.7 0 0 1-1.082 1.011q-.7.368-1.64.368-.942 0-1.642-.368a2.73 2.73 0 0 1-1.085-1.011 2.8 2.8 0 0 1-.383-1.465V118h.968v5.219q0 .585.258 1.043.258.453.735.715.48.257 1.148.257t1.149-.257a1.8 1.8 0 0 0 .734-.715q.258-.458.258-1.043zm2.778 8v-6h.89v.906h.063q.164-.446.594-.722.43-.278.969-.278.1 0 .254.004.152.004.23.012v.937a3.6 3.6 0 0 0-.562-.062q-.438 0-.782.183a1.348 1.348 0 0 0-.734 1.223V126zm8.343-4.656-.828.234a1.5 1.5 0 0 0-.23-.402 1.1 1.1 0 0 0-.407-.328q-.258-.129-.66-.129-.55 0-.918.254-.363.25-.363.636 0 .345.25.543.25.2.78.332l.892.219q.804.196 1.199.598.394.398.394 1.027 0 .516-.297.922a2 2 0 0 1-.82.641q-.527.234-1.226.234-.918 0-1.52-.398-.602-.399-.762-1.165l.875-.218q.126.484.473.726.351.243.918.242.644 0 1.023-.273.383-.277.383-.664a.7.7 0 0 0-.219-.523q-.219-.215-.671-.321l-1-.234q-.825-.195-1.212-.606-.382-.414-.382-1.035 0-.507.285-.898.289-.391.785-.613a2.75 2.75 0 0 1 1.133-.223q.891 0 1.398.39.512.391.727 1.032m5.278 2.203V120h.922v6h-.922v-1.016h-.062q-.212.457-.657.778-.444.316-1.125.316-.562 0-1-.246a1.73 1.73 0 0 1-.687-.75q-.25-.504-.25-1.27V120h.922v3.75q0 .655.367 1.047.371.39.945.39.345 0 .7-.175.36-.176.601-.539.246-.364.246-.926M82.15 118v8h-.922v-8zm3.454 8.141q-.57 0-1.035-.215a1.8 1.8 0 0 1-.738-.629q-.273-.415-.273-1 0-.516.203-.836a1.44 1.44 0 0 1 .543-.508q.339-.183.75-.273.414-.094.832-.149.546-.07.886-.105.345-.039.5-.129.16-.09.16-.313v-.031q0-.578-.316-.898-.313-.321-.949-.321-.66 0-1.035.289-.375.29-.528.618l-.874-.313q.234-.546.624-.851.395-.309.86-.43.469-.125.922-.125.29 0 .664.07.378.066.73.278.356.21.59.636t.234 1.141V126h-.921v-.813h-.047q-.094.196-.313.418a1.8 1.8 0 0 1-.582.379q-.363.157-.886.157m.141-.829q.547 0 .922-.214a1.47 1.47 0 0 0 .766-1.27v-.844q-.06.07-.258.129-.195.055-.453.098a22 22 0 0 1-.883.117q-.36.047-.672.152a1.16 1.16 0 0 0-.5.309q-.187.203-.187.555 0 .48.355.726.36.243.91.242m7.51.688v-8h4.798v.859h-3.828v2.703h3.468v.86h-3.468V126zm6.267 0v-6h.891v.906h.063q.164-.446.593-.722a1.75 1.75 0 0 1 .969-.278q.102 0 .254.004t.23.012v.937a3.4 3.4 0 0 0-.562-.062q-.438 0-.781.183-.34.18-.539.5a1.34 1.34 0 0 0-.196.723V126zm5.859.141q-.57 0-1.035-.215a1.8 1.8 0 0 1-.739-.629q-.273-.415-.273-1 0-.516.203-.836.204-.324.543-.508.34-.183.75-.273.414-.094.832-.149.547-.07.887-.105.344-.039.5-.129.16-.09.16-.313v-.031q0-.578-.316-.898-.313-.321-.95-.321-.66 0-1.035.289-.375.29-.527.618l-.875-.313q.234-.546.625-.851a2.3 2.3 0 0 1 .859-.43q.47-.125.922-.125.29 0 .664.07.379.066.731.278.355.21.589.636.235.426.235 1.141V126h-.922v-.813h-.047q-.094.196-.312.418-.219.223-.582.379-.364.157-.887.157m.14-.829q.547 0 .922-.214a1.47 1.47 0 0 0 .766-1.27v-.844q-.059.07-.258.129-.195.055-.453.098a22 22 0 0 1-.883.117 3.6 3.6 0 0 0-.672.152 1.17 1.17 0 0 0-.5.309q-.187.203-.187.555 0 .48.355.726.36.243.91.242m5.214-2.921V126h-.922v-6h.891v.937h.078q.211-.456.641-.734.43-.28 1.109-.281.61 0 1.067.25.456.246.711.75.253.5.253 1.266V126h-.921v-3.75q0-.707-.368-1.102-.366-.398-1.007-.398a1.6 1.6 0 0 0-.789.191q-.345.192-.543.559-.2.367-.2.891m6.372 1.421-.015-1.14h.187l2.625-2.672h1.141l-2.797 2.828h-.078zm-.859 2.188v-8h.922v8zm3.813 0-2.344-2.969.656-.64 2.859 3.609zm3.092-8v8h-.922v-8zm1.689 8v-6h.922v6zm.469-7a.65.65 0 0 1-.465-.184.59.59 0 0 1-.192-.441q0-.258.192-.441a.65.65 0 0 1 .465-.184q.269 0 .46.184a.58.58 0 0 1 .196.441.58.58 0 0 1-.196.441.64.64 0 0 1-.46.184m3.063 3.391V126h-.922v-6h.891v.937h.078q.211-.456.641-.734.43-.28 1.109-.281.61 0 1.066.25.458.246.711.75.254.5.254 1.266V126h-.922v-3.75q0-.707-.367-1.102-.367-.398-1.008-.398-.441 0-.789.191-.344.192-.543.559t-.199.891" class="fill-primary"/><path fill-rule="evenodd" d="M151.333 121.066a3.267 3.267 0 1 1-6.533 0 3.267 3.267 0 0 1 6.533 0m-.645 3.282a4.2 4.2 0 1 1 .66-.66l2.649 2.648a.467.467 0 0 1-.66.66z" clip-rule="evenodd" class="fill-ghost"/><path d="M196 121.5h392" class="stroke-divider-subtle"/><path fill-rule="evenodd" d="M20.4 141.7a.9.9 0 1 0 0-1.8.9.9 0 0 0 0 1.8m3.2 0a.9.9 0 1 0 0-1.8.9.9 0 0 0 0 1.8m.9 2.3a.9.9 0 1 1-1.8 0 .9.9 0 0 1 1.8 0m-4.1.9a.9.9 0 1 0 0-1.8.9.9 0 0 0 0 1.8m4.1 2.3a.9.9 0 1 1-1.8 0 .9.9 0 0 1 1.8 0m-4.1.9a.9.9 0 1 0 0-1.8.9.9 0 0 0 0 1.8" clip-rule="evenodd" class="fill-ghost"/><path d="M36.5 141a2.5 2.5 0 0 1 2.5-2.5h6a2.5 2.5 0 0 1 2.5 2.5v6a2.5 2.5 0 0 1-2.5 2.5h-6a2.5 2.5 0 0 1-2.5-2.5z" class="fill-component"/><path d="M36.5 141a2.5 2.5 0 0 1 2.5-2.5h6a2.5 2.5 0 0 1 2.5 2.5v6a2.5 2.5 0 0 1-2.5 2.5h-6a2.5 2.5 0 0 1-2.5-2.5z" class="stroke-border"/><path d="M56.969 148v-8h.968v3.562h4.266V140h.969v8h-.969v-3.578h-4.266V148zm9.783.141q-.57 0-1.035-.215a1.8 1.8 0 0 1-.739-.629q-.273-.415-.273-1 0-.516.203-.836a1.44 1.44 0 0 1 .543-.508 2.9 2.9 0 0 1 .75-.273q.415-.094.832-.149.547-.07.887-.105.345-.039.5-.129.16-.09.16-.313v-.031q0-.578-.316-.898-.313-.321-.95-.321-.66 0-1.035.289-.374.29-.527.618l-.875-.313q.234-.546.625-.851.395-.309.86-.43.469-.125.921-.125.29 0 .664.07.38.066.73.278.356.21.59.636.235.426.235 1.141V148h-.922v-.813h-.047q-.093.196-.312.418a1.8 1.8 0 0 1-.582.379q-.363.157-.887.157m.14-.829q.547 0 .922-.214a1.47 1.47 0 0 0 .766-1.27v-.844q-.058.07-.258.129-.195.055-.453.098a22 22 0 0 1-.883.117q-.36.047-.672.152a1.16 1.16 0 0 0-.5.309q-.186.202-.187.555 0 .48.355.726.36.243.91.242m4.672 2.938a2 2 0 0 1-.672-.109l.234-.813a1.8 1.8 0 0 0 .594.063.71.71 0 0 0 .457-.231q.203-.202.37-.66l.173-.469L70.5 142h1l1.656 4.781h.063L74.876 142h1l-2.547 6.875q-.171.464-.426.77-.254.308-.59.457a1.8 1.8 0 0 1-.75.148m7.112-2.109q-.57 0-1.035-.215a1.8 1.8 0 0 1-.739-.629q-.273-.415-.273-1 0-.516.203-.836a1.44 1.44 0 0 1 .543-.508q.34-.183.75-.273.414-.094.832-.149.547-.07.887-.105.344-.039.5-.129.16-.09.16-.313v-.031q0-.578-.317-.898-.312-.321-.949-.321-.66 0-1.035.289-.375.29-.527.618l-.875-.313q.234-.546.625-.851.395-.309.86-.43.468-.125.921-.125.29 0 .664.07.38.066.73.278.356.21.59.636.235.426.235 1.141V148h-.922v-.813h-.047q-.094.196-.312.418a1.8 1.8 0 0 1-.582.379q-.364.157-.887.157m.14-.829q.547 0 .922-.214a1.47 1.47 0 0 0 .766-1.27v-.844q-.06.07-.258.129-.195.055-.453.098a22 22 0 0 1-.883.117q-.36.047-.672.152a1.16 1.16 0 0 0-.5.309q-.187.202-.187.555 0 .48.355.726.36.243.91.242m6.73.813q-.813 0-1.426-.387a2.63 2.63 0 0 1-.953-1.082q-.34-.695-.34-1.625 0-.937.34-1.636.345-.7.953-1.086.613-.387 1.426-.387t1.422.387q.613.386.953 1.086.344.699.344 1.636 0 .93-.344 1.625a2.6 2.6 0 0 1-.953 1.082q-.61.387-1.422.387m0-.828q.617 0 1.015-.317.4-.316.59-.832.192-.515.192-1.117a3.2 3.2 0 0 0-.192-1.121 1.9 1.9 0 0 0-.59-.84q-.398-.32-1.015-.32-.618 0-1.016.32a1.9 1.9 0 0 0-.59.84 3.2 3.2 0 0 0-.191 1.121q0 .602.191 1.117.192.517.59.832.398.317 1.016.317M92.89 140h1.156l2.719 6.641h.093L99.58 140h1.155v8h-.906v-6.078h-.078L97.25 148h-.875l-2.5-6.078h-.078V148h-.906zm9.661 8v-6h.922v6zm.469-7a.65.65 0 0 1-.465-.184.59.59 0 0 1-.192-.441q0-.258.192-.441a.65.65 0 0 1 .465-.184q.269 0 .46.184a.58.58 0 0 1 .196.441.58.58 0 0 1-.196.441.64.64 0 0 1-.46.184m2.735 9.25a2 2 0 0 1-.672-.109l.234-.813q.336.085.594.063a.71.71 0 0 0 .457-.231q.203-.202.371-.66l.172-.469-2.219-6.031h1l1.657 4.781h.062l1.656-4.781h1l-2.547 6.875q-.171.464-.425.77a1.6 1.6 0 0 1-.59.457 1.8 1.8 0 0 1-.75.148m7.112-2.109q-.57 0-1.035-.215a1.8 1.8 0 0 1-.738-.629q-.274-.415-.274-1 0-.516.203-.836.204-.324.543-.508.34-.183.75-.273.415-.094.832-.149.548-.07.887-.105.344-.039.5-.129.16-.09.16-.313v-.031q0-.578-.316-.898-.313-.321-.949-.321-.66 0-1.035.289-.375.29-.528.618l-.875-.313q.234-.546.625-.851.395-.309.86-.43.468-.125.921-.125.29 0 .664.07.38.066.731.278.356.21.59.636t.234 1.141V148h-.922v-.813h-.047q-.093.196-.312.418-.219.223-.582.379-.363.157-.887.157m.141-.829q.547 0 .922-.214.378-.215.57-.555.195-.34.195-.715v-.844q-.059.07-.258.129-.195.055-.453.098a21 21 0 0 1-.882.117q-.36.047-.672.152a1.16 1.16 0 0 0-.5.309q-.188.202-.188.555 0 .48.356.726.359.243.91.242m4.12.688v-.703l3.406-4.375v-.063h-3.297V142h4.485v.734l-3.313 4.344v.063h3.422V148zm7.889.141q-.571 0-1.036-.215a1.8 1.8 0 0 1-.738-.629q-.273-.415-.273-1 0-.516.203-.836.203-.324.543-.508.339-.183.75-.273.414-.094.832-.149.546-.07.887-.105.343-.039.5-.129.16-.09.16-.313v-.031q0-.578-.317-.898-.312-.321-.949-.321-.66 0-1.035.289-.375.29-.527.618l-.875-.313q.234-.546.625-.851a2.3 2.3 0 0 1 .859-.43q.469-.125.922-.125.29 0 .664.07.379.066.73.278.356.21.59.636t.235 1.141V148h-.922v-.813h-.047q-.094.196-.313.418-.219.223-.582.379-.363.157-.886.157m.14-.829q.547 0 .922-.214.38-.215.57-.555.196-.34.196-.715v-.844q-.059.07-.258.129-.195.055-.453.098a23 23 0 0 1-.883.117q-.36.047-.672.152a1.16 1.16 0 0 0-.5.309q-.187.202-.187.555 0 .48.355.726.36.243.91.242m5.152-1.5-.016-1.14h.187l2.625-2.672h1.141l-2.797 2.828h-.078zm-.86 2.188v-8h.922v8zm3.813 0-2.344-2.969.656-.64 2.86 3.609zm2.171 0v-6h.921v6zm.468-7a.65.65 0 0 1-.464-.184.59.59 0 0 1-.192-.441q0-.258.192-.441a.65.65 0 0 1 .464-.184q.27 0 .461.184.196.183.196.441a.58.58 0 0 1-.196.441.64.64 0 0 1-.461.184" class="fill-primary"/><path fill-rule="evenodd" d="M155.333 143.066a3.267 3.267 0 1 1-6.533 0 3.267 3.267 0 0 1 6.533 0m-.645 3.282a4.2 4.2 0 1 1 .66-.66l2.649 2.648a.467.467 0 0 1-.66.66z" clip-rule="evenodd" class="fill-ghost"/><path d="M196 143.5h392" class="stroke-divider-subtle"/><path fill-rule="evenodd" d="M20.4 163.7a.9.9 0 1 0 0-1.8.9.9 0 0 0 0 1.8m3.2 0a.9.9 0 1 0 0-1.8.9.9 0 0 0 0 1.8m.9 2.3a.9.9 0 1 1-1.8 0 .9.9 0 0 1 1.8 0m-4.1.9a.9.9 0 1 0 0-1.8.9.9 0 0 0 0 1.8m4.1 2.3a.9.9 0 1 1-1.8 0 .9.9 0 0 1 1.8 0m-4.1.9a.9.9 0 1 0 0-1.8.9.9 0 0 0 0 1.8" clip-rule="evenodd" class="fill-ghost"/><path d="M36.5 163a2.5 2.5 0 0 1 2.5-2.5h6a2.5 2.5 0 0 1 2.5 2.5v6a2.5 2.5 0 0 1-2.5 2.5h-6a2.5 2.5 0 0 1-2.5-2.5z" class="fill-component"/><path d="M36.5 163a2.5 2.5 0 0 1 2.5-2.5h6a2.5 2.5 0 0 1 2.5 2.5v6a2.5 2.5 0 0 1-2.5 2.5h-6a2.5 2.5 0 0 1-2.5-2.5z" class="stroke-border"/><path d="M56.969 170v-8h2.703q.938 0 1.539.32.602.317.89.871.29.555.29 1.262t-.29 1.254a2.03 2.03 0 0 1-.886.859q-.598.309-1.528.309H57.5V166h2.156q.64 0 1.032-.188.394-.187.57-.531.18-.348.18-.828t-.18-.84a1.23 1.23 0 0 0-.574-.554q-.395-.2-1.043-.2h-1.703V170zm3.765-3.594 1.97 3.594h-1.126l-1.937-3.594zm5.519 3.719q-.813 0-1.426-.387a2.63 2.63 0 0 1-.953-1.082q-.34-.695-.34-1.625 0-.937.34-1.636.345-.7.953-1.086.613-.387 1.426-.387t1.422.387q.613.386.953 1.086.344.699.344 1.636 0 .93-.344 1.625a2.6 2.6 0 0 1-.953 1.082q-.609.387-1.422.387m0-.828q.617 0 1.016-.317.398-.316.59-.832.19-.515.19-1.117a3.2 3.2 0 0 0-.19-1.121 1.9 1.9 0 0 0-.59-.84q-.4-.32-1.016-.32-.618 0-1.016.32a1.9 1.9 0 0 0-.59.84 3.2 3.2 0 0 0-.19 1.121q0 .602.19 1.117.192.517.59.832.4.317 1.016.317m4.25.703v-8h.923v2.953h.078q.102-.156.281-.398.184-.246.524-.438.343-.195.93-.195.757 0 1.335.379.578.378.903 1.074.324.695.324 1.641 0 .953-.324 1.652a2.56 2.56 0 0 1-.899 1.078 2.35 2.35 0 0 1-1.324.379q-.579 0-.926-.191a1.7 1.7 0 0 1-.535-.442 6 6 0 0 1-.29-.414h-.109V170zm.907-3q0 .68.2 1.199.198.515.581.809.383.29.938.289.578 0 .965-.305.39-.309.586-.828.199-.524.199-1.164a3.2 3.2 0 0 0-.195-1.141 1.76 1.76 0 0 0-.582-.808q-.387-.301-.973-.301-.562 0-.945.285a1.7 1.7 0 0 0-.578.789q-.195.504-.196 1.176m8.317 3.125q-.868 0-1.496-.383a2.57 2.57 0 0 1-.965-1.078q-.336-.695-.336-1.617t.336-1.625q.339-.707.945-1.102.609-.398 1.422-.398.468 0 .926.156.456.157.832.508.375.348.597.922.223.574.223 1.414v.39h-4.625v-.796h3.687a2 2 0 0 0-.203-.907 1.54 1.54 0 0 0-.57-.629 1.6 1.6 0 0 0-.867-.23q-.55 0-.953.273-.399.27-.614.704a2.1 2.1 0 0 0-.214.929v.532q0 .68.234 1.152.239.468.66.715.422.242.98.242.364 0 .657-.102a1.4 1.4 0 0 0 .511-.312 1.4 1.4 0 0 0 .333-.524l.89.25a2 2 0 0 1-.473.797 2.3 2.3 0 0 1-.82.531 3 3 0 0 1-1.097.188m3.886-.125v-6h.89v.906h.063q.165-.446.594-.722.43-.278.969-.278.102 0 .254.004t.23.012v.937a3.6 3.6 0 0 0-.562-.062q-.437 0-.782.183a1.349 1.349 0 0 0-.734 1.223V170zm7.078-6v.781h-3.109V164zm-2.203-1.438h.922v5.719q0 .391.113.586a.6.6 0 0 0 .297.258q.184.063.387.062a2 2 0 0 0 .25-.015l.156-.031.188.828q-.094.035-.262.07a2 2 0 0 1-.426.039q-.39 0-.765-.168a1.5 1.5 0 0 1-.617-.512q-.243-.344-.243-.867zm7.778-.562v8h-.97v-8zm1.817 8v-6h.89v.906h.063q.164-.446.594-.722.429-.278.969-.278.1 0 .254.004.152.004.23.012v.937a3.5 3.5 0 0 0-.562-.062q-.438 0-.782.183a1.349 1.349 0 0 0-.734 1.223V170zm5.549 0-1.828-6h.968l1.297 4.594h.063l1.281-4.594h.984l1.266 4.578h.063l1.296-4.578h.969l-1.828 6h-.906l-1.313-4.609h-.093L104.538 170zm7.578 0v-6h.922v6zm.469-7a.65.65 0 0 1-.465-.184.59.59 0 0 1-.192-.441q0-.258.192-.441a.65.65 0 0 1 .465-.184q.269 0 .461.184.195.183.195.441a.58.58 0 0 1-.195.441.64.64 0 0 1-.461.184m3.063 3.391V170h-.922v-6h.891v.937h.078q.211-.456.641-.734.43-.28 1.109-.281.61 0 1.066.25.457.246.711.75.255.5.254 1.266V170h-.922v-3.75q0-.707-.367-1.102-.367-.398-1.008-.398-.441 0-.789.191-.343.192-.543.559-.198.368-.199.891" class="fill-primary"/><path fill-rule="evenodd" d="M137.333 165.066a3.267 3.267 0 1 1-6.533 0 3.267 3.267 0 0 1 6.533 0m-.645 3.282a4.2 4.2 0 1 1 .66-.66l2.649 2.648a.467.467 0 0 1-.66.66z" clip-rule="evenodd" class="fill-ghost"/><path d="M196 165.5h392" class="stroke-divider-subtle"/><path d="M16.496 192.992V192h6.145v.992h-2.5V200h-1.145v-7.008zm8.371 7.141q-.57 0-1.031-.211a1.73 1.73 0 0 1-.73-.621q-.27-.411-.27-.996 0-.512.195-.836a1.44 1.44 0 0 1 .532-.516q.335-.191.746-.285.41-.098.835-.152l.876-.102q.336-.043.492-.133.156-.093.156-.308v-.028q0-.526-.297-.816-.293-.293-.875-.293-.609 0-.957.266t-.48.585l-1.043-.265q.207-.547.586-.875.378-.332.863-.477a3.45 3.45 0 0 1 1.746-.066q.399.078.754.301.355.218.582.632.226.416.226 1.086V200h-1.085v-.816h-.047q-.105.215-.332.437a1.8 1.8 0 0 1-.582.367 2.3 2.3 0 0 1-.86.145m.227-.906q.5 0 .851-.196.355-.199.54-.515.183-.32.183-.68v-.793a.6.6 0 0 1-.246.121q-.18.051-.414.09a10 10 0 0 1-.453.066l-.367.047a3.2 3.2 0 0 0-.633.149 1.07 1.07 0 0 0-.461.296q-.172.192-.172.512 0 .445.328.676.332.227.844.227m6.757 3.148q-.704 0-1.211-.184a2.4 2.4 0 0 1-.829-.484 2.1 2.1 0 0 1-.488-.652l.938-.438q.11.169.289.367.183.2.496.34t.812.141q.68 0 1.122-.328.445-.329.445-1.047v-1.188h-.074q-.105.184-.301.422a1.6 1.6 0 0 1-.54.41q-.343.177-.902.176-.715 0-1.285-.336a2.37 2.37 0 0 1-.902-.992q-.332-.656-.332-1.609 0-.947.324-1.629.328-.688.898-1.055a2.37 2.37 0 0 1 1.31-.367q.561 0 .905.187.348.188.54.434.191.246.292.426h.09V194h1.078v6.145q0 .77-.355 1.261a2.07 2.07 0 0 1-.965.731 3.7 3.7 0 0 1-1.355.238m-.016-3.398q.516 0 .871-.243.36-.242.543-.691.188-.453.188-1.082 0-.618-.184-1.086-.18-.473-.54-.734-.355-.266-.878-.266-.543 0-.906.277a1.7 1.7 0 0 0-.543.75q-.18.473-.18 1.059 0 .597.184 1.051.183.453.546.711.364.254.899.254m8.725-3.543-1 .199a1.4 1.4 0 0 0-.215-.391 1.06 1.06 0 0 0-.39-.305 1.4 1.4 0 0 0-.622-.121q-.507 0-.852.231-.339.226-.336.582a.6.6 0 0 0 .227.5q.23.188.734.308l.942.219q.82.192 1.222.594.407.399.407 1.031 0 .536-.309.953-.308.414-.855.653-.543.234-1.262.234-.988 0-1.617-.422-.626-.422-.774-1.211l1.063-.187q.113.457.445.687.336.227.871.227.594 0 .946-.25.351-.25.351-.606a.64.64 0 0 0-.21-.488q-.212-.195-.65-.297l-1.007-.226q-.84-.187-1.234-.606-.396-.417-.395-1.055 0-.523.293-.921.293-.399.809-.621a3 3 0 0 1 1.183-.223q.954 0 1.5.414.547.41.735 1.098" class="fill-primary"/><path fill-rule="evenodd" d="M48.926 197.253a.467.467 0 0 0 .66.021L53 194.073l3.414 3.201a.467.467 0 0 0 .638-.681l-3.733-3.5a.467.467 0 0 0-.638 0l-3.734 3.5a.467.467 0 0 0-.021.66" clip-rule="evenodd" class="fill-symbol"/><path fill-rule="evenodd" d="M20.4 215.7a.9.9 0 1 0 0-1.8.9.9 0 0 0 0 1.8m3.2 0a.9.9 0 1 0 0-1.8.9.9 0 0 0 0 1.8m.9 2.3a.9.9 0 1 1-1.8 0 .9.9 0 0 1 1.8 0m-4.1.9a.9.9 0 1 0 0-1.8.9.9 0 0 0 0 1.8m4.1 2.3a.9.9 0 1 1-1.8 0 .9.9 0 0 1 1.8 0m-4.1.9a.9.9 0 1 0 0-1.8.9.9 0 0 0 0 1.8" clip-rule="evenodd" class="fill-ghost"/><path d="M36.5 215a2.5 2.5 0 0 1 2.5-2.5h6a2.5 2.5 0 0 1 2.5 2.5v6a2.5 2.5 0 0 1-2.5 2.5h-6a2.5 2.5 0 0 1-2.5-2.5z" class="fill-component"/><path d="M36.5 215a2.5 2.5 0 0 1 2.5-2.5h6a2.5 2.5 0 0 1 2.5 2.5v6a2.5 2.5 0 0 1-2.5 2.5h-6a2.5 2.5 0 0 1-2.5-2.5z" class="stroke-border"/><path d="M61.344 216a1.23 1.23 0 0 0-.57-.922q-.501-.328-1.227-.328-.531 0-.93.172a1.5 1.5 0 0 0-.617.473 1.13 1.13 0 0 0-.219.683q0 .32.153.551.156.226.398.379.241.148.508.246.266.093.488.152l.813.219a7 7 0 0 1 .695.227q.387.144.738.394.356.246.586.633t.23.949q0 .648-.34 1.172-.334.523-.984.832-.644.309-1.566.309-.86 0-1.488-.278a2.37 2.37 0 0 1-.985-.773 2.2 2.2 0 0 1-.402-1.152h1q.04.453.305.749.27.294.68.438.413.141.89.141.555 0 .996-.18.44-.183.7-.508.257-.328.257-.766 0-.397-.223-.648a1.6 1.6 0 0 0-.585-.406 6 6 0 0 0-.786-.274l-.984-.281q-.938-.27-1.484-.769-.547-.5-.547-1.309 0-.672.363-1.172.367-.504.984-.781a3.3 3.3 0 0 1 1.387-.281q.774 0 1.375.277.602.273.953.75.355.477.375 1.082zm4.952 6.125q-.813 0-1.426-.387a2.63 2.63 0 0 1-.953-1.082q-.34-.695-.34-1.625 0-.937.34-1.636.345-.7.953-1.086.613-.387 1.426-.387t1.422.387q.613.386.953 1.086.344.699.344 1.636 0 .93-.344 1.625a2.6 2.6 0 0 1-.953 1.082q-.61.387-1.422.387m0-.828q.617 0 1.015-.317.4-.316.59-.832.192-.515.192-1.117a3.2 3.2 0 0 0-.192-1.121 1.9 1.9 0 0 0-.59-.84q-.398-.32-1.015-.32-.618 0-1.016.32a1.9 1.9 0 0 0-.59.84 3.2 3.2 0 0 0-.191 1.121q0 .602.191 1.117.192.517.59.832.398.317 1.016.317M73.094 216v.781h-3.235V216zm-2.266 6v-6.828q0-.516.242-.86t.63-.515.816-.172q.34 0 .554.055.216.054.32.101l-.265.797a4 4 0 0 0-.195-.058 1.2 1.2 0 0 0-.32-.036q-.458 0-.66.231-.2.23-.2.676V222zm6.167-6v.781h-3.11V216zm-2.203-1.438h.922v5.719q0 .391.113.586a.6.6 0 0 0 .297.258q.183.063.387.062a2 2 0 0 0 .25-.015l.156-.031.188.828q-.094.035-.262.07a2 2 0 0 1-.426.039q-.39 0-.766-.168a1.5 1.5 0 0 1-.617-.512q-.242-.344-.242-.867zm4.95 7.438-1.829-6h.969l1.297 4.594h.062L81.522 216h.985l1.265 4.578h.063L85.132 216h.969l-1.829 6h-.906l-1.312-4.609h-.094L80.648 222zm9.343.141q-.57 0-1.035-.215a1.8 1.8 0 0 1-.739-.629q-.273-.415-.273-1 0-.516.203-.836a1.44 1.44 0 0 1 .543-.508 2.9 2.9 0 0 1 .75-.273q.414-.094.832-.149.547-.07.887-.105.344-.039.5-.129.16-.09.16-.313v-.031q0-.578-.316-.898-.313-.321-.95-.321-.66 0-1.035.289-.374.29-.527.618l-.875-.313q.235-.546.625-.851.395-.309.86-.43.469-.125.921-.125.29 0 .664.07.38.066.73.278.356.21.59.636.235.426.235 1.141V222h-.922v-.813h-.047q-.093.196-.312.418a1.8 1.8 0 0 1-.582.379q-.363.157-.887.157m.14-.829q.547 0 .922-.214a1.47 1.47 0 0 0 .766-1.27v-.844q-.058.07-.258.129-.195.055-.453.098a22 22 0 0 1-.883.117q-.36.047-.672.152a1.16 1.16 0 0 0-.5.309q-.187.202-.187.555 0 .48.355.726.36.243.91.242m4.293.688v-6h.89v.906h.063q.165-.446.593-.722.43-.278.97-.278.1 0 .253.004.152.004.23.012v.937a3.6 3.6 0 0 0-.562-.062q-.438 0-.781.183a1.349 1.349 0 0 0-.734 1.223V222zm6.425.125q-.867 0-1.496-.383a2.57 2.57 0 0 1-.965-1.078q-.335-.695-.335-1.617t.335-1.625q.34-.707.946-1.102.609-.398 1.422-.398.468 0 .925.156.457.157.832.508.376.348.598.922.223.574.223 1.414v.39h-4.625v-.796h3.687q0-.508-.203-.907a1.54 1.54 0 0 0-.57-.629 1.6 1.6 0 0 0-.867-.23q-.552 0-.953.273-.399.27-.614.704a2.1 2.1 0 0 0-.215.929v.532q0 .68.235 1.152.239.468.66.715.422.242.98.242.364 0 .657-.102.297-.105.511-.312.216-.211.332-.524l.891.25a2 2 0 0 1-.473.797 2.3 2.3 0 0 1-.82.531 3 3 0 0 1-1.098.188" class="fill-primary"/><path fill-rule="evenodd" d="M120.333 217.066a3.267 3.267 0 1 1-6.533 0 3.267 3.267 0 0 1 6.533 0m-.645 3.282a4.2 4.2 0 1 1 .66-.66l2.649 2.648a.467.467 0 0 1-.66.66z" clip-rule="evenodd" class="fill-ghost"/><path d="M196 217.5h392" class="stroke-divider-subtle"/><path fill-rule="evenodd" d="M20.4 237.7a.9.9 0 1 0 0-1.8.9.9 0 0 0 0 1.8m3.2 0a.9.9 0 1 0 0-1.8.9.9 0 0 0 0 1.8m.9 2.3a.9.9 0 1 1-1.8 0 .9.9 0 0 1 1.8 0m-4.1.9a.9.9 0 1 0 0-1.8.9.9 0 0 0 0 1.8m4.1 2.3a.9.9 0 1 1-1.8 0 .9.9 0 0 1 1.8 0m-4.1.9a.9.9 0 1 0 0-1.8.9.9 0 0 0 0 1.8" clip-rule="evenodd" class="fill-ghost"/><path d="M36.5 237a2.5 2.5 0 0 1 2.5-2.5h6a2.5 2.5 0 0 1 2.5 2.5v6a2.5 2.5 0 0 1-2.5 2.5h-6a2.5 2.5 0 0 1-2.5-2.5z" class="fill-component"/><path d="M36.5 237a2.5 2.5 0 0 1 2.5-2.5h6a2.5 2.5 0 0 1 2.5 2.5v6a2.5 2.5 0 0 1-2.5 2.5h-6a2.5 2.5 0 0 1-2.5-2.5z" class="stroke-border"/><path d="M57.297 244H56.28l2.938-8h1l2.937 8h-1.015l-2.391-6.734h-.062zm.375-3.125h4.094v.859h-4.094zM64.277 244v-6h.891v.906h.063q.164-.446.593-.722.43-.278.969-.278.102 0 .254.004t.23.012v.937a3.5 3.5 0 0 0-.562-.062q-.438 0-.781.183a1.349 1.349 0 0 0-.734 1.223V244zm6.348.125q-.843 0-1.453-.398a2.6 2.6 0 0 1-.938-1.098q-.328-.7-.328-1.598 0-.914.336-1.613.34-.704.945-1.098.61-.398 1.422-.398.633 0 1.141.234.507.234.832.656t.402.985h-.921a1.43 1.43 0 0 0-.47-.727q-.359-.32-.968-.32-.54 0-.945.281a1.84 1.84 0 0 0-.63.785q-.222.504-.222 1.184 0 .696.219 1.211.222.516.625.801.405.285.953.285.36 0 .652-.125a1.33 1.33 0 0 0 .785-.922h.922a2.14 2.14 0 0 1-.386.957 2.2 2.2 0 0 1-.809.672q-.5.246-1.164.246m4.629-3.734V244h-.922v-8h.922v2.937h.078q.21-.464.633-.738.425-.277 1.133-.277.613 0 1.074.246.46.242.715.746.257.5.257 1.274V244h-.921v-3.75q0-.715-.371-1.105-.368-.395-1.02-.395-.453 0-.812.191a1.4 1.4 0 0 0-.563.559q-.203.368-.203.891M80.83 244v-6h.922v6zm.469-7a.65.65 0 0 1-.465-.184.59.59 0 0 1-.191-.441q0-.258.191-.441a.65.65 0 0 1 .465-.184.64.64 0 0 1 .46.184q.196.183.196.441a.58.58 0 0 1-.195.441.64.64 0 0 1-.461.184m4.75 1v.781h-3.109V238zm-2.202-1.438h.921v5.719q0 .391.114.586a.6.6 0 0 0 .297.258q.183.063.386.062a2 2 0 0 0 .25-.015l.157-.031.187.828q-.094.035-.262.07a2 2 0 0 1-.425.039q-.39 0-.766-.168a1.5 1.5 0 0 1-.617-.512q-.243-.344-.242-.867zm6.04 7.563q-.867 0-1.495-.383a2.57 2.57 0 0 1-.965-1.078q-.336-.695-.336-1.617t.336-1.625q.339-.707.945-1.102.609-.398 1.422-.398.468 0 .926.156.457.157.832.508.375.348.597.922.223.574.223 1.414v.39h-4.625v-.796h3.688a2 2 0 0 0-.204-.907 1.54 1.54 0 0 0-.57-.629 1.6 1.6 0 0 0-.867-.23q-.55 0-.953.273-.399.27-.614.704a2.1 2.1 0 0 0-.214.929v.532q0 .68.234 1.152.239.468.66.715.422.242.98.242.364 0 .657-.102a1.4 1.4 0 0 0 .512-.312 1.4 1.4 0 0 0 .332-.524l.89.25a2 2 0 0 1-.472.797 2.3 2.3 0 0 1-.82.531 3 3 0 0 1-1.098.188m6.325 0q-.844 0-1.453-.398a2.6 2.6 0 0 1-.938-1.098q-.328-.7-.328-1.598 0-.914.336-1.613.34-.704.945-1.098.61-.398 1.422-.398.633 0 1.14.234.51.234.833.656.324.423.402.985h-.922a1.43 1.43 0 0 0-.468-.727q-.36-.32-.97-.32-.539 0-.944.281a1.84 1.84 0 0 0-.63.785q-.222.504-.222 1.184 0 .696.219 1.211.222.516.625.801.405.285.953.285.36 0 .652-.125a1.34 1.34 0 0 0 .785-.922h.922a2.14 2.14 0 0 1-1.195 1.629q-.5.246-1.164.246m6.316-6.125v.781h-3.11V238zm-2.203-1.438h.922v5.719q0 .391.113.586a.58.58 0 0 0 .297.258q.184.063.387.062.152 0 .25-.015l.156-.031.188.828q-.094.035-.262.07a2 2 0 0 1-.426.039q-.39 0-.765-.168a1.5 1.5 0 0 1-.618-.512q-.242-.344-.242-.867zm7.371 4.985V238h.922v6h-.922v-1.016h-.062a2 2 0 0 1-.656.778q-.445.316-1.125.316-.563 0-1-.246a1.73 1.73 0 0 1-.688-.75q-.25-.504-.25-1.27V238h.922v3.75q0 .655.367 1.047.371.39.945.39.345 0 .7-.175.359-.176.601-.539.246-.364.246-.926m2.611 2.453v-6h.89v.906h.063q.164-.446.593-.722a1.75 1.75 0 0 1 .969-.278q.102 0 .254.004t.231.012v.937a4 4 0 0 0-.563-.062q-.438 0-.781.183-.34.18-.539.5a1.35 1.35 0 0 0-.196.723V244zm6.425.125q-.867 0-1.496-.383a2.6 2.6 0 0 1-.965-1.078q-.335-.695-.335-1.617t.335-1.625q.34-.707.946-1.102.609-.398 1.422-.398.469 0 .925.156.457.157.832.508.376.348.598.922.223.574.223 1.414v.39h-4.625v-.796h3.687q0-.508-.203-.907a1.54 1.54 0 0 0-.57-.629 1.6 1.6 0 0 0-.867-.23q-.551 0-.953.273-.4.27-.614.704a2.1 2.1 0 0 0-.215.929v.532q0 .68.235 1.152.239.468.66.715.422.242.98.242.364 0 .657-.102.297-.105.511-.312.216-.211.332-.524l.891.25a2 2 0 0 1-.473.797 2.3 2.3 0 0 1-.82.531 3 3 0 0 1-1.098.188" class="fill-primary"/><path fill-rule="evenodd" d="M137.333 239.066a3.267 3.267 0 1 1-6.533 0 3.267 3.267 0 0 1 6.533 0m-.645 3.282a4.2 4.2 0 1 1 .66-.66l2.649 2.648a.467.467 0 0 1-.66.66z" clip-rule="evenodd" class="fill-ghost"/><path d="M196 239.5h392" class="stroke-divider-subtle"/><path fill-rule="evenodd" d="M20.4 259.7a.9.9 0 1 0 0-1.8.9.9 0 0 0 0 1.8m3.2 0a.9.9 0 1 0 0-1.8.9.9 0 0 0 0 1.8m.9 2.3a.9.9 0 1 1-1.8 0 .9.9 0 0 1 1.8 0m-4.1.9a.9.9 0 1 0 0-1.8.9.9 0 0 0 0 1.8m4.1 2.3a.9.9 0 1 1-1.8 0 .9.9 0 0 1 1.8 0m-4.1.9a.9.9 0 1 0 0-1.8.9.9 0 0 0 0 1.8" clip-rule="evenodd" class="fill-ghost"/><path d="M36.5 259a2.5 2.5 0 0 1 2.5-2.5h6a2.5 2.5 0 0 1 2.5 2.5v6a2.5 2.5 0 0 1-2.5 2.5h-6a2.5 2.5 0 0 1-2.5-2.5z" class="fill-component"/><path d="M36.5 259a2.5 2.5 0 0 1 2.5-2.5h6a2.5 2.5 0 0 1 2.5 2.5v6a2.5 2.5 0 0 1-2.5 2.5h-6a2.5 2.5 0 0 1-2.5-2.5z" class="stroke-border"/><path d="M56.531 258.859V258h6v.859h-2.515V266h-.97v-7.141zm9.016 7.266q-.867 0-1.496-.383a2.57 2.57 0 0 1-.965-1.078q-.336-.695-.336-1.617t.336-1.625q.34-.707.945-1.102.609-.398 1.422-.398.469 0 .926.156t.832.508q.376.348.598.922t.222 1.414v.39h-4.625v-.796h3.688a2 2 0 0 0-.203-.907 1.54 1.54 0 0 0-.57-.629 1.6 1.6 0 0 0-.868-.23q-.55 0-.953.273-.399.27-.613.704a2.1 2.1 0 0 0-.215.929v.532q0 .68.234 1.152.24.469.66.715.422.242.98.242.365 0 .657-.102a1.4 1.4 0 0 0 .512-.312q.215-.211.332-.524l.89.25a2 2 0 0 1-.472.797 2.3 2.3 0 0 1-.82.531 3 3 0 0 1-1.098.188m6.324 0q-.843 0-1.453-.398a2.6 2.6 0 0 1-.937-1.098q-.33-.7-.329-1.598 0-.914.336-1.613.34-.703.946-1.098.609-.398 1.422-.398.632 0 1.14.234t.832.656.403.985h-.922a1.43 1.43 0 0 0-.47-.727q-.359-.32-.968-.32-.54 0-.945.281a1.84 1.84 0 0 0-.63.785q-.222.504-.222 1.184 0 .696.219 1.211.222.516.625.801.405.285.953.285.36 0 .652-.125a1.33 1.33 0 0 0 .786-.922h.922a2.14 2.14 0 0 1-.387.957 2.2 2.2 0 0 1-.809.672q-.5.246-1.164.246m4.629-3.734V266h-.922v-8h.922v2.937h.078q.21-.464.633-.738.426-.277 1.133-.277.614 0 1.074.246.46.242.715.746.258.5.258 1.274V266h-.922v-3.75q0-.715-.371-1.105-.367-.395-1.02-.395-.453 0-.812.191a1.4 1.4 0 0 0-.563.559q-.203.367-.203.891m6.499 0V266h-.922v-6h.89v.937h.079q.21-.456.64-.734.43-.28 1.11-.281.61 0 1.066.25.457.246.711.75.255.5.254 1.266V266h-.922v-3.75q0-.707-.367-1.102-.367-.398-1.008-.398-.441 0-.789.191-.343.192-.543.559t-.199.891m7.95 3.734q-.812 0-1.426-.387a2.63 2.63 0 0 1-.953-1.082q-.34-.695-.34-1.625 0-.937.34-1.636.345-.7.953-1.086.615-.387 1.426-.387.813 0 1.422.387.614.386.953 1.086.344.699.344 1.636 0 .93-.344 1.625a2.6 2.6 0 0 1-.953 1.082q-.609.387-1.422.387m0-.828q.617 0 1.016-.317.399-.315.59-.832.19-.515.191-1.117a3.2 3.2 0 0 0-.191-1.121 1.9 1.9 0 0 0-.59-.84q-.399-.32-1.016-.32t-1.015.32a1.9 1.9 0 0 0-.59.84q-.192.52-.192 1.121 0 .602.192 1.117.19.517.59.832.398.317 1.015.317M95.997 258v8h-.922v-8zm4.126 8.125q-.813 0-1.426-.387a2.63 2.63 0 0 1-.953-1.082q-.34-.695-.34-1.625 0-.937.34-1.636.344-.7.953-1.086.614-.387 1.426-.387.813 0 1.422.387.613.386.953 1.086.344.699.344 1.636 0 .93-.344 1.625a2.6 2.6 0 0 1-.953 1.082q-.609.387-1.422.387m0-.828q.618 0 1.016-.317.398-.315.59-.832.19-.515.191-1.117 0-.601-.191-1.121a1.9 1.9 0 0 0-.59-.84q-.398-.32-1.016-.32-.617 0-1.016.32a1.9 1.9 0 0 0-.59.84 3.2 3.2 0 0 0-.19 1.121q0 .602.19 1.117.192.517.59.832.4.317 1.016.317m6.548 3.078q-.667 0-1.149-.172a2.4 2.4 0 0 1-.8-.445 2.4 2.4 0 0 1-.504-.586l.734-.516q.125.165.317.375a1.6 1.6 0 0 0 .523.371q.336.16.879.16.726 0 1.199-.351t.473-1.102v-1.218h-.078a5 5 0 0 1-.289.406q-.184.239-.532.426-.344.183-.929.183-.727 0-1.305-.343a2.4 2.4 0 0 1-.91-1.001q-.332-.656-.332-1.593 0-.922.324-1.606.324-.687.902-1.062a2.4 2.4 0 0 1 1.336-.379q.587 0 .93.195.348.192.531.438.188.242.289.398h.094V260h.891v6.172q0 .774-.352 1.258a2 2 0 0 1-.937.715q-.586.23-1.305.23m-.031-3.297q.554 0 .937-.254.382-.254.582-.73.2-.477.199-1.141a3.1 3.1 0 0 0-.195-1.144 1.7 1.7 0 0 0-.578-.778q-.382-.28-.945-.281-.586 0-.977.297a1.8 1.8 0 0 0-.582.797 3.1 3.1 0 0 0-.191 1.109q0 .625.195 1.106.2.476.586.75.39.269.969.269m4.906 3.172a2 2 0 0 1-.672-.109l.234-.813q.336.086.594.063a.71.71 0 0 0 .457-.231q.204-.203.371-.66l.172-.469-2.219-6.031h1l1.657 4.781h.062l1.656-4.781h1l-2.546 6.875q-.172.464-.426.77a1.6 1.6 0 0 1-.59.457 1.8 1.8 0 0 1-.75.148" class="fill-primary"/><path fill-rule="evenodd" d="M134.333 261.066a3.267 3.267 0 1 1-6.533 0 3.267 3.267 0 0 1 6.533 0m-.645 3.282a4.2 4.2 0 1 1 .66-.66l2.649 2.648a.467.467 0 0 1-.66.66z" clip-rule="evenodd" class="fill-ghost"/><path d="M196 261.5h392" class="stroke-divider-subtle"/><path d="M23.492 290.574H22.34a2 2 0 0 0-.274-.695 2.01 2.01 0 0 0-1.113-.828 2.5 2.5 0 0 0-.734-.106q-.7 0-1.258.352-.555.351-.879 1.035-.32.68-.32 1.668 0 .992.324 1.676.325.68.879 1.031.555.348 1.254.348.382 0 .73-.102.348-.105.63-.312.284-.207.483-.508a1.9 1.9 0 0 0 .278-.692l1.152.004a3.2 3.2 0 0 1-.383 1.09 3 3 0 0 1-.715.844 3.2 3.2 0 0 1-.984.543q-.555.187-1.2.187-1.035 0-1.843-.496-.808-.495-1.273-1.418-.465-.921-.465-2.195 0-1.278.465-2.195.468-.923 1.277-1.418.809-.496 1.84-.496.63 0 1.176.179.55.18.988.528.438.347.727.843.288.497.39 1.133m3.126 5.559q-.57 0-1.031-.211a1.73 1.73 0 0 1-.73-.621q-.27-.411-.27-.996 0-.512.195-.836a1.44 1.44 0 0 1 .532-.516q.335-.191.746-.285.41-.098.835-.152l.875-.102q.337-.043.493-.133.156-.093.156-.308v-.028q0-.526-.297-.816-.293-.293-.875-.293-.609 0-.957.266t-.48.585l-1.043-.265q.207-.547.585-.875.379-.332.864-.477a3.44 3.44 0 0 1 1.746-.066 2.2 2.2 0 0 1 .754.301q.355.219.582.632.225.416.226 1.086V296H28.44v-.816h-.047q-.105.215-.332.437a1.8 1.8 0 0 1-.582.367 2.3 2.3 0 0 1-.86.145m.227-.906q.5 0 .851-.196.355-.199.54-.515.183-.32.183-.68v-.793a.6.6 0 0 1-.246.121 4 4 0 0 1-.414.09 10 10 0 0 1-.453.066l-.367.047a3.2 3.2 0 0 0-.633.149 1.07 1.07 0 0 0-.461.296q-.172.192-.172.512 0 .445.328.676.332.227.844.227M33.863 290v.898h-3.238V290zm-2.351-1.438h1.105v5.688q0 .351.106.527.105.176.273.239.168.062.36.062.144 0 .246-.019l.164-.032.207.93a2 2 0 0 1-.285.078 2 2 0 0 1-.458.043 2 2 0 0 1-.835-.164 1.5 1.5 0 0 1-.641-.527q-.242-.355-.242-.895zm6.17 7.559q-.878 0-1.515-.379a2.54 2.54 0 0 1-.98-1.074q-.344-.695-.344-1.625 0-.922.343-1.625.344-.707.962-1.102.62-.394 1.449-.394.5 0 .968.164.474.164.852.523.38.356.598.93.222.575.222 1.395v.406h-4.734v-.856h3.64a1.8 1.8 0 0 0-.195-.836 1.4 1.4 0 0 0-.535-.582 1.5 1.5 0 0 0-.808-.214q-.508 0-.883.25a1.67 1.67 0 0 0-.575.644 1.87 1.87 0 0 0-.203.859v.645q0 .621.22 1.055.218.433.608.66.396.226.918.226.345 0 .622-.097.277-.098.48-.293t.313-.485l1.05.211a1.96 1.96 0 0 1-.472.84q-.34.36-.848.559-.508.195-1.152.195m6.372 2.254q-.704 0-1.211-.184a2.4 2.4 0 0 1-.828-.484 2.1 2.1 0 0 1-.489-.652l.938-.438q.11.169.289.367.183.2.496.34t.813.141q.68 0 1.12-.328.446-.328.446-1.047v-1.188h-.074q-.105.184-.301.422a1.6 1.6 0 0 1-.54.41q-.343.176-.901.176-.715 0-1.286-.336a2.37 2.37 0 0 1-.902-.992q-.332-.656-.332-1.609 0-.946.324-1.629.328-.688.899-1.055.575-.367 1.308-.367.562 0 .907.187.347.188.539.434.19.246.293.426h.09V290h1.078v6.145q0 .77-.356 1.261a2.07 2.07 0 0 1-.965.731 3.7 3.7 0 0 1-1.355.238m-.016-3.398q.516 0 .871-.243.36-.242.543-.691.188-.453.188-1.082 0-.618-.184-1.086-.18-.473-.539-.734-.356-.266-.879-.266-.543 0-.906.277a1.7 1.7 0 0 0-.543.75 3 3 0 0 0-.18 1.059q0 .598.184 1.051.183.453.547.711.363.254.898.254m6.795 1.144q-.836 0-1.46-.387a2.6 2.6 0 0 1-.974-1.082q-.343-.695-.343-1.625 0-.933.343-1.632.348-.7.973-1.086.626-.387 1.461-.387t1.46.387.97 1.086q.348.699.347 1.632 0 .93-.347 1.625-.344.696-.97 1.082-.624.387-1.46.387m.004-.941q.563 0 .93-.297a1.76 1.76 0 0 0 .55-.785q.18-.489.18-1.071t-.18-1.074a1.8 1.8 0 0 0-.55-.793q-.368-.3-.93-.301-.57 0-.942.301a1.8 1.8 0 0 0-.546.793q-.18.492-.18 1.074t.18 1.071q.18.488.547.785.37.297.94.297m4.098.82v-6h1.07v.941h.063q.165-.473.582-.75.418-.28.95-.281.105 0 .253.008.152.004.239.016v1.074a2 2 0 0 0-.239-.043 2.4 2.4 0 0 0-.359-.028q-.418 0-.746.176a1.35 1.35 0 0 0-.52.485 1.33 1.33 0 0 0-.187.707V296zm4.2 0v-6h1.106v6zm.56-6.945a.72.72 0 0 1-.508-.2.63.63 0 0 1-.211-.476q0-.282.21-.481a.73.73 0 0 1 .508-.199q.297 0 .508.199.21.2.211.481a.63.63 0 0 1-.21.476q-.212.2-.509.2m4.714 7.066q-.879 0-1.515-.379a2.54 2.54 0 0 1-.98-1.074q-.345-.695-.345-1.625 0-.922.344-1.625.345-.707.961-1.102.62-.394 1.45-.394.5 0 .968.164.472.164.852.523.378.356.597.93.223.575.223 1.395v.406H62.23v-.856h3.64a1.8 1.8 0 0 0-.195-.836 1.4 1.4 0 0 0-.535-.582 1.5 1.5 0 0 0-.809-.214q-.508 0-.883.25a1.67 1.67 0 0 0-.574.644 1.9 1.9 0 0 0-.203.859v.645q0 .621.219 1.055.218.433.609.66.395.226.918.226.344 0 .621-.097.278-.098.48-.293.204-.195.313-.485l1.05.211a1.96 1.96 0 0 1-.472.84q-.34.36-.848.559-.507.195-1.152.195m8.313-4.687-1 .199a1.4 1.4 0 0 0-.215-.391 1.06 1.06 0 0 0-.39-.305 1.4 1.4 0 0 0-.622-.121q-.507 0-.851.231-.34.226-.336.582a.6.6 0 0 0 .226.5q.231.188.735.308l.941.219q.82.192 1.223.594.406.399.406 1.031 0 .536-.309.953-.308.414-.855.653-.543.234-1.262.234-.989 0-1.617-.422-.626-.422-.774-1.211l1.063-.187q.114.457.445.687.337.227.871.227.594 0 .946-.25.351-.25.351-.606a.64.64 0 0 0-.21-.488q-.212-.195-.65-.297l-1.007-.226q-.84-.187-1.234-.606-.395-.417-.395-1.055 0-.523.293-.921.293-.399.809-.621a3 3 0 0 1 1.183-.223q.954 0 1.5.414.547.41.735 1.098" class="fill-primary"/><path fill-rule="evenodd" d="M80.926 293.253a.467.467 0 0 0 .66.021L85 290.073l3.414 3.201a.467.467 0 0 0 .638-.681l-3.733-3.5a.467.467 0 0 0-.638 0l-3.734 3.5a.467.467 0 0 0-.021.66" clip-rule="evenodd" class="fill-symbol"/><path fill-rule="evenodd" d="M20.4 311.7a.9.9 0 1 0 0-1.8.9.9 0 0 0 0 1.8m3.2 0a.9.9 0 1 0 0-1.8.9.9 0 0 0 0 1.8m.9 2.3a.9.9 0 1 1-1.8 0 .9.9 0 0 1 1.8 0m-4.1.9a.9.9 0 1 0 0-1.8.9.9 0 0 0 0 1.8m4.1 2.3a.9.9 0 1 1-1.8 0 .9.9 0 0 1 1.8 0m-4.1.9a.9.9 0 1 0 0-1.8.9.9 0 0 0 0 1.8" clip-rule="evenodd" class="fill-ghost"/><path d="M36.5 311a2.5 2.5 0 0 1 2.5-2.5h6a2.5 2.5 0 0 1 2.5 2.5v6a2.5 2.5 0 0 1-2.5 2.5h-6a2.5 2.5 0 0 1-2.5-2.5z" class="fill-component"/><path d="M36.5 311a2.5 2.5 0 0 1 2.5-2.5h6a2.5 2.5 0 0 1 2.5 2.5v6a2.5 2.5 0 0 1-2.5 2.5h-6a2.5 2.5 0 0 1-2.5-2.5z" class="stroke-border"/><path d="M63.313 310v8h-.938l-4.36-6.281h-.078V318h-.968v-8h.937l4.375 6.297h.078V310zm4.329 8.125q-.867 0-1.496-.383a2.57 2.57 0 0 1-.965-1.078q-.336-.695-.336-1.617t.336-1.625q.339-.707.945-1.102.609-.398 1.422-.398.468 0 .926.156.457.156.832.508.375.348.597.922.223.574.223 1.414v.39h-4.625v-.796h3.688a2 2 0 0 0-.204-.907 1.54 1.54 0 0 0-.57-.629 1.6 1.6 0 0 0-.867-.23q-.55 0-.953.273-.399.27-.614.704a2.1 2.1 0 0 0-.214.929v.532q0 .68.234 1.152.239.469.66.715.422.242.98.242.365 0 .657-.102a1.4 1.4 0 0 0 .512-.312 1.4 1.4 0 0 0 .332-.524l.89.25a2 2 0 0 1-.472.797 2.3 2.3 0 0 1-.82.531 3 3 0 0 1-1.098.188m5.246-.125-1.828-6h.968l1.297 4.594h.063l1.28-4.594h.985l1.266 4.578h.062L78.278 312h.97l-1.83 6h-.905l-1.313-4.609h-.094L73.794 318zm10.797 0v-8h2.703q.938 0 1.539.32.601.317.89.871.29.555.29 1.262t-.29 1.254a2.03 2.03 0 0 1-.886.859q-.598.309-1.528.309h-2.187V314h2.156q.64 0 1.031-.188.395-.187.57-.531.18-.348.18-.828t-.18-.84a1.23 1.23 0 0 0-.574-.554q-.394-.2-1.043-.2h-1.703V318zm3.765-3.594L89.42 318h-1.125l-1.938-3.594zm5.597 3.719q-.867 0-1.496-.383a2.57 2.57 0 0 1-.965-1.078q-.336-.695-.336-1.617t.336-1.625q.34-.707.945-1.102.609-.398 1.422-.398.469 0 .926.156t.832.508q.376.348.598.922t.222 1.414v.39h-4.625v-.796h3.688a2 2 0 0 0-.203-.907 1.54 1.54 0 0 0-.57-.629 1.6 1.6 0 0 0-.868-.23q-.55 0-.953.273-.399.27-.613.704a2.1 2.1 0 0 0-.215.929v.532q0 .68.234 1.152.24.469.66.715.423.242.98.242.365 0 .657-.102a1.4 1.4 0 0 0 .512-.312q.215-.211.332-.524l.89.25a2 2 0 0 1-.472.797 2.3 2.3 0 0 1-.82.531 3 3 0 0 1-1.098.188m5.652.016q-.57 0-1.035-.215a1.8 1.8 0 0 1-.738-.629q-.274-.414-.274-1 0-.516.204-.836a1.44 1.44 0 0 1 .542-.508q.34-.183.75-.273.414-.094.833-.149.547-.07.886-.105.344-.039.5-.129.16-.09.16-.313v-.031q0-.578-.316-.898-.312-.321-.95-.321-.66 0-1.034.289-.375.29-.528.618l-.875-.313q.235-.546.625-.851.395-.309.86-.43.469-.125.922-.125.288 0 .663.07.38.066.731.278.356.21.59.636t.234 1.141V318h-.922v-.813h-.047q-.093.196-.312.418-.219.223-.582.379-.363.157-.887.157m.14-.829q.548 0 .923-.214a1.47 1.47 0 0 0 .57-.555q.195-.34.195-.715v-.844q-.059.07-.257.129a4 4 0 0 1-.454.098 22 22 0 0 1-.882.117q-.36.047-.672.152a1.16 1.16 0 0 0-.5.309q-.188.202-.188.555 0 .48.356.726.36.243.91.242m6.558.813q-.75 0-1.324-.379a2.55 2.55 0 0 1-.898-1.078q-.324-.7-.324-1.652 0-.946.324-1.641t.902-1.074a2.4 2.4 0 0 1 1.336-.379q.586 0 .926.195.344.192.523.438.185.242.285.398h.079V310h.921v8h-.89v-.922h-.11a6 6 0 0 1-.289.414 1.7 1.7 0 0 1-.535.442q-.348.19-.926.191m.125-.828q.555 0 .938-.289.383-.293.582-.809a3.3 3.3 0 0 0 .199-1.199q0-.672-.195-1.176a1.7 1.7 0 0 0-.578-.789q-.383-.285-.946-.285-.585 0-.976.301a1.8 1.8 0 0 0-.582.808 3.2 3.2 0 0 0-.192 1.141q0 .64.196 1.164.2.519.586.828.39.305.968.305m4.442.703v-6h.922v6zm.469-7a.65.65 0 0 1-.465-.184.59.59 0 0 1-.192-.441q0-.258.192-.441a.65.65 0 0 1 .465-.184q.269 0 .461.184.195.183.195.441a.58.58 0 0 1-.195.441.64.64 0 0 1-.461.184m3.063 3.391V318h-.922v-6h.891v.937h.078q.211-.456.641-.734.43-.28 1.109-.281.61 0 1.066.25.458.246.711.75.254.5.254 1.266V318h-.922v-3.75q0-.707-.367-1.102-.368-.398-1.008-.398-.441 0-.789.191-.343.192-.543.559-.198.367-.199.891m7.935 5.984q-.668 0-1.149-.172a2.4 2.4 0 0 1-.801-.445 2.5 2.5 0 0 1-.503-.586l.734-.516q.125.165.316.375.191.215.524.371.336.16.879.16.726 0 1.199-.351t.473-1.102v-1.218h-.079a5 5 0 0 1-.289.406 1.6 1.6 0 0 1-.531.426q-.344.183-.93.183-.726 0-1.304-.343a2.4 2.4 0 0 1-.91-1.001q-.332-.656-.332-1.593 0-.922.324-1.606.324-.687.902-1.062a2.4 2.4 0 0 1 1.336-.379q.586 0 .93.195.347.192.531.438.187.242.289.398h.094V312h.89v6.172q0 .774-.351 1.258a2 2 0 0 1-.938.715q-.585.23-1.304.23m-.032-3.297q.555 0 .938-.254t.582-.73q.2-.477.199-1.141a3.1 3.1 0 0 0-.195-1.144 1.7 1.7 0 0 0-.578-.778q-.383-.28-.946-.281-.585 0-.976.297a1.8 1.8 0 0 0-.582.797 3.1 3.1 0 0 0-.192 1.109q0 .625.196 1.106.2.476.586.75.39.269.968.269" class="fill-primary"/><path d="M196 313.5h392" class="stroke-divider-subtle"/><path fill-rule="evenodd" d="M20.4 333.7a.9.9 0 1 0 0-1.8.9.9 0 0 0 0 1.8m3.2 0a.9.9 0 1 0 0-1.8.9.9 0 0 0 0 1.8m.9 2.3a.9.9 0 1 1-1.8 0 .9.9 0 0 1 1.8 0m-4.1.9a.9.9 0 1 0 0-1.8.9.9 0 0 0 0 1.8m4.1 2.3a.9.9 0 1 1-1.8 0 .9.9 0 0 1 1.8 0m-4.1.9a.9.9 0 1 0 0-1.8.9.9 0 0 0 0 1.8" clip-rule="evenodd" class="fill-ghost"/><path d="M36.5 333a2.5 2.5 0 0 1 2.5-2.5h6a2.5 2.5 0 0 1 2.5 2.5v6a2.5 2.5 0 0 1-2.5 2.5h-6a2.5 2.5 0 0 1-2.5-2.5z" class="fill-component"/><path d="M36.5 333a2.5 2.5 0 0 1 2.5-2.5h6a2.5 2.5 0 0 1 2.5 2.5v6a2.5 2.5 0 0 1-2.5 2.5h-6a2.5 2.5 0 0 1-2.5-2.5z" class="stroke-border"/><path d="M59.438 340h-2.47v-8h2.579q1.164 0 1.992.48.828.477 1.27 1.372.441.89.441 2.132 0 1.25-.445 2.153a3.17 3.17 0 0 1-1.297 1.383q-.852.48-2.07.48m-1.5-.859h1.437q.992 0 1.645-.383a2.36 2.36 0 0 0 .972-1.09q.32-.707.32-1.684 0-.967-.316-1.668a2.34 2.34 0 0 0-.945-1.078q-.63-.378-1.567-.379h-1.547zm8.578 1q-.57 0-1.035-.215a1.8 1.8 0 0 1-.739-.629q-.273-.414-.273-1 0-.516.203-.836a1.44 1.44 0 0 1 .543-.508q.339-.183.75-.273.414-.094.832-.149.547-.07.887-.105.343-.039.5-.129.16-.09.16-.313v-.031q0-.578-.317-.898-.312-.321-.949-.321-.66 0-1.035.289-.375.29-.527.618l-.875-.313q.234-.546.625-.851.395-.309.859-.43.47-.125.922-.125.29 0 .664.07.378.066.73.278.356.21.59.636.235.426.235 1.141V340h-.922v-.813h-.047q-.094.196-.313.418-.218.223-.582.379-.363.157-.886.157m.14-.829q.547 0 .922-.214a1.47 1.47 0 0 0 .766-1.27v-.844q-.06.07-.258.129-.195.055-.453.098a22 22 0 0 1-.883.117q-.36.047-.672.152a1.16 1.16 0 0 0-.5.309q-.187.202-.187.555 0 .48.355.726.36.243.91.242M73.558 334v.781h-3.11V334zm-2.204-1.438h.922v5.719q0 .391.114.586a.6.6 0 0 0 .296.258q.184.063.387.062a2 2 0 0 0 .25-.015l.157-.031.187.828q-.094.035-.262.07a2 2 0 0 1-.425.039q-.39 0-.766-.168a1.5 1.5 0 0 1-.617-.512q-.243-.343-.242-.867zm5.356 7.579q-.57 0-1.035-.215a1.8 1.8 0 0 1-.739-.629q-.273-.414-.273-1 0-.516.203-.836a1.44 1.44 0 0 1 .543-.508 2.9 2.9 0 0 1 .75-.273q.415-.094.832-.149.547-.07.887-.105.345-.039.5-.129.16-.09.16-.313v-.031q0-.578-.316-.898-.313-.321-.95-.321-.66 0-1.035.289-.374.29-.527.618l-.875-.313q.235-.546.625-.851.395-.309.86-.43.469-.125.921-.125.29 0 .664.07.38.066.73.278.356.21.59.636.235.426.235 1.141V340h-.922v-.813h-.047q-.093.196-.312.418a1.8 1.8 0 0 1-.582.379q-.363.157-.887.157m.14-.829q.547 0 .922-.214a1.47 1.47 0 0 0 .766-1.27v-.844q-.058.07-.258.129-.195.055-.453.098a22 22 0 0 1-.883.117q-.36.047-.672.152a1.16 1.16 0 0 0-.5.309q-.187.202-.187.555 0 .48.355.726.36.243.91.242M90.8 334.5h-.969a2 2 0 0 0-.816-1.266 2.2 2.2 0 0 0-.668-.328 2.7 2.7 0 0 0-.766-.109q-.726 0-1.316.367-.586.368-.934 1.082-.345.715-.344 1.754 0 1.039.344 1.754.348.714.934 1.082.59.367 1.316.367.398 0 .766-.109.367-.11.668-.324a2.06 2.06 0 0 0 .816-1.27h.969a3.2 3.2 0 0 1-.399 1.098 3 3 0 0 1-1.683 1.336 3.6 3.6 0 0 1-1.137.175q-1.023 0-1.82-.5t-1.254-1.422-.457-2.187.457-2.188q.457-.921 1.254-1.421t1.82-.5q.606 0 1.137.175.535.176.965.516.43.336.718.82.29.482.399 1.098m5.221 3.047V334h.922v6h-.921v-1.016h-.063q-.211.457-.656.778-.445.316-1.125.316-.563 0-1-.246a1.73 1.73 0 0 1-.688-.75q-.25-.504-.25-1.27V334h.922v3.75q0 .655.367 1.047.372.39.946.39.344 0 .699-.175.36-.176.601-.539.247-.364.246-.926M98.63 340v-6h.892v.906h.062q.164-.446.594-.722.43-.278.968-.278.102 0 .254.004t.231.012v.937a3.5 3.5 0 0 0-.563-.062q-.437 0-.781.183-.34.18-.539.5-.195.317-.195.723V340zm5.859.141q-.57 0-1.035-.215a1.8 1.8 0 0 1-.738-.629q-.274-.414-.274-1 0-.516.204-.836.203-.324.542-.508.34-.183.75-.273.415-.094.833-.149.547-.07.886-.105.344-.039.5-.129.16-.09.16-.313v-.031q0-.578-.316-.898-.312-.321-.949-.321-.66 0-1.035.289-.375.29-.528.618l-.875-.313q.235-.546.625-.851.395-.309.86-.43.468-.125.922-.125.288 0 .664.07.378.066.73.278.356.21.59.636t.234 1.141V340h-.922v-.813h-.046q-.094.196-.313.418-.219.223-.582.379-.363.157-.887.157m.141-.829q.546 0 .922-.214.378-.215.57-.555.195-.34.195-.715v-.844q-.059.07-.257.129a4 4 0 0 1-.454.098 21 21 0 0 1-.882.117q-.36.047-.672.152a1.16 1.16 0 0 0-.5.309q-.188.202-.188.555 0 .48.356.726.359.243.91.242m6.901-5.312v.781h-3.109V334zm-2.203-1.438h.922v5.719q0 .391.113.586a.58.58 0 0 0 .297.258q.184.063.387.062.152 0 .25-.015l.156-.031.188.828q-.094.035-.262.07a2 2 0 0 1-.426.039q-.39 0-.765-.168a1.5 1.5 0 0 1-.618-.512q-.242-.343-.242-.867zm3.59 7.438v-6h.922v6zm.469-7a.65.65 0 0 1-.465-.184.59.59 0 0 1-.192-.441q0-.258.192-.441a.65.65 0 0 1 .465-.184q.269 0 .461.184.195.183.195.441a.58.58 0 0 1-.195.441.64.64 0 0 1-.461.184m4.579 7.125q-.813 0-1.426-.387a2.63 2.63 0 0 1-.953-1.082q-.34-.695-.34-1.625 0-.937.34-1.636.344-.7.953-1.086.613-.387 1.426-.387.811 0 1.422.387.613.386.953 1.086.344.699.344 1.636 0 .93-.344 1.625a2.6 2.6 0 0 1-.953 1.082q-.61.387-1.422.387m0-.828q.617 0 1.015-.317.4-.315.59-.832.192-.515.192-1.117 0-.601-.192-1.121a1.9 1.9 0 0 0-.59-.84q-.398-.32-1.015-.32-.618 0-1.016.32a1.9 1.9 0 0 0-.59.84q-.19.52-.191 1.121 0 .602.191 1.117.192.517.59.832.399.317 1.016.317m5.048-2.906V340h-.922v-6h.89v.937h.079q.21-.456.64-.734.43-.28 1.11-.281.609 0 1.066.25.457.246.711.75.254.5.254 1.266V340h-.922v-3.75q0-.707-.367-1.102-.368-.398-1.008-.398-.441 0-.789.191-.343.192-.543.559t-.199.891" class="fill-primary"/><path d="M196 335.5h392" class="stroke-divider-subtle"/><path d="M17.492 370h-1.215l2.891-8h1.297l2.894 8h-1.215l-2.296-6.594h-.063zm.254-3.129h4.14v.973h-4.14zm9.121 3.25q-.863 0-1.488-.394a2.6 2.6 0 0 1-.957-1.098q-.332-.699-.332-1.602 0-.914.344-1.613.344-.703.96-1.098.622-.394 1.462-.394.667 0 1.195.246.53.246.86.695.328.446.394 1.039h-1.082a1.4 1.4 0 0 0-.438-.726q-.34-.309-.914-.309-.5 0-.875.262a1.7 1.7 0 0 0-.586.742q-.207.477-.207 1.129 0 .664.203 1.152.207.489.582.754.376.266.883.266.344 0 .617-.121a1.26 1.26 0 0 0 .465-.356q.192-.23.27-.558h1.082a2.18 2.18 0 0 1-1.22 1.726q-.518.258-1.218.258m6.47-6.121v.898h-3.238V364zm-2.352-1.438h1.106v5.688q0 .351.105.527t.274.239q.168.062.36.062.144 0 .245-.019l.164-.032.207.93a2 2 0 0 1-.285.078 2 2 0 0 1-.457.043 2 2 0 0 1-.836-.164 1.5 1.5 0 0 1-.64-.527q-.243-.355-.243-.895zm3.67 7.438v-6h1.105v6zm.558-6.945a.72.72 0 0 1-.508-.2.63.63 0 0 1-.21-.476q0-.282.21-.481a.73.73 0 0 1 .508-.199q.297 0 .508.199.21.2.21.481a.63.63 0 0 1-.21.476q-.21.2-.508.2m7.222.945-2.187 6h-1.172l-2.187-6h1.191l1.55 4.66h.063l1.555-4.66zm1.125 6v-6h1.105v6zm.558-6.945a.72.72 0 0 1-.508-.2.63.63 0 0 1-.21-.476q0-.282.21-.481a.73.73 0 0 1 .508-.199q.297 0 .508.199.21.2.21.481a.63.63 0 0 1-.21.476q-.21.2-.508.2m4.902.945v.898h-3.238V364zm-2.351-1.438h1.105v5.688q0 .351.106.527.105.176.273.239.168.062.36.062.144 0 .246-.019l.164-.032.207.93a2 2 0 0 1-.285.078 2 2 0 0 1-.457.043 2 2 0 0 1-.836-.164 1.5 1.5 0 0 1-.64-.527q-.243-.355-.243-.895zM50.338 370v-6h1.105v6zm.559-6.945a.72.72 0 0 1-.508-.2.63.63 0 0 1-.211-.476q0-.282.21-.481a.73.73 0 0 1 .509-.199q.296 0 .507.199.21.2.211.481a.63.63 0 0 1-.21.476q-.211.2-.508.2m4.714 7.066q-.878 0-1.515-.379a2.54 2.54 0 0 1-.98-1.074q-.344-.695-.344-1.625 0-.922.343-1.625.345-.707.961-1.102.62-.394 1.45-.394.5 0 .968.164.473.164.852.523.379.356.597.93.223.575.223 1.395v.406h-4.734v-.856h3.64a1.8 1.8 0 0 0-.195-.836 1.4 1.4 0 0 0-.535-.582 1.5 1.5 0 0 0-.809-.214q-.508 0-.883.25a1.67 1.67 0 0 0-.574.644 1.9 1.9 0 0 0-.203.859v.645q0 .621.219 1.055t.61.66q.393.226.917.226.344 0 .621-.097.278-.098.48-.293.204-.195.313-.485l1.051.211a1.96 1.96 0 0 1-.473.84q-.34.36-.847.559-.508.195-1.153.195m8.313-4.687-1 .199a1.4 1.4 0 0 0-.215-.391 1.1 1.1 0 0 0-.39-.305 1.4 1.4 0 0 0-.622-.121q-.507 0-.851.231-.34.226-.336.582a.6.6 0 0 0 .226.5q.231.188.735.308l.941.219q.82.192 1.223.594.406.399.406 1.031 0 .536-.309.953-.308.414-.855.653-.543.234-1.262.234-.989 0-1.617-.422-.625-.422-.773-1.211l1.062-.187q.114.457.445.687.337.227.871.227.595 0 .946-.25t.351-.606a.64.64 0 0 0-.21-.488q-.211-.195-.649-.297l-1.008-.226q-.84-.187-1.234-.606-.395-.417-.395-1.055 0-.523.293-.921.293-.399.809-.621.518-.223 1.184-.223.952 0 1.5.414.546.41.734 1.098" class="fill-primary"/><path fill-rule="evenodd" d="M71.926 367.253a.467.467 0 0 0 .66.021L76 364.073l3.414 3.201a.467.467 0 0 0 .638-.681l-3.733-3.5a.467.467 0 0 0-.638 0l-3.734 3.5a.467.467 0 0 0-.021.66" clip-rule="evenodd" class="fill-symbol"/><path d="M196.5 58v300M294.25 58v300M392 58v300M489.75 58v300M587.5 58v300" class="stroke-divider-subtle"/><path stroke-width="2" d="M200.764 121v118" opacity=".32" class="stroke-main"/><circle cx="200.764" cy="121" r="3" class="fill-main"/><circle cx="200.764" cy="239" r="3" class="fill-main"/><path stroke-width="2" d="M297.764 143v119" opacity=".32" class="stroke-main"/><circle cx="297.764" cy="143" r="3" class="fill-main"/><circle cx="297.764" cy="262" r="3" class="fill-main"/><path stroke-width="2" d="M297.764 262v51" opacity=".32" class="stroke-main"/><circle cx="297.764" cy="262" r="3" class="fill-main"/><circle cx="297.764" cy="313" r="3" class="fill-main"/><path stroke-width="2" d="M254.229 262v74" opacity=".32" class="stroke-main"/><circle cx="254.229" cy="262" r="3" class="fill-main"/><circle cx="254.229" cy="336" r="3" class="fill-main"/><path stroke-width="2" d="M457.394 262v51" opacity=".32" class="stroke-main"/><circle cx="457.394" cy="262" r="3" class="fill-main"/><circle cx="457.394" cy="313" r="3" class="fill-main"/><path stroke-width="2" d="M577.308 262v51" opacity=".32" class="stroke-main"/><circle cx="577.308" cy="262" r="3" class="fill-main"/><circle cx="577.308" cy="313" r="3" class="fill-main"/><path stroke-width="2" d="M567.378 262v51" opacity=".32" class="stroke-main"/><circle cx="567.378" cy="262" r="3" class="fill-main"/><circle cx="567.378" cy="313" r="3" class="fill-main"/><path stroke-width="2" d="M562.795 262v51" opacity=".32" class="stroke-main"/><circle cx="562.795" cy="262" r="3" class="fill-main"/><circle cx="562.795" cy="313" r="3" class="fill-main"/><path stroke-width="2" d="M216.04 262v51" opacity=".32" class="stroke-main"/><circle cx="216.04" cy="262" r="3" class="fill-main"/><circle cx="216.04" cy="313" r="3" class="fill-main"/><path stroke-width="2" d="M216.04 144v118" opacity=".32" class="stroke-main"/><circle cx="216.04" cy="144" r="3" class="fill-main"/><circle cx="216.04" cy="262" r="3" class="fill-main"/><path stroke-width="2" d="M587.237 262v74" opacity=".32" class="stroke-main"/><circle cx="587.237" cy="262" r="3" class="fill-main"/><circle cx="587.237" cy="336" r="3" class="fill-main"/><path stroke-dasharray="4 4" stroke-width="2" d="M297.764 313v76" opacity=".32" class="stroke-main"/><circle cx="297.764" cy="313" r="3" class="fill-main"/><path stroke-dasharray="4 4" stroke-width="2" d="M457.394 313v75" opacity=".32" class="stroke-main"/><circle cx="457.394" cy="313" r="3" class="fill-main"/><path stroke-dasharray="4 4" stroke-width="2" d="M577.308 313v75" opacity=".32" class="stroke-main"/><circle cx="577.308" cy="313" r="3" class="fill-main"/><path stroke-dasharray="4 4" stroke-width="2" d="M587.237 336v52" opacity=".32" class="stroke-main"/><circle cx="587.237" cy="336" r="3" class="fill-main"/><path stroke-width="2" d="M328.315 262v74" opacity=".32" class="stroke-main"/><circle cx="328.315" cy="262" r="3" class="fill-main"/><circle cx="328.315" cy="336" r="3" class="fill-main"/><path stroke-width="2" d="M332.898 262v74" opacity=".32" class="stroke-main"/><circle cx="332.898" cy="262" r="3" class="fill-main"/><circle cx="332.898" cy="336" r="3" class="fill-main"/><path stroke-width="2" d="M338.245 144v192" opacity=".32" class="stroke-main"/><circle cx="338.245" cy="144" r="3" class="fill-main"/><circle cx="338.245" cy="336" r="3" class="fill-main"/><path stroke-width="2" d="M379.489 217v96" opacity=".32" class="stroke-main"/><circle cx="379.489" cy="217" r="3" class="fill-main"/><circle cx="379.489" cy="313" r="3" class="fill-main"/><path stroke-width="2" d="M374.142 262v74" opacity=".32" class="stroke-main"/><circle cx="374.142" cy="262" r="3" class="fill-main"/><circle cx="374.142" cy="336" r="3" class="fill-main"/><path stroke-width="2" d="M539.119 262v74" opacity=".32" class="stroke-main"/><circle cx="539.119" cy="262" r="3" class="fill-main"/><circle cx="539.119" cy="336" r="3" class="fill-main"/><path stroke-dasharray="4 4" stroke-width="2" d="M328.315 336v73" opacity=".32" class="stroke-main"/><circle cx="328.315" cy="336" r="3" class="fill-main"/><path stroke-dasharray="4 4" stroke-width="2" d="M332.898 336v73" opacity=".32" class="stroke-main"/><circle cx="332.898" cy="336" r="3" class="fill-main"/><path stroke-dasharray="4 4" stroke-width="2" d="M379.489 313v96" opacity=".32" class="stroke-main"/><circle cx="379.489" cy="313" r="3" class="fill-main"/><path stroke-dasharray="4 4" stroke-width="2" d="M374.142 336v73" opacity=".32" class="stroke-main"/><circle cx="374.142" cy="336" r="3" class="fill-main"/><path stroke-width="2" d="M343.591 144v192" opacity=".32" class="stroke-main"/><circle cx="343.591" cy="144" r="3" class="fill-main"/><circle cx="343.591" cy="336" r="3" class="fill-main"/><path stroke-width="2" d="M374.142 144v118" opacity=".32" class="stroke-main"/><circle cx="374.142" cy="144" r="3" class="fill-main"/><circle cx="374.142" cy="262" r="3" class="fill-main"/><path stroke-width="2" d="M539.119 144v118" opacity=".32" class="stroke-main"/><circle cx="539.119" cy="144" r="3" class="fill-main"/><circle cx="539.119" cy="262" r="3" class="fill-main"/><path stroke-width="2" d="M379.489 144v73" opacity=".32" class="stroke-main"/><circle cx="379.489" cy="144" r="3" class="fill-main"/><circle cx="379.489" cy="217" r="3" class="fill-main"/><path stroke-width="2" d="M451.284 144v73" opacity=".32" class="stroke-main"/><circle cx="451.284" cy="144" r="3" class="fill-main"/><circle cx="451.284" cy="217" r="3" class="fill-main"/><path stroke-width="2" d="M587.237 143v119" opacity=".32" class="stroke-main"/><circle cx="587.237" cy="143" r="3" class="fill-main"/><circle cx="587.237" cy="262" r="3" class="fill-main"/><path stroke-width="2" d="M304.638 121v141" opacity=".32" class="stroke-main"/><circle cx="304.638" cy="121" r="3" class="fill-main"/><circle cx="304.638" cy="262" r="3" class="fill-main"/><path stroke-width="2" d="M456.63 121v141" opacity=".32" class="stroke-main"/><circle cx="456.63" cy="121" r="3" class="fill-main"/><circle cx="456.63" cy="262" r="3" class="fill-main"/><path stroke-width="2" d="M232.079 100v139" opacity=".32" class="stroke-main"/><circle cx="232.079" cy="100" r="3" class="fill-main"/><circle cx="232.079" cy="239" r="3" class="fill-main"/><path stroke-width="2" d="M475.725 100v162" opacity=".32" class="stroke-main"/><circle cx="475.725" cy="100" r="3" class="fill-main"/><circle cx="475.725" cy="262" r="3" class="fill-main"/><path stroke-width="2" d="M238.953 121v118" opacity=".32" class="stroke-main"/><circle cx="238.953" cy="121" r="3" class="fill-main"/><circle cx="238.953" cy="239" r="3" class="fill-main"/><path stroke-width="2" d="M484.89 121v141" opacity=".32" class="stroke-main"/><circle cx="484.89" cy="121" r="3" class="fill-main"/><circle cx="484.89" cy="262" r="3" class="fill-main"/><path stroke-width="2" d="M245.827 143v96" opacity=".32" class="stroke-main"/><circle cx="245.827" cy="143" r="3" class="fill-main"/><circle cx="245.827" cy="239" r="3" class="fill-main"/><path stroke-width="2" d="M490.237 165v97" opacity=".32" class="stroke-main"/><circle cx="490.237" cy="165" r="3" class="fill-main"/><circle cx="490.237" cy="262" r="3" class="fill-main"/><path stroke-width="2" d="M269.504 143v96" opacity=".32" class="stroke-main"/><circle cx="269.504" cy="143" r="3" class="fill-main"/><circle cx="269.504" cy="239" r="3" class="fill-main"/><path stroke-width="2" d="M500.166 143v119" opacity=".32" class="stroke-main"/><circle cx="500.166" cy="143" r="3" class="fill-main"/><circle cx="500.166" cy="262" r="3" class="fill-main"/></g><defs><clipPath id="clip0_8394_40423"><path d="M16 16h576v352H16z" class="fill-main-contrast"/></clipPath><clipPath id="clip1_8394_40423"><path d="M144 28h16v16h-16z" class="fill-main-contrast"/></clipPath></defs></svg>