<svg xmlns="http://www.w3.org/2000/svg" width="256" height="224" fill="none" viewBox="0 0 256 224" class="portfolio-widget"><path d="M.5 6A5.5 5.5 0 016 .5h244a5.5 5.5 0 015.5 5.5v212a5.5 5.5 0 01-5.5 5.5H6A5.5 5.5 0 01.5 218z" class="fill-container"/><path d="M.5 6A5.5 5.5 0 016 .5h244a5.5 5.5 0 015.5 5.5v212a5.5 5.5 0 01-5.5 5.5H6A5.5 5.5 0 01.5 218z" class="stroke-divider"/><path d="M12.545 20.875v-1.33h7.428v1.33H17.04V29h-1.56v-8.125zm10.879 8.268q-1.02 0-1.773-.457a3.1 3.1 0 01-1.168-1.283q-.411-.822-.411-1.916 0-1.104.41-1.93.417-.826 1.169-1.283t1.773-.457q1.02 0 1.772.457.753.456 1.164 1.283.415.826.415 1.93 0 1.094-.415 1.916a3.1 3.1 0 01-1.164 1.283q-.752.457-1.773.457m.004-1.251q.61 0 1.006-.328.402-.328.6-.872.2-.55.2-1.21a3.6 3.6 0 00-.2-1.214 1.96 1.96 0 00-.6-.882q-.396-.332-1.006-.332-.615 0-1.015.332a1.96 1.96 0 00-.6.882 3.6 3.6 0 00-.2 1.214q0 .66.2 1.21.198.545.6.872.401.328 1.015.328m7.47 1.237a2.7 2.7 0 01-1.515-.434q-.664-.434-1.048-1.25-.383-.823-.383-1.977 0-1.167.388-1.985.387-.816 1.057-1.242.67-.424 1.51-.424.642 0 1.043.217.402.211.633.508.23.29.355.526h.074v-3.523h1.528V29h-1.496v-1.113h-.106q-.13.245-.37.536-.234.29-.641.499-.401.207-1.03.207m.387-1.27q.564 0 .956-.3.392-.304.596-.844.207-.544.207-1.26t-.203-1.247-.595-.822q-.393-.295-.96-.295-.592 0-.989.31a1.83 1.83 0 00-.595.84 3.5 3.5 0 00-.199 1.213q0 .69.203 1.233.203.545.596.859.398.315.983.314m7.185 1.289a2.9 2.9 0 01-1.214-.245 2 2 0 01-.86-.72q-.312-.48-.313-1.177 0-.605.226-.993.23-.393.619-.623a3.1 3.1 0 01.868-.346q.484-.12.997-.176.627-.073 1.02-.124t.573-.162.18-.355v-.033q0-.558-.328-.868-.324-.309-.947-.309-.655 0-1.034.286-.378.287-.521.656l-1.427-.259q.209-.645.642-1.061.434-.42 1.03-.62.6-.201 1.292-.202.471 0 .96.11.495.11.914.38.42.267.679.747.263.48.263 1.219V29h-1.477v-.97h-.056q-.138.278-.41.536-.273.258-.688.42a2.7 2.7 0 01-.988.162m.364-1.164q.54 0 .928-.212a1.57 1.57 0 00.596-.563q.212-.35.212-.757v-.877a.8.8 0 01-.277.129q-.198.055-.448.101-.249.042-.489.074l-.41.056a3.4 3.4 0 00-.698.17q-.314.116-.498.333-.185.212-.185.558 0 .49.36.74.36.248.91.248m5.723 3.675q-.324 0-.596-.05a2 2 0 01-.42-.116l.36-1.214q.374.105.665.092a.8.8 0 00.512-.198q.226-.19.388-.628l.162-.425-2.586-7.21h1.625l1.713 5.428h.074l1.722-5.429h1.63L46.92 29.9a3.1 3.1 0 01-.522.956q-.318.392-.775.595-.453.208-1.066.208m8.209-12.113v.913q0 .402-.152.836a3.5 3.5 0 01-.416.831 3.3 3.3 0 01-.614.679l-.73-.499q.264-.393.458-.835.198-.448.198-.998v-.927zm5.881 4.168-1.39.194a1.3 1.3 0 00-.235-.443 1.2 1.2 0 00-.438-.346 1.6 1.6 0 00-.688-.134q-.555 0-.928.244-.37.245-.37.633 0 .333.25.535.249.204.808.337l1.172.259q.992.221 1.478.692.484.471.489 1.228a1.9 1.9 0 01-.383 1.16q-.374.497-1.044.784-.664.286-1.537.286-1.251 0-2.022-.526-.77-.531-.937-1.491l1.482-.185q.12.503.494.762.374.254.974.254.637 0 1.02-.264.384-.267.388-.65a.68.68 0 00-.245-.531q-.235-.213-.738-.323l-1.2-.264q-1.012-.216-1.492-.715-.48-.504-.475-1.265-.004-.642.35-1.117.356-.48.989-.744.636-.267 1.463-.267 1.196 0 1.883.517.693.512.882 1.38M64.674 29h-1.671l3.365-9.454h1.88L71.612 29H69.94l-2.599-7.626h-.073zm.152-3.702h4.95v1.283h-4.95zm10.863 6.509q-.873 0-1.5-.231-.624-.23-1.011-.619a2.35 2.35 0 01-.559-.849l1.343-.425q.115.204.319.42.202.218.55.365.345.152.881.152.748 0 1.237-.364.49-.36.49-1.173v-1.366h-.088a2.7 2.7 0 01-.365.521q-.24.273-.646.466-.407.19-1.034.19-.827 0-1.496-.388-.665-.393-1.057-1.163-.393-.771-.393-1.916t.388-1.953 1.057-1.233 1.51-.424q.642 0 1.043.217.407.211.642.508.236.29.36.526h.092v-1.159h1.5v7.23q0 .909-.429 1.5-.424.59-1.163.877-.739.29-1.671.29m.005-4.141q.563 0 .955-.268a1.65 1.65 0 00.596-.77q.207-.51.207-1.21 0-.697-.203-1.22a1.8 1.8 0 00-.595-.812q-.393-.295-.96-.295-.591 0-.988.305-.398.305-.596.83-.198.526-.198 1.192 0 .674.203 1.181.203.504.595.785.397.282.984.282m8.143 1.477q-1.057 0-1.824-.448a3 3 0 01-1.177-1.27q-.41-.821-.41-1.924 0-1.094.41-1.925a3.13 3.13 0 011.159-1.293q.743-.465 1.745-.466.632 0 1.205.203t1.02.637q.448.43.706 1.108.264.678.264 1.625v.498h-5.73v-1.08h4.248q0-.507-.213-.905a1.6 1.6 0 00-.595-.632 1.67 1.67 0 00-.886-.23 1.74 1.74 0 00-.96.262q-.407.263-.633.693a2.05 2.05 0 00-.226.932v.891q0 .665.24 1.136t.67.72q.429.245 1 .245.384 0 .693-.106.309-.111.531-.324.226-.216.347-.535l1.435.208a2.4 2.4 0 01-.563 1.043q-.406.443-1.034.692-.624.246-1.422.245m6.094-4.326V29h-1.528v-7.09h1.463v1.18h.088a2 2 0 01.775-.927q.531-.345 1.325-.346.73 0 1.275.31.544.308.844.904.305.595.305 1.459V29H92.95v-4.298q0-.743-.383-1.159-.384-.42-1.057-.42-.462 0-.818.199a1.4 1.4 0 00-.558.577q-.203.378-.203.918m8.963 4.312a2.7 2.7 0 01-1.515-.434q-.665-.434-1.047-1.25-.384-.823-.384-1.977 0-1.167.388-1.985.388-.816 1.057-1.242.67-.424 1.51-.424.642 0 1.043.217.402.211.633.508.23.29.355.526h.074v-3.523h1.528V29h-1.496v-1.113h-.106a3.2 3.2 0 01-.369.536q-.236.29-.642.499-.401.207-1.03.207m.387-1.27q.563 0 .956-.3.392-.304.596-.844.207-.544.207-1.26t-.203-1.247a1.8 1.8 0 00-.595-.822q-.393-.295-.96-.295-.591 0-.989.31a1.83 1.83 0 00-.595.84 3.5 3.5 0 00-.198 1.213q0 .69.203 1.233.203.545.595.859.398.315.983.314m7.185 1.289q-.674 0-1.214-.245a2 2 0 01-.859-.72q-.314-.48-.314-1.177 0-.605.226-.993.23-.393.619-.623.388-.232.868-.346.484-.12.997-.176.629-.073 1.02-.124.393-.051.573-.162.18-.11.18-.355v-.033q0-.558-.328-.868-.324-.309-.946-.309-.655 0-1.035.286-.378.287-.521.656l-1.427-.259q.208-.645.642-1.061a2.7 2.7 0 011.029-.62 4 4 0 011.293-.202q.471 0 .96.11.495.11.914.38.42.267.679.747.263.48.263 1.219V29h-1.477v-.97h-.056a2 2 0 01-.41.536 2.1 2.1 0 01-.688.42 2.7 2.7 0 01-.988.162m.365-1.164q.54 0 .927-.212.388-.217.596-.563.212-.35.212-.757v-.877a.8.8 0 01-.277.129q-.198.055-.447.101-.25.042-.49.074l-.411.056a3.5 3.5 0 00-.697.17 1.17 1.17 0 00-.498.333q-.185.212-.185.558 0 .49.36.74.36.248.91.248" class="fill-primary"/><mask id="widget-__a" class="fill-main-contrast"><path d="M136 15a3 3 0 013-3h17v24h-17a3 3 0 01-3-3z"/></mask><path d="M136 15a3 3 0 013-3h17v24h-17a3 3 0 01-3-3z" class="fill-component"/><path d="M135 15a4 4 0 014-4h17v2h-17a2 2 0 00-2 2zm21 22h-17a4 4 0 01-4-4h2a2 2 0 002 2h17zm-17 0a4 4 0 01-4-4V15a4 4 0 014-4v2a2 2 0 00-2 2v18a2 2 0 002 2zm17-25v24z" mask="url(#widget-__a)" class="fill-border"/><path fill-rule="evenodd" d="M147.055 21.346c.14.14.14.368 0 .509L144.909 24l2.146 2.146a.361.361 0 01-.51.509l-2.4-2.4a.36.36 0 010-.51l2.4-2.4a.36.36 0 01.51 0" clip-rule="evenodd" class="fill-symbol"/><path d="M156.5 12.5h67v23h-67z" class="fill-component"/><path d="M156.5 12.5h67v23h-67z" class="stroke-border"/><path d="M167.508 27.095q-.715 0-1.269-.243a2.17 2.17 0 01-.877-.682 1.8 1.8 0 01-.34-1.012h1.16a.9.9 0 00.196.51q.178.215.469.337.293.118.654.118.388 0 .688-.135.304-.139.473-.381a.94.94 0 00.168-.564 1 1 0 00-.168-.583q-.172-.253-.496-.395a2 2 0 00-.786-.142h-.597v-.91h.597q.374 0 .654-.129.283-.131.442-.367a.97.97 0 00.162-.557 1 1 0 00-.138-.537.9.9 0 00-.392-.354 1.3 1.3 0 00-.587-.128q-.327 0-.61.118a1.14 1.14 0 00-.456.337.9.9 0 00-.185.523h-1.103q.013-.57.33-1.002.32-.435.85-.678a2.8 2.8 0 011.181-.243q.681 0 1.178.26.498.256.769.688.273.432.273.948 0 .585-.334.986a1.6 1.6 0 01-.887.53v.053q.712.102 1.093.54.384.438.384 1.09 0 .576-.323 1.032a2.2 2.2 0 01-.888.712q-.563.26-1.285.26m6.53-7.328-2.226 8.272h-.982l2.227-8.272zM175.069 27v-.83l2.372-2.388q.357-.372.593-.655a2.4 2.4 0 00.355-.543q.118-.263.118-.557a1.05 1.05 0 00-.156-.58 1 1 0 00-.425-.374 1.4 1.4 0 00-.61-.132 1.3 1.3 0 00-.621.145 1 1 0 00-.412.412 1.3 1.3 0 00-.145.63h-1.089q0-.643.293-1.123a2 2 0 01.81-.742 2.56 2.56 0 011.184-.267q.675 0 1.184.26.513.26.796.709.287.445.287 1.012 0 .387-.145.759-.146.371-.509.826-.362.453-1.016 1.097l-1.278 1.322v.05h3.056V27zm8.612.121q-.813 0-1.397-.421-.58-.421-.89-1.221t-.307-1.93q0-1.126.31-1.92.31-.795.891-1.214.583-.42 1.393-.419.813 0 1.393.419.584.419.894 1.214.31.796.311 1.92 0 1.134-.311 1.933-.31.8-.89 1.221-.58.418-1.397.418m0-.974q.675 0 1.063-.662.387-.664.384-1.936 0-.84-.175-1.417-.176-.577-.5-.874a1.1 1.1 0 00-.772-.297q-.667 0-1.056.665-.388.66-.388 1.923-.003.846.172 1.427.175.576.499.874.324.296.773.296m6.537-6.38-2.227 8.272h-.981l2.226-8.272zM191.249 27v-.83l2.371-2.388q.358-.372.594-.655t.354-.543a1.3 1.3 0 00.118-.557 1.05 1.05 0 00-.155-.58 1 1 0 00-.425-.374 1.4 1.4 0 00-.611-.132q-.354 0-.62.145a1 1 0 00-.412.412 1.3 1.3 0 00-.145.63h-1.09q0-.643.294-1.123.293-.48.81-.742a2.56 2.56 0 011.184-.267q.674 0 1.184.26.513.26.796.709.287.445.287 1.012 0 .387-.145.759-.145.371-.51.826-.36.453-1.015 1.097l-1.279 1.322v.05h3.057V27zm8.612.121q-.813 0-1.397-.421-.58-.421-.891-1.221-.31-.8-.307-1.93 0-1.126.311-1.92.31-.795.89-1.214.584-.42 1.394-.419.813 0 1.393.419.583.419.894 1.214.31.796.31 1.92 0 1.134-.31 1.933t-.891 1.221q-.58.418-1.396.418m0-.974q.674 0 1.062-.662.388-.664.385-1.936 0-.84-.176-1.417-.175-.577-.499-.874a1.1 1.1 0 00-.772-.297q-.669 0-1.056.665-.388.66-.388 1.923-.004.846.172 1.427.175.576.499.874.324.296.773.296m4.023.853v-.83l2.372-2.388q.357-.372.594-.655.235-.283.354-.543a1.3 1.3 0 00.118-.557q0-.337-.155-.58a1.03 1.03 0 00-.425-.374 1.4 1.4 0 00-.611-.132 1.3 1.3 0 00-.621.145 1 1 0 00-.411.412 1.3 1.3 0 00-.145.63h-1.09q0-.643.294-1.123.293-.48.809-.742a2.56 2.56 0 011.184-.267q.675 0 1.185.26.512.26.796.709.286.445.286 1.012 0 .387-.145.759-.144.371-.509.826a13 13 0 01-1.015 1.097l-1.279 1.322v.05h3.056V27zm8.595.095a2.7 2.7 0 01-1.174-.25 2.1 2.1 0 01-.823-.685 1.87 1.87 0 01-.327-1.002h1.113q.037.435.382.715.347.277.829.277.385 0 .682-.176.3-.178.469-.489.172-.313.172-.712 0-.408-.176-.721a1.3 1.3 0 00-.482-.5 1.35 1.35 0 00-.702-.182 1.7 1.7 0 00-.62.111q-.307.112-.496.294l-1.043-.162.375-3.522h3.906v.968h-2.952l-.212 1.886h.04q.2-.213.544-.35.343-.143.742-.143.63 0 1.123.297.496.297.779.817.284.516.284 1.18 0 .682-.311 1.212-.31.529-.86.833-.546.303-1.262.303" class="fill-accent"/><mask id="widget-__b" class="fill-main-contrast"><path d="M224 12h17a3 3 0 013 3v18a3 3 0 01-3 3h-17z"/></mask><path d="M224 12h17a3 3 0 013 3v18a3 3 0 01-3 3h-17z" class="fill-component"/><path d="M224 11h17a4 4 0 014 4h-2a2 2 0 00-2-2h-17zm21 22a4 4 0 01-4 4h-17v-2h17a2 2 0 002-2zm-21 3V12zm17-25a4 4 0 014 4v18a4 4 0 01-4 4v-2a2 2 0 002-2V15a2 2 0 00-2-2z" mask="url(#widget-__b)" class="fill-border"/><path fill-rule="evenodd" d="M232.946 21.346a.36.36 0 01.509 0l2.4 2.4a.36.36 0 010 .509l-2.4 2.4a.36.36 0 11-.509-.51L235.091 24l-2.145-2.145a.36.36 0 010-.51" clip-rule="evenodd" class="fill-symbol"/><g clip-path="url(#widget-__c)"><path d="M13.145 61v-9.455h3.305q.988 0 1.63.342.641.337.956.91.313.567.313 1.26 0 .609-.216 1.006-.213.397-.564.628-.345.231-.752.342v.092q.434.028.872.305.439.276.734.794.296.516.296 1.265 0 .711-.323 1.278-.324.568-1.02.9-.697.333-1.815.333zm1.145-1.016h2.271q1.122 0 1.593-.434.475-.438.475-1.061 0-.48-.244-.887a1.77 1.77 0 00-.698-.655q-.452-.25-1.07-.25H14.29zm0-4.284h2.123q.517 0 .933-.203.42-.203.665-.572.249-.37.249-.868 0-.624-.434-1.057-.434-.44-1.376-.439h-2.16zm7.162 5.3v-7.09h1.053v1.07h.074q.194-.525.701-.854.508-.328 1.145-.328.12 0 .3.005t.273.014v1.108a3 3 0 00-.254-.042 2.5 2.5 0 00-.411-.032 1.9 1.9 0 00-.923.217q-.402.212-.637.59-.231.375-.231.855V61zm7.594.148q-1.024 0-1.768-.453a3.04 3.04 0 01-1.14-1.274q-.397-.822-.397-1.911t.397-1.92q.402-.837 1.117-1.302.72-.471 1.68-.471.555 0 1.095.184.54.185.983.6.442.412.706 1.09.263.68.263 1.671v.462h-5.465v-.942h4.358q0-.6-.24-1.07a1.8 1.8 0 00-.675-.744 1.9 1.9 0 00-1.024-.273q-.651 0-1.127.324-.47.318-.725.83-.254.512-.254 1.1v.627q0 .804.277 1.362.282.554.78.845.5.285 1.16.286.429 0 .775-.12a1.7 1.7 0 00.605-.37q.254-.249.392-.618l1.053.295q-.166.537-.559.942a2.7 2.7 0 01-.97.628 3.6 3.6 0 01-1.297.222m6.68.018q-.674 0-1.223-.254a2.1 2.1 0 01-.873-.743q-.323-.489-.323-1.182 0-.609.24-.988.24-.383.642-.6t.886-.323q.49-.11.984-.175.646-.084 1.048-.125.406-.046.59-.152.19-.106.19-.37v-.037q0-.684-.374-1.061-.369-.38-1.122-.379-.78 0-1.223.342-.444.34-.623.729l-1.035-.37q.277-.645.74-1.006a2.8 2.8 0 011.015-.508q.554-.147 1.09-.147.341 0 .784.083.448.078.863.328.42.25.697.752.277.504.277 1.348V61h-1.09v-.96h-.055a1.9 1.9 0 01-.369.494 2.1 2.1 0 01-.688.447q-.429.186-1.048.185m.167-.978q.645 0 1.09-.254a1.73 1.73 0 00.904-1.5v-.998q-.07.084-.305.152a5 5 0 01-.535.116 24 24 0 01-1.044.138 4 4 0 00-.794.18q-.365.12-.59.365-.222.24-.222.656 0 .567.42.858.425.286 1.076.286m6.088-1.773-.019-1.348h.222l3.102-3.158h1.348l-3.305 3.342h-.093zM40.965 61v-9.455h1.09V61zm4.506 0-2.77-3.508.775-.758L46.856 61zm5.723-7.09v.922H47.37v-.923zM48.516 61v-8.07q0-.609.287-1.015.285-.406.743-.61a2.35 2.35 0 01.965-.203q.401 0 .655.065.255.064.379.12l-.314.942a5 5 0 00-.231-.07 1.4 1.4 0 00-.379-.041q-.54 0-.78.272-.235.273-.235.799V61zm6.088.166q-.674 0-1.223-.254a2.1 2.1 0 01-.873-.743q-.323-.489-.323-1.182 0-.609.24-.988.24-.383.642-.6t.886-.323q.49-.11.984-.175.645-.084 1.048-.125.405-.046.59-.152.19-.106.19-.37v-.037q0-.684-.374-1.061-.369-.38-1.122-.379-.78 0-1.223.342-.444.34-.623.729l-1.035-.37q.277-.645.739-1.006.466-.364 1.016-.508.553-.147 1.09-.147.341 0 .784.083.447.078.863.328.42.25.697.752.277.504.277 1.348V61h-1.09v-.96h-.055a1.9 1.9 0 01-.369.494 2.1 2.1 0 01-.688.447q-.429.186-1.048.185m.166-.978q.646 0 1.09-.254a1.73 1.73 0 00.905-1.5v-.998q-.07.084-.305.152a5 5 0 01-.535.116 24 24 0 01-1.044.138 4 4 0 00-.794.18q-.365.12-.59.365-.222.24-.222.656 0 .567.42.858.425.286 1.075.286m10.096-4.69-.98.276a1.8 1.8 0 00-.272-.475 1.3 1.3 0 00-.48-.388q-.305-.153-.78-.153-.65 0-1.085.3-.429.296-.429.753 0 .406.295.642.295.235.924.392l1.052.259q.951.23 1.418.706.466.471.466 1.214a1.8 1.8 0 01-.351 1.09q-.346.48-.97.757-.623.276-1.449.277-1.085 0-1.796-.471t-.9-1.376l1.034-.258q.147.572.559.858.415.286 1.084.286.762 0 1.21-.323.453-.328.452-.784a.82.82 0 00-.258-.62q-.258-.252-.794-.378l-1.182-.277q-.974-.23-1.431-.715-.453-.489-.453-1.224 0-.6.337-1.061.343-.462.928-.725.59-.263 1.34-.263 1.051 0 1.652.461.605.461.859 1.22m4.853-1.589v.923h-3.675v-.923zm-2.604-1.699h1.09v6.759q0 .46.133.692.14.227.351.305.217.075.457.074.18 0 .296-.019l.184-.037.222.98a2 2 0 01-.31.082q-.198.046-.503.046-.461 0-.904-.198a1.8 1.8 0 01-.73-.605q-.286-.405-.286-1.025zM75.014 61v-7.09h1.09V61zm.554-8.273a.78.78 0 01-.55-.217.7.7 0 01-.226-.521q0-.305.226-.522a.77.77 0 01.55-.217q.319 0 .544.217a.7.7 0 01.231.522.7.7 0 01-.23.521.76.76 0 01-.545.217m3.62 4.007V61h-1.09v-7.09h1.053v1.107h.093q.249-.54.757-.868.507-.332 1.31-.332.72 0 1.261.295.54.291.84.887.3.59.3 1.495V61h-1.09v-4.432q0-.835-.433-1.302-.434-.47-1.191-.47-.522 0-.933.226-.405.225-.641.66-.236.434-.236 1.052M89.508 61v-9.455h3.305q.987 0 1.63.342.641.337.955.91.314.567.314 1.26 0 .609-.217 1.006-.213.397-.563.628-.347.231-.753.342v.092q.434.028.873.305.438.276.734.794.295.516.295 1.265 0 .711-.323 1.278t-1.02.9-1.815.333zm1.144-1.016h2.271q1.123 0 1.593-.434.476-.438.476-1.061 0-.48-.245-.887a1.77 1.77 0 00-.697-.655q-.453-.25-1.071-.25h-2.327zm0-4.284h2.124q.516 0 .932-.203.42-.203.665-.572.25-.37.25-.868 0-.624-.435-1.057-.434-.44-1.375-.439h-2.16zm10.136 5.448q-1.025 0-1.769-.453a3.04 3.04 0 01-1.14-1.274q-.397-.822-.397-1.911t.397-1.92q.402-.837 1.117-1.302.72-.471 1.681-.471.554 0 1.094.184.54.185.983.6.444.412.706 1.09.264.68.264 1.671v.462h-5.466v-.942h4.358q0-.6-.24-1.07a1.8 1.8 0 00-.674-.744 1.9 1.9 0 00-1.025-.273q-.651 0-1.127.324-.47.318-.724.83a2.44 2.44 0 00-.254 1.1v.627q0 .804.277 1.362.28.554.78.845.498.285 1.159.286.429 0 .775-.12.351-.124.605-.37.254-.249.392-.618l1.053.295a2.3 2.3 0 01-.559.942 2.7 2.7 0 01-.969.628 3.6 3.6 0 01-1.297.222m7.271 0q-.887 0-1.565-.448-.68-.453-1.062-1.274-.383-.827-.383-1.953 0-1.117.383-1.939.383-.821 1.066-1.27.684-.447 1.579-.447.692 0 1.094.23.406.227.619.518.216.285.337.47h.092v-3.49h1.09V61h-1.053v-1.09h-.129q-.12.195-.342.49a2 2 0 01-.632.522q-.411.225-1.094.226m.147-.979q.656 0 1.108-.342.453-.346.688-.955.235-.615.235-1.417 0-.795-.23-1.39-.231-.6-.684-.932-.452-.338-1.117-.338-.692 0-1.154.356a2.13 2.13 0 00-.688.955q-.226.6-.226 1.349 0 .756.231 1.375.236.615.692.979.462.36 1.145.36" class="fill-primary"/><path d="M178 49.5a1.5 1.5 0 011.5-1.5h63a1.5 1.5 0 011.5 1.5v13a1.5 1.5 0 01-1.5 1.5h-63a1.5 1.5 0 01-1.5-1.5z" class="fill-tone"/><path d="M183.239 59v-6.91h4.143v.743h-3.306v2.335h2.996v.742h-2.996V59zm7.193.108q-.702 0-1.232-.334a2.27 2.27 0 01-.823-.934q-.293-.6-.293-1.404 0-.81.293-1.413.297-.605.823-.938a2.26 2.26 0 011.232-.334q.702 0 1.228.334.53.333.823.938.297.603.297 1.413 0 .802-.297 1.404-.294.6-.823.934-.526.334-1.228.334m0-.715q.532 0 .877-.273.344-.274.509-.72.166-.444.166-.964t-.166-.968q-.165-.45-.509-.726-.345-.276-.877-.276-.534 0-.877.276-.345.277-.51.726t-.165.968.165.965.51.718q.343.274.877.274m5.668.715q-.702 0-1.231-.334a2.27 2.27 0 01-.823-.934q-.294-.6-.294-1.404 0-.81.294-1.413.297-.605.823-.938a2.26 2.26 0 011.231-.334q.702 0 1.228.334.53.333.823.938.297.603.297 1.413 0 .802-.297 1.404-.293.6-.823.934-.526.334-1.228.334m0-.715q.534 0 .877-.273.345-.274.51-.72.165-.444.165-.964t-.165-.968q-.165-.45-.51-.726-.343-.276-.877-.276-.533 0-.877.276a1.63 1.63 0 00-.509.726 2.8 2.8 0 00-.166.968q0 .52.166.965.165.445.509.718.344.274.877.274m5.52.715q-.648 0-1.143-.327-.497-.33-.776-.931-.28-.605-.28-1.427 0-.817.28-1.417t.779-.928a2.06 2.06 0 011.154-.327q.506 0 .799.168.297.166.452.378.159.21.247.344h.067v-2.55h.796V59h-.769v-.796h-.094a5 5 0 01-.25.357 1.5 1.5 0 01-.462.382q-.3.165-.8.165m.108-.715q.48 0 .81-.25a1.56 1.56 0 00.502-.698q.173-.45.173-1.036 0-.58-.169-1.015a1.5 1.5 0 00-.499-.682q-.331-.246-.817-.246-.505 0-.843.26-.334.255-.503.698a2.8 2.8 0 00-.165.985q0 .554.168 1.005.173.45.506.716.338.263.837.263m8.464.701q-.68 0-1.174-.25a1.85 1.85 0 01-.759-.684 1.87 1.87 0 01-.266-.995q0-.432.182-.766.186-.338.509-.624.328-.29.753-.58l.998-.743q.294-.192.469-.411.179-.219.179-.574 0-.262-.233-.51a.79.79 0 00-.604-.245.8.8 0 00-.465.135.96.96 0 00-.314.337.86.86 0 00-.111.418q0 .243.131.493.135.246.341.506l.432.526L213.431 59h-.958l-2.618-3.158-.661-.796a3.8 3.8 0 01-.472-.705 1.65 1.65 0 01-.176-.752q0-.465.206-.817a1.43 1.43 0 01.584-.55q.377-.198.883-.199.52 0 .894.203.375.2.577.53.203.327.203.711 0 .496-.247.86a2.8 2.8 0 01-.671.679l-1.376 1.025q-.466.344-.631.668t-.165.466q0 .324.168.604.169.28.476.452t.718.172q.391 0 .763-.166.37-.168.671-.485.304-.318.479-.763.179-.445.179-1.002h.769q0 .69-.158 1.124-.159.435-.358.681a5 5 0 01-.32.368 2 2 0 00-.075.101 1 1 0 01-.074.101q-.334.375-.843.56-.51.183-1.006.182m9.032-.094h-2.132v-6.91h2.227q1.005.001 1.72.416.716.411 1.097 1.184.381.77.381 1.842 0 1.08-.385 1.859a2.73 2.73 0 01-1.12 1.194q-.735.415-1.788.415m-1.295-.742h1.241q.858 0 1.421-.33.563-.331.84-.942.276-.61.276-1.454 0-.837-.273-1.44a2 2 0 00-.816-.932q-.543-.327-1.353-.327h-1.336zm5.883.742v-5.182h.77v.783h.054q.141-.386.512-.624.372-.24.837-.24a9 9 0 01.418.014v.81a2 2 0 00-.185-.031 2 2 0 00-.3-.024 1.4 1.4 0 00-.675.159 1.2 1.2 0 00-.466.432q-.168.273-.168.624V59zm3.535 0v-5.182h.796V59zm.405-6.045a.57.57 0 01-.402-.159.5.5 0 01-.165-.381.5.5 0 01.165-.381.57.57 0 01.402-.159q.233 0 .398.159a.5.5 0 01.169.38.5.5 0 01-.169.382.55.55 0 01-.398.159m2.646 2.928V59h-.797v-5.182h.77v.81h.067q.183-.395.553-.634.371-.243.959-.243.525 0 .92.216.395.212.614.647.22.432.22 1.093V59h-.796v-3.239q0-.61-.318-.951-.317-.345-.87-.344-.381 0-.681.165-.298.165-.469.483a1.6 1.6 0 00-.172.769m5.503 1.228-.014-.985h.162l2.267-2.308h.985l-2.415 2.443h-.068zM235.159 59v-6.91h.796V59zm3.292 0-2.024-2.564.567-.553L239.463 59z" class="fill-primary"/><path d="m13.297 72 2.375 6.734h.094L18.14 72h1.015l-2.937 8h-1l-2.938-8zm8.187 8.14q-.57 0-1.035-.214a1.8 1.8 0 01-.738-.63q-.273-.413-.273-1 0-.515.203-.835.203-.324.543-.508.339-.183.75-.273.414-.094.832-.149.547-.07.886-.105.345-.04.5-.13.16-.088.16-.312v-.03q0-.579-.316-.9-.312-.32-.95-.32-.66 0-1.034.29-.375.288-.528.617l-.875-.313q.235-.547.625-.851a2.3 2.3 0 01.86-.43q.469-.126.922-.125.289 0 .664.07.378.066.73.277.356.211.59.637t.234 1.14V80h-.922v-.812h-.046q-.094.195-.313.418t-.582.378q-.363.157-.887.157m.141-.828q.547 0 .922-.214a1.46 1.46 0 00.765-1.27v-.844q-.059.07-.257.13-.196.054-.453.097a20 20 0 01-.883.117q-.36.046-.672.153-.31.1-.5.308-.188.202-.188.555 0 .48.356.726.36.243.91.243m5.214-2.921V80h-.922v-6h.89v.938h.079q.21-.457.64-.735.43-.28 1.11-.281.61 0 1.066.25.457.246.711.75.255.5.254 1.266V80h-.922v-3.75q0-.706-.367-1.102-.367-.398-1.008-.398-.441 0-.789.191a1.37 1.37 0 00-.543.559q-.2.368-.2.89M32.352 80v-6h.921v6zm.468-7a.66.66 0 01-.465-.184.6.6 0 01-.19-.441.6.6 0 01.19-.441.66.66 0 01.465-.184q.27 0 .461.184.195.184.196.441a.58.58 0 01-.196.441.64.64 0 01-.46.184m3.064-1v8h-.922v-8zm2.61 0v8h-.922v-8zm3.454 8.14q-.57 0-1.035-.214a1.8 1.8 0 01-.738-.63q-.274-.413-.274-1 0-.515.203-.835.204-.324.544-.508.339-.183.75-.273.413-.094.831-.149.547-.07.887-.105.344-.04.5-.13.16-.088.16-.312v-.03q0-.579-.316-.9-.312-.32-.95-.32-.66 0-1.034.29-.375.288-.528.617l-.875-.313q.235-.547.625-.851.395-.31.86-.43.468-.126.922-.125.288 0 .664.07.379.066.73.277.356.211.59.637t.234 1.14V80h-.922v-.812h-.047q-.093.195-.312.418t-.582.378q-.363.157-.887.157m.14-.828q.548 0 .923-.214a1.46 1.46 0 00.765-1.27v-.844q-.059.07-.257.13-.196.054-.454.097a20 20 0 01-.882.117q-.36.046-.672.153-.31.1-.5.308-.188.202-.188.555 0 .48.356.726.36.243.91.243m7.387.688v-6h.89v.938h.078q.188-.48.606-.747.418-.27 1.004-.27.594 0 .988.27.399.266.621.746h.063q.23-.464.691-.738.46-.277 1.106-.277.804 0 1.316.504.512.5.512 1.558V80h-.922v-4.016q0-.663-.363-.949a1.35 1.35 0 00-.856-.285q-.633 0-.98.383-.348.379-.348.96V80h-.938v-4.11q0-.51-.332-.824-.331-.316-.855-.316-.36 0-.672.191a1.45 1.45 0 00-.5.532 1.57 1.57 0 00-.187.777V80zm11.326.14q-.57 0-1.035-.214a1.8 1.8 0 01-.739-.63q-.273-.413-.273-1 0-.515.203-.835.203-.324.543-.508.34-.183.75-.273.414-.094.832-.149.547-.07.887-.105.344-.04.5-.13.16-.088.16-.312v-.03q0-.579-.316-.9-.313-.32-.95-.32-.66 0-1.035.29-.375.288-.527.617l-.875-.313q.234-.547.625-.851a2.3 2.3 0 01.86-.43q.468-.126.921-.125.29 0 .664.07.38.066.73.277.357.211.59.637.235.426.235 1.14V80h-.922v-.812h-.047q-.094.195-.312.418-.219.222-.583.378-.363.157-.886.157m.14-.828q.547 0 .922-.214a1.46 1.46 0 00.766-1.27v-.844q-.06.07-.258.13-.195.054-.453.097a20 20 0 01-.883.117q-.36.046-.672.153-.308.1-.5.308-.187.202-.187.555 0 .48.355.726.36.243.91.243M67.843 74v.781h-3.11V74zm-2.203-1.437h.921v5.718q0 .39.114.586a.6.6 0 00.297.258q.183.063.386.063.153 0 .25-.016l.157-.031.187.828q-.094.035-.262.07a2 2 0 01-.425.04q-.39 0-.766-.169a1.5 1.5 0 01-.617-.512q-.243-.343-.242-.867zm5.963 7.562q-.844 0-1.454-.398a2.6 2.6 0 01-.937-1.098q-.328-.7-.328-1.598 0-.915.336-1.613.339-.703.945-1.098.609-.398 1.422-.398.633 0 1.14.234.509.234.833.656t.402.985h-.922a1.43 1.43 0 00-.469-.727q-.36-.32-.968-.32-.54 0-.946.281a1.83 1.83 0 00-.629.785q-.222.504-.222 1.184 0 .695.218 1.21.223.517.625.802.407.285.954.285.36 0 .652-.125t.496-.36.289-.562h.922a2.14 2.14 0 01-1.195 1.629q-.501.246-1.164.246m4.628-3.734V80h-.921v-8h.921v2.938h.079q.21-.465.632-.739.426-.277 1.133-.277.614 0 1.074.246.462.242.715.746.258.5.258 1.273V80H79.2v-3.75q0-.715-.37-1.106-.368-.394-1.02-.394-.454 0-.813.191a1.4 1.4 0 00-.562.559q-.204.368-.204.89m7.343 3.75q-.57 0-1.035-.215a1.8 1.8 0 01-.738-.63q-.274-.413-.274-1 0-.515.204-.835.203-.324.542-.508.34-.183.75-.273.414-.094.833-.149.547-.07.886-.105.345-.04.5-.13.16-.088.16-.312v-.03q0-.579-.316-.9-.312-.32-.95-.32-.66 0-1.034.29-.375.288-.528.617l-.875-.313q.235-.547.625-.851a2.3 2.3 0 01.86-.43q.469-.126.922-.125.288 0 .663.07.38.066.731.277.356.211.59.637t.234 1.14V80h-.922v-.812h-.046q-.094.195-.313.418t-.582.378q-.363.157-.887.157m.14-.829q.548 0 .923-.214a1.46 1.46 0 00.765-1.27v-.844q-.059.07-.258.13a4 4 0 01-.453.097 20 20 0 01-.882.117q-.36.046-.672.153-.31.1-.5.308-.188.202-.188.555 0 .48.356.726.36.243.91.243M92.023 72v8h-.921v-8zm3.455 8.14q-.57 0-1.036-.214a1.8 1.8 0 01-.738-.63q-.273-.413-.273-1 0-.515.203-.835.203-.324.543-.508.339-.183.75-.273.414-.094.832-.149.547-.07.886-.105.344-.04.5-.13.16-.088.16-.312v-.03q0-.579-.316-.9-.313-.32-.949-.32-.66 0-1.035.29-.375.288-.527.617l-.875-.313q.234-.547.625-.851a2.3 2.3 0 01.859-.43q.469-.126.922-.125.29 0 .664.07.378.066.73.277.356.211.59.637.235.426.235 1.14V80h-.922v-.812h-.047q-.094.195-.313.418-.218.222-.582.378-.363.157-.886.157m.14-.828q.547 0 .922-.214a1.46 1.46 0 00.766-1.27v-.844q-.06.07-.258.13-.195.054-.453.097a20 20 0 01-.883.117q-.36.046-.672.153-.309.1-.5.308-.187.202-.187.555 0 .48.355.726.36.243.91.243M102.52 74v.781h-3.11V74zm-2.204-1.437h.922v5.718q0 .39.114.586a.6.6 0 00.296.258q.185.063.387.063.153 0 .25-.016l.156-.031.188.828q-.094.035-.262.07a2 2 0 01-.426.04q-.39 0-.765-.169a1.5 1.5 0 01-.617-.512q-.243-.343-.243-.867zm6.2 1.437v.781h-3.11V74zm-2.203-1.437h.921v5.718q0 .39.114.586a.6.6 0 00.297.258q.183.063.386.063.153 0 .25-.016l.157-.031.187.828a2 2 0 01-.262.07 2 2 0 01-.425.04q-.391 0-.766-.169a1.5 1.5 0 01-.617-.512q-.243-.343-.242-.867zm6.041 7.562q-.868 0-1.497-.383a2.57 2.57 0 01-.964-1.078q-.336-.694-.336-1.617 0-.922.336-1.625.339-.707.945-1.102.609-.398 1.422-.398.468 0 .926.156a2.3 2.3 0 01.832.508q.375.348.597.922.223.574.223 1.414v.39h-4.625v-.796h3.687q0-.508-.203-.907a1.53 1.53 0 00-1.437-.859q-.55 0-.953.273-.398.27-.614.704a2.1 2.1 0 00-.214.93v.53q0 .68.234 1.153.239.468.66.715.421.242.981.242.362 0 .656-.102.296-.105.512-.312.214-.21.332-.524l.89.25a2 2 0 01-.472.797 2.3 2.3 0 01-.821.531 3 3 0 01-1.097.188m8.136-4.781-.828.234a1.6 1.6 0 00-.23-.402 1.1 1.1 0 00-.407-.328q-.257-.13-.66-.13-.55 0-.918.255-.363.25-.363.636 0 .344.25.543t.781.332l.891.22q.804.195 1.199.597.395.398.395 1.027 0 .516-.297.922-.293.406-.821.64-.527.235-1.226.235-.918 0-1.52-.398-.602-.399-.761-1.165l.875-.218q.125.484.472.726.353.243.918.243.645 0 1.024-.274.383-.277.383-.664a.7.7 0 00-.219-.523q-.219-.216-.672-.32l-1-.235q-.825-.195-1.211-.606-.383-.413-.383-1.035 0-.507.285-.898.29-.39.785-.614a2.8 2.8 0 011.133-.222q.89 0 1.399.39.511.39.726 1.032m5.95 4.656-1.828-6h.969l1.297 4.594h.062L126.221 74h.984l1.266 4.578h.062L129.83 74h.969l-1.828 6h-.907l-1.312-4.61h-.094L125.346 80zm7.579 0v-6h.921v6zm.468-7a.66.66 0 01-.465-.184.6.6 0 01-.191-.441q0-.258.191-.441a.66.66 0 01.465-.184.64.64 0 01.461.184q.195.184.196.441a.59.59 0 01-.196.441.64.64 0 01-.461.184m4.751 1v.781h-3.109V74zm-2.203-1.437h.922v5.718q0 .39.113.586a.6.6 0 00.297.258q.184.063.387.063.152 0 .25-.016l.156-.031.188.828q-.094.035-.262.07a2 2 0 01-.426.04q-.39 0-.765-.169a1.5 1.5 0 01-.618-.512q-.242-.343-.242-.867zm4.641 3.828V80h-.922v-8h.922v2.938h.078q.21-.465.633-.739.425-.277 1.133-.277.612 0 1.074.246.46.242.715.746.257.5.257 1.273V80h-.921v-3.75q0-.715-.372-1.106-.366-.394-1.019-.394-.453 0-.813.191a1.4 1.4 0 00-.562.559q-.203.368-.203.89m10.436 3.75q-.57 0-1.035-.215a1.77 1.77 0 01-.738-.63q-.273-.413-.274-1 0-.515.204-.835.202-.324.543-.508.339-.183.75-.273.414-.094.832-.149.547-.07.886-.105.344-.04.5-.13.16-.088.16-.312v-.03q0-.579-.316-.9-.312-.32-.949-.32-.66 0-1.035.29-.375.288-.528.617l-.875-.313q.235-.547.625-.851.395-.31.86-.43.468-.126.922-.125.288 0 .664.07.379.066.73.277.356.211.59.637t.234 1.14V80h-.922v-.812h-.046q-.094.195-.313.418t-.582.378q-.363.157-.887.157m.141-.829q.547 0 .922-.214a1.46 1.46 0 00.765-1.27v-.844q-.059.07-.257.13a5 5 0 01-.453.097 20 20 0 01-.883.117q-.36.046-.672.153-.31.1-.5.308-.188.202-.188.555 0 .48.356.726.359.243.91.243M155.466 72v8h-.922v-8zm1.688 8v-6h.891v.938h.078q.188-.48.606-.747.418-.27 1.003-.27.594 0 .989.27.398.266.621.746h.062q.23-.464.692-.738.46-.277 1.105-.277.805 0 1.317.504.511.5.511 1.558V80h-.922v-4.016q0-.663-.363-.949a1.34 1.34 0 00-.855-.285q-.633 0-.981.383-.347.379-.347.96V80h-.938v-4.11q0-.51-.332-.824-.332-.316-.855-.316-.36 0-.672.191a1.44 1.44 0 00-.5.532 1.57 1.57 0 00-.188.777V80zm11.998.125q-.812 0-1.425-.387a2.63 2.63 0 01-.954-1.082q-.339-.695-.339-1.625 0-.937.339-1.637.344-.7.954-1.085.613-.387 1.425-.387t1.422.387q.614.386.953 1.085.344.7.344 1.637 0 .93-.344 1.625a2.6 2.6 0 01-.953 1.082q-.609.387-1.422.387m0-.828q.618 0 1.016-.316.398-.318.59-.833.19-.515.191-1.117 0-.601-.191-1.12a1.9 1.9 0 00-.59-.84q-.399-.321-1.016-.321t-1.015.32a1.9 1.9 0 00-.59.84q-.192.52-.192 1.121 0 .602.192 1.117.19.516.59.833.398.316 1.015.316m5.048-2.906V80h-.922v-6h.891v.938h.078q.211-.457.641-.735.43-.28 1.109-.281.61 0 1.066.25.458.246.711.75.254.5.254 1.266V80h-.922v-3.75q0-.706-.367-1.102-.367-.398-1.008-.398a1.6 1.6 0 00-.789.191q-.344.192-.543.559t-.199.89m7.779 3.734q-.75 0-1.325-.379a2.56 2.56 0 01-.898-1.078q-.324-.7-.324-1.652 0-.946.324-1.641t.902-1.074a2.4 2.4 0 011.336-.38q.586 0 .926.196.344.192.523.438.184.242.286.398h.078V72h.922v8h-.891v-.922h-.109q-.102.165-.29.414a1.7 1.7 0 01-.535.442q-.347.19-.925.191m.125-.828q.554 0 .937-.29.382-.292.582-.808.2-.52.199-1.199 0-.672-.195-1.176a1.7 1.7 0 00-.578-.789q-.382-.285-.945-.285-.587 0-.977.3a1.8 1.8 0 00-.582.81 3.2 3.2 0 00-.191 1.14q0 .64.195 1.164.2.52.586.828.39.305.969.305m7.535.703v-6h.89v.938h.078q.188-.48.606-.747.418-.27 1.004-.27.594 0 .988.27.399.266.621.746h.063q.23-.464.691-.738.46-.277 1.106-.277.804 0 1.316.504.512.5.512 1.558V80h-.922v-4.016q0-.663-.363-.949a1.35 1.35 0 00-.856-.285q-.633 0-.98.383-.348.379-.348.96V80h-.938v-4.11q0-.51-.332-.824-.331-.316-.855-.316-.36 0-.672.191a1.45 1.45 0 00-.5.532 1.57 1.57 0 00-.187.777V80zm9.56 0v-6h.922v6zm.469-7a.66.66 0 01-.465-.184.6.6 0 01-.191-.441q0-.258.191-.441a.66.66 0 01.465-.184q.27 0 .461.184.195.184.195.441a.59.59 0 01-.195.441.64.64 0 01-.461.184m3.063-1v8h-.921v-8zm2.548 5.813-.015-1.141h.187L208.076 74h1.141l-2.797 2.828h-.078zM204.42 80v-8h.922v8zm3.812 0-2.343-2.969.656-.64L209.404 80zm3.499-1.094-.062.422a9 9 0 01-.203.953q-.133.509-.278.957-.144.45-.238.715h-.703l.133-.66a25 25 0 00.305-1.95l.046-.437zm7.061 1.219q-.75 0-1.324-.379a2.56 2.56 0 01-.899-1.078q-.324-.7-.324-1.652 0-.946.324-1.641t.903-1.074a2.4 2.4 0 011.336-.38q.585 0 .925.196.345.192.524.438.183.242.285.398h.078V72h.922v8h-.891v-.922h-.109q-.102.165-.289.414a1.7 1.7 0 01-.535.442q-.348.19-.926.191m.125-.828q.555 0 .937-.29.384-.292.583-.808.199-.52.199-1.199 0-.672-.196-1.176a1.7 1.7 0 00-.578-.789q-.382-.285-.945-.285-.586 0-.977.3a1.8 1.8 0 00-.582.81 3.2 3.2 0 00-.191 1.14q0 .64.195 1.164.2.52.586.828.391.305.969.305m6.957.828q-.867 0-1.496-.383a2.57 2.57 0 01-.965-1.078q-.336-.694-.336-1.617 0-.922.336-1.625.34-.707.945-1.102.61-.398 1.422-.398.469 0 .926.156.457.157.832.508.375.348.598.922t.222 1.414v.39h-4.625v-.796h3.688q0-.508-.203-.907a1.53 1.53 0 00-.571-.628 1.6 1.6 0 00-.867-.231q-.55 0-.953.273-.398.27-.613.704a2.1 2.1 0 00-.215.93v.53q0 .68.234 1.153.238.468.661.715.422.242.98.242.363 0 .656-.102.297-.105.512-.312.215-.21.332-.524l.891.25a2 2 0 01-.473.797 2.3 2.3 0 01-.82.531 3 3 0 01-1.098.188M230.683 72v8h-.922v-8zm2.36 8.063a.68.68 0 01-.496-.207.68.68 0 01-.207-.497q0-.288.207-.496a.68.68 0 01.496-.207q.29 0 .496.207a.68.68 0 01.207.496.65.65 0 01-.098.352.7.7 0 01-.253.258.67.67 0 01-.352.094m3 0a.68.68 0 01-.496-.207.68.68 0 01-.207-.497q0-.288.207-.496a.68.68 0 01.496-.207q.29 0 .496.207a.68.68 0 01.207.496.65.65 0 01-.098.352.7.7 0 01-.253.258.67.67 0 01-.352.094m3 0a.68.68 0 01-.496-.207.68.68 0 01-.207-.497q0-.288.207-.496a.68.68 0 01.496-.207q.29 0 .496.207a.68.68 0 01.207.496.65.65 0 01-.098.352.7.7 0 01-.253.258.67.67 0 01-.352.094" class="fill-secondary"/><path fill-rule="evenodd" d="M16 95.334a1 1 0 112 0 1 1 0 01-2 0m1.334 1.633a1.667 1.667 0 10-.667 0V102a.334.334 0 00.666 0z" clip-rule="evenodd" class="fill-symbol"/><path d="M26.719 101v-6.91h1.15v2.963h3.323V94.09h1.147V101h-1.147v-2.972h-3.323V101zm9.215.105q-.745 0-1.295-.334a2.3 2.3 0 01-.854-.938q-.3-.6-.3-1.4 0-.807.3-1.41.304-.605.854-.938.55-.334 1.295-.334.746 0 1.296.334.55.333.85.938.303.603.304 1.41 0 .8-.304 1.4-.3.6-.85.938-.55.333-1.296.334m.004-.915q.445 0 .735-.24.294-.238.439-.637.145-.4.145-.884 0-.486-.145-.887a1.43 1.43 0 00-.439-.644q-.29-.243-.735-.243-.45 0-.742.243-.294.24-.439.644a2.6 2.6 0 00-.145.887q0 .483.145.884.145.398.439.638.293.239.742.239m3.525.81v-5.182h1.07v.864h.064q.161-.439.53-.685.37-.246.886-.246.525 0 .881.25.36.245.52.68h.054q.178-.425.583-.677.408-.253.972-.253.708 0 1.157.448.449.446.449 1.326V101h-1.117v-3.333q0-.507-.27-.736a.98.98 0 00-.654-.229q-.47 0-.733.29-.26.287-.26.739V101h-1.099v-3.39q0-.412-.253-.658a.9.9 0 00-.654-.25.94.94 0 00-.507.142 1.04 1.04 0 00-.367.395q-.135.252-.135.587V101zm10.728.105q-.773 0-1.333-.328a2.2 2.2 0 01-.86-.927q-.3-.6-.3-1.407 0-.8.3-1.407.304-.608.847-.945.543-.34 1.275-.34.462 0 .88.148.42.149.746.466.327.313.517.81.192.495.192 1.187v.364h-4.187v-.79h3.104a1.4 1.4 0 00-.155-.66 1.16 1.16 0 00-.435-.463 1.2 1.2 0 00-.648-.168q-.402 0-.702.192a1.33 1.33 0 00-.462.506q-.162.314-.165.681v.652q0 .485.175.83.175.343.49.526.312.179.731.179.28 0 .506-.078.225-.081.388-.236.166-.158.253-.392l1.05.152q-.112.435-.412.763a2 2 0 01-.756.506q-.455.179-1.039.179" class="fill-accent"/><g clip-path="url(#widget-__d)"><path fill-rule="evenodd" d="M70 93.585a4.415 4.415 0 100 8.83 4.415 4.415 0 000-8.83M66.218 98a3.782 3.782 0 117.564 0 3.782 3.782 0 01-7.564 0m4.115-2a.333.333 0 00-.666 0v2c0 .089.035.174.097.236l1.334 1.333a.333.333 0 10.471-.471l-1.236-1.236z" clip-rule="evenodd" class="fill-symbol"/></g><path d="M82.218 101.094a2.8 2.8 0 01-.94-.168 2.2 2.2 0 01-.83-.55q-.372-.381-.591-1.022-.22-.642-.22-1.596 0-.894.186-1.592.186-.7.533-1.181.347-.483.837-.736a2.4 2.4 0 011.106-.253q.635 0 1.124.25.492.25.796.685.307.435.381.988h-1.13a1.2 1.2 0 00-.401-.668q-.3-.256-.77-.256-.738 0-1.143.644-.405.642-.412 1.775h.05q.172-.297.436-.506.263-.212.59-.327.328-.115.695-.115.604 0 1.09.293.486.291.772.803.287.51.287 1.168 0 .67-.307 1.21-.306.538-.857.847-.546.311-1.282.307m-.003-.944q.381 0 .681-.186.304-.189.48-.506.175-.317.175-.708 0-.389-.172-.698a1.3 1.3 0 00-.466-.5 1.26 1.26 0 00-.681-.185q-.284 0-.53.111a1.39 1.39 0 00-.823 1.282q0 .371.172.688.176.317.476.51.303.192.688.192m6.26.971q-.812 0-1.396-.421-.58-.421-.89-1.222-.311-.799-.308-1.93 0-1.125.31-1.919.31-.795.891-1.214.584-.42 1.394-.419.813 0 1.393.419.584.418.894 1.214t.31 1.92q0 1.133-.31 1.933t-.89 1.221q-.581.418-1.398.418m0-.975q.675 0 1.063-.66.388-.666.385-1.937 0-.84-.176-1.417-.175-.577-.499-.874a1.1 1.1 0 00-.773-.297q-.668 0-1.055.665-.388.66-.388 1.923-.004.846.172 1.427.175.577.499.874.324.296.772.296m6.252.854v-5.182h1.07v.864h.063q.162-.439.53-.685.37-.246.887-.246.523 0 .88.25.362.245.52.68h.054q.18-.425.584-.677.408-.253.971-.253.709 0 1.158.448.448.446.448 1.326V101h-1.116v-3.333q0-.507-.27-.736a.98.98 0 00-.655-.229q-.468 0-.732.29-.26.287-.26.739V101h-1.1v-3.39q0-.412-.252-.658a.9.9 0 00-.655-.25.94.94 0 00-.506.142 1.04 1.04 0 00-.368.395q-.135.252-.135.587V101zm8.461 0v-5.182h1.116V101zm.563-5.948a.68.68 0 01-.476-.185.6.6 0 01-.195-.449q0-.26.195-.445a.68.68 0 01.476-.186.66.66 0 01.472.186.59.59 0 01.199.445.6.6 0 01-.199.449.66.66 0 01-.472.185m2.975 2.891V101h-1.117v-5.182h1.07v.864h.064q.179-.426.566-.678.389-.253.969-.253.532 0 .931.226.398.225.617.661.223.435.223 1.066V101h-1.117v-3.14q0-.544-.28-.848-.28-.306-.772-.307a1.2 1.2 0 00-.598.145 1.03 1.03 0 00-.408.422 1.4 1.4 0 00-.148.671m8.607-.806-1.015.142a.95.95 0 00-.493-.577 1.14 1.14 0 00-.502-.098q-.405 0-.678.179-.27.18-.27.462 0 .243.182.391.182.15.59.247l.857.189q.726.161 1.08.506.354.344.357.897-.003.48-.28.847a1.8 1.8 0 01-.762.573q-.486.21-1.123.21-.915 0-1.478-.385a1.6 1.6 0 01-.685-1.09l1.083-.135a.9.9 0 00.361.557q.273.186.712.186.466 0 .745-.193.28-.195.284-.475a.5.5 0 00-.179-.388q-.173-.156-.54-.237l-.877-.192q-.738-.159-1.09-.523-.35-.368-.347-.924a1.3 1.3 0 01.256-.816q.26-.35.722-.544.466-.195 1.07-.195.873 0 1.376.378.506.374.644 1.008" class="fill-accent"/><path d="M0 111.5h256" class="stroke-divider"/><path d="M13.145 135v-9.455h3.305q.988 0 1.63.342.641.337.956.91.313.567.313 1.26 0 .61-.216 1.006-.213.397-.564.628-.345.231-.752.342v.092q.434.027.872.305.439.276.734.794.296.516.296 1.265 0 .711-.323 1.278-.324.568-1.02.901-.697.332-1.815.332zm1.145-1.016h2.271q1.122 0 1.593-.434a1.39 1.39 0 00.475-1.061q0-.48-.244-.887a1.77 1.77 0 00-.698-.655q-.452-.25-1.07-.25H14.29zm0-4.284h2.123q.517 0 .933-.203.42-.203.665-.572.249-.37.249-.868 0-.624-.434-1.057-.434-.44-1.376-.439h-2.16zm7.162 5.3v-7.091h1.053v1.071h.074q.194-.526.701-.854a2.07 2.07 0 011.145-.328q.12 0 .3.005t.273.014v1.108a3 3 0 00-.254-.042 2.6 2.6 0 00-.411-.032q-.517 0-.923.217-.402.211-.637.591-.231.374-.231.854V135zm7.594.148q-1.024 0-1.768-.453a3.03 3.03 0 01-1.14-1.274q-.397-.822-.397-1.911 0-1.09.397-1.921.402-.836 1.117-1.301.72-.471 1.68-.471.555 0 1.095.184.54.186.983.601.442.41.706 1.089t.263 1.671v.462h-5.465v-.942h4.358q0-.6-.24-1.071a1.8 1.8 0 00-.675-.743 1.9 1.9 0 00-1.024-.273q-.651 0-1.127.324a2.1 2.1 0 00-.725.831q-.254.512-.254 1.098v.628q0 .804.277 1.362.282.554.78.845.5.286 1.16.286.429 0 .775-.12a1.7 1.7 0 00.605-.369q.254-.25.392-.619l1.053.296q-.166.535-.559.941a2.7 2.7 0 01-.97.628 3.6 3.6 0 01-1.297.222m6.68.018a2.9 2.9 0 01-1.223-.254 2.1 2.1 0 01-.873-.743q-.323-.489-.323-1.182 0-.609.24-.988a1.7 1.7 0 01.642-.6q.402-.217.886-.323.49-.11.984-.175.646-.084 1.048-.125.406-.047.59-.152.19-.106.19-.37v-.037q0-.683-.374-1.061-.369-.38-1.122-.379-.78 0-1.223.342-.444.34-.623.729l-1.035-.369q.277-.647.74-1.007a2.8 2.8 0 011.015-.508q.554-.147 1.09-.147.341 0 .784.083.448.078.863.328.42.25.697.752.277.504.277 1.348V135h-1.09v-.96h-.055a2 2 0 01-.369.494 2.2 2.2 0 01-.688.448q-.429.184-1.048.184m.167-.978q.645 0 1.09-.254a1.73 1.73 0 00.904-1.501v-.997q-.07.083-.305.152a5 5 0 01-.535.116 25 25 0 01-1.044.138 4 4 0 00-.794.18 1.4 1.4 0 00-.59.365q-.222.24-.222.656 0 .567.42.858.425.287 1.076.287m6.088-1.773-.019-1.348h.222l3.102-3.158h1.348l-3.305 3.342h-.093zM40.965 135v-9.455h1.09V135zm4.506 0-2.77-3.509.775-.757 3.38 4.266zm5.723-7.091v.923H47.37v-.923zM48.516 135v-8.07q0-.609.287-1.015.285-.406.743-.61.456-.203.965-.203.401 0 .655.065.255.064.379.12l-.314.942a5 5 0 00-.231-.07 1.4 1.4 0 00-.379-.041q-.54 0-.78.272-.235.273-.235.799V135zm6.088.166a2.9 2.9 0 01-1.223-.254 2.1 2.1 0 01-.873-.743q-.323-.489-.323-1.182 0-.609.24-.988.24-.383.642-.6t.886-.323q.49-.11.984-.175.645-.084 1.048-.125.405-.047.59-.152.19-.106.19-.37v-.037q0-.683-.374-1.061-.369-.38-1.122-.379-.78 0-1.223.342-.444.34-.623.729l-1.035-.369q.277-.647.739-1.007a2.8 2.8 0 011.016-.508q.553-.147 1.09-.147.341 0 .784.083.447.078.863.328.42.25.697.752.277.504.277 1.348V135h-1.09v-.96h-.055a2 2 0 01-.369.494 2.2 2.2 0 01-.688.448q-.429.184-1.048.184m.166-.978q.646 0 1.09-.254a1.73 1.73 0 00.905-1.501v-.997q-.07.083-.305.152a5 5 0 01-.535.116 25 25 0 01-1.044.138 4 4 0 00-.794.18 1.4 1.4 0 00-.59.365q-.222.24-.222.656 0 .567.42.858.425.287 1.075.287m10.096-4.691-.98.277a1.8 1.8 0 00-.272-.475 1.3 1.3 0 00-.48-.388q-.305-.152-.78-.152-.65 0-1.085.3-.429.295-.429.752 0 .406.295.642t.924.392l1.052.259q.951.23 1.418.706.466.471.466 1.214 0 .61-.351 1.09-.346.48-.97.757-.623.276-1.449.277-1.085 0-1.796-.471t-.9-1.376l1.034-.258q.147.572.559.858.415.287 1.084.287.762 0 1.21-.324.453-.327.452-.784a.82.82 0 00-.258-.619q-.258-.254-.794-.379l-1.182-.277q-.974-.23-1.431-.715-.453-.489-.453-1.224 0-.6.337-1.061a2.3 2.3 0 01.928-.725 3.25 3.25 0 011.34-.263q1.051 0 1.652.461.605.462.859 1.219m4.853-1.588v.923h-3.675v-.923zm-2.604-1.699h1.09v6.759q0 .462.133.692.14.227.351.305.217.074.457.074.18 0 .296-.019l.184-.037.222.979a2 2 0 01-.31.083q-.198.046-.503.046-.461 0-.904-.198a1.8 1.8 0 01-.73-.605q-.286-.406-.286-1.025zm7.899 8.79v-7.091h1.09V135zm.554-8.273a.77.77 0 01-.55-.217.7.7 0 01-.226-.521q0-.304.226-.522a.77.77 0 01.55-.217q.319 0 .544.217.231.218.231.522a.69.69 0 01-.23.521.76.76 0 01-.545.217m3.62 4.007V135h-1.09v-7.091h1.053v1.108h.093q.249-.54.757-.868.507-.332 1.31-.332.72 0 1.261.295.54.291.84.887.3.59.3 1.495V135h-1.09v-4.432q0-.835-.433-1.302-.434-.471-1.191-.471a1.9 1.9 0 00-.933.227q-.405.226-.641.66t-.236 1.052M89.508 135v-9.455h3.305q.987 0 1.63.342.641.337.955.91.314.567.314 1.26 0 .61-.217 1.006-.213.397-.563.628-.347.231-.753.342v.092q.434.027.873.305.438.276.734.794.295.516.295 1.265 0 .711-.323 1.278t-1.02.901q-.698.332-1.815.332zm1.144-1.016h2.271q1.123 0 1.593-.434a1.39 1.39 0 00.476-1.061q0-.48-.245-.887a1.77 1.77 0 00-.697-.655q-.453-.25-1.071-.25h-2.327zm0-4.284h2.124q.516 0 .932-.203.42-.203.665-.572.25-.37.25-.868 0-.624-.435-1.057-.434-.44-1.375-.439h-2.16zm10.136 5.448q-1.025 0-1.769-.453a3.03 3.03 0 01-1.14-1.274q-.397-.822-.397-1.911 0-1.09.397-1.921.402-.836 1.117-1.301.72-.471 1.681-.471.554 0 1.094.184.54.186.983.601.444.41.706 1.089.264.679.264 1.671v.462h-5.466v-.942h4.358q0-.6-.24-1.071a1.8 1.8 0 00-.674-.743 1.9 1.9 0 00-1.025-.273q-.651 0-1.127.324a2.1 2.1 0 00-.724.831q-.255.512-.254 1.098v.628q0 .804.277 1.362.28.554.78.845.498.286 1.159.286.429 0 .775-.12.351-.124.605-.369.254-.25.392-.619l1.053.296a2.3 2.3 0 01-.559.941 2.7 2.7 0 01-.969.628 3.6 3.6 0 01-1.297.222m7.271 0q-.887 0-1.565-.448-.68-.452-1.062-1.274-.383-.827-.383-1.953 0-1.117.383-1.939t1.066-1.269q.684-.448 1.579-.448.692 0 1.094.231.406.226.619.517.216.285.337.471h.092v-3.491h1.09V135h-1.053v-1.089h-.129q-.12.194-.342.489a2 2 0 01-.632.522q-.411.225-1.094.226m.147-.979q.656 0 1.108-.342.453-.345.688-.955.235-.615.235-1.417 0-.795-.23-1.39-.231-.6-.684-.933-.452-.337-1.117-.337-.692 0-1.154.356a2.1 2.1 0 00-.688.956q-.226.6-.226 1.348 0 .756.231 1.375.236.615.692.979.462.36 1.145.36" class="fill-primary"/><path d="M178 123.5a1.5 1.5 0 011.5-1.5h63a1.5 1.5 0 011.5 1.5v13a1.5 1.5 0 01-1.5 1.5h-63a1.5 1.5 0 01-1.5-1.5z" class="fill-tone"/><path d="M183.239 133v-6.909h4.143v.742h-3.306v2.335h2.996v.742h-2.996V133zm7.193.108q-.702 0-1.232-.334a2.27 2.27 0 01-.823-.935q-.293-.6-.293-1.403 0-.81.293-1.413.297-.605.823-.938.53-.334 1.232-.334t1.228.334q.53.333.823.938.297.603.297 1.413 0 .803-.297 1.403a2.24 2.24 0 01-.823.935q-.526.334-1.228.334m0-.715q.532 0 .877-.274.344-.273.509-.718.166-.446.166-.965 0-.52-.166-.968a1.63 1.63 0 00-.509-.725q-.345-.277-.877-.277-.534 0-.877.277-.345.276-.51.725t-.165.968.165.965.51.718q.343.274.877.274m5.668.715q-.702 0-1.231-.334a2.27 2.27 0 01-.823-.935q-.294-.6-.294-1.403 0-.81.294-1.413.297-.605.823-.938.53-.334 1.231-.334t1.228.334q.53.333.823.938.297.603.297 1.413 0 .803-.297 1.403-.293.601-.823.935-.526.334-1.228.334m0-.715q.534 0 .877-.274.345-.273.51-.718.165-.446.165-.965 0-.52-.165-.968a1.6 1.6 0 00-.51-.725q-.343-.277-.877-.277-.533 0-.877.277a1.63 1.63 0 00-.509.725 2.8 2.8 0 00-.166.968q0 .52.166.965.165.445.509.718.344.274.877.274m5.52.715q-.648 0-1.143-.327a2.2 2.2 0 01-.776-.931q-.28-.605-.28-1.427 0-.817.28-1.417t.779-.928a2.06 2.06 0 011.154-.327q.506 0 .799.168.297.167.452.378.159.21.247.344h.067v-2.55h.796V133h-.769v-.796h-.094a6 6 0 01-.25.357 1.5 1.5 0 01-.462.382q-.3.165-.8.165m.108-.715q.48 0 .81-.25a1.56 1.56 0 00.502-.698q.173-.449.173-1.036 0-.58-.169-1.015a1.5 1.5 0 00-.499-.682q-.331-.246-.817-.246-.505 0-.843.26-.334.256-.503.698a2.8 2.8 0 00-.165.985q0 .553.168 1.005.173.45.506.716.338.263.837.263m8.464.701q-.68 0-1.174-.249a1.85 1.85 0 01-.759-.685 1.87 1.87 0 01-.266-.995q0-.432.182-.766.186-.337.509-.624a7 7 0 01.753-.58l.998-.743q.294-.192.469-.411.179-.22.179-.574 0-.263-.233-.509a.79.79 0 00-.604-.246.8.8 0 00-.465.135.96.96 0 00-.314.337.86.86 0 00-.111.418q0 .243.131.493.135.246.341.506l.432.526 3.171 3.873h-.958l-2.618-3.158-.661-.796a3.8 3.8 0 01-.472-.705 1.65 1.65 0 01-.176-.752q0-.466.206-.817.209-.354.584-.55.377-.199.883-.199.52 0 .894.203.375.199.577.53.203.327.203.711 0 .497-.247.861a2.8 2.8 0 01-.671.678l-1.376 1.025q-.466.344-.631.668t-.165.466q0 .324.168.604.169.28.476.452t.718.172q.391 0 .763-.166a2.1 2.1 0 00.671-.485q.304-.318.479-.763.179-.446.179-1.002h.769q0 .689-.158 1.124-.159.435-.358.681a5 5 0 01-.32.368 2 2 0 00-.075.101 1 1 0 01-.074.101q-.334.375-.843.56-.51.183-1.006.182m9.032-.094h-2.132v-6.909h2.227q1.005 0 1.72.415.716.411 1.097 1.184.381.77.381 1.842 0 1.08-.385 1.859a2.74 2.74 0 01-1.12 1.194q-.735.415-1.788.415m-1.295-.742h1.241q.858 0 1.421-.331.563-.33.84-.941.276-.61.276-1.454 0-.837-.273-1.441a2 2 0 00-.816-.931q-.543-.327-1.353-.327h-1.336zm5.883.742v-5.182h.77v.783h.054q.141-.385.512-.624.372-.24.837-.24a6 6 0 01.418.014v.809a3 3 0 00-.485-.054q-.378 0-.675.159a1.2 1.2 0 00-.466.432q-.168.273-.168.624V133zm3.535 0v-5.182h.796V133zm.405-6.045a.57.57 0 01-.402-.159.5.5 0 01-.165-.381q0-.224.165-.381a.57.57 0 01.402-.159q.233 0 .398.159a.5.5 0 01.169.381.5.5 0 01-.169.381.55.55 0 01-.398.159m2.646 2.928V133h-.797v-5.182h.77v.81h.067q.183-.395.553-.634.371-.243.959-.243.525 0 .92.216.395.212.614.647.22.432.22 1.093V133h-.796v-3.239q0-.61-.318-.951-.317-.344-.87-.344a1.4 1.4 0 00-.681.165q-.298.165-.469.483a1.6 1.6 0 00-.172.769m5.503 1.228-.014-.985h.162l2.267-2.308h.985l-2.415 2.443h-.068zm-.742 1.889v-6.909h.796V133zm3.292 0-2.024-2.564.567-.553 2.469 3.117z" class="fill-primary"/><path d="m13.297 146 2.375 6.734h.094L18.14 146h1.015l-2.937 8h-1l-2.938-8zm8.187 8.141q-.57 0-1.035-.215a1.8 1.8 0 01-.738-.629q-.273-.415-.273-1 0-.516.203-.836a1.44 1.44 0 01.543-.508q.339-.183.75-.273.414-.094.832-.149.547-.07.886-.105.345-.039.5-.129.16-.09.16-.313v-.031q0-.578-.316-.898-.312-.321-.95-.321-.66 0-1.034.289-.375.29-.528.618l-.875-.313q.235-.546.625-.851.395-.309.86-.43.469-.125.922-.125.289 0 .664.07.378.066.73.278.356.21.59.636t.234 1.141V154h-.922v-.813h-.046q-.094.196-.313.418a1.8 1.8 0 01-.582.379q-.363.157-.887.157m.141-.829q.547 0 .922-.214a1.47 1.47 0 00.765-1.27v-.844q-.059.07-.257.129-.196.055-.453.098a22 22 0 01-.883.117q-.36.047-.672.152a1.16 1.16 0 00-.5.309q-.188.202-.188.555 0 .48.356.726.36.243.91.242m5.214-2.921V154h-.922v-6h.89v.937h.079q.21-.456.64-.734.43-.28 1.11-.281.61 0 1.066.25.457.246.711.75.255.5.254 1.266V154h-.922v-3.75q0-.707-.367-1.102-.367-.398-1.008-.398-.441 0-.789.191-.344.192-.543.559t-.2.891M32.352 154v-6h.921v6zm.468-7a.65.65 0 01-.465-.184.59.59 0 01-.19-.441q0-.258.19-.441a.65.65 0 01.465-.184.64.64 0 01.461.184q.195.183.196.441a.58.58 0 01-.196.441.64.64 0 01-.46.184m3.064-1v8h-.922v-8zm2.61 0v8h-.922v-8zm3.454 8.141q-.57 0-1.035-.215a1.8 1.8 0 01-.738-.629q-.274-.415-.274-1 0-.516.203-.836a1.44 1.44 0 01.544-.508 2.9 2.9 0 01.75-.273 9 9 0 01.831-.149q.547-.07.887-.105.344-.039.5-.129.16-.09.16-.313v-.031q0-.578-.316-.898-.312-.321-.95-.321-.66 0-1.034.289-.375.29-.528.618l-.875-.313q.235-.546.625-.851.395-.309.86-.43.468-.125.922-.125.288 0 .664.07.379.066.73.278.356.21.59.636t.234 1.141V154h-.922v-.813h-.047q-.093.196-.312.418-.219.223-.582.379-.363.157-.887.157m.14-.829q.548 0 .923-.214a1.47 1.47 0 00.765-1.27v-.844q-.059.07-.257.129a4 4 0 01-.454.098 22 22 0 01-.882.117q-.36.047-.672.152a1.16 1.16 0 00-.5.309q-.188.202-.188.555 0 .48.356.726.36.243.91.242m7.387.688v-6h.89v.937h.078q.188-.48.606-.746.418-.269 1.004-.269.594 0 .988.269.399.266.621.746h.063q.23-.464.691-.738.46-.277 1.106-.277.804 0 1.316.504.512.5.512 1.558V154h-.922v-4.016q0-.663-.363-.949a1.35 1.35 0 00-.856-.285q-.633 0-.98.383-.348.379-.348.961V154h-.938v-4.109q0-.512-.332-.825-.331-.316-.855-.316-.36 0-.672.191a1.45 1.45 0 00-.5.532 1.57 1.57 0 00-.187.777V154zm11.326.141q-.57 0-1.035-.215a1.8 1.8 0 01-.739-.629q-.273-.415-.273-1 0-.516.203-.836a1.44 1.44 0 01.543-.508q.34-.183.75-.273.414-.094.832-.149.547-.07.887-.105.344-.039.5-.129.16-.09.16-.313v-.031q0-.578-.316-.898-.313-.321-.95-.321-.66 0-1.035.289-.375.29-.527.618l-.875-.313q.234-.546.625-.851.395-.309.86-.43.468-.125.921-.125.29 0 .664.07.38.066.73.278.357.21.59.636.235.426.235 1.141V154h-.922v-.813h-.047q-.094.196-.312.418a1.8 1.8 0 01-.583.379q-.363.157-.886.157m.14-.829q.547 0 .922-.214a1.47 1.47 0 00.766-1.27v-.844q-.06.07-.258.129-.195.055-.453.098a22 22 0 01-.883.117q-.36.047-.672.152a1.16 1.16 0 00-.5.309q-.187.202-.187.555 0 .48.355.726.36.243.91.242M67.843 148v.781h-3.11V148zm-2.203-1.438h.921v5.719q0 .391.114.586a.6.6 0 00.297.258q.183.063.386.062a2 2 0 00.25-.015l.157-.031.187.828q-.094.035-.262.07a2 2 0 01-.425.039q-.39 0-.766-.168a1.5 1.5 0 01-.617-.512q-.243-.344-.242-.867zm5.963 7.563q-.844 0-1.454-.398a2.6 2.6 0 01-.937-1.098q-.328-.7-.328-1.598 0-.914.336-1.613.339-.703.945-1.098.609-.398 1.422-.398.633 0 1.14.234.509.234.833.656t.402.985h-.922a1.43 1.43 0 00-.469-.727q-.36-.32-.968-.32-.54 0-.946.281a1.84 1.84 0 00-.629.785q-.222.504-.222 1.184 0 .695.218 1.211.223.516.625.801.407.285.954.285.36 0 .652-.125a1.34 1.34 0 00.785-.922h.922a2.14 2.14 0 01-.387.957 2.2 2.2 0 01-.808.672q-.501.246-1.164.246m4.628-3.734V154h-.921v-8h.921v2.937h.079q.21-.464.632-.738.426-.277 1.133-.277.614 0 1.074.246.462.242.715.746.258.5.258 1.274V154H79.2v-3.75q0-.715-.37-1.105-.368-.395-1.02-.395-.454 0-.813.191a1.4 1.4 0 00-.562.559q-.204.368-.204.891m7.343 3.75q-.57 0-1.035-.215a1.8 1.8 0 01-.738-.629q-.274-.415-.274-1 0-.516.204-.836a1.44 1.44 0 01.542-.508q.34-.183.75-.273.414-.094.833-.149.547-.07.886-.105.345-.039.5-.129.16-.09.16-.313v-.031q0-.578-.316-.898-.312-.321-.95-.321-.66 0-1.034.289-.375.29-.528.618l-.875-.313q.235-.546.625-.851.395-.309.86-.43.469-.125.922-.125.288 0 .663.07.38.066.731.278.356.21.59.636t.234 1.141V154h-.922v-.813h-.046q-.094.196-.313.418-.219.223-.582.379-.363.157-.887.157m.14-.829q.548 0 .923-.214a1.47 1.47 0 00.765-1.27v-.844q-.059.07-.258.129-.194.055-.453.098a22 22 0 01-.882.117q-.36.047-.672.152a1.16 1.16 0 00-.5.309q-.188.202-.188.555 0 .48.356.726.36.243.91.242M92.023 146v8h-.921v-8zm3.455 8.141q-.57 0-1.036-.215a1.8 1.8 0 01-.738-.629q-.273-.415-.273-1 0-.516.203-.836a1.44 1.44 0 01.543-.508 2.9 2.9 0 01.75-.273q.414-.094.832-.149.547-.07.886-.105.344-.039.5-.129.16-.09.16-.313v-.031q0-.578-.316-.898-.313-.321-.949-.321-.66 0-1.035.289-.375.29-.527.618l-.875-.313q.234-.546.625-.851.394-.309.859-.43.469-.125.922-.125.29 0 .664.07.378.066.73.278.356.21.59.636.235.426.235 1.141V154h-.922v-.813h-.047q-.094.196-.313.418a1.8 1.8 0 01-.582.379q-.363.157-.886.157m.14-.829q.547 0 .922-.214a1.47 1.47 0 00.766-1.27v-.844q-.06.07-.258.129-.195.055-.453.098a22 22 0 01-.883.117q-.36.047-.672.152a1.16 1.16 0 00-.5.309q-.187.202-.187.555 0 .48.355.726.36.243.91.242M102.52 148v.781h-3.11V148zm-2.204-1.438h.922v5.719q0 .391.114.586a.6.6 0 00.296.258q.185.063.387.062.153 0 .25-.015l.156-.031.188.828q-.094.035-.262.07a2 2 0 01-.426.039q-.39 0-.765-.168a1.5 1.5 0 01-.617-.512q-.243-.344-.243-.867zm6.2 1.438v.781h-3.11V148zm-2.203-1.438h.921v5.719q0 .391.114.586a.58.58 0 00.297.258q.183.063.386.062.153 0 .25-.015l.157-.031.187.828q-.094.035-.262.07a2 2 0 01-.425.039q-.391 0-.766-.168a1.5 1.5 0 01-.617-.512q-.243-.344-.242-.867zm6.041 7.563q-.868 0-1.497-.383a2.57 2.57 0 01-.964-1.078q-.336-.695-.336-1.617t.336-1.625q.339-.707.945-1.102.609-.398 1.422-.398.468 0 .926.156.456.157.832.508.375.348.597.922.223.574.223 1.414v.39h-4.625v-.796h3.687q0-.508-.203-.907a1.54 1.54 0 00-.57-.629 1.6 1.6 0 00-.867-.23q-.55 0-.953.273-.398.27-.614.704a2.1 2.1 0 00-.214.929v.532q0 .68.234 1.152.239.468.66.715.421.242.981.242.362 0 .656-.102.296-.105.512-.312.214-.211.332-.524l.89.25a2 2 0 01-.472.797 2.3 2.3 0 01-.821.531 3 3 0 01-1.097.188m8.136-4.781-.828.234a1.6 1.6 0 00-.23-.402 1.1 1.1 0 00-.407-.328q-.257-.129-.66-.129-.55 0-.918.254-.363.25-.363.636 0 .345.25.543.25.2.781.332l.891.219q.804.196 1.199.598.395.398.395 1.027 0 .516-.297.922a2 2 0 01-.821.641q-.527.234-1.226.234-.918 0-1.52-.398-.602-.399-.761-1.165l.875-.218q.125.484.472.726.353.243.918.242.645 0 1.024-.273.383-.277.383-.664a.7.7 0 00-.219-.523q-.219-.215-.672-.321l-1-.234q-.825-.195-1.211-.606-.383-.414-.383-1.035 0-.507.285-.898.29-.391.785-.613a2.75 2.75 0 011.133-.223q.89 0 1.399.39.511.391.726 1.032m5.95 4.656-1.828-6h.969l1.297 4.594h.062l1.282-4.594h.984l1.266 4.578h.062L129.83 148h.969l-1.828 6h-.907l-1.312-4.609h-.094L125.346 154zm7.579 0v-6h.921v6zm.468-7a.66.66 0 01-.465-.184.6.6 0 01-.191-.441.6.6 0 01.191-.441.66.66 0 01.465-.184q.27 0 .461.184.195.183.196.441a.58.58 0 01-.196.441.64.64 0 01-.461.184m4.751 1v.781h-3.109V148zm-2.203-1.438h.922v5.719q0 .391.113.586a.58.58 0 00.297.258q.184.063.387.062.152 0 .25-.015l.156-.031.188.828q-.094.035-.262.07a2 2 0 01-.426.039q-.39 0-.765-.168a1.5 1.5 0 01-.618-.512q-.242-.344-.242-.867zm4.641 3.829V154h-.922v-8h.922v2.937h.078q.21-.464.633-.738.425-.277 1.133-.277.612 0 1.074.246.46.242.715.746.257.5.257 1.274V154h-.921v-3.75q0-.715-.372-1.105-.366-.395-1.019-.395-.453 0-.813.191a1.4 1.4 0 00-.562.559q-.203.368-.203.891m10.436 3.75q-.57 0-1.035-.215a1.8 1.8 0 01-.738-.629q-.273-.415-.274-1 0-.516.204-.836.202-.324.543-.508.339-.183.75-.273.414-.094.832-.149.547-.07.886-.105.344-.039.5-.129.16-.09.16-.313v-.031q0-.578-.316-.898-.312-.321-.949-.321-.66 0-1.035.289-.375.29-.528.618l-.875-.313q.235-.546.625-.851.395-.309.86-.43.468-.125.922-.125.288 0 .664.07.379.066.73.278.356.21.59.636t.234 1.141V154h-.922v-.813h-.046q-.094.196-.313.418-.219.223-.582.379-.363.157-.887.157m.141-.829q.547 0 .922-.214a1.47 1.47 0 00.765-1.27v-.844q-.059.07-.257.129a4 4 0 01-.453.098 22 22 0 01-.883.117q-.36.047-.672.152a1.16 1.16 0 00-.5.309q-.188.202-.188.555 0 .48.356.726.359.243.91.242m5.214-7.312v8h-.922v-8zm1.688 8v-6h.891v.937h.078q.188-.48.606-.746.418-.269 1.003-.269.594 0 .989.269.398.266.621.746h.062q.23-.464.692-.738.46-.277 1.105-.277.805 0 1.317.504.511.5.511 1.558V154h-.922v-4.016q0-.663-.363-.949a1.34 1.34 0 00-.855-.285q-.633 0-.981.383-.347.379-.347.961V154h-.938v-4.109q0-.512-.332-.825-.332-.316-.855-.316-.36 0-.672.191a1.44 1.44 0 00-.5.532 1.57 1.57 0 00-.188.777V154zm11.998.125q-.812 0-1.425-.387a2.63 2.63 0 01-.954-1.082q-.339-.695-.339-1.625 0-.937.339-1.636.344-.7.954-1.086.613-.387 1.425-.387t1.422.387q.614.386.953 1.086.344.699.344 1.636 0 .93-.344 1.625a2.6 2.6 0 01-.953 1.082q-.609.387-1.422.387m0-.828q.618 0 1.016-.317a1.86 1.86 0 00.59-.832q.19-.515.191-1.117 0-.601-.191-1.121a1.9 1.9 0 00-.59-.84q-.399-.32-1.016-.32t-1.015.32a1.9 1.9 0 00-.59.84q-.192.52-.192 1.121 0 .602.192 1.117.19.517.59.832.398.317 1.015.317m5.048-2.906V154h-.922v-6h.891v.937h.078q.211-.456.641-.734.43-.28 1.109-.281.61 0 1.066.25.458.246.711.75.254.5.254 1.266V154h-.922v-3.75q0-.707-.367-1.102-.367-.398-1.008-.398-.441 0-.789.191-.344.192-.543.559t-.199.891m7.779 3.734q-.75 0-1.325-.379a2.55 2.55 0 01-.898-1.078q-.324-.7-.324-1.652 0-.946.324-1.641t.902-1.074a2.4 2.4 0 011.336-.379q.586 0 .926.195.344.192.523.438.184.242.286.398h.078V146h.922v8h-.891v-.922h-.109a6 6 0 01-.29.414 1.7 1.7 0 01-.535.442q-.347.19-.925.191m.125-.828q.554 0 .937-.289.382-.294.582-.809a3.3 3.3 0 00.199-1.199q0-.672-.195-1.176a1.7 1.7 0 00-.578-.789q-.382-.285-.945-.285-.587 0-.977.301a1.8 1.8 0 00-.582.808 3.2 3.2 0 00-.191 1.141q0 .64.195 1.164.2.519.586.828.39.305.969.305m7.535.703v-6h.89v.937h.078q.188-.48.606-.746.418-.269 1.004-.269.594 0 .988.269.399.266.621.746h.063q.23-.464.691-.738.46-.277 1.106-.277.804 0 1.316.504.512.5.512 1.558V154h-.922v-4.016q0-.663-.363-.949a1.35 1.35 0 00-.856-.285q-.633 0-.98.383-.348.379-.348.961V154h-.938v-4.109q0-.512-.332-.825-.331-.316-.855-.316-.36 0-.672.191a1.45 1.45 0 00-.5.532 1.57 1.57 0 00-.187.777V154zm9.56 0v-6h.922v6zm.469-7a.65.65 0 01-.465-.184.6.6 0 01-.191-.441.6.6 0 01.191-.441.65.65 0 01.465-.184.64.64 0 01.461.184q.195.183.195.441a.58.58 0 01-.195.441.64.64 0 01-.461.184m3.063-1v8h-.921v-8zm2.548 5.812-.015-1.14h.187l2.625-2.672h1.141l-2.797 2.828h-.078zM204.42 154v-8h.922v8zm3.812 0-2.343-2.969.656-.64 2.859 3.609zm3.499-1.094-.062.422a9 9 0 01-.203.953q-.133.508-.278.957-.144.45-.238.715h-.703l.133-.66a25 25 0 00.305-1.949l.046-.438zm7.061 1.219q-.75 0-1.324-.379a2.55 2.55 0 01-.899-1.078q-.324-.7-.324-1.652 0-.946.324-1.641a2.5 2.5 0 01.903-1.074q.577-.38 1.336-.379.585 0 .925.195.345.192.524.438.183.242.285.398h.078V146h.922v8h-.891v-.922h-.109a6 6 0 01-.289.414 1.7 1.7 0 01-.535.442q-.348.19-.926.191m.125-.828q.555 0 .937-.289.384-.294.583-.809.199-.52.199-1.199 0-.672-.196-1.176a1.7 1.7 0 00-.578-.789q-.382-.285-.945-.285-.586 0-.977.301a1.8 1.8 0 00-.582.808 3.2 3.2 0 00-.191 1.141q0 .64.195 1.164.2.519.586.828.391.305.969.305m6.957.828q-.867 0-1.496-.383a2.57 2.57 0 01-.965-1.078q-.336-.695-.336-1.617t.336-1.625a2.66 2.66 0 01.945-1.102q.61-.398 1.422-.398.469 0 .926.156.457.157.832.508.375.348.598.922t.222 1.414v.39h-4.625v-.796h3.688q0-.508-.203-.907a1.54 1.54 0 00-.571-.629 1.6 1.6 0 00-.867-.23q-.55 0-.953.273a1.8 1.8 0 00-.613.704 2.1 2.1 0 00-.215.929v.532q0 .68.234 1.152.238.468.661.715.422.242.98.242.363 0 .656-.102.297-.105.512-.312.215-.211.332-.524l.891.25a2 2 0 01-.473.797 2.3 2.3 0 01-.82.531 3 3 0 01-1.098.188m4.809-8.125v8h-.922v-8zm2.36 8.063a.68.68 0 01-.496-.208.68.68 0 01-.207-.496q0-.289.207-.496a.68.68 0 01.496-.207q.29 0 .496.207a.68.68 0 01.207.496.66.66 0 01-.098.352.68.68 0 01-.605.352m3 0a.68.68 0 01-.496-.208.68.68 0 01-.207-.496q0-.289.207-.496a.68.68 0 01.496-.207q.29 0 .496.207a.68.68 0 01.207.496.66.66 0 01-.098.352.68.68 0 01-.605.352m3 0a.68.68 0 01-.496-.208.68.68 0 01-.207-.496q0-.289.207-.496a.68.68 0 01.496-.207q.29 0 .496.207a.68.68 0 01.207.496.66.66 0 01-.098.352.68.68 0 01-.605.352" class="fill-secondary"/><path fill-rule="evenodd" d="M16 169.334a1 1 0 112 0 1 1 0 01-2 0m1.334 1.633a1.667 1.667 0 10-.667 0V176a.334.334 0 00.666 0z" clip-rule="evenodd" class="fill-symbol"/><path d="M26.719 175v-6.909h1.15v2.962h3.323v-2.962h1.147V175h-1.147v-2.972h-3.323V175zm9.215.105q-.745 0-1.295-.334a2.3 2.3 0 01-.854-.938q-.3-.601-.3-1.4 0-.807.3-1.41.304-.605.854-.938.55-.334 1.295-.334.746 0 1.296.334.55.333.85.938.303.603.304 1.41 0 .799-.304 1.4-.3.6-.85.938-.55.334-1.296.334m.004-.915q.445 0 .735-.239.294-.24.439-.638a2.6 2.6 0 00.145-.884q0-.486-.145-.887a1.43 1.43 0 00-.439-.644q-.29-.243-.735-.243-.45 0-.742.243a1.43 1.43 0 00-.439.644 2.6 2.6 0 00-.145.887q0 .483.145.884.145.399.439.638.293.239.742.239m3.525.81v-5.182h1.07v.864h.064q.161-.44.53-.685.37-.246.886-.246.525 0 .881.249.36.247.52.682h.054q.178-.426.583-.678.408-.253.972-.253.708 0 1.157.448.449.446.449 1.326V175h-1.117v-3.333q0-.506-.27-.736a.98.98 0 00-.654-.229q-.47 0-.733.29-.26.287-.26.739V175h-1.099v-3.39q0-.412-.253-.658a.9.9 0 00-.654-.25.94.94 0 00-.507.142 1.04 1.04 0 00-.367.394q-.135.254-.135.587V175zm10.728.105q-.773 0-1.333-.328a2.2 2.2 0 01-.86-.927q-.3-.602-.3-1.407 0-.8.3-1.407a2.3 2.3 0 01.847-.945q.543-.34 1.275-.34.462 0 .88.148.42.148.746.466.327.314.517.809.192.496.192 1.188v.364h-4.187v-.789h3.104q0-.372-.155-.661a1.17 1.17 0 00-1.083-.631q-.402 0-.702.192a1.33 1.33 0 00-.462.506 1.5 1.5 0 00-.165.682v.651q0 .485.175.83.175.343.49.526.312.179.731.179.28 0 .506-.078.225-.081.388-.236.166-.159.253-.391l1.05.151q-.112.435-.412.763a2 2 0 01-.756.506q-.455.179-1.039.179" class="fill-accent"/><g clip-path="url(#widget-__e)"><path fill-rule="evenodd" d="M70 167.585a4.415 4.415 0 100 8.83 4.415 4.415 0 000-8.83M66.218 172a3.782 3.782 0 117.565 0 3.782 3.782 0 01-7.565 0m4.115-2a.333.333 0 00-.666 0v2c0 .089.035.173.097.236l1.334 1.333a.334.334 0 00.471-.471l-1.236-1.236z" clip-rule="evenodd" class="fill-symbol"/></g><path d="M82.218 175.094a2.8 2.8 0 01-.94-.168 2.2 2.2 0 01-.83-.55q-.372-.381-.591-1.022-.22-.642-.22-1.596 0-.894.186-1.592a3.6 3.6 0 01.533-1.181q.347-.483.837-.736a2.4 2.4 0 011.106-.253q.635 0 1.124.25.492.25.796.685.307.435.381.988h-1.13a1.2 1.2 0 00-.401-.668q-.3-.256-.77-.256-.738 0-1.143.644-.405.642-.412 1.775h.05q.172-.297.436-.506.263-.213.59-.327.328-.115.695-.115.604 0 1.09.293.486.29.772.803.287.51.287 1.168 0 .67-.307 1.211-.306.536-.857.846-.546.311-1.282.307m-.003-.944q.381 0 .681-.186.304-.188.48-.506.175-.316.175-.708 0-.388-.172-.699a1.265 1.265 0 00-1.147-.684q-.284 0-.53.111a1.38 1.38 0 00-.718.749q-.105.25-.105.533 0 .371.172.688.176.317.476.51.303.192.688.192m6.26.971q-.812 0-1.396-.421-.58-.421-.89-1.221t-.308-1.93q0-1.126.31-1.92.31-.796.891-1.214.584-.419 1.394-.419.813 0 1.393.419.584.418.894 1.214.31.797.31 1.92 0 1.134-.31 1.933t-.89 1.221q-.581.418-1.398.418m0-.975q.675 0 1.063-.661.388-.664.385-1.936 0-.84-.176-1.417-.175-.577-.499-.874a1.1 1.1 0 00-.773-.297q-.668 0-1.055.665-.388.662-.388 1.923-.004.846.172 1.427.175.576.499.874.324.297.772.296m6.252.854v-5.182h1.07v.864h.063q.162-.44.53-.685.37-.246.887-.246.523 0 .88.249.362.247.52.682h.054q.18-.426.584-.678.408-.253.971-.253.709 0 1.158.448.448.446.448 1.326V175h-1.116v-3.333q0-.506-.27-.736a.98.98 0 00-.655-.229q-.468 0-.732.29-.26.287-.26.739V175h-1.1v-3.39q0-.412-.252-.658a.9.9 0 00-.655-.25.94.94 0 00-.506.142 1.04 1.04 0 00-.368.394q-.135.254-.135.587V175zm8.461 0v-5.182h1.116V175zm.563-5.948a.67.67 0 01-.476-.185.6.6 0 01-.195-.449q0-.26.195-.445a.68.68 0 01.476-.186q.277 0 .472.186a.59.59 0 01.199.445.6.6 0 01-.199.449.66.66 0 01-.472.185m2.975 2.892V175h-1.117v-5.182h1.07v.864h.064a1.47 1.47 0 01.566-.678q.389-.253.969-.253.532 0 .931.226.398.226.617.661.223.435.223 1.066V175h-1.117v-3.141q0-.543-.28-.847-.28-.307-.772-.307-.337 0-.598.145a1.03 1.03 0 00-.408.422 1.4 1.4 0 00-.148.672m8.607-.807-1.015.142a.94.94 0 00-.493-.577 1.15 1.15 0 00-.502-.098q-.405 0-.678.179-.27.178-.27.462 0 .243.182.392.182.148.59.246l.857.189q.726.162 1.08.506t.357.897q-.003.48-.28.847a1.8 1.8 0 01-.762.573q-.486.21-1.123.21-.915 0-1.478-.385a1.6 1.6 0 01-.685-1.09l1.083-.135a.9.9 0 00.361.557q.273.186.712.186.466 0 .745-.193.28-.195.284-.475a.5.5 0 00-.179-.388q-.173-.156-.54-.237l-.877-.192q-.738-.159-1.09-.523-.35-.368-.347-.924a1.3 1.3 0 01.256-.816q.26-.35.722-.544.466-.195 1.07-.195.873 0 1.376.378.506.374.644 1.008" class="fill-accent"/><path d="M0 185.5h256" class="stroke-divider"/><path d="M13.145 209v-9.455h3.305q.988 0 1.63.342.641.337.956.91.313.567.313 1.26 0 .61-.216 1.006-.213.397-.564.628-.345.231-.752.342v.092q.434.027.872.305.439.276.734.794.296.516.296 1.265 0 .711-.323 1.278-.324.568-1.02.901-.697.332-1.815.332zm1.145-1.016h2.271q1.122 0 1.593-.434a1.39 1.39 0 00.475-1.061q0-.48-.244-.887a1.77 1.77 0 00-.698-.655q-.452-.25-1.07-.25H14.29zm0-4.284h2.123q.517 0 .933-.203.42-.203.665-.572.249-.37.249-.868 0-.624-.434-1.057-.434-.44-1.376-.439h-2.16zm7.162 5.3v-7.091h1.053v1.071h.074q.194-.526.701-.854a2.07 2.07 0 011.145-.328q.12 0 .3.005t.273.014v1.108a3 3 0 00-.254-.042 2.6 2.6 0 00-.411-.032q-.517 0-.923.217-.402.212-.637.591-.231.374-.231.854V209zm7.594.148q-1.024 0-1.768-.453a3.03 3.03 0 01-1.14-1.274q-.397-.822-.397-1.911 0-1.09.397-1.921.402-.836 1.117-1.301.72-.471 1.68-.471.555 0 1.095.184.54.186.983.601.442.41.706 1.089t.263 1.671v.462h-5.465v-.942h4.358q0-.6-.24-1.071a1.8 1.8 0 00-.675-.743 1.9 1.9 0 00-1.024-.273q-.651 0-1.127.324a2.1 2.1 0 00-.725.831q-.254.512-.254 1.098v.628q0 .804.277 1.362.282.554.78.845.5.286 1.16.286.429 0 .775-.12a1.7 1.7 0 00.605-.369q.254-.25.392-.619l1.053.296q-.166.535-.559.941a2.7 2.7 0 01-.97.628 3.6 3.6 0 01-1.297.222m6.68.018a2.9 2.9 0 01-1.223-.254 2.1 2.1 0 01-.873-.743q-.323-.489-.323-1.182 0-.609.24-.988a1.7 1.7 0 01.642-.6q.402-.217.886-.323.49-.11.984-.175.646-.084 1.048-.125.406-.047.59-.152.19-.106.19-.37v-.037q0-.683-.374-1.061-.369-.38-1.122-.379-.78 0-1.223.342-.444.34-.623.729l-1.035-.369q.277-.647.74-1.007a2.8 2.8 0 011.015-.508q.554-.147 1.09-.147.341 0 .784.083.448.078.863.328.42.25.697.752.277.504.277 1.348V209h-1.09v-.96h-.055a2 2 0 01-.369.494 2.2 2.2 0 01-.688.448q-.429.184-1.048.184m.167-.978q.645 0 1.09-.254a1.73 1.73 0 00.904-1.501v-.997q-.07.083-.305.152a5 5 0 01-.535.116 25 25 0 01-1.044.138 4 4 0 00-.794.18 1.4 1.4 0 00-.59.365q-.222.24-.222.656 0 .567.42.858.425.287 1.076.287m6.088-1.773-.019-1.348h.222l3.102-3.158h1.348l-3.305 3.342h-.093zM40.965 209v-9.455h1.09V209zm4.506 0-2.77-3.509.775-.757 3.38 4.266zm5.723-7.091v.923H47.37v-.923zM48.516 209v-8.07q0-.609.287-1.015.285-.406.743-.61.456-.203.965-.203.401 0 .655.065.255.064.379.12l-.314.942a5 5 0 00-.231-.07 1.4 1.4 0 00-.379-.041q-.54 0-.78.272-.235.273-.235.799V209zm6.088.166a2.9 2.9 0 01-1.223-.254 2.1 2.1 0 01-.873-.743q-.323-.489-.323-1.182 0-.609.24-.988.24-.383.642-.6t.886-.323q.49-.11.984-.175.645-.084 1.048-.125.405-.047.59-.152.19-.106.19-.37v-.037q0-.683-.374-1.061-.369-.38-1.122-.379-.78 0-1.223.342-.444.34-.623.729l-1.035-.369q.277-.647.739-1.007a2.8 2.8 0 011.016-.508q.553-.147 1.09-.147.341 0 .784.083.447.078.863.328.42.25.697.752.277.504.277 1.348V209h-1.09v-.96h-.055a2 2 0 01-.369.494 2.2 2.2 0 01-.688.448q-.429.184-1.048.184m.166-.978q.646 0 1.09-.254a1.73 1.73 0 00.905-1.501v-.997q-.07.083-.305.152a5 5 0 01-.535.116 25 25 0 01-1.044.138 4 4 0 00-.794.18 1.4 1.4 0 00-.59.365q-.222.24-.222.656 0 .567.42.858.425.287 1.075.287m10.096-4.691-.98.277a1.8 1.8 0 00-.272-.475 1.3 1.3 0 00-.48-.388q-.305-.152-.78-.152-.65 0-1.085.3-.429.295-.429.752 0 .406.295.642t.924.392l1.052.259q.951.23 1.418.706.466.471.466 1.214 0 .61-.351 1.09-.346.48-.97.757-.623.276-1.449.277-1.085 0-1.796-.471t-.9-1.376l1.034-.258q.147.572.559.858.415.287 1.084.287.762 0 1.21-.324.453-.327.452-.784a.82.82 0 00-.258-.619q-.258-.254-.794-.379l-1.182-.277q-.974-.23-1.431-.715-.453-.489-.453-1.224 0-.6.337-1.061a2.3 2.3 0 01.928-.725 3.25 3.25 0 011.34-.263q1.051 0 1.652.461.605.462.859 1.219m4.853-1.588v.923h-3.675v-.923zm-2.604-1.699h1.09v6.759q0 .461.133.692.14.227.351.305.217.074.457.074.18 0 .296-.019l.184-.037.222.979a2 2 0 01-.31.083q-.198.046-.503.046-.461 0-.904-.198a1.8 1.8 0 01-.73-.605q-.286-.406-.286-1.025zm7.899 8.79v-7.091h1.09V209zm.554-8.273a.77.77 0 01-.55-.217.7.7 0 01-.226-.521q0-.305.226-.522a.77.77 0 01.55-.217q.319 0 .544.217.231.217.231.522a.69.69 0 01-.23.521.76.76 0 01-.545.217m3.62 4.007V209h-1.09v-7.091h1.053v1.108h.093q.249-.54.757-.868.507-.332 1.31-.332.72 0 1.261.295.54.291.84.887.3.59.3 1.495V209h-1.09v-4.432q0-.835-.433-1.302-.434-.471-1.191-.471a1.9 1.9 0 00-.933.227q-.405.226-.641.66t-.236 1.052M89.508 209v-9.455h3.305q.987 0 1.63.342.641.337.955.91.314.567.314 1.26 0 .61-.217 1.006-.213.397-.563.628-.347.231-.753.342v.092q.434.027.873.305.438.276.734.794.295.516.295 1.265 0 .711-.323 1.278t-1.02.901q-.698.332-1.815.332zm1.144-1.016h2.271q1.123 0 1.593-.434a1.39 1.39 0 00.476-1.061q0-.48-.245-.887a1.77 1.77 0 00-.697-.655q-.453-.25-1.071-.25h-2.327zm0-4.284h2.124q.516 0 .932-.203.42-.203.665-.572.25-.37.25-.868 0-.624-.435-1.057-.434-.44-1.375-.439h-2.16zm10.136 5.448q-1.025 0-1.769-.453a3.03 3.03 0 01-1.14-1.274q-.397-.822-.397-1.911 0-1.09.397-1.921.402-.836 1.117-1.301.72-.471 1.681-.471.554 0 1.094.184.54.186.983.601.444.41.706 1.089.264.679.264 1.671v.462h-5.466v-.942h4.358q0-.6-.24-1.071a1.8 1.8 0 00-.674-.743 1.9 1.9 0 00-1.025-.273q-.651 0-1.127.324a2.1 2.1 0 00-.724.831q-.255.512-.254 1.098v.628q0 .804.277 1.362.28.554.78.845.498.286 1.159.286.429 0 .775-.12.351-.124.605-.369.254-.25.392-.619l1.053.296a2.3 2.3 0 01-.559.941 2.7 2.7 0 01-.969.628 3.6 3.6 0 01-1.297.222m7.271 0q-.887 0-1.565-.448-.68-.452-1.062-1.274-.383-.826-.383-1.953 0-1.117.383-1.939t1.066-1.269q.684-.448 1.579-.448.692 0 1.094.231.406.226.619.517.216.285.337.471h.092v-3.491h1.09V209h-1.053v-1.089h-.129q-.12.194-.342.489a2 2 0 01-.632.522q-.411.225-1.094.226m.147-.979q.656 0 1.108-.342.453-.345.688-.955.235-.615.235-1.417 0-.795-.23-1.39-.231-.6-.684-.933-.452-.337-1.117-.337-.692 0-1.154.356a2.1 2.1 0 00-.688.956q-.226.6-.226 1.348 0 .756.231 1.375.236.615.692.979.462.36 1.145.36" class="fill-primary"/><path d="M178 197.5a1.5 1.5 0 011.5-1.5h63a1.5 1.5 0 011.5 1.5v13a1.5 1.5 0 01-1.5 1.5h-63a1.5 1.5 0 01-1.5-1.5z" class="fill-tone"/><path d="M183.239 207v-6.909h4.143v.742h-3.306v2.335h2.996v.742h-2.996V207zm7.193.108q-.702 0-1.232-.334a2.27 2.27 0 01-.823-.935q-.293-.6-.293-1.403 0-.81.293-1.413.297-.605.823-.938.53-.334 1.232-.334t1.228.334q.53.333.823.938.297.603.297 1.413 0 .803-.297 1.403a2.24 2.24 0 01-.823.935q-.526.334-1.228.334m0-.715q.532 0 .877-.274.344-.273.509-.718.166-.446.166-.965 0-.52-.166-.968a1.63 1.63 0 00-.509-.725q-.345-.277-.877-.277-.534 0-.877.277-.345.276-.51.725t-.165.968.165.965.51.718q.343.274.877.274m5.668.715q-.702 0-1.231-.334a2.27 2.27 0 01-.823-.935q-.294-.6-.294-1.403 0-.81.294-1.413.297-.605.823-.938.53-.334 1.231-.334t1.228.334q.53.333.823.938.297.603.297 1.413 0 .803-.297 1.403-.293.601-.823.935-.526.334-1.228.334m0-.715q.534 0 .877-.274.345-.273.51-.718.165-.446.165-.965 0-.52-.165-.968a1.6 1.6 0 00-.51-.725q-.343-.277-.877-.277-.533 0-.877.277a1.63 1.63 0 00-.509.725 2.8 2.8 0 00-.166.968q0 .52.166.965.165.445.509.718.344.274.877.274m5.52.715q-.648 0-1.143-.327a2.2 2.2 0 01-.776-.931q-.28-.605-.28-1.427 0-.817.28-1.417t.779-.928a2.06 2.06 0 011.154-.327q.506 0 .799.168.297.167.452.378.159.21.247.344h.067v-2.55h.796V207h-.769v-.796h-.094a6 6 0 01-.25.357 1.5 1.5 0 01-.462.382q-.3.165-.8.165m.108-.715q.48 0 .81-.25a1.56 1.56 0 00.502-.698q.173-.449.173-1.036 0-.58-.169-1.015a1.5 1.5 0 00-.499-.682q-.331-.246-.817-.246-.505 0-.843.26-.334.256-.503.698a2.8 2.8 0 00-.165.985q0 .553.168 1.005.173.45.506.716.338.263.837.263m8.464.701q-.68 0-1.174-.249a1.85 1.85 0 01-.759-.685 1.87 1.87 0 01-.266-.995q0-.432.182-.766.186-.337.509-.624a7 7 0 01.753-.58l.998-.743q.294-.192.469-.411.179-.22.179-.574 0-.263-.233-.509a.79.79 0 00-.604-.246.8.8 0 00-.465.135.96.96 0 00-.314.337.86.86 0 00-.111.418q0 .243.131.493.135.246.341.506l.432.526 3.171 3.873h-.958l-2.618-3.158-.661-.796a3.8 3.8 0 01-.472-.705 1.65 1.65 0 01-.176-.752q0-.466.206-.817.209-.354.584-.55.377-.199.883-.199.52 0 .894.203.375.199.577.53.203.327.203.711 0 .496-.247.861a2.8 2.8 0 01-.671.678l-1.376 1.025q-.466.345-.631.668t-.165.466q0 .324.168.604.169.28.476.452t.718.172q.391 0 .763-.166a2.1 2.1 0 00.671-.485q.304-.318.479-.763.179-.445.179-1.002h.769q0 .689-.158 1.124-.159.435-.358.681a5 5 0 01-.32.368 2 2 0 00-.075.101 1 1 0 01-.074.101q-.334.375-.843.56-.51.182-1.006.182m9.032-.094h-2.132v-6.909h2.227q1.005 0 1.72.415.716.411 1.097 1.184.381.77.381 1.842 0 1.08-.385 1.859a2.74 2.74 0 01-1.12 1.194q-.735.415-1.788.415m-1.295-.742h1.241q.858 0 1.421-.331.563-.33.84-.941.276-.61.276-1.454 0-.837-.273-1.441a2 2 0 00-.816-.931q-.543-.327-1.353-.327h-1.336zm5.883.742v-5.182h.77v.783h.054q.141-.386.512-.624.372-.24.837-.24a6 6 0 01.418.014v.809a3 3 0 00-.485-.054q-.378 0-.675.159a1.2 1.2 0 00-.466.432q-.168.273-.168.624V207zm3.535 0v-5.182h.796V207zm.405-6.045a.57.57 0 01-.402-.159.5.5 0 01-.165-.381q0-.224.165-.381a.57.57 0 01.402-.159q.233 0 .398.159a.5.5 0 01.169.381.5.5 0 01-.169.381.55.55 0 01-.398.159m2.646 2.928V207h-.797v-5.182h.77v.81h.067q.183-.395.553-.634.371-.243.959-.243.525 0 .92.216.395.212.614.647.22.432.22 1.093V207h-.796v-3.239q0-.61-.318-.951-.317-.344-.87-.344a1.4 1.4 0 00-.681.165q-.298.165-.469.483a1.6 1.6 0 00-.172.769m5.503 1.228-.014-.985h.162l2.267-2.308h.985l-2.415 2.443h-.068zm-.742 1.889v-6.909h.796V207zm3.292 0-2.024-2.564.567-.553 2.469 3.117z" class="fill-primary"/></g><defs><clipPath id="widget-__c"><path d="M12 44h232v168H12z" class="fill-main-contrast"/></clipPath><clipPath id="widget-__d"><path d="M65 93h10v10H65z" class="fill-main-contrast"/></clipPath><clipPath id="widget-__e"><path d="M65 167h10v10H65z" class="fill-main-contrast"/></clipPath></defs></svg>