<svg xmlns="http://www.w3.org/2000/svg" width="256" height="224" fill="none" viewBox="0 0 256 224" class="portfolio-widget"><path d="M.5 6A5.5 5.5 0 0 1 6 .5h244a5.5 5.5 0 0 1 5.5 5.5v212a5.5 5.5 0 0 1-5.5 5.5H6A5.5 5.5 0 0 1 .5 218z" class="fill-container"/><path d="M.5 6A5.5 5.5 0 0 1 6 .5h244a5.5 5.5 0 0 1 5.5 5.5v212a5.5 5.5 0 0 1-5.5 5.5H6A5.5 5.5 0 0 1 .5 218z" class="stroke-divider"/><path d="M12.545 20.875v-1.33h7.428v1.33H17.04V29h-1.56v-8.125zm10.879 8.268q-1.02 0-1.773-.457a3.1 3.1 0 0 1-1.168-1.283q-.411-.822-.411-1.916 0-1.104.41-1.93.417-.826 1.169-1.283t1.773-.457q1.02 0 1.772.457.753.456 1.164 1.283.415.826.415 1.93 0 1.094-.415 1.916a3.1 3.1 0 0 1-1.164 1.283q-.752.457-1.773.457m.004-1.251q.61 0 1.006-.328.402-.328.6-.872.2-.55.2-1.21a3.6 3.6 0 0 0-.2-1.214 1.96 1.96 0 0 0-.6-.882q-.396-.332-1.006-.332-.615 0-1.015.332a1.96 1.96 0 0 0-.6.882 3.6 3.6 0 0 0-.2 1.214q0 .66.2 1.21.198.545.6.872.401.328 1.015.328m7.47 1.237a2.7 2.7 0 0 1-1.515-.434q-.664-.434-1.048-1.25-.383-.823-.383-1.977 0-1.167.388-1.985.387-.816 1.057-1.242.67-.424 1.51-.424.642 0 1.043.217.402.211.633.508.23.29.355.526h.074v-3.523h1.528V29h-1.496v-1.113h-.106q-.13.245-.37.536-.234.29-.641.499-.401.207-1.03.207m.387-1.27q.564 0 .956-.3.392-.304.596-.844.207-.544.207-1.26t-.203-1.247-.595-.822q-.393-.295-.96-.295-.592 0-.989.31a1.83 1.83 0 0 0-.595.84 3.5 3.5 0 0 0-.199 1.213q0 .69.203 1.233.203.545.596.859.398.315.983.314m7.185 1.289a2.9 2.9 0 0 1-1.214-.245 2 2 0 0 1-.86-.72q-.312-.48-.313-1.177 0-.605.226-.993.23-.393.619-.623a3.1 3.1 0 0 1 .868-.346q.484-.12.997-.176.627-.073 1.02-.124t.573-.162.18-.355v-.033q0-.558-.328-.868-.324-.309-.947-.309-.655 0-1.034.286-.378.287-.521.656l-1.427-.259q.209-.645.642-1.061.434-.42 1.03-.62.6-.201 1.292-.202.471 0 .96.11.495.11.914.38.42.267.679.747.263.48.263 1.219V29h-1.477v-.97h-.056q-.138.278-.41.536-.273.258-.688.42a2.7 2.7 0 0 1-.988.162m.364-1.164q.54 0 .928-.212a1.57 1.57 0 0 0 .596-.563q.212-.35.212-.757v-.877a.8.8 0 0 1-.277.129q-.198.055-.448.101-.249.042-.489.074l-.41.056a3.4 3.4 0 0 0-.698.17q-.314.116-.498.333-.185.212-.185.558 0 .49.36.74.36.248.91.248m5.723 3.675q-.324 0-.596-.05a2 2 0 0 1-.42-.116l.36-1.214q.374.105.665.092a.8.8 0 0 0 .512-.198q.226-.19.388-.628l.162-.425-2.586-7.21h1.625l1.713 5.428h.074l1.722-5.429h1.63L46.92 29.9a3.1 3.1 0 0 1-.522.956q-.318.392-.775.595-.453.208-1.066.208m8.209-12.113v.913q0 .402-.152.836a3.5 3.5 0 0 1-.416.831 3.3 3.3 0 0 1-.614.679l-.73-.499q.264-.393.458-.835.198-.448.198-.998v-.927zm5.881 4.168-1.39.194a1.3 1.3 0 0 0-.235-.443 1.2 1.2 0 0 0-.438-.346 1.6 1.6 0 0 0-.688-.134q-.555 0-.928.244-.37.245-.37.633 0 .333.25.535.249.204.808.337l1.172.259q.992.221 1.478.692.484.471.489 1.228a1.9 1.9 0 0 1-.383 1.16q-.374.497-1.044.784-.664.286-1.537.286-1.251 0-2.022-.526-.77-.531-.937-1.491l1.482-.185q.12.503.494.762.374.254.974.254.637 0 1.02-.264.384-.267.388-.65a.68.68 0 0 0-.245-.531q-.235-.213-.738-.323l-1.2-.264q-1.012-.216-1.492-.715-.48-.504-.475-1.265-.004-.642.35-1.117.356-.48.989-.744.636-.267 1.463-.267 1.196 0 1.883.517.693.512.882 1.38M64.674 29h-1.671l3.365-9.454h1.88L71.612 29H69.94l-2.599-7.626h-.073zm.152-3.702h4.95v1.283h-4.95zm10.863 6.509q-.873 0-1.5-.231-.624-.23-1.011-.619a2.35 2.35 0 0 1-.559-.849l1.343-.425q.115.204.319.42.202.218.55.365.345.152.881.152.748 0 1.237-.364.49-.36.49-1.173v-1.366h-.088a2.7 2.7 0 0 1-.365.521q-.24.273-.646.466-.407.19-1.034.19-.827 0-1.496-.388-.665-.393-1.057-1.163-.393-.771-.393-1.916t.388-1.953 1.057-1.233 1.51-.424q.642 0 1.043.217.407.211.642.508.236.29.36.526h.092v-1.159h1.5v7.23q0 .909-.429 1.5-.424.59-1.163.877-.739.29-1.671.29m.005-4.141q.563 0 .955-.268a1.65 1.65 0 0 0 .596-.77q.207-.51.207-1.21 0-.697-.203-1.22a1.8 1.8 0 0 0-.595-.812q-.393-.295-.96-.295-.591 0-.988.305-.398.305-.596.83-.198.526-.198 1.192 0 .674.203 1.181.203.504.595.785.397.282.984.282m8.143 1.477q-1.057 0-1.824-.448a3 3 0 0 1-1.177-1.27q-.41-.821-.41-1.924 0-1.094.41-1.925a3.13 3.13 0 0 1 1.159-1.293q.743-.465 1.745-.466.632 0 1.205.203t1.02.637q.448.43.706 1.108.264.678.264 1.625v.498h-5.73v-1.08h4.248q0-.507-.213-.905a1.6 1.6 0 0 0-.595-.632 1.67 1.67 0 0 0-.886-.23 1.74 1.74 0 0 0-.96.262q-.407.263-.633.693a2.05 2.05 0 0 0-.226.932v.891q0 .665.24 1.136t.67.72q.429.245 1 .245.384 0 .693-.106.309-.111.531-.324.226-.216.347-.535l1.435.208a2.4 2.4 0 0 1-.563 1.043q-.406.443-1.034.692-.624.246-1.422.245m6.094-4.326V29h-1.528v-7.09h1.463v1.18h.088a2 2 0 0 1 .775-.927q.531-.345 1.325-.346.73 0 1.275.31.544.308.844.904.305.595.305 1.459V29H92.95v-4.298q0-.743-.383-1.159-.384-.42-1.057-.42-.462 0-.818.199a1.4 1.4 0 0 0-.558.577q-.203.378-.203.918m8.963 4.312a2.7 2.7 0 0 1-1.515-.434q-.665-.434-1.047-1.25-.384-.823-.384-1.977 0-1.167.388-1.985.388-.816 1.057-1.242.67-.424 1.51-.424.642 0 1.043.217.402.211.633.508.23.29.355.526h.074v-3.523h1.528V29h-1.496v-1.113h-.106a3.2 3.2 0 0 1-.369.536q-.236.29-.642.499-.401.207-1.03.207m.387-1.27q.563 0 .956-.3.392-.304.596-.844.207-.544.207-1.26t-.203-1.247a1.8 1.8 0 0 0-.595-.822q-.393-.295-.96-.295-.591 0-.989.31a1.83 1.83 0 0 0-.595.84 3.5 3.5 0 0 0-.198 1.213q0 .69.203 1.233.203.545.595.859.398.315.983.314m7.185 1.289q-.674 0-1.214-.245a2 2 0 0 1-.859-.72q-.314-.48-.314-1.177 0-.605.226-.993.23-.393.619-.623.388-.232.868-.346.484-.12.997-.176.629-.073 1.02-.124.393-.051.573-.162.18-.11.18-.355v-.033q0-.558-.328-.868-.324-.309-.946-.309-.655 0-1.035.286-.378.287-.521.656l-1.427-.259q.208-.645.642-1.061a2.7 2.7 0 0 1 1.029-.62 4 4 0 0 1 1.293-.202q.471 0 .96.11.495.11.914.38.42.267.679.747.263.48.263 1.219V29h-1.477v-.97h-.056a2 2 0 0 1-.41.536 2.1 2.1 0 0 1-.688.42 2.7 2.7 0 0 1-.988.162m.365-1.164q.54 0 .927-.212.388-.217.596-.563.212-.35.212-.757v-.877a.8.8 0 0 1-.277.129q-.198.055-.447.101-.25.042-.49.074l-.411.056a3.5 3.5 0 0 0-.697.17 1.17 1.17 0 0 0-.498.333q-.185.212-.185.558 0 .49.36.74.36.248.91.248" class="fill-primary"/><mask id="path-3-inside-1_8396_53482" class="fill-main-contrast"><path d="M136 15a3 3 0 0 1 3-3h17v24h-17a3 3 0 0 1-3-3z"/></mask><path d="M136 15a3 3 0 0 1 3-3h17v24h-17a3 3 0 0 1-3-3z" class="fill-component"/><path d="M135 15a4 4 0 0 1 4-4h17v2h-17a2 2 0 0 0-2 2zm21 22h-17a4 4 0 0 1-4-4h2a2 2 0 0 0 2 2h17zm-17 0a4 4 0 0 1-4-4V15a4 4 0 0 1 4-4v2a2 2 0 0 0-2 2v18a2 2 0 0 0 2 2zm17-25v24z" mask="url(#path-3-inside-1_8396_53482)" class="fill-border"/><path fill-rule="evenodd" d="M147.055 21.346c.14.14.14.368 0 .509L144.909 24l2.146 2.146a.361.361 0 0 1-.51.509l-2.4-2.4a.36.36 0 0 1 0-.51l2.4-2.4a.36.36 0 0 1 .51 0" clip-rule="evenodd" class="fill-symbol"/><path d="M156.5 12.5h67v23h-67z" class="fill-component"/><path d="M156.5 12.5h67v23h-67z" class="stroke-border"/><path d="M167.508 27.095q-.715 0-1.269-.243a2.17 2.17 0 0 1-.877-.682 1.8 1.8 0 0 1-.34-1.012h1.16a.9.9 0 0 0 .196.51q.178.215.469.337.293.118.654.118.388 0 .688-.135.304-.139.473-.381a.94.94 0 0 0 .168-.564 1 1 0 0 0-.168-.583q-.172-.253-.496-.395a2 2 0 0 0-.786-.142h-.597v-.91h.597q.374 0 .654-.129.283-.131.442-.367a.97.97 0 0 0 .162-.557 1 1 0 0 0-.138-.537.9.9 0 0 0-.392-.354 1.3 1.3 0 0 0-.587-.128q-.327 0-.61.118a1.14 1.14 0 0 0-.456.337.9.9 0 0 0-.185.523h-1.103q.013-.57.33-1.002.32-.435.85-.678a2.8 2.8 0 0 1 1.181-.243q.681 0 1.178.26.498.256.769.688.273.432.273.948 0 .585-.334.986a1.6 1.6 0 0 1-.887.53v.053q.712.102 1.093.54.384.438.384 1.09 0 .576-.323 1.032a2.2 2.2 0 0 1-.888.712q-.563.26-1.285.26m6.53-7.328-2.226 8.272h-.982l2.227-8.272zM175.069 27v-.83l2.372-2.388q.357-.372.593-.655a2.4 2.4 0 0 0 .355-.543q.118-.263.118-.557a1.05 1.05 0 0 0-.156-.58 1 1 0 0 0-.425-.374 1.4 1.4 0 0 0-.61-.132 1.3 1.3 0 0 0-.621.145 1 1 0 0 0-.412.412 1.3 1.3 0 0 0-.145.63h-1.089q0-.643.293-1.123a2 2 0 0 1 .81-.742 2.56 2.56 0 0 1 1.184-.267q.675 0 1.184.26.513.26.796.709.287.445.287 1.012 0 .387-.145.759-.146.371-.509.826-.362.453-1.016 1.097l-1.278 1.322v.05h3.056V27zm8.612.121q-.813 0-1.397-.421-.58-.421-.89-1.221t-.307-1.93q0-1.126.31-1.92.31-.795.891-1.214.583-.42 1.393-.419.813 0 1.393.419.584.419.894 1.214.31.796.311 1.92 0 1.134-.311 1.933-.31.8-.89 1.221-.58.418-1.397.418m0-.974q.675 0 1.063-.662.387-.664.384-1.936 0-.84-.175-1.417-.176-.577-.5-.874a1.1 1.1 0 0 0-.772-.297q-.667 0-1.056.665-.388.66-.388 1.923-.003.846.172 1.427.175.576.499.874.324.296.773.296m6.537-6.38-2.227 8.272h-.981l2.226-8.272zM191.249 27v-.83l2.371-2.388q.358-.372.594-.655t.354-.543a1.3 1.3 0 0 0 .118-.557 1.05 1.05 0 0 0-.155-.58 1 1 0 0 0-.425-.374 1.4 1.4 0 0 0-.611-.132q-.354 0-.62.145a1 1 0 0 0-.412.412 1.3 1.3 0 0 0-.145.63h-1.09q0-.643.294-1.123.293-.48.81-.742a2.56 2.56 0 0 1 1.184-.267q.674 0 1.184.26.513.26.796.709.287.445.287 1.012 0 .387-.145.759-.145.371-.51.826-.36.453-1.015 1.097l-1.279 1.322v.05h3.057V27zm8.612.121q-.813 0-1.397-.421-.58-.421-.891-1.221-.31-.8-.307-1.93 0-1.126.311-1.92.31-.795.89-1.214.584-.42 1.394-.419.813 0 1.393.419.583.419.894 1.214.31.796.31 1.92 0 1.134-.31 1.933t-.891 1.221q-.58.418-1.396.418m0-.974q.674 0 1.062-.662.388-.664.385-1.936 0-.84-.176-1.417-.175-.577-.499-.874a1.1 1.1 0 0 0-.772-.297q-.669 0-1.056.665-.388.66-.388 1.923-.004.846.172 1.427.175.576.499.874.324.296.773.296m4.023.853v-.83l2.372-2.388q.357-.372.594-.655.235-.283.354-.543a1.3 1.3 0 0 0 .118-.557q0-.337-.155-.58a1.03 1.03 0 0 0-.425-.374 1.4 1.4 0 0 0-.611-.132 1.3 1.3 0 0 0-.621.145 1 1 0 0 0-.411.412 1.3 1.3 0 0 0-.145.63h-1.09q0-.643.294-1.123.293-.48.809-.742a2.56 2.56 0 0 1 1.184-.267q.675 0 1.185.26.512.26.796.709.286.445.286 1.012 0 .387-.145.759-.144.371-.509.826a13 13 0 0 1-1.015 1.097l-1.279 1.322v.05h3.056V27zm8.595.095a2.7 2.7 0 0 1-1.174-.25 2.1 2.1 0 0 1-.823-.685 1.87 1.87 0 0 1-.327-1.002h1.113q.037.435.382.715.347.277.829.277.385 0 .682-.176.3-.178.469-.489.172-.313.172-.712 0-.408-.176-.721a1.3 1.3 0 0 0-.482-.5 1.35 1.35 0 0 0-.702-.182 1.7 1.7 0 0 0-.62.111q-.307.112-.496.294l-1.043-.162.375-3.522h3.906v.968h-2.952l-.212 1.886h.04q.2-.213.544-.35.343-.143.742-.143.63 0 1.123.297.496.297.779.817.284.516.284 1.18 0 .682-.311 1.212-.31.529-.86.833-.546.303-1.262.303" class="fill-accent"/><mask id="path-8-inside-2_8396_53482" class="fill-main-contrast"><path d="M224 12h17a3 3 0 0 1 3 3v18a3 3 0 0 1-3 3h-17z"/></mask><path d="M224 12h17a3 3 0 0 1 3 3v18a3 3 0 0 1-3 3h-17z" class="fill-component"/><path d="M224 11h17a4 4 0 0 1 4 4h-2a2 2 0 0 0-2-2h-17zm21 22a4 4 0 0 1-4 4h-17v-2h17a2 2 0 0 0 2-2zm-21 3V12zm17-25a4 4 0 0 1 4 4v18a4 4 0 0 1-4 4v-2a2 2 0 0 0 2-2V15a2 2 0 0 0-2-2z" mask="url(#path-8-inside-2_8396_53482)" class="fill-border"/><path fill-rule="evenodd" d="M232.946 21.346a.36.36 0 0 1 .509 0l2.4 2.4a.36.36 0 0 1 0 .509l-2.4 2.4a.36.36 0 1 1-.509-.51L235.091 24l-2.145-2.145a.36.36 0 0 1 0-.51" clip-rule="evenodd" class="fill-symbol"/><g clip-path="url(#clip0_8396_53482)"><path d="M13.145 61v-9.455h3.305q.988 0 1.63.342.641.337.956.91.313.567.313 1.26 0 .609-.216 1.006-.213.397-.564.628-.345.231-.752.342v.092q.434.028.872.305.439.276.734.794.296.516.296 1.265 0 .711-.323 1.278-.324.568-1.02.9-.697.333-1.815.333zm1.145-1.016h2.271q1.122 0 1.593-.434.475-.438.475-1.061 0-.48-.244-.887a1.77 1.77 0 0 0-.698-.655q-.452-.25-1.07-.25H14.29zm0-4.284h2.123q.517 0 .933-.203.42-.203.665-.572.249-.37.249-.868 0-.624-.434-1.057-.434-.44-1.376-.439h-2.16zm10.043 5.448q-.96 0-1.685-.457a3.1 3.1 0 0 1-1.126-1.28q-.402-.82-.402-1.92 0-1.107.401-1.934.407-.826 1.127-1.283.725-.457 1.685-.457t1.68.457q.725.456 1.127 1.283.406.827.406 1.935 0 1.098-.406 1.92a3.06 3.06 0 0 1-1.127 1.279q-.72.457-1.68.457m0-.979q.729 0 1.2-.374.47-.374.697-.983.226-.61.226-1.32t-.226-1.325q-.225-.614-.697-.993-.471-.379-1.2-.379t-1.2.379a2.23 2.23 0 0 0-.697.992q-.227.615-.227 1.326 0 .71.227 1.32.226.61.697.983.471.375 1.2.374m7.757.979q-.96 0-1.685-.457a3.1 3.1 0 0 1-1.127-1.28q-.4-.82-.401-1.92 0-1.107.401-1.934a3.1 3.1 0 0 1 1.127-1.283q.725-.457 1.685-.457t1.68.457q.725.456 1.127 1.283.406.827.406 1.935 0 1.098-.406 1.92a3.06 3.06 0 0 1-1.127 1.279q-.72.457-1.68.457m0-.979q.729 0 1.2-.374.47-.374.697-.983.225-.61.226-1.32 0-.711-.226-1.325-.225-.614-.697-.993-.471-.379-1.2-.379-.73 0-1.2.379a2.23 2.23 0 0 0-.698.992q-.225.615-.226 1.326 0 .71.226 1.32.227.61.698.983.47.375 1.2.374m5.891-1.754-.018-1.348h.222l3.102-3.158h1.348l-3.305 3.342h-.093zM36.967 61v-9.455h1.09V61zm4.506 0-2.77-3.508.775-.758L42.857 61zm6.37 0v-9.455h3.305q.987 0 1.63.342.64.337.955.91.315.567.314 1.26 0 .609-.217 1.006-.213.397-.563.628-.347.231-.753.342v.092q.434.028.873.305.438.276.734.794.295.516.295 1.265 0 .711-.323 1.278t-1.02.9-1.815.333zm1.144-1.016h2.271q1.123 0 1.593-.434.476-.438.476-1.061 0-.48-.245-.887a1.77 1.77 0 0 0-.697-.655q-.453-.25-1.071-.25h-2.327zm0-4.284h2.124q.516 0 .932-.203.42-.203.665-.572.25-.37.25-.868 0-.624-.435-1.057-.434-.44-1.375-.439h-2.16zM56.15 61v-7.09H57.2v1.07h.074q.194-.525.702-.854.507-.328 1.145-.328.12 0 .3.005t.272.014v1.108a3 3 0 0 0-.254-.042 2.5 2.5 0 0 0-.41-.032 1.9 1.9 0 0 0-.924.217q-.402.212-.637.59-.231.375-.231.855V61zm7.501.148q-.96 0-1.685-.457a3.1 3.1 0 0 1-1.126-1.28q-.402-.82-.402-1.92 0-1.107.402-1.934.406-.826 1.126-1.283.725-.457 1.685-.457t1.68.457q.726.456 1.127 1.283.406.827.406 1.935 0 1.098-.406 1.92a3.06 3.06 0 0 1-1.126 1.279q-.72.457-1.68.457m0-.979q.73 0 1.2-.374.472-.374.698-.983.225-.61.226-1.32 0-.711-.226-1.325t-.697-.993-1.2-.379-1.201.379a2.23 2.23 0 0 0-.697.992q-.226.615-.226 1.326 0 .71.226 1.32t.697.983q.471.375 1.2.374m6.242.831-2.16-7.09h1.144l1.533 5.428h.074l1.514-5.429h1.163l1.496 5.41h.074l1.532-5.41h1.145L75.247 61h-1.071l-1.551-5.447h-.111L70.963 61zm13.979-5.503-.98.277a1.8 1.8 0 0 0-.272-.475 1.3 1.3 0 0 0-.48-.388q-.305-.153-.78-.153-.65 0-1.085.3-.43.296-.43.753.001.406.296.642.296.235.924.392l1.052.259q.951.23 1.418.706.465.471.466 1.214a1.8 1.8 0 0 1-.351 1.09q-.346.48-.97.757-.622.276-1.45.277-1.083 0-1.795-.471-.711-.471-.9-1.376l1.034-.258q.148.572.558.858.416.286 1.085.286.762 0 1.21-.323.452-.328.452-.784a.83.83 0 0 0-.258-.62q-.259-.252-.794-.378l-1.182-.277q-.974-.23-1.431-.715-.453-.489-.453-1.224 0-.6.337-1.061.342-.462.928-.725.59-.263 1.34-.263 1.051 0 1.652.461.605.461.859 1.22M85.64 61v-7.09h1.09V61zm.554-8.273a.78.78 0 0 1-.55-.217.7.7 0 0 1-.226-.521q0-.305.226-.522a.77.77 0 0 1 .55-.217q.319 0 .544.217a.7.7 0 0 1 .231.522.7.7 0 0 1-.23.521.76.76 0 0 1-.545.217m3.62 4.007V61h-1.09v-7.09h1.053v1.107h.093q.249-.54.757-.868.507-.332 1.31-.332.72 0 1.261.295.54.291.84.887.3.59.3 1.495V61h-1.09v-4.432q0-.835-.433-1.302-.434-.47-1.191-.47-.522 0-.933.226-.405.225-.641.66-.236.434-.236 1.052m9.377 7.073q-.789 0-1.357-.203a2.9 2.9 0 0 1-.946-.527 2.9 2.9 0 0 1-.596-.692l.868-.61q.148.195.374.444.226.254.619.438.396.19 1.038.19.859 0 1.418-.416.558-.415.558-1.302v-1.44h-.092q-.12.195-.342.48a1.9 1.9 0 0 1-.628.503q-.406.217-1.098.217a2.96 2.96 0 0 1-1.542-.406q-.679-.406-1.076-1.182-.392-.776-.392-1.883 0-1.09.383-1.898.382-.812 1.066-1.255.683-.448 1.58-.448.69 0 1.098.23.41.227.628.518.222.285.341.47h.111V53.91h1.053v7.294q0 .914-.416 1.487a2.37 2.37 0 0 1-1.108.844 4.2 4.2 0 0 1-1.542.273m-.037-3.897q.657 0 1.108-.3.453-.3.688-.863.236-.563.236-1.348 0-.766-.231-1.352a2.04 2.04 0 0 0-.683-.92q-.453-.331-1.118-.332-.692 0-1.154.351a2.14 2.14 0 0 0-.687.942 3.6 3.6 0 0 0-.227 1.311q0 .739.231 1.307.235.562.693.886.461.319 1.144.319" class="fill-primary"/><path d="M193 49.5a1.5 1.5 0 0 1 1.5-1.5h48a1.5 1.5 0 0 1 1.5 1.5v13a1.5 1.5 0 0 1-1.5 1.5h-48a1.5 1.5 0 0 1-1.5-1.5z" class="fill-tone"/><path d="M201.856 53.818a1.06 1.06 0 0 0-.493-.796q-.43-.283-1.059-.283-.459 0-.803.148a1.3 1.3 0 0 0-.533.408.98.98 0 0 0-.189.59.84.84 0 0 0 .132.476q.135.196.344.328.209.128.439.212.228.081.421.132l.702.189q.27.07.6.195.335.126.638.341.307.213.506.546.2.334.199.82 0 .56-.293 1.012-.29.452-.851.719-.557.266-1.352.266-.743 0-1.286-.24a2.05 2.05 0 0 1-.85-.667 1.9 1.9 0 0 1-.347-.995h.863q.034.39.264.648.232.252.587.377.357.122.769.122.479 0 .86-.155.38-.159.604-.439.222-.284.222-.661a.8.8 0 0 0-.192-.56 1.4 1.4 0 0 0-.506-.351 5 5 0 0 0-.678-.236l-.85-.243q-.81-.233-1.282-.665-.472-.431-.472-1.13 0-.58.313-1.012.317-.435.851-.675a2.9 2.9 0 0 1 1.197-.243q.667 0 1.188.24.519.235.823.648.306.411.324.934zm2.968 2.065V59h-.796v-6.91h.796v2.538h.067a1.47 1.47 0 0 1 .547-.638q.368-.24.978-.24.53 0 .928.213.398.21.617.645.223.432.223 1.1V59h-.796v-3.239q0-.617-.321-.954-.317-.34-.88-.341a1.5 1.5 0 0 0-.702.165q-.307.165-.486.483a1.57 1.57 0 0 0-.175.769m6.922 3.225q-.702 0-1.232-.334a2.27 2.27 0 0 1-.823-.934q-.294-.6-.293-1.404 0-.81.293-1.413.297-.605.823-.938a2.26 2.26 0 0 1 1.232-.334q.701 0 1.228.334.53.333.823.938.297.603.297 1.413 0 .802-.297 1.404-.294.6-.823.934-.527.334-1.228.334m0-.715q.532 0 .877-.273.344-.274.509-.72.166-.444.166-.964t-.166-.968q-.165-.45-.509-.726-.345-.276-.877-.276-.534 0-.877.276-.345.277-.51.726t-.165.968.165.965.51.718q.343.274.877.274m3.563 2.55v-7.125h.769v.823h.095q.087-.135.243-.344.158-.212.452-.378.297-.168.803-.168.654 0 1.153.327.5.327.78.928.28.6.28 1.417 0 .822-.28 1.427-.28.6-.776.93a2.03 2.03 0 0 1-1.144.328q-.499 0-.8-.165-.3-.17-.462-.382a5 5 0 0 1-.249-.357h-.068v2.74zm.783-4.534q0 .587.172 1.036.171.446.502.698.332.25.81.25.5 0 .833-.263.338-.267.506-.716a2.8 2.8 0 0 0 .172-1.005q0-.546-.168-.985a1.5 1.5 0 0 0-.503-.698q-.334-.26-.84-.26-.486 0-.816.246-.331.243-.5.682-.168.435-.168 1.015m5.006 4.534v-7.125h.769v.823h.095q.087-.135.243-.344.158-.212.452-.378.296-.168.803-.168.654 0 1.153.327.5.327.78.928.28.6.28 1.417 0 .822-.28 1.427-.28.6-.776.93a2.03 2.03 0 0 1-1.144.328q-.5 0-.799-.165a1.5 1.5 0 0 1-.463-.382 5 5 0 0 1-.249-.357h-.068v2.74zm.783-4.534q0 .587.172 1.036.172.446.502.698.332.25.81.25.5 0 .833-.263.338-.267.506-.716a2.8 2.8 0 0 0 .172-1.005q0-.546-.168-.985a1.5 1.5 0 0 0-.503-.698q-.334-.26-.84-.26-.486 0-.816.246-.331.243-.5.682-.168.435-.168 1.015M226.887 59v-5.182h.796V59zm.405-6.045a.56.56 0 0 1-.401-.159.5.5 0 0 1-.166-.381q0-.224.166-.381a.56.56 0 0 1 .401-.159q.233 0 .398.159a.5.5 0 0 1 .169.38.5.5 0 0 1-.169.382.55.55 0 0 1-.398.159m2.646 2.928V59h-.796v-5.182h.769v.81h.067q.183-.395.553-.634.372-.243.959-.243.525 0 .921.216.394.212.614.647.219.432.219 1.093V59h-.796v-3.239q0-.61-.317-.951-.318-.345-.871-.344-.381 0-.681.165-.298.165-.469.483a1.6 1.6 0 0 0-.172.769m6.852 5.168q-.576 0-.992-.148a2.1 2.1 0 0 1-.691-.385 2.1 2.1 0 0 1-.435-.506l.634-.445q.108.141.273.324.165.185.452.32.291.138.759.138.628 0 1.036-.303.408-.304.408-.952v-1.052h-.067a4 4 0 0 1-.25.35q-.159.206-.459.368-.296.159-.803.159-.627 0-1.126-.297a2.1 2.1 0 0 1-.786-.864q-.288-.566-.287-1.376 0-.796.28-1.386.28-.594.779-.918a2.06 2.06 0 0 1 1.154-.327q.506 0 .803.168.3.166.459.378.162.21.249.344h.081v-.823h.769v5.33q0 .669-.303 1.087-.3.421-.81.617a3 3 0 0 1-1.127.2m-.027-2.847q.48 0 .81-.22.33-.219.503-.63.171-.412.172-.985 0-.56-.169-.989a1.5 1.5 0 0 0-.499-.671q-.331-.243-.817-.243-.506 0-.843.256-.334.256-.503.688-.165.432-.165.959 0 .54.169.954.171.412.506.648.337.233.836.233" class="fill-primary"/><path d="M12.531 72.86V72h6v.86h-2.515V80h-.97v-7.14zm7.37 7.14v-6h.922v6zm.47-7a.66.66 0 0 1-.466-.184.6.6 0 0 1-.191-.441.6.6 0 0 1 .191-.441.66.66 0 0 1 .465-.184q.27 0 .461.184.195.184.195.441a.58.58 0 0 1-.195.441.64.64 0 0 1-.46.184m2.14 7v-6h.891v.938h.078q.188-.48.606-.747.418-.27 1.004-.27.594 0 .988.27.399.266.621.746h.063q.23-.464.691-.738.46-.277 1.106-.277.804 0 1.316.504.512.5.512 1.558V80h-.922v-4.016q0-.663-.363-.949a1.35 1.35 0 0 0-.856-.285q-.633 0-.98.383-.348.379-.348.96V80h-.937v-4.11q0-.51-.333-.824-.33-.316-.855-.316-.36 0-.672.191a1.45 1.45 0 0 0-.5.532 1.57 1.57 0 0 0-.187.777V80zm12.077.125q-.867 0-1.496-.383a2.57 2.57 0 0 1-.965-1.078q-.336-.694-.336-1.617 0-.922.336-1.625.34-.707.945-1.102.609-.398 1.422-.398.469 0 .926.156.457.157.832.508.376.348.598.922t.222 1.414v.39h-4.625v-.796h3.688q0-.508-.203-.907a1.53 1.53 0 0 0-.57-.628 1.6 1.6 0 0 0-.868-.231q-.55 0-.953.273a1.8 1.8 0 0 0-.613.704 2.1 2.1 0 0 0-.215.93v.53q0 .68.234 1.153.24.468.66.715.422.242.98.242.364 0 .657-.102.297-.105.512-.312a1.4 1.4 0 0 0 .332-.524l.89.25a2 2 0 0 1-.472.797 2.3 2.3 0 0 1-.82.531 3 3 0 0 1-1.098.188M44.24 74v.781h-3.234V74zm-2.265 6v-6.828q0-.515.242-.86a1.5 1.5 0 0 1 .629-.515q.387-.172.816-.172.34 0 .555.055.215.054.32.101l-.265.797a5 5 0 0 0-.196-.059 1.2 1.2 0 0 0-.32-.035q-.457 0-.66.23-.2.231-.2.677V80zm5.748.125q-.813 0-1.426-.387a2.63 2.63 0 0 1-.953-1.082q-.34-.695-.34-1.625 0-.937.34-1.637.344-.7.953-1.085.613-.387 1.426-.387.811 0 1.422.387.612.386.953 1.085.343.7.343 1.637 0 .93-.343 1.625a2.6 2.6 0 0 1-.953 1.082q-.61.387-1.422.387m0-.828q.617 0 1.015-.316.398-.318.59-.833t.191-1.117q0-.601-.19-1.12a1.9 1.9 0 0 0-.59-.84q-.4-.321-1.016-.321-.617 0-1.016.32a1.9 1.9 0 0 0-.59.84q-.19.52-.191 1.121 0 .602.191 1.117.191.516.59.833t1.016.316m4.126.703v-6h.89v.906h.063a1.44 1.44 0 0 1 .593-.722q.43-.278.97-.278.101 0 .253.004.152.005.23.012v.937a3 3 0 0 0-.214-.035 2 2 0 0 0-.348-.027q-.437 0-.781.184-.34.18-.54.5-.195.315-.195.722V80zm9.858-6v.781h-3.234V74zm-2.266 6v-6.828q0-.515.243-.86a1.5 1.5 0 0 1 .629-.515q.386-.172.816-.172.34 0 .555.055.215.054.32.101l-.266.797a5 5 0 0 0-.195-.059 1.2 1.2 0 0 0-.32-.035q-.457 0-.66.23-.2.231-.2.677V80zM63 80v-6h.922v6zm.469-7a.66.66 0 0 1-.465-.184.6.6 0 0 1-.191-.441.6.6 0 0 1 .19-.441.66.66 0 0 1 .466-.184q.27 0 .46.184.196.184.196.441a.58.58 0 0 1-.195.441.64.64 0 0 1-.461.184m3.063 3.39V80h-.922v-6h.891v.938h.078q.21-.457.64-.735.43-.28 1.11-.281.61 0 1.066.25.457.246.712.75.253.5.253 1.266V80h-.921v-3.75q0-.706-.368-1.102-.366-.398-1.007-.398-.442 0-.79.191a1.37 1.37 0 0 0-.542.559q-.2.368-.2.89m7.779 3.735q-.75 0-1.325-.379a2.56 2.56 0 0 1-.898-1.078q-.324-.7-.324-1.652 0-.946.324-1.641t.902-1.074 1.336-.38q.586 0 .926.196.345.192.523.438.184.242.286.398h.078V72h.922v8h-.891v-.922h-.11q-.1.165-.288.414a1.7 1.7 0 0 1-.536.442q-.347.19-.925.191m.125-.828q.555 0 .937-.29a1.8 1.8 0 0 0 .582-.808q.2-.52.2-1.199 0-.672-.196-1.176a1.7 1.7 0 0 0-.578-.789q-.383-.285-.945-.285-.587 0-.977.3a1.8 1.8 0 0 0-.582.81 3.2 3.2 0 0 0-.191 1.14q0 .64.195 1.164.2.52.586.828.39.305.969.305m4.441.703v-6h.922v6zm.469-7a.66.66 0 0 1-.465-.184.6.6 0 0 1-.191-.441.6.6 0 0 1 .19-.441.66.66 0 0 1 .466-.184q.27 0 .46.184.195.184.196.441a.58.58 0 0 1-.195.441.64.64 0 0 1-.461.184m3.063 3.39V80h-.922v-6h.891v.938h.078q.21-.457.64-.735.43-.28 1.11-.281.61 0 1.067.25.456.246.71.75.255.5.254 1.266V80h-.922v-3.75q0-.706-.367-1.102-.367-.398-1.008-.398-.441 0-.789.191a1.37 1.37 0 0 0-.543.559q-.198.368-.199.89m7.935 5.985q-.668 0-1.149-.172a2.4 2.4 0 0 1-.8-.445 2.4 2.4 0 0 1-.504-.586l.734-.516q.125.165.316.375.192.215.524.371.336.16.879.16.726 0 1.199-.351.473-.352.473-1.102v-1.218h-.079q-.101.163-.289.406-.183.238-.53.426-.345.183-.93.183-.728 0-1.305-.344a2.4 2.4 0 0 1-.91-1q-.332-.655-.332-1.593 0-.922.324-1.606.324-.687.902-1.062.578-.38 1.336-.38.585 0 .93.196.348.192.531.438.187.242.29.398h.093V74h.89v6.172q0 .774-.351 1.258a2 2 0 0 1-.937.714q-.586.231-1.305.231m-.032-3.297q.555 0 .938-.254t.582-.73.2-1.14a3.1 3.1 0 0 0-.196-1.145q-.195-.496-.578-.778-.382-.28-.946-.281-.585 0-.976.297a1.8 1.8 0 0 0-.582.797 3.1 3.1 0 0 0-.192 1.11q0 .624.196 1.105.2.475.586.75.39.27.968.27m8.329-2.687V80h-.922v-6h.89v.938h.078q.212-.457.641-.735.43-.28 1.11-.281.609 0 1.066.25.458.246.711.75.254.5.254 1.266V80h-.922v-3.75q0-.706-.367-1.102-.368-.398-1.008-.398-.44 0-.79.191a1.37 1.37 0 0 0-.542.559q-.2.368-.2.89m8.028 3.734q-.867 0-1.496-.383a2.57 2.57 0 0 1-.965-1.078q-.336-.694-.336-1.617 0-.922.336-1.625.34-.707.945-1.102.61-.398 1.422-.398.469 0 .926.156.457.157.832.508.375.348.598.922t.222 1.414v.39h-4.625v-.796h3.688q0-.508-.203-.907a1.53 1.53 0 0 0-.571-.628 1.6 1.6 0 0 0-.867-.231q-.55 0-.953.273-.399.27-.613.704a2.1 2.1 0 0 0-.215.93v.53q0 .68.234 1.153.238.468.661.715.422.242.98.242.363 0 .656-.102.297-.105.512-.312.215-.21.332-.524l.891.25a2 2 0 0 1-.473.797 2.3 2.3 0 0 1-.82.531 3 3 0 0 1-1.098.188m5.246-.125-1.828-6h.969l1.297 4.594h.062L113.695 74h.985l1.265 4.578h.063L117.305 74h.968l-1.828 6h-.906l-1.312-4.61h-.094L112.82 80zm13.281-6v.781h-3.109V74zm-2.203-1.437h.922v5.718q0 .39.113.586a.6.6 0 0 0 .297.258q.184.063.387.063.153 0 .25-.016l.156-.031.188.828q-.094.035-.262.07a2 2 0 0 1-.426.04q-.39 0-.765-.169a1.5 1.5 0 0 1-.618-.512q-.242-.343-.242-.867zm3.59 7.437v-6h.891v.906h.062q.164-.446.594-.722.429-.278.969-.278.1 0 .254.004.152.005.23.012v.937a3 3 0 0 0-.215-.035 2 2 0 0 0-.347-.027q-.438 0-.782.184a1.4 1.4 0 0 0-.539.5q-.195.315-.195.722V80zm6.426.125q-.867 0-1.496-.383a2.56 2.56 0 0 1-.965-1.078q-.336-.694-.336-1.617 0-.922.336-1.625a2.65 2.65 0 0 1 .945-1.102q.609-.398 1.422-.398.469 0 .926.156.457.157.832.508.375.348.598.922t.222 1.414v.39h-4.625v-.796h3.688q0-.508-.203-.907a1.53 1.53 0 0 0-.571-.628 1.6 1.6 0 0 0-.867-.231q-.55 0-.953.273-.399.27-.613.704a2.06 2.06 0 0 0-.215.93v.53q0 .68.234 1.153.239.468.66.715.422.242.981.242.363 0 .656-.102.297-.105.512-.312.215-.21.332-.524l.89.25a2 2 0 0 1-.472.797 2.3 2.3 0 0 1-.821.531 3 3 0 0 1-1.097.188m5.652.016q-.57 0-1.035-.215a1.77 1.77 0 0 1-.738-.63q-.274-.413-.274-1 0-.515.203-.835.204-.324.543-.508.34-.183.75-.273.415-.094.832-.149.548-.07.887-.105.344-.04.5-.13.16-.088.16-.312v-.03q0-.579-.316-.9-.312-.32-.949-.32-.66 0-1.035.29-.375.288-.528.617l-.875-.313q.235-.547.625-.851.395-.31.86-.43.468-.126.921-.125.29 0 .664.07.38.066.731.277.356.211.59.637t.234 1.14V80h-.922v-.812h-.047q-.093.195-.312.418t-.582.378q-.363.157-.887.157m.141-.829q.547 0 .922-.214a1.47 1.47 0 0 0 .57-.555q.195-.34.195-.715v-.844q-.058.07-.258.13-.195.054-.453.097a20 20 0 0 1-.882.117q-.36.046-.672.153-.31.1-.5.308-.188.202-.188.555 0 .48.356.726.359.243.91.243m8.542-3.968-.828.234a1.5 1.5 0 0 0-.231-.402 1.1 1.1 0 0 0-.406-.328q-.258-.13-.66-.13-.55 0-.918.255-.363.25-.363.636 0 .344.25.543t.781.332l.89.22q.806.195 1.2.597.394.398.394 1.027 0 .516-.297.922-.292.406-.82.64-.527.235-1.227.235-.918 0-1.519-.398-.601-.399-.762-1.165l.875-.218q.125.484.473.726.351.243.918.243.644 0 1.023-.274.383-.277.383-.664a.7.7 0 0 0-.219-.523q-.219-.216-.672-.32l-1-.235q-.824-.195-1.211-.606-.382-.413-.382-1.035 0-.507.285-.898.289-.39.785-.614a2.8 2.8 0 0 1 1.133-.222q.891 0 1.398.39.512.39.727 1.032m5.278 2.203V74h.922v6h-.922v-1.016h-.062q-.211.457-.657.778-.446.316-1.125.316-.562 0-1-.246a1.73 1.73 0 0 1-.687-.75q-.25-.505-.25-1.27V74h.922v3.75q0 .657.367 1.047.37.39.945.39.344 0 .699-.175a1.5 1.5 0 0 0 .602-.54q.246-.362.246-.925m2.61 2.453v-6h.891v.906h.063a1.44 1.44 0 0 1 .593-.722 1.75 1.75 0 0 1 .969-.278q.101 0 .254.004.153.005.23.012v.937a3 3 0 0 0-.214-.035 2 2 0 0 0-.348-.027 1.6 1.6 0 0 0-.781.184q-.34.18-.539.5a1.34 1.34 0 0 0-.196.722V80zm6.426.125q-.867 0-1.496-.383a2.57 2.57 0 0 1-.965-1.078q-.336-.694-.336-1.617 0-.922.336-1.625.34-.707.946-1.102.61-.398 1.421-.398.47 0 .926.156.457.157.832.508.375.348.598.922t.223 1.414v.39h-4.625v-.796h3.687q0-.508-.203-.907a1.53 1.53 0 0 0-.57-.628 1.6 1.6 0 0 0-.868-.231q-.55 0-.953.273-.398.27-.613.704a2.1 2.1 0 0 0-.215.93v.53q0 .68.235 1.153.238.468.66.715.422.242.98.242.363 0 .656-.102.297-.105.512-.312.215-.21.332-.524l.891.25a2 2 0 0 1-.473.797 2.3 2.3 0 0 1-.82.531 3 3 0 0 1-1.098.188m8.137-4.781-.828.234a1.5 1.5 0 0 0-.231-.402 1.1 1.1 0 0 0-.406-.328q-.258-.13-.66-.13-.55 0-.918.255-.363.25-.363.636 0 .344.25.543t.781.332l.891.22q.804.195 1.199.597.394.398.394 1.027 0 .516-.297.922-.292.406-.82.64-.527.235-1.226.235-.918 0-1.52-.398-.602-.399-.762-1.165l.875-.218q.126.484.473.726.351.243.918.243.645 0 1.023-.274.383-.277.383-.664a.7.7 0 0 0-.219-.523q-.218-.216-.671-.32l-1-.235q-.825-.195-1.211-.606-.384-.413-.383-1.035 0-.507.285-.898.289-.39.785-.614a2.8 2.8 0 0 1 1.133-.222q.891 0 1.398.39a2.1 2.1 0 0 1 .727 1.032m2.169 4.719a.68.68 0 0 1-.496-.207.68.68 0 0 1-.207-.497q0-.288.207-.496a.68.68 0 0 1 .496-.207q.29 0 .496.207a.68.68 0 0 1 .207.496.66.66 0 0 1-.098.352.7.7 0 0 1-.254.258.67.67 0 0 1-.351.094" class="fill-secondary"/><path fill-rule="evenodd" d="M16 95.334a1 1 0 1 1 2 0 1 1 0 0 1-2 0m1.334 1.633a1.667 1.667 0 1 0-.667 0V102a.334.334 0 0 0 .666 0z" clip-rule="evenodd" class="fill-symbol"/><path d="M26.719 101v-6.91h2.59q.743 0 1.232.24.489.237.732.645t.243.917q0 .429-.162.726a1.3 1.3 0 0 1-.429.479q-.266.179-.593.26v.067q.354.02.688.226.334.202.55.577.216.371.216.9 0 .533-.253.959-.254.422-.773.668-.52.246-1.319.246zm1.15-.968h1.424q.715 0 1.029-.277a.9.9 0 0 0 .313-.698q0-.32-.158-.58a1.1 1.1 0 0 0-.452-.412 1.5 1.5 0 0 0-.695-.152h-1.461zm0-2.98h1.316q.337.001.607-.124.273-.128.428-.36a.96.96 0 0 0 .159-.554.9.9 0 0 0-.29-.688q-.29-.274-.877-.274h-1.343zm7.23 4.053q-.745 0-1.295-.334a2.3 2.3 0 0 1-.854-.938q-.3-.6-.3-1.4 0-.807.3-1.41.304-.605.854-.938.55-.334 1.295-.334.746 0 1.296.334.55.333.85.938.303.603.304 1.41 0 .8-.304 1.4-.3.6-.85.938-.55.333-1.296.334m.004-.915q.445 0 .735-.24.294-.238.439-.637.145-.4.145-.884 0-.486-.145-.887a1.43 1.43 0 0 0-.439-.644q-.29-.243-.735-.243-.45 0-.742.243-.294.24-.439.644a2.6 2.6 0 0 0-.145.887q0 .483.145.884.145.398.439.638.293.239.742.239m7.516-3.053-1.015.142a.94.94 0 0 0-.493-.577 1.15 1.15 0 0 0-.503-.098q-.404 0-.678.179-.27.18-.27.462 0 .243.183.391.182.15.59.247l.857.189q.725.161 1.08.506.354.344.357.897-.003.48-.28.847a1.8 1.8 0 0 1-.762.573 2.8 2.8 0 0 1-1.124.21q-.915 0-1.477-.385a1.6 1.6 0 0 1-.685-1.09l1.083-.135a.9.9 0 0 0 .36.557q.274.186.712.186.466 0 .746-.193.28-.195.283-.475a.5.5 0 0 0-.178-.388q-.172-.156-.54-.237l-.877-.192q-.74-.159-1.09-.523-.351-.368-.347-.924a1.3 1.3 0 0 1 .256-.816q.26-.35.722-.544a2.7 2.7 0 0 1 1.07-.195q.872 0 1.376.378.506.374.644 1.008m3.665-1.319v.877h-2.905v-.877zm-2.16-1.241h1.117v4.885q0 .266.081.408a.42.42 0 0 0 .213.189q.135.047.293.047.119 0 .21-.017l.144-.027.196.894q-.095.03-.266.068a2 2 0 0 1-.422.047 1.9 1.9 0 0 1-.786-.142 1.3 1.3 0 0 1-.57-.469q-.213-.317-.21-.796zm5.392 6.528q-.745 0-1.295-.334a2.3 2.3 0 0 1-.854-.938q-.3-.6-.3-1.4 0-.807.3-1.41.304-.605.854-.938.55-.334 1.295-.334.746 0 1.296.334.55.333.85.938.303.603.304 1.41 0 .8-.304 1.4-.3.6-.85.938-.55.333-1.296.334m.004-.915q.445 0 .735-.24.294-.238.439-.637.145-.4.145-.884 0-.486-.145-.887a1.43 1.43 0 0 0-.439-.644q-.29-.243-.735-.243-.45 0-.742.243-.294.24-.439.644a2.6 2.6 0 0 0-.145.887q0 .483.145.884.145.398.439.638.293.239.742.239m4.642-2.246V101h-1.117v-5.182h1.07v.864h.064q.179-.426.566-.678.39-.253.969-.253.532 0 .93.226.399.225.618.661.223.435.223 1.066V101h-1.117v-3.14q0-.544-.28-.848-.28-.306-.772-.307-.337 0-.598.145-.26.146-.408.422a1.4 1.4 0 0 0-.148.671M62.025 101h-1.221l2.459-6.91h1.373l2.46 6.91h-1.222l-1.9-5.573h-.053zm.111-2.706h3.617v.938h-3.617zm8.027-2.476v.877H67.26v-.877zm-2.159-1.241h1.117v4.885q0 .266.081.408a.42.42 0 0 0 .213.189q.135.047.293.047.118 0 .21-.017l.144-.027.196.894q-.095.03-.266.068a2 2 0 0 1-.422.047 1.9 1.9 0 0 1-.786-.142 1.3 1.3 0 0 1-.57-.469q-.213-.317-.21-.796zm4.453 3.367V101H71.34v-6.91h1.096v2.592h.065a1.47 1.47 0 0 1 .556-.682q.38-.25.979-.25.536 0 .937.223.402.223.621.658.223.435.223 1.073V101H74.7v-3.14q0-.547-.28-.85-.28-.305-.782-.305-.341 0-.611.145a1.03 1.03 0 0 0-.418.422 1.4 1.4 0 0 0-.152.671m6.92 3.161q-.772 0-1.332-.328a2.2 2.2 0 0 1-.86-.927q-.3-.6-.3-1.407 0-.8.3-1.407.303-.608.847-.945.543-.34 1.275-.34.462 0 .88.148.42.149.746.466.327.313.516.81.192.495.192 1.187v.364h-4.186v-.79h3.103a1.4 1.4 0 0 0-.155-.66 1.16 1.16 0 0 0-.435-.463 1.2 1.2 0 0 0-.648-.168 1.27 1.27 0 0 0-1.164.698q-.162.314-.165.681v.652q0 .485.175.83.176.343.49.526.314.179.732.179.28 0 .506-.078.226-.081.388-.236.165-.158.253-.392l1.049.152q-.112.435-.412.763a2 2 0 0 1-.755.506q-.456.179-1.04.179m4.454-3.162V101h-1.117v-5.182h1.07v.864h.064q.179-.426.566-.678.388-.253.969-.253.533 0 .93.226.399.225.618.661.223.435.223 1.066V101h-1.117v-3.14q0-.544-.28-.848-.28-.306-.773-.307-.336 0-.597.145-.26.146-.408.422a1.4 1.4 0 0 0-.148.671m10.055 3.162q-.793 0-1.35-.368a1.7 1.7 0 0 1-.718-.999l.05-2.813q.288-.574.766-.874.48-.3 1.137-.3.459 0 .877.148.42.149.75.466.326.313.515.81.19.495.19 1.187v.364h-4.13v-.79h3.05a1.4 1.4 0 0 0-.159-.66 1.14 1.14 0 0 0-.432-.463 1.2 1.2 0 0 0-.648-.168q-.4 0-.701.192a1.33 1.33 0 0 0-.462.51q-.162.313-.166.678v.65q0 .487.176.83.175.344.489.527.314.179.732.179.276 0 .503-.078.23-.081.391-.236.165-.158.253-.392l1.05.152q-.112.435-.412.763-.3.324-.75.506-.444.179-1.001.179m-3.67-.847q.393 0 .677-.155a1.15 1.15 0 0 0 .436-.412 1.05 1.05 0 0 0 .155-.553v-.641a.6.6 0 0 1-.203.094 4 4 0 0 1-.327.075q-.181.03-.357.053l-.3.04a2.5 2.5 0 0 0-.51.126.85.85 0 0 0-.365.243.6.6 0 0 0-.135.408q0 .357.264.54.263.182.664.182m-.227.85q-.513 0-.917-.179a1.45 1.45 0 0 1-.638-.529q-.23-.351-.23-.857 0-.442.166-.726a1.3 1.3 0 0 1 .452-.452q.283-.172.638-.256.354-.088.725-.128.462-.054.745-.091.288-.04.419-.122.13-.082.131-.256v-.024q0-.408-.24-.634-.235-.226-.69-.226-.477 0-.757.209-.28.21-.38.48l-1.043-.19q.151-.472.469-.776.317-.306.755-.452a2.96 2.96 0 0 1 1.428-.104q.249.04.489.148.243.105.435.3.192.196.3.506l-.243 3.354h-.077q-.121.29-.409.519a2.2 2.2 0 0 1-.684.358 2.8 2.8 0 0 1-.844.128m10.484-2.27v-3.02h1.114V101H100.5v-.911h-.054q-.178.425-.573.702t-.982.276q-.503 0-.89-.222a1.56 1.56 0 0 1-.604-.661q-.22-.435-.22-1.07v-3.296h1.117v3.141q0 .513.28.816.284.3.736.301.279 0 .546-.135.267-.14.442-.412.175-.276.175-.691m2.419 2.162v-5.182h1.07v.864h.064q.162-.439.529-.685.372-.246.888-.246.523 0 .88.25.361.245.52.68h.054q.178-.425.583-.677.409-.253.972-.253.708 0 1.157.448.449.446.449 1.326V101h-1.117v-3.333q0-.507-.27-.736a.98.98 0 0 0-.654-.229q-.47 0-.732.29-.26.287-.26.739V101h-1.1v-3.39q0-.412-.253-.658a.9.9 0 0 0-.654-.25.94.94 0 0 0-.506.142 1.04 1.04 0 0 0-.368.395q-.135.252-.135.587V101z" class="fill-accent"/><g clip-path="url(#clip1_8396_53482)"><path fill-rule="evenodd" d="M128 93.585a4.415 4.415 0 1 0 0 8.83 4.415 4.415 0 0 0 0-8.83M124.218 98a3.782 3.782 0 1 1 7.565.001 3.782 3.782 0 0 1-7.565 0m4.115-2a.333.333 0 1 0-.666 0v2c0 .089.035.174.097.236l1.334 1.333a.333.333 0 1 0 .471-.471l-1.236-1.236z" clip-rule="evenodd" class="fill-symbol"/></g><path d="M141.278 94.09V101h-1.147v-5.776h-.041l-1.633 1.053v-1.073l1.718-1.113zm2.904 6.91v-.83l2.371-2.388q.358-.372.594-.655t.354-.543a1.3 1.3 0 0 0 .118-.557q0-.337-.155-.58a1 1 0 0 0-.425-.374 1.4 1.4 0 0 0-.611-.132q-.354 0-.62.145a1 1 0 0 0-.412.412 1.3 1.3 0 0 0-.145.63h-1.09q0-.643.294-1.123.293-.48.809-.742a2.56 2.56 0 0 1 1.185-.267q.674 0 1.184.26.513.26.796.709.287.445.287 1.012 0 .387-.145.759-.145.371-.51.826a13 13 0 0 1-1.015 1.097l-1.279 1.322v.051h3.057V101zm8.611.121q-.813 0-1.396-.421-.58-.421-.891-1.222-.31-.799-.307-1.93 0-1.125.31-1.919.31-.795.891-1.214.584-.42 1.393-.419.813 0 1.394.419.584.418.894 1.214t.31 1.92q0 1.133-.31 1.933t-.891 1.221q-.58.418-1.397.418m0-.975q.675 0 1.063-.66.388-.666.385-1.937 0-.84-.176-1.417-.175-.577-.499-.874a1.1 1.1 0 0 0-.773-.297q-.667 0-1.056.665-.387.66-.387 1.923-.004.846.172 1.427.175.577.499.874a1.1 1.1 0 0 0 .772.296m6.252.854v-5.182h1.069v.864h.064q.162-.439.53-.685.37-.246.887-.246.523 0 .881.25.36.245.519.68h.054q.179-.425.584-.677.408-.253.971-.253.709 0 1.157.448.45.446.449 1.326V101h-1.117v-3.333q0-.507-.269-.736a.98.98 0 0 0-.655-.229q-.469 0-.732.29-.26.287-.26.739V101h-1.099v-3.39q0-.412-.254-.658a.9.9 0 0 0-.654-.25.95.95 0 0 0-.506.142 1.04 1.04 0 0 0-.368.395q-.135.252-.135.587V101zm8.461 0v-5.182h1.116V101zm.563-5.948a.68.68 0 0 1-.476-.185.6.6 0 0 1-.195-.449q0-.26.195-.445a.68.68 0 0 1 .476-.186.66.66 0 0 1 .472.186.59.59 0 0 1 .199.445.6.6 0 0 1-.199.449.66.66 0 0 1-.472.185m2.975 2.891V101h-1.117v-5.182h1.069v.864h.065q.179-.426.566-.678.389-.253.968-.253.533 0 .932.226.398.225.617.661.223.435.223 1.066V101h-1.117v-3.14q0-.544-.28-.848-.28-.306-.773-.307-.338 0-.597.145a1.03 1.03 0 0 0-.408.422 1.4 1.4 0 0 0-.148.671m8.607-.806-1.015.142a.95.95 0 0 0-.493-.577 1.15 1.15 0 0 0-.502-.098q-.405 0-.678.179-.27.18-.27.462 0 .243.182.391.182.15.59.247l.857.189q.726.161 1.08.506.354.344.357.897-.003.48-.28.847a1.8 1.8 0 0 1-.762.573 2.8 2.8 0 0 1-1.124.21q-.914 0-1.477-.385a1.6 1.6 0 0 1-.685-1.09l1.083-.135a.9.9 0 0 0 .361.557q.273.186.712.186.466 0 .745-.193.28-.195.284-.475a.5.5 0 0 0-.179-.388q-.173-.156-.54-.237l-.877-.192q-.74-.159-1.09-.523-.35-.368-.347-.924a1.3 1.3 0 0 1 .256-.816q.26-.35.722-.544a2.7 2.7 0 0 1 1.07-.195q.873 0 1.376.378.506.374.644 1.008" class="fill-accent"/><path d="M0 111.5h256" class="stroke-divider"/><path d="M20.753 128.5h-1.145a2.38 2.38 0 0 0-.965-1.496 2.6 2.6 0 0 0-.79-.388 3.2 3.2 0 0 0-.904-.129q-.859 0-1.556.434-.693.434-1.103 1.279-.406.844-.406 2.073 0 1.227.406 2.073.411.844 1.103 1.278.697.434 1.556.434.47 0 .905-.129a2.7 2.7 0 0 0 .79-.383 2.43 2.43 0 0 0 .964-1.501h1.145a3.8 3.8 0 0 1-.471 1.298q-.341.572-.85.974a3.8 3.8 0 0 1-1.14.605 4.3 4.3 0 0 1-1.343.207q-1.21 0-2.151-.591-.942-.591-1.482-1.68-.54-1.09-.54-2.585 0-1.496.54-2.585.54-1.09 1.482-1.681.94-.591 2.15-.591.717 0 1.344.208a3.7 3.7 0 0 1 1.14.609q.509.397.85.97.342.567.47 1.297m4.583 6.648q-.96 0-1.685-.457a3.1 3.1 0 0 1-1.127-1.279q-.4-.822-.401-1.921 0-1.107.401-1.934.407-.827 1.127-1.283.725-.457 1.685-.457t1.68.457q.725.456 1.127 1.283.406.827.406 1.934 0 1.1-.406 1.921a3.06 3.06 0 0 1-1.127 1.279q-.72.456-1.68.457m0-.979q.729 0 1.2-.374.47-.374.697-.983.226-.61.226-1.321a3.8 3.8 0 0 0-.226-1.324 2.23 2.23 0 0 0-.697-.993q-.471-.379-1.2-.379t-1.2.379a2.23 2.23 0 0 0-.697.993 3.8 3.8 0 0 0-.227 1.324q0 .711.227 1.321.226.61.697.983.471.374 1.2.374m7.757.979q-.998 0-1.718-.471a3.07 3.07 0 0 1-1.108-1.297q-.387-.827-.387-1.889 0-1.08.397-1.906.401-.831 1.117-1.297.72-.471 1.68-.471.748 0 1.348.277.6.276.984.775.382.499.475 1.164h-1.09a1.7 1.7 0 0 0-.553-.859q-.425-.379-1.145-.379-.637 0-1.118.333-.475.327-.743.928-.263.595-.263 1.399 0 .82.259 1.431.262.609.738.946.48.337 1.127.337.425 0 .77-.148.347-.148.587-.424.24-.278.341-.665h1.09a2.5 2.5 0 0 1-.457 1.131q-.36.498-.956.794-.59.291-1.375.291m5.396-2.733-.018-1.348h.222l3.102-3.158h1.348l-3.306 3.342h-.092zM37.474 135v-9.455h1.09V135zm4.505 0-2.77-3.509.776-.757 3.38 4.266zm5.65-7.091v.923h-3.675v-.923zm-2.604-1.699h1.09v6.759q0 .462.133.692.14.227.351.305.217.074.457.074a1.8 1.8 0 0 0 .48-.056l.222.979a2 2 0 0 1-.31.083q-.198.046-.502.046-.462 0-.905-.198a1.8 1.8 0 0 1-.73-.605q-.286-.406-.286-1.025zm6.33 8.956a2.9 2.9 0 0 1-1.224-.254 2.1 2.1 0 0 1-.873-.743q-.323-.489-.323-1.182 0-.609.24-.988.24-.383.642-.6t.886-.323q.49-.11.984-.175.645-.084 1.048-.125.405-.047.59-.152.19-.106.19-.37v-.037q0-.683-.374-1.061-.369-.38-1.122-.379-.78 0-1.223.342-.444.34-.623.729l-1.035-.369q.277-.647.739-1.007a2.8 2.8 0 0 1 1.016-.508q.553-.147 1.09-.147.341 0 .784.083.447.078.863.328.42.25.697.752.277.504.277 1.348V135h-1.09v-.96h-.055a2 2 0 0 1-.369.494 2.2 2.2 0 0 1-.688.448q-.429.184-1.048.184m.166-.978q.646 0 1.089-.254a1.73 1.73 0 0 0 .905-1.501v-.997q-.07.083-.305.152a5 5 0 0 1-.535.116 25 25 0 0 1-1.044.138 4 4 0 0 0-.794.18 1.4 1.4 0 0 0-.59.365q-.222.24-.222.656 0 .567.42.858.425.287 1.075.287m5.072.812v-7.091h1.09V135zm.554-8.273a.77.77 0 0 1-.55-.217.7.7 0 0 1-.226-.521q0-.304.226-.522a.77.77 0 0 1 .55-.217q.318 0 .545.217.23.218.23.522a.69.69 0 0 1-.23.521.76.76 0 0 1-.545.217m3.62-1.182V135h-1.09v-9.455zm5.8 9.455v-9.455h1.145v4.211h5.04v-4.211h1.146V135h-1.145v-4.229h-5.041V135zm12.356.148q-.96 0-1.685-.457a3.1 3.1 0 0 1-1.127-1.279q-.4-.822-.401-1.921 0-1.107.401-1.934.407-.827 1.127-1.283.725-.457 1.685-.457t1.68.457q.725.456 1.127 1.283.406.827.406 1.934 0 1.1-.406 1.921a3.06 3.06 0 0 1-1.127 1.279q-.72.456-1.68.457m0-.979q.729 0 1.2-.374.47-.374.697-.983.226-.61.226-1.321a3.8 3.8 0 0 0-.226-1.324 2.23 2.23 0 0 0-.697-.993q-.471-.379-1.2-.379-.73 0-1.2.379a2.23 2.23 0 0 0-.698.993 3.8 3.8 0 0 0-.226 1.324q0 .711.226 1.321.227.61.697.983.472.374 1.2.374m9.345-2.068v-4.192h1.09V135h-1.09v-1.2h-.074q-.25.54-.776.918-.525.375-1.33.374-.663 0-1.181-.291a2.03 2.03 0 0 1-.813-.886q-.295-.595-.295-1.5v-4.506h1.09v4.432q0 .775.433 1.237.44.462 1.117.462.407 0 .827-.208.425-.207.71-.637.292-.43.292-1.094M91.353 135v-7.091h1.052v1.071h.074q.194-.526.702-.854a2.07 2.07 0 0 1 1.145-.328q.12 0 .3.005t.272.014v1.108a3 3 0 0 0-.254-.042 2.6 2.6 0 0 0-.41-.032q-.517 0-.924.217-.402.211-.637.591-.23.374-.23.854V135z" class="fill-primary"/><path d="M178 123.5a1.5 1.5 0 0 1 1.5-1.5h63a1.5 1.5 0 0 1 1.5 1.5v13a1.5 1.5 0 0 1-1.5 1.5h-63a1.5 1.5 0 0 1-1.5-1.5z" class="fill-tone"/><path d="M183.239 133v-6.909h4.143v.742h-3.306v2.335h2.996v.742h-2.996V133zm7.193.108q-.702 0-1.232-.334a2.27 2.27 0 0 1-.823-.935q-.293-.6-.293-1.403 0-.81.293-1.413.297-.605.823-.938.53-.334 1.232-.334t1.228.334q.53.333.823.938.297.603.297 1.413 0 .803-.297 1.403a2.24 2.24 0 0 1-.823.935q-.526.334-1.228.334m0-.715q.532 0 .877-.274.344-.273.509-.718.166-.446.166-.965 0-.52-.166-.968a1.63 1.63 0 0 0-.509-.725q-.345-.277-.877-.277-.534 0-.877.277-.345.276-.51.725t-.165.968.165.965.51.718q.343.274.877.274m5.668.715q-.702 0-1.231-.334a2.27 2.27 0 0 1-.823-.935q-.294-.6-.294-1.403 0-.81.294-1.413.297-.605.823-.938.53-.334 1.231-.334t1.228.334q.53.333.823.938.297.603.297 1.413 0 .803-.297 1.403-.293.601-.823.935-.526.334-1.228.334m0-.715q.534 0 .877-.274.345-.273.51-.718.165-.446.165-.965 0-.52-.165-.968a1.6 1.6 0 0 0-.51-.725q-.343-.277-.877-.277-.533 0-.877.277a1.63 1.63 0 0 0-.509.725 2.8 2.8 0 0 0-.166.968q0 .52.166.965.165.445.509.718.344.274.877.274m5.52.715q-.648 0-1.143-.327a2.2 2.2 0 0 1-.776-.931q-.28-.605-.28-1.427 0-.817.28-1.417t.779-.928a2.06 2.06 0 0 1 1.154-.327q.506 0 .799.168.297.167.452.378.159.21.247.344h.067v-2.55h.796V133h-.769v-.796h-.094a6 6 0 0 1-.25.357 1.5 1.5 0 0 1-.462.382q-.3.165-.8.165m.108-.715q.48 0 .81-.25a1.56 1.56 0 0 0 .502-.698q.173-.449.173-1.036 0-.58-.169-1.015a1.5 1.5 0 0 0-.499-.682q-.331-.246-.817-.246-.505 0-.843.26-.334.256-.503.698a2.8 2.8 0 0 0-.165.985q0 .553.168 1.005.173.45.506.716.338.263.837.263m8.464.701q-.68 0-1.174-.249a1.85 1.85 0 0 1-.759-.685 1.87 1.87 0 0 1-.266-.995q0-.432.182-.766.186-.337.509-.624a7 7 0 0 1 .753-.58l.998-.743q.294-.192.469-.411.179-.22.179-.574 0-.263-.233-.509a.79.79 0 0 0-.604-.246.8.8 0 0 0-.465.135.96.96 0 0 0-.314.337.86.86 0 0 0-.111.418q0 .243.131.493.135.246.341.506l.432.526 3.171 3.873h-.958l-2.618-3.158-.661-.796a3.8 3.8 0 0 1-.472-.705 1.65 1.65 0 0 1-.176-.752q0-.466.206-.817.209-.354.584-.55.377-.199.883-.199.52 0 .894.203.375.199.577.53.203.327.203.711 0 .497-.247.861a2.8 2.8 0 0 1-.671.678l-1.376 1.025q-.466.344-.631.668t-.165.466q0 .324.168.604.169.28.476.452t.718.172q.391 0 .763-.166a2.1 2.1 0 0 0 .671-.485q.304-.318.479-.763.179-.446.179-1.002h.769q0 .689-.158 1.124-.159.435-.358.681a5 5 0 0 1-.32.368 2 2 0 0 0-.075.101 1 1 0 0 1-.074.101q-.334.375-.843.56-.51.183-1.006.182m9.032-.094h-2.132v-6.909h2.227q1.005 0 1.72.415.716.411 1.097 1.184.381.77.381 1.842 0 1.08-.385 1.859a2.74 2.74 0 0 1-1.12 1.194q-.735.415-1.788.415m-1.295-.742h1.241q.858 0 1.421-.331.563-.33.84-.941.276-.61.276-1.454 0-.837-.273-1.441a2 2 0 0 0-.816-.931q-.543-.327-1.353-.327h-1.336zm5.883.742v-5.182h.77v.783h.054q.141-.385.512-.624.372-.24.837-.24a6 6 0 0 1 .418.014v.809a3 3 0 0 0-.485-.054q-.378 0-.675.159a1.2 1.2 0 0 0-.466.432q-.168.273-.168.624V133zm3.535 0v-5.182h.796V133zm.405-6.045a.57.57 0 0 1-.402-.159.5.5 0 0 1-.165-.381q0-.224.165-.381a.57.57 0 0 1 .402-.159q.233 0 .398.159a.5.5 0 0 1 .169.381.5.5 0 0 1-.169.381.55.55 0 0 1-.398.159m2.646 2.928V133h-.797v-5.182h.77v.81h.067q.183-.395.553-.634.371-.243.959-.243.525 0 .92.216.395.212.614.647.22.432.22 1.093V133h-.796v-3.239q0-.61-.318-.951-.317-.344-.87-.344a1.4 1.4 0 0 0-.681.165q-.298.165-.469.483a1.6 1.6 0 0 0-.172.769m5.503 1.228-.014-.985h.162l2.267-2.308h.985l-2.415 2.443h-.068zm-.742 1.889v-6.909h.796V133zm3.292 0-2.024-2.564.567-.553 2.469 3.117z" class="fill-primary"/><path d="M17.344 148a1.23 1.23 0 0 0-.57-.922q-.501-.328-1.227-.328-.531 0-.93.172a1.5 1.5 0 0 0-.617.473 1.13 1.13 0 0 0-.219.683q0 .32.153.551.156.226.398.379.241.148.508.246.266.093.488.152l.813.219a7 7 0 0 1 .695.227q.387.144.738.394.355.246.586.633t.23.949q0 .648-.34 1.172-.334.523-.984.832-.644.309-1.566.309-.86 0-1.488-.278a2.37 2.37 0 0 1-.985-.773 2.2 2.2 0 0 1-.402-1.152h1q.04.453.305.749.27.294.68.438.413.141.89.141.555 0 .996-.18.44-.183.7-.508.257-.328.257-.766 0-.397-.223-.648a1.6 1.6 0 0 0-.585-.406 6 6 0 0 0-.786-.274l-.984-.281q-.938-.27-1.484-.769-.547-.5-.547-1.309 0-.672.363-1.172.367-.504.984-.781a3.3 3.3 0 0 1 1.387-.281q.774 0 1.375.277.602.273.953.75.355.477.375 1.082zm2.514 6v-6h.891v.937h.078q.188-.48.606-.746.417-.269 1.003-.269.594 0 .989.269.398.266.62.746h.063q.23-.464.692-.738.461-.277 1.105-.277.805 0 1.317.504.51.5.511 1.558V154h-.922v-4.016q0-.663-.363-.949a1.35 1.35 0 0 0-.855-.285q-.633 0-.98.383-.348.379-.348.961V154h-.938v-4.109q0-.512-.332-.825-.332-.316-.855-.316-.36 0-.672.191a1.45 1.45 0 0 0-.5.532 1.57 1.57 0 0 0-.188.777V154zm11.327.141q-.57 0-1.036-.215a1.8 1.8 0 0 1-.738-.629q-.273-.415-.273-1 0-.516.203-.836a1.44 1.44 0 0 1 .543-.508q.339-.183.75-.273.414-.094.832-.149.546-.07.886-.105.344-.039.5-.129.16-.09.16-.313v-.031q0-.578-.316-.898-.312-.321-.949-.321-.66 0-1.035.289-.375.29-.527.618l-.875-.313q.234-.546.625-.851.394-.309.859-.43.468-.125.922-.125.288 0 .664.07.379.066.73.278.356.21.59.636t.235 1.141V154h-.922v-.813h-.047q-.094.196-.313.418a1.8 1.8 0 0 1-.582.379q-.363.157-.886.157m.14-.829q.547 0 .922-.214a1.47 1.47 0 0 0 .766-1.27v-.844q-.06.07-.258.129-.195.055-.453.098a22 22 0 0 1-.883.117q-.36.047-.672.152a1.16 1.16 0 0 0-.5.309q-.187.202-.187.555 0 .48.355.726.36.243.91.242M36.54 146v8h-.922v-8zm2.61 0v8h-.922v-8zm4.783 10.25V148h.89v.953h.11q.101-.156.28-.398.185-.246.524-.438.345-.195.93-.195.757 0 1.336.379.578.378.902 1.074.324.695.324 1.641 0 .953-.324 1.652a2.55 2.55 0 0 1-.898 1.078 2.35 2.35 0 0 1-1.324.379q-.579 0-.926-.191a1.7 1.7 0 0 1-.535-.442 6 6 0 0 1-.29-.414h-.078v3.172zm.906-5.25q0 .68.2 1.199.198.515.581.809.383.29.938.289.578 0 .965-.305.39-.309.585-.828.2-.524.2-1.164a3.2 3.2 0 0 0-.196-1.141 1.76 1.76 0 0 0-.582-.808q-.387-.301-.972-.301-.562 0-.946.285a1.7 1.7 0 0 0-.578.789q-.195.504-.195 1.176m6.719-5v8h-.922v-8zm3.454 8.141q-.57 0-1.035-.215a1.8 1.8 0 0 1-.739-.629q-.273-.415-.273-1 0-.516.203-.836a1.44 1.44 0 0 1 .543-.508 2.9 2.9 0 0 1 .75-.273 9 9 0 0 1 .832-.149q.547-.07.887-.105.343-.039.5-.129.16-.09.16-.313v-.031q0-.578-.316-.898-.313-.321-.95-.321-.66 0-1.035.289-.375.29-.527.618l-.875-.313q.234-.546.625-.851.395-.309.86-.43.468-.125.921-.125.29 0 .664.07.38.066.73.278.356.21.59.636.235.426.235 1.141V154h-.922v-.813h-.047q-.094.196-.312.418-.219.223-.582.379-.364.157-.887.157m.14-.829q.547 0 .922-.214a1.47 1.47 0 0 0 .766-1.27v-.844q-.06.07-.258.129a4 4 0 0 1-.453.098 22 22 0 0 1-.883.117q-.36.047-.672.152a1.16 1.16 0 0 0-.5.309q-.187.202-.187.555 0 .48.355.726.36.243.91.242M62.053 148v.781h-3.11V148zm-2.203-1.438h.922v5.719q0 .391.113.586a.6.6 0 0 0 .297.258q.182.063.386.062.153 0 .25-.015l.157-.031.187.828q-.093.035-.262.07a2 2 0 0 1-.425.039q-.39 0-.766-.168a1.5 1.5 0 0 1-.617-.512q-.242-.344-.242-.867zm6.04 7.563q-.867 0-1.496-.383a2.57 2.57 0 0 1-.964-1.078q-.336-.695-.336-1.617t.336-1.625q.339-.707.945-1.102.609-.398 1.422-.398.468 0 .926.156.457.157.832.508.375.348.597.922.223.574.223 1.414v.39H63.75v-.796h3.688a2 2 0 0 0-.204-.907 1.54 1.54 0 0 0-.57-.629 1.6 1.6 0 0 0-.867-.23q-.55 0-.953.273-.399.27-.613.704a2.1 2.1 0 0 0-.215.929v.532q0 .68.234 1.152.239.468.66.715.422.242.98.242.365 0 .657-.102a1.4 1.4 0 0 0 .512-.312 1.4 1.4 0 0 0 .332-.524l.89.25a2 2 0 0 1-.472.797 2.3 2.3 0 0 1-.82.531 3 3 0 0 1-1.098.188m8.137-4.781-.828.234a1.5 1.5 0 0 0-.23-.402 1.1 1.1 0 0 0-.406-.328q-.258-.129-.66-.129-.552 0-.919.254-.363.25-.363.636 0 .345.25.543.25.2.781.332l.891.219q.804.196 1.2.598.394.398.394 1.027 0 .516-.297.922a2 2 0 0 1-.82.641q-.527.234-1.227.234-.918 0-1.52-.398-.6-.399-.761-1.165l.875-.218q.124.484.472.726.352.243.918.242.645 0 1.024-.273.383-.277.383-.664a.7.7 0 0 0-.22-.523q-.218-.215-.671-.321l-1-.234q-.825-.195-1.211-.606-.383-.414-.383-1.035 0-.507.285-.898.29-.391.785-.613a2.75 2.75 0 0 1 1.133-.223q.89 0 1.399.39.51.391.726 1.032m6.357 4.797q-.57 0-1.035-.215a1.8 1.8 0 0 1-.739-.629q-.273-.415-.273-1 0-.516.203-.836a1.44 1.44 0 0 1 .543-.508q.34-.183.75-.273.414-.094.832-.149.547-.07.887-.105.344-.039.5-.129.16-.09.16-.313v-.031q0-.578-.317-.898-.312-.321-.949-.321-.66 0-1.035.289-.375.29-.527.618l-.875-.313q.234-.546.625-.851.395-.309.86-.43.468-.125.921-.125.29 0 .664.07.38.066.73.278.356.21.59.636.235.426.235 1.141V154h-.922v-.813h-.047q-.094.196-.312.418a1.8 1.8 0 0 1-.582.379q-.364.157-.887.157m.14-.829q.547 0 .922-.214a1.47 1.47 0 0 0 .766-1.27v-.844q-.06.07-.258.129-.195.055-.453.098a22 22 0 0 1-.883.117q-.36.047-.672.152a1.16 1.16 0 0 0-.5.309q-.187.202-.187.555 0 .48.355.726.36.243.91.242m5.214-2.921V154h-.922v-6h.891v.937h.078q.21-.456.64-.734.43-.28 1.11-.281.61 0 1.067.25.456.246.71.75.254.5.254 1.266V154h-.922v-3.75q0-.707-.367-1.102-.366-.398-1.008-.398-.441 0-.788.191-.344.192-.543.559t-.2.891m7.779 3.734q-.75 0-1.325-.379a2.56 2.56 0 0 1-.898-1.078q-.324-.7-.324-1.652 0-.946.324-1.641t.902-1.074 1.336-.379q.586 0 .926.195.345.192.523.438.184.242.286.398h.078V146h.922v8h-.891v-.922h-.11a6 6 0 0 1-.288.414 1.7 1.7 0 0 1-.536.442q-.347.19-.925.191m.125-.828q.555 0 .937-.289.383-.294.582-.809.2-.52.2-1.199 0-.672-.196-1.176a1.7 1.7 0 0 0-.578-.789q-.383-.285-.945-.285-.586 0-.977.301a1.8 1.8 0 0 0-.582.808 3.2 3.2 0 0 0-.191 1.141q0 .64.195 1.164.2.519.586.828.39.305.969.305m9.972.828q-.844 0-1.453-.398a2.6 2.6 0 0 1-.937-1.098q-.328-.7-.328-1.598 0-.914.335-1.613.34-.703.946-1.098.609-.398 1.422-.398.633 0 1.14.234.508.234.832.656.325.423.403.985h-.922a1.44 1.44 0 0 0-.469-.727q-.36-.32-.969-.32-.538 0-.945.281a1.84 1.84 0 0 0-.629.785q-.222.504-.223 1.184 0 .695.219 1.211.223.516.625.801.407.285.953.285.36 0 .653-.125a1.34 1.34 0 0 0 .785-.922h.922a2.13 2.13 0 0 1-1.196 1.629q-.5.246-1.164.246m3.707-.125v-6h.891v.906h.062q.165-.446.594-.722a1.75 1.75 0 0 1 .969-.278q.102 0 .254.004t.23.012v.937a3.5 3.5 0 0 0-.562-.062q-.438 0-.781.183-.34.18-.54.5a1.35 1.35 0 0 0-.195.723V154zm5.859.141q-.571 0-1.035-.215a1.8 1.8 0 0 1-.739-.629q-.273-.415-.273-1 0-.516.203-.836.203-.324.543-.508.339-.183.75-.273.414-.094.832-.149.547-.07.887-.105.343-.039.5-.129.16-.09.16-.313v-.031q0-.578-.317-.898-.312-.321-.949-.321-.66 0-1.035.289-.375.29-.527.618l-.875-.313q.234-.546.625-.851a2.3 2.3 0 0 1 .859-.43q.47-.125.922-.125.29 0 .664.07.38.066.73.278.356.21.59.636.235.426.235 1.141V154h-.922v-.813h-.047q-.094.196-.313.418a1.8 1.8 0 0 1-.582.379q-.363.157-.886.157m.14-.829q.547 0 .922-.214.38-.215.57-.555.196-.34.196-.715v-.844q-.058.07-.258.129-.195.055-.453.098a22 22 0 0 1-.883.117q-.36.047-.672.152a1.16 1.16 0 0 0-.5.309q-.187.202-.187.555 0 .48.355.726.36.243.91.242m6.964-5.312v.781h-3.234V148zm-2.265 6v-6.828q0-.516.242-.86t.629-.515q.386-.172.816-.172.34 0 .555.055.215.054.32.101l-.266.797a4 4 0 0 0-.195-.058 1.2 1.2 0 0 0-.32-.036q-.458 0-.66.231-.2.23-.2.676V154zm6.167-6v.781h-3.11V148zm-2.204-1.438h.922v5.719q0 .391.114.586a.6.6 0 0 0 .296.258q.184.063.387.062.153 0 .25-.015l.156-.031.188.828q-.094.035-.262.07a2 2 0 0 1-.426.039q-.39 0-.765-.168a1.5 1.5 0 0 1-.617-.512q-.243-.344-.243-.867zm6.041 7.563q-.867 0-1.496-.383a2.57 2.57 0 0 1-.964-1.078q-.336-.695-.336-1.617t.336-1.625q.339-.707.945-1.102.609-.398 1.422-.398.469 0 .925.156.458.157.833.508.375.348.597.922.223.574.223 1.414v.39h-4.625v-.796h3.687q0-.508-.203-.907a1.54 1.54 0 0 0-.57-.629 1.6 1.6 0 0 0-.867-.23q-.55 0-.953.273-.399.27-.614.704a2.1 2.1 0 0 0-.215.929v.532q0 .68.235 1.152.239.468.66.715.422.242.98.242.364 0 .657-.102.297-.105.511-.312.215-.211.332-.524l.891.25a2 2 0 0 1-.473.797 2.3 2.3 0 0 1-.82.531 3 3 0 0 1-1.098.188m6.153 0q-.75 0-1.324-.379a2.55 2.55 0 0 1-.899-1.078q-.324-.7-.324-1.652 0-.946.324-1.641t.902-1.074a2.4 2.4 0 0 1 1.336-.379q.587 0 .926.195.344.192.524.438.183.242.285.398h.078V146h.922v8h-.891v-.922h-.109a6 6 0 0 1-.289.414 1.7 1.7 0 0 1-.535.442q-.348.19-.926.191m.125-.828q.555 0 .937-.289a1.8 1.8 0 0 0 .582-.809q.2-.52.2-1.199 0-.672-.196-1.176a1.7 1.7 0 0 0-.578-.789q-.382-.285-.945-.285-.586 0-.977.301a1.8 1.8 0 0 0-.582.808 3.2 3.2 0 0 0-.191 1.141q0 .64.195 1.164.2.519.586.828.39.305.969.305m11.629 2.953v-3.172h-.078a6 6 0 0 1-.289.414 1.7 1.7 0 0 1-.536.442q-.347.19-.925.191-.75 0-1.325-.379a2.56 2.56 0 0 1-.898-1.078q-.324-.7-.324-1.652 0-.946.324-1.641t.902-1.074a2.4 2.4 0 0 1 1.336-.379q.586 0 .926.195.344.192.523.438.184.242.286.398h.109V148h.891v8.25zm-1.703-2.953q.554 0 .937-.289.382-.294.582-.809a3.3 3.3 0 0 0 .199-1.199q0-.672-.195-1.176a1.7 1.7 0 0 0-.578-.789q-.382-.285-.945-.285-.587 0-.977.301a1.8 1.8 0 0 0-.582.808 3.2 3.2 0 0 0-.191 1.141q0 .64.195 1.164.2.519.586.828.39.305.969.305m8.093-1.75V148h.922v6h-.922v-1.016h-.062a2 2 0 0 1-.656.778q-.446.316-1.125.316-.563 0-1-.246a1.73 1.73 0 0 1-.688-.75q-.25-.504-.25-1.27V148h.922v3.75q0 .656.367 1.047.372.39.945.39.345 0 .7-.175.359-.176.601-.539.246-.364.246-.926m4.376 2.594q-.57 0-1.035-.215a1.8 1.8 0 0 1-.738-.629q-.273-.415-.274-1 0-.516.204-.836.202-.324.543-.508.339-.183.75-.273.414-.094.832-.149.546-.07.886-.105.344-.039.5-.129.16-.09.16-.313v-.031q0-.578-.316-.898-.312-.321-.949-.321-.66 0-1.035.289-.375.29-.528.618l-.875-.313q.235-.546.625-.851.395-.309.86-.43.468-.125.922-.125.288 0 .664.07.379.066.73.278.356.21.59.636t.234 1.141V154h-.922v-.813h-.046q-.094.196-.313.418-.219.223-.582.379-.363.157-.887.157m.141-.829q.546 0 .922-.214.378-.215.57-.555.195-.34.195-.715v-.844q-.059.07-.257.129a4 4 0 0 1-.454.098 21 21 0 0 1-.882.117q-.36.047-.672.152a1.16 1.16 0 0 0-.5.309q-.188.202-.188.555 0 .48.356.726.359.243.91.242m6.964-5.312v.781h-3.235V148zm-2.266 6v-6.828q0-.516.242-.86.243-.344.629-.515.387-.172.817-.172.34 0 .554.055.215.054.321.101l-.266.797a4 4 0 0 0-.195-.058 1.2 1.2 0 0 0-.321-.036q-.456 0-.66.231-.2.23-.199.676V154zm6.23-6v.781h-3.235V148zm-2.266 6v-6.828q0-.516.242-.86.243-.344.629-.515.387-.172.817-.172.34 0 .554.055.215.054.321.101l-.266.797a4 4 0 0 0-.195-.058 1.2 1.2 0 0 0-.321-.036q-.456 0-.66.231-.2.23-.199.676V154zm7.561-4.656-.829.234a1.5 1.5 0 0 0-.23-.402 1.1 1.1 0 0 0-.406-.328q-.258-.129-.66-.129-.552 0-.918.254-.364.25-.364.636 0 .345.25.543.25.2.782.332l.89.219q.805.196 1.199.598.395.398.395 1.027 0 .516-.297.922a2 2 0 0 1-.82.641q-.528.234-1.227.234-.918 0-1.519-.398-.602-.399-.762-1.165l.875-.218q.125.484.473.726.351.243.918.242.644 0 1.023-.273.383-.277.383-.664a.7.7 0 0 0-.219-.523q-.219-.215-.672-.321l-1-.234q-.824-.195-1.211-.606-.383-.414-.383-1.035 0-.507.286-.898.288-.391.785-.613a2.75 2.75 0 0 1 1.133-.223q.89 0 1.398.39.511.391.727 1.032m2.825 3.562-.063.422a9 9 0 0 1-.203.953q-.132.508-.277.957-.145.45-.238.715h-.704l.133-.66q.083-.41.164-.918.086-.504.141-1.031l.047-.438zm6.154 1.094-1.828-6h.969l1.297 4.594h.062L183.82 148h.985l1.265 4.578h.063L187.43 148h.968l-1.828 6h-.906l-1.312-4.609h-.094L182.945 154zm7.578 0v-6h.922v6zm.469-7a.65.65 0 0 1-.465-.184.59.59 0 0 1-.191-.441q0-.258.191-.441a.65.65 0 0 1 .465-.184.64.64 0 0 1 .461.184q.195.183.195.441a.58.58 0 0 1-.195.441.64.64 0 0 1-.461.184m4.751 1v.781h-3.109V148zm-2.203-1.438h.922v5.719q0 .391.113.586a.58.58 0 0 0 .297.258q.183.063.387.062.151 0 .25-.015l.156-.031.187.828a2 2 0 0 1-.261.07 2 2 0 0 1-.426.039q-.391 0-.766-.168a1.5 1.5 0 0 1-.617-.512q-.242-.344-.242-.867zm4.64 3.829V154h-.921v-8h.921v2.937h.079a1.7 1.7 0 0 1 .632-.738q.426-.277 1.133-.277.613 0 1.074.246.462.242.715.746.258.5.258 1.274V154h-.922v-3.75q0-.715-.371-1.105-.368-.395-1.019-.395-.454 0-.813.191a1.4 1.4 0 0 0-.562.559q-.204.368-.204.891m10.437 3.75q-.57 0-1.035-.215a1.8 1.8 0 0 1-.738-.629q-.274-.415-.274-1 0-.516.203-.836.204-.324.543-.508.34-.183.75-.273.415-.094.832-.149.547-.07.887-.105.344-.039.5-.129.16-.09.16-.313v-.031q0-.578-.316-.898-.313-.321-.95-.321-.66 0-1.035.289-.375.29-.527.618l-.875-.313q.235-.546.625-.851a2.3 2.3 0 0 1 .859-.43q.47-.125.922-.125.29 0 .664.07.379.066.731.278.355.21.59.636t.234 1.141V154h-.922v-.813h-.047q-.093.196-.312.418-.219.223-.582.379-.364.157-.887.157m.141-.829q.546 0 .921-.214a1.47 1.47 0 0 0 .766-1.27v-.844q-.058.07-.258.129-.195.055-.453.098a22 22 0 0 1-.883.117 3.6 3.6 0 0 0-.672.152 1.17 1.17 0 0 0-.5.309q-.187.202-.187.555 0 .48.355.726.36.243.911.242m7.51.688v-8h.922v2.953h.078q.102-.156.282-.398.183-.246.523-.438.344-.195.93-.195.757 0 1.336.379.578.378.902 1.074.324.695.324 1.641 0 .953-.324 1.652a2.56 2.56 0 0 1-.898 1.078 2.35 2.35 0 0 1-1.325.379q-.578 0-.925-.191a1.7 1.7 0 0 1-.536-.442 6 6 0 0 1-.289-.414h-.109V154zm.907-3q0 .68.199 1.199.2.515.582.809.383.29.937.289.578 0 .965-.305a1.86 1.86 0 0 0 .586-.828q.2-.524.199-1.164 0-.633-.195-1.141a1.77 1.77 0 0 0-.582-.808q-.387-.301-.973-.301-.562 0-.945.285a1.7 1.7 0 0 0-.578.789 3.3 3.3 0 0 0-.195 1.176m5.8 3v-6h.922v6zm.469-7a.65.65 0 0 1-.465-.184.6.6 0 0 1-.191-.441.6.6 0 0 1 .191-.441.65.65 0 0 1 .465-.184.64.64 0 0 1 .461.184q.195.183.195.441a.58.58 0 0 1-.195.441.64.64 0 0 1-.461.184m4.751 1v.781h-3.109V148zm-2.203-1.438h.922v5.719q0 .391.113.586a.58.58 0 0 0 .297.258q.183.063.387.062.152 0 .25-.015l.156-.031.187.828a2 2 0 0 1-.261.07 2 2 0 0 1-.426.039q-.39 0-.766-.168a1.5 1.5 0 0 1-.617-.512q-.242-.344-.242-.867zm4.262 7.501a.68.68 0 0 1-.496-.208.68.68 0 0 1-.207-.496q0-.289.207-.496a.68.68 0 0 1 .496-.207q.288 0 .496.207a.68.68 0 0 1 .207.496.67.67 0 0 1-.098.352.7.7 0 0 1-.254.258.7.7 0 0 1-.351.094m3 0a.68.68 0 0 1-.496-.208.68.68 0 0 1-.207-.496q0-.289.207-.496a.68.68 0 0 1 .496-.207q.288 0 .496.207a.68.68 0 0 1 .207.496.67.67 0 0 1-.098.352.7.7 0 0 1-.254.258.7.7 0 0 1-.351.094m3 0a.68.68 0 0 1-.496-.208.68.68 0 0 1-.207-.496q0-.289.207-.496a.68.68 0 0 1 .496-.207q.288 0 .496.207a.68.68 0 0 1 .207.496.67.67 0 0 1-.098.352.7.7 0 0 1-.254.258.7.7 0 0 1-.351.094" class="fill-secondary"/><path fill-rule="evenodd" d="M16 169.334a1 1 0 1 1 2 0 1 1 0 0 1-2 0m1.334 1.633a1.667 1.667 0 1 0-.667 0V176a.334.334 0 0 0 .666 0z" clip-rule="evenodd" class="fill-symbol"/><path d="M32.35 168.091V175h-1.04l-3.384-4.885h-.057V175h-1.15v-6.909h1.045l3.38 4.892h.065v-4.892zm3.594 7.014q-.746 0-1.296-.334a2.3 2.3 0 0 1-.853-.938q-.3-.601-.3-1.4 0-.807.3-1.41.303-.605.853-.938.55-.334 1.296-.334.745 0 1.295.334.55.333.85.938.304.603.304 1.41 0 .799-.304 1.4-.3.6-.85.938-.55.334-1.295.334m.003-.915q.445 0 .735-.239.294-.24.439-.638a2.6 2.6 0 0 0 .145-.884q0-.486-.145-.887a1.43 1.43 0 0 0-.439-.644q-.29-.243-.735-.243-.45 0-.742.243a1.43 1.43 0 0 0-.439.644 2.6 2.6 0 0 0-.145.887q0 .483.145.884.145.399.439.638t.742.239m3.525.81v-5.182h1.083v.844h.054a1.28 1.28 0 0 1 .493-.675q.354-.246.803-.246.097 0 .226.01.128.006.209.02v1.046a1.3 1.3 0 0 0-.233-.044 2 2 0 0 0-.314-.024q-.347 0-.62.149-.27.144-.429.405a1.1 1.1 0 0 0-.155.593V175zm6.515-5.182v.877h-2.905v-.877zm-2.16-1.241h1.117v4.885q0 .265.081.408a.42.42 0 0 0 .213.189q.135.047.293.047.12 0 .21-.017l.145-.027.195.894q-.095.03-.266.068a2 2 0 0 1-.422.047 1.9 1.9 0 0 1-.786-.142 1.3 1.3 0 0 1-.57-.469q-.213-.317-.21-.796zm4.453 3.367V175h-1.117v-6.909h1.097v2.591h.064q.179-.432.556-.682.382-.249.979-.249.536 0 .938.222.4.223.62.658.223.435.223 1.073V175h-1.117v-3.141q0-.547-.28-.85-.28-.304-.782-.304-.341 0-.61.145a1.04 1.04 0 0 0-.42.422 1.4 1.4 0 0 0-.151.672M55.441 175v-6.909h4.413v.971h-3.262v1.991h3.036v.975h-3.036v2h3.296V175zm6.801-3.056V175h-1.116v-5.182h1.07v.864h.063q.18-.426.567-.678.388-.253.968-.253.534 0 .931.226.399.226.618.661.222.435.222 1.066V175H64.45v-3.141q0-.543-.28-.847-.28-.307-.773-.307-.337 0-.597.145a1.03 1.03 0 0 0-.408.422 1.4 1.4 0 0 0-.149.672m6.55 3.15q-.62 0-1.106-.317t-.766-.914q-.28-.6-.28-1.444 0-.853.283-1.45.284-.598.773-.908t1.103-.31q.47 0 .762.158.294.156.462.371.17.213.26.385h.054v-2.574h1.117V175H70.36v-.813h-.078q-.095.179-.27.391a1.4 1.4 0 0 1-.469.365q-.293.151-.752.151m.284-.927q.411 0 .698-.22.287-.222.435-.617.152-.398.152-.921t-.149-.911a1.3 1.3 0 0 0-.435-.6 1.13 1.13 0 0 0-.701-.216q-.432 0-.722.226a1.33 1.33 0 0 0-.436.614 2.5 2.5 0 0 0-.145.887q0 .502.149.901.148.397.435.627.29.23.719.23" class="fill-accent"/><g clip-path="url(#clip2_8396_53482)"><path fill-rule="evenodd" d="M90 167.585a4.415 4.415 0 1 0 0 8.83 4.415 4.415 0 0 0 0-8.83M86.218 172a3.782 3.782 0 1 1 7.565 0 3.782 3.782 0 0 1-7.565 0m4.115-2a.333.333 0 0 0-.666 0v2c0 .089.035.173.097.236l1.334 1.333a.334.334 0 0 0 .471-.471l-1.236-1.236z" clip-rule="evenodd" class="fill-symbol"/></g><path d="M102.09 167.996q.48.004.938.173.46.165.83.546.37.378.59 1.015.22.638.22 1.586a6.2 6.2 0 0 1-.183 1.603 3.6 3.6 0 0 1-.533 1.187 2.34 2.34 0 0 1-.84.735 2.36 2.36 0 0 1-1.103.253q-.634 0-1.127-.249a2.15 2.15 0 0 1-.799-.688 2.25 2.25 0 0 1-.378-1.002h1.13q.102.424.402.684.3.257.772.257.74 0 1.144-.641.408-.645.408-1.795h-.047a1.8 1.8 0 0 1-.435.506 2 2 0 0 1-.591.327q-.327.112-.695.112-.603 0-1.093-.29a2.13 2.13 0 0 1-.772-.8 2.36 2.36 0 0 1-.284-1.167 2.35 2.35 0 0 1 .3-1.198q.308-.536.857-.847.55-.313 1.289-.307m.004.945q-.382 0-.685.186a1.33 1.33 0 0 0-.479.502 1.4 1.4 0 0 0-.172.699q0 .384.168.698.172.314.469.499.297.183.678.182.287 0 .533-.111.247-.11.429-.304.185-.195.29-.445a1.4 1.4 0 0 0 .105-.53 1.4 1.4 0 0 0-.176-.678 1.4 1.4 0 0 0-.476-.506 1.24 1.24 0 0 0-.684-.192m6.382 6.18q-.813 0-1.397-.421-.58-.421-.891-1.221-.31-.8-.307-1.93 0-1.126.311-1.92.31-.796.89-1.214.584-.419 1.394-.419.813 0 1.393.419.584.418.894 1.214.31.797.31 1.92 0 1.134-.31 1.933t-.891 1.221q-.58.418-1.396.418m0-.975q.674 0 1.062-.661.388-.664.385-1.936 0-.84-.176-1.417-.175-.577-.499-.874a1.1 1.1 0 0 0-.772-.297q-.669 0-1.056.665-.388.662-.388 1.923-.004.846.172 1.427.175.576.499.874.323.297.773.296m6.251.854v-5.182h1.069v.864h.064a1.37 1.37 0 0 1 .53-.685q.37-.246.887-.246.523 0 .881.249.36.247.519.682h.054a1.44 1.44 0 0 1 .584-.678q.408-.253.971-.253.709 0 1.158.448.448.446.448 1.326V175h-1.116v-3.333q0-.506-.27-.736a.98.98 0 0 0-.655-.229q-.468 0-.732.29-.26.287-.26.739V175h-1.099v-3.39q0-.412-.253-.658a.9.9 0 0 0-.655-.25.94.94 0 0 0-.506.142 1.04 1.04 0 0 0-.368.394q-.135.254-.135.587V175zm8.461 0v-5.182h1.116V175zm.563-5.948a.67.67 0 0 1-.476-.185.6.6 0 0 1-.195-.449q0-.26.195-.445a.68.68 0 0 1 .476-.186q.277 0 .472.186a.59.59 0 0 1 .199.445.6.6 0 0 1-.199.449.66.66 0 0 1-.472.185m2.975 2.892V175h-1.117v-5.182h1.07v.864h.064a1.47 1.47 0 0 1 .566-.678q.389-.253.969-.253.532 0 .931.226.398.226.617.661.223.435.223 1.066V175h-1.117v-3.141q0-.543-.28-.847-.28-.307-.772-.307-.337 0-.598.145a1.03 1.03 0 0 0-.408.422 1.4 1.4 0 0 0-.148.672m8.607-.807-1.015.142a.94.94 0 0 0-.493-.577 1.15 1.15 0 0 0-.502-.098q-.405 0-.678.179-.27.178-.27.462 0 .243.182.392.182.148.59.246l.857.189q.726.162 1.08.506t.357.897q-.003.48-.28.847a1.8 1.8 0 0 1-.762.573q-.486.21-1.123.21-.915 0-1.478-.385a1.6 1.6 0 0 1-.685-1.09l1.083-.135a.9.9 0 0 0 .361.557q.273.186.712.186.466 0 .745-.193.28-.195.284-.475a.5.5 0 0 0-.179-.388q-.173-.156-.54-.237l-.877-.192q-.738-.159-1.09-.523-.35-.368-.347-.924a1.3 1.3 0 0 1 .256-.816q.26-.35.722-.544.466-.195 1.07-.195.873 0 1.376.378.506.374.644 1.008" class="fill-accent"/><path d="M0 185.5h256" class="stroke-divider"/><path d="M13.145 209v-9.455h3.195q1.107 0 1.818.379.711.374 1.053 1.029.342.657.342 1.492 0 .836-.342 1.481-.342.647-1.048 1.016-.706.365-1.805.365h-2.585v-1.034h2.548q.757 0 1.219-.222.465-.222.674-.628.212-.411.212-.978 0-.569-.212-.993a1.44 1.44 0 0 0-.679-.655q-.466-.236-1.232-.236H14.29V209zm4.45-4.247L19.922 209h-1.33l-2.29-4.247zm6.614 4.395q-1.024 0-1.768-.453a3.03 3.03 0 0 1-1.14-1.274q-.397-.822-.397-1.911 0-1.09.397-1.921.402-.836 1.117-1.301.72-.471 1.68-.471.555 0 1.095.184.54.186.983.601.443.41.706 1.089t.263 1.671v.462H21.68v-.942h4.358q0-.6-.24-1.071a1.8 1.8 0 0 0-.674-.743 1.9 1.9 0 0 0-1.025-.273q-.651 0-1.127.324a2.1 2.1 0 0 0-.725.831q-.253.512-.253 1.098v.628q0 .804.276 1.362a2 2 0 0 0 .78.845q.5.286 1.16.286.429 0 .775-.12a1.7 1.7 0 0 0 .605-.369q.254-.25.392-.619l1.053.296q-.166.535-.559.941a2.7 2.7 0 0 1-.97.628 3.6 3.6 0 0 1-1.297.222m6.68.018a2.9 2.9 0 0 1-1.223-.254 2.1 2.1 0 0 1-.872-.743q-.324-.489-.324-1.182 0-.609.24-.988a1.7 1.7 0 0 1 .642-.6q.402-.217.886-.323.49-.11.984-.175.645-.084 1.048-.125.406-.047.59-.152.19-.106.19-.37v-.037q0-.683-.374-1.061-.369-.38-1.122-.379-.78 0-1.223.342-.443.34-.623.729l-1.034-.369q.276-.647.738-1.007a2.8 2.8 0 0 1 1.016-.508q.554-.147 1.09-.147.341 0 .784.083.448.078.863.328.42.25.697.752.277.504.277 1.348V209H33.05v-.96h-.055a2 2 0 0 1-.37.494 2.2 2.2 0 0 1-.688.448q-.429.184-1.047.184m.167-.978q.645 0 1.09-.254a1.73 1.73 0 0 0 .904-1.501v-.997q-.07.083-.305.152a5 5 0 0 1-.535.116 25 25 0 0 1-1.044.138 4 4 0 0 0-.794.18 1.4 1.4 0 0 0-.59.365q-.222.24-.222.656 0 .567.42.858.425.287 1.076.287m7.75.96q-.887 0-1.565-.448-.68-.452-1.062-1.274-.383-.826-.383-1.953 0-1.117.383-1.939.382-.822 1.066-1.269.684-.448 1.579-.448.692 0 1.094.231.406.226.619.517.216.285.337.471h.092v-3.491h1.09V209h-1.053v-1.089h-.13q-.12.194-.34.489a2 2 0 0 1-.633.522q-.411.225-1.094.226m.147-.979q.656 0 1.108-.342.453-.345.688-.955.236-.615.236-1.417 0-.795-.231-1.39-.231-.6-.683-.933-.452-.337-1.118-.337-.692 0-1.154.356a2.13 2.13 0 0 0-.688.956q-.225.6-.226 1.348 0 .756.23 1.375.237.615.693.979.462.36 1.145.36m5.25.831v-7.091h1.089V209zm.553-8.273a.77.77 0 0 1-.55-.217.7.7 0 0 1-.225-.521q0-.305.226-.522a.77.77 0 0 1 .55-.217q.318 0 .544.217.23.217.23.522a.69.69 0 0 1-.23.521.76.76 0 0 1-.545.217m3.62 4.007V209h-1.089v-7.091h1.053v1.108h.092q.25-.54.757-.868.508-.332 1.311-.332.72 0 1.26.295.54.291.84.887.3.59.3 1.495V209h-1.089v-4.432q0-.835-.434-1.302-.434-.471-1.19-.471a1.9 1.9 0 0 0-.933.227q-.406.226-.642.66-.235.434-.235 1.052m9.378 7.073q-.79 0-1.357-.203a2.9 2.9 0 0 1-.947-.527 2.9 2.9 0 0 1-.595-.692l.868-.609q.147.194.374.443.226.254.618.438.397.19 1.039.19.859 0 1.417-.416.56-.416.559-1.302v-1.44h-.093q-.12.194-.341.48a1.9 1.9 0 0 1-.628.503q-.406.217-1.099.217a2.96 2.96 0 0 1-1.542-.406q-.678-.406-1.075-1.182-.393-.776-.393-1.883 0-1.09.384-1.898.382-.812 1.066-1.255.683-.448 1.579-.448.692 0 1.098.231.412.226.628.517.222.285.342.471h.11v-1.127h1.053v7.294q0 .914-.415 1.487a2.37 2.37 0 0 1-1.108.844 4.2 4.2 0 0 1-1.542.273m-.037-3.896q.655 0 1.108-.301.451-.3.688-.863.235-.563.235-1.348 0-.767-.23-1.352a2.03 2.03 0 0 0-.684-.919q-.452-.333-1.117-.333-.693 0-1.154.351a2.14 2.14 0 0 0-.688.942q-.225.591-.226 1.311 0 .739.23 1.307a2 2 0 0 0 .693.886q.462.319 1.145.319m6.666-.204-.074.499q-.078.526-.24 1.126-.156.6-.328 1.131-.17.531-.281.845h-.831l.157-.78q.097-.485.194-1.085.102-.595.166-1.219l.055-.517zM71.915 209l-2.585-9.455h1.163l1.976 7.701h.092l2.013-7.701h1.293l2.012 7.701h.093l1.976-7.701h1.163L78.526 209h-1.182l-2.087-7.534h-.074L73.097 209zm10.03 0v-7.091h1.053v1.071h.074q.195-.526.701-.854a2.07 2.07 0 0 1 1.145-.328q.12 0 .3.005t.273.014v1.108a3 3 0 0 0-.254-.042 2.6 2.6 0 0 0-.41-.032q-.518 0-.924.217-.402.212-.637.591-.231.374-.231.854V209zm4.837 0v-7.091h1.09V209zm.554-8.273a.77.77 0 0 1-.55-.217.7.7 0 0 1-.225-.521q0-.305.226-.522a.77.77 0 0 1 .55-.217q.318 0 .544.217.23.217.23.522a.69.69 0 0 1-.23.521.76.76 0 0 1-.545.217m5.615 1.182v.923h-3.675v-.923zm-2.604-1.699h1.09v6.759q0 .461.134.692.138.227.35.305.218.074.458.074.18 0 .295-.019l.185-.037.221.979a2 2 0 0 1-.309.083q-.198.046-.503.046-.462 0-.905-.198a1.8 1.8 0 0 1-.73-.605q-.285-.406-.286-1.025zM94.59 209v-7.091h1.09V209zm.554-8.273a.77.77 0 0 1-.55-.217.7.7 0 0 1-.226-.521q0-.305.227-.522a.77.77 0 0 1 .549-.217q.318 0 .545.217.23.217.23.522a.69.69 0 0 1-.23.521.76.76 0 0 1-.545.217m3.62 4.007V209h-1.09v-7.091h1.053v1.108h.093q.249-.54.757-.868.507-.332 1.311-.332.72 0 1.26.295.54.291.84.887.301.59.301 1.495V209h-1.09v-4.432q0-.835-.434-1.302-.434-.471-1.191-.471-.522 0-.933.227-.405.226-.641.66t-.236 1.052m9.378 7.073q-.79 0-1.358-.203a2.9 2.9 0 0 1-.946-.527 2.9 2.9 0 0 1-.596-.692l.868-.609q.148.194.374.443.226.254.619.438.397.19 1.039.19.858 0 1.417-.416.558-.416.558-1.302v-1.44h-.092a6 6 0 0 1-.341.48 1.9 1.9 0 0 1-.628.503q-.406.217-1.099.217a2.96 2.96 0 0 1-1.542-.406q-.678-.406-1.076-1.182-.392-.776-.392-1.883 0-1.09.383-1.898.383-.812 1.067-1.255.683-.448 1.578-.448.693 0 1.099.231.41.226.628.517.222.285.342.471h.11v-1.127h1.053v7.294q0 .914-.416 1.487a2.36 2.36 0 0 1-1.107.844 4.2 4.2 0 0 1-1.542.273m-.037-3.896q.655 0 1.108-.301.452-.3.687-.863t.236-1.348q0-.767-.231-1.352a2.03 2.03 0 0 0-.683-.919q-.453-.333-1.117-.333-.693 0-1.154.351a2.14 2.14 0 0 0-.688.942 3.6 3.6 0 0 0-.227 1.311q0 .739.231 1.307a2 2 0 0 0 .693.886q.461.319 1.145.319m11.43 1.218q-.933 0-1.606-.341a2.5 2.5 0 0 1-1.039-.938 2.55 2.55 0 0 1-.365-1.361q0-.592.249-1.048.255-.462.698-.854.447-.398 1.029-.794l1.366-1.016q.402-.263.642-.563.245-.3.245-.785 0-.36-.319-.697-.313-.337-.826-.337-.36 0-.637.185-.273.18-.429.461a1.2 1.2 0 0 0-.153.573q0 .332.18.674.185.336.466.692l.591.72 4.34 5.3h-1.311l-3.583-4.321-.904-1.09a5.2 5.2 0 0 1-.647-.964 2.26 2.26 0 0 1-.24-1.03q0-.637.282-1.117.287-.485.798-.753.517-.272 1.21-.272.711 0 1.223.277.513.272.79.725.277.447.277.974 0 .679-.337 1.177a3.8 3.8 0 0 1-.919.928l-1.883 1.404q-.637.47-.864.914-.226.442-.226.637 0 .443.231.826t.651.619q.42.235.983.235.536 0 1.043-.226.508-.231.919-.665.416-.434.656-1.043a3.7 3.7 0 0 0 .244-1.371h1.053q0 .941-.217 1.537-.218.596-.489.932a7 7 0 0 1-.439.504 2 2 0 0 0-.102.138 2 2 0 0 1-.101.139 2.8 2.8 0 0 1-1.154.766 4.1 4.1 0 0 1-1.376.249m9.442-.129v-9.455h3.195q1.107 0 1.818.379.711.374 1.053 1.029.342.657.342 1.492 0 .836-.342 1.481-.342.647-1.048 1.016-.707.365-1.805.365h-2.585v-1.034h2.548q.757 0 1.219-.222.466-.222.674-.628.212-.411.212-.978a2.2 2.2 0 0 0-.212-.993 1.45 1.45 0 0 0-.679-.655q-.467-.236-1.232-.236h-2.013V209zm4.45-4.247 2.327 4.247h-1.33l-2.289-4.247zm6.614 4.395q-1.024 0-1.768-.453a3.03 3.03 0 0 1-1.14-1.274q-.397-.822-.397-1.911 0-1.09.397-1.921.402-.836 1.117-1.301.72-.471 1.681-.471.554 0 1.094.184.54.186.983.601.444.41.706 1.089.264.679.264 1.671v.462h-5.466v-.942h4.358q0-.6-.24-1.071a1.8 1.8 0 0 0-.674-.743 1.9 1.9 0 0 0-1.025-.273q-.651 0-1.127.324a2.1 2.1 0 0 0-.725.831 2.44 2.44 0 0 0-.253 1.098v.628q0 .804.277 1.362.28.554.78.845a2.3 2.3 0 0 0 1.158.286q.43 0 .776-.12.351-.124.605-.369.254-.25.392-.619l1.053.296a2.3 2.3 0 0 1-.559.941 2.7 2.7 0 0 1-.969.628 3.6 3.6 0 0 1-1.298.222m5.683-9.603V209h-1.089v-9.455zm4.082 9.621a2.9 2.9 0 0 1-1.223-.254 2.1 2.1 0 0 1-.872-.743q-.324-.489-.324-1.182 0-.609.24-.988.24-.383.642-.6.401-.217.887-.323.49-.11.983-.175.646-.084 1.048-.125.406-.047.591-.152.189-.106.189-.37v-.037q0-.683-.374-1.061-.369-.38-1.122-.379-.78 0-1.223.342-.443.34-.623.729l-1.034-.369q.276-.647.738-1.007.467-.364 1.016-.508a4.2 4.2 0 0 1 1.089-.147q.342 0 .785.083.448.078.863.328.42.25.697.752.277.504.277 1.348V209h-1.089v-.96h-.055a1.9 1.9 0 0 1-.37.494 2.1 2.1 0 0 1-.688.448q-.429.184-1.048.184m.167-.978q.647 0 1.089-.254a1.73 1.73 0 0 0 .905-1.501v-.997q-.07.083-.305.152a5 5 0 0 1-.535.116 25 25 0 0 1-1.044.138 4 4 0 0 0-.794.18q-.365.12-.59.365-.222.24-.222.656 0 .567.42.858.425.287 1.076.287m5.866.886a.8.8 0 0 1-.586-.245.8.8 0 0 1-.245-.586.8.8 0 0 1 .245-.586.8.8 0 0 1 .586-.245q.342 0 .586.245a.8.8 0 0 1 .245.586.86.86 0 0 1-.415.72.8.8 0 0 1-.416.111m3.545 0a.8.8 0 0 1-.586-.245.8.8 0 0 1-.244-.586q0-.342.244-.586a.8.8 0 0 1 .586-.245q.342 0 .587.245a.8.8 0 0 1 .244.586.86.86 0 0 1-.415.72.8.8 0 0 1-.416.111m3.546 0a.8.8 0 0 1-.586-.245.8.8 0 0 1-.245-.586.8.8 0 0 1 .245-.586.8.8 0 0 1 .586-.245q.342 0 .586.245a.8.8 0 0 1 .245.586.854.854 0 0 1-.416.72.8.8 0 0 1-.415.111" class="fill-primary"/><path d="M181 197.5a1.5 1.5 0 0 1 1.5-1.5h60a1.5 1.5 0 0 1 1.5 1.5v13a1.5 1.5 0 0 1-1.5 1.5h-60a1.5 1.5 0 0 1-1.5-1.5z" class="fill-tone"/><path d="M185.936 207v-6.909h4.17v.742h-3.333v2.335h3.117v.742h-3.117v2.348h3.387V207zm6.164-5.182 1.241 2.119 1.241-2.119h.918l-1.673 2.591L195.5 207h-.918l-1.241-2.011L192.1 207h-.918l1.646-2.591-1.646-2.591zm4.536 7.125v-7.125h.769v.823h.095q.087-.135.243-.344.158-.211.452-.378.297-.168.803-.168.655 0 1.153.327.5.327.78.928.28.6.28 1.417 0 .822-.28 1.427-.28.6-.776.931a2.03 2.03 0 0 1-1.144.327q-.5 0-.799-.165a1.5 1.5 0 0 1-.463-.382 5 5 0 0 1-.249-.357h-.068v2.739zm.783-4.534q0 .587.172 1.036.172.445.503.698.33.25.809.25.5 0 .833-.263.337-.266.507-.716.172-.452.172-1.005 0-.547-.169-.985a1.5 1.5 0 0 0-.503-.698q-.333-.26-.84-.26-.486 0-.816.246a1.47 1.47 0 0 0-.499.682q-.17.435-.169 1.015m7.179 2.699q-.749 0-1.292-.331a2.2 2.2 0 0 1-.834-.931q-.29-.6-.29-1.396 0-.797.29-1.404.294-.61.817-.951.526-.344 1.228-.344.405 0 .799.135.395.135.719.438.324.3.516.796t.192 1.222v.337h-3.994v-.688h3.185q0-.44-.176-.783a1.32 1.32 0 0 0-1.241-.742 1.43 1.43 0 0 0-.823.236q-.344.233-.53.607-.186.375-.186.803v.459q0 .587.203.995.206.405.57.618.364.209.847.209.314 0 .567-.088.256-.091.442-.27.185-.182.286-.452l.769.216q-.121.391-.408.688a2 2 0 0 1-.708.459 2.6 2.6 0 0 1-.948.162m3.357-.108v-5.182h.769v.783h.054q.141-.386.512-.624.372-.24.837-.24a6 6 0 0 1 .418.014v.809a3 3 0 0 0-.485-.054q-.378 0-.675.159a1.2 1.2 0 0 0-.466.432q-.168.273-.168.624V207zm3.534 0v-5.182h.796V207zm.405-6.045a.56.56 0 0 1-.401-.159.5.5 0 0 1-.166-.381q0-.224.166-.381a.56.56 0 0 1 .401-.159q.233 0 .398.159a.5.5 0 0 1 .169.381.5.5 0 0 1-.169.381.55.55 0 0 1-.398.159m4.022 6.153q-.749 0-1.292-.331a2.2 2.2 0 0 1-.833-.931q-.29-.6-.29-1.396 0-.797.29-1.404.293-.61.816-.951.526-.344 1.228-.344.405 0 .8.135.394.135.718.438.324.3.516.796.193.496.193 1.222v.337h-3.995v-.688h3.185q0-.44-.175-.783a1.33 1.33 0 0 0-1.242-.742q-.475 0-.823.236a1.56 1.56 0 0 0-.53.607q-.185.375-.185.803v.459q0 .587.202.995.206.405.57.618.365.209.847.209.314 0 .567-.088.256-.091.442-.27.185-.182.287-.452l.769.216q-.121.391-.408.688a2 2 0 0 1-.709.459 2.6 2.6 0 0 1-.948.162m4.153-3.225V207h-.796v-5.182h.769v.81h.068q.181-.395.553-.634.371-.243.958-.243.526 0 .921.216.395.212.614.647.219.432.219 1.093V207h-.796v-3.239q0-.61-.317-.951-.318-.344-.871-.344a1.4 1.4 0 0 0-.681.165q-.297.165-.469.483a1.6 1.6 0 0 0-.172.769m6.866 3.225q-.729 0-1.255-.344a2.25 2.25 0 0 1-.81-.948 3.2 3.2 0 0 1-.283-1.38q0-.79.29-1.393.294-.608.817-.948.526-.344 1.228-.344.546 0 .985.202.438.203.718.567t.348.85h-.796a1.24 1.24 0 0 0-.405-.627q-.31-.277-.837-.277-.465 0-.816.243a1.57 1.57 0 0 0-.543.678q-.193.435-.193 1.022 0 .6.189 1.046.192.445.54.691.35.247.823.247.31 0 .564-.108a1.17 1.17 0 0 0 .678-.796h.796a1.85 1.85 0 0 1-.334.826 1.87 1.87 0 0 1-.699.58 2.24 2.24 0 0 1-1.005.213m5.374 0q-.749 0-1.292-.331a2.2 2.2 0 0 1-.833-.931q-.29-.6-.29-1.396 0-.797.29-1.404.294-.61.816-.951.526-.344 1.228-.344.405 0 .8.135.394.135.718.438.324.3.517.796.192.496.192 1.222v.337h-3.994v-.688h3.184q0-.44-.175-.783a1.33 1.33 0 0 0-1.242-.742q-.475 0-.823.236a1.56 1.56 0 0 0-.53.607q-.185.375-.185.803v.459q0 .587.202.995.207.405.57.618.365.209.847.209.314 0 .567-.088.256-.091.442-.27.185-.182.287-.452l.769.216q-.121.391-.408.688a2 2 0 0 1-.709.459 2.6 2.6 0 0 1-.948.162m7.027-4.129-.715.202a1.3 1.3 0 0 0-.199-.347.95.95 0 0 0-.351-.284 1.3 1.3 0 0 0-.57-.111q-.475 0-.793.219-.313.216-.313.55 0 .297.216.469.215.172.674.287l.769.189q.696.168 1.036.516.34.344.341.887 0 .445-.257.796a1.7 1.7 0 0 1-.708.554 2.6 2.6 0 0 1-1.059.202q-.793 0-1.313-.344-.519-.345-.657-1.005l.755-.189q.108.418.408.627.304.21.793.209.557 0 .884-.236.331-.24.331-.573a.6.6 0 0 0-.189-.452q-.19-.186-.58-.277l-.864-.203q-.712-.168-1.046-.522a1.27 1.27 0 0 1-.331-.894q0-.439.247-.776.249-.338.678-.53.432-.192.978-.192.77 0 1.208.337.442.338.627.891" class="fill-primary"/></g><defs><clipPath id="clip0_8396_53482"><path d="M12 44h232v168H12z" class="fill-main-contrast"/></clipPath><clipPath id="clip1_8396_53482"><path d="M123 93h10v10h-10z" class="fill-main-contrast"/></clipPath><clipPath id="clip2_8396_53482"><path d="M85 167h10v10H85z" class="fill-main-contrast"/></clipPath></defs></svg>