<svg xmlns="http://www.w3.org/2000/svg" width="384" height="128" fill="none" viewBox="0 0 384 128" class="portfolio-widget"><path d="M.5 6A5.5 5.5 0 0 1 6 .5h372a5.5 5.5 0 0 1 5.5 5.5v116a5.5 5.5 0 0 1-5.5 5.5H6A5.5 5.5 0 0 1 .5 122z" class="fill-container"/><path d="M.5 6A5.5 5.5 0 0 1 6 .5h372a5.5 5.5 0 0 1 5.5 5.5v116a5.5 5.5 0 0 1-5.5 5.5H6A5.5 5.5 0 0 1 .5 122z" class="stroke-divider"/><path d="M107.533 38h-1.56l4.794-13.09h1.547L117.108 38h-1.56l-3.956-11.148h-.103zm.684-5.088h6.647v1.323h-6.647zm17.637-2.544-1.279.364a2.6 2.6 0 0 0-.389-.697 1.9 1.9 0 0 0-.684-.543q-.429-.21-1.087-.21-.927 0-1.534.427-.607.429-.607 1.087 0 .582.415.927.416.338 1.298.563l1.463.358q1.299.312 1.931.971.639.652.639 1.668a2.5 2.5 0 0 1-.479 1.502q-.474.66-1.33 1.042-.85.378-1.975.378-1.49 0-2.461-.652-.972-.653-1.234-1.899l1.349-.332q.205.811.786 1.22.588.41 1.534.41 1.074 0 1.707-.467.639-.467.639-1.131 0-.53-.37-.889-.364-.364-1.119-.543l-1.63-.384q-1.329-.32-1.956-.99-.627-.672-.626-1.682 0-.825.46-1.457.467-.633 1.272-.99.805-.366 1.828-.365 1.432 0 2.256.633.83.633 1.183 1.68m9.369 0-1.278.364a2.7 2.7 0 0 0-.39-.697 1.9 1.9 0 0 0-.684-.543q-.429-.21-1.087-.21-.927 0-1.534.427-.607.429-.607 1.087 0 .582.415.927.416.338 1.298.563l1.464.358q1.297.312 1.93.971.639.652.639 1.668a2.5 2.5 0 0 1-.479 1.502q-.474.66-1.33 1.042-.85.378-1.975.378-1.49 0-2.461-.652-.972-.653-1.233-1.899l1.348-.332q.206.811.786 1.22.589.41 1.535.41 1.073 0 1.706-.467.639-.467.639-1.131 0-.53-.37-.889-.365-.364-1.119-.543l-1.63-.384q-1.329-.32-1.956-.99-.626-.672-.626-1.682 0-.825.46-1.457.467-.633 1.272-.99.805-.366 1.828-.365 1.433 0 2.256.633.832.633 1.183 1.68m6.448 7.837q-1.317 0-2.314-.633-.99-.64-1.547-1.777t-.556-2.653q0-1.527.556-2.672.557-1.144 1.547-1.777.997-.639 2.314-.639t2.308.64q.996.632 1.553 1.776t.556 2.672q0 1.515-.556 2.653-.557 1.137-1.553 1.777-.991.633-2.308.633m0-1.279q1.01 0 1.675-.524.671-.525.997-1.387.326-.863.326-1.873 0-1.016-.326-1.88a3.15 3.15 0 0 0-.997-1.4q-.665-.536-1.675-.536t-1.681.537a3.17 3.17 0 0 0-.991 1.4 5.3 5.3 0 0 0-.326 1.879q0 1.01.326 1.873a3.13 3.13 0 0 0 .991 1.387q.671.525 1.681.524m10.711 1.279q-1.367 0-2.358-.652-.991-.653-1.528-1.797-.537-1.15-.537-2.614 0-1.495.55-2.64.55-1.15 1.54-1.796.991-.652 2.308-.652 1.023 0 1.847.384.825.383 1.349 1.073.53.684.658 1.605h-1.419q-.173-.71-.786-1.247-.613-.543-1.624-.543-.9 0-1.578.473-.672.466-1.049 1.317-.377.843-.377 1.975 0 1.15.371 2.013.37.864 1.042 1.343.678.48 1.591.48.601 0 1.093-.212.5-.217.838-.62.345-.402.479-.959h1.419a3.5 3.5 0 0 1-.633 1.573q-.498.69-1.316 1.093-.812.402-1.88.403m6.087-.205v-9.818h1.419V38zm.723-11.467q-.416 0-.716-.282a.92.92 0 0 1-.301-.69.9.9 0 0 1 .301-.684 1 1 0 0 1 .716-.287q.415 0 .715.287a.9.9 0 0 1 .301.684.92.92 0 0 1-.301.69q-.3.282-.715.282m6.364 11.697a3.9 3.9 0 0 1-1.674-.351 2.9 2.9 0 0 1-1.202-1.03q-.441-.67-.441-1.623 0-.818.313-1.336.32-.524.863-.825.543-.306 1.221-.466.684-.16 1.4-.25a91 91 0 0 1 1.444-.178q.562-.065.831-.212.269-.152.269-.524v-.095q0-.96-.537-1.496-.537-.537-1.598-.537-1.074 0-1.7.473-.627.466-.882 1.029l-1.343-.48q.371-.875.997-1.367a3.8 3.8 0 0 1 1.381-.703 5.8 5.8 0 0 1 1.502-.205q.499 0 1.112.121.615.116 1.177.467.569.352.933 1.036.37.677.371 1.802V38h-1.413v-1.387h-.077a2.8 2.8 0 0 1-.537.729q-.364.37-.965.632-.594.255-1.445.256m.211-1.278q.901 0 1.528-.365a2.51 2.51 0 0 0 1.285-2.192V33q-.102.122-.422.218-.32.09-.729.16-.408.063-.799.115-.39.044-.652.083-.645.082-1.176.262t-.844.53q-.306.346-.306.927 0 .812.6 1.234.602.422 1.515.422m11.231-8.77v1.208h-4.986v-1.208zm-3.509-2.352h1.419v9.421q0 .633.192.96a.98.98 0 0 0 .498.434q.314.115.659.115.243 0 .402-.026.16-.031.263-.05l.287 1.271a3 3 0 0 1-.422.115 3 3 0 0 1-.671.064q-.639 0-1.24-.275a2.47 2.47 0 0 1-.997-.83q-.39-.563-.39-1.407zM179.352 38v-9.818h1.419V38zm.722-11.467q-.415 0-.716-.282a.92.92 0 0 1-.3-.69q0-.402.3-.684.301-.288.716-.287a1 1 0 0 1 .716.287.9.9 0 0 1 .301.684.92.92 0 0 1-.301.69q-.3.282-.716.282m7.458 11.672q-1.317 0-2.314-.633-.99-.64-1.546-1.777-.557-1.138-.557-2.653 0-1.527.557-2.672.555-1.144 1.546-1.777.997-.639 2.314-.639t2.308.64q.997.632 1.553 1.776t.556 2.672q0 1.515-.556 2.653-.556 1.137-1.553 1.777-.991.633-2.308.633m0-1.279q1.01 0 1.675-.524.671-.525.997-1.387.327-.863.326-1.873 0-1.016-.326-1.88a3.15 3.15 0 0 0-.997-1.4q-.664-.536-1.675-.536-1.01 0-1.681.537-.664.53-.991 1.4a5.3 5.3 0 0 0-.326 1.879q0 1.01.326 1.873.327.863.991 1.387.672.525 1.681.524m8.174-4.89V38h-1.412v-9.818h1.367v1.534h.122q.345-.749 1.055-1.202.71-.46 1.815-.46.997 0 1.745.41.747.407 1.163 1.226.416.812.416 2.04V38h-1.413v-6.175q0-1.17-.62-1.828-.62-.665-1.687-.665-.735 0-1.311.32a2.25 2.25 0 0 0-.907.92q-.333.607-.333 1.464M210.488 38h-1.56l4.794-13.09h1.547L220.063 38h-1.56l-3.956-11.148h-.103zm.684-5.088h6.647v1.323h-6.647zm12.185-.876V38h-1.413v-9.818h1.368v1.534h.121q.345-.749 1.055-1.202.71-.46 1.815-.46.998 0 1.745.41.749.407 1.164 1.226.415.812.415 2.04V38h-1.413v-6.175q0-1.17-.62-1.828-.62-.665-1.687-.665-.735 0-1.31.32a2.25 2.25 0 0 0-.908.92q-.332.607-.332 1.464m11.949 6.194a3.9 3.9 0 0 1-1.674-.351 2.9 2.9 0 0 1-1.202-1.03q-.441-.67-.441-1.623 0-.818.313-1.336.32-.524.863-.825.543-.306 1.221-.466.684-.16 1.4-.25a91 91 0 0 1 1.444-.178q.562-.065.831-.212.269-.152.269-.524v-.095q0-.96-.537-1.496-.537-.537-1.598-.537-1.074 0-1.7.473-.627.466-.882 1.029l-1.343-.48q.371-.875.997-1.367a3.8 3.8 0 0 1 1.381-.703 5.8 5.8 0 0 1 1.502-.205q.499 0 1.112.121.615.116 1.177.467.569.352.933 1.036.37.677.371 1.802V38h-1.413v-1.387h-.077a2.8 2.8 0 0 1-.537.729q-.364.37-.965.632-.594.255-1.445.256m.211-1.278q.901 0 1.528-.365a2.51 2.51 0 0 0 1.285-2.192V33q-.102.122-.422.218-.32.09-.729.16-.408.063-.799.115-.39.044-.652.083-.645.082-1.176.262t-.844.53q-.306.346-.306.927 0 .812.6 1.234.602.422 1.515.422m8.476-12.043V38h-1.412V24.91zm3.751 16.773q-.37 0-.671-.064a1.8 1.8 0 0 1-.429-.122l.365-1.246q.556.147.984.102.435-.038.767-.383.333-.339.607-1.08l.301-.825-3.624-9.882h1.534l2.761 7.945h.102l2.762-7.945h1.534l-4.162 11.282q-.28.747-.69 1.24a2.5 2.5 0 0 1-.94.735 2.9 2.9 0 0 1-1.201.243m15.905-11.314-1.279.364a2.6 2.6 0 0 0-.39-.697 1.9 1.9 0 0 0-.683-.543q-.429-.21-1.087-.21-.927 0-1.534.427-.607.429-.607 1.087 0 .582.415.927.416.338 1.298.563l1.463.358q1.298.312 1.931.971.639.652.639 1.668a2.5 2.5 0 0 1-.479 1.502q-.474.66-1.33 1.042-.85.378-1.975.378-1.49 0-2.461-.652-.972-.653-1.234-1.899l1.349-.332q.204.811.786 1.22.588.41 1.534.41 1.074 0 1.707-.467.639-.467.639-1.131 0-.53-.371-.889-.363-.364-1.118-.543l-1.63-.384q-1.329-.32-1.956-.99-.627-.672-.626-1.682 0-.825.46-1.457.466-.633 1.272-.99.805-.366 1.828-.365 1.432 0 2.256.633.83.633 1.183 1.68M266.153 38v-9.818h1.419V38zm.722-11.467q-.415 0-.716-.282a.92.92 0 0 1-.3-.69q0-.402.3-.684.301-.288.716-.287a1 1 0 0 1 .716.287q.3.282.301.684a.92.92 0 0 1-.301.69q-.3.282-.716.282m10.379 3.835-1.278.364a2.7 2.7 0 0 0-.39-.697 1.9 1.9 0 0 0-.684-.543q-.429-.21-1.087-.21-.927 0-1.534.427-.607.429-.607 1.087 0 .582.415.927.416.338 1.298.563l1.464.358q1.297.312 1.93.971.639.652.639 1.668 0 .845-.479 1.502-.473.66-1.329 1.042-.85.378-1.976.378-1.49 0-2.461-.652-.971-.653-1.233-1.899l1.348-.332q.205.811.787 1.22.588.41 1.534.41 1.074 0 1.706-.467.64-.467.64-1.131 0-.53-.371-.889-.365-.364-1.119-.543l-1.63-.384q-1.329-.32-1.956-.99-.626-.672-.626-1.682 0-.825.46-1.457.466-.633 1.272-.99.806-.366 1.828-.365 1.432 0 2.257.633.831.633 1.182 1.68" class="fill-primary"/><path d="M39.898 62H36.98v-9.455h3.047q1.376 0 2.354.568a3.7 3.7 0 0 1 1.5 1.62q.522 1.053.522 2.521 0 1.477-.526 2.544a3.75 3.75 0 0 1-1.533 1.634Q41.34 62 39.897 62m-1.773-1.016h1.699q1.172 0 1.943-.452a2.8 2.8 0 0 0 1.15-1.288q.378-.835.378-1.99 0-1.144-.374-1.971a2.76 2.76 0 0 0-1.117-1.274q-.743-.448-1.851-.448h-1.828zm11.024 1.164q-1.025 0-1.768-.453a3.04 3.04 0 0 1-1.14-1.274q-.398-.822-.398-1.911t.397-1.92q.402-.837 1.118-1.302.72-.471 1.68-.471.555 0 1.094.184.54.185.983.6.444.412.707 1.09.263.68.263 1.671v.462h-5.466v-.942h4.358q0-.6-.24-1.07a1.8 1.8 0 0 0-.674-.744 1.9 1.9 0 0 0-1.025-.273q-.651 0-1.126.324-.471.318-.725.83a2.44 2.44 0 0 0-.254 1.1v.627q0 .804.277 1.362.282.554.78.845.498.285 1.159.286.43 0 .775-.12a1.7 1.7 0 0 0 .605-.37q.254-.249.393-.618l1.052.295q-.166.537-.558.942a2.7 2.7 0 0 1-.97.628 3.6 3.6 0 0 1-1.297.222m7.677-7.239v.923h-3.675v-.923zm-2.604-1.699h1.09v6.759q0 .46.134.692.138.227.35.305.218.075.458.074.18 0 .295-.019l.185-.037.221.98a2 2 0 0 1-.309.082q-.198.046-.503.046-.462 0-.905-.198a1.8 1.8 0 0 1-.73-.605q-.285-.405-.286-1.025zm7.14 8.938q-1.026 0-1.768-.453a3.04 3.04 0 0 1-1.14-1.274q-.398-.822-.398-1.911t.397-1.92q.401-.837 1.118-1.302.72-.471 1.68-.471.554 0 1.094.184.54.185.983.6.444.412.707 1.09.263.68.263 1.671v.462h-5.466v-.942h4.358q0-.6-.24-1.07a1.8 1.8 0 0 0-.674-.744 1.9 1.9 0 0 0-1.025-.273q-.652 0-1.126.324-.471.318-.725.83a2.44 2.44 0 0 0-.254 1.1v.627q0 .804.277 1.362.282.554.78.845.499.285 1.159.286.429 0 .775-.12a1.7 1.7 0 0 0 .605-.37q.254-.249.393-.618l1.052.295q-.166.537-.558.942a2.7 2.7 0 0 1-.97.628 3.6 3.6 0 0 1-1.297.222M65.955 62v-7.09h1.053v1.07h.074q.194-.525.701-.854.508-.328 1.145-.328.12 0 .3.005t.273.014v1.108a3 3 0 0 0-.254-.042 2.5 2.5 0 0 0-.411-.032 1.9 1.9 0 0 0-.923.217q-.401.212-.638.59-.23.375-.23.855V62zm4.837 0v-7.09h1.053v1.107h.092q.222-.568.716-.882.493-.318 1.186-.318.702 0 1.168.318.47.315.734.882h.074q.272-.549.817-.873.545-.327 1.306-.327.951 0 1.556.595.605.591.605 1.842V62h-1.09v-4.746q0-.785-.429-1.121a1.6 1.6 0 0 0-1.01-.338q-.75 0-1.16.453-.41.447-.41 1.136V62H74.89v-4.856q0-.605-.392-.975-.393-.373-1.01-.373-.426 0-.795.226-.365.226-.59.628-.223.396-.222.918V62zm11.299 0v-7.09h1.09V62zm.554-8.273a.78.78 0 0 1-.55-.217.7.7 0 0 1-.226-.521q0-.305.227-.522a.77.77 0 0 1 .549-.217q.318 0 .545.217a.7.7 0 0 1 .23.522.7.7 0 0 1-.23.521.76.76 0 0 1-.545.217m3.62 4.007V62h-1.09v-7.09h1.053v1.107h.093q.249-.54.757-.868.507-.332 1.31-.332.721 0 1.261.295.54.291.84.887.3.59.3 1.495V62H89.7v-4.432q0-.835-.434-1.302-.434-.47-1.191-.47-.522 0-.933.226-.405.225-.641.66-.236.434-.236 1.052m9.488 4.414q-1.024 0-1.768-.453a3.04 3.04 0 0 1-1.14-1.274q-.397-.822-.397-1.911t.397-1.92q.402-.837 1.117-1.302.72-.471 1.68-.471.555 0 1.095.184.54.185.983.6.442.412.706 1.09.263.68.263 1.671v.462h-5.465v-.942h4.358q0-.6-.24-1.07a1.8 1.8 0 0 0-.675-.744 1.9 1.9 0 0 0-1.024-.273q-.651 0-1.127.324-.47.318-.725.83a2.44 2.44 0 0 0-.254 1.1v.627q0 .804.277 1.362.282.554.78.845.5.285 1.16.286.429 0 .775-.12a1.7 1.7 0 0 0 .605-.37q.254-.249.392-.618l1.053.295q-.166.537-.559.942a2.7 2.7 0 0 1-.97.628 3.6 3.6 0 0 1-1.297.222m11.334-7.239v.923h-3.675v-.923zm-2.604-1.699h1.09v6.759q0 .46.133.692.14.227.351.305.217.075.457.074.18 0 .296-.019l.184-.037.222.98a2 2 0 0 1-.309.082q-.199.046-.503.046a2.2 2.2 0 0 1-.905-.198 1.8 1.8 0 0 1-.73-.605q-.285-.405-.286-1.025zm5.485 4.524V62h-1.09v-9.455h1.09v3.472h.092a2 2 0 0 1 .748-.873q.502-.327 1.338-.327.726 0 1.27.29.545.287.845.882.305.591.305 1.505V62h-1.09v-4.432q0-.844-.439-1.306-.433-.467-1.204-.467-.536 0-.961.227-.42.225-.664.66-.24.434-.24 1.052m9.564 4.414q-1.026 0-1.768-.453a3.04 3.04 0 0 1-1.141-1.274q-.397-.822-.397-1.911t.397-1.92q.401-.837 1.118-1.302.72-.471 1.68-.471.554 0 1.094.184.54.185.983.6.444.412.707 1.09.263.68.263 1.671v.462h-5.466v-.942h4.358q0-.6-.24-1.07a1.8 1.8 0 0 0-.674-.744 1.9 1.9 0 0 0-1.025-.273q-.651 0-1.127.324a2.13 2.13 0 0 0-.724.83q-.254.512-.254 1.1v.627q0 .804.277 1.362.282.554.78.845.498.285 1.159.286.429 0 .775-.12.351-.124.605-.37.254-.249.392-.618l1.053.295a2.3 2.3 0 0 1-.559.942 2.7 2.7 0 0 1-.969.628 3.6 3.6 0 0 1-1.297.222m11.222 0q-1.024 0-1.768-.453a3.04 3.04 0 0 1-1.14-1.274q-.397-.822-.397-1.911t.397-1.92q.402-.837 1.117-1.302.72-.471 1.681-.471.554 0 1.094.184.54.185.983.6.443.412.706 1.09.263.68.263 1.671v.462h-5.465v-.942h4.357q0-.6-.24-1.07a1.8 1.8 0 0 0-.674-.744 1.9 1.9 0 0 0-1.024-.273q-.651 0-1.127.324-.47.318-.725.83a2.44 2.44 0 0 0-.254 1.1v.627q0 .804.277 1.362.282.554.781.845.498.285 1.158.286.43 0 .776-.12.35-.124.605-.37.254-.249.392-.618l1.053.295a2.3 2.3 0 0 1-.559.942 2.7 2.7 0 0 1-.969.628 3.6 3.6 0 0 1-1.298.222m7.751-7.239v.923h-3.822v-.923zM135.828 62v-8.07q0-.609.286-1.015.287-.406.743-.61.458-.203.965-.203.401 0 .656.065.253.064.378.12l-.314.942a5 5 0 0 0-.23-.07 1.4 1.4 0 0 0-.379-.041q-.54 0-.78.272-.236.273-.236.799V62zm7.362-7.09v.922h-3.822v-.923zM140.512 62v-8.07q0-.609.287-1.015.285-.406.743-.61a2.35 2.35 0 0 1 .965-.203q.402 0 .655.065.255.064.379.12l-.314.942a5 5 0 0 0-.231-.07 1.4 1.4 0 0 0-.378-.041q-.541 0-.781.272-.235.273-.235.799V62zm6.886.148q-1.025 0-1.768-.453a3.03 3.03 0 0 1-1.14-1.274q-.397-.822-.397-1.911t.397-1.92q.401-.837 1.117-1.302.72-.471 1.68-.471.554 0 1.094.184.54.185.984.6.442.412.706 1.09.263.68.263 1.671v.462h-5.466v-.942h4.358q0-.6-.24-1.07a1.8 1.8 0 0 0-.674-.744 1.9 1.9 0 0 0-1.025-.273q-.65 0-1.126.324-.471.318-.725.83a2.44 2.44 0 0 0-.254 1.1v.627q0 .804.277 1.362.282.554.78.845.5.285 1.159.286.43 0 .775-.12.351-.124.605-.37.254-.249.393-.618l1.052.295a2.34 2.34 0 0 1-.558.942 2.7 2.7 0 0 1-.97.628 3.6 3.6 0 0 1-1.297.222m7.474 0q-.997 0-1.717-.471a3.07 3.07 0 0 1-1.108-1.297q-.388-.826-.388-1.889 0-1.08.397-1.906a3.14 3.14 0 0 1 1.117-1.297q.72-.471 1.681-.471.747 0 1.348.277.6.276.983.775t.475 1.164h-1.089a1.7 1.7 0 0 0-.554-.859q-.425-.379-1.145-.379-.637 0-1.117.333a2.16 2.16 0 0 0-.743.928q-.264.595-.264 1.399 0 .82.259 1.43.263.61.739.947.48.337 1.126.337.424 0 .771-.148a1.59 1.59 0 0 0 .928-1.09h1.089a2.52 2.52 0 0 1-1.412 1.926q-.591.29-1.376.29m7.465-7.239v.923h-3.675v-.923zm-2.604-1.699h1.09v6.759q0 .46.133.692.14.227.351.305.217.075.457.074.18 0 .296-.019l.184-.037.222.98a2 2 0 0 1-.309.082q-.199.046-.503.046a2.2 2.2 0 0 1-.905-.198 1.8 1.8 0 0 1-.73-.605q-.286-.405-.286-1.025zm10.78 8.938q-.961 0-1.685-.457a3.1 3.1 0 0 1-1.127-1.28q-.401-.82-.401-1.92 0-1.107.401-1.934.406-.826 1.127-1.283.724-.457 1.685-.457.96 0 1.68.457.725.456 1.126 1.283.407.827.407 1.935 0 1.098-.407 1.92a3.06 3.06 0 0 1-1.126 1.279q-.72.457-1.68.457m0-.979q.729 0 1.2-.374.47-.374.697-.983a3.8 3.8 0 0 0 .226-1.32q0-.711-.226-1.325a2.23 2.23 0 0 0-.697-.993q-.471-.379-1.2-.379-.73 0-1.201.379a2.23 2.23 0 0 0-.697.992q-.226.615-.226 1.326 0 .71.226 1.32t.697.983q.47.375 1.201.374m8.033-6.26v.923h-3.822v-.923zM175.869 62v-8.07q0-.609.286-1.015.287-.406.743-.61.458-.203.965-.203.401 0 .656.065.254.064.378.12l-.314.942a5 5 0 0 0-.23-.07 1.4 1.4 0 0 0-.379-.041q-.54 0-.78.272-.236.273-.236.799V62zm9.947.166a2.9 2.9 0 0 1-1.223-.254 2.1 2.1 0 0 1-.873-.743q-.323-.489-.323-1.182 0-.609.24-.988.24-.383.642-.6t.886-.323a11 11 0 0 1 .984-.175q.646-.084 1.048-.125.405-.046.59-.152.19-.106.19-.37v-.037q0-.684-.374-1.061-.369-.38-1.122-.379-.78 0-1.223.342-.444.34-.624.729l-1.034-.37q.277-.645.739-1.006a2.8 2.8 0 0 1 1.016-.508 4.2 4.2 0 0 1 1.089-.147q.342 0 .785.083.447.078.863.328.42.25.697.752.277.504.277 1.348V62h-1.089v-.96h-.056a2 2 0 0 1-.369.494 2.1 2.1 0 0 1-.688.447q-.429.186-1.048.185m.166-.978q.646 0 1.09-.254a1.73 1.73 0 0 0 .905-1.5v-.998q-.07.084-.305.152a5 5 0 0 1-.535.116 25 25 0 0 1-1.044.138 4 4 0 0 0-.794.18q-.364.12-.591.365-.22.24-.221.656 0 .567.42.858.424.286 1.075.286m8.729 3.471v-9.75h1.053v1.127h.129q.12-.185.332-.471a1.95 1.95 0 0 1 .619-.517q.406-.231 1.099-.231.895 0 1.578.448.684.447 1.067 1.27.383.82.383 1.938 0 1.127-.383 1.953-.384.821-1.062 1.274-.678.448-1.565.448-.683 0-1.094-.227a2 2 0 0 1-.633-.521 7 7 0 0 1-.341-.49h-.092v3.75zm1.071-6.205q0 .804.235 1.418.236.61.688.955.453.342 1.108.342.684 0 1.141-.36.46-.365.692-.979a3.8 3.8 0 0 0 .235-1.375q0-.748-.23-1.349a2.1 2.1 0 0 0-.688-.955q-.457-.356-1.15-.356-.664 0-1.117.337-.452.333-.683.933-.231.595-.231 1.39M202.633 62v-7.09h1.052v1.07h.074q.194-.525.702-.854t1.145-.328q.12 0 .3.005t.272.014v1.108a3 3 0 0 0-.254-.042 2.5 2.5 0 0 0-.41-.032q-.517 0-.924.217-.401.212-.637.59-.231.375-.231.855V62zm7.594.148q-1.025 0-1.768-.453a3.03 3.03 0 0 1-1.14-1.274q-.397-.822-.397-1.911t.397-1.92q.401-.837 1.117-1.302.72-.471 1.68-.471.555 0 1.094.184.54.185.984.6.443.412.706 1.09.263.68.263 1.671v.462h-5.466v-.942h4.358q0-.6-.24-1.07a1.8 1.8 0 0 0-.674-.744 1.9 1.9 0 0 0-1.025-.273q-.65 0-1.126.324-.471.318-.725.83a2.44 2.44 0 0 0-.254 1.1v.627q0 .804.277 1.362.282.554.78.845.5.285 1.159.286.43 0 .776-.12.35-.124.604-.37.254-.249.393-.618l1.052.295a2.34 2.34 0 0 1-.558.942 2.7 2.7 0 0 1-.97.628 3.6 3.6 0 0 1-1.297.222m7.271 0q-.887 0-1.565-.448-.678-.453-1.062-1.274-.383-.827-.383-1.953 0-1.117.383-1.939.384-.821 1.067-1.27.683-.447 1.578-.447.693 0 1.095.23.406.227.618.518.217.285.337.47h.092v-3.49h1.09V62h-1.053v-1.09h-.129q-.12.195-.341.49a2 2 0 0 1-.633.522q-.411.225-1.094.226m.148-.979q.655 0 1.108-.342.452-.346.687-.955.236-.615.236-1.417 0-.795-.231-1.39-.231-.6-.683-.932-.453-.338-1.117-.338-.693 0-1.154.356a2.13 2.13 0 0 0-.688.955q-.226.6-.226 1.349 0 .756.23 1.375.236.615.693.979.461.36 1.145.36m5.249.831v-7.09h1.089V62zm.554-8.273a.78.78 0 0 1-.55-.217.7.7 0 0 1-.226-.521q0-.305.226-.522a.78.78 0 0 1 .55-.217q.318 0 .544.217a.7.7 0 0 1 .231.522.7.7 0 0 1-.231.521.76.76 0 0 1-.544.217m5.411 8.42q-.997 0-1.717-.47a3.07 3.07 0 0 1-1.108-1.297q-.388-.826-.388-1.889 0-1.08.397-1.906a3.14 3.14 0 0 1 1.117-1.297q.721-.471 1.681-.471.748 0 1.348.277.6.276.983.775t.476 1.164h-1.09a1.7 1.7 0 0 0-.554-.859q-.425-.379-1.145-.379-.637 0-1.117.333a2.16 2.16 0 0 0-.743.928q-.263.595-.263 1.399 0 .82.258 1.43.264.61.739.947.48.337 1.126.337.424 0 .771-.148a1.6 1.6 0 0 0 .587-.424q.24-.278.341-.665h1.09a2.5 2.5 0 0 1-.457 1.13q-.36.5-.956.795-.591.29-1.376.29m7.465-7.238v.923h-3.675v-.923zm-2.604-1.699h1.09v6.759q0 .46.134.692a.7.7 0 0 0 .351.305q.216.075.457.074.18 0 .295-.019l.185-.037.221.98a2 2 0 0 1-.309.082q-.198.046-.503.046a2.2 2.2 0 0 1-.905-.198 1.8 1.8 0 0 1-.729-.605q-.287-.405-.287-1.025zm7.047 8.938q-.96 0-1.685-.457a3.1 3.1 0 0 1-1.126-1.28q-.402-.82-.402-1.92 0-1.107.402-1.934a3.1 3.1 0 0 1 1.126-1.283q.726-.457 1.685-.457.961 0 1.681.457.725.456 1.126 1.283.407.827.407 1.935 0 1.098-.407 1.92a3.06 3.06 0 0 1-1.126 1.279q-.72.457-1.681.457m0-.979q.73 0 1.201-.374.47-.374.697-.983a3.8 3.8 0 0 0 .226-1.32q0-.711-.226-1.325a2.23 2.23 0 0 0-.697-.993q-.47-.379-1.201-.379-.729 0-1.2.379a2.23 2.23 0 0 0-.697.992q-.226.615-.226 1.326 0 .71.226 1.32t.697.983q.471.375 1.2.374m4.877.831v-7.09h1.052v1.07h.074a1.7 1.7 0 0 1 .702-.854q.507-.328 1.145-.328.12 0 .3.005t.272.014v1.108a3 3 0 0 0-.254-.042 2.5 2.5 0 0 0-.411-.032 1.9 1.9 0 0 0-.923.217q-.402.212-.637.59-.231.375-.231.855V62zm11.373.148q-.96 0-1.685-.457a3.1 3.1 0 0 1-1.126-1.28q-.402-.82-.402-1.92 0-1.107.402-1.934a3.1 3.1 0 0 1 1.126-1.283q.725-.457 1.685-.457t1.681.457q.725.456 1.126 1.283.407.827.407 1.935 0 1.098-.407 1.92a3.06 3.06 0 0 1-1.126 1.279q-.72.457-1.681.457m0-.979q.73 0 1.201-.374.47-.374.697-.983a3.8 3.8 0 0 0 .226-1.32q0-.711-.226-1.325a2.23 2.23 0 0 0-.697-.993q-.47-.379-1.201-.379-.729 0-1.2.379a2.23 2.23 0 0 0-.697.992q-.226.615-.226 1.326 0 .71.226 1.32t.697.983q.471.375 1.2.374m5.966-3.435V62h-1.089v-7.09h1.052v1.107h.093q.249-.54.757-.868.507-.332 1.311-.332.72 0 1.26.295.54.291.84.887.3.59.3 1.495V62h-1.089v-4.432q0-.835-.434-1.302-.433-.47-1.191-.47-.522 0-.933.226-.406.225-.641.66-.236.434-.236 1.052m12.258 4.432a2.9 2.9 0 0 1-1.223-.254 2.1 2.1 0 0 1-.873-.743q-.323-.489-.323-1.182 0-.609.24-.988.24-.383.642-.6.401-.217.886-.323.49-.11.983-.175.647-.084 1.048-.125.406-.046.591-.152.19-.106.19-.37v-.037q0-.684-.374-1.061-.37-.38-1.122-.379-.78 0-1.224.342-.443.34-.623.729l-1.034-.37q.277-.645.739-1.006a2.8 2.8 0 0 1 1.015-.508q.555-.147 1.09-.147.341 0 .785.083.447.078.863.328.42.25.697.752.277.504.277 1.348V62h-1.089v-.96h-.056a2 2 0 0 1-.369.494 2.1 2.1 0 0 1-.688.447q-.43.186-1.048.185m.166-.978q.646 0 1.09-.254a1.73 1.73 0 0 0 .905-1.5v-.998q-.07.084-.305.152a5 5 0 0 1-.536.116 24 24 0 0 1-1.043.138 4 4 0 0 0-.794.18q-.365.12-.591.365-.222.24-.222.656 0 .567.421.858.424.286 1.075.286m6.162-3.454V62h-1.089v-7.09h1.052v1.107h.092q.25-.54.758-.868.507-.332 1.311-.332.72 0 1.26.295.54.291.84.887.3.59.3 1.495V62h-1.089v-4.432q0-.835-.434-1.302-.435-.47-1.191-.47-.522 0-.933.226-.407.225-.642.66-.234.434-.235 1.052m13.052 4.414q-.96 0-1.685-.457a3.1 3.1 0 0 1-1.126-1.28q-.402-.82-.402-1.92 0-1.107.402-1.934.406-.826 1.126-1.283.725-.457 1.685-.457t1.68.457q.725.456 1.127 1.283.406.827.406 1.935 0 1.098-.406 1.92a3.06 3.06 0 0 1-1.127 1.279q-.72.457-1.68.457m0-.979q.729 0 1.2-.374.472-.374.697-.983a3.8 3.8 0 0 0 .227-1.32 3.8 3.8 0 0 0-.227-1.325q-.225-.614-.697-.993-.471-.379-1.2-.379t-1.2.379a2.23 2.23 0 0 0-.697.992 3.8 3.8 0 0 0-.227 1.326q0 .71.227 1.32.226.61.697.983.471.375 1.2.374m9.345-2.068v-4.192h1.089V62h-1.089v-1.2h-.074q-.25.54-.776.918-.526.375-1.329.374a2.37 2.37 0 0 1-1.182-.29 2.03 2.03 0 0 1-.812-.887q-.296-.595-.296-1.5v-4.506h1.09v4.432q0 .776.434 1.237.438.462 1.117.462.406 0 .826-.208.425-.207.711-.637.291-.43.291-1.094m6.169-4.192v.923h-3.675v-.923zm-2.604-1.699h1.089v6.759q0 .46.134.692.14.227.351.305.217.075.457.074.18 0 .296-.019l.184-.037.222.98a2 2 0 0 1-.309.082q-.199.046-.504.046a2.2 2.2 0 0 1-.904-.198 1.8 1.8 0 0 1-.73-.605q-.286-.405-.286-1.025zm7.047 8.938q-.997 0-1.717-.471a3.07 3.07 0 0 1-1.108-1.297q-.388-.826-.388-1.889 0-1.08.397-1.906a3.14 3.14 0 0 1 1.117-1.297q.72-.471 1.681-.471.747 0 1.348.277.6.276.983.775t.475 1.164h-1.089a1.7 1.7 0 0 0-.554-.859q-.425-.379-1.145-.379-.637 0-1.117.333a2.16 2.16 0 0 0-.743.928q-.264.595-.264 1.399 0 .82.259 1.43.263.61.739.947.48.337 1.126.337.425 0 .771-.148a1.59 1.59 0 0 0 .928-1.09h1.089a2.52 2.52 0 0 1-1.412 1.926q-.591.29-1.376.29m7.262 0q-.96 0-1.685-.457a3.1 3.1 0 0 1-1.127-1.28q-.4-.82-.401-1.92 0-1.107.401-1.934.407-.826 1.127-1.283.725-.457 1.685-.457t1.68.457q.725.456 1.127 1.283.405.827.406 1.935 0 1.098-.406 1.92a3.07 3.07 0 0 1-1.127 1.279q-.72.457-1.68.457m0-.979q.729 0 1.2-.374.47-.374.697-.983a3.8 3.8 0 0 0 .226-1.32q0-.711-.226-1.325a2.23 2.23 0 0 0-.697-.993q-.471-.379-1.2-.379-.73 0-1.201.379a2.24 2.24 0 0 0-.697.992q-.226.615-.226 1.326 0 .71.226 1.32.227.61.697.983.47.375 1.201.374m4.876.831v-7.09h1.052v1.107h.093q.221-.568.715-.882.495-.318 1.187-.318.702 0 1.168.318.47.315.734.882h.074q.272-.549.817-.873.544-.327 1.306-.327.951 0 1.556.595.605.591.605 1.842V62h-1.09v-4.746q0-.785-.429-1.121a1.6 1.6 0 0 0-1.011-.338q-.748 0-1.159.453-.411.447-.411 1.136V62h-1.108v-4.856q0-.605-.392-.975-.393-.373-1.011-.373-.425 0-.794.226-.365.226-.591.628a1.85 1.85 0 0 0-.222.918V62zm14.272.148q-1.026 0-1.768-.453a3.04 3.04 0 0 1-1.141-1.274q-.397-.822-.397-1.911t.397-1.92q.401-.837 1.118-1.302.72-.471 1.68-.471.554 0 1.094.184.54.185.983.6.444.412.707 1.09.263.68.263 1.671v.462h-5.466v-.942h4.358q0-.6-.24-1.07a1.8 1.8 0 0 0-.674-.744 1.9 1.9 0 0 0-1.025-.273q-.65 0-1.126.324-.471.318-.725.83-.255.512-.254 1.1v.627q0 .804.277 1.362.282.554.78.845.498.285 1.159.286.429 0 .775-.12.351-.124.605-.37.254-.249.392-.618l1.053.295a2.3 2.3 0 0 1-.559.942 2.7 2.7 0 0 1-.969.628 3.6 3.6 0 0 1-1.297.222m5.387-.074a.8.8 0 0 1-.586-.245.8.8 0 0 1-.245-.586.8.8 0 0 1 .245-.586.8.8 0 0 1 .586-.245q.342 0 .586.245a.8.8 0 0 1 .245.586q0 .226-.115.415a.87.87 0 0 1-.3.305.8.8 0 0 1-.416.11" class="fill-secondary"/><path d="M109 80a2.5 2.5 0 0 1 2.5-2.5h161A2.5 2.5 0 0 1 275 80v26a2.5 2.5 0 0 1-2.5 2.5h-161a2.5 2.5 0 0 1-2.5-2.5z" class="fill-component"/><path d="M109 80a2.5 2.5 0 0 1 2.5-2.5h161A2.5 2.5 0 0 1 275 80v26a2.5 2.5 0 0 1-2.5 2.5h-161a2.5 2.5 0 0 1-2.5-2.5z" class="stroke-border"/><path fill-rule="evenodd" d="M125.639 89.994a.48.48 0 0 1 0 .679l-1.847 1.847h9.416l-1.847-1.847a.479.479 0 1 1 .678-.679l2.667 2.667a.48.48 0 0 1 0 .679l-2.667 2.666a.48.48 0 1 1-.678-.679l1.847-1.847h-9.416l1.847 1.847a.48.48 0 1 1-.678.68l-2.667-2.667a.48.48 0 0 1 0-.68l2.667-2.666a.48.48 0 0 1 .678 0" clip-rule="evenodd" class="fill-symbol"/><path d="M149.829 91.074a1.16 1.16 0 0 0-.527-.875q-.465-.312-1.16-.312-.504 0-.875.16a1.34 1.34 0 0 0-.571.434q-.199.277-.203.628 0 .294.141.504t.363.356q.227.141.484.234.258.09.489.149l.789.207q.367.09.765.25.399.156.743.414.347.257.562.644.219.387.219.934 0 .667-.348 1.195-.344.528-1.004.832-.656.305-1.593.305-.887 0-1.536-.281a2.4 2.4 0 0 1-1.019-.797 2.3 2.3 0 0 1-.406-1.23h1.16q.035.44.285.73.254.285.648.425t.864.141q.523 0 .933-.164.41-.168.649-.469.238-.3.238-.703a.87.87 0 0 0-.207-.597 1.5 1.5 0 0 0-.555-.383 6 6 0 0 0-.773-.266l-.957-.262q-.957-.265-1.516-.77-.555-.507-.555-1.335 0-.684.372-1.195.375-.516 1.011-.801.637-.285 1.43-.285.8 0 1.418.285.617.28.976.773.36.492.375 1.125zm5.347-.074v.898h-3.238V91zm-2.352-1.437h1.106v5.687q0 .351.105.527.106.176.274.239.167.062.359.062.144 0 .246-.02l.164-.03.207.929a2 2 0 0 1-.285.078 2 2 0 0 1-.457.043 2 2 0 0 1-.836-.164 1.5 1.5 0 0 1-.641-.527q-.242-.355-.242-.895zm5.419 7.57q-.57 0-1.031-.211a1.74 1.74 0 0 1-.731-.621q-.269-.411-.269-.996 0-.513.195-.836.2-.328.531-.516.336-.19.747-.285a8 8 0 0 1 .836-.152l.875-.102q.335-.043.492-.133.156-.093.156-.308v-.028q0-.526-.297-.816-.293-.293-.875-.293-.609 0-.957.266t-.48.585l-1.043-.265q.207-.547.586-.875.378-.332.863-.477a3.44 3.44 0 0 1 1.746-.066q.399.078.754.3.356.22.582.633.226.415.226 1.086V97h-1.086v-.816h-.046q-.106.215-.332.437a1.8 1.8 0 0 1-.582.367 2.3 2.3 0 0 1-.86.145m.227-.906q.5 0 .851-.196.356-.199.539-.515a1.34 1.34 0 0 0 .184-.68v-.793a.6.6 0 0 1-.246.121 4 4 0 0 1-.414.09q-.231.039-.453.066l-.368.047q-.344.046-.632.149a1.07 1.07 0 0 0-.461.296q-.172.192-.172.512 0 .445.328.676.332.227.844.227m4.264.773v-6h1.071v.941h.062q.165-.472.582-.75.418-.28.949-.28.106 0 .254.007.153.004.239.016v1.074a2 2 0 0 0-.239-.043 2.3 2.3 0 0 0-.359-.028q-.418.001-.746.176a1.35 1.35 0 0 0-.52.485 1.33 1.33 0 0 0-.187.707V97zm7.309-6v.898h-3.238V91zm-2.352-1.437h1.106v5.687q0 .351.105.527a.54.54 0 0 0 .274.239q.168.062.359.062.145 0 .246-.02l.164-.03.207.929a2 2 0 0 1-.285.078 2 2 0 0 1-.457.043 2 2 0 0 1-.836-.164 1.5 1.5 0 0 1-.64-.527q-.243-.355-.243-.895zM180.846 89v8h-1.071l-4.136-5.969h-.075V97h-1.148v-8h1.07l4.149 5.98h.074V89zm4.263 8.121q-.879 0-1.515-.379a2.54 2.54 0 0 1-.981-1.074q-.343-.695-.343-1.625 0-.922.343-1.625.344-.707.961-1.102.621-.394 1.449-.394.501 0 .969.164.472.165.852.523.379.355.597.93.223.574.223 1.395v.406h-4.734v-.856h3.64a1.8 1.8 0 0 0-.195-.836 1.4 1.4 0 0 0-.535-.582 1.5 1.5 0 0 0-.809-.214q-.507 0-.883.25a1.7 1.7 0 0 0-.574.644 1.9 1.9 0 0 0-.203.86v.644q0 .621.219 1.055t.609.66q.394.226.918.226.344 0 .621-.097.277-.098.481-.293.202-.195.312-.485l1.051.211q-.133.48-.473.84t-.847.559q-.508.195-1.153.195M190.29 97l-1.777-6h1.144l1.207 4.453h.059L192.13 91h1.148l1.196 4.434h.062L195.735 91h1.149l-1.781 6h-1.118l-1.242-4.402h-.09L191.411 97zm17.367-5.426h-1.152a2 2 0 0 0-.274-.695 2.005 2.005 0 0 0-1.113-.828 2.5 2.5 0 0 0-.734-.106q-.7 0-1.258.352-.555.352-.879 1.035-.32.68-.32 1.668 0 .992.324 1.676.324.68.879 1.031.555.348 1.254.348.382 0 .73-.102a2.05 2.05 0 0 0 1.114-.82q.199-.3.277-.692l1.152.004a3.2 3.2 0 0 1-.383 1.09 3 3 0 0 1-.714.844 3.2 3.2 0 0 1-.985.543 3.7 3.7 0 0 1-1.199.187q-1.035 0-1.844-.496-.808-.495-1.273-1.418-.465-.921-.465-2.195 0-1.278.465-2.195.468-.923 1.277-1.418.808-.496 1.84-.496.629 0 1.176.18.55.18.988.527t.727.843.39 1.133m3.88 5.547q-.835 0-1.461-.387a2.6 2.6 0 0 1-.972-1.082q-.344-.695-.344-1.625 0-.933.344-1.633a2.6 2.6 0 0 1 .972-1.085q.625-.387 1.461-.387.835 0 1.461.387.625.386.969 1.085.347.7.347 1.633 0 .93-.347 1.625a2.6 2.6 0 0 1-.969 1.082q-.626.387-1.461.387m.004-.941q.563 0 .93-.297.371-.297.55-.785.18-.49.18-1.07 0-.583-.18-1.075a1.8 1.8 0 0 0-.55-.793q-.368-.3-.93-.3-.57 0-.941.3-.367.3-.547.793-.18.492-.18 1.074t.18 1.07.547.786q.37.297.941.297m4.099.82v-6h1.062v.969h.074q.187-.492.61-.77.425-.277 1.019-.277.598 0 1.004.277.406.278.61.77h.062q.219-.48.684-.762.465-.285 1.113-.285.816 0 1.332.512.516.507.516 1.547V97h-1.11v-3.937q0-.626-.34-.899a1.22 1.22 0 0 0-.804-.277q-.59 0-.914.36-.325.355-.325.91V97h-1.105v-4.02q0-.492-.313-.793-.312-.3-.808-.3-.336 0-.625.18a1.3 1.3 0 0 0-.465.492 1.5 1.5 0 0 0-.172.73V97zm9.678 2.25V91h1.078v.969h.098q.105-.18.293-.426t.527-.434q.345-.187.907-.187.734 0 1.304.371.575.367.899 1.063.328.69.328 1.656 0 .969-.324 1.664-.325.695-.895 1.07a2.3 2.3 0 0 1-1.301.371q-.554 0-.898-.183a1.7 1.7 0 0 1-.539-.434 4 4 0 0 1-.301-.43h-.07v3.18zm1.086-5.25q0 .645.184 1.133.188.484.543.758.359.273.875.273.539 0 .898-.285a1.73 1.73 0 0 0 .547-.773q.184-.493.184-1.106 0-.606-.18-1.086a1.66 1.66 0 0 0-.543-.758q-.363-.28-.906-.281-.519 0-.879.266a1.63 1.63 0 0 0-.539.746 3.1 3.1 0 0 0-.184 1.113m7.432 3.133q-.57 0-1.031-.211a1.74 1.74 0 0 1-.731-.621q-.269-.411-.269-.996 0-.513.195-.836.2-.328.531-.516.336-.19.746-.285.41-.098.836-.152l.875-.102q.336-.043.492-.133.157-.093.157-.308v-.028q0-.526-.297-.816-.293-.293-.875-.293-.609 0-.957.266a1.45 1.45 0 0 0-.481.585l-1.043-.265q.207-.547.586-.875.38-.332.864-.477a3.44 3.44 0 0 1 1.746-.066q.398.078.754.3.356.22.582.633.226.415.226 1.086V97h-1.086v-.816h-.047q-.105.215-.332.437a1.8 1.8 0 0 1-.582.367 2.3 2.3 0 0 1-.859.145m.227-.906q.5 0 .851-.196.356-.199.539-.515a1.34 1.34 0 0 0 .184-.68v-.793a.6.6 0 0 1-.246.121 4 4 0 0 1-.414.09q-.23.039-.454.066l-.367.047q-.344.046-.633.149a1.1 1.1 0 0 0-.461.296q-.171.192-.171.512 0 .445.328.676.331.227.844.227m4.264.773v-6h1.07v.941h.063q.163-.472.582-.75.418-.28.949-.28.106 0 .254.007.153.004.238.016v1.074a2 2 0 0 0-.238-.043 2.3 2.3 0 0 0-.359-.028q-.419.001-.746.176a1.35 1.35 0 0 0-.52.485 1.33 1.33 0 0 0-.187.707V97zm4.2 0v-6h1.106v6zm.559-6.945a.72.72 0 0 1-.508-.2.64.64 0 0 1-.211-.476.64.64 0 0 1 .211-.48.72.72 0 0 1 .508-.2q.297 0 .508.2a.64.64 0 0 1 .211.48.64.64 0 0 1-.211.477.71.71 0 0 1-.508.199m6.582 2.379-1 .199a1.4 1.4 0 0 0-.215-.39 1.05 1.05 0 0 0-.39-.305 1.4 1.4 0 0 0-.622-.122q-.507 0-.851.23-.34.228-.336.583a.6.6 0 0 0 .226.5q.231.188.735.308l.941.22q.82.19 1.223.593.406.4.406 1.031 0 .536-.308.953a2.07 2.07 0 0 1-.856.653q-.542.234-1.262.234-.988 0-1.617-.422-.624-.422-.773-1.21l1.062-.188q.113.458.446.687.336.227.871.227.593 0 .945-.25t.352-.606a.64.64 0 0 0-.211-.488q-.211-.196-.649-.297l-1.008-.226q-.84-.188-1.234-.606-.395-.418-.395-1.055 0-.524.293-.921.294-.399.809-.622a3 3 0 0 1 1.184-.222q.953 0 1.5.414.546.41.734 1.098m3.925 4.687q-.836 0-1.461-.387a2.6 2.6 0 0 1-.973-1.082q-.344-.695-.344-1.625 0-.933.344-1.633.348-.7.973-1.085.625-.387 1.461-.387t1.461.387q.624.386.968 1.085.348.7.348 1.633 0 .93-.348 1.625a2.6 2.6 0 0 1-.968 1.082q-.625.387-1.461.387m.004-.941q.563 0 .929-.297.372-.297.551-.785.18-.49.18-1.07 0-.583-.18-1.075a1.8 1.8 0 0 0-.551-.793q-.366-.3-.929-.3-.57 0-.942.3-.367.3-.547.793a3.1 3.1 0 0 0-.179 1.074q0 .582.179 1.07.18.489.547.786.371.297.942.297m5.204-2.754V97h-1.106v-6h1.063v.969h.074a1.73 1.73 0 0 1 .648-.762q.442-.285 1.118-.285.613 0 1.07.254.461.254.715.758.257.503.254 1.25V97h-1.106v-3.695q0-.669-.347-1.043-.344-.375-.95-.375a1.47 1.47 0 0 0-.738.183 1.3 1.3 0 0 0-.512.524q-.183.343-.183.832" class="fill-accent"/></svg>