<svg xmlns="http://www.w3.org/2000/svg" width="288" height="416" fill="none" viewBox="0 0 288 416" class="widget-__portfolio-widget"><path fill="#FCFDFC" d="M.5 6A5.5 5.5 0 016 .5h276a5.5 5.5 0 015.5 5.5v404a5.5 5.5 0 01-5.5 5.5H6A5.5 5.5 0 01.5 410z"/><path stroke="#D7DAD7" d="M.5 6A5.5 5.5 0 016 .5h276a5.5 5.5 0 015.5 5.5v404a5.5 5.5 0 01-5.5 5.5H6A5.5 5.5 0 01.5 410z"/><g clip-path="url(#widget-__a)"><path fill="#717A6D" fill-rule="evenodd" d="M16 20.4c0-.258.209-.466.467-.466h1.866a.467.467 0 110 .933h-1.866A.467.467 0 0116 20.4m3.733 0c0-.258.21-.466.467-.466h9.333a.467.467 0 010 .933H20.2a.467.467 0 01-.467-.467m0 2.8c0-.258.21-.466.467-.466h6.533a.467.467 0 010 .933H20.2a.467.467 0 01-.467-.467M16 26c0-.258.209-.466.467-.466h1.866a.467.467 0 110 .933h-1.866A.467.467 0 0116 26m3.733 0c0-.258.21-.466.467-.466h9.333a.467.467 0 010 .933H20.2a.467.467 0 01-.467-.467m0 2.8c0-.257.21-.466.467-.466h6.533a.467.467 0 010 .933H20.2a.467.467 0 01-.467-.467M16 31.6c0-.257.209-.466.467-.466h1.866a.467.467 0 010 .933h-1.866A.467.467 0 0116 31.6m3.733 0c0-.257.21-.466.467-.466h9.333a.467.467 0 010 .933H20.2a.467.467 0 01-.467-.467" clip-rule="evenodd"/></g><path fill="#1D211C" d="M40.558 21.546V31h-1.575v-9.454zm3.403 5.272V31h-1.528v-7.09h1.463v1.18h.088q.245-.58.776-.927.53-.345 1.325-.346.728 0 1.274.31.545.308.845.904.304.595.304 1.459V31H46.98v-4.298q0-.743-.383-1.159-.383-.42-1.057-.42-.462 0-.817.199a1.4 1.4 0 00-.559.577q-.203.378-.203.918m9.346 6.989q-.873 0-1.5-.231-.624-.23-1.011-.619a2.36 2.36 0 01-.559-.849l1.343-.425q.117.204.32.42.203.218.548.365.347.153.882.152.748 0 1.237-.364.49-.36.49-1.173v-1.366h-.088a2.7 2.7 0 01-.365.521q-.24.273-.646.466-.405.19-1.034.19-.827 0-1.496-.388-.664-.393-1.057-1.163-.393-.771-.392-1.916 0-1.145.387-1.953.388-.808 1.058-1.233.669-.424 1.51-.424.64 0 1.043.217.405.211.641.508.236.29.36.526h.093v-1.159h1.5v7.23q0 .909-.43 1.5-.423.59-1.163.877-.739.29-1.67.29m.005-4.141q.563 0 .955-.268a1.65 1.65 0 00.596-.77q.208-.51.208-1.21 0-.697-.203-1.22a1.8 1.8 0 00-.596-.812q-.393-.295-.96-.295-.59 0-.988.305-.397.305-.596.83-.198.526-.198 1.192 0 .674.203 1.181.203.504.595.785.398.282.984.282M58.352 31v-7.09h1.483v1.153h.074q.194-.59.674-.923.484-.337 1.098-.337.135 0 .31.014.175.009.286.027v1.432a2 2 0 00-.319-.06 3 3 0 00-.429-.033q-.475 0-.85.203a1.5 1.5 0 00-.586.554 1.54 1.54 0 00-.212.813V31zm7.915.143q-1.057 0-1.824-.448a3 3 0 01-1.177-1.27q-.41-.821-.41-1.924 0-1.094.41-1.925a3.13 3.13 0 011.159-1.293q.743-.465 1.745-.466.632 0 1.205.203.572.203 1.02.637.448.43.706 1.108.264.678.263 1.625v.498h-5.729v-1.08h4.247q0-.507-.212-.905a1.6 1.6 0 00-.595-.632 1.67 1.67 0 00-.887-.23 1.74 1.74 0 00-.96.262q-.406.263-.632.693a2.05 2.05 0 00-.227.932v.891q0 .665.24 1.136t.67.72q.429.245 1.002.245.383 0 .692-.106.31-.111.53-.324.228-.216.347-.535l1.436.208a2.4 2.4 0 01-.563 1.043q-.407.443-1.034.692-.624.246-1.422.245m10.027-5.429-1.39.194a1.3 1.3 0 00-.235-.443 1.2 1.2 0 00-.439-.346 1.6 1.6 0 00-.688-.134q-.554 0-.928.244-.369.245-.369.633 0 .333.25.535.248.204.807.337l1.173.259q.993.221 1.477.692t.49 1.228q-.005.656-.384 1.16-.374.497-1.043.784-.665.286-1.537.286-1.251 0-2.022-.526-.771-.531-.937-1.491L72 28.94q.12.503.494.762.374.254.974.254.637 0 1.02-.264.384-.267.388-.65a.69.69 0 00-.244-.531q-.235-.213-.739-.323l-1.2-.264q-1.011-.216-1.491-.715-.48-.504-.476-1.265-.005-.642.351-1.117.355-.48.988-.744.638-.267 1.463-.267 1.196 0 1.884.517.692.512.882 1.38m7.046 0-1.39.194a1.3 1.3 0 00-.235-.443 1.2 1.2 0 00-.439-.346 1.6 1.6 0 00-.688-.134q-.554 0-.928.244-.37.245-.37.633 0 .333.25.535.25.204.808.337l1.173.259q.992.221 1.477.692.484.471.49 1.228-.006.656-.384 1.16-.374.497-1.043.784-.665.286-1.538.286-1.25 0-2.022-.526-.77-.531-.937-1.491l1.482-.185q.12.503.494.762.374.254.974.254.638 0 1.02-.264.384-.267.388-.65a.69.69 0 00-.244-.531q-.235-.213-.739-.323l-1.2-.264q-1.011-.216-1.491-.715-.48-.504-.476-1.265-.004-.642.351-1.117.355-.48.988-.744.637-.267 1.463-.267 1.195 0 1.884.517.692.512.882 1.38M88.355 31v-9.454h3.463q1.095 0 1.823.406.734.4 1.104 1.103.373.702.373 1.588 0 .891-.373 1.593a2.68 2.68 0 01-1.108 1.103q-.74.402-1.833.402h-2.336V26.43h2.151q.67 0 1.09-.231t.618-.633q.2-.405.199-.923 0-.522-.199-.919a1.4 1.4 0 00-.623-.627q-.42-.227-1.094-.227h-1.68V31zm10.214.148a2.9 2.9 0 01-1.214-.245 2 2 0 01-.859-.72q-.313-.48-.313-1.177 0-.605.226-.993.231-.393.618-.623.388-.232.868-.346.486-.12.998-.176.627-.073 1.02-.124.392-.051.572-.162.18-.11.18-.355v-.033q0-.558-.328-.868-.322-.309-.946-.309-.656 0-1.034.286-.378.287-.522.656L96.41 25.7q.207-.645.641-1.061.435-.42 1.03-.62.6-.201 1.293-.202.47 0 .96.11.494.11.914.38.42.267.679.747.263.48.263 1.219V31h-1.478v-.97h-.055a2 2 0 01-.411.536q-.271.258-.688.42a2.7 2.7 0 01-.988.162m.365-1.164q.54 0 .928-.212.387-.217.595-.563.213-.35.213-.757v-.877a.8.8 0 01-.277.129q-.198.055-.448.101-.25.042-.49.074l-.41.056a3.4 3.4 0 00-.697.17q-.315.116-.499.333-.184.212-.184.558 0 .49.36.74.36.248.909.248m8.45-6.075v1.2h-3.974v-1.2zm-2.954-1.699h1.528v6.685q0 .365.111.558a.57.57 0 00.291.259q.185.065.401.065.162 0 .286-.023l.199-.037.268 1.223a4 4 0 01-.365.092 3 3 0 01-.577.065 2.6 2.6 0 01-1.076-.194 1.77 1.77 0 01-.78-.642q-.29-.433-.286-1.09zm6.093 4.607V31h-1.529v-9.454h1.501v3.545h.088q.245-.591.761-.933.522-.34 1.339-.341.734 0 1.283.304.55.306.85.9.305.596.305 1.469V31h-1.528v-4.298q0-.748-.384-1.163-.382-.416-1.071-.416-.466 0-.835.199a1.4 1.4 0 00-.573.577q-.207.378-.207.918"/><path fill="#717A6D" fill-rule="evenodd" d="M268.996 22.763a.536.536 0 10-.759-.76L265 25.242l-3.237-3.237a.537.537 0 00-.759.759L264.241 26l-3.237 3.237a.536.536 0 10.759.76L265 26.758l3.237 3.237a.537.537 0 00.759-.759L265.759 26z" clip-rule="evenodd"/><path fill="#898E87" d="M16 55a3 3 0 013-3h34a3 3 0 013 3v14a3 3 0 01-3 3H19a3 3 0 01-3-3z"/><path fill="#fff" d="M32.772 57.996q.48.004.938.172.46.166.83.547.371.378.59 1.015.22.639.22 1.586a6.2 6.2 0 01-.182 1.602 3.6 3.6 0 01-.533 1.188 2.36 2.36 0 01-.84.735 2.37 2.37 0 01-1.104.254q-.633 0-1.126-.25a2.14 2.14 0 01-.8-.688 2.25 2.25 0 01-.378-1.002h1.13q.102.425.402.684.3.257.772.257.74 0 1.144-.641.408-.645.408-1.795h-.047q-.172.294-.435.506-.264.213-.59.327-.328.112-.696.112-.604 0-1.093-.29a2.1 2.1 0 01-.772-.8 2.36 2.36 0 01-.284-1.167 2.35 2.35 0 01.3-1.198q.307-.536.858-.847.55-.313 1.288-.307m.004.945q-.381 0-.685.186a1.34 1.34 0 00-.48.502q-.171.314-.171.699t.168.698q.172.314.47.5.296.18.677.181.288 0 .533-.11a1.4 1.4 0 00.429-.305q.185-.195.29-.445.105-.253.105-.53a1.42 1.42 0 00-.651-1.184 1.24 1.24 0 00-.685-.192m6.382 6.153q-.736 0-1.306-.25-.57-.252-.89-.69a1.65 1.65 0 01-.318-1.003q-.003-.434.183-.8.188-.367.512-.613t.722-.314v-.047a1.4 1.4 0 01-.843-.547 1.6 1.6 0 01-.317-.985 1.6 1.6 0 01.286-.948q.294-.418.803-.658a2.7 2.7 0 011.168-.243q.65 0 1.16.243.51.24.803.658a1.6 1.6 0 01.294.948q0 .557-.324.985a1.4 1.4 0 01-.837.547v.047q.399.068.715.314.321.246.51.614.192.365.192.8 0 .56-.324 1.001a2.16 2.16 0 01-.887.692q-.567.25-1.302.25m0-.907q.408 0 .708-.138.3-.14.466-.388.165-.254.168-.584a1.1 1.1 0 00-.178-.61 1.2 1.2 0 00-.476-.419q-.3-.155-.688-.155-.389 0-.692.155-.303.151-.479.418a1.1 1.1 0 00-.172.611q0 .33.162.58.165.25.469.392.303.138.712.138m0-3.181q.33 0 .587-.132.255-.135.401-.374.15-.24.152-.554a1.03 1.03 0 00-.148-.543.95.95 0 00-.399-.36 1.3 1.3 0 00-.593-.132 1.3 1.3 0 00-.6.131.95.95 0 00-.399.361 1 1 0 00-.142.543q0 .315.145.554.146.235.402.37.26.136.594.136"/><path fill="#001800" fill-opacity=".125" d="M35 72h2v6h-2z"/><path fill="#1D211C" d="M64.902 59v-8h4.918v.992h-3.77v2.504h3.415v.992H66.05V59zm6.344 0v-6h1.106v6zm.559-6.945a.72.72 0 01-.508-.2.63.63 0 01-.211-.476q0-.282.21-.48a.72.72 0 01.509-.2q.297 0 .507.2.211.198.211.48 0 .278-.21.477-.211.198-.508.199m3.254 3.37V59h-1.106v-6h1.063v.969h.074q.21-.477.648-.762.442-.285 1.118-.285.612 0 1.07.254.46.255.715.758.257.504.253 1.25V59H77.79v-3.695q0-.668-.348-1.043-.343-.375-.949-.375-.414 0-.738.183-.324.18-.512.524-.183.343-.183.832m7.186 3.708q-.57 0-1.031-.211a1.74 1.74 0 01-.73-.621q-.27-.411-.27-.996 0-.512.195-.836.2-.328.531-.516.336-.192.746-.285.411-.098.836-.152l.875-.102q.336-.043.493-.133.156-.093.156-.308v-.028q0-.526-.297-.816-.293-.293-.875-.293-.609 0-.957.266a1.45 1.45 0 00-.48.586l-1.043-.266q.207-.547.585-.875.379-.331.864-.477a3.45 3.45 0 011.746-.066q.399.078.754.3.355.219.582.633.226.416.226 1.086V59h-1.086v-.816h-.046q-.105.215-.333.437a1.8 1.8 0 01-.582.367 2.3 2.3 0 01-.859.145m.227-.906q.5 0 .851-.196.355-.199.54-.515.183-.32.183-.68v-.793a.6.6 0 01-.246.121q-.18.051-.414.09-.231.039-.453.066l-.368.047q-.344.046-.632.149a1.1 1.1 0 00-.461.297q-.172.191-.172.511 0 .445.328.676.331.227.844.227m5.37-2.801V59h-1.106v-6H87.8v.969h.074q.21-.477.648-.762.442-.285 1.118-.285.613 0 1.07.254.461.255.715.758.257.504.254 1.25V59h-1.106v-3.695q0-.668-.347-1.043-.344-.375-.95-.375-.414 0-.738.183-.324.18-.512.524-.183.343-.183.832m7.94 3.695q-.862 0-1.488-.394a2.6 2.6 0 01-.957-1.098q-.332-.699-.332-1.602 0-.914.344-1.613.344-.703.96-1.098.622-.394 1.462-.394.667 0 1.195.246.53.246.86.695.327.446.394 1.04h-1.082a1.4 1.4 0 00-.438-.727q-.34-.309-.914-.309a1.5 1.5 0 00-.875.262q-.375.261-.586.742-.207.477-.207 1.129 0 .665.203 1.152.207.489.582.754.376.266.883.266.345 0 .617-.121.278-.126.465-.356.192-.23.27-.558h1.082A2.18 2.18 0 0197 58.863q-.52.258-1.219.258m6.282 0q-.878 0-1.515-.379a2.54 2.54 0 01-.98-1.074q-.344-.696-.344-1.625 0-.922.343-1.625.345-.707.961-1.102.62-.394 1.45-.394.5 0 .968.164.472.165.852.523.379.355.597.93.223.575.223 1.395v.406h-4.734v-.856h3.64a1.8 1.8 0 00-.195-.836 1.4 1.4 0 00-.535-.582 1.5 1.5 0 00-.809-.214q-.507 0-.882.25a1.7 1.7 0 00-.575.644 1.9 1.9 0 00-.203.86v.644q0 .621.219 1.055t.609.66q.394.225.918.226.344 0 .621-.097.277-.098.481-.293t.312-.485l1.051.211q-.132.48-.473.84t-.847.559q-.508.195-1.153.195m11.298-6.047a1.16 1.16 0 00-.527-.875q-.465-.312-1.16-.312-.504 0-.875.16a1.34 1.34 0 00-.571.434 1.1 1.1 0 00-.203.628q0 .294.141.504t.363.356q.227.14.485.234.258.09.488.149l.789.207q.367.09.766.25.398.156.742.414.348.258.562.644.219.388.219.934 0 .667-.348 1.195-.343.528-1.004.832-.656.305-1.593.305-.887 0-1.535-.281a2.4 2.4 0 01-1.02-.797 2.3 2.3 0 01-.406-1.23h1.16q.034.44.285.73.254.285.649.425.394.141.863.141.523 0 .933-.164.41-.168.649-.469.238-.3.238-.703a.87.87 0 00-.207-.597 1.5 1.5 0 00-.555-.383 6 6 0 00-.773-.266l-.957-.262q-.957-.265-1.516-.77-.554-.507-.554-1.335 0-.684.371-1.195.375-.516 1.011-.801.638-.285 1.43-.285.801 0 1.418.285.618.28.977.773.359.492.375 1.125zm5.159 6.047q-.878 0-1.515-.379a2.55 2.55 0 01-.981-1.074q-.343-.696-.343-1.625 0-.922.343-1.625.345-.707.961-1.102.62-.394 1.45-.394.5 0 .968.164.472.165.852.523.379.355.598.93.222.575.222 1.395v.406h-4.734v-.856h3.64a1.8 1.8 0 00-.195-.836 1.4 1.4 0 00-.535-.582 1.5 1.5 0 00-.809-.214q-.507 0-.882.25a1.7 1.7 0 00-.575.644 1.9 1.9 0 00-.203.86v.644q0 .621.219 1.055t.609.66q.395.225.918.226.344 0 .621-.097.277-.098.481-.293t.312-.485l1.051.211q-.132.48-.473.84t-.847.559q-.508.195-1.153.195M122.4 59v-6h1.071v.941h.062q.165-.472.582-.75.418-.28.949-.28.106 0 .254.007.152.004.239.016v1.074a2 2 0 00-.239-.043 2.3 2.3 0 00-.359-.028q-.418.001-.746.176a1.35 1.35 0 00-.52.485 1.33 1.33 0 00-.187.707V59zm9.457-6-2.187 6h-1.172l-2.187-6h1.191l1.551 4.66h.062L130.67 53zm3.476 6.121q-.879 0-1.516-.379a2.55 2.55 0 01-.98-1.074q-.344-.696-.344-1.625 0-.922.344-1.625.343-.707.961-1.102.621-.394 1.449-.394.5 0 .969.164.473.165.851.523.38.355.598.93.222.575.223 1.395v.406h-4.735v-.856h3.641a1.8 1.8 0 00-.195-.836 1.4 1.4 0 00-.536-.582 1.5 1.5 0 00-.808-.214q-.508 0-.883.25a1.67 1.67 0 00-.574.644 1.86 1.86 0 00-.203.86v.644q0 .621.218 1.055.219.434.61.66.394.225.918.226.344 0 .621-.097.277-.098.48-.293.204-.195.313-.485l1.051.211q-.133.48-.473.84t-.848.559q-.507.195-1.152.195m3.879-.121v-6h1.07v.941h.063q.163-.472.582-.75a1.66 1.66 0 01.949-.28q.105 0 .254.007.152.004.238.016v1.074a2 2 0 00-.238-.043 2.3 2.3 0 00-.359-.028q-.418.001-.747.176a1.35 1.35 0 00-.519.485 1.34 1.34 0 00-.188.707V59zm7.336-3.879v.973h-3.539v-.973zm4.378 4.004q-.914 0-1.563-.484-.644-.485-.988-1.407-.344-.925-.344-2.23.005-1.3.348-2.219.344-.921.992-1.406.648-.488 1.555-.488t1.554.488q.649.485.993 1.406.347.918.347 2.219 0 1.305-.343 2.23-.344.923-.993 1.407-.644.484-1.558.484m0-.996q.828 0 1.293-.805.469-.804.469-2.32 0-1.008-.215-1.707-.211-.699-.606-1.063a1.34 1.34 0 00-.941-.363q-.82 0-1.289.813-.47.808-.469 2.32 0 1.007.207 1.707.211.699.605 1.059.395.36.946.359M159.332 51v8h-1.148v-6.836h-.047l-1.922 1.258v-1.113L158.211 51z"/><path fill="#686E67" d="M70.396 69.25h-.836a1.74 1.74 0 00-.705-1.093 1.9 1.9 0 00-.577-.283 2.3 2.3 0 00-.662-.095q-.627 0-1.136.317-.506.317-.807.935-.297.617-.297 1.514 0 .899.297 1.515.3.618.807.935.51.317 1.136.317.345 0 .662-.095.316-.094.577-.28a1.78 1.78 0 00.705-1.096h.836q-.094.53-.344.948a2.6 2.6 0 01-1.454 1.154 3.1 3.1 0 01-.981.151q-.885 0-1.573-.431a2.96 2.96 0 01-1.082-1.228q-.395-.796-.395-1.89 0-1.092.395-1.889t1.082-1.228a2.9 2.9 0 011.573-.432q.522 0 .981.152.462.153.834.446.37.29.62.708.25.415.344.948m1.636-2.16 2.05 5.817h.082l2.05-5.816h.878L74.555 74h-.864l-2.537-6.91zM78.168 74v-6.91h4.17v.743h-3.333v2.335h3.117v.742h-3.117v2.348h3.387V74zm8.539-3.826v.742h-3.023v-.742zM88.297 74v-.607l2.28-2.497q.402-.438.661-.762.26-.327.385-.614.128-.29.128-.607a1.12 1.12 0 00-.648-1.043 1.5 1.5 0 00-.674-.145q-.399 0-.695.165-.294.162-.456.456a1.4 1.4 0 00-.158.688h-.797q0-.607.28-1.066t.763-.715q.486-.257 1.09-.257.606 0 1.076.257.469.255.735.691.267.435.267.969 0 .38-.139.745-.135.361-.472.806-.333.443-.928 1.08l-1.552 1.66v.054h3.212V74zm8.31.094q-.763 0-1.3-.414-.535-.42-.82-1.212-.282-.795-.282-1.922 0-1.12.283-1.913.286-.797.823-1.215.54-.422 1.295-.422.756 0 1.293.422.54.418.823 1.215.286.792.287 1.913 0 1.126-.284 1.922-.283.793-.82 1.212-.535.414-1.299.414m0-.742q.755 0 1.174-.728.418-.73.418-2.078 0-.898-.192-1.529-.19-.63-.547-.961-.354-.33-.853-.33-.75 0-1.171.738-.422.735-.422 2.082 0 .897.19 1.524.188.628.542.955.358.327.86.327m7.081-6.261V74h-.836v-6.032h-.041l-1.686 1.12v-.85l1.727-1.147zm5.166-.095q.426.005.85.162.426.159.776.527.351.364.564.995.212.63.212 1.582 0 .922-.175 1.636-.172.712-.499 1.201-.324.49-.79.742a2.14 2.14 0 01-1.046.254q-.58 0-1.035-.23a2.04 2.04 0 01-.743-.644 2.25 2.25 0 01-.367-.962h.823q.11.476.442.786.334.307.88.307.8 0 1.262-.698.466-.698.466-1.974h-.054a2.1 2.1 0 01-.449.49 1.98 1.98 0 01-1.252.428q-.594 0-1.089-.293a2.2 2.2 0 01-.79-.814 2.4 2.4 0 01-.293-1.187q0-.635.283-1.16a2.2 2.2 0 01.803-.844q.519-.314 1.221-.304m0 .743q-.424 0-.766.212-.336.21-.536.567-.195.354-.196.786 0 .432.189.786.193.35.523.56.335.206.759.206.321 0 .597-.125.278-.128.483-.347.209-.224.327-.503.118-.284.118-.59 0-.405-.196-.76a1.55 1.55 0 00-.533-.573 1.38 1.38 0 00-.769-.22m6.826 2.435v.742h-3.023v-.742zm3.749 3.92q-.763 0-1.299-.414-.537-.42-.82-1.212-.283-.795-.283-1.922 0-1.12.283-1.913.287-.797.823-1.215.54-.422 1.296-.422t1.292.422q.54.418.823 1.215.287.792.287 1.913 0 1.126-.284 1.922-.284.793-.819 1.212-.537.414-1.299.414m0-.742q.756 0 1.174-.728.418-.73.418-2.078 0-.898-.192-1.529-.189-.63-.547-.961-.354-.33-.853-.33-.75 0-1.171.738-.422.735-.422 2.082 0 .897.189 1.524.189.628.543.955.359.327.861.327m7.082-6.261V74h-.837v-6.032h-.04l-1.687 1.12v-.85l1.727-1.147zm5.22 7.004q-.763 0-1.299-.415-.537-.42-.82-1.212-.283-.795-.283-1.922 0-1.12.283-1.913.286-.797.823-1.215.54-.422 1.296-.422.755 0 1.292.422.539.418.823 1.215.287.792.287 1.913 0 1.126-.284 1.922-.283.793-.82 1.212-.536.414-1.298.414m0-.743q.755 0 1.174-.728.418-.73.418-2.078 0-.898-.192-1.529-.19-.63-.547-.961a1.2 1.2 0 00-.853-.33q-.75 0-1.171.738-.422.735-.422 2.082 0 .897.189 1.524.189.628.543.955.358.327.861.327m7.081-6.261V74h-.836v-6.032h-.041l-1.686 1.12v-.85l1.727-1.147z"/><path fill="#001800" fill-opacity=".125" d="M64 91a3 3 0 013-3h34a3 3 0 013 3v14a3 3 0 01-3 3H67a3 3 0 01-3-3z"/><path fill="#1D211C" d="M80.84 101.094q-.736 0-1.306-.249a2.15 2.15 0 01-.89-.692 1.65 1.65 0 01-.318-1.002q-.003-.434.183-.8.189-.367.512-.613.324-.246.722-.314v-.047a1.4 1.4 0 01-.843-.547 1.6 1.6 0 01-.317-.985 1.6 1.6 0 01.287-.948q.293-.418.802-.658a2.7 2.7 0 011.168-.243q.65 0 1.16.243.51.24.803.658a1.6 1.6 0 01.294.948q0 .557-.324.985a1.4 1.4 0 01-.837.547v.047q.399.068.715.314a1.8 1.8 0 01.702 1.413q0 .561-.324 1.002-.32.439-.887.692a3.2 3.2 0 01-1.302.249m0-.907q.408 0 .708-.138.3-.14.466-.388.165-.254.169-.584a1.1 1.1 0 00-.18-.61 1.2 1.2 0 00-.475-.419q-.3-.155-.688-.155-.389 0-.692.155-.303.151-.479.418a1.1 1.1 0 00-.172.611q0 .33.162.58.166.25.469.392.303.138.712.138m0-3.181q.33 0 .587-.132.255-.135.401-.374.15-.24.152-.554a1.03 1.03 0 00-.148-.543.95.95 0 00-.398-.36 1.3 1.3 0 00-.594-.132 1.3 1.3 0 00-.6.131.95.95 0 00-.399.361 1.02 1.02 0 00-.141.543q0 .315.145.554.144.235.401.37.26.136.594.136m6.3 4.088q-.654 0-1.173-.249a2.1 2.1 0 01-.823-.685 1.86 1.86 0 01-.328-1.002h1.114q.036.436.38.715.35.277.83.277.385 0 .682-.176.3-.179.47-.489.171-.313.171-.712 0-.408-.175-.721a1.3 1.3 0 00-1.184-.682 1.7 1.7 0 00-.621.111q-.307.112-.496.294l-1.042-.162.374-3.522h3.907v.968h-2.952l-.213 1.886h.04q.2-.213.544-.35a1.9 1.9 0 01.742-.143q.63 0 1.123.297.496.297.78.817.283.516.283 1.18 0 .683-.31 1.212t-.86.833a2.56 2.56 0 01-1.262.303"/><path fill="#001800" fill-opacity=".125" d="M83 108h2v6h-2z"/><path fill="#1D211C" d="M113.492 95h-1.215l2.891-8h1.297l2.894 8h-1.214l-2.297-6.594h-.063zm.254-3.129h4.141v.973h-4.141zm9.121 3.25q-.863 0-1.488-.394a2.6 2.6 0 01-.957-1.098q-.332-.699-.332-1.602 0-.914.344-1.613.343-.704.961-1.098.621-.394 1.46-.394.668 0 1.196.246.53.246.859.695.328.446.395 1.04h-1.082a1.4 1.4 0 00-.438-.727q-.34-.309-.914-.309a1.5 1.5 0 00-.875.262q-.375.261-.586.742-.207.477-.207 1.129 0 .665.203 1.152.207.489.582.754.376.266.883.266.344 0 .617-.121.278-.125.465-.356.192-.23.27-.558h1.082q-.067.57-.383 1.02-.312.448-.836.706-.52.258-1.219.258m6.22 0q-.864 0-1.488-.394a2.6 2.6 0 01-.957-1.098q-.332-.699-.332-1.602 0-.914.343-1.613.344-.704.961-1.098.621-.394 1.461-.394.668 0 1.196.246.53.246.859.695.328.446.394 1.04h-1.082a1.4 1.4 0 00-.437-.727q-.34-.309-.914-.309-.5 0-.875.262-.375.261-.586.742-.207.477-.207 1.129 0 .665.203 1.152.207.489.582.754.375.266.883.266.344 0 .617-.121.278-.125.465-.356.19-.23.269-.558h1.082q-.066.57-.382 1.02-.313.448-.836.706-.52.258-1.219.258m6.22 0q-.837 0-1.461-.387a2.6 2.6 0 01-.973-1.082q-.344-.695-.344-1.625 0-.933.344-1.633.348-.7.973-1.085.624-.387 1.461-.387.835 0 1.461.387.624.386.968 1.085.348.7.348 1.633 0 .93-.348 1.625a2.6 2.6 0 01-.968 1.082q-.626.387-1.461.387m.004-.941q.562 0 .929-.297.371-.297.551-.785.18-.49.18-1.07 0-.583-.18-1.075a1.8 1.8 0 00-.551-.793q-.367-.3-.929-.3-.57 0-.942.3-.367.3-.547.793-.18.492-.179 1.074 0 .582.179 1.07.18.489.547.786.371.297.942.297m7.895-1.66V89h1.106v6h-1.09v-1.035h-.063a1.9 1.9 0 01-.66.797q-.453.316-1.129.316-.574 0-1.016-.254a1.76 1.76 0 01-.695-.758q-.25-.503-.25-1.25V89h1.106v3.695q0 .625.347.996.348.368.899.368.331 0 .664-.165a1.43 1.43 0 00.554-.507q.227-.345.227-.868m3.808-1.094V95h-1.106v-6h1.063v.969h.074a1.73 1.73 0 01.648-.762q.442-.285 1.118-.285.612 0 1.07.254.46.254.715.758.257.503.254 1.25V95h-1.106v-3.695q0-.669-.348-1.043-.343-.375-.949-.375a1.47 1.47 0 00-.738.183 1.3 1.3 0 00-.512.524q-.183.343-.183.832m8.19-2.426v.898h-3.238V89zm-2.351-1.437h1.105v5.687q0 .351.105.527a.54.54 0 00.274.239q.168.062.359.062.145 0 .246-.02l.164-.03.207.929a2 2 0 01-.285.078 2 2 0 01-.457.043 2 2 0 01-.836-.164 1.5 1.5 0 01-.64-.527q-.243-.355-.242-.895zM156.521 95v-6h1.106v6zm.559-6.945a.72.72 0 01-.508-.2.64.64 0 01-.211-.476.64.64 0 01.211-.48.72.72 0 01.508-.2q.297 0 .508.2a.64.64 0 01.211.48q0 .278-.211.477a.71.71 0 01-.508.199m3.254 3.37V95h-1.105v-6h1.062v.969h.074q.211-.477.649-.762.44-.285 1.117-.285.613 0 1.07.254.461.254.715.758.258.503.254 1.25V95h-1.106v-3.695q0-.669-.347-1.043-.344-.375-.949-.375-.415 0-.739.183-.324.18-.511.524-.184.343-.184.832m7.929 5.95q-.704 0-1.211-.184a2.4 2.4 0 01-.828-.484 2.1 2.1 0 01-.489-.652l.938-.438q.11.168.289.367a1.5 1.5 0 00.496.34q.312.14.813.14.679 0 1.121-.327.445-.329.445-1.047v-1.188h-.074a3.3 3.3 0 01-.301.422 1.6 1.6 0 01-.539.41q-.344.177-.902.176-.715 0-1.286-.336a2.37 2.37 0 01-.902-.992q-.332-.656-.332-1.61 0-.945.324-1.628.328-.688.899-1.055a2.37 2.37 0 011.308-.367q.562 0 .906.187.348.188.54.434.19.246.293.426h.089V89h1.078v6.144q0 .77-.355 1.262-.356.497-.965.73a3.7 3.7 0 01-1.355.239m-.016-3.398q.516 0 .871-.243a1.5 1.5 0 00.543-.691q.188-.453.188-1.082 0-.617-.184-1.086a1.57 1.57 0 00-.539-.734q-.355-.266-.879-.266-.543 0-.906.277-.36.277-.543.75-.18.472-.18 1.059 0 .598.184 1.05.183.454.547.712.363.254.898.254m7.803-2.856v.973h-3.539v-.973zM180.279 95h-2.558v-8h2.648q1.172 0 2.012.48.84.477 1.289 1.372.449.89.449 2.136 0 1.25-.453 2.149a3.2 3.2 0 01-1.312 1.382q-.856.48-2.075.481m-1.41-1.008h1.344q.933 0 1.551-.351.616-.356.922-1.028.308-.672.308-1.625 0-.948-.305-1.613a2.16 2.16 0 00-.902-1.016q-.597-.351-1.488-.351h-1.43zM185.648 95v-8h2.895q.848 0 1.402.281.56.281.832.758.274.477.274 1.067 0 .503-.184.843a1.5 1.5 0 01-.488.543 2.1 2.1 0 01-.664.297v.078q.39.024.769.262.38.234.629.668.25.434.25 1.059 0 .609-.285 1.093-.285.485-.883.77-.594.28-1.527.281zm1.149-.992h1.785q.89 0 1.27-.344.382-.344.382-.852a1.35 1.35 0 00-.754-1.226 1.76 1.76 0 00-.855-.195h-1.828zm0-3.535h1.66q.414 0 .746-.157a1.3 1.3 0 00.531-.453q.196-.293.196-.687 0-.504-.352-.848t-1.09-.344h-1.691zm9.448.039v.976h-3.539v-.976zm1.8 4.488v-.832l2.691-2.828q.438-.47.727-.82a3 3 0 00.43-.672q.14-.321.14-.672 0-.406-.191-.7a1.23 1.23 0 00-.52-.457 1.7 1.7 0 00-.742-.16q-.437 0-.762.18a1.27 1.27 0 00-.504.504 1.56 1.56 0 00-.175.762h-1.094q0-.727.332-1.27.336-.543.914-.844.582-.3 1.313-.3.742 0 1.308.3.57.297.891.809.32.512.32 1.148 0 .442-.164.868-.163.425-.57.945-.404.52-1.125 1.262l-1.641 1.726v.059h3.633V95z"/><path fill="#686E67" d="M118.396 105.25h-.836a1.74 1.74 0 00-.705-1.093 1.9 1.9 0 00-.577-.283 2.3 2.3 0 00-.662-.095q-.627 0-1.136.317-.507.317-.807.935-.297.617-.297 1.514 0 .898.297 1.515.3.618.807.935.509.317 1.136.317.344 0 .662-.095.316-.094.577-.28.262-.189.445-.462.185-.276.26-.634h.836a2.8 2.8 0 01-.344.948 2.58 2.58 0 01-1.454 1.154 3.1 3.1 0 01-.982.151 2.9 2.9 0 01-1.572-.431q-.687-.433-1.083-1.228-.394-.797-.394-1.89t.394-1.889q.396-.796 1.083-1.228a2.9 2.9 0 011.572-.432q.523 0 .982.152.462.152.833.446.372.29.621.708.25.416.344.948m1.636-2.159 2.051 5.816h.081l2.051-5.816h.877L122.555 110h-.864l-2.536-6.909zm6.136 6.909v-6.909h4.17v.742h-3.333v2.335h3.117v.742h-3.117v2.348h3.387V110zm8.539-3.826v.743h-3.023v-.743zm1.59 3.826v-.607l2.28-2.497q.402-.438.661-.762.26-.327.385-.614.128-.29.128-.607a1.12 1.12 0 00-.648-1.043 1.5 1.5 0 00-.674-.145q-.399 0-.695.165-.294.162-.456.456a1.44 1.44 0 00-.158.688h-.796q0-.607.28-1.066.279-.459.762-.715a2.3 2.3 0 011.09-.257q.606 0 1.076.257.469.256.735.691.267.436.267.969 0 .38-.139.745-.135.362-.472.806-.334.442-.928 1.08l-1.551 1.66v.054h3.211V110zm8.309.094q-.762 0-1.298-.414-.537-.419-.82-1.212-.283-.795-.283-1.923 0-1.12.283-1.912.286-.797.823-1.215.54-.422 1.295-.422.756 0 1.293.422.539.418.823 1.215.286.793.286 1.912 0 1.128-.283 1.923-.283.793-.82 1.212-.535.414-1.299.414m0-.742q.756 0 1.174-.728.419-.729.419-2.079 0-.897-.192-1.528-.19-.63-.547-.961a1.2 1.2 0 00-.854-.331q-.749 0-1.17.739-.422.735-.422 2.081 0 .898.189 1.525.189.628.543.955.358.327.86.327m7.082-6.261V110h-.836v-6.032h-.041l-1.686 1.12v-.85l1.727-1.147zm5.166-.095q.426.004.85.162.425.16.776.527.351.364.564.995.212.63.212 1.582 0 .92-.175 1.636-.172.712-.499 1.201-.325.49-.79.742a2.14 2.14 0 01-1.046.253q-.58 0-1.035-.229a2.04 2.04 0 01-.743-.644 2.25 2.25 0 01-.367-.962h.823q.11.475.442.786.333.307.88.307.8 0 1.262-.698.465-.698.466-1.974h-.054a2.1 2.1 0 01-.449.49 2 2 0 01-1.252.428q-.594 0-1.089-.293a2.2 2.2 0 01-.79-.814 2.4 2.4 0 01-.293-1.187q0-.635.283-1.161a2.2 2.2 0 01.803-.843q.519-.313 1.221-.304m0 .743q-.424 0-.766.212-.336.21-.536.567-.196.354-.196.786t.189.786q.193.351.523.56.335.206.759.206.321 0 .597-.125.278-.128.483-.347.208-.223.327-.503.118-.284.118-.591 0-.404-.196-.759a1.54 1.54 0 00-.533-.573 1.4 1.4 0 00-.769-.219m6.826 2.435v.743h-3.023v-.743zm3.749 3.92q-.763 0-1.299-.414-.537-.419-.82-1.212-.283-.795-.283-1.923 0-1.12.283-1.912.287-.797.823-1.215.54-.422 1.296-.422t1.292.422q.54.418.823 1.215.287.793.287 1.912 0 1.128-.284 1.923-.283.793-.819 1.212-.537.414-1.299.414m0-.742q.756 0 1.174-.728.418-.729.418-2.079 0-.897-.192-1.528-.189-.63-.547-.961a1.2 1.2 0 00-.853-.331q-.75 0-1.171.739-.422.735-.422 2.081 0 .898.189 1.525.189.628.543.955.359.327.861.327m7.082-6.261V110h-.837v-6.032h-.04l-1.687 1.12v-.85l1.727-1.147zm5.22 7.003q-.763 0-1.299-.414-.537-.419-.82-1.212-.283-.795-.283-1.923 0-1.12.283-1.912.286-.797.823-1.215.54-.422 1.296-.422.755 0 1.292.422.539.418.823 1.215.287.793.287 1.912 0 1.128-.284 1.923-.283.793-.82 1.212-.536.414-1.298.414m0-.742q.755 0 1.174-.728.418-.729.418-2.079 0-.897-.192-1.528-.19-.63-.547-.961a1.2 1.2 0 00-.853-.331q-.75 0-1.171.739-.422.735-.422 2.081 0 .898.189 1.525.189.628.543.955.358.327.861.327m7.081-6.261V110h-.836v-6.032h-.041l-1.686 1.12v-.85l1.727-1.147z"/><path fill="#898E87" d="M112 127a3 3 0 013-3h34a3 3 0 013 3v14a3 3 0 01-3 3h-34a3 3 0 01-3-3z"/><path fill="#fff" d="M128.772 129.996q.48.004.938.173.46.165.83.546.37.378.59 1.015.22.638.22 1.586a6.3 6.3 0 01-.182 1.603 3.6 3.6 0 01-.533 1.187 2.35 2.35 0 01-.84.735 2.37 2.37 0 01-1.104.253q-.633 0-1.126-.249a2.15 2.15 0 01-.8-.688 2.27 2.27 0 01-.378-1.002h1.13q.102.424.402.684.3.257.772.257.74 0 1.144-.641.408-.645.408-1.795h-.047a1.8 1.8 0 01-.435.506 2 2 0 01-.591.327 2.1 2.1 0 01-.695.112 2.1 2.1 0 01-1.093-.29 2.13 2.13 0 01-.772-.8 2.36 2.36 0 01-.284-1.167 2.35 2.35 0 01.301-1.198q.306-.536.857-.847.55-.313 1.288-.307m.004.945q-.382 0-.685.186a1.33 1.33 0 00-.479.502 1.4 1.4 0 00-.172.699q0 .384.168.698.172.314.469.499.297.183.678.182.287 0 .533-.111.247-.11.429-.304.186-.195.29-.445a1.4 1.4 0 00.105-.53 1.4 1.4 0 00-.176-.678 1.4 1.4 0 00-.475-.506 1.25 1.25 0 00-.685-.192m6.382 6.153q-.736 0-1.306-.249a2.16 2.16 0 01-.891-.692 1.65 1.65 0 01-.317-1.002q-.003-.435.183-.799.188-.368.512-.614a1.6 1.6 0 01.722-.314v-.047a1.4 1.4 0 01-.843-.547 1.58 1.58 0 01-.317-.985 1.6 1.6 0 01.287-.948 2 2 0 01.802-.658 2.7 2.7 0 011.168-.243q.651 0 1.16.243.51.24.803.658a1.6 1.6 0 01.294.948q0 .557-.324.985a1.4 1.4 0 01-.837.547v.047q.398.068.715.314a1.8 1.8 0 01.51.614q.192.364.192.799 0 .561-.324 1.002a2.16 2.16 0 01-.887.692 3.2 3.2 0 01-1.302.249m0-.907q.408 0 .708-.138.3-.14.466-.388.165-.254.168-.584a1.1 1.1 0 00-.178-.611 1.2 1.2 0 00-.476-.418q-.3-.155-.688-.155t-.692.155a1.2 1.2 0 00-.479.418 1.1 1.1 0 00-.172.611q0 .33.162.58.165.25.469.392.303.138.712.138m0-3.181q.33 0 .587-.132.256-.135.401-.374.149-.24.152-.554a1.03 1.03 0 00-.148-.543.96.96 0 00-.399-.361 1.3 1.3 0 00-.593-.131q-.341 0-.601.131a.96.96 0 00-.398.361 1.03 1.03 0 00-.142.543q0 .315.145.554.145.236.402.371.26.135.594.135"/><path fill="#1D211C" d="M161.492 131h-1.215l2.891-8h1.297l2.894 8h-1.214l-2.297-6.594h-.063zm.254-3.129h4.141v.973h-4.141zm9.121 3.25q-.862 0-1.488-.394a2.63 2.63 0 01-.957-1.098q-.332-.699-.332-1.602 0-.914.344-1.613.343-.703.961-1.098.621-.394 1.46-.394.669 0 1.196.246.53.246.859.695.328.446.395 1.039h-1.082a1.4 1.4 0 00-.438-.726q-.34-.309-.914-.309-.5 0-.875.262-.375.261-.586.742-.207.477-.207 1.129 0 .665.203 1.152.207.489.582.754.375.266.883.266.344 0 .617-.121a1.26 1.26 0 00.465-.356q.192-.23.27-.558h1.082q-.067.57-.383 1.019-.312.45-.836.707-.52.258-1.219.258m6.22 0q-.864 0-1.488-.394a2.63 2.63 0 01-.957-1.098q-.332-.699-.332-1.602 0-.914.343-1.613.344-.703.961-1.098.621-.394 1.461-.394.668 0 1.196.246.53.246.859.695.328.446.394 1.039h-1.082a1.4 1.4 0 00-.437-.726q-.34-.309-.914-.309-.5 0-.875.262-.375.261-.586.742-.207.477-.207 1.129 0 .665.203 1.152.207.489.582.754.375.266.883.266.344 0 .617-.121a1.26 1.26 0 00.465-.356q.19-.23.269-.558h1.082a2.17 2.17 0 01-1.218 1.726q-.52.258-1.219.258m6.22 0q-.837 0-1.461-.387a2.6 2.6 0 01-.973-1.082q-.344-.695-.344-1.625 0-.933.344-1.632.348-.7.973-1.086.624-.387 1.461-.387.835 0 1.461.387.624.386.968 1.086.348.699.348 1.632 0 .93-.348 1.625a2.6 2.6 0 01-.968 1.082q-.626.387-1.461.387m.004-.941q.562 0 .929-.297.371-.297.551-.785t.18-1.071q0-.582-.18-1.074a1.8 1.8 0 00-.551-.793q-.367-.3-.929-.301-.57 0-.942.301a1.8 1.8 0 00-.547.793q-.18.492-.179 1.074 0 .582.179 1.071.18.488.547.785.371.297.942.297m7.895-1.66V125h1.106v6h-1.09v-1.035h-.063a1.9 1.9 0 01-.66.797q-.453.316-1.129.316-.574 0-1.016-.254a1.76 1.76 0 01-.695-.758q-.25-.504-.25-1.25V125h1.106v3.695q0 .625.347.996.348.368.899.368.331 0 .664-.164.332-.168.554-.508.227-.344.227-.867m3.808-1.094V131h-1.106v-6h1.063v.969h.074q.212-.477.648-.762.442-.285 1.118-.285.612 0 1.07.254.46.254.715.758.257.504.254 1.25V131h-1.106v-3.695q0-.669-.348-1.043-.343-.375-.949-.375-.414 0-.738.183-.324.18-.512.524-.183.343-.183.832m8.19-2.426v.898h-3.238V125zm-2.351-1.438h1.105v5.688q0 .351.105.527a.54.54 0 00.274.239q.168.062.359.062.145 0 .246-.019l.164-.032.207.93a2 2 0 01-.285.078 2 2 0 01-.457.043 2 2 0 01-.836-.164 1.5 1.5 0 01-.64-.527q-.243-.355-.242-.895zm3.668 7.438v-6h1.106v6zm.559-6.945a.72.72 0 01-.508-.2.63.63 0 01-.211-.476.64.64 0 01.211-.481.73.73 0 01.508-.199q.297 0 .508.199a.64.64 0 01.211.481q0 .278-.211.476a.71.71 0 01-.508.2m3.254 3.371V131h-1.105v-6h1.062v.969h.074q.211-.477.649-.762.44-.285 1.117-.285.613 0 1.07.254.461.254.715.758.258.504.254 1.25V131h-1.106v-3.695q0-.669-.347-1.043-.344-.375-.949-.375-.415 0-.739.183a1.3 1.3 0 00-.511.524q-.184.343-.184.832m7.929 5.949q-.704 0-1.211-.184a2.4 2.4 0 01-.828-.484 2.1 2.1 0 01-.489-.652l.938-.438q.11.169.289.367.184.2.496.34t.813.141q.679 0 1.121-.328.445-.329.445-1.047v-1.188h-.074a3 3 0 01-.301.422 1.6 1.6 0 01-.539.41q-.344.177-.902.176-.715 0-1.286-.336a2.37 2.37 0 01-.902-.992q-.332-.656-.332-1.609 0-.947.324-1.629.328-.688.899-1.055a2.37 2.37 0 011.308-.367q.562 0 .906.187.348.188.54.434.19.246.293.426h.089V125h1.078v6.145q0 .77-.355 1.261a2.07 2.07 0 01-.965.731 3.7 3.7 0 01-1.355.238m-.016-3.398q.516 0 .871-.243.36-.242.543-.691.188-.453.188-1.082a3 3 0 00-.184-1.086 1.57 1.57 0 00-.539-.734q-.355-.266-.879-.266-.543 0-.906.277-.36.278-.543.75-.18.473-.18 1.059 0 .597.184 1.051.183.453.547.711.363.254.898.254m7.803-2.856v.973h-3.539v-.973zm4.229 3.879h-2.558v-8h2.648q1.172 0 2.012.48.84.477 1.289 1.372.449.89.449 2.136 0 1.25-.453 2.149a3.2 3.2 0 01-1.312 1.383q-.856.48-2.075.48m-1.41-1.008h1.344q.933 0 1.551-.351a2.2 2.2 0 00.922-1.028q.308-.672.308-1.625 0-.949-.305-1.613a2.16 2.16 0 00-.902-1.016q-.597-.351-1.488-.351h-1.43zm6.779 1.008v-8h2.895q.848 0 1.402.281.56.282.832.758.274.477.274 1.066 0 .504-.184.844a1.5 1.5 0 01-.488.543 2.1 2.1 0 01-.664.297v.078q.39.024.769.262.38.234.629.668.25.434.25 1.058 0 .61-.285 1.094t-.883.77q-.594.28-1.527.281zm1.149-.992h1.785q.89 0 1.27-.344.382-.344.382-.852 0-.386-.195-.71a1.4 1.4 0 00-.559-.516 1.77 1.77 0 00-.855-.195h-1.828zm0-3.535h1.66q.414 0 .746-.157.336-.159.531-.453.196-.292.196-.687 0-.504-.352-.848t-1.09-.344h-1.691zm9.448.039v.976h-3.539v-.976zm1.8 4.488v-.832l2.691-2.828q.438-.47.727-.82.29-.352.43-.672t.14-.672q0-.407-.191-.699a1.23 1.23 0 00-.52-.457 1.7 1.7 0 00-.742-.161q-.437 0-.762.18-.324.18-.504.504a1.56 1.56 0 00-.175.762h-1.094q0-.727.332-1.27a2.3 2.3 0 01.914-.844q.582-.3 1.313-.3.742 0 1.308.3.57.297.891.809.32.512.32 1.148 0 .442-.164.868-.163.425-.57.945a16 16 0 01-1.125 1.262l-1.641 1.726v.059h3.633V131z"/><path fill="#686E67" d="M166.396 141.25h-.836a1.74 1.74 0 00-.705-1.093 1.9 1.9 0 00-.577-.283 2.3 2.3 0 00-.662-.095q-.627 0-1.136.317-.507.317-.807.935-.297.617-.297 1.514 0 .899.297 1.515.3.618.807.935.509.317 1.136.317.344 0 .662-.095.316-.094.577-.28.262-.189.445-.462.186-.276.26-.634h.836a2.8 2.8 0 01-.344.948 2.58 2.58 0 01-1.454 1.154 3.1 3.1 0 01-.982.151 2.9 2.9 0 01-1.572-.431q-.687-.433-1.083-1.228-.394-.797-.394-1.89t.394-1.889q.396-.796 1.083-1.228a2.9 2.9 0 011.572-.432q.523 0 .982.152.462.152.833.446.372.29.621.708.25.415.344.948m1.636-2.159 2.051 5.816h.081l2.051-5.816h.877L170.555 146h-.864l-2.536-6.909zm6.136 6.909v-6.909h4.17v.742h-3.333v2.335h3.117v.742h-3.117v2.348h3.387V146zm8.539-3.826v.743h-3.023v-.743zm1.59 3.826v-.607l2.28-2.497q.402-.438.661-.762.26-.327.385-.614.128-.29.128-.607a1.12 1.12 0 00-.648-1.043 1.5 1.5 0 00-.674-.145q-.399 0-.695.165-.294.162-.456.456a1.44 1.44 0 00-.158.688h-.796q0-.607.28-1.066.279-.459.762-.715a2.3 2.3 0 011.09-.257q.606 0 1.076.257.469.256.735.691.267.436.267.969 0 .38-.139.745-.135.362-.472.806-.334.442-.928 1.08l-1.551 1.66v.054h3.211V146zm8.309.094q-.762 0-1.298-.414-.537-.418-.82-1.212-.283-.795-.283-1.923 0-1.12.283-1.912.286-.797.823-1.215.54-.422 1.295-.422.756 0 1.293.422.539.418.823 1.215.286.792.286 1.912 0 1.128-.283 1.923-.283.794-.82 1.212-.535.414-1.299.414m0-.742q.756 0 1.174-.728.419-.729.419-2.079 0-.897-.192-1.528-.19-.63-.547-.961a1.2 1.2 0 00-.854-.331q-.749 0-1.17.739-.422.735-.422 2.081 0 .898.189 1.525.189.628.543.955.358.327.86.327m7.082-6.261V146h-.836v-6.032h-.041l-1.686 1.12v-.85l1.727-1.147zm5.166-.095q.426.004.85.162.425.16.776.527.351.364.564.995.212.63.212 1.582 0 .92-.175 1.636-.172.712-.499 1.201-.325.49-.79.742a2.14 2.14 0 01-1.046.253q-.58 0-1.035-.229a2.04 2.04 0 01-.743-.644 2.25 2.25 0 01-.367-.962h.823q.11.476.442.786.334.307.88.307.8 0 1.262-.698.465-.698.466-1.974h-.054a2.1 2.1 0 01-.449.49 2 2 0 01-1.252.428q-.594 0-1.089-.293a2.2 2.2 0 01-.79-.814 2.4 2.4 0 01-.293-1.187q0-.635.283-1.161a2.2 2.2 0 01.803-.843q.519-.313 1.221-.304m0 .743q-.424 0-.766.212-.336.21-.536.567-.196.354-.196.786t.189.786q.193.351.523.56.335.206.759.206.321 0 .597-.125.278-.128.483-.347.208-.223.327-.503.118-.283.118-.591 0-.403-.196-.759a1.54 1.54 0 00-.533-.573 1.4 1.4 0 00-.769-.219m6.826 2.435v.743h-3.023v-.743zm3.749 3.92q-.763 0-1.299-.414-.537-.418-.82-1.212-.283-.795-.283-1.923 0-1.12.283-1.912.287-.797.823-1.215.54-.422 1.296-.422.755 0 1.292.422.54.418.823 1.215.287.792.287 1.912 0 1.128-.284 1.923-.283.794-.819 1.212-.537.414-1.299.414m0-.742q.756 0 1.174-.728.418-.729.418-2.079 0-.897-.192-1.528-.189-.63-.547-.961a1.2 1.2 0 00-.853-.331q-.75 0-1.171.739-.422.735-.422 2.081 0 .898.189 1.525.189.628.543.955.359.327.861.327m7.082-6.261V146h-.837v-6.032h-.04l-1.687 1.12v-.85l1.727-1.147zm5.22 7.003q-.763 0-1.299-.414-.537-.418-.82-1.212-.283-.795-.283-1.923 0-1.12.283-1.912.286-.797.823-1.215.54-.422 1.296-.422.755 0 1.292.422.539.418.823 1.215.287.792.287 1.912 0 1.128-.284 1.923-.283.794-.82 1.212-.536.414-1.298.414m0-.742q.755 0 1.174-.728.418-.729.418-2.079 0-.897-.192-1.528-.19-.63-.547-.961a1.2 1.2 0 00-.853-.331q-.75 0-1.171.739-.422.735-.422 2.081 0 .898.189 1.525.189.628.543.955.358.327.861.327m7.081-6.261V146h-.836v-6.032h-.041l-1.686 1.12v-.85l1.727-1.147z"/><path fill="#001800" fill-opacity=".125" d="M35 154h2v6h-2zM16 163a3 3 0 0 1 3-3h34a3 3 0 0 1 3 3v14a3 3 0 0 1-3 3H19a3 3 0 0 1-3-3z"/><path fill="#1D211C" d="M32.84 173.094q-.736 0-1.306-.249a2.15 2.15 0 01-.89-.692 1.64 1.64 0 01-.317-1.002q-.004-.435.182-.799.188-.368.512-.614t.722-.314v-.047a1.4 1.4 0 01-.843-.547 1.58 1.58 0 01-.317-.985 1.6 1.6 0 01.287-.948q.293-.418.802-.658a2.7 2.7 0 011.168-.243q.65 0 1.16.243.51.24.803.658.294.415.294.948 0 .557-.324.985a1.4 1.4 0 01-.837.547v.047q.399.068.715.314a1.8 1.8 0 01.702 1.413q0 .561-.324 1.002-.32.439-.887.692a3.2 3.2 0 01-1.302.249m0-.907q.408 0 .708-.138.3-.14.466-.388.165-.254.168-.584a1.1 1.1 0 00-.178-.611 1.2 1.2 0 00-.476-.418q-.3-.155-.688-.155-.389 0-.692.155a1.2 1.2 0 00-.479.418 1.1 1.1 0 00-.172.611q0 .33.162.58.165.25.469.392.303.138.712.138m0-3.181q.33 0 .587-.132.255-.135.401-.374.15-.24.152-.554a1.03 1.03 0 00-.148-.543.96.96 0 00-.398-.361 1.3 1.3 0 00-.594-.131 1.3 1.3 0 00-.6.131.96.96 0 00-.54.904q0 .315.145.554.144.236.401.371.26.135.594.135m6.3 4.088q-.653 0-1.173-.249a2.1 2.1 0 01-.823-.685 1.86 1.86 0 01-.328-1.002h1.114q.036.435.38.715.35.277.83.277.385 0 .682-.176.3-.179.47-.489.171-.313.171-.712 0-.407-.175-.722a1.31 1.31 0 00-1.184-.681 1.7 1.7 0 00-.621.111q-.307.112-.496.294l-1.042-.162.374-3.522h3.907v.968h-2.952l-.213 1.886h.04q.2-.213.544-.351.345-.142.742-.142.63 0 1.124.297t.779.817q.283.516.283 1.18 0 .682-.31 1.212t-.86.833a2.56 2.56 0 01-1.262.303"/><path fill="#001800" fill-opacity=".125" d="M35 180h2v6h-2z"/><path fill="#1D211C" d="M65.492 167h-1.215l2.891-8h1.297l2.894 8h-1.215l-2.296-6.594h-.063zm.254-3.129h4.14v.973h-4.14zm9.121 3.25q-.862 0-1.488-.394a2.6 2.6 0 01-.957-1.098q-.332-.699-.332-1.602 0-.914.344-1.613.344-.703.96-1.098.622-.394 1.462-.394.667 0 1.195.246.53.246.86.695.328.446.394 1.039h-1.082a1.4 1.4 0 00-.438-.726q-.34-.309-.914-.309-.5 0-.875.262a1.7 1.7 0 00-.586.742q-.207.477-.207 1.129 0 .665.203 1.152.207.489.582.754.376.266.883.266.344 0 .617-.121a1.26 1.26 0 00.465-.356q.192-.23.27-.558h1.082a2.18 2.18 0 01-1.22 1.726q-.518.258-1.218.258m6.22 0q-.864 0-1.488-.394a2.63 2.63 0 01-.957-1.098q-.332-.699-.332-1.602 0-.914.343-1.613.345-.703.961-1.098.621-.394 1.461-.394.668 0 1.195.246.532.246.86.695.328.446.394 1.039h-1.082a1.4 1.4 0 00-.437-.726q-.34-.309-.914-.309-.5 0-.875.262a1.7 1.7 0 00-.586.742q-.207.477-.207 1.129 0 .665.203 1.152.207.489.582.754.375.266.883.266.344 0 .617-.121a1.26 1.26 0 00.465-.356q.19-.23.27-.558h1.081a2.18 2.18 0 01-1.218 1.726q-.52.258-1.22.258m6.22 0q-.837 0-1.461-.387a2.6 2.6 0 01-.973-1.082q-.344-.695-.344-1.625 0-.933.344-1.632.348-.7.973-1.086.624-.387 1.46-.387.837 0 1.462.387.625.386.968 1.086.348.699.348 1.632 0 .93-.348 1.625-.344.696-.968 1.082-.626.387-1.461.387m.004-.941q.561 0 .93-.297a1.76 1.76 0 00.55-.785q.18-.489.18-1.071t-.18-1.074a1.8 1.8 0 00-.55-.793q-.368-.3-.93-.301-.57 0-.942.301a1.8 1.8 0 00-.547.793q-.18.492-.18 1.074t.18 1.071q.18.488.547.785.371.297.942.297m7.895-1.66V161h1.105v6h-1.09v-1.035h-.062a1.9 1.9 0 01-.66.797q-.453.316-1.129.316-.574 0-1.016-.254a1.76 1.76 0 01-.695-.758q-.25-.504-.25-1.25V161h1.106v3.695q0 .625.347.996.348.368.899.368.332 0 .664-.164.332-.168.555-.508.225-.344.226-.867m3.808-1.094V167h-1.106v-6h1.063v.969h.074q.21-.477.648-.762.442-.285 1.118-.285.612 0 1.07.254.46.254.715.758.257.504.254 1.25V167h-1.106v-3.695q0-.668-.348-1.043-.343-.375-.949-.375-.414 0-.738.183a1.3 1.3 0 00-.512.524q-.183.343-.183.832m8.19-2.426v.898h-3.238V161zm-2.351-1.438h1.105v5.688q0 .351.105.527a.54.54 0 00.274.239q.168.062.359.062.145 0 .246-.019l.164-.032.207.93a2 2 0 01-.285.078 2 2 0 01-.457.043 2 2 0 01-.836-.164 1.5 1.5 0 01-.64-.527q-.243-.355-.242-.895zm3.668 7.438v-6h1.106v6zm.559-6.945a.72.72 0 01-.508-.2.63.63 0 01-.211-.476.64.64 0 01.211-.481.73.73 0 01.508-.199q.297 0 .508.199a.64.64 0 01.211.481q0 .278-.211.476a.71.71 0 01-.508.2m3.254 3.371V167h-1.105v-6h1.062v.969h.074q.211-.477.649-.762.44-.285 1.117-.285.613 0 1.07.254.461.254.715.758.258.504.254 1.25V167h-1.106v-3.695q0-.668-.347-1.043-.344-.375-.949-.375-.415 0-.739.183a1.3 1.3 0 00-.511.524q-.184.343-.184.832m7.929 5.949q-.704 0-1.211-.184a2.4 2.4 0 01-.828-.484 2.1 2.1 0 01-.489-.652l.938-.438q.11.169.289.367.183.2.496.34.312.141.813.141.679 0 1.121-.328.445-.329.445-1.047v-1.188h-.074a3 3 0 01-.301.422 1.6 1.6 0 01-.539.41q-.344.177-.902.176-.715 0-1.286-.336a2.37 2.37 0 01-.902-.992q-.332-.656-.332-1.609 0-.947.324-1.629.328-.688.899-1.055a2.37 2.37 0 011.308-.367q.563 0 .906.187.348.188.54.434.19.246.293.426h.089V161h1.078v6.145q0 .77-.355 1.261a2.07 2.07 0 01-.965.731 3.7 3.7 0 01-1.355.238m-.016-3.398q.516 0 .871-.243.36-.242.543-.691.188-.453.188-1.082a3 3 0 00-.184-1.086 1.57 1.57 0 00-.539-.734q-.356-.266-.879-.266-.543 0-.906.277-.36.278-.543.75-.18.473-.18 1.059 0 .597.184 1.051.183.453.547.711.363.254.898.254m7.803-2.856v.973h-3.539v-.973zm4.229 3.879h-2.558v-8h2.648q1.172 0 2.012.48.84.477 1.289 1.372.449.89.449 2.136 0 1.25-.453 2.149a3.2 3.2 0 01-1.312 1.383q-.856.48-2.075.48m-1.41-1.008h1.344q.933 0 1.551-.351a2.2 2.2 0 00.922-1.028q.308-.672.308-1.625 0-.949-.305-1.613a2.16 2.16 0 00-.902-1.016q-.597-.351-1.488-.351h-1.43zm6.779 1.008v-8h2.895q.848 0 1.402.281.56.281.832.758.274.477.274 1.066 0 .505-.184.844a1.5 1.5 0 01-.488.543 2.1 2.1 0 01-.664.297v.078q.39.024.769.262.38.234.629.668.25.434.25 1.058 0 .61-.285 1.094t-.883.77q-.594.28-1.527.281zm1.149-.992h1.785q.89 0 1.27-.344.382-.344.382-.852 0-.386-.195-.71a1.4 1.4 0 00-.559-.516 1.77 1.77 0 00-.855-.195h-1.828zm0-3.535h1.66q.414 0 .746-.157.336-.159.531-.453.196-.292.196-.687 0-.504-.352-.848t-1.09-.344h-1.691zm9.448.039v.976h-3.539v-.976zm1.8 4.488v-.832l2.691-2.828q.438-.47.727-.82.29-.352.43-.672t.14-.672q0-.406-.191-.699a1.23 1.23 0 00-.52-.457 1.7 1.7 0 00-.742-.161q-.437 0-.762.18-.324.18-.504.504a1.56 1.56 0 00-.175.762h-1.094q0-.727.332-1.27a2.3 2.3 0 01.914-.844q.582-.3 1.313-.3.742 0 1.308.3.57.297.891.809.32.512.32 1.148 0 .442-.164.868-.163.425-.57.945a16 16 0 01-1.125 1.262l-1.641 1.726v.059h3.633V167z"/><path fill="#686E67" d="M70.396 177.25h-.836a1.74 1.74 0 00-.705-1.093 1.9 1.9 0 00-.577-.283 2.3 2.3 0 00-.662-.095q-.627 0-1.136.317-.506.317-.807.935-.297.617-.297 1.514 0 .899.297 1.515.3.618.807.935.51.317 1.136.317.345 0 .662-.095.316-.094.577-.28a1.78 1.78 0 00.705-1.096h.836a2.8 2.8 0 01-.344.948 2.6 2.6 0 01-.62.712q-.372.29-.834.442a3.1 3.1 0 01-.981.151q-.885 0-1.573-.431a2.97 2.97 0 01-1.082-1.228q-.395-.797-.395-1.89t.395-1.889 1.082-1.228a2.9 2.9 0 011.573-.432q.522 0 .981.152.462.152.834.446.37.29.62.708.25.415.344.948m1.636-2.159 2.05 5.816h.082l2.05-5.816h.878L74.555 182h-.864l-2.537-6.909zM78.168 182v-6.909h4.17v.742h-3.333v2.335h3.117v.742h-3.117v2.348h3.387V182zm8.539-3.826v.743h-3.023v-.743zm1.59 3.826v-.607l2.28-2.497q.402-.438.661-.762.26-.327.385-.614a1.5 1.5 0 00.128-.607 1.12 1.12 0 00-.648-1.043 1.5 1.5 0 00-.674-.145q-.399 0-.695.165-.294.162-.456.456a1.4 1.4 0 00-.158.688h-.797q0-.607.28-1.066t.763-.715a2.3 2.3 0 011.09-.257q.606 0 1.076.257.469.256.735.691.267.436.267.969 0 .38-.139.745a3.3 3.3 0 01-.472.806q-.333.442-.928 1.08l-1.552 1.66v.054h3.212V182zm8.31.094q-.763 0-1.3-.414-.535-.419-.82-1.212-.282-.795-.282-1.923 0-1.12.283-1.912.286-.797.823-1.215.54-.422 1.295-.422.756 0 1.293.422.54.418.823 1.215.286.792.287 1.912 0 1.128-.284 1.923-.283.794-.82 1.212-.535.414-1.299.414m0-.742q.755 0 1.174-.728.418-.729.418-2.079 0-.897-.192-1.528-.19-.63-.547-.961a1.2 1.2 0 00-.853-.331q-.75 0-1.171.739-.422.735-.422 2.081 0 .898.19 1.525.188.628.542.955.358.327.86.327m7.081-6.261V182h-.836v-6.032h-.041l-1.686 1.12v-.85l1.727-1.147zm5.166-.095q.426.004.85.162.426.16.776.527.351.364.564.995.212.63.212 1.582 0 .92-.175 1.636-.172.712-.499 1.201-.324.49-.79.742a2.14 2.14 0 01-1.046.253q-.58 0-1.035-.229a2.04 2.04 0 01-.743-.644 2.25 2.25 0 01-.367-.962h.823q.11.476.442.786.334.307.88.307.8 0 1.262-.698.466-.698.466-1.974h-.054a2.1 2.1 0 01-.449.49 2 2 0 01-1.252.428q-.594 0-1.089-.293a2.2 2.2 0 01-.79-.814 2.4 2.4 0 01-.293-1.187q0-.635.283-1.161a2.2 2.2 0 01.803-.843q.519-.313 1.221-.304m0 .743q-.424 0-.766.212-.336.21-.536.567-.195.354-.196.786 0 .432.189.786.193.351.523.56.335.206.759.206.321 0 .597-.125.278-.128.483-.347.209-.223.327-.503.118-.283.118-.591 0-.403-.196-.759a1.54 1.54 0 00-.533-.573 1.4 1.4 0 00-.769-.219m6.826 2.435v.743h-3.023v-.743zm3.749 3.92q-.763 0-1.299-.414-.537-.419-.82-1.212-.283-.795-.283-1.923 0-1.12.283-1.912.287-.797.823-1.215.54-.422 1.296-.422t1.292.422q.54.418.823 1.215.287.792.287 1.912 0 1.128-.284 1.923-.284.794-.819 1.212-.537.414-1.299.414m0-.742q.756 0 1.174-.728.418-.729.418-2.079 0-.897-.192-1.528-.189-.63-.547-.961a1.2 1.2 0 00-.853-.331q-.75 0-1.171.739-.422.735-.422 2.081 0 .898.189 1.525.189.628.543.955.359.327.861.327m7.082-6.261V182h-.837v-6.032h-.04l-1.687 1.12v-.85l1.727-1.147zm5.22 7.003q-.763 0-1.299-.414-.537-.419-.82-1.212-.283-.795-.283-1.923 0-1.12.283-1.912.286-.797.823-1.215.54-.422 1.296-.422.755 0 1.292.422.539.418.823 1.215.287.792.287 1.912 0 1.128-.284 1.923-.283.794-.82 1.212-.536.414-1.298.414m0-.742q.755 0 1.174-.728.418-.729.418-2.079 0-.897-.192-1.528-.19-.63-.547-.961a1.2 1.2 0 00-.853-.331q-.75 0-1.171.739-.422.735-.422 2.081 0 .898.189 1.525.189.628.543.955.358.327.861.327m7.081-6.261V182h-.836v-6.032h-.041l-1.686 1.12v-.85l1.727-1.147z"/><path fill="#001800" fill-opacity=".125" d="M64 199a3 3 0 013-3h34a3 3 0 013 3v14a3 3 0 01-3 3H67a3 3 0 01-3-3z"/><path fill="#1D211C" d="M80.84 209.094q-.736 0-1.306-.249a2.15 2.15 0 01-.89-.692 1.64 1.64 0 01-.318-1.002q-.003-.435.183-.799.189-.368.512-.614.324-.246.722-.314v-.047a1.4 1.4 0 01-.843-.547 1.58 1.58 0 01-.317-.985 1.6 1.6 0 01.287-.948q.293-.418.802-.658a2.7 2.7 0 011.168-.243q.65 0 1.16.243.51.24.803.658.294.415.294.948 0 .557-.324.985a1.4 1.4 0 01-.837.547v.047q.399.068.715.314a1.8 1.8 0 01.702 1.413q0 .561-.324 1.002-.32.439-.887.692a3.2 3.2 0 01-1.302.249m0-.907q.408 0 .708-.138.3-.14.466-.388.165-.254.169-.584a1.1 1.1 0 00-.18-.611 1.2 1.2 0 00-.475-.418q-.3-.155-.688-.155-.389 0-.692.155a1.2 1.2 0 00-.479.418 1.1 1.1 0 00-.172.611q0 .33.162.58.166.25.469.392.303.138.712.138m0-3.181q.33 0 .587-.132.255-.135.401-.374.15-.24.152-.554a1.03 1.03 0 00-.148-.543.96.96 0 00-.398-.361 1.3 1.3 0 00-.594-.131 1.3 1.3 0 00-.6.131.96.96 0 00-.54.904q0 .315.145.554.144.236.401.371.26.135.594.135m6.3 4.088q-.654 0-1.173-.249a2.1 2.1 0 01-.823-.685 1.86 1.86 0 01-.328-1.002h1.114q.036.435.38.715.35.277.83.277.385 0 .682-.176.3-.179.47-.489.171-.313.171-.712 0-.407-.175-.722a1.31 1.31 0 00-1.184-.681 1.7 1.7 0 00-.621.111q-.307.112-.496.294l-1.042-.162.374-3.522h3.907v.968h-2.952l-.213 1.886h.04q.2-.213.544-.351.345-.142.742-.142.63 0 1.123.297.496.297.78.817.283.516.283 1.18 0 .682-.31 1.212t-.86.833a2.56 2.56 0 01-1.262.303"/><path fill="#001800" fill-opacity=".125" d="M83 216h2v6h-2z"/><path fill="#1D211C" d="M113.492 203h-1.215l2.891-8h1.297l2.894 8h-1.214l-2.297-6.594h-.063zm.254-3.129h4.141v.973h-4.141zm9.121 3.25q-.863 0-1.488-.394a2.63 2.63 0 01-.957-1.098q-.332-.699-.332-1.602 0-.914.344-1.613.343-.703.961-1.098.621-.394 1.46-.394.668 0 1.196.246.53.246.859.695.328.446.395 1.039h-1.082a1.4 1.4 0 00-.438-.726q-.34-.309-.914-.309-.5 0-.875.262t-.586.742q-.207.477-.207 1.129 0 .665.203 1.152.207.489.582.754.376.266.883.266.344 0 .617-.121a1.26 1.26 0 00.465-.356q.192-.23.27-.558h1.082q-.067.57-.383 1.019-.312.45-.836.707-.52.258-1.219.258m6.22 0q-.864 0-1.488-.394a2.63 2.63 0 01-.957-1.098q-.332-.699-.332-1.602 0-.914.343-1.613.344-.703.961-1.098.621-.394 1.461-.394.668 0 1.196.246.53.246.859.695.328.446.394 1.039h-1.082a1.4 1.4 0 00-.437-.726q-.34-.309-.914-.309-.5 0-.875.262t-.586.742q-.207.477-.207 1.129 0 .665.203 1.152.207.489.582.754.375.266.883.266.344 0 .617-.121a1.26 1.26 0 00.465-.356q.19-.23.269-.558h1.082a2.17 2.17 0 01-1.218 1.726q-.52.258-1.219.258m6.22 0q-.837 0-1.461-.387a2.6 2.6 0 01-.973-1.082q-.344-.695-.344-1.625 0-.933.344-1.632.348-.7.973-1.086.624-.387 1.461-.387.835 0 1.461.387.624.386.968 1.086.348.699.348 1.632 0 .93-.348 1.625a2.6 2.6 0 01-.968 1.082q-.626.387-1.461.387m.004-.941q.562 0 .929-.297.371-.297.551-.785t.18-1.071q0-.582-.18-1.074a1.8 1.8 0 00-.551-.793q-.367-.3-.929-.301-.57 0-.942.301a1.8 1.8 0 00-.547.793q-.18.492-.179 1.074 0 .582.179 1.071.18.488.547.785.371.297.942.297m7.895-1.66V197h1.106v6h-1.09v-1.035h-.063a1.9 1.9 0 01-.66.797q-.453.316-1.129.316-.574 0-1.016-.254a1.76 1.76 0 01-.695-.758q-.25-.504-.25-1.25V197h1.106v3.695q0 .625.347.996.348.368.899.368.331 0 .664-.164.332-.169.554-.508.227-.344.227-.867m3.808-1.094V203h-1.106v-6h1.063v.969h.074q.211-.477.648-.762.442-.285 1.118-.285.612 0 1.07.254.46.254.715.758.257.504.254 1.25V203h-1.106v-3.695q0-.668-.348-1.043-.343-.375-.949-.375-.414 0-.738.183-.324.18-.512.524-.183.343-.183.832m8.19-2.426v.898h-3.238V197zm-2.351-1.438h1.105v5.688q0 .351.105.527a.54.54 0 00.274.239q.168.062.359.062.145 0 .246-.019l.164-.032.207.93a2 2 0 01-.285.078 2 2 0 01-.457.043 2 2 0 01-.836-.164 1.5 1.5 0 01-.64-.527q-.243-.355-.242-.895zm3.668 7.438v-6h1.106v6zm.559-6.945a.72.72 0 01-.508-.2.63.63 0 01-.211-.476.64.64 0 01.211-.481.73.73 0 01.508-.199q.297 0 .508.199a.64.64 0 01.211.481q0 .278-.211.476a.71.71 0 01-.508.2m3.254 3.371V203h-1.105v-6h1.062v.969h.074q.211-.477.649-.762.44-.285 1.117-.285.613 0 1.07.254.461.254.715.758.258.504.254 1.25V203h-1.106v-3.695q0-.668-.347-1.043-.344-.375-.949-.375-.415 0-.739.183a1.3 1.3 0 00-.511.524q-.184.343-.184.832m7.929 5.949q-.704 0-1.211-.184a2.4 2.4 0 01-.828-.484 2.1 2.1 0 01-.489-.652l.938-.438q.11.169.289.367.184.2.496.34t.813.141q.679 0 1.121-.328.445-.329.445-1.047v-1.188h-.074a3 3 0 01-.301.422 1.6 1.6 0 01-.539.41q-.344.177-.902.176-.715 0-1.286-.336a2.37 2.37 0 01-.902-.992q-.332-.656-.332-1.609 0-.947.324-1.629.328-.688.899-1.055a2.37 2.37 0 011.308-.367q.562 0 .906.187.348.188.54.434.19.246.293.426h.089V197h1.078v6.145q0 .77-.355 1.261a2.07 2.07 0 01-.965.731 3.7 3.7 0 01-1.355.238m-.016-3.398q.516 0 .871-.243.36-.242.543-.691.188-.453.188-1.082a3 3 0 00-.184-1.086 1.57 1.57 0 00-.539-.734q-.355-.266-.879-.266-.543 0-.906.277-.36.278-.543.75-.18.473-.18 1.059 0 .597.184 1.051.183.453.547.711.363.254.898.254m7.803-2.856v.973h-3.539v-.973zm4.229 3.879h-2.558v-8h2.648q1.172 0 2.012.48.84.477 1.289 1.372.449.89.449 2.136 0 1.25-.453 2.149a3.2 3.2 0 01-1.312 1.383q-.856.48-2.075.48m-1.41-1.008h1.344q.933 0 1.551-.351a2.2 2.2 0 00.922-1.028q.308-.672.308-1.625 0-.949-.305-1.613a2.16 2.16 0 00-.902-1.016q-.597-.351-1.488-.351h-1.43zm6.779 1.008v-8h2.895q.848 0 1.402.281.56.281.832.758.274.477.274 1.066 0 .505-.184.844a1.5 1.5 0 01-.488.543 2.1 2.1 0 01-.664.297v.078q.39.024.769.262.38.234.629.668.25.434.25 1.058 0 .61-.285 1.094t-.883.77q-.594.28-1.527.281zm1.149-.992h1.785q.89 0 1.27-.344.382-.344.382-.852 0-.386-.195-.71a1.4 1.4 0 00-.559-.516 1.77 1.77 0 00-.855-.195h-1.828zm0-3.535h1.66q.414 0 .746-.157.336-.159.531-.453.196-.292.196-.687 0-.504-.352-.848t-1.09-.344h-1.691zm9.448.039v.976h-3.539v-.976zm1.8 4.488v-.832l2.691-2.828q.438-.47.727-.82.29-.352.43-.672t.14-.672q0-.406-.191-.699a1.23 1.23 0 00-.52-.457 1.7 1.7 0 00-.742-.161q-.437 0-.762.18-.324.18-.504.504a1.56 1.56 0 00-.175.762h-1.094q0-.727.332-1.27a2.3 2.3 0 01.914-.844q.582-.3 1.313-.3.742 0 1.308.3.57.297.891.809.32.512.32 1.148 0 .442-.164.868-.163.425-.57.945a16 16 0 01-1.125 1.262l-1.641 1.726v.059h3.633V203z"/><path fill="#686E67" d="M118.396 213.25h-.836a1.74 1.74 0 00-.705-1.093 1.9 1.9 0 00-.577-.283 2.3 2.3 0 00-.662-.095q-.627 0-1.136.317-.507.317-.807.935-.297.617-.297 1.514 0 .899.297 1.515.3.618.807.935.509.317 1.136.317.344 0 .662-.095.316-.094.577-.28.262-.189.445-.462.185-.276.26-.634h.836a2.8 2.8 0 01-.344.948 2.58 2.58 0 01-1.454 1.154 3.1 3.1 0 01-.982.151 2.9 2.9 0 01-1.572-.431q-.687-.433-1.083-1.228-.394-.797-.394-1.89t.394-1.889q.396-.796 1.083-1.228a2.9 2.9 0 011.572-.432q.523 0 .982.152.462.152.833.446.372.29.621.708.25.415.344.948m1.636-2.159 2.051 5.816h.081l2.051-5.816h.877L122.555 218h-.864l-2.536-6.909zm6.136 6.909v-6.909h4.17v.742h-3.333v2.335h3.117v.742h-3.117v2.348h3.387V218zm8.539-3.826v.743h-3.023v-.743zm1.59 3.826v-.607l2.28-2.497q.402-.438.661-.762.26-.327.385-.614.128-.29.128-.607a1.12 1.12 0 00-.648-1.043 1.5 1.5 0 00-.674-.145q-.399 0-.695.165-.294.162-.456.456a1.44 1.44 0 00-.158.688h-.796q0-.607.28-1.066.279-.459.762-.715a2.3 2.3 0 011.09-.257q.606 0 1.076.257.469.256.735.691.267.436.267.969 0 .38-.139.745-.135.362-.472.806-.334.442-.928 1.08l-1.551 1.66v.054h3.211V218zm8.309.094q-.762 0-1.298-.414-.537-.419-.82-1.212-.283-.795-.283-1.923 0-1.12.283-1.912.286-.797.823-1.215.54-.422 1.295-.422.756 0 1.293.422.539.418.823 1.215.286.792.286 1.912 0 1.128-.283 1.923-.283.794-.82 1.212-.535.414-1.299.414m0-.742q.756 0 1.174-.728.419-.729.419-2.079 0-.897-.192-1.528-.19-.63-.547-.961a1.2 1.2 0 00-.854-.331q-.749 0-1.17.739-.422.735-.422 2.081 0 .898.189 1.525.189.628.543.955.358.327.86.327m7.082-6.261V218h-.836v-6.032h-.041l-1.686 1.12v-.85l1.727-1.147zm5.166-.095q.426.004.85.162.425.16.776.527.351.364.564.995.212.63.212 1.582 0 .92-.175 1.636-.172.712-.499 1.201-.325.49-.79.742a2.14 2.14 0 01-1.046.253q-.58 0-1.035-.229a2.04 2.04 0 01-.743-.644 2.25 2.25 0 01-.367-.962h.823q.11.476.442.786.333.307.88.307.8 0 1.262-.698.465-.698.466-1.974h-.054a2.1 2.1 0 01-.449.49 2 2 0 01-1.252.428q-.594 0-1.089-.293a2.2 2.2 0 01-.79-.814 2.4 2.4 0 01-.293-1.187q0-.635.283-1.161a2.2 2.2 0 01.803-.843q.519-.313 1.221-.304m0 .743q-.424 0-.766.212-.336.21-.536.567-.196.354-.196.786t.189.786q.193.351.523.56.335.206.759.206.321 0 .597-.125.278-.128.483-.347.208-.223.327-.503.118-.283.118-.591 0-.403-.196-.759a1.54 1.54 0 00-.533-.573 1.4 1.4 0 00-.769-.219m6.826 2.435v.743h-3.023v-.743zm3.749 3.92q-.763 0-1.299-.414-.537-.419-.82-1.212-.283-.795-.283-1.923 0-1.12.283-1.912.287-.797.823-1.215.54-.422 1.296-.422t1.292.422q.54.418.823 1.215.287.792.287 1.912 0 1.128-.284 1.923-.283.794-.819 1.212-.537.414-1.299.414m0-.742q.756 0 1.174-.728.418-.729.418-2.079 0-.897-.192-1.528-.189-.63-.547-.961a1.2 1.2 0 00-.853-.331q-.75 0-1.171.739-.422.735-.422 2.081 0 .898.189 1.525.189.628.543.955.359.327.861.327m7.082-6.261V218h-.837v-6.032h-.04l-1.687 1.12v-.85l1.727-1.147zm5.22 7.003q-.763 0-1.299-.414-.537-.419-.82-1.212-.283-.795-.283-1.923 0-1.12.283-1.912.286-.797.823-1.215.54-.422 1.296-.422.755 0 1.292.422.539.418.823 1.215.287.792.287 1.912 0 1.128-.284 1.923-.283.794-.82 1.212-.536.414-1.298.414m0-.742q.755 0 1.174-.728.418-.729.418-2.079 0-.897-.192-1.528-.19-.63-.547-.961a1.2 1.2 0 00-.853-.331q-.75 0-1.171.739-.422.735-.422 2.081 0 .898.189 1.525.189.628.543.955.358.327.861.327m7.081-6.261V218h-.836v-6.032h-.041l-1.686 1.12v-.85l1.727-1.147z"/><path fill="#001800" fill-opacity=".125" d="M83 226h2v6h-2z"/><path fill="#002000" fill-opacity=".063" d="M64 235a3 3 0 013-3h34a3 3 0 013 3v14a3 3 0 01-3 3H67a3 3 0 01-3-3z"/><path fill="#464D45" d="m78.957 245 2.976-5.89v-.051h-3.448v-.968h4.635v.998L80.148 245zm5.907 0v-.83l2.371-2.388q.359-.372.594-.655a2.5 2.5 0 00.354-.543q.118-.263.118-.557 0-.337-.155-.58a1 1 0 00-.425-.374 1.4 1.4 0 00-.61-.132q-.356 0-.621.145a1 1 0 00-.412.412 1.3 1.3 0 00-.145.631h-1.09q0-.645.294-1.124t.81-.742a2.55 2.55 0 011.184-.267q.675 0 1.184.26.513.26.796.709.287.445.287 1.012 0 .387-.145.759-.145.371-.51.826-.36.452-1.015 1.097l-1.279 1.322v.051h3.057V245z"/><path fill="#001800" fill-opacity=".125" d="M83 252h2v6h-2z"/><path fill="#1D211C" d="M113.492 239h-1.215l2.891-8h1.297l2.894 8h-1.214l-2.297-6.594h-.063zm.254-3.129h4.141v.973h-4.141zm9.121 3.25q-.863 0-1.488-.394a2.63 2.63 0 01-.957-1.098q-.332-.699-.332-1.602 0-.914.344-1.613.343-.703.961-1.098.621-.394 1.46-.394.668 0 1.196.246.53.246.859.695.328.446.395 1.039h-1.082a1.4 1.4 0 00-.438-.726q-.34-.309-.914-.309-.5 0-.875.262t-.586.742q-.207.477-.207 1.129 0 .665.203 1.152.207.489.582.754.376.266.883.266.344 0 .617-.121a1.26 1.26 0 00.465-.356q.192-.23.27-.558h1.082q-.067.57-.383 1.019-.312.45-.836.707-.52.258-1.219.258m6.22 0q-.864 0-1.488-.394a2.63 2.63 0 01-.957-1.098q-.332-.699-.332-1.602 0-.914.343-1.613.344-.703.961-1.098.621-.394 1.461-.394.668 0 1.196.246.53.246.859.695.328.446.394 1.039h-1.082a1.4 1.4 0 00-.437-.726q-.34-.309-.914-.309-.5 0-.875.262t-.586.742q-.207.477-.207 1.129 0 .665.203 1.152.207.489.582.754.375.266.883.266.344 0 .617-.121a1.26 1.26 0 00.465-.356q.19-.23.269-.558h1.082a2.17 2.17 0 01-1.218 1.726q-.52.258-1.219.258m6.22 0q-.837 0-1.461-.387a2.6 2.6 0 01-.973-1.082q-.344-.695-.344-1.625 0-.933.344-1.632.348-.7.973-1.086.624-.387 1.461-.387.835 0 1.461.387.624.386.968 1.086.348.699.348 1.632 0 .93-.348 1.625a2.6 2.6 0 01-.968 1.082q-.626.387-1.461.387m.004-.941q.562 0 .929-.297.371-.297.551-.785t.18-1.071q0-.582-.18-1.074a1.8 1.8 0 00-.551-.793q-.367-.3-.929-.301-.57 0-.942.301a1.8 1.8 0 00-.547.793q-.18.492-.179 1.074 0 .582.179 1.071.18.488.547.785.371.297.942.297m7.895-1.66V233h1.106v6h-1.09v-1.035h-.063a1.9 1.9 0 01-.66.797q-.453.316-1.129.316-.574 0-1.016-.254a1.76 1.76 0 01-.695-.758q-.25-.504-.25-1.25V233h1.106v3.695q0 .625.347.996.348.368.899.368.331 0 .664-.164.332-.169.554-.508.227-.344.227-.867m3.808-1.094V239h-1.106v-6h1.063v.969h.074q.211-.477.648-.762.442-.285 1.118-.285.612 0 1.07.254.46.254.715.758.257.504.254 1.25V239h-1.106v-3.695q0-.668-.348-1.043-.343-.375-.949-.375-.414 0-.738.183-.324.18-.512.524-.183.343-.183.832m8.19-2.426v.898h-3.238V233zm-2.351-1.438h1.105v5.688q0 .351.105.527a.54.54 0 00.274.239q.168.062.359.062.145 0 .246-.019l.164-.032.207.93a2 2 0 01-.285.078 2 2 0 01-.457.043 2 2 0 01-.836-.164 1.5 1.5 0 01-.64-.527q-.243-.355-.242-.895zm3.668 7.438v-6h1.106v6zm.559-6.945a.72.72 0 01-.508-.2.63.63 0 01-.211-.476.64.64 0 01.211-.481.73.73 0 01.508-.199q.297 0 .508.199a.64.64 0 01.211.481q0 .278-.211.476a.71.71 0 01-.508.2m3.254 3.371V239h-1.105v-6h1.062v.969h.074q.211-.477.649-.762.44-.285 1.117-.285.613 0 1.07.254.461.254.715.758.258.504.254 1.25V239h-1.106v-3.695q0-.668-.347-1.043-.344-.375-.949-.375-.415 0-.739.183a1.3 1.3 0 00-.511.524q-.184.343-.184.832m7.929 5.949q-.704 0-1.211-.184a2.4 2.4 0 01-.828-.484 2.1 2.1 0 01-.489-.652l.938-.438q.11.169.289.367.184.2.496.34t.813.141q.679 0 1.121-.328.445-.329.445-1.047v-1.188h-.074a3 3 0 01-.301.422 1.6 1.6 0 01-.539.41q-.344.177-.902.176-.715 0-1.286-.336a2.37 2.37 0 01-.902-.992q-.332-.656-.332-1.609 0-.947.324-1.629.328-.688.899-1.055a2.37 2.37 0 011.308-.367q.562 0 .906.187.348.188.54.434.19.246.293.426h.089V233h1.078v6.145q0 .77-.355 1.261a2.07 2.07 0 01-.965.731 3.7 3.7 0 01-1.355.238m-.016-3.398q.516 0 .871-.243.36-.242.543-.691.188-.453.188-1.082a3 3 0 00-.184-1.086 1.57 1.57 0 00-.539-.734q-.355-.266-.879-.266-.543 0-.906.277-.36.278-.543.75-.18.473-.18 1.059 0 .597.184 1.051.183.453.547.711.363.254.898.254m7.803-2.856v.973h-3.539v-.973zm4.229 3.879h-2.558v-8h2.648q1.172 0 2.012.48.84.477 1.289 1.372.449.89.449 2.136 0 1.25-.453 2.149a3.2 3.2 0 01-1.312 1.383q-.856.48-2.075.48m-1.41-1.008h1.344q.933 0 1.551-.351a2.2 2.2 0 00.922-1.028q.308-.672.308-1.625 0-.949-.305-1.613a2.16 2.16 0 00-.902-1.016q-.597-.351-1.488-.351h-1.43zm6.779 1.008v-8h2.895q.848 0 1.402.281.56.281.832.758.274.477.274 1.066 0 .505-.184.844a1.5 1.5 0 01-.488.543 2.1 2.1 0 01-.664.297v.078q.39.024.769.262.38.234.629.668.25.434.25 1.058 0 .61-.285 1.094t-.883.77q-.594.28-1.527.281zm1.149-.992h1.785q.89 0 1.27-.344.382-.344.382-.852 0-.386-.195-.71a1.4 1.4 0 00-.559-.516 1.77 1.77 0 00-.855-.195h-1.828zm0-3.535h1.66q.414 0 .746-.157.336-.159.531-.453.196-.292.196-.687 0-.504-.352-.848t-1.09-.344h-1.691zm9.448.039v.976h-3.539v-.976zm1.8 4.488v-.832l2.691-2.828q.438-.47.727-.82.29-.352.43-.672t.14-.672q0-.406-.191-.699a1.23 1.23 0 00-.52-.457 1.7 1.7 0 00-.742-.161q-.437 0-.762.18-.324.18-.504.504a1.56 1.56 0 00-.175.762h-1.094q0-.727.332-1.27a2.3 2.3 0 01.914-.844q.582-.3 1.313-.3.742 0 1.308.3.57.297.891.809.32.512.32 1.148 0 .442-.164.868-.163.425-.57.945a16 16 0 01-1.125 1.262l-1.641 1.726v.059h3.633V239z"/><path fill="#686E67" d="M118.396 249.25h-.836a1.74 1.74 0 00-.705-1.093 1.9 1.9 0 00-.577-.283 2.3 2.3 0 00-.662-.095q-.627 0-1.136.317-.507.317-.807.935-.297.617-.297 1.514 0 .899.297 1.515.3.618.807.935.509.317 1.136.317.344 0 .662-.095.316-.094.577-.28.262-.189.445-.462.185-.276.26-.634h.836a2.8 2.8 0 01-.344.948 2.58 2.58 0 01-1.454 1.154 3.1 3.1 0 01-.982.151 2.9 2.9 0 01-1.572-.431q-.687-.433-1.083-1.228-.394-.797-.394-1.89t.394-1.889q.396-.796 1.083-1.228a2.9 2.9 0 011.572-.432q.523 0 .982.152.462.152.833.446.372.29.621.708.25.415.344.948m1.636-2.159 2.051 5.816h.081l2.051-5.816h.877L122.555 254h-.864l-2.536-6.909zm6.136 6.909v-6.909h4.17v.742h-3.333v2.335h3.117v.742h-3.117v2.348h3.387V254zm8.539-3.826v.743h-3.023v-.743zm1.59 3.826v-.607l2.28-2.497q.402-.438.661-.762.26-.327.385-.614.128-.29.128-.607a1.12 1.12 0 00-.648-1.043 1.5 1.5 0 00-.674-.145q-.399 0-.695.165-.294.162-.456.456a1.44 1.44 0 00-.158.688h-.796q0-.607.28-1.066.279-.459.762-.715a2.3 2.3 0 011.09-.257q.606 0 1.076.257.469.256.735.691.267.436.267.969 0 .38-.139.745-.135.362-.472.806-.334.442-.928 1.08l-1.551 1.66v.054h3.211V254zm8.309.094q-.762 0-1.298-.414-.537-.419-.82-1.212-.283-.795-.283-1.923 0-1.12.283-1.912.286-.797.823-1.215.54-.422 1.295-.422.756 0 1.293.422.539.418.823 1.215.286.792.286 1.912 0 1.128-.283 1.923-.283.794-.82 1.212-.535.414-1.299.414m0-.742q.756 0 1.174-.728.419-.729.419-2.079 0-.897-.192-1.528-.19-.63-.547-.961a1.2 1.2 0 00-.854-.331q-.749 0-1.17.739-.422.735-.422 2.081 0 .898.189 1.525.189.628.543.955.358.327.86.327m7.082-6.261V254h-.836v-6.032h-.041l-1.686 1.12v-.85l1.727-1.147zm5.166-.095q.426.004.85.162.425.16.776.527.351.364.564.995.212.63.212 1.582 0 .92-.175 1.636-.172.712-.499 1.201-.325.49-.79.742a2.14 2.14 0 01-1.046.253q-.58 0-1.035-.229a2.04 2.04 0 01-.743-.644 2.25 2.25 0 01-.367-.962h.823q.11.476.442.786.333.307.88.307.8 0 1.262-.698.465-.698.466-1.974h-.054a2.1 2.1 0 01-.449.49 2 2 0 01-1.252.428q-.594 0-1.089-.293a2.2 2.2 0 01-.79-.814 2.4 2.4 0 01-.293-1.187q0-.635.283-1.161a2.2 2.2 0 01.803-.843q.519-.313 1.221-.304m0 .743q-.424 0-.766.212-.336.21-.536.567-.196.354-.196.786t.189.786q.193.351.523.56.335.206.759.206.321 0 .597-.125.278-.128.483-.347.208-.223.327-.503.118-.283.118-.591 0-.403-.196-.759a1.54 1.54 0 00-.533-.573 1.4 1.4 0 00-.769-.219m6.826 2.435v.743h-3.023v-.743zm3.749 3.92q-.763 0-1.299-.414-.537-.419-.82-1.212-.283-.795-.283-1.923 0-1.12.283-1.912.287-.797.823-1.215.54-.422 1.296-.422t1.292.422q.54.418.823 1.215.287.792.287 1.912 0 1.128-.284 1.923-.283.794-.819 1.212-.537.414-1.299.414m0-.742q.756 0 1.174-.728.418-.729.418-2.079 0-.897-.192-1.528-.189-.63-.547-.961a1.2 1.2 0 00-.853-.331q-.75 0-1.171.739-.422.735-.422 2.081 0 .898.189 1.525.189.628.543.955.359.327.861.327m7.082-6.261V254h-.837v-6.032h-.04l-1.687 1.12v-.85l1.727-1.147zm5.22 7.003q-.763 0-1.299-.414-.537-.419-.82-1.212-.283-.795-.283-1.923 0-1.12.283-1.912.286-.797.823-1.215.54-.422 1.296-.422.755 0 1.292.422.539.418.823 1.215.287.792.287 1.912 0 1.128-.284 1.923-.283.794-.82 1.212-.536.414-1.298.414m0-.742q.755 0 1.174-.728.418-.729.418-2.079 0-.897-.192-1.528-.19-.63-.547-.961a1.2 1.2 0 00-.853-.331q-.75 0-1.171.739-.422.735-.422 2.081 0 .898.189 1.525.189.628.543.955.358.327.861.327m7.081-6.261V254h-.836v-6.032h-.041l-1.686 1.12v-.85l1.727-1.147z"/><path fill="#001800" fill-opacity=".125" d="M83 262h2v6h-2z"/><path fill="#002000" fill-opacity=".063" d="M64 271a3 3 0 013-3h34a3 3 0 013 3v14a3 3 0 01-3 3H67a3 3 0 01-3-3z"/><path fill="#464D45" d="m78.957 281 2.976-5.89v-.051h-3.448v-.968h4.635v.998L80.148 281zm5.907 0v-.83l2.371-2.388q.359-.372.594-.655a2.5 2.5 0 00.354-.543q.118-.263.118-.557 0-.337-.155-.58a1 1 0 00-.425-.374 1.4 1.4 0 00-.61-.132q-.356 0-.621.145a1 1 0 00-.412.412 1.3 1.3 0 00-.145.631h-1.09q0-.644.294-1.124.294-.479.81-.742a2.55 2.55 0 011.184-.267q.675 0 1.184.26.513.26.796.709.287.445.287 1.012 0 .387-.145.759-.145.371-.51.826-.36.452-1.015 1.097l-1.279 1.322v.051h3.057V281z"/><path fill="#001800" fill-opacity=".125" d="M83 288h2v6h-2z"/><path fill="#1D211C" d="M113.492 275h-1.215l2.891-8h1.297l2.894 8h-1.214l-2.297-6.594h-.063zm.254-3.129h4.141v.973h-4.141zm9.121 3.25q-.863 0-1.488-.394a2.63 2.63 0 01-.957-1.098q-.332-.699-.332-1.602 0-.914.344-1.613.343-.703.961-1.098.621-.394 1.46-.394.668 0 1.196.246.53.246.859.695.328.446.395 1.039h-1.082a1.4 1.4 0 00-.438-.726q-.34-.309-.914-.309-.5 0-.875.262t-.586.742q-.207.477-.207 1.129 0 .664.203 1.152.207.489.582.754.376.266.883.266.344 0 .617-.121a1.26 1.26 0 00.465-.356q.192-.23.27-.558h1.082q-.067.57-.383 1.019-.312.45-.836.707-.52.258-1.219.258m6.22 0q-.864 0-1.488-.394a2.63 2.63 0 01-.957-1.098q-.332-.699-.332-1.602 0-.914.343-1.613.344-.703.961-1.098.621-.394 1.461-.394.668 0 1.196.246.53.246.859.695.328.446.394 1.039h-1.082a1.4 1.4 0 00-.437-.726q-.34-.309-.914-.309-.5 0-.875.262t-.586.742q-.207.477-.207 1.129 0 .664.203 1.152.207.489.582.754.375.266.883.266.344 0 .617-.121a1.26 1.26 0 00.465-.356q.19-.23.269-.558h1.082a2.17 2.17 0 01-1.218 1.726q-.52.258-1.219.258m6.22 0q-.837 0-1.461-.387a2.6 2.6 0 01-.973-1.082q-.344-.695-.344-1.625 0-.933.344-1.632.348-.7.973-1.086.624-.387 1.461-.387.835 0 1.461.387.624.386.968 1.086.348.699.348 1.632 0 .93-.348 1.625a2.6 2.6 0 01-.968 1.082q-.626.387-1.461.387m.004-.941q.562 0 .929-.297.371-.297.551-.785t.18-1.071q0-.582-.18-1.074a1.8 1.8 0 00-.551-.793q-.367-.3-.929-.301-.57 0-.942.301a1.8 1.8 0 00-.547.793q-.18.492-.179 1.074 0 .582.179 1.071.18.488.547.785.371.297.942.297m7.895-1.66V269h1.106v6h-1.09v-1.035h-.063a1.9 1.9 0 01-.66.797q-.453.316-1.129.316-.574 0-1.016-.254a1.76 1.76 0 01-.695-.758q-.25-.504-.25-1.25V269h1.106v3.695q0 .625.347.996.348.368.899.368.331 0 .664-.164.332-.168.554-.508.227-.344.227-.867m3.808-1.094V275h-1.106v-6h1.063v.969h.074q.211-.477.648-.762.442-.285 1.118-.285.612 0 1.07.254.46.254.715.758.257.504.254 1.25V275h-1.106v-3.695q0-.668-.348-1.043-.343-.375-.949-.375-.414 0-.738.183-.324.18-.512.524-.183.343-.183.832m8.19-2.426v.898h-3.238V269zm-2.351-1.438h1.105v5.688q0 .351.105.527a.54.54 0 00.274.239q.168.062.359.062.145 0 .246-.019l.164-.032.207.93a2 2 0 01-.285.078 2 2 0 01-.457.043 2 2 0 01-.836-.164 1.5 1.5 0 01-.64-.527q-.243-.355-.242-.895zm3.668 7.438v-6h1.106v6zm.559-6.945a.72.72 0 01-.508-.2.63.63 0 01-.211-.476.64.64 0 01.211-.481.73.73 0 01.508-.199q.297 0 .508.199a.64.64 0 01.211.481q0 .278-.211.476a.71.71 0 01-.508.2m3.254 3.371V275h-1.105v-6h1.062v.969h.074q.211-.477.649-.762.44-.285 1.117-.285.613 0 1.07.254.461.254.715.758.258.504.254 1.25V275h-1.106v-3.695q0-.668-.347-1.043-.344-.375-.949-.375-.415 0-.739.183a1.3 1.3 0 00-.511.524q-.184.343-.184.832m7.929 5.949q-.704 0-1.211-.184a2.4 2.4 0 01-.828-.484 2.1 2.1 0 01-.489-.652l.938-.438q.11.169.289.367.184.2.496.34t.813.141q.679 0 1.121-.328.445-.328.445-1.047v-1.188h-.074a3 3 0 01-.301.422 1.6 1.6 0 01-.539.41q-.344.176-.902.176-.715 0-1.286-.336a2.37 2.37 0 01-.902-.992q-.332-.656-.332-1.609 0-.946.324-1.629.328-.688.899-1.055a2.37 2.37 0 011.308-.367q.562 0 .906.187.348.188.54.434.19.246.293.426h.089V269h1.078v6.145q0 .77-.355 1.261a2.07 2.07 0 01-.965.731 3.7 3.7 0 01-1.355.238m-.016-3.398q.516 0 .871-.243.36-.242.543-.691.188-.453.188-1.082a3 3 0 00-.184-1.086 1.57 1.57 0 00-.539-.734q-.355-.266-.879-.266-.543 0-.906.277-.36.277-.543.75-.18.473-.18 1.059 0 .598.184 1.051.183.453.547.711.363.254.898.254m7.803-2.856v.973h-3.539v-.973zm4.229 3.879h-2.558v-8h2.648q1.172 0 2.012.48.84.477 1.289 1.372.449.89.449 2.136 0 1.25-.453 2.149a3.2 3.2 0 01-1.312 1.383q-.856.48-2.075.48m-1.41-1.008h1.344q.933 0 1.551-.351a2.2 2.2 0 00.922-1.028q.308-.671.308-1.625 0-.949-.305-1.613a2.16 2.16 0 00-.902-1.016q-.597-.351-1.488-.351h-1.43zm6.779 1.008v-8h2.895q.848 0 1.402.281.56.281.832.758.274.477.274 1.066 0 .505-.184.844a1.5 1.5 0 01-.488.543 2.1 2.1 0 01-.664.297v.078q.39.024.769.262.38.234.629.668.25.434.25 1.058 0 .61-.285 1.094t-.883.77q-.594.28-1.527.281zm1.149-.992h1.785q.89 0 1.27-.344.382-.343.382-.852 0-.386-.195-.71a1.4 1.4 0 00-.559-.516 1.77 1.77 0 00-.855-.195h-1.828zm0-3.535h1.66q.414 0 .746-.157.336-.159.531-.453.196-.292.196-.687 0-.504-.352-.848t-1.09-.344h-1.691zm9.448.039v.976h-3.539v-.976zm1.8 4.488v-.832l2.691-2.828q.438-.47.727-.82.29-.352.43-.672t.14-.672q0-.406-.191-.699a1.23 1.23 0 00-.52-.457 1.7 1.7 0 00-.742-.161q-.437 0-.762.18-.324.18-.504.504a1.56 1.56 0 00-.175.762h-1.094q0-.727.332-1.27a2.3 2.3 0 01.914-.844q.582-.3 1.313-.3.742 0 1.308.3.57.297.891.809.32.512.32 1.148 0 .442-.164.868-.163.425-.57.945a16 16 0 01-1.125 1.262l-1.641 1.726v.059h3.633V275z"/><path fill="#686E67" d="M118.396 285.25h-.836a1.74 1.74 0 00-.705-1.093 1.9 1.9 0 00-.577-.283 2.3 2.3 0 00-.662-.095q-.627 0-1.136.317-.507.317-.807.935-.297.617-.297 1.514 0 .898.297 1.515.3.618.807.935.509.317 1.136.317.344 0 .662-.095.316-.094.577-.28.262-.189.445-.462.185-.276.26-.634h.836a2.8 2.8 0 01-.344.948 2.58 2.58 0 01-1.454 1.154 3.1 3.1 0 01-.982.151 2.9 2.9 0 01-1.572-.431q-.687-.433-1.083-1.228-.394-.796-.394-1.89 0-1.092.394-1.889.396-.796 1.083-1.228a2.9 2.9 0 011.572-.432q.523 0 .982.152.462.152.833.446.372.29.621.708.25.416.344.948m1.636-2.159 2.051 5.816h.081l2.051-5.816h.877L122.555 290h-.864l-2.536-6.909zm6.136 6.909v-6.909h4.17v.742h-3.333v2.335h3.117v.742h-3.117v2.348h3.387V290zm8.539-3.826v.743h-3.023v-.743zm1.59 3.826v-.607l2.28-2.497q.402-.438.661-.762.26-.327.385-.614.128-.29.128-.607a1.12 1.12 0 00-.648-1.043 1.5 1.5 0 00-.674-.145q-.399 0-.695.165-.294.162-.456.456a1.44 1.44 0 00-.158.688h-.796q0-.607.28-1.066.279-.459.762-.715a2.3 2.3 0 011.09-.257q.606 0 1.076.257.469.256.735.691.267.436.267.969 0 .38-.139.745-.135.362-.472.806-.334.443-.928 1.08l-1.551 1.66v.054h3.211V290zm8.309.094q-.762 0-1.298-.414-.537-.419-.82-1.212-.283-.795-.283-1.923 0-1.12.283-1.912.286-.796.823-1.215.54-.422 1.295-.422.756 0 1.293.422.539.418.823 1.215.286.792.286 1.912 0 1.128-.283 1.923-.283.793-.82 1.212-.535.414-1.299.414m0-.742q.756 0 1.174-.728.419-.729.419-2.079 0-.897-.192-1.528-.19-.63-.547-.961a1.2 1.2 0 00-.854-.331q-.749 0-1.17.739-.422.735-.422 2.081 0 .898.189 1.525.189.628.543.955.358.327.86.327m7.082-6.261V290h-.836v-6.032h-.041l-1.686 1.12v-.85l1.727-1.147zm5.166-.095q.426.005.85.162.425.16.776.527.351.364.564.995.212.63.212 1.582 0 .92-.175 1.636-.172.712-.499 1.201-.325.49-.79.742a2.14 2.14 0 01-1.046.253q-.58 0-1.035-.229a2.04 2.04 0 01-.743-.644 2.25 2.25 0 01-.367-.962h.823q.11.476.442.786.333.307.88.307.8 0 1.262-.698.465-.698.466-1.974h-.054a2.1 2.1 0 01-.449.49 2 2 0 01-1.252.428q-.594 0-1.089-.293a2.2 2.2 0 01-.79-.814 2.4 2.4 0 01-.293-1.187q0-.635.283-1.161a2.2 2.2 0 01.803-.843q.519-.313 1.221-.304m0 .743q-.424 0-.766.212-.336.21-.536.567-.196.354-.196.786t.189.786q.193.351.523.56.335.206.759.206.321 0 .597-.125.278-.128.483-.347.208-.223.327-.503.118-.284.118-.591 0-.403-.196-.759a1.54 1.54 0 00-.533-.573 1.4 1.4 0 00-.769-.219m6.826 2.435v.743h-3.023v-.743zm3.749 3.92q-.763 0-1.299-.414-.537-.419-.82-1.212-.283-.795-.283-1.923 0-1.12.283-1.912.287-.796.823-1.215.54-.422 1.296-.422t1.292.422q.54.418.823 1.215.287.792.287 1.912 0 1.128-.284 1.923-.283.793-.819 1.212-.537.414-1.299.414m0-.742q.756 0 1.174-.728.418-.729.418-2.079 0-.897-.192-1.528-.189-.63-.547-.961a1.2 1.2 0 00-.853-.331q-.75 0-1.171.739-.422.735-.422 2.081 0 .898.189 1.525.189.628.543.955.359.327.861.327m7.082-6.261V290h-.837v-6.032h-.04l-1.687 1.12v-.85l1.727-1.147zm5.22 7.003q-.763 0-1.299-.414-.537-.419-.82-1.212-.283-.795-.283-1.923 0-1.12.283-1.912.286-.796.823-1.215.54-.422 1.296-.422.755 0 1.292.422.539.418.823 1.215.287.792.287 1.912 0 1.128-.284 1.923-.283.793-.82 1.212-.536.414-1.298.414m0-.742q.755 0 1.174-.728.418-.729.418-2.079 0-.897-.192-1.528-.19-.63-.547-.961a1.2 1.2 0 00-.853-.331q-.75 0-1.171.739-.422.735-.422 2.081 0 .898.189 1.525.189.628.543.955.358.327.861.327m7.081-6.261V290h-.836v-6.032h-.041l-1.686 1.12v-.85l1.727-1.147z"/><path fill="#001800" fill-opacity=".125" d="M112 307a3 3 0 013-3h34a3 3 0 013 3v14a3 3 0 01-3 3h-34a3 3 0 01-3-3z"/><path fill="#1D211C" d="M128.84 317.094q-.736 0-1.306-.249a2.15 2.15 0 01-.89-.692 1.64 1.64 0 01-.318-1.002q-.003-.435.183-.799.19-.368.512-.614a1.6 1.6 0 01.722-.314v-.047a1.4 1.4 0 01-.843-.547 1.58 1.58 0 01-.317-.985 1.6 1.6 0 01.287-.948q.293-.418.803-.658.511-.243 1.167-.243.651 0 1.16.243.51.24.803.658a1.6 1.6 0 01.294.948q0 .557-.324.985a1.4 1.4 0 01-.837.547v.047q.399.068.715.314a1.8 1.8 0 01.51.614q.192.364.192.799 0 .561-.324 1.002a2.15 2.15 0 01-.887.692 3.2 3.2 0 01-1.302.249m0-.907q.408 0 .708-.138.3-.14.466-.388.165-.254.168-.584a1.1 1.1 0 00-.178-.611 1.2 1.2 0 00-.476-.418q-.3-.155-.688-.155t-.692.155a1.2 1.2 0 00-.479.418 1.1 1.1 0 00-.172.611q0 .33.162.58.165.25.469.392.303.138.712.138m0-3.181q.33 0 .587-.132.257-.135.401-.374.149-.24.152-.554a1.03 1.03 0 00-.148-.543.97.97 0 00-.398-.361 1.3 1.3 0 00-.594-.131q-.341 0-.601.131a.96.96 0 00-.398.361 1.03 1.03 0 00-.141.543q0 .315.145.554.144.236.401.371.26.135.594.135m6.301 4.088a2.7 2.7 0 01-1.174-.249 2.1 2.1 0 01-.823-.685 1.86 1.86 0 01-.328-1.002h1.114q.036.436.381.715.347.277.83.277.384 0 .681-.176.3-.179.469-.489.172-.313.172-.712 0-.407-.175-.722a1.31 1.31 0 00-1.184-.681 1.7 1.7 0 00-.621.111q-.307.112-.496.294l-1.042-.162.374-3.522h3.907v.968h-2.952l-.213 1.886h.041q.198-.213.543-.351.344-.142.742-.142.631 0 1.123.297.496.297.78.817.283.516.283 1.18 0 .682-.31 1.212a2.23 2.23 0 01-.86.833 2.56 2.56 0 01-1.262.303"/><path fill="#001800" fill-opacity=".125" d="M131 324h2v6h-2z"/><path fill="#1D211C" d="M161.492 311h-1.215l2.891-8h1.297l2.894 8h-1.214l-2.297-6.594h-.063zm.254-3.129h4.141v.973h-4.141zm9.121 3.25q-.862 0-1.488-.394a2.63 2.63 0 01-.957-1.098q-.332-.699-.332-1.602 0-.914.344-1.613.343-.703.961-1.098.621-.394 1.46-.394.669 0 1.196.246.53.246.859.695.328.446.395 1.039h-1.082a1.4 1.4 0 00-.438-.726q-.34-.309-.914-.309-.5 0-.875.262t-.586.742q-.207.477-.207 1.129 0 .664.203 1.152.207.489.582.754.375.266.883.266.344 0 .617-.121a1.26 1.26 0 00.465-.356q.192-.23.27-.558h1.082q-.067.57-.383 1.019-.312.45-.836.707-.52.258-1.219.258m6.22 0q-.864 0-1.488-.394a2.63 2.63 0 01-.957-1.098q-.332-.699-.332-1.602 0-.914.343-1.613.344-.703.961-1.098.621-.394 1.461-.394.668 0 1.196.246.53.246.859.695.328.446.394 1.039h-1.082a1.4 1.4 0 00-.437-.726q-.34-.309-.914-.309-.5 0-.875.262t-.586.742q-.207.477-.207 1.129 0 .664.203 1.152.207.489.582.754.375.266.883.266.344 0 .617-.121a1.26 1.26 0 00.465-.356q.19-.23.269-.558h1.082a2.17 2.17 0 01-1.218 1.726q-.52.258-1.219.258m6.22 0q-.837 0-1.461-.387a2.6 2.6 0 01-.973-1.082q-.344-.695-.344-1.625 0-.933.344-1.632.348-.7.973-1.086.624-.387 1.461-.387.835 0 1.461.387.624.386.968 1.086.348.699.348 1.632 0 .93-.348 1.625a2.6 2.6 0 01-.968 1.082q-.626.387-1.461.387m.004-.941q.562 0 .929-.297.371-.297.551-.785t.18-1.071q0-.582-.18-1.074a1.8 1.8 0 00-.551-.793q-.367-.3-.929-.301-.57 0-.942.301a1.8 1.8 0 00-.547.793q-.18.492-.179 1.074 0 .582.179 1.071.18.488.547.785.371.297.942.297m7.895-1.66V305h1.106v6h-1.09v-1.035h-.063a1.9 1.9 0 01-.66.797q-.453.316-1.129.316-.574 0-1.016-.254a1.76 1.76 0 01-.695-.758q-.25-.504-.25-1.25V305h1.106v3.695q0 .625.347.996.348.368.899.368.331 0 .664-.164.332-.168.554-.508.227-.344.227-.867m3.808-1.094V311h-1.106v-6h1.063v.969h.074q.212-.477.648-.762.442-.285 1.118-.285.612 0 1.07.254.46.254.715.758.257.504.254 1.25V311h-1.106v-3.695q0-.668-.348-1.043-.343-.375-.949-.375-.414 0-.738.183-.324.18-.512.524-.183.343-.183.832m8.19-2.426v.898h-3.238V305zm-2.351-1.438h1.105v5.688q0 .351.105.527a.54.54 0 00.274.239q.168.062.359.062.145 0 .246-.019l.164-.032.207.93a2 2 0 01-.285.078 2 2 0 01-.457.043 2 2 0 01-.836-.164 1.5 1.5 0 01-.64-.527q-.243-.355-.242-.895zm3.668 7.438v-6h1.106v6zm.559-6.945a.72.72 0 01-.508-.2.63.63 0 01-.211-.476.64.64 0 01.211-.481.73.73 0 01.508-.199q.297 0 .508.199a.64.64 0 01.211.481q0 .278-.211.476a.71.71 0 01-.508.2m3.254 3.371V311h-1.105v-6h1.062v.969h.074q.211-.477.649-.762.44-.285 1.117-.285.613 0 1.07.254.461.254.715.758.258.504.254 1.25V311h-1.106v-3.695q0-.668-.347-1.043-.344-.375-.949-.375-.415 0-.739.183a1.3 1.3 0 00-.511.524q-.184.343-.184.832m7.929 5.949q-.704 0-1.211-.184a2.4 2.4 0 01-.828-.484 2.1 2.1 0 01-.489-.652l.938-.438q.11.169.289.367.184.2.496.34t.813.141q.679 0 1.121-.328.445-.328.445-1.047v-1.188h-.074a3 3 0 01-.301.422 1.6 1.6 0 01-.539.41q-.344.176-.902.176-.715 0-1.286-.336a2.37 2.37 0 01-.902-.992q-.332-.656-.332-1.609 0-.946.324-1.629.328-.688.899-1.055a2.37 2.37 0 011.308-.367q.562 0 .906.187.348.188.54.434.19.246.293.426h.089V305h1.078v6.145q0 .77-.355 1.261a2.07 2.07 0 01-.965.731 3.7 3.7 0 01-1.355.238m-.016-3.398q.516 0 .871-.243.36-.242.543-.691.188-.453.188-1.082a3 3 0 00-.184-1.086 1.57 1.57 0 00-.539-.734q-.355-.266-.879-.266-.543 0-.906.277-.36.277-.543.75-.18.473-.18 1.059 0 .598.184 1.051.183.453.547.711.363.254.898.254m7.803-2.856v.973h-3.539v-.973zm4.229 3.879h-2.558v-8h2.648q1.172 0 2.012.48.84.477 1.289 1.372.449.89.449 2.136 0 1.25-.453 2.149a3.2 3.2 0 01-1.312 1.383q-.856.48-2.075.48m-1.41-1.008h1.344q.933 0 1.551-.351a2.2 2.2 0 00.922-1.028q.308-.671.308-1.625 0-.949-.305-1.613a2.16 2.16 0 00-.902-1.016q-.597-.351-1.488-.351h-1.43zm6.779 1.008v-8h2.895q.848 0 1.402.281.56.281.832.758.274.477.274 1.066 0 .505-.184.844a1.5 1.5 0 01-.488.543 2.1 2.1 0 01-.664.297v.078q.39.024.769.262.38.234.629.668.25.434.25 1.058 0 .61-.285 1.094t-.883.77q-.594.28-1.527.281zm1.149-.992h1.785q.89 0 1.27-.344.382-.343.382-.852 0-.386-.195-.71a1.4 1.4 0 00-.559-.516 1.77 1.77 0 00-.855-.195h-1.828zm0-3.535h1.66q.414 0 .746-.157.336-.159.531-.453.196-.292.196-.687 0-.504-.352-.848t-1.09-.344h-1.691zm9.448.039v.976h-3.539v-.976zm1.8 4.488v-.832l2.691-2.828q.438-.47.727-.82.29-.352.43-.672t.14-.672q0-.406-.191-.699a1.23 1.23 0 00-.52-.457 1.7 1.7 0 00-.742-.161q-.437 0-.762.18-.324.18-.504.504a1.56 1.56 0 00-.175.762h-1.094q0-.727.332-1.27a2.3 2.3 0 01.914-.844q.582-.3 1.313-.3.742 0 1.308.3.57.297.891.809.32.512.32 1.148 0 .442-.164.868-.163.425-.57.945a16 16 0 01-1.125 1.262l-1.641 1.726v.059h3.633V311z"/><path fill="#686E67" d="M166.396 321.25h-.836a1.74 1.74 0 00-.705-1.093 1.9 1.9 0 00-.577-.283 2.3 2.3 0 00-.662-.095q-.627 0-1.136.317-.507.317-.807.935-.297.617-.297 1.514 0 .898.297 1.515.3.618.807.935.509.317 1.136.317.344 0 .662-.095.316-.094.577-.28.262-.189.445-.462.186-.276.26-.634h.836a2.8 2.8 0 01-.344.948 2.58 2.58 0 01-1.454 1.154 3.1 3.1 0 01-.982.151 2.9 2.9 0 01-1.572-.431q-.687-.433-1.083-1.228-.394-.796-.394-1.89 0-1.092.394-1.889.396-.796 1.083-1.228a2.9 2.9 0 011.572-.432q.523 0 .982.152.462.152.833.446.372.29.621.708.25.416.344.948m1.636-2.159 2.051 5.816h.081l2.051-5.816h.877L170.555 326h-.864l-2.536-6.909zm6.136 6.909v-6.909h4.17v.742h-3.333v2.335h3.117v.742h-3.117v2.348h3.387V326zm8.539-3.826v.743h-3.023v-.743zm1.59 3.826v-.607l2.28-2.497q.402-.438.661-.762.26-.327.385-.614.128-.29.128-.607a1.12 1.12 0 00-.648-1.043 1.5 1.5 0 00-.674-.145q-.399 0-.695.165-.294.162-.456.456a1.44 1.44 0 00-.158.688h-.796q0-.607.28-1.066.279-.459.762-.715a2.3 2.3 0 011.09-.257q.606 0 1.076.257.469.256.735.691.267.436.267.969 0 .38-.139.745-.135.362-.472.806-.334.443-.928 1.08l-1.551 1.66v.054h3.211V326zm8.309.094q-.762 0-1.298-.414-.537-.419-.82-1.212-.283-.795-.283-1.923 0-1.12.283-1.912.286-.796.823-1.215.54-.422 1.295-.422.756 0 1.293.422.539.418.823 1.215.286.792.286 1.912 0 1.128-.283 1.923-.283.793-.82 1.212-.535.414-1.299.414m0-.742q.756 0 1.174-.728.419-.729.419-2.079 0-.897-.192-1.528-.19-.63-.547-.961a1.2 1.2 0 00-.854-.331q-.749 0-1.17.739-.422.735-.422 2.081 0 .898.189 1.525.189.628.543.955.358.327.86.327m7.082-6.261V326h-.836v-6.032h-.041l-1.686 1.12v-.85l1.727-1.147zm5.166-.095q.426.005.85.162.425.16.776.527.351.364.564.995.212.63.212 1.582 0 .92-.175 1.636-.172.712-.499 1.201-.325.49-.79.742a2.14 2.14 0 01-1.046.253q-.58 0-1.035-.229a2.04 2.04 0 01-.743-.644 2.25 2.25 0 01-.367-.962h.823q.11.476.442.786.334.307.88.307.8 0 1.262-.698.465-.698.466-1.974h-.054a2.1 2.1 0 01-.449.49 2 2 0 01-1.252.428q-.594 0-1.089-.293a2.2 2.2 0 01-.79-.814 2.4 2.4 0 01-.293-1.187q0-.635.283-1.161a2.2 2.2 0 01.803-.843q.519-.313 1.221-.304m0 .743q-.424 0-.766.212-.336.21-.536.567-.196.354-.196.786t.189.786q.193.351.523.56.335.206.759.206.321 0 .597-.125.278-.128.483-.347.208-.223.327-.503.118-.284.118-.591 0-.403-.196-.759a1.54 1.54 0 00-.533-.573 1.4 1.4 0 00-.769-.219m6.826 2.435v.743h-3.023v-.743zm3.749 3.92q-.763 0-1.299-.414-.537-.419-.82-1.212-.283-.795-.283-1.923 0-1.12.283-1.912.287-.796.823-1.215.54-.422 1.296-.422.755 0 1.292.422.54.418.823 1.215.287.792.287 1.912 0 1.128-.284 1.923-.283.793-.819 1.212-.537.414-1.299.414m0-.742q.756 0 1.174-.728.418-.729.418-2.079 0-.897-.192-1.528-.189-.63-.547-.961a1.2 1.2 0 00-.853-.331q-.75 0-1.171.739-.422.735-.422 2.081 0 .898.189 1.525.189.628.543.955.359.327.861.327m7.082-6.261V326h-.837v-6.032h-.04l-1.687 1.12v-.85l1.727-1.147zm5.22 7.003q-.763 0-1.299-.414-.537-.419-.82-1.212-.283-.795-.283-1.923 0-1.12.283-1.912.286-.796.823-1.215.54-.422 1.296-.422.755 0 1.292.422.539.418.823 1.215.287.792.287 1.912 0 1.128-.284 1.923-.283.793-.82 1.212-.536.414-1.298.414m0-.742q.755 0 1.174-.728.418-.729.418-2.079 0-.897-.192-1.528-.19-.63-.547-.961a1.2 1.2 0 00-.853-.331q-.75 0-1.171.739-.422.735-.422 2.081 0 .898.189 1.525.189.628.543.955.358.327.861.327m7.081-6.261V326h-.836v-6.032h-.041l-1.686 1.12v-.85l1.727-1.147z"/><path fill="#001800" fill-opacity=".125" d="M131 334h2v6h-2z"/><path fill="#002000" fill-opacity=".063" d="M112 343a3 3 0 013-3h34a3 3 0 013 3v14a3 3 0 01-3 3h-34a3 3 0 01-3-3z"/><path fill="#464D45" d="m126.957 353 2.976-5.89v-.051h-3.448v-.968h4.635v.998L128.148 353zm5.907 0v-.83l2.371-2.388q.358-.372.594-.655t.354-.543q.118-.263.118-.557a1.05 1.05 0 00-.155-.58 1 1 0 00-.425-.374 1.4 1.4 0 00-.611-.132 1.3 1.3 0 00-.62.145 1 1 0 00-.412.412 1.3 1.3 0 00-.145.631h-1.09q0-.644.294-1.124.293-.479.81-.742a2.55 2.55 0 011.184-.267q.674 0 1.184.26.513.26.796.709.287.445.287 1.012 0 .387-.145.759-.145.371-.51.826-.36.452-1.015 1.097l-1.279 1.322v.051h3.057V353z"/><path fill="#1D211C" d="M161.492 347h-1.215l2.891-8h1.297l2.894 8h-1.214l-2.297-6.594h-.063zm.254-3.129h4.141v.973h-4.141zm9.121 3.25q-.862 0-1.488-.394a2.63 2.63 0 01-.957-1.098q-.332-.699-.332-1.602 0-.914.344-1.613.343-.703.961-1.098.621-.394 1.46-.394.669 0 1.196.246.53.246.859.695.328.446.395 1.039h-1.082a1.4 1.4 0 00-.438-.726q-.34-.309-.914-.309-.5 0-.875.262t-.586.742q-.207.477-.207 1.129 0 .664.203 1.152.207.489.582.754.375.266.883.266.344 0 .617-.121a1.26 1.26 0 00.465-.356q.192-.23.27-.558h1.082q-.067.57-.383 1.019-.312.45-.836.707-.52.258-1.219.258m6.22 0q-.864 0-1.488-.394a2.63 2.63 0 01-.957-1.098q-.332-.699-.332-1.602 0-.914.343-1.613.344-.703.961-1.098.621-.394 1.461-.394.668 0 1.196.246.53.246.859.695.328.446.394 1.039h-1.082a1.4 1.4 0 00-.437-.726q-.34-.309-.914-.309-.5 0-.875.262t-.586.742q-.207.477-.207 1.129 0 .664.203 1.152.207.489.582.754.375.266.883.266.344 0 .617-.121a1.26 1.26 0 00.465-.356q.19-.23.269-.558h1.082a2.17 2.17 0 01-1.218 1.726q-.52.258-1.219.258m6.22 0q-.837 0-1.461-.387a2.6 2.6 0 01-.973-1.082q-.344-.695-.344-1.625 0-.933.344-1.632.348-.7.973-1.086.624-.387 1.461-.387.835 0 1.461.387.624.386.968 1.086.348.699.348 1.632 0 .93-.348 1.625a2.6 2.6 0 01-.968 1.082q-.626.387-1.461.387m.004-.941q.562 0 .929-.297.371-.297.551-.785t.18-1.071q0-.582-.18-1.074a1.8 1.8 0 00-.551-.793q-.367-.3-.929-.301-.57 0-.942.301a1.8 1.8 0 00-.547.793q-.18.492-.179 1.074 0 .582.179 1.071.18.488.547.785.371.297.942.297m7.895-1.66V341h1.106v6h-1.09v-1.035h-.063a1.9 1.9 0 01-.66.797q-.453.316-1.129.316-.574 0-1.016-.254a1.76 1.76 0 01-.695-.758q-.25-.504-.25-1.25V341h1.106v3.695q0 .625.347.996.348.368.899.368.331 0 .664-.164.332-.168.554-.508.227-.344.227-.867m3.808-1.094V347h-1.106v-6h1.063v.969h.074q.212-.477.648-.762.442-.285 1.118-.285.612 0 1.07.254.46.254.715.758.257.504.254 1.25V347h-1.106v-3.695q0-.668-.348-1.043-.343-.375-.949-.375-.414 0-.738.183-.324.18-.512.524-.183.343-.183.832m8.19-2.426v.898h-3.238V341zm-2.351-1.438h1.105v5.688q0 .351.105.527a.54.54 0 00.274.239q.168.062.359.062.145 0 .246-.019l.164-.032.207.93a2 2 0 01-.285.078 2 2 0 01-.457.043 2 2 0 01-.836-.164 1.5 1.5 0 01-.64-.527q-.243-.355-.242-.895zm3.668 7.438v-6h1.106v6zm.559-6.945a.72.72 0 01-.508-.2.63.63 0 01-.211-.476.64.64 0 01.211-.481.73.73 0 01.508-.199q.297 0 .508.199a.64.64 0 01.211.481q0 .278-.211.476a.71.71 0 01-.508.2m3.254 3.371V347h-1.105v-6h1.062v.969h.074q.211-.477.649-.762.44-.285 1.117-.285.613 0 1.07.254.461.254.715.758.258.504.254 1.25V347h-1.106v-3.695q0-.668-.347-1.043-.344-.375-.949-.375-.415 0-.739.183a1.3 1.3 0 00-.511.524q-.184.343-.184.832m7.929 5.949q-.704 0-1.211-.184a2.4 2.4 0 01-.828-.484 2.1 2.1 0 01-.489-.652l.938-.438q.11.169.289.367.184.2.496.34t.813.141q.679 0 1.121-.328.445-.328.445-1.047v-1.188h-.074a3 3 0 01-.301.422 1.6 1.6 0 01-.539.41q-.344.177-.902.176-.715 0-1.286-.336a2.37 2.37 0 01-.902-.992q-.332-.656-.332-1.609 0-.946.324-1.629.328-.688.899-1.055a2.37 2.37 0 011.308-.367q.562 0 .906.187.348.188.54.434.19.246.293.426h.089V341h1.078v6.145q0 .77-.355 1.261a2.07 2.07 0 01-.965.731 3.7 3.7 0 01-1.355.238m-.016-3.398q.516 0 .871-.243.36-.242.543-.691.188-.453.188-1.082a3 3 0 00-.184-1.086 1.57 1.57 0 00-.539-.734q-.355-.266-.879-.266-.543 0-.906.277-.36.277-.543.75-.18.472-.18 1.059 0 .598.184 1.051.183.453.547.711.363.254.898.254m7.803-2.856v.973h-3.539v-.973zm4.229 3.879h-2.558v-8h2.648q1.172 0 2.012.48.84.477 1.289 1.372.449.89.449 2.136 0 1.25-.453 2.149a3.2 3.2 0 01-1.312 1.383q-.856.48-2.075.48m-1.41-1.008h1.344q.933 0 1.551-.351a2.2 2.2 0 00.922-1.028q.308-.671.308-1.625 0-.949-.305-1.613a2.16 2.16 0 00-.902-1.016q-.597-.351-1.488-.351h-1.43zm6.779 1.008v-8h2.895q.848 0 1.402.281.56.281.832.758.274.477.274 1.066 0 .505-.184.844a1.5 1.5 0 01-.488.543 2.1 2.1 0 01-.664.297v.078q.39.024.769.262.38.234.629.668.25.434.25 1.058 0 .61-.285 1.094t-.883.77q-.594.28-1.527.281zm1.149-.992h1.785q.89 0 1.27-.344.382-.343.382-.852 0-.386-.195-.71a1.4 1.4 0 00-.559-.516 1.77 1.77 0 00-.855-.195h-1.828zm0-3.535h1.66q.414 0 .746-.157.336-.159.531-.453.196-.293.196-.687 0-.504-.352-.848t-1.09-.344h-1.691zm9.448.039v.976h-3.539v-.976zm1.8 4.488v-.832l2.691-2.828q.438-.47.727-.82.29-.352.43-.672t.14-.672q0-.406-.191-.699a1.23 1.23 0 00-.52-.457 1.7 1.7 0 00-.742-.161q-.437 0-.762.18-.324.18-.504.504a1.56 1.56 0 00-.175.762h-1.094q0-.727.332-1.27a2.3 2.3 0 01.914-.844q.582-.3 1.313-.3.742 0 1.308.3.57.297.891.809.32.512.32 1.148 0 .442-.164.868-.163.425-.57.945a16 16 0 01-1.125 1.262l-1.641 1.726v.059h3.633V347z"/><path fill="#686E67" d="M166.396 357.25h-.836a1.74 1.74 0 00-.705-1.093 1.9 1.9 0 00-.577-.283 2.3 2.3 0 00-.662-.095q-.627 0-1.136.317-.507.317-.807.935-.297.617-.297 1.514 0 .899.297 1.515.3.618.807.935.509.317 1.136.317.344 0 .662-.095.316-.094.577-.28.262-.189.445-.462.186-.276.26-.634h.836a2.8 2.8 0 01-.344.948 2.58 2.58 0 01-1.454 1.154 3.1 3.1 0 01-.982.151 2.9 2.9 0 01-1.572-.431q-.687-.433-1.083-1.228-.394-.796-.394-1.89 0-1.092.394-1.889.396-.796 1.083-1.228a2.9 2.9 0 011.572-.432q.523 0 .982.152.462.152.833.446.372.29.621.708.25.416.344.948m1.636-2.159 2.051 5.816h.081l2.051-5.816h.877L170.555 362h-.864l-2.536-6.909zm6.136 6.909v-6.909h4.17v.742h-3.333v2.335h3.117v.742h-3.117v2.348h3.387V362zm8.539-3.826v.743h-3.023v-.743zm1.59 3.826v-.607l2.28-2.497q.402-.438.661-.762.26-.327.385-.614.128-.29.128-.607a1.12 1.12 0 00-.648-1.043 1.5 1.5 0 00-.674-.145q-.399 0-.695.165-.294.162-.456.456a1.44 1.44 0 00-.158.688h-.796q0-.607.28-1.066.279-.459.762-.715a2.3 2.3 0 011.09-.257q.606 0 1.076.257.469.256.735.691.267.436.267.969 0 .38-.139.745-.135.362-.472.806-.334.443-.928 1.08l-1.551 1.66v.054h3.211V362zm8.309.094q-.762 0-1.298-.414-.537-.419-.82-1.212-.283-.795-.283-1.923 0-1.12.283-1.912.286-.796.823-1.215.54-.422 1.295-.422.756 0 1.293.422.539.418.823 1.215.286.792.286 1.912 0 1.128-.283 1.923-.283.793-.82 1.212-.535.414-1.299.414m0-.742q.756 0 1.174-.728.419-.729.419-2.079 0-.897-.192-1.528-.19-.63-.547-.961a1.2 1.2 0 00-.854-.331q-.749 0-1.17.739-.422.735-.422 2.081 0 .898.189 1.525.189.628.543.955.358.327.86.327m7.082-6.261V362h-.836v-6.032h-.041l-1.686 1.12v-.85l1.727-1.147zm5.166-.095q.426.005.85.162.425.16.776.527.351.364.564.995.212.63.212 1.582 0 .92-.175 1.636-.172.712-.499 1.201-.325.49-.79.742a2.14 2.14 0 01-1.046.253q-.58 0-1.035-.229a2.04 2.04 0 01-.743-.644 2.25 2.25 0 01-.367-.962h.823q.11.476.442.786.334.307.88.307.8 0 1.262-.698.465-.698.466-1.974h-.054a2.1 2.1 0 01-.449.49 2 2 0 01-1.252.428q-.594 0-1.089-.293a2.2 2.2 0 01-.79-.814 2.4 2.4 0 01-.293-1.187q0-.635.283-1.161a2.2 2.2 0 01.803-.843q.519-.313 1.221-.304m0 .743q-.424 0-.766.212-.336.21-.536.567-.196.354-.196.786t.189.786q.193.351.523.56.335.206.759.206.321 0 .597-.125.278-.128.483-.347.208-.223.327-.503.118-.284.118-.591 0-.403-.196-.759a1.54 1.54 0 00-.533-.573 1.4 1.4 0 00-.769-.219m6.826 2.435v.743h-3.023v-.743zm3.749 3.92q-.763 0-1.299-.414-.537-.419-.82-1.212-.283-.795-.283-1.923 0-1.12.283-1.912.287-.796.823-1.215.54-.422 1.296-.422.755 0 1.292.422.54.418.823 1.215.287.792.287 1.912 0 1.128-.284 1.923-.283.793-.819 1.212-.537.414-1.299.414m0-.742q.756 0 1.174-.728.418-.729.418-2.079 0-.897-.192-1.528-.189-.63-.547-.961a1.2 1.2 0 00-.853-.331q-.75 0-1.171.739-.422.735-.422 2.081 0 .898.189 1.525.189.628.543.955.359.327.861.327m7.082-6.261V362h-.837v-6.032h-.04l-1.687 1.12v-.85l1.727-1.147zm5.22 7.003q-.763 0-1.299-.414-.537-.419-.82-1.212-.283-.795-.283-1.923 0-1.12.283-1.912.286-.796.823-1.215.54-.422 1.296-.422.755 0 1.292.422.539.418.823 1.215.287.792.287 1.912 0 1.128-.284 1.923-.283.793-.82 1.212-.536.414-1.298.414m0-.742q.755 0 1.174-.728.418-.729.418-2.079 0-.897-.192-1.528-.19-.63-.547-.961a1.2 1.2 0 00-.853-.331q-.75 0-1.171.739-.422.735-.422 2.081 0 .898.189 1.525.189.628.543.955.358.327.861.327m7.081-6.261V362h-.836v-6.032h-.041l-1.686 1.12v-.85l1.727-1.147z"/><path fill="#001800" fill-opacity=".125" d="M35 186h2v93h-2zM35 78h2v76h-2zM83 114h2v21h-2zM112 133v2H85v-2zM64 97v2H37v-2zM64 205v2H37v-2zM64 241v2H37v-2zM64 277v2H37v-2zM112 313v2H85v-2zM112 349v2H85v-2zM83 294h2v57h-2zM83 222h2v4h-2zM83 258h2v4h-2zM131 330h2v4h-2z"/><path fill="#F5F7F5" d="M16.5 379a2.5 2.5 0 012.5-2.5h250a2.5 2.5 0 012.5 2.5v18a2.5 2.5 0 01-2.5 2.5H19a2.5 2.5 0 01-2.5-2.5z"/><path stroke="#CCCFCC" d="M16.5 379a2.5 2.5 0 012.5-2.5h250a2.5 2.5 0 012.5 2.5v18a2.5 2.5 0 01-2.5 2.5H19a2.5 2.5 0 01-2.5-2.5z"/><g clip-path="url(#widget-__b)"><path fill="#717A6D" fill-rule="evenodd" d="M98.4 382.4a.4.4 0 01.4-.4h2.4a.4.4 0 110 .8h-.8v.895a5.1 5.1 0 012.393.814 1 1 0 01.053-.063l.8-.8a.5.5 0 01.707.708l-.78.779a5.12 5.12 0 11-3.973-1.438v-.895h-.8a.4.4 0 01-.4-.4m-2.72 6.4a4.32 4.32 0 118.64 0 4.32 4.32 0 01-8.64 0m4.32 0v-3.52a3.52 3.52 0 102.489 6.009z" clip-rule="evenodd"/></g><path fill="#464D45" d="M118.659 386.378h-1.153a1.7 1.7 0 00-.216-.57 1.599 1.599 0 00-.894-.685 2 2 0 00-.607-.087q-.58 0-1.036.29a1.95 1.95 0 00-.712.85q-.26.56-.26 1.369 0 .82.26 1.38.263.56.715.847.453.283 1.029.283.318 0 .601-.084.284-.087.512-.253.23-.169.385-.415.159-.246.223-.563l1.153.003a2.7 2.7 0 01-1.801 2.176q-.492.175-1.086.175-.905 0-1.613-.425a2.97 2.97 0 01-1.117-1.217q-.404-.797-.404-1.907t.408-1.906q.412-.795 1.12-1.217a3.05 3.05 0 011.606-.426q.563 0 1.049.162a2.7 2.7 0 01.87.466q.385.307.635.749.253.442.333 1.005m2.631 4.73a2.1 2.1 0 01-.887-.179 1.46 1.46 0 01-.628-.526q-.23-.351-.229-.86 0-.442.165-.726.169-.287.452-.455.284-.17.634-.253.356-.088.729-.128.46-.054.746-.091.286-.038.418-.119t.132-.259v-.024q0-.408-.24-.634-.236-.226-.691-.226-.48 0-.756.209a1.1 1.1 0 00-.381.479l-1.043-.189q.152-.472.469-.776a2 2 0 01.752-.452q.44-.148.945-.148.343 0 .702.081.36.081.668.276.306.196.496.547.192.351.192.89V391h-1.08v-.708h-.04a1.46 1.46 0 01-.803.698 2 2 0 01-.722.118m.267-.85q.395 0 .678-.155.283-.159.435-.412.155-.256.155-.553v-.641a.6.6 0 01-.202.094 4 4 0 01-.328.074q-.181.031-.357.054l-.3.041a2.5 2.5 0 00-.51.125.85.85 0 00-.364.243.6.6 0 00-.135.408q0 .357.263.54.263.182.665.182m4.785-6.167V391h-1.117v-6.909zm3.528 7.014q-.762 0-1.312-.341a2.3 2.3 0 01-.844-.945q-.293-.604-.293-1.386 0-.793.3-1.397t.847-.945q.55-.34 1.292-.34.61 0 1.086.226.475.222.762.627.29.405.338.948h-1.076a1.13 1.13 0 00-.355-.627q-.276-.257-.738-.257-.399 0-.699.213a1.37 1.37 0 00-.465.6q-.166.388-.166.928 0 .546.166.945.165.394.462.61.3.213.702.213.28 0 .502-.105a1 1 0 00.378-.3 1.14 1.14 0 00.213-.479h1.076a2 2 0 01-.327.938 1.9 1.9 0 01-.749.641q-.47.233-1.1.233m6.518-2.267v-3.02h1.114V391h-1.087v-.911h-.053q-.18.425-.574.702t-.982.276q-.503 0-.89-.222a1.55 1.55 0 01-.604-.661q-.219-.436-.219-1.07v-3.296h1.116v3.141q0 .513.28.816a.96.96 0 00.736.301q.279 0 .546-.135a1.16 1.16 0 00.442-.412q.175-.277.175-.691m3.536-4.747V391h-1.117v-6.909zm2.806 7.017a2.1 2.1 0 01-.887-.179 1.46 1.46 0 01-.628-.526q-.23-.351-.229-.86 0-.442.165-.726.169-.287.452-.455.284-.17.634-.253.355-.088.729-.128.46-.054.746-.091.286-.038.418-.119t.132-.259v-.024q0-.408-.24-.634-.236-.226-.692-.226-.479 0-.755.209a1.1 1.1 0 00-.381.479l-1.043-.189q.152-.472.469-.776.317-.306.752-.452.44-.148.945-.148.344 0 .702.081.36.081.668.276.307.196.496.547.192.351.192.89V391h-1.08v-.708h-.04a1.46 1.46 0 01-.803.698 2 2 0 01-.722.118m.266-.85q.396 0 .679-.155.284-.159.435-.412.155-.256.155-.553v-.641a.6.6 0 01-.202.094 4 4 0 01-.328.074q-.182.031-.357.054l-.301.041a2.6 2.6 0 00-.509.125.85.85 0 00-.364.243.6.6 0 00-.135.408q0 .357.263.54.263.182.664.182m6.176-4.44v.877h-2.905v-.877zm-2.159-1.241h1.116v4.885q0 .265.081.408a.42.42 0 00.213.189q.135.047.293.047.118 0 .21-.017l.145-.027.195.894q-.095.03-.266.068a2 2 0 01-.422.047 1.9 1.9 0 01-.786-.142 1.3 1.3 0 01-.57-.469q-.213-.317-.209-.796zm5.435 6.528q-.772 0-1.332-.328a2.2 2.2 0 01-.86-.927q-.301-.601-.301-1.407 0-.8.301-1.407.303-.608.846-.945.543-.34 1.276-.34.462 0 .88.148t.746.466q.327.314.516.809.192.496.192 1.188v.364h-4.187v-.789h3.104q0-.372-.155-.661a1.17 1.17 0 00-1.083-.631q-.401 0-.702.192a1.33 1.33 0 00-.462.506 1.5 1.5 0 00-.165.682v.651q0 .485.175.83.175.343.489.526.315.179.733.179.28 0 .506-.078.225-.081.388-.236.165-.159.253-.391l1.049.151q-.112.435-.412.763a2 2 0 01-.756.506 2.8 2.8 0 01-1.039.179m5.524-6.043v-.971h5.428v.971h-2.142V391h-1.141v-5.938zM164.45 391v-5.182h1.117V391zm.563-5.948a.67.67 0 01-.475-.185.6.6 0 01-.196-.449.6.6 0 01.196-.445.67.67 0 01.475-.186q.277 0 .473.186a.6.6 0 01.199.445.6.6 0 01-.199.449.66.66 0 01-.473.185m1.858 5.948v-5.182h1.07v.864h.064q.162-.44.529-.685.372-.246.888-.246.523 0 .88.249.361.247.52.682h.054q.178-.426.583-.678.409-.253.972-.253.708 0 1.157.448.449.445.449 1.326V391h-1.117v-3.333q0-.506-.27-.736a.98.98 0 00-.654-.229q-.47 0-.732.29-.26.287-.26.739V391h-1.1v-3.39q0-.412-.253-.658a.9.9 0 00-.654-.25.94.94 0 00-.506.142 1.04 1.04 0 00-.368.394q-.135.254-.135.587V391zm8.461 0v-5.182h1.117V391zm.564-5.948a.67.67 0 01-.476-.185.6.6 0 01-.196-.449q0-.26.196-.445a.67.67 0 01.476-.186q.276 0 .472.186a.59.59 0 01.199.445.6.6 0 01-.199.449.66.66 0 01-.472.185m2.974 2.892V391h-1.116v-5.182h1.069v.864h.064q.179-.426.567-.678t.968-.253q.533 0 .931.226t.618.661q.222.435.222 1.066V391h-1.116v-3.141q0-.543-.28-.847-.28-.306-.773-.307a1.2 1.2 0 00-.597.145 1.03 1.03 0 00-.408.422 1.4 1.4 0 00-.149.672m6.83 5.107q-.637 0-1.096-.169a2 2 0 01-.739-.452 1.7 1.7 0 01-.408-.62l.981-.311q.085.149.233.307.149.159.402.267.252.111.644.111.547 0 .904-.266.357-.263.358-.857v-.999h-.064q-.092.178-.267.381a1.4 1.4 0 01-.472.341q-.297.138-.756.138a2.14 2.14 0 01-1.093-.283 2 2 0 01-.772-.85q-.288-.563-.287-1.4 0-.837.283-1.427.284-.59.773-.901.49-.31 1.103-.31.469 0 .762.158.298.155.469.371.173.213.263.385h.068v-.847h1.096v5.283q0 .665-.314 1.097-.31.43-.85.641t-1.221.212m.003-3.026q.412 0 .699-.196.286-.195.435-.563.152-.37.152-.884 0-.51-.149-.891a1.3 1.3 0 00-.435-.593 1.13 1.13 0 00-.702-.216q-.431 0-.721.222a1.34 1.34 0 00-.436.608 2.5 2.5 0 00-.145.87q0 .492.149.864.149.367.435.573.29.206.718.206m7.675-2.888-1.015.142a.94.94 0 00-.493-.577 1.15 1.15 0 00-.502-.098q-.405 0-.678.179-.27.179-.27.462 0 .243.182.392.182.148.59.246l.857.189q.726.162 1.08.506t.357.897q-.003.48-.28.847a1.8 1.8 0 01-.762.573 2.8 2.8 0 01-1.124.21q-.914 0-1.477-.385a1.6 1.6 0 01-.685-1.09l1.083-.135a.9.9 0 00.361.557q.273.186.712.186.465 0 .745-.193.28-.195.284-.475a.5.5 0 00-.179-.388q-.173-.156-.54-.237l-.877-.192q-.74-.159-1.09-.523-.35-.368-.347-.924a1.3 1.3 0 01.256-.816q.26-.35.722-.544.466-.195 1.07-.195.873 0 1.376.378.506.374.644 1.008"/><defs><clipPath id="widget-__a"><path fill="#fff" d="M16 19h14v14H16z"/></clipPath><clipPath id="widget-__b"><path fill="#fff" d="M94 382h12v12H94z"/></clipPath></defs></svg>