<svg xmlns="http://www.w3.org/2000/svg" width="192" height="352" fill="none" viewBox="0 0 192 352" class="portfolio-widget"><path d="M.5 6A5.5 5.5 0 016 .5h180a5.5 5.5 0 015.5 5.5v340a5.5 5.5 0 01-5.5 5.5H6A5.5 5.5 0 01.5 346z" class="fill-container"/><path d="M.5 6A5.5 5.5 0 016 .5h180a5.5 5.5 0 015.5 5.5v340a5.5 5.5 0 01-5.5 5.5H6A5.5 5.5 0 01.5 346z" class="stroke-divider"/><path d="M17.5 16.5h157a1 1 0 011 1v29a1 1 0 01-1 1h-157a1 1 0 01-1-1v-29a1 1 0 011-1" class="fill-container"/><path d="M17.5 16.5h157a1 1 0 011 1v29a1 1 0 01-1 1h-157a1 1 0 01-1-1v-29a1 1 0 011-1Z" class="stroke-border"/><path d="M29.344 30a1.23 1.23 0 00-.57-.922q-.501-.328-1.227-.328-.531 0-.93.172a1.5 1.5 0 00-.617.473q-.219.3-.219.683 0 .32.153.55.156.227.398.38.242.148.508.246.266.093.488.152l.813.219q.312.082.695.227.387.144.738.394.355.246.586.633.23.386.23.95 0 .647-.34 1.171-.334.523-.984.832-.644.309-1.566.309-.86 0-1.488-.278a2.37 2.37 0 01-.985-.773 2.2 2.2 0 01-.402-1.153h1q.04.454.305.75.27.294.68.438.413.14.89.14.555 0 .996-.18a1.7 1.7 0 00.7-.507q.257-.328.257-.766 0-.398-.223-.648a1.6 1.6 0 00-.585-.406 6 6 0 00-.786-.274l-.984-.28q-.938-.27-1.484-.77-.547-.5-.547-1.309 0-.672.363-1.172.367-.504.984-.781a3.3 3.3 0 011.387-.281q.774 0 1.375.277.602.273.953.75.355.477.375 1.082zm5.03 6.125q-.867 0-1.496-.383a2.57 2.57 0 01-.965-1.078q-.336-.696-.336-1.617 0-.922.336-1.625a2.65 2.65 0 01.945-1.102q.61-.398 1.422-.398.469 0 .926.156.457.157.832.508.376.348.598.922t.222 1.414v.39h-4.625v-.796h3.688q0-.508-.203-.907a1.53 1.53 0 00-.57-.629 1.6 1.6 0 00-.868-.23q-.55 0-.953.273-.398.27-.613.704a2.1 2.1 0 00-.215.93v.53q0 .68.234 1.153.24.468.66.715.423.242.981.242.363 0 .656-.102.297-.105.512-.312a1.4 1.4 0 00.332-.524l.89.25a2 2 0 01-.472.797 2.3 2.3 0 01-.82.532 3 3 0 01-1.098.187m5.652.016q-.57 0-1.035-.215a1.8 1.8 0 01-.738-.63q-.273-.412-.273-1 0-.514.203-.835.202-.325.543-.508.339-.183.75-.273.414-.094.832-.149.546-.07.886-.105.344-.04.5-.13.16-.088.16-.312v-.03q0-.579-.316-.9-.312-.32-.95-.32-.66 0-1.034.29-.375.288-.528.617l-.875-.313q.235-.546.625-.851a2.3 2.3 0 01.86-.43q.468-.125.922-.125.289 0 .664.07.379.067.73.277.356.211.59.637t.234 1.14V36h-.922v-.812h-.046q-.094.195-.313.417-.219.223-.582.38-.363.156-.887.156m.141-.828q.547 0 .922-.215a1.46 1.46 0 00.766-1.27v-.844q-.06.07-.258.13-.196.054-.453.097a20 20 0 01-.883.117q-.36.047-.672.152-.309.102-.5.31-.188.203-.188.554 0 .48.356.726.36.242.91.242m4.292.687v-6h.89v.906h.063q.164-.445.594-.722.43-.278.969-.278.101 0 .253.004.153.004.231.012v.937a3 3 0 00-.215-.035 2 2 0 00-.347-.027q-.438 0-.782.183-.34.18-.539.5-.195.317-.195.723V36zm6.348.125q-.844 0-1.454-.398a2.6 2.6 0 01-.937-1.098q-.328-.7-.328-1.598 0-.914.336-1.613.339-.704.945-1.098.609-.398 1.422-.398.633 0 1.14.234.51.235.833.657.324.42.402.984h-.922a1.43 1.43 0 00-.469-.727q-.36-.32-.968-.32-.54 0-.946.281a1.83 1.83 0 00-.629.785q-.222.503-.222 1.184 0 .696.218 1.21.223.517.625.802.407.285.954.285.36 0 .652-.125.292-.124.496-.36.204-.234.29-.562h.921a2.14 2.14 0 01-1.195 1.629q-.501.246-1.164.246m4.628-3.734V36h-.921v-8h.921v2.938h.079q.21-.465.633-.739.424-.277 1.132-.277.614 0 1.074.246.462.242.715.746.258.5.258 1.273V36h-.922v-3.75q0-.715-.37-1.105-.368-.395-1.02-.395-.453 0-.813.191a1.4 1.4 0 00-.562.559q-.204.368-.204.89M66.779 30v.781h-3.234V30zm-2.265 6v-6.828q0-.515.242-.86a1.5 1.5 0 01.629-.515q.387-.172.816-.172.34 0 .555.055.215.054.32.101l-.265.797a5 5 0 00-.196-.058 1.2 1.2 0 00-.32-.036q-.458 0-.66.23-.2.232-.2.677V36zm5.748.125q-.813 0-1.426-.387a2.63 2.63 0 01-.953-1.082q-.34-.695-.34-1.625 0-.937.34-1.636.344-.7.953-1.086.613-.387 1.426-.387t1.422.387q.612.386.953 1.085.344.7.344 1.637 0 .93-.344 1.625a2.6 2.6 0 01-.953 1.082q-.61.387-1.422.387m0-.828q.617 0 1.015-.316.4-.318.59-.833.192-.515.192-1.117 0-.6-.192-1.12a1.9 1.9 0 00-.59-.84q-.398-.321-1.015-.321t-1.016.32a1.9 1.9 0 00-.59.84q-.19.52-.191 1.121 0 .602.191 1.117.192.516.59.832.398.317 1.016.317m4.126.703v-6h.89v.906h.063q.164-.445.594-.722.43-.278.968-.278.102 0 .254.004t.23.012v.937a3 3 0 00-.214-.035 2 2 0 00-.348-.027q-.437 0-.781.183-.34.18-.54.5-.194.317-.194.723V36zm8.952.14q-.57 0-1.035-.214a1.8 1.8 0 01-.739-.63q-.273-.412-.273-1 0-.514.203-.835.203-.325.543-.508t.75-.273q.414-.094.832-.149.547-.07.887-.105.344-.04.5-.13.16-.088.16-.312v-.03q0-.579-.316-.9-.313-.32-.95-.32-.66 0-1.035.29-.375.288-.527.617l-.875-.313q.234-.546.625-.851a2.3 2.3 0 01.86-.43q.468-.125.921-.125.29 0 .664.07.38.067.73.277.356.211.59.637.235.426.235 1.14V36h-.922v-.812h-.047q-.093.195-.312.417-.219.223-.582.38-.364.156-.887.156m.14-.828q.547 0 .922-.214a1.46 1.46 0 00.766-1.27v-.844q-.06.07-.258.13-.195.054-.453.097a20 20 0 01-.883.117q-.36.047-.672.152-.308.102-.5.31-.187.203-.187.554 0 .48.355.726.36.242.91.242m5.214-2.921V36h-.921v-6h.89v.938h.078q.21-.457.64-.735.43-.28 1.11-.281.61 0 1.067.25.456.246.71.75.255.5.255 1.265V36H91.6v-3.75q0-.706-.368-1.102-.366-.398-1.007-.398-.442 0-.79.191a1.37 1.37 0 00-.542.559q-.2.368-.2.89M97.3 36v-6h.922v6zm.469-7a.66.66 0 01-.465-.184.6.6 0 01-.192-.441.6.6 0 01.192-.441.66.66 0 01.465-.184q.27 0 .46.184.195.184.196.441a.58.58 0 01-.195.441.64.64 0 01-.461.184m4.579 7.125q-.844 0-1.453-.398a2.6 2.6 0 01-.938-1.098q-.328-.7-.328-1.598 0-.914.336-1.613.34-.704.945-1.098.609-.398 1.422-.398.633 0 1.141.234.507.235.832.657.324.42.402.984h-.922a1.42 1.42 0 00-.469-.727q-.359-.32-.968-.32-.54 0-.946.281a1.83 1.83 0 00-.629.785q-.222.503-.222 1.184 0 .696.219 1.21.222.517.625.802.405.285.953.285.359 0 .652-.125a1.35 1.35 0 00.785-.922h.922a2.13 2.13 0 01-1.195 1.629q-.501.246-1.164.246m6.144 0q-.812 0-1.426-.387a2.63 2.63 0 01-.953-1.082q-.34-.695-.34-1.625 0-.937.34-1.636.344-.7.953-1.086.614-.387 1.426-.387.813 0 1.422.387.614.386.953 1.085.344.7.344 1.637 0 .93-.344 1.625a2.6 2.6 0 01-.953 1.082q-.609.387-1.422.387m0-.828q.617 0 1.016-.316.398-.318.59-.833.19-.515.191-1.117 0-.6-.191-1.12a1.9 1.9 0 00-.59-.84q-.398-.321-1.016-.321-.617 0-1.015.32a1.9 1.9 0 00-.59.84q-.192.52-.192 1.121 0 .602.192 1.117.19.516.59.832.398.317 1.015.317m5.048-2.906V36h-.922v-6h.891v.938h.078q.211-.457.641-.735.43-.28 1.109-.281.61 0 1.066.25.457.246.711.75.255.5.254 1.265V36h-.922v-3.75q0-.706-.367-1.102-.368-.398-1.008-.398a1.6 1.6 0 00-.789.191q-.343.192-.543.559t-.199.89m6.185 3.672a.68.68 0 01-.496-.208.67.67 0 01-.208-.496q0-.288.208-.496a.68.68 0 01.496-.207q.288 0 .496.207a.68.68 0 01.207.496.66.66 0 01-.098.352.7.7 0 01-.254.258.67.67 0 01-.351.093m3.029 0a.68.68 0 01-.496-.208.68.68 0 01-.207-.496q0-.288.207-.496a.68.68 0 01.496-.207q.29 0 .496.207a.68.68 0 01.207.496.66.66 0 01-.098.352.7.7 0 01-.254.258.67.67 0 01-.351.093m3.029 0a.68.68 0 01-.496-.208.68.68 0 01-.207-.496q0-.288.207-.496a.68.68 0 01.496-.207q.29 0 .496.207a.68.68 0 01.207.496.732.732 0 01-.351.61.67.67 0 01-.352.093" class="fill-ghost"/><path fill-rule="evenodd" d="M162.667 30.934a3.734 3.734 0 11-7.468-.001 3.734 3.734 0 017.468 0m-.738 3.75a4.8 4.8 0 11.755-.754l3.026 3.027a.532.532 0 11-.754.754z" clip-rule="evenodd" class="fill-hint"/><g clip-path="url(#widget-__a)"><path stroke-width=".5" d="M16.25 58.25h31.5v31.5h-31.5z" class="stroke-divider-subtle"/><path d="m26 68 6 12h2l-6-12z" class="fill-accent"/><path d="M38 68h-9l3 6z" class="fill-ghost"/><path d="M29 68h9v1h-9zM29 69h1v1h-1zM30 70h1v2h-1zM31 72h1v2h-1zM32 73h1v1h-1zM33 72h1v1h-1zM34 71h1v1h-1zM35 70h1v1h-1zM36 69h1v1h-1zM26 68h1v1h-1zM26 69h1v1h-1zM27 70h1v1h-1zM27 71h1v1h-1zM28 72h1v1h-1zM28 73h1v1h-1zM29 74h1v1h-1zM29 75h1v1h-1zM30 76h1v1h-1zM30 77h1v1h-1zM31 78h1v1h-1zM31 79h1v1h-1zM33 79h1v1h-1zM33 78h1v1h-1zM32 77h1v1h-1zM32 76h1v1h-1zM31 75h1v1h-1zM31 74h1v1h-1zM30 73h1v1h-1zM30 72h1v1h-1zM29 71h1v1h-1zM29 70h1v1h-1zM28 69h1v1h-1zM28 68h1v1h-1zM27 68h1v1h-1zM32 79h1v1h-1z" class="fill-accent"/><path stroke-width=".5" d="M48.25 58.25h31.5v31.5h-31.5z" class="stroke-divider-subtle"/><path d="M56 74h1v6h-1zm1 3h8v1h-8zm8-3h1v6h-1zm-8 0h8v1h-8zm0-1h2v1h-2zm2-1h2v1h-2zm2-1h2v1h-2zm1-3h1v3h-1zm1 0h8v1h-8zm7 1h1v6h-1zm-7 1h7v1h-7zm3 5h1v2h-1zm1-1h1v1h-1zm1-1h1v1h-1zm1-1h1v1h-1z" class="fill-accent"/><path d="M63 71h7v1h-7zm-2 1h8v1h-8zm-2 1h9v1h-9zm7 1h1v1h-1z" class="fill-component"/><path d="M57 75h8v2h-8zm6-6h7v1h-7z" class="fill-ghost"/><path stroke-width=".5" d="M80.25 58.25h31.5v31.5h-31.5z" class="stroke-divider-subtle"/><path d="M100 69v-2h-2v2h-4v-2h-2v2h-2v3h12v-3zm-5 8h2v2h-2zm-3-3h2v2h-2zm0 3h2v2h-2zm6 0h2v2h-2zm0-3h2v2h-2zm-3 0h2v2h-2z" class="fill-accent"/><path d="M101 72v8H91v-8h-1v9h12v-9z" class="fill-accent"/><path stroke-width=".5" d="M112.25 58.25h31.5v31.5h-31.5z" class="stroke-divider-subtle"/><path d="M122 79h8v-3h2v3h2v-5h-4v-5h-8zm1-7h2v-2h2v2h2v2h-2v2h-2v-2h-2z" class="fill-ghost"/><path d="M130 79h-8V69h8l.03 5H134v5h-2v1h3v-7h-4v-5h-10v12h9z" class="fill-accent"/><path stroke-width=".5" d="M144.25 58.25h31.5v31.5h-31.5z" class="stroke-divider-subtle"/><path d="M155 69h10v6h-10z" class="fill-component"/><path d="M167 77V67h-14v10h6v1h-4v1h-2v1h14v-1h-2v-1h-4v-1zm-13-1v-8h12v8z" class="fill-accent"/><path stroke-width=".5" d="M16.25 90.25h31.5v31.5h-31.5z" class="stroke-divider-subtle"/><path d="M35 106h-6v2h-1v-1h-1v-1h-1v-1h1v-1h1v-1h1v2h6v-2h1v1h1v1h1v1h-1v1h-1v1h-1z" class="fill-ghost"/><path d="M38 105h1v1h-1zm-2-2h1v1h-1zm1 1h1v1h-1zm0 2h1v1h-1zm-1 1h1v1h-1zm-2 3h1v-1h1v-1h-1v-2h-6v2h-1v1h1v1h1v-3h4zm-9-5h1v1h-1zm2 2h1v1h-1zm-1-1h1v1h-1zm0-2h1v1h-1zm1-1h1v1h-1zm2 2h6v-2h1v-1h-1v-1h-1v3h-4v-3h-1v1h-1v1h1z" class="fill-accent"/><path stroke-width=".5" d="M48.25 90.25h31.5v31.5h-31.5z" class="stroke-divider-subtle"/><path d="M64 103v6h2v1h-1v1h-1v1h-1v-1h-1v-1h-1v-1h2v-6h-2v-1h1v-1h1v-1h1v1h1v1h1v1z" class="fill-ghost"/><path d="M63 99h1v1h-1zm-2 2h1v1h-1zm1-1h1v1h-1zm2 0h1v1h-1zm1 1h1v1h-1zm3 3v-1h-1v-1h-1v1h-2v6h2v1h1v-1h1v-1h-3v-4zm-5 8h1v1h-1zm2-2h1v1h-1zm-1 1h1v1h-1zm-2 0h1v1h-1zm-1-1h1v1h-1zm2-1v-6h-2v-1h-1v1h-1v1h3v4h-3v1h1v1h1v-1z" class="fill-accent"/><path stroke-width=".5" d="M80.25 90.25h31.5v31.5h-31.5z" class="stroke-divider-subtle"/><path d="M102 104v-2h-1v-1h-1v-1h-2v-1h-4v1h-2v1h-1v1h-1v2h-1v4h1v2h1v1h1v1h2v1h4v-1h2v-1h1v-1h1v-2h1v-4z" class="fill-accent"/><path d="M94 102h1v3h-1zm3 0h1v3h-1zm-3 5h4v1h-4zm-1 1h1v1h-1zm5 0h1v1h-1zm1 1h1v1h-1zm-7 0h1v1h-1z" class="fill-component"/><path stroke-width=".5" d="M112.25 90.25h31.5v31.5h-31.5z" class="stroke-divider-subtle"/><path d="m126 100-2 1-1 1-1 2v4l1 2 1 1 2 1h4l2-1 1-1 1-2v-4l-1-2-1-1-2-1z" class="fill-component"/><path d="M121 104h1v4h-1zm1-2h1v2h-1zm1-1h1v1h-1zm1-1h2v1h-2zm2-1h4v1h-4zm4 1h2v1h-2zm2 1h1v1h-1zm1 1h1v2h-1zm1 2h1v4h-1zm-1 4h1v2h-1zm-1 2h1v1h-1zm-2 1h2v1h-2zm-4 1h4v1h-4zm-2-1h2v1h-2zm-1-1h1v1h-1zm-1-2h1v2h-1zm4-6h1v3h-1zm3 0h1v3h-1zm-4 6h6v1h-6z" class="fill-accent"/><path stroke-width=".5" d="M144.25 90.25h31.5v31.5h-31.5z" class="stroke-divider-subtle"/><path d="m158 100-2 1-1 1-1 2v4l1 2 1 1 2 1h4l2-1 1-1 1-2v-4l-1-2-1-1-2-1z" class="fill-component"/><path d="M158 102h1v3h-1zm3 0h1v3h-1zm1 8h-4v-1h4zm1-1h-1v-1h1zm-5 0h-1v-1h1zm-1-1h-1v-1h1zm7 0h-1v-1h1zm-11-4h1v4h-1zm1-2h1v2h-1zm1-1h1v1h-1zm1-1h2v1h-2zm2-1h4v1h-4zm4 1h2v1h-2zm2 1h1v1h-1zm1 1h1v2h-1zm1 2h1v4h-1zm-1 4h1v2h-1zm-1 2h1v1h-1zm-2 1h2v1h-2zm-4 1h4v1h-4zm-2-1h2v1h-2zm-1-1h1v1h-1zm-1-2h1v2h-1z" class="fill-accent"/><path stroke-width=".5" d="M16.25 122.25h31.5v31.5h-31.5z" class="stroke-divider-subtle"/><path d="m31.5 144-6-6v-3l1-2h3l2 2h1l2-2h3l1 2v3l-6 6z" class="fill-ghost"/><path d="M30.5 143h1v1h-1zm-1-1h1v1h-1zm-1-1h1v1h-1zm-1-1h1v1h-1zm-1-1h1v1h-1zm-1-1h1v1h-1zm-1-3h1v3h-1zm1-2h1v2h-1zm5 1h1v1h-1zm-1-1h1v1h-1zm0 0v-1h-3v1h3m2 11h1v1h-1zm1-1h1v1h-1zm1-1h1v1h-1zm1-1h1v1h-1zm1-1h1v1h-1zm1-1h1v1h-1zm1-1h1v1h-1zm1-3h1v3h-1zm-1-2h1v2h-1zm-3-1h3v1h-3zm-1 1h1v1h-1zm-1 1h1v1h-1zm-1 1h1v1h-1z" class="fill-accent"/><path d="M48.25 122.25h31.5v31.5h-31.5z" class="fill-tone"/><path stroke-width=".5" d="M48.25 122.25h31.5v31.5h-31.5z" class="stroke-border-active"/><path d="M59 144h3v1h-3zm12-12v-1h-3v1h-2v2h6v-2z" class="fill-ghost"/><path d="M69 135H58v-1h4v-2h-5v1h-1v3h1v1h11v1h-2v2h3v-1h1v-3h-1z" class="fill-ghost"/><path d="M67 141h-7v-1h2v-2h-3v1h-1v3h1v1h7v2h1v-1h1v-2h-1z" class="fill-ghost"/><path d="M66 130h-4v1h1v3h2v-3h1zm-3 8h2v2h-2zm0 6h2v2h-2zM70 132.5h-1l.5-.5z" class="fill-accent"/><path stroke-width=".5" d="M80.25 122.25h31.5v31.5h-31.5z" class="stroke-divider-subtle"/><path d="M91 130v10h9v6h3v-16zm9 6h-2v2h-2v-2h-2v-2h2v-2h2v2h2z" class="fill-ghost"/><path d="M89 141v5h2v-3h6v3h2v-5z" class="fill-accent"/><path d="M102 130H91v10h1v-9h10v15h1v-16z" class="fill-accent"/><path stroke-width=".5" d="M112.25 122.25h31.5v31.5h-31.5z" class="stroke-divider-subtle"/><path d="M132 133c0-.37-.05-.7-.15-1-.13-.4-.34-.73-.61-1H131v-.21c-.29-.22-.62-.39-1-.51-.59-.19-1.27-.28-2-.28s-1.41.09-2 .28c-.38.12-.71.29-1 .51v.21h-.24c-.28.27-.49.6-.61 1-.1.3-.15.63-.15 1h-1v1h3v2l1-.5v-.5h1l1-.5v-.5h4v-1z" class="fill-ghost"/><path d="M126 138h1v1h-1zm1-1h1v1h-1zm1-1h1v1h-1zm1 0h1v1h-1zm-1 1h1v1h-1zm-1-1h1v1h-1zm-1 1h1v1h-1zm3-2h1v1h-1zM126 142h1v1h-1zm1-1h1v1h-1zm1-1h1v1h-1zm1 0h1v1h-1zm-1 1h1v1h-1zm-1-1h1v1h-1zm-1 1h1v1h-1zm3-2h1v1h-1zM127 144h1v2h-1zm1 0h1v2h-1zm1-1h1v2h-1zM126 134h1v2h-1zm1 0h2v1h-2zm-4-1h10v1h-10zm1-1h1v1h-1zm0-1h1v1h-1zm7 1h1v1h-1zm0-1h1v1h-1zm-6-1h1v2h-1zm5 0h1v2h-1zm-4 0h4v1h-4z" class="fill-accent"/><path d="M126 140h1v1h-1zm2-1h1v1h-1zm1-2h1v1h-1zm0 4h1v1h-1zm-1 2h1v1h-1zm-2 1h1v1h-1z" class="fill-component"/><path stroke-width=".5" d="M144.25 122.25h31.5v31.5h-31.5z" class="stroke-divider-subtle"/><path d="M157 137v5h1l1 1h3l1-1h1v-5z" class="fill-component"/><path d="M161 133v-2h-6v14h1v-13h4v1h-3v9h1v-1h2v-1h-2v-1h2v-1h-2v-1h2v-1h-2v-2h5v8h1v-9z" class="fill-accent"/><path d="M159 143h3v1h-3zm3-1h1v1h-1zm-4 0h1v1h-1z" class="fill-accent"/><path stroke-width=".5" d="M16.25 154.25h31.5v31.5h-31.5z" class="stroke-divider-subtle"/><path d="M27 172h1v1h-1zm1 1h1v1h-1zm1-1h1v1h-1zm-1-1h1v1h-1zm2 0h1v1h-1zm-1-1h1v1h-1zm-3 3h2v2h-2z" class="fill-ghost"/><path d="M25 174h2v2h-2z" class="fill-ghost"/><path d="M31 169h1v1h-1zm1-1h1v1h-1zm1-1h1v1h-1zm1-1h1v1h-1zm1-1h1v1h-1zm1-1h1v1h-1zm1 0h1v1h-1zm0-1h1v1h-1zm1 0h1v8h-1zm-8-1h9v1h-9zM24 174h1v1h-1zm2 2h1v1h-1zm1-1h1v1h-1zm1-1h1v1h-1zm1-1h1v1h-1zm1-1h1v1h-1zm1-1h1v1h-1zm-1-1h1v1h-1zm-1-1h1v1h-1zm-1 1h1v1h-1zm-1 1h1v1h-1zm-1 1h1v1h-1zm-1 1h1v1h-1zm0 2h1v1h-1z" class="fill-accent"/><path d="M37 164h1v2h-1zm-1 2h1v2h-1zm-1 2h1v1h-1zm-2-4h2v1h-2zm-1 1h1v1h-1zm3-2h2v1h-2zm-5-1h1v1h-1zm8 8h1v1h-1z" class="fill-ghost"/><path d="M35 169h1v1h-1zm-4-4h1v1h-1zm7 6h1v1h-1zm-9-9h1v1h-1z" class="fill-component"/><path stroke-width=".5" d="M48.25 154.25h31.5v31.5h-31.5z" class="stroke-divider-subtle"/><path d="M68.01 172.15c-.2-1.21-.43-1.93-.71-2.61s-.55-.91-.93-1.15c-.31-.19-1.13-.34-1.45-.39l.59-2.18c.01-.04-.01-.09-.06-.1l-.83-.22.52-1.83c.01-.01-.03-.01-.03-.04-.13-.47-.68-.69-1.51-.53-.03 0-.04 0-.04.01l-.65 1.92-.97-.26c-.05-.01-.09.01-.1.05l-1.85 6.9c-.01.04.03.06.06.1 1.18 1.05 2.34 1.08 3.51.94.05 0 .09-.01.1-.05l.76-2.83c.12.01.25.05.38.15.46.33.65.99.83 2.06.09.58.12 1.34.12 1.91H59v1s.4.05 1 .17V177h8s.2-3.64.01-4.85" class="fill-ghost"/><path d="M64 166h1v2h-1zm-3-1h1v3h-1zm-1 3h1v3h-1zm-1 3h1v1h-1zm1 1h3v1h-3zm2-8h1v1h-1zm3 0h1v2h-1zm-2-1h2v1h-2zm0 8h1v1h-1zm1-1h1v1h-1zm1-2h2v1h-2zm2 1h1v2h-1zm1 2v5h-8v1h9v-6z" class="fill-accent"/><path d="M58 174v1h1v1h1v-1h5v-1zm7-3h1v3h-1z" class="fill-accent"/><path stroke-width=".5" d="M80.25 154.25h31.5v31.5h-31.5z" class="stroke-divider-subtle"/><path d="m90.5 173 1-1.05-3-2.95 3-1 1 2 1 1v1l-1 1-1 1h-1zm7-5v-2H94l.5 2 1 2 .5 3 .5-3zm4 5-1-1.05 3-2.95-3-1-1 2-1 1v1l1 1 1 1h1z" class="fill-ghost"/><path d="M92.5 170h1v1h-1zm1 1h1v1h-1zm-1 1h1v1h-1zm1 3v-1h-1v-1h-1v1h-1v1h2v1h2v-1zm-3-6h1v1h1v-2h-4v2h1v-1zm-1 1h1v1h-1zm2 2v-1h-1v2h1zm-2 1h1v1h-1zm7-5h1v2h-1zm-1 3v2h1v-3h-1zm0-3h-1v2h1zm0-2v-1h-1v-1h-1v4h1v-2zm0 0h1v1h-1zm2-2v1h-1v1h1v2h1v-4zm1 6h1v1h-1zm-1 1h1v1h-1zm1 1h1v1h-1zm0 3v-1h1v-1h1v1h1v1h-2v1h-2v-1zm3-6h-1v1h-1v-2h4v2h-1v-1zm0 1h1v1h-1zm-1 2v-1h1v2h-1zm1 1h1v1h-1z" class="fill-accent"/><path stroke-width=".5" d="M112.25 154.25h31.5v31.5h-31.5z" class="stroke-divider-subtle"/><path d="M127 164h2v2h-2zm5 2h1v1h-1zm-9 0h1v1h-1zm3 3v4h1v3h2v-3h1v-4zm-2 5v-4h-2v4h1v1h2v-1zm10 0v-4h-2v4h-1v1h2v-1z" class="fill-ghost"/><path d="M127 163h2v1h-2zm0 3h2v1h-2zm-1 2h4v1h-4zm4 1h1v4h-1zm-1 4v3h-2v-3h-1v4h4v-4zm-7-4h2v1h-2zm1 6v-1h-1v2h3v-1zm9-6h2v1h-2zm1 5v1h-2v1h3v-2zm1-4h1v4h-1zm-2-3h1v1h-1zm-1-1h1v1h-1zm2 0h1v1h-1zm-1-1h1v1h-1zm-9 2h1v1h-1zm-1-1h1v1h-1zm2 0h1v1h-1z" class="fill-accent"/><path d="M122 166h1v1h-1zm1-1h1v1h-1zm3-1h1v2h-1zm3 0h1v2h-1zm-8 6h1v4h-1zm4-1h1v4h-1z" class="fill-accent"/><path stroke-width=".5" d="M144.25 154.25h31.5v31.5h-31.5z" class="stroke-divider-subtle"/><path d="M154 163h1v2h-1zm-1 2h1v4h-1zm3 3h2v1h-2zm0 1h1v1h-1zm0 1h1v1h-1zm0 1h2v1h-2zm1 1h2v1h-2zm1 1h2v1h-2zm1 1h3v1h-3zm5 0h1v1h-1zm1 1h1v1h-1zm1 1h1v1h-1zm-1 0h1v1h-1zm-4-3h1v1h-1zm1 0h2v1h-2zm0-1h1v1h-1zm-9-3h1v1h-1zm0 1h1v1h-1zm0 1h2v1h-2zm1 1h1v1h-1zm0 1h2v1h-2zm4 3h1v1h-1zm6 1h1v1h-1zm-5 0h5v1h-5zm-4-3h1v1h-1zm1 0h1v2h-1zm1 1h1v2h-1zm0-8h2v1h-2zm1-2h1v1h-1zm-1-2h1v1h-1zm1 1h1v1h-1zm-3-2h2v1h-2zm4 3h1v2h-1zm-4-2h1v1h-1z" class="fill-accent"/><path d="M156 163h1v5h-1zm1 1h1v3h-1zm1 2h1v1h-1zm-3-2h1v9h-1zm-1 1h1v6h-1zm2 7h1v2h-1zm1 1h1v2h-1zm1 1h1v2h-1zm1 1h6v2h-6zm3-1h2v1h-2z" class="fill-ghost"/><path stroke-width=".5" d="M16.25 186.25h31.5v31.5h-31.5z" class="stroke-divider-subtle"/><path d="M31 198v-1h1v4h1v-3h2v-2h-7v2h2v3h1zm-2 3h1v1h-1zm4 0h1v1h-1zm2 2v-1h-1v1h-5v-1h-1v1h-1v1h4v4h1v-4h4v-1z" class="fill-accent"/><path d="M33 202v-1h-1v-4h-1v4h-1v1h-1v1h5v-1z" class="fill-ghost"/><path stroke-width=".5" d="M48.25 186.25h31.5v31.5h-31.5z" class="stroke-divider-subtle"/><path d="m63.5 208-6-6v-3l1-2h3l2 2h1l2-2h3l1 2v3l-6 6z" class="fill-ghost"/><path d="M59.5 202h-2v1h3v-1zm10 0h-1v1h2v-1zm-3-3h1v2h-1zm-6 4h1v1h-1zm7-2h1v1h-1zm-2 0h1v2h-1zm-1 2h1v1h-1zm-1-1h1v1h-1zm-1-1h1v1h-1zm-1 1h1v1h-1z" class="fill-component"/><path d="M62.5 207h1v1h-1zm-1-1h1v1h-1zm-1-1h1v1h-1zm-1-1h1v1h-1zm-1-1h1v1h-1zm-1-1h1v1h-1zm-1-3h1v3h-1zm1-2h1v2h-1zm5 1h1v1h-1zm-1-1h1v1h-1zm0 0v-1h-3v1h3m2 11h1v1h-1zm1-1h1v1h-1zm1-1h1v1h-1zm1-1h1v1h-1zm1-1h1v1h-1zm1-1h1v1h-1zm1-1h1v1h-1zm1-3h1v3h-1zm-1-2h1v2h-1zm-3-1h3v1h-3zm-1 1h1v1h-1zm-1 1h1v1h-1zm-1 1h1v1h-1z" class="fill-accent"/><path stroke-width=".5" d="M80.25 186.25h31.5v31.5h-31.5z" class="stroke-divider-subtle"/><path d="M89 203v4h3v-1h1v-8h-2v1h-1v2h-.5v2h-1m10.5-5h2v1h1v2h.5v2h.5v4h-3v-1h-1z" class="fill-ghost"/><path d="M95 195h2v8h-2zm-4 2h2v1h-2zm2 1h1v8h-1zm-1 8h1v1h-1zm-3 1h3v1h-3zm-1-4h1v4h-1zm2-5h1v1h-1zm8 0h1v8h-1zm1-1h2v1h-2zm0 9h1v1h-1zm1 1h3v1h-3zm3-4h1v4h-1zm-2-5h1v1h-1zm-12 1h1v4h-1z" class="fill-accent"/><path d="M90 198h1v2h-1zm-2 4h1v1h-1zm15 0h1v1h-1zm-1-2h1v3h-1zm-1-1h1v1h-1zm1 0h1v1h-1z" class="fill-accent"/><path stroke-width=".5" d="M112.25 186.25h31.5v31.5h-31.5z" class="stroke-divider-subtle"/><path d="M129 196h-2l-2 2-1 4-2 2 1 1h10v-2l-1-1-1-4z" class="fill-component"/><path d="M125 199v-1h-1v4h1zm0-2h1v1h-1zm1-1h1v1h-1zm-3 6h1v1h-1zm10 1v2h-10v-2h-1v3h12v-3zm-1-1h1v1h-1zm-1 0h1v-4h-1v4m-1-5h1v1h-1zm-1-1h1v1h-1zm-2-1h2v1h-2zm-1 13h1v1h2v-1h1v-1h-4z" class="fill-accent"/><path stroke-width=".5" d="M144.25 186.25h31.5v31.5h-31.5z" class="stroke-divider-subtle"/><path d="M164 196h-1l-7 7v2l1 1 1 1h1l7-7v-2z" class="fill-component"/><path d="M161 197h1v1h-1zm1-1h1v1h-1zm2 0h1v1h-1zm1 1h1v1h-1zm1 1v2h1v-2zm-1 2h1v1h-1zm-2-5h1v1h-1zm-3 10h1v1h-1zm-1 1h1v1h-1zm-1 1h1v1h-1zm-2-5h1v1h-1zm0 1h-1v2h1v-2m0 2h1v1h-1zm1 1h1v1h-1zm6-5v-1h-1v-1h-1v-1h-1v1h-1v1h-1v1h-1v1h2v1h1v1h1v1h1v-1h1v-1h1v-1h1v-1h-2M158 195v1h-1v1h-1v-1h-1v-1h-2v1h1v2h1v1h-1v1h-1v1h3v-1h1v-1h1v-1h1v-3z" class="fill-accent"/><path stroke-width=".5" d="M16.25 218.25h31.5v31.5h-31.5z" class="stroke-divider-subtle"/><path d="M38 232v4h-1v2h-1v1h-2v1h-4v-1h-2v-1h-1v-2h-1v-4h1v-2h1v-1h2v-1h4v1h2v1h1v2z" class="fill-component"/><path d="M32 234h-3v1h4v-5h-1zm-7-2h1v4h-1zm2-1v-1h-1v2h1zm0-2h1v1h-1zm3 0v-1h-2v1h2m0-2h4v1h-4zm4 1h2v1h-2zm2 1h1v1h-1zm1 1h1v2h-1zm1 2h1v4h-1zm-1 4h1v2h-1zm-1 2h1v1h-1zm-2 1h2v1h-2zm-4 1h4v1h-4zm-2-1h2v1h-2zm-1-1h1v1h-1zm-1-2h1v2h-1z" class="fill-accent"/><path stroke-width=".5" d="M48.25 218.25h31.5v31.5h-31.5z" class="stroke-divider-subtle"/><path d="M57 232v4h1v4h4v-4h1v-4zm2-4h2v2h-2z" class="fill-ghost"/><path d="M59 227h2v1h-2zm2 1h1v2h-1zm-2 2h2v1h-2zm-1-2h1v2h-1zm4 4h-5v4h1v-3h4v3h1v-4zm-1 7h-2v-3h-1v4h4v-4h-1z" class="fill-accent"/><path d="M65 232v4h1v4h4v-4h1v-4zm2-4h2v2h-2z" class="fill-ghost"/><path d="M67 227h2v1h-2zm2 1h1v2h-1zm-2 2h2v1h-2zm-1-2h1v2h-1zm4 4h-5v4h1v-3h4v3h1v-4zm-1 7h-2v-3h-1v4h4v-4h-1z" class="fill-accent"/><path stroke-width=".5" d="M80.25 218.25h31.5v31.5h-31.5z" class="stroke-divider-subtle"/><path d="M100.03 228 97 231v2l1 1h2l3-2.92.03-3.08z" class="fill-ghost"/><path d="M99.03 228h.98v1h-.98zM98 229h1v1h-1zm-1 1h1v1h-1zm0 1h-1v2h1v-2m0 2h1v1h-1zm1 1v1h2v-1h-2m2-1h1v1h-1zm2-2h1v1h-1zm-1 1h1v1h-1zm-6 7h8v1h-8z" class="fill-accent"/><path d="m97 235-2-2-7 7h2l2-1h1z" class="fill-ghost"/><path d="M96 234v-1h-2v1h1v1h1v1h1v-2zm-3 0h1v1h-1zm-1 1h1v1h-1zm-1 1h1v1h-1zm-1 1h1v1h-1zm0 2v-1h-1v1h-1v1h4v-1h-2m2-1v1h2v-1h-2m2-1h1v1h-1zm1-1h1v1h-1z" class="fill-accent"/><path stroke-width=".5" d="M112.25 218.25h31.5v31.5h-31.5z" class="stroke-divider-subtle"/><path d="M131.96 233v3H131v1h-1v-1h-1v-2h1v-1zm-4.96 7v1h-3v-1h-1v-3h1v1h1v1h1v1z" class="fill-ghost"/><path d="M131.96 229v3H130v1h-1v1h-1v2h1v1h1v1h-1v1h-1v1h-1v-1h-1v-1h-1v-1h-1v-1h1v-1h1v-1h1v-1h1v-4zm-3.96-2h3.96v1H128z" class="fill-component"/><path d="M127.5 228h5v1h-5z" class="fill-accent"/><path d="M131.96 226H133v10h-1.04z" class="fill-accent"/><path d="M127 226h6v1h-6zm4 10h1v1h-1zm-1 1h1v1h-1zm-1 1h1v1h-1zm-1 1h1v1h-1zm-1 1h1v1h-1zm-3 1h3v1h-3zm3-14h1v6h-1zm-1 6h1v1h-1zm-1 1h1v1h-1zm-1 1h1v1h-1zm-1 1h1v1h-1zm-1 1h1v3h-1zm1 3h1v1h-1zm1-3h1v1h-1zm1 1h1v1h-1zm1 1h1v1h-1zm4-7h2v1h-2zm-1 4h1v1h-1zm-1-2h1v2h-1zm1-1h1v1h-1zm-1-5h4v1h-4z" class="fill-accent"/><path stroke-width=".5" d="M144.25 218.25h31.5v31.5h-31.5z" class="stroke-divider-subtle"/><path d="m164.5 240.5-.5-.33V240h-.25l-.75-.5v-.5h-.75l-1.25-.83V238h-.25l-.75-.5-.75.5H159v.17l-1.25.83H157v.5l-.75.5H156v.17l-.5.33 1.4-3.5h.1v-.25l.5-1.25-.5-.37V235h-.17l-.83-.62-2.5-1.88h5l1.5-5 1.5 5h5l-2.5 1.88-.83.62H163v.13l-.5.37.5 1.25v.25h.1z" class="fill-ghost"/><path d="M164 233h1v1h-1zm-9 0h1v1h-1z" class="fill-ghost"/><path d="M159 227h1v1h-1zm0 1h1v1h-1zm0 1h1v1h-1zm0 1h1v1h-1zm1-3h1v1h-1zm0 1h1v1h-1zm0 1h1v1h-1zm0 1h1v1h-1zm5 3h1v1h-1zm-2 1h1v1h-1zm1 0h1v1h-1zm-3-4h1v2h-1zm0 2h6v1h-6zm-3-2h1v2h-1zm-4 3h1v1h-1zm1 1h1v1h-1zm1 0h1v1h-1zm1 1h1v1h-1zm0 1h1v1h-1zm-1 1h1v2h-1zm-1 2h1v2h-1zm-1 1h1v1h-1zm10 0h2v1h-2zm-8-1h1v1h-1zm7 0h1v1h-1zm0-2h1v2h-1zm1 2h1v1h-1zm-7-1h2v1h-2zm4 0h2v1h-2zm1-3h1v2h-1zm-3 2h2v1h-2zm-6-5h6v1h-6z" class="fill-accent"/><path stroke-width=".5" d="M16.25 250.25h31.5v31.5h-31.5z" class="stroke-divider-subtle"/><path d="m32 260-1 2-1 2-1 2-1 2v1h1l6-6v-3zm2 2v1h-2v-1h1v-1h1z" class="fill-ghost"/><path d="M35 260v-1h-3v1h3m0 0v3h1v-3zm-1 3h1v1h-1zm-1 1h1v1h-1zm-1 1h1v1h-1zm-1 1h1v1h-1zm-1 1h1v1h-1zm-1 1h1v1h-1zm-1 0h-1v2h-1v2h1v-1h1v-1h1v-1h-1zm1-1v-1h-1v2h1zm1-2v-1h-1v2h1zm1-2v-1h-1v2h1zm1-2v-1h-1v2h1z" class="fill-accent"/><path d="M37 267v-1h-1v-1h-1v-2h-1v-1h-1v2h1v2h1v1h1v1h1v2h-1v1h-2v1h-2v1h3v-1h2v-1h1v-4z" class="fill-accent"/><path stroke-width=".5" d="M48.25 250.25h31.5v31.5h-31.5z" class="stroke-divider-subtle"/><path d="M65 260h-2l-2 2-1 4-2 2 1 1h10v-2l-1-1-1-4z" class="fill-ghost"/><path d="M61 263v-1h-1v4h1zm0-2h1v1h-1zm1-1h1v1h-1zm-3 6h1v1h-1zm10 1v2H59v-2h-1v3h12v-3zm-1-1h1v1h-1zm-1 0h1v-4h-1v4m-1-5h1v1h-1zm-1-1h1v1h-1zm-2-1h2v1h-2zm-1 13h1v1h2v-1h1v-1h-4zM57 258h1v1h-1zm-1 1h1v1h-1zm1 2h1v1h-1zm1-1h1v1h-1zm1-1h1v1h-1zm11-1h1v1h-1zm1 1h1v1h-1zm-1 2h1v1h-1zm-1-1h1v1h-1zm-1-1h1v1h-1z" class="fill-accent"/><path stroke-width=".5" d="M80.25 250.25h31.5v31.5h-31.5z" class="stroke-divider-subtle"/><path d="M90 269h1v1h-1zm1-1h2v1h-2zm1 1h1v1h-1zm-1 1h1v1h-1zm2-3h1v1h-1zm1-1h1v1h-1zm1-1h1v1h-1z" class="fill-ghost"/><path d="M90 271h1v1h-1zm1 0h1v1h-1zm1 0h1v1h-1zm1-3h1v3h-1zm-4 0h1v3h-1zm1-1h3v1h-3zm3-1h1v1h-1zm1 1h1v1h-1zm0-2h1v1h-1zm1 1h1v1h-1zm-1-6h1v4h-1zm1-1h2v1h-2zm2 1h1v2h-1zm-1 2h1v2h-1zm-1 2h1v1h-1zm1 1h1v1h-1zm1-1h2v1h-2zm2-1h2v1h-2zm2 1h1v2h-1zm-4 2h4v1h-4zm-7 2h1v1h-1zm2 2h1v1h-1zm3-7h1v1h-1zm2 2h1v1h-1z" class="fill-accent"/><path stroke-width=".5" d="M112.25 250.25h31.5v31.5h-31.5z" class="stroke-divider-subtle"/><path d="m130 265 2 2h1v-2l-3-3h-1v-3h-2v3h-1l-3 3v2h1l3-3v4h-1l-3 2.93V273h1l4-4 2 2 2 2h1v-2l-2-2-2-2v-3z" class="fill-ghost"/><path d="M123 271h-1v3h2v-1h-1zm0-1h1v1h-1zm1-1h1v1h-1zm1-1h1v1h-1zm2-4h-1v1h-1v1h1v2h1zm-3 2h1v1h-1zm-1 1h1v1h-1zm-1-2h1v2h-1zm1-1h1v1h-1zm1-1h1v1h-1zm1-1h1v1h-1zm1-3h1v3h-1zm-1 12h1v1h-1zm-1 1h1v1h-1zm2-2h1v1h-1zm2-1v-1h-1v2h2v-1zm1 1h1v1h-1zm1 1h1v1h-1zm2 2h1v1h-1zm-1-1h1v1h-1zm2-1h1v2h-1zm-1-1h1v1h-1zm-1-1h1v1h-1zm-1-1h1v1h-1zm0-3v-1h-1v4h1v-2h1v-1zm1 1h1v1h-1zm1 1h1v1h-1zm1-2h1v2h-1zm-1-1h1v1h-1zm-1-1h1v1h-1zm-3-2h1v1h-1zm1 1h2v1h-2zm-2-4h2v1h-2zm2 1h1v2h-1z" class="fill-accent"/><path stroke-width=".5" d="M144.25 250.25h31.5v31.5h-31.5z" class="stroke-divider-subtle"/><path d="M153 258h14v16h-14z" class="fill-accent"/><path d="M154 260h1v2h-1zm1-1h1v2h-1zm9 0h1v2h-1zm1 1h1v2h-1zm-8-1h1v1h-1zm0 1h6v1h-6zm5-1h1v1h-1zm-3 0h2v1h-2zm-3 2h1v1h-1zm1 1h6v1h-6zm6-1h1v1h-1zm-7 2h1v1h-1zm1 1h6v1h-6zm6-1h1v1h-1zm-7 2h1v1h-1zm7 0h1v1h-1zm-6 1h1v1h-1zm1 0h4v1h-4zm-1 2h6v1h-6zm5-2h1v1h-1z" class="fill-component"/><path d="M159 261h2v8h-2zm3 8h1v1h-1zm1 0h1v2h-1zm-6 0h1v1h-1zm-1 0h1v2h-1zm1 1h1v2h-1zm0 2h1v1h-1zm1 0h1v1h-1zm3 0h1v1h-1zm1-1h1v2h-1zm-3-1h1v2h-1zm1 0h1v2h-1zm4 0h1v3h-1zm-9 0h1v3h-1z" class="fill-component"/><path d="M158 270h5v1h-5z" class="fill-component"/></g><path d="M19 58.5h154a2.5 2.5 0 012.5 2.5v218a2.5 2.5 0 01-2.5 2.5H19a2.5 2.5 0 01-2.5-2.5V61a2.5 2.5 0 012.5-2.5Z" class="stroke-divider-subtle"/><path d="M16.809 304v-8h2.968q.918 0 1.543.32t.942.895q.32.575.32 1.332t-.32 1.32-.95.871q-.629.305-1.554.305h-2.145v-1.156h1.973q.551 0 .898-.157.352-.156.516-.453.168-.3.168-.73a1.5 1.5 0 00-.168-.742 1.1 1.1 0 00-.52-.473q-.351-.168-.906-.168H18.2V304zm4.09-3.621 1.98 3.621H21.32l-1.941-3.621zm5.495 3.742q-.872 0-1.512-.387a2.63 2.63 0 01-.992-1.086q-.352-.694-.352-1.621 0-.933.352-1.632.351-.7.992-1.086.64-.387 1.512-.387.87 0 1.511.387.64.386.992 1.086.352.699.352 1.632 0 .927-.351 1.621a2.63 2.63 0 01-.993 1.086q-.64.387-1.511.387m.004-1.098q.5 0 .828-.269.327-.27.488-.723.165-.457.164-1.011 0-.556-.164-1.012a1.6 1.6 0 00-.488-.727q-.33-.273-.828-.273-.5 0-.833.273-.33.27-.496.727-.16.456-.16 1.012 0 .554.16 1.011.165.453.496.723.334.27.832.269m6.303 1.086q-.71 0-1.273-.363-.562-.367-.887-1.059-.32-.695-.32-1.675 0-.996.328-1.684.328-.692.89-1.047.567-.359 1.266-.359.54 0 .879.18.34.18.535.429.199.246.305.453h.062V296h1.352v8H34.51v-.945h-.086a2.6 2.6 0 01-.313.461 1.7 1.7 0 01-.546.421q-.34.172-.864.172m.36-1.117q.464 0 .789-.25.324-.25.492-.699.171-.45.172-1.043 0-.594-.168-1.031a1.5 1.5 0 00-.492-.684 1.27 1.27 0 00-.794-.246q-.483 0-.812.254a1.53 1.53 0 00-.488.699q-.165.441-.164 1.008 0 .57.168 1.023.168.45.492.711.324.258.804.258m9.704 1.129q-.871 0-1.512-.387a2.63 2.63 0 01-.992-1.086q-.352-.694-.352-1.621 0-.933.352-1.632.351-.7.992-1.086.64-.387 1.512-.387.87 0 1.511.387.64.386.993 1.086.351.699.351 1.632 0 .927-.351 1.621a2.63 2.63 0 01-.993 1.086q-.64.387-1.511.387m.004-1.098q.5 0 .828-.269.327-.27.488-.723.165-.457.164-1.011 0-.556-.164-1.012a1.6 1.6 0 00-.488-.727q-.33-.273-.828-.273-.5 0-.832.273-.333.27-.497.727-.16.456-.16 1.012 0 .554.16 1.011.165.453.497.723.33.27.832.269M49.834 298v1.055h-3.508V298zm-2.61 6v-6.598q0-.593.25-.988t.669-.59q.42-.2.933-.199.363 0 .637.059.278.054.414.101l-.285 1.063a3 3 0 00-.223-.059 1.3 1.3 0 00-.3-.031q-.407 0-.575.195-.168.196-.168.559V304zm7.533 0h-1.48l2.835-8H57.8l2.832 8h-1.48l-2.165-6.406h-.062zm.09-3.137h4.203v1.129h-4.203zm11.391-1.304-1.234.152a1.1 1.1 0 00-.192-.375 1 1 0 00-.367-.285 1.3 1.3 0 00-.566-.11q-.457 0-.766.2-.304.199-.304.519 0 .27.203.438.207.168.672.277l1.004.219q.847.187 1.261.586t.414 1.039q0 .559-.324.988t-.895.672q-.57.242-1.316.242-1.079 0-1.742-.457a1.86 1.86 0 01-.797-1.277l1.32-.141a.98.98 0 00.407.625q.312.211.808.211.524 0 .836-.215.317-.214.32-.531a.56.56 0 00-.203-.434q-.199-.175-.617-.265l-1.023-.219q-.855-.184-1.266-.609-.41-.426-.41-1.075 0-.55.3-.957.305-.405.848-.629.543-.226 1.254-.226 1.032 0 1.625.445a1.9 1.9 0 01.75 1.192m3.92 4.562q-.891 0-1.532-.394a2.65 2.65 0 01-.98-1.094q-.345-.699-.344-1.606 0-.918.347-1.617.352-.7.989-1.094.641-.394 1.507-.394.723 0 1.278.265.559.262.89.739.337.476.391 1.117h-1.3a1.3 1.3 0 00-.4-.727q-.316-.293-.835-.293-.45 0-.785.239a1.55 1.55 0 00-.524.683q-.187.442-.187 1.055 0 .625.183 1.074.184.45.52.692.34.242.793.242.316 0 .57-.121.254-.122.426-.348.176-.23.238-.551h1.301a2.3 2.3 0 01-.379 1.106q-.32.48-.875.754-.55.273-1.293.273M75.241 296v8h-1.355v-8zm4.125 8.121q-.902 0-1.555-.379a2.57 2.57 0 01-1-1.074q-.347-.696-.347-1.633 0-.926.351-1.625.352-.703.985-1.094.633-.394 1.488-.394.543 0 1.031.176.493.175.871.543.38.366.598.941.219.57.219 1.367v.43h-4.883v-.934h3.578q0-.421-.176-.75a1.3 1.3 0 00-.492-.515 1.4 1.4 0 00-.73-.188q-.45 0-.79.215a1.47 1.47 0 00-.519.566 1.64 1.64 0 00-.187.762v.793q0 .543.195.93t.547.59q.355.203.832.203.312 0 .57-.09.259-.09.441-.266.187-.18.286-.441l1.27.164a2.06 2.06 0 01-.477.894 2.35 2.35 0 01-.883.598 3.3 3.3 0 01-1.223.211m3.855 2.129V298h1.328v.984h.09q.105-.207.3-.453.2-.25.54-.429.34-.18.878-.18.7 0 1.262.359.567.356.895 1.047.328.688.328 1.684 0 .98-.324 1.675-.325.692-.887 1.059a2.3 2.3 0 01-1.27.363q-.523 0-.867-.172a1.7 1.7 0 01-.543-.421 2.6 2.6 0 01-.312-.461h-.063v3.195zM84.55 301q0 .594.168 1.043.172.45.496.699.324.25.789.25.477 0 .8-.258.33-.261.497-.711.168-.453.168-1.023 0-.567-.168-1.008a1.54 1.54 0 00-.489-.699q-.324-.254-.808-.254-.472 0-.797.246a1.5 1.5 0 00-.488.684A2.9 2.9 0 0084.55 301m5.525 3v-6h1.356v6zm.684-6.867a.8.8 0 01-.563-.219.71.71 0 01-.234-.535q0-.31.234-.527a.79.79 0 01.563-.223q.328 0 .562.223a.7.7 0 01.235.527.71.71 0 01-.235.535.8.8 0 01-.562.219m5.972 4.355V298h1.356v6H96.77v-1.059h-.062q-.207.496-.668.817-.458.32-1.137.32-.585 0-1.035-.262a1.8 1.8 0 01-.703-.765q-.25-.504-.254-1.235V298h1.356v3.617q0 .582.316.926.32.344.836.344.32 0 .621-.153.3-.156.496-.464.2-.313.195-.782m7.513-1.929-1.234.152a1.1 1.1 0 00-.192-.375 1 1 0 00-.367-.285 1.3 1.3 0 00-.566-.11q-.457 0-.766.2-.305.199-.305.519 0 .27.204.438.207.168.671.277l1.004.219q.848.187 1.262.586t.414 1.039q0 .559-.324.988a2.14 2.14 0 01-.895.672q-.57.242-1.316.242-1.078 0-1.742-.457a1.86 1.86 0 01-.797-1.277l1.32-.141a.98.98 0 00.406.625q.313.211.809.211.524 0 .836-.215.317-.214.32-.531a.56.56 0 00-.203-.434q-.199-.175-.617-.265l-1.023-.219q-.856-.184-1.266-.609-.41-.426-.41-1.075 0-.55.3-.957.306-.405.848-.629.543-.226 1.254-.226 1.031 0 1.625.445.598.442.75 1.192" class="fill-primary"/><path d="M131.455 296v8h-1.148v-8zm8.396 2.574h-1.153a2 2 0 0 0-.273-.695 2.005 2.005 0 0 0-1.113-.828 2.5 2.5 0 0 0-.735-.106 2.3 2.3 0 0 0-1.258.352q-.554.351-.879 1.035-.32.68-.32 1.668 0 .992.324 1.676.324.68.879 1.031.555.348 1.254.348.383 0 .731-.102.347-.105.629-.312.285-.207.484-.508.2-.301.277-.692l1.153.004a3.2 3.2 0 0 1-.383 1.09 3 3 0 0 1-.715.844 3.2 3.2 0 0 1-.984.543q-.555.187-1.2.187-1.035 0-1.843-.496-.809-.495-1.274-1.418-.465-.921-.465-2.195 0-1.278.465-2.195.469-.923 1.277-1.418.81-.496 1.84-.496.63 0 1.176.179.551.18.988.528.438.347.727.843.29.497.391 1.133m8.376 1.426q0 1.278-.469 2.199-.465.919-1.274 1.414-.808.496-1.843.496t-1.844-.496-1.277-1.418q-.465-.921-.465-2.195 0-1.278.465-2.195.468-.923 1.277-1.418.809-.496 1.844-.496t1.843.496 1.274 1.418q.469.918.469 2.195m-1.133 0q0-.992-.324-1.672-.321-.683-.875-1.031a2.3 2.3 0 0 0-1.254-.352q-.7 0-1.254.352-.555.348-.879 1.031-.32.68-.32 1.672t.32 1.676q.324.68.879 1.031.554.348 1.254.348.699 0 1.254-.348.554-.351.875-1.031.324-.684.324-1.676m6.077-.488v.976h-3.539v-.976zm5.565-3.512v8h-1.148v-6.836h-.047l-1.922 1.258v-1.113l1.996-1.309zm6.032 8.125q-.915 0-1.563-.484-.645-.484-.988-1.407-.344-.925-.344-2.23.005-1.3.348-2.219.344-.921.992-1.406.648-.489 1.555-.488.906 0 1.554.488.649.485.992 1.406.348.918.348 2.219 0 1.305-.344 2.23-.344.923-.992 1.407-.645.484-1.558.484m0-.996q.828 0 1.293-.805.468-.805.468-2.32 0-1.008-.215-1.707-.21-.699-.605-1.063a1.34 1.34 0 0 0-.941-.363q-.82 0-1.289.813-.47.808-.469 2.32 0 1.008.207 1.707.21.699.605 1.059.394.359.946.359m4.64.871v-.832l2.692-2.828a19 19 0 0 0 .726-.82q.29-.352.43-.672t.14-.672q0-.406-.191-.699a1.23 1.23 0 0 0-.519-.457 1.7 1.7 0 0 0-.743-.161q-.437 0-.761.18-.325.18-.504.504a1.56 1.56 0 0 0-.176.762h-1.094q0-.727.332-1.27a2.3 2.3 0 0 1 .914-.844q.582-.3 1.313-.3.743 0 1.308.3.57.297.891.809.32.512.32 1.148 0 .442-.164.868-.163.425-.57.945-.402.52-1.125 1.262l-1.641 1.726v.059h3.633V304zM16.459 314.833v-.742h5.182v.742h-2.173V321h-.837v-6.167zm7.161 3.05V321h-.796v-6.909h.796v2.537h.067q.183-.401.547-.638.367-.239.978-.239.53 0 .928.212.398.21.617.645.223.431.223 1.099V321h-.796v-3.239q0-.617-.32-.954-.317-.341-.881-.341-.39 0-.702.165-.306.165-.485.483a1.56 1.56 0 0 0-.176.769m6.99 3.225q-.75 0-1.293-.331a2.2 2.2 0 0 1-.833-.931q-.29-.6-.29-1.396 0-.797.29-1.404.294-.61.816-.951.526-.344 1.228-.344.405 0 .8.135t.718.438q.324.3.517.796.192.496.192 1.222v.337H28.76v-.688h3.184q0-.44-.175-.783a1.33 1.33 0 0 0-1.242-.742q-.475 0-.823.236-.344.233-.53.607-.185.375-.185.803v.459q0 .587.202.995.207.405.57.618.365.209.847.209.314 0 .567-.088a1.2 1.2 0 0 0 .442-.27 1.2 1.2 0 0 0 .287-.452l.769.216q-.121.391-.408.688a2 2 0 0 1-.709.459 2.6 2.6 0 0 1-.948.162m8.133 0q-.729 0-1.255-.344a2.25 2.25 0 0 1-.81-.948 3.2 3.2 0 0 1-.283-1.38q0-.79.29-1.393.294-.607.816-.948.526-.344 1.229-.344.546 0 .985.202t.718.567q.28.364.348.85h-.797a1.23 1.23 0 0 0-.404-.627q-.31-.277-.837-.277-.466 0-.816.243a1.6 1.6 0 0 0-.544.678q-.192.435-.192 1.022 0 .6.19 1.046.19.445.539.691.35.247.823.247.31 0 .563-.108a1.16 1.16 0 0 0 .678-.796h.797a1.84 1.84 0 0 1-1.033 1.406 2.25 2.25 0 0 1-1.005.213m5.307 0q-.702 0-1.232-.334a2.27 2.27 0 0 1-.823-.935q-.294-.6-.293-1.403 0-.81.293-1.413.297-.605.823-.938a2.26 2.26 0 0 1 1.232-.334q.701 0 1.228.334.53.333.823.938.297.603.297 1.413 0 .803-.297 1.403-.294.601-.823.935-.526.334-1.228.334m0-.715q.532 0 .877-.274.344-.273.51-.718.165-.446.165-.965 0-.52-.166-.968a1.63 1.63 0 0 0-.51-.725q-.344-.277-.876-.277-.534 0-.877.277-.345.276-.51.725t-.165.968q0 .52.165.965t.51.718q.343.274.877.274m3.563.607v-5.182h.77v.81h.067q.162-.416.522-.645.361-.232.867-.232.513 0 .854.232.344.23.536.645h.054q.2-.401.597-.638.399-.239.955-.239.696 0 1.137.435.442.432.442 1.346V321h-.796v-3.468q0-.574-.314-.82a1.16 1.16 0 0 0-.739-.246q-.546 0-.846.331-.3.327-.3.829V321h-.81v-3.549q0-.442-.287-.712-.286-.273-.739-.273-.31 0-.58.165-.267.165-.432.459a1.35 1.35 0 0 0-.162.671V321zm8.257 0v-5.182h.769v.81h.067q.162-.416.523-.645.362-.232.867-.232.513 0 .854.232.344.23.536.645h.054q.2-.401.597-.638.399-.239.955-.239.694 0 1.137.435.442.432.442 1.346V321h-.796v-3.468q0-.574-.314-.82a1.16 1.16 0 0 0-.739-.246q-.546 0-.847.331-.3.327-.3.829V321h-.81v-3.549q0-.442-.286-.712-.287-.273-.739-.273-.31 0-.58.165-.267.165-.432.459a1.35 1.35 0 0 0-.162.671V321zm10.362.108q-.702 0-1.232-.334a2.27 2.27 0 0 1-.823-.935q-.293-.6-.293-1.403 0-.81.293-1.413.297-.605.823-.938a2.26 2.26 0 0 1 1.232-.334q.702 0 1.228.334.53.333.823.938.297.603.297 1.413 0 .803-.297 1.403-.294.601-.823.935-.526.334-1.228.334m0-.715q.532 0 .877-.274.345-.273.51-.718.165-.446.165-.965 0-.52-.166-.968a1.63 1.63 0 0 0-.51-.725q-.343-.277-.876-.277-.534 0-.877.277-.345.276-.51.725t-.165.968q0 .52.165.965t.51.718q.343.274.877.274m4.36-2.51V321h-.797v-5.182h.77v.81h.067q.182-.395.553-.634.371-.243.958-.243.526 0 .921.216.395.212.614.647.22.432.22 1.093V321H73.1v-3.239q0-.61-.317-.951-.317-.344-.87-.344-.382 0-.682.165a1.2 1.2 0 0 0-.469.483 1.6 1.6 0 0 0-.172.769m5.556-3.792V321h-.796v-6.909zm1.971 8.852q-.203 0-.36-.034a1 1 0 0 1-.22-.06l.203-.702q.29.074.512.054a.6.6 0 0 0 .395-.199q.176-.175.32-.57l.149-.405-1.916-5.209h.863l1.43 4.129h.055l1.43-4.129h.864l-2.2 5.938a2.3 2.3 0 0 1-.368.664 1.4 1.4 0 0 1-.509.395 1.6 1.6 0 0 1-.648.128m8.972-1.822q-.492 0-.894-.185a1.54 1.54 0 0 1-.637-.543 1.54 1.54 0 0 1-.236-.864q0-.445.175-.722.175-.28.469-.438.294-.159.648-.237.358-.08.718-.128.472-.06.766-.091.297-.033.432-.111.138-.078.138-.27v-.027q0-.5-.273-.776-.27-.276-.82-.277-.57 0-.894.25a1.5 1.5 0 0 0-.455.533l-.756-.27a1.8 1.8 0 0 1 .54-.735q.34-.267.742-.371a3 3 0 0 1 .796-.108q.25 0 .574.06.327.059.63.24.307.182.51.55.202.367.202.985V321h-.796v-.702h-.04a1.4 1.4 0 0 1-.27.361 1.6 1.6 0 0 1-.503.328q-.313.134-.766.134m.122-.715q.472 0 .796-.185a1.27 1.27 0 0 0 .661-1.097v-.728q-.051.06-.222.111-.169.047-.392.084a16 16 0 0 1-.762.101 3 3 0 0 0-.58.132 1 1 0 0 0-.432.267q-.162.175-.162.479 0 .414.307.627.31.21.786.209m5.812.702q-.729 0-1.255-.344a2.25 2.25 0 0 1-.81-.948 3.2 3.2 0 0 1-.283-1.38q0-.79.29-1.393.293-.607.816-.948.526-.344 1.228-.344.547 0 .985.202.439.202.719.567t.347.85h-.796a1.23 1.23 0 0 0-.405-.627q-.31-.277-.836-.277-.465 0-.817.243a1.6 1.6 0 0 0-.543.678q-.192.435-.192 1.022 0 .6.189 1.046.192.445.54.691.35.247.823.247.31 0 .563-.108a1.16 1.16 0 0 0 .678-.796h.796a1.84 1.84 0 0 1-1.032 1.406 2.25 2.25 0 0 1-1.005.213m5.306 0q-.728 0-1.255-.344a2.25 2.25 0 0 1-.81-.948 3.2 3.2 0 0 1-.283-1.38q0-.79.29-1.393a2.3 2.3 0 0 1 .817-.948q.526-.344 1.228-.344.546 0 .985.202t.719.567q.28.364.347.85h-.796a1.23 1.23 0 0 0-.405-.627q-.31-.277-.837-.277-.465 0-.816.243a1.6 1.6 0 0 0-.543.678q-.192.435-.192 1.022 0 .6.188 1.046.194.445.54.691.35.247.823.247.31 0 .564-.108a1.16 1.16 0 0 0 .678-.796h.796a1.84 1.84 0 0 1-1.032 1.406 2.25 2.25 0 0 1-1.006.213m5.374 0q-.749 0-1.292-.331a2.2 2.2 0 0 1-.833-.931q-.29-.6-.29-1.396 0-.797.29-1.404.294-.61.817-.951.525-.344 1.228-.344.404 0 .799.135t.719.438q.324.3.516.796t.192 1.222v.337h-3.994v-.688h3.184q0-.44-.175-.783a1.33 1.33 0 0 0-1.241-.742q-.477 0-.824.236a1.55 1.55 0 0 0-.529.607q-.186.375-.186.803v.459q0 .587.203.995.206.405.57.618.365.209.846.209.315 0 .567-.088.256-.091.442-.27.185-.182.287-.452l.769.216q-.121.391-.408.688a2 2 0 0 1-.709.459 2.6 2.6 0 0 1-.948.162m3.357 1.835v-7.125h.769v.823h.095q.087-.134.243-.344.158-.212.452-.378.297-.168.803-.168.655 0 1.153.327.5.327.78.928.28.6.28 1.417 0 .822-.28 1.427-.28.6-.776.931a2.03 2.03 0 0 1-1.144.327q-.5 0-.799-.165a1.5 1.5 0 0 1-.463-.382 5 5 0 0 1-.249-.357h-.068v2.739zm.783-4.534q0 .587.172 1.036.172.445.503.698.33.25.809.25.5 0 .834-.263a1.6 1.6 0 0 0 .506-.716q.171-.452.172-1.005 0-.546-.169-.985a1.5 1.5 0 0 0-.503-.698q-.333-.26-.84-.26-.486 0-.816.246a1.47 1.47 0 0 0-.499.682q-.17.435-.169 1.015m7.26-2.591v.675h-2.686v-.675zm-1.903-1.241h.796v4.939q0 .337.098.506.102.165.256.222.16.054.334.054a1.4 1.4 0 0 0 .351-.04l.162.715a1.8 1.8 0 0 1-.593.094q-.338 0-.662-.145a1.3 1.3 0 0 1-.533-.442q-.209-.296-.209-.748zm5.217 6.531q-.749 0-1.292-.331a2.2 2.2 0 0 1-.833-.931q-.29-.6-.29-1.396 0-.797.29-1.404.294-.61.816-.951.527-.344 1.228-.344.405 0 .8.135t.718.438q.324.3.517.796.192.496.192 1.222v.337h-3.994v-.688h3.184q0-.44-.175-.783a1.33 1.33 0 0 0-1.242-.742q-.475 0-.823.236a1.55 1.55 0 0 0-.529.607q-.186.375-.186.803v.459q0 .587.202.995.207.405.571.618.364.209.846.209.314 0 .567-.088.256-.091.442-.27.185-.182.287-.452l.769.216q-.122.391-.408.688a2 2 0 0 1-.709.459 2.6 2.6 0 0 1-.948.162m5.314 0q-.648 0-1.144-.327a2.2 2.2 0 0 1-.776-.931q-.28-.605-.28-1.427 0-.817.28-1.417a2.2 2.2 0 0 1 .779-.928 2.06 2.06 0 0 1 1.154-.327q.506 0 .8.168.296.167.452.378a6 6 0 0 1 .246.344h.068v-2.55h.796V321h-.769v-.796h-.095a5 5 0 0 1-.25.357 1.5 1.5 0 0 1-.462.382q-.3.165-.799.165m.108-.715q.479 0 .809-.25.331-.253.503-.698.172-.449.172-1.036 0-.58-.169-1.015a1.47 1.47 0 0 0-.499-.682q-.33-.246-.816-.246-.507 0-.844.26-.333.256-.502.698a2.8 2.8 0 0 0-.166.985q0 .553.169 1.005.172.45.506.716.337.263.837.263m10.178-3.414-.715.202a1.3 1.3 0 0 0-.199-.347 1 1 0 0 0-.351-.284 1.3 1.3 0 0 0-.57-.111q-.477 0-.793.219-.314.216-.314.55 0 .297.216.469t.675.287l.769.189q.694.168 1.036.516.34.344.34.887 0 .445-.256.796a1.7 1.7 0 0 1-.709.554 2.6 2.6 0 0 1-1.059.202q-.793 0-1.312-.344-.52-.345-.658-1.005l.756-.189q.108.418.408.627.303.21.793.209.556 0 .883-.236.331-.24.331-.573a.6.6 0 0 0-.189-.452q-.189-.186-.58-.277l-.864-.203q-.711-.168-1.046-.522a1.27 1.27 0 0 1-.33-.894q0-.439.246-.776.25-.338.678-.53.432-.192.979-.192.768 0 1.207.337.442.338.628.891m1.805 5.964a1.7 1.7 0 0 1-.36-.034 1 1 0 0 1-.22-.06l.203-.702q.29.074.512.054a.6.6 0 0 0 .395-.199q.175-.175.321-.57l.148-.405-1.916-5.209h.864l1.43 4.129h.054l1.43-4.129h.864l-2.2 5.938a2.3 2.3 0 0 1-.367.664q-.22.267-.51.395a1.6 1.6 0 0 1-.648.128M140.6 321v-5.182h.769v.81h.067q.162-.416.523-.645.361-.232.867-.232.513 0 .854.232.344.23.536.645h.054q.2-.401.597-.638.399-.239.955-.239.695 0 1.137.435.442.432.442 1.346V321h-.796v-3.468q0-.574-.314-.82a1.16 1.16 0 0 0-.739-.246q-.546 0-.847.331-.3.327-.3.829V321h-.809v-3.549q0-.442-.287-.712-.287-.273-.739-.273-.31 0-.58.165-.267.165-.432.459a1.35 1.35 0 0 0-.162.671V321zm8.365 0v-6.909h.796v2.55h.067q.088-.134.243-.344.16-.212.452-.378.297-.168.803-.168.654 0 1.154.327t.779.928q.28.6.28 1.417 0 .822-.28 1.427-.28.6-.776.931-.496.327-1.143.327-.5 0-.8-.165-.3-.17-.462-.382a6 6 0 0 1-.25-.357h-.094V321zm.782-2.591q0 .587.172 1.036.173.445.503.698.33.25.81.25.498 0 .833-.263.337-.266.506-.716.172-.452.172-1.005 0-.546-.169-.985a1.5 1.5 0 0 0-.502-.698q-.334-.26-.84-.26-.486 0-.817.246-.33.243-.499.682-.17.435-.169 1.015m7.115 2.699q-.702 0-1.231-.334a2.27 2.27 0 0 1-.823-.935q-.294-.6-.294-1.403 0-.81.294-1.413.297-.605.823-.938.53-.334 1.231-.334t1.228.334q.53.333.823.938.297.603.297 1.413 0 .803-.297 1.403-.293.601-.823.935-.526.334-1.228.334m0-.715q.533 0 .877-.274a1.6 1.6 0 0 0 .51-.718q.165-.446.165-.965 0-.52-.165-.968a1.63 1.63 0 0 0-.51-.725q-.344-.277-.877-.277t-.877.277a1.63 1.63 0 0 0-.509.725 2.8 2.8 0 0 0-.166.968q0 .52.166.965.165.445.509.718.344.274.877.274m4.36-6.302V321h-.797v-6.909zM19.036 327.818v.675h-2.793v-.675zM17.08 333v-5.897q0-.445.21-.742t.543-.446.705-.148q.294 0 .479.047.186.048.277.088l-.23.688-.168-.05a1 1 0 0 0-.277-.031q-.395 0-.57.199-.172.2-.172.584V333zm4.965.108q-.702 0-1.232-.334a2.27 2.27 0 0 1-.823-.935q-.293-.6-.293-1.403 0-.81.293-1.413.297-.605.823-.938a2.26 2.26 0 0 1 1.232-.334q.702 0 1.228.334.53.333.823.938.297.603.297 1.413 0 .803-.297 1.403-.294.601-.823.935-.526.334-1.228.334m0-.715q.533 0 .877-.274.345-.273.51-.718.165-.446.165-.965 0-.52-.166-.968a1.63 1.63 0 0 0-.51-.725q-.343-.277-.876-.277-.534 0-.877.277-.345.276-.51.725t-.165.968q0 .52.165.965t.51.718q.343.274.877.274m3.563.607v-5.182h.77v.783h.053q.142-.385.513-.624.37-.24.837-.24a6 6 0 0 1 .418.014v.809a3.4 3.4 0 0 0-.486-.054q-.378 0-.674.159-.294.155-.466.432-.17.273-.169.624V333zm6.207 0v-5.182h.769v.81h.067q.162-.416.523-.645.36-.232.867-.232.513 0 .854.232.344.23.536.645h.054q.2-.401.597-.638.399-.239.955-.239.695 0 1.137.435.441.432.442 1.346V333h-.796v-3.468q0-.574-.314-.82a1.16 1.16 0 0 0-.739-.246q-.546 0-.847.331-.3.327-.3.829V333h-.81v-3.549q0-.442-.286-.712-.288-.273-.74-.273-.31 0-.58.165-.266.165-.431.459a1.35 1.35 0 0 0-.162.671V333zm10.43.108q-.75 0-1.293-.331a2.2 2.2 0 0 1-.833-.931q-.29-.6-.29-1.396 0-.797.29-1.404.293-.61.816-.951.526-.344 1.228-.344.405 0 .8.135.394.135.718.438.324.3.516.796.193.496.193 1.222v.337h-3.995v-.688h3.185q0-.44-.175-.783a1.33 1.33 0 0 0-1.242-.742q-.475 0-.823.236-.344.233-.53.607-.185.375-.185.803v.459q0 .587.202.995.206.405.57.618.365.209.847.209.314 0 .567-.088a1.2 1.2 0 0 0 .442-.27 1.2 1.2 0 0 0 .286-.452l.77.216q-.121.391-.408.688a2 2 0 0 1-.709.459 2.6 2.6 0 0 1-.948.162m5.313 0a2.03 2.03 0 0 1-1.144-.327 2.2 2.2 0 0 1-.776-.931q-.28-.605-.28-1.427 0-.817.28-1.417t.78-.928a2.06 2.06 0 0 1 1.153-.327q.506 0 .8.168.296.167.452.378.157.21.246.344h.067v-2.55h.797V333h-.77v-.796h-.094a5 5 0 0 1-.25.357 1.5 1.5 0 0 1-.462.382q-.3.165-.8.165m.107-.715q.48 0 .81-.25.33-.253.503-.698.172-.449.172-1.036 0-.58-.169-1.015a1.48 1.48 0 0 0-.5-.682q-.33-.246-.816-.246-.506 0-.843.26-.334.256-.503.698-.165.438-.165.985 0 .553.169 1.005.171.45.506.716.338.263.836.263M51.5 333v-5.182h.796V333zm.405-6.045a.56.56 0 0 1-.401-.159.5.5 0 0 1-.166-.381q0-.224.166-.381a.56.56 0 0 1 .401-.159q.233 0 .398.159a.5.5 0 0 1 .169.381.5.5 0 0 1-.169.381.55.55 0 0 1-.398.159m3.955 6.153q-.729 0-1.255-.344a2.25 2.25 0 0 1-.81-.948 3.2 3.2 0 0 1-.283-1.38q0-.79.29-1.393.294-.607.816-.948.526-.344 1.228-.344.547 0 .985.202.439.202.719.567t.347.85h-.796a1.23 1.23 0 0 0-.405-.627q-.31-.277-.836-.277-.466 0-.817.243a1.6 1.6 0 0 0-.543.678q-.192.435-.192 1.022 0 .6.189 1.046.192.445.54.691.35.247.823.247.31 0 .563-.108a1.16 1.16 0 0 0 .678-.796h.796a1.84 1.84 0 0 1-1.032 1.406 2.25 2.25 0 0 1-1.005.213M59.06 333v-5.182h.796V333zm.405-6.045a.56.56 0 0 1-.401-.159.5.5 0 0 1-.166-.381q0-.224.166-.381a.56.56 0 0 1 .401-.159q.233 0 .398.159a.5.5 0 0 1 .169.381.5.5 0 0 1-.169.381.55.55 0 0 1-.398.159m2.646 2.928V333h-.796v-5.182h.769v.81h.067q.183-.395.553-.634.371-.243.959-.243.525 0 .92.216.395.212.615.647.219.432.219 1.093V333h-.796v-3.239q0-.61-.317-.951-.318-.344-.87-.344-.382 0-.682.165a1.2 1.2 0 0 0-.47.483 1.6 1.6 0 0 0-.171.769m6.933 3.225q-.749 0-1.292-.331a2.2 2.2 0 0 1-.833-.931q-.29-.6-.29-1.396 0-.797.29-1.404.294-.61.816-.951.526-.344 1.228-.344.405 0 .8.135t.719.438q.323.3.516.796.192.496.192 1.222v.337h-3.994v-.688h3.184q0-.44-.175-.783a1.33 1.33 0 0 0-1.242-.742q-.475 0-.823.236-.345.233-.53.607-.185.375-.185.803v.459q0 .587.202.995.207.405.57.618.366.209.847.209.314 0 .567-.088a1.2 1.2 0 0 0 .442-.27q.186-.182.287-.452l.769.216q-.122.391-.408.688a2 2 0 0 1-.709.459 2.6 2.6 0 0 1-.948.162m7.554.013a2.1 2.1 0 0 1-.894-.185 1.54 1.54 0 0 1-.638-.543 1.54 1.54 0 0 1-.236-.864q0-.445.175-.722.176-.28.47-.438.292-.159.647-.237.358-.08.719-.128.471-.06.766-.091.296-.033.431-.111.14-.078.139-.27v-.027q0-.5-.274-.776-.27-.276-.82-.277-.57 0-.893.25a1.5 1.5 0 0 0-.456.533l-.756-.27a1.8 1.8 0 0 1 .54-.735q.341-.267.742-.371a3 3 0 0 1 .797-.108q.249 0 .573.06.327.059.63.24.308.182.51.55.203.367.203.985V333h-.796v-.702h-.04a1.4 1.4 0 0 1-.27.361 1.6 1.6 0 0 1-.503.328q-.315.134-.766.134m.121-.715q.472 0 .796-.185a1.27 1.27 0 0 0 .662-1.097v-.728q-.05.06-.223.111-.168.047-.391.084a16 16 0 0 1-.763.101q-.31.04-.58.132a1 1 0 0 0-.432.267q-.162.175-.162.479 0 .414.307.627.311.21.786.209m4.503-2.523V333h-.796v-5.182h.77v.81h.067q.182-.395.553-.634.371-.243.958-.243.526 0 .92.216.396.212.615.647.22.432.22 1.093V333h-.797v-3.239q0-.61-.317-.951-.318-.344-.87-.344-.382 0-.682.165a1.2 1.2 0 0 0-.469.483 1.6 1.6 0 0 0-.172.769m6.718 3.225a2.03 2.03 0 0 1-1.144-.327 2.2 2.2 0 0 1-.776-.931q-.28-.605-.28-1.427 0-.817.28-1.417t.78-.928a2.06 2.06 0 0 1 1.153-.327q.507 0 .8.168.296.167.452.378.158.21.246.344h.068v-2.55h.796V333h-.77v-.796h-.094a5 5 0 0 1-.25.357 1.5 1.5 0 0 1-.462.382q-.3.165-.8.165m.108-.715q.48 0 .81-.25.33-.253.502-.698.172-.449.172-1.036 0-.58-.169-1.015a1.5 1.5 0 0 0-.499-.682q-.33-.246-.816-.246-.507 0-.844.26-.333.256-.502.698-.166.438-.166.985 0 .553.169 1.005.172.45.506.716.337.263.837.263m7.304-2.51V333h-.797v-6.909h.797v2.537h.067q.182-.401.546-.638.369-.239.979-.239.53 0 .928.212.397.21.617.645.222.431.223 1.099V333h-.797v-3.239q0-.617-.32-.954-.318-.341-.88-.341-.391 0-.702.165-.308.165-.486.483a1.57 1.57 0 0 0-.175.769m6.989 3.225q-.75 0-1.292-.331a2.2 2.2 0 0 1-.834-.931q-.29-.6-.29-1.396 0-.797.29-1.404.294-.61.817-.951.526-.344 1.228-.344.405 0 .799.135.395.135.719.438.324.3.516.796t.192 1.222v.337h-3.994v-.688h3.185q0-.44-.176-.783a1.32 1.32 0 0 0-1.241-.742 1.43 1.43 0 0 0-.823.236q-.344.233-.53.607-.186.375-.186.803v.459q0 .587.203.995.205.405.57.618.364.209.847.209.314 0 .566-.088.257-.091.442-.27.186-.182.287-.452l.769.216q-.121.391-.408.688a2 2 0 0 1-.708.459 2.6 2.6 0 0 1-.948.162m4.881.013q-.492 0-.894-.185a1.54 1.54 0 0 1-.637-.543q-.237-.358-.236-.864 0-.445.175-.722.175-.28.469-.438a2.5 2.5 0 0 1 .648-.237 8 8 0 0 1 .718-.128q.472-.06.766-.091.297-.033.432-.111.138-.078.138-.27v-.027q0-.5-.273-.776-.27-.276-.82-.277-.57 0-.894.25a1.46 1.46 0 0 0-.455.533l-.756-.27q.203-.473.54-.735.34-.267.742-.371.405-.108.796-.108.25 0 .574.06.327.059.63.24.308.182.51.55.202.367.202.985V333h-.796v-.702h-.04a1.4 1.4 0 0 1-.27.361 1.6 1.6 0 0 1-.503.328 2 2 0 0 1-.766.134m.122-.715q.472 0 .796-.185a1.27 1.27 0 0 0 .661-1.097v-.728q-.05.06-.223.111-.168.047-.391.084a16 16 0 0 1-.762.101 3 3 0 0 0-.581.132 1 1 0 0 0-.431.267q-.162.175-.162.479 0 .414.307.627.31.21.786.209m4.503-6.315V333h-.797v-6.909zm3.711 1.727v.675h-2.685v-.675zm-1.902-1.241h.796v4.939q0 .337.098.506.101.165.256.222.159.054.334.054a1.4 1.4 0 0 0 .351-.04l.162.715a1.8 1.8 0 0 1-.594.094q-.337 0-.661-.145a1.3 1.3 0 0 1-.533-.442q-.21-.296-.209-.748zm4.008 3.306V333h-.797v-6.909h.797v2.537h.067q.182-.401.546-.638.369-.239.979-.239.53 0 .928.212.398.21.617.645.223.431.223 1.099V333h-.797v-3.239q0-.617-.32-.954-.317-.341-.881-.341-.39 0-.701.165-.308.165-.486.483a1.56 1.56 0 0 0-.175.769m9.593 3.225q-.729 0-1.255-.344a2.25 2.25 0 0 1-.81-.948 3.2 3.2 0 0 1-.283-1.38q0-.79.29-1.393.294-.607.817-.948.526-.344 1.228-.344.546 0 .985.202t.718.567q.28.364.348.85h-.796a1.24 1.24 0 0 0-.405-.627q-.31-.277-.837-.277-.465 0-.816.243a1.57 1.57 0 0 0-.543.678q-.193.435-.193 1.022 0 .6.189 1.046.192.445.54.691.35.247.823.247.31 0 .564-.108a1.17 1.17 0 0 0 .678-.796h.796a1.85 1.85 0 0 1-.334.826 1.87 1.87 0 0 1-.699.58 2.24 2.24 0 0 1-1.005.213m4.727.013q-.494 0-.894-.185a1.53 1.53 0 0 1-.638-.543q-.236-.358-.236-.864 0-.445.175-.722.175-.28.469-.438.294-.159.648-.237a8 8 0 0 1 .718-.128q.473-.06.766-.091.297-.033.432-.111.138-.078.138-.27v-.027q0-.5-.273-.776-.27-.276-.82-.277-.57 0-.894.25a1.5 1.5 0 0 0-.455.533l-.756-.27q.202-.473.54-.735a2 2 0 0 1 .742-.371q.405-.108.796-.108.25 0 .574.06.327.059.631.24.306.182.509.55.203.367.203.985V333h-.797v-.702h-.04a1.4 1.4 0 0 1-.27.361 1.6 1.6 0 0 1-.503.328 2 2 0 0 1-.765.134m.121-.715q.472 0 .796-.185.327-.186.493-.479.168-.294.168-.618v-.728q-.05.06-.222.111-.169.047-.392.084-.22.034-.428.061l-.334.04q-.31.04-.58.132a1 1 0 0 0-.432.267q-.162.175-.162.479 0 .414.307.627.31.21.786.209m3.707.594v-5.182h.769v.783h.054q.141-.385.513-.624.37-.24.836-.24a7 7 0 0 1 .419.014v.809a3.4 3.4 0 0 0-.486-.054q-.378 0-.675.159a1.158 1.158 0 0 0-.634 1.056V333zm5.549.108q-.749 0-1.292-.331a2.2 2.2 0 0 1-.833-.931q-.29-.6-.29-1.396 0-.797.29-1.404.294-.61.816-.951.526-.344 1.228-.344.405 0 .8.135.394.135.718.438.324.3.517.796.192.496.192 1.222v.337h-3.995v-.688h3.185q0-.44-.175-.783a1.33 1.33 0 0 0-1.242-.742q-.475 0-.823.236a1.56 1.56 0 0 0-.53.607q-.185.375-.185.803v.459q0 .587.202.995.207.405.57.618.365.209.847.209.314 0 .567-.088.256-.091.442-.27.185-.182.287-.452l.769.216q-.121.391-.408.688a2 2 0 0 1-.709.459 2.6 2.6 0 0 1-.948.162m4.504-1.053-.054.365a8 8 0 0 1-.175.823q-.115.438-.24.826-.125.389-.206.618h-.607l.115-.57a22 22 0 0 0 .263-1.684l.04-.378zm4.937-2.172V333h-.796v-5.182h.769v.81h.068q.182-.395.553-.634.371-.243.958-.243.526 0 .921.216.395.212.614.647.219.432.219 1.093V333h-.796v-3.239q0-.61-.317-.951-.317-.344-.87-.344a1.4 1.4 0 0 0-.682.165q-.297.165-.469.483a1.6 1.6 0 0 0-.172.769m6.866 3.225q-.702 0-1.231-.334a2.27 2.27 0 0 1-.823-.935q-.294-.6-.294-1.403 0-.81.294-1.413.297-.605.823-.938.53-.334 1.231-.334t1.228.334q.53.333.823.938.297.603.297 1.413 0 .803-.297 1.403-.293.601-.823.935-.526.334-1.228.334m0-.715q.534 0 .877-.274.345-.273.51-.718.165-.446.165-.965 0-.52-.165-.968a1.6 1.6 0 0 0-.51-.725q-.343-.277-.877-.277-.532 0-.877.277a1.63 1.63 0 0 0-.509.725q-.166.449-.166.968 0 .52.166.965.165.445.509.718.345.274.877.274m5.817-4.575v.675h-2.685v-.675zm-1.903-1.241h.797v4.939q0 .337.097.506.101.165.257.222.159.054.334.054a1.4 1.4 0 0 0 .351-.04l.162.715a1.8 1.8 0 0 1-.594.094q-.337 0-.661-.145a1.3 1.3 0 0 1-.533-.442q-.21-.296-.21-.748zm3.681 6.477a.59.59 0 0 1-.428-.179.58.58 0 0 1-.179-.428q0-.25.179-.429a.59.59 0 0 1 .428-.179q.25 0 .428.179.18.179.179.429 0 .165-.084.303a.6.6 0 0 1-.219.223.6.6 0 0 1-.304.081m2.591 0a.6.6 0 0 1-.429-.179.58.58 0 0 1-.178-.428q0-.25.178-.429a.6.6 0 0 1 .429-.179q.25 0 .428.179.18.179.179.429 0 .165-.084.303a.6.6 0 0 1-.219.223.6.6 0 0 1-.304.081m2.591 0a.59.59 0 0 1-.429-.179.58.58 0 0 1-.178-.428q0-.25.178-.429a.59.59 0 0 1 .429-.179q.25 0 .428.179a.59.59 0 0 1 .179.429q0 .165-.084.303a.6.6 0 0 1-.22.223.6.6 0 0 1-.303.081" class="fill-secondary"/><defs><clipPath id="widget-__a"><path d="M16 61a3 3 0 013-3h154a3 3 0 013 3v218a3 3 0 01-3 3H19a3 3 0 01-3-3z" class="fill-main-contrast"/></clipPath></defs></svg>