<svg xmlns="http://www.w3.org/2000/svg" width="384" height="288" fill="none" viewBox="0 0 384 288" class="portfolio-widget"><path d="M.5 6A5.5 5.5 0 0 1 6 .5h372a5.5 5.5 0 0 1 5.5 5.5v276a5.5 5.5 0 0 1-5.5 5.5H6A5.5 5.5 0 0 1 .5 282z" class="fill-container"/><path d="M.5 6A5.5 5.5 0 0 1 6 .5h372a5.5 5.5 0 0 1 5.5 5.5v276a5.5 5.5 0 0 1-5.5 5.5H6A5.5 5.5 0 0 1 .5 282z" class="stroke-divider"/><path d="M16.983 17.546H18.9l2.909 7.1h.11l2.909-7.1h1.915V27h-1.504v-6.666h-.088l-2.696 6.643h-1.182l-2.696-6.657h-.088V27h-1.505zm14.74 9.597q-1.056 0-1.823-.448a3 3 0 0 1-1.177-1.27q-.41-.821-.41-1.924 0-1.094.41-1.925a3.13 3.13 0 0 1 1.159-1.293q.743-.465 1.745-.466.632 0 1.205.203.572.203 1.02.637.448.43.706 1.108.263.678.263 1.625v.498h-5.729v-1.08h4.248q0-.507-.213-.905a1.6 1.6 0 0 0-.595-.632 1.67 1.67 0 0 0-.887-.23 1.74 1.74 0 0 0-.96.262q-.406.263-.632.693a2.05 2.05 0 0 0-.227.932v.891q0 .665.24 1.136t.67.72q.429.245 1.002.245.383 0 .692-.106.31-.111.53-.324.227-.216.347-.535l1.436.208a2.4 2.4 0 0 1-.563 1.043q-.407.443-1.034.692-.624.246-1.422.245m6.62.005a2.9 2.9 0 0 1-1.213-.245 2 2 0 0 1-.859-.72q-.314-.48-.314-1.177 0-.605.226-.993.23-.393.619-.623.388-.232.868-.346.484-.12.997-.176.628-.073 1.02-.124.393-.051.573-.162.18-.11.18-.355v-.033q0-.558-.328-.868-.324-.309-.947-.309-.655 0-1.034.286-.378.287-.521.656l-1.427-.259q.209-.645.642-1.061.434-.42 1.03-.62.6-.201 1.292-.202.471 0 .96.11.495.11.914.38.42.267.679.747.263.48.263 1.219V27h-1.477v-.97h-.056q-.138.278-.41.536-.273.258-.688.42a2.7 2.7 0 0 1-.988.162m.365-1.164q.54 0 .928-.212a1.57 1.57 0 0 0 .596-.563q.212-.35.212-.757v-.877a.8.8 0 0 1-.277.129q-.198.055-.448.101-.249.042-.489.074l-.41.056a3.4 3.4 0 0 0-.698.17q-.314.116-.498.333-.185.212-.185.558 0 .49.36.74.36.248.91.248m10.482-4.27-1.39.194a1.3 1.3 0 0 0-.235-.443 1.2 1.2 0 0 0-.438-.346 1.6 1.6 0 0 0-.688-.134q-.555 0-.928.244-.37.245-.37.633 0 .333.25.535.249.204.808.337l1.172.259q.993.221 1.477.692.486.471.49 1.228-.004.656-.383 1.16-.374.497-1.044.784-.664.286-1.537.286-1.251 0-2.022-.526-.77-.531-.937-1.491l1.482-.185q.12.503.494.762.374.254.974.254.637 0 1.02-.264.384-.267.388-.65a.69.69 0 0 0-.245-.531q-.235-.213-.738-.323l-1.2-.264q-1.012-.216-1.492-.715-.48-.504-.475-1.265-.004-.642.35-1.117.356-.48.989-.744.636-.267 1.463-.267 1.196 0 1.883.517.693.512.882 1.38m6.095 2.327v-4.132h1.524V27h-1.487v-1.246h-.074a2.2 2.2 0 0 1-.785.96q-.54.378-1.343.378-.688 0-1.219-.304a2.13 2.13 0 0 1-.826-.905q-.3-.596-.3-1.464v-4.51h1.528v4.298q0 .702.383 1.117.387.411 1.006.411.384 0 .748-.185.365-.19.605-.563.24-.379.24-.946M58.595 27v-7.09h1.482v1.153h.074q.194-.59.674-.923.485-.337 1.099-.337.134 0 .309.014.175.009.286.027v1.432a2 2 0 0 0-.318-.06 3 3 0 0 0-.43-.033q-.475 0-.85.203a1.5 1.5 0 0 0-.585.554 1.54 1.54 0 0 0-.213.813V27zm7.914.143q-1.057 0-1.824-.448a3 3 0 0 1-1.177-1.27q-.41-.821-.41-1.924 0-1.094.41-1.925a3.13 3.13 0 0 1 1.159-1.293q.743-.465 1.745-.466.632 0 1.205.203.572.203 1.02.637.448.43.706 1.108.263.678.263 1.625v.498h-5.728v-1.08h4.247q0-.507-.213-.905a1.6 1.6 0 0 0-.595-.632 1.67 1.67 0 0 0-.887-.23 1.74 1.74 0 0 0-.96.262q-.405.263-.632.693a2.05 2.05 0 0 0-.226.932v.891q0 .665.24 1.136t.669.72q.429.245 1.002.245.383 0 .692-.106.309-.111.531-.324.226-.216.346-.535l1.436.208q-.153.595-.563 1.043-.407.443-1.034.692-.624.246-1.422.245M74.506 27v-9.454h3.462q1.094 0 1.824.406.734.4 1.103 1.103.374.702.374 1.588 0 .891-.374 1.593a2.68 2.68 0 0 1-1.108 1.103q-.738.402-1.833.402h-2.336V22.43h2.152q.669 0 1.09-.231.42-.231.618-.633.198-.405.198-.923 0-.522-.198-.919a1.4 1.4 0 0 0-.623-.627q-.42-.227-1.095-.227h-1.68V27zm11.249.143q-1.058 0-1.823-.448a3 3 0 0 1-1.178-1.27q-.41-.821-.41-1.924 0-1.094.41-1.925a3.13 3.13 0 0 1 1.159-1.293q.743-.465 1.745-.466.632 0 1.205.203t1.02.637q.448.43.707 1.108.263.678.263 1.625v.498h-5.73v-1.08h4.248q0-.507-.213-.905a1.6 1.6 0 0 0-.595-.632 1.67 1.67 0 0 0-.886-.23 1.74 1.74 0 0 0-.96.262q-.407.263-.633.693a2.05 2.05 0 0 0-.226.932v.891q0 .665.24 1.136t.669.72q.429.245 1.002.245.383 0 .692-.106.31-.111.531-.324.226-.216.346-.535l1.436.208q-.153.595-.563 1.043-.406.443-1.034.692-.624.246-1.422.245M90.321 27v-7.09h1.482v1.153h.073q.194-.59.674-.923.486-.337 1.1-.337.132 0 .308.014.176.009.287.027v1.432a2 2 0 0 0-.319-.06 3 3 0 0 0-.43-.033q-.475 0-.849.203a1.5 1.5 0 0 0-.586.554 1.54 1.54 0 0 0-.212.813V27zm8.97-7.09v1.2h-4.1v-1.2zM96.262 27v-7.839q0-.687.296-1.145.294-.456.784-.683.495-.23 1.08-.23.43 0 .744.069.319.064.47.12l-.332 1.21a3 3 0 0 0-.254-.07 1.6 1.6 0 0 0-.364-.037q-.485 0-.693.235-.203.236-.203.679V27zm7.168.143q-1.02 0-1.772-.457a3.1 3.1 0 0 1-1.168-1.283q-.411-.822-.411-1.916 0-1.104.411-1.93.415-.826 1.168-1.283t1.772-.457 1.773.457q.752.456 1.163 1.283.416.826.416 1.93 0 1.094-.416 1.916a3.1 3.1 0 0 1-1.163 1.283q-.753.457-1.773.457m.005-1.251q.61 0 1.006-.328.402-.328.6-.872.2-.55.199-1.21 0-.665-.199-1.214a1.96 1.96 0 0 0-.6-.882q-.397-.332-1.006-.332-.614 0-1.016.332a1.97 1.97 0 0 0-.6.882 3.6 3.6 0 0 0-.198 1.214q0 .66.198 1.21.199.545.6.872.402.328 1.016.328M108.259 27v-7.09h1.482v1.153h.074a1.75 1.75 0 0 1 .674-.923 1.88 1.88 0 0 1 1.099-.337q.133 0 .309.014.175.009.286.027v1.432a2 2 0 0 0-.318-.06 3 3 0 0 0-.43-.033q-.475 0-.849.203a1.5 1.5 0 0 0-.586.554 1.54 1.54 0 0 0-.213.813V27zm5.078 0v-7.09h1.464v1.18h.087q.222-.6.725-.936.508-.337 1.214-.337.716 0 1.205.341.495.338.711.933h.074q.244-.582.799-.928.558-.346 1.329-.346.97 0 1.584.614.614.609.614 1.814V27h-1.528v-4.561q0-.693-.37-1.006a1.33 1.33 0 0 0-.895-.314q-.642 0-1.002.397-.356.392-.356 1.01V27h-1.505v-4.64q0-.562-.346-.9-.346-.34-.895-.341-.38 0-.693.194-.314.194-.503.54-.185.345-.185.803V27zm13.633.148q-.674 0-1.214-.245a2 2 0 0 1-.859-.72q-.314-.48-.314-1.177 0-.605.226-.993.23-.393.619-.623.388-.232.868-.346.484-.12.997-.176.628-.073 1.02-.124.393-.051.573-.162.18-.11.18-.355v-.033q0-.558-.328-.868-.324-.309-.947-.309-.655 0-1.034.286-.378.287-.521.656l-1.427-.259q.209-.645.642-1.061a2.7 2.7 0 0 1 1.029-.62q.6-.201 1.293-.202.471 0 .96.11.495.11.914.38.42.267.679.747.263.48.263 1.219V27h-1.477v-.97h-.056a2 2 0 0 1-.41.536 2.1 2.1 0 0 1-.688.42 2.7 2.7 0 0 1-.988.162m.364-1.164q.541 0 .928-.212.388-.217.596-.563.212-.35.212-.757v-.877a.8.8 0 0 1-.277.129 5 5 0 0 1-.448.101q-.249.042-.489.074l-.411.056a3.5 3.5 0 0 0-.697.17 1.17 1.17 0 0 0-.498.333q-.185.212-.185.558 0 .49.36.74.36.248.909.248m6.549-3.167V27h-1.528v-7.09h1.463v1.18h.088a2 2 0 0 1 .776-.927q.53-.346 1.324-.346.73 0 1.275.31.544.308.844.904.305.595.305 1.459V27h-1.528v-4.298q0-.743-.383-1.159-.384-.42-1.057-.42-.462 0-.817.199a1.4 1.4 0 0 0-.559.577q-.203.378-.203.918m9.36 4.326q-1.043 0-1.796-.466a3.13 3.13 0 0 1-1.154-1.293q-.402-.825-.402-1.897 0-1.085.411-1.911.41-.826 1.159-1.293.753-.465 1.768-.466.836 0 1.486.31.651.303 1.044.858.396.554.461 1.297h-1.472a1.55 1.55 0 0 0-.485-.859q-.378-.35-1.011-.35-.545 0-.956.29-.406.287-.637.822-.226.53-.226 1.27 0 .747.226 1.292.226.54.633.836.411.29.96.29a1.6 1.6 0 0 0 .688-.143q.309-.143.517-.41.212-.273.291-.656h1.472a2.7 2.7 0 0 1-.447 1.283 2.6 2.6 0 0 1-1.025.878q-.642.318-1.505.318m7.512 0q-1.058 0-1.824-.448a3 3 0 0 1-1.177-1.27q-.411-.821-.411-1.924 0-1.094.411-1.925a3.13 3.13 0 0 1 1.159-1.293q.743-.465 1.745-.466.633 0 1.205.203t1.02.637q.448.43.706 1.108.264.678.264 1.625v.498h-5.729v-1.08h4.247q0-.507-.213-.905a1.6 1.6 0 0 0-.595-.632 1.67 1.67 0 0 0-.887-.23 1.74 1.74 0 0 0-.96.262 1.8 1.8 0 0 0-.632.693 2.04 2.04 0 0 0-.226.932v.891q0 .665.24 1.136t.669.72q.429.245 1.002.245.383 0 .692-.106a1.5 1.5 0 0 0 .531-.324q.226-.216.346-.535l1.436.208a2.4 2.4 0 0 1-.563 1.043 2.8 2.8 0 0 1-1.034.692 3.9 3.9 0 0 1-1.422.245m7.558-8.268v-1.33h7.428v1.33h-2.931V27h-1.561v-8.125zM166.442 27v-7.09h1.482v1.153h.074q.193-.59.674-.923a1.88 1.88 0 0 1 1.098-.337q.134 0 .31.014.174.009.286.027v1.432a2 2 0 0 0-.319-.06 3 3 0 0 0-.429-.033q-.475 0-.85.203a1.5 1.5 0 0 0-.586.554 1.54 1.54 0 0 0-.212.813V27zm7.914.143q-1.058 0-1.824-.448a3 3 0 0 1-1.177-1.27q-.411-.821-.411-1.924 0-1.094.411-1.925a3.13 3.13 0 0 1 1.159-1.293q.743-.465 1.745-.466.632 0 1.205.203.572.203 1.02.637.447.43.706 1.108.264.678.263 1.625v.498h-5.729v-1.08h4.247q0-.507-.212-.905a1.6 1.6 0 0 0-.596-.632 1.67 1.67 0 0 0-.886-.23 1.74 1.74 0 0 0-.96.262 1.8 1.8 0 0 0-.633.693 2.05 2.05 0 0 0-.226.932v.891q0 .665.24 1.136t.67.72q.43.245 1.001.245.384 0 .693-.106a1.5 1.5 0 0 0 .531-.324q.226-.216.346-.535l1.436.208q-.153.595-.563 1.043a2.76 2.76 0 0 1-1.035.692 3.9 3.9 0 0 1-1.421.245m6.093-4.326V27h-1.528v-7.09h1.464v1.18h.087q.245-.58.776-.927.531-.346 1.325-.346.73 0 1.274.31.545.308.845.904.305.595.305 1.459V27h-1.529v-4.298q0-.743-.383-1.159-.383-.42-1.057-.42-.462 0-.817.199a1.4 1.4 0 0 0-.559.577q-.203.378-.203.918m8.963 4.312a2.7 2.7 0 0 1-1.514-.434q-.665-.434-1.048-1.25-.383-.823-.383-1.977 0-1.167.388-1.985.387-.816 1.057-1.242a2.76 2.76 0 0 1 1.509-.424q.642 0 1.044.217.402.211.632.508.231.29.356.526h.074v-3.523h1.528V27h-1.496v-1.113h-.106q-.13.245-.37.536a1.95 1.95 0 0 1-.641.499q-.402.207-1.03.207m.388-1.27q.563 0 .956-.3.392-.304.595-.844.208-.544.208-1.26t-.203-1.247-.596-.822q-.391-.295-.96-.295-.59 0-.988.31a1.82 1.82 0 0 0-.595.84 3.4 3.4 0 0 0-.199 1.213q0 .69.203 1.233.203.545.596.859.396.315.983.314M194.93 27v-7.09h1.528V27zm.771-8.139a.92.92 0 0 1-.651-.254.82.82 0 0 1-.268-.614q0-.355.268-.61a.92.92 0 0 1 .651-.253q.379 0 .646.254.273.254.273.61 0 .36-.273.613a.9.9 0 0 1-.646.254m4.071 3.956V27h-1.528v-7.09h1.463v1.18h.088q.244-.58.775-.927.531-.346 1.325-.346.73 0 1.274.31.545.308.845.904.305.595.305 1.459V27h-1.528v-4.298q0-.743-.383-1.159-.384-.42-1.058-.42-.461 0-.817.199a1.4 1.4 0 0 0-.558.577q-.203.378-.203.918m9.346 6.99q-.873 0-1.501-.231-.623-.23-1.011-.619a2.4 2.4 0 0 1-.558-.849l1.343-.425q.115.204.319.42.202.218.549.365.346.152.882.152.747 0 1.237-.364.489-.36.489-1.173v-1.366h-.087a2.7 2.7 0 0 1-.365.521q-.24.273-.646.466-.407.19-1.035.19-.826 0-1.495-.388-.665-.393-1.057-1.163-.393-.771-.393-1.916t.388-1.953 1.057-1.233 1.51-.424q.64 0 1.043.217.406.211.642.508.236.29.36.526h.092v-1.159h1.5v7.23q0 .909-.429 1.5a2.5 2.5 0 0 1-1.163.877q-.74.29-1.671.29m.004-4.141q.563 0 .956-.268a1.65 1.65 0 0 0 .595-.77q.208-.51.208-1.21 0-.697-.203-1.22a1.8 1.8 0 0 0-.596-.812q-.391-.295-.96-.295-.59 0-.988.305-.397.305-.595.83-.2.526-.199 1.192 0 .674.203 1.181.204.504.596.785.397.282.983.282" class="fill-primary"/><path d="M267.902 26v-8h1.149v7.008h3.644V26zm7.847.133q-.57 0-1.031-.211a1.74 1.74 0 0 1-.731-.621q-.269-.411-.269-.996 0-.512.195-.836.2-.328.531-.516.336-.191.746-.285.411-.098.836-.152l.875-.102q.336-.043.493-.133.156-.093.156-.308v-.028q0-.527-.297-.816-.293-.293-.875-.293-.609 0-.957.266a1.45 1.45 0 0 0-.481.585l-1.043-.265q.207-.547.586-.875.38-.331.864-.477a3.44 3.44 0 0 1 1.746-.066q.398.078.754.3.356.22.582.634t.226 1.085V26h-1.086v-.816h-.047q-.105.215-.332.437a1.8 1.8 0 0 1-.582.367 2.3 2.3 0 0 1-.859.145m.227-.906q.5 0 .851-.196.356-.199.539-.515a1.34 1.34 0 0 0 .184-.68v-.793a.6.6 0 0 1-.246.121 4 4 0 0 1-.414.09q-.231.039-.453.066-.223.027-.368.047-.344.046-.632.149a1.07 1.07 0 0 0-.461.297q-.172.191-.172.511 0 .445.328.676.331.227.844.227m8.698-3.793-1 .199a1.4 1.4 0 0 0-.215-.39 1.05 1.05 0 0 0-.391-.305 1.4 1.4 0 0 0-.621-.122q-.507 0-.851.23-.34.228-.336.583a.6.6 0 0 0 .226.5q.231.188.735.308l.941.22q.82.19 1.223.593.406.4.406 1.031 0 .536-.309.953a2.06 2.06 0 0 1-.855.653q-.543.234-1.262.234-.988 0-1.617-.422-.625-.422-.773-1.21l1.062-.188q.114.457.445.687.336.227.872.227.592 0 .945-.25.351-.25.351-.606a.64.64 0 0 0-.211-.488q-.21-.196-.648-.297l-1.008-.226q-.84-.188-1.234-.606-.395-.418-.395-1.055 0-.523.293-.921.293-.399.809-.621a3 3 0 0 1 1.183-.223q.954 0 1.5.414.548.41.735 1.098M288.849 20v.898h-3.239V20zm-2.352-1.437h1.106v5.687q0 .351.105.527t.273.239.36.062q.144 0 .246-.02l.164-.03.207.929a2 2 0 0 1-.285.078 2 2 0 0 1-.457.043 2 2 0 0 1-.836-.164 1.5 1.5 0 0 1-.641-.527q-.242-.355-.242-.895zM297.116 18v8h-1.148v-6.836h-.047l-1.922 1.258v-1.113L295.995 18zm3.453 8v-.832l2.692-2.828q.437-.47.726-.82a3 3 0 0 0 .43-.672 1.65 1.65 0 0 0 .141-.672q0-.406-.192-.7a1.23 1.23 0 0 0-.519-.456 1.7 1.7 0 0 0-.743-.16q-.437 0-.761.18a1.27 1.27 0 0 0-.504.503 1.56 1.56 0 0 0-.176.762h-1.094q0-.727.332-1.27.336-.543.914-.844.582-.3 1.313-.3.742 0 1.309.3.57.297.89.809t.32 1.148q0 .442-.164.868-.163.426-.57.945-.402.52-1.125 1.262l-1.641 1.726v.059h3.633V26zm9.943 0v-6h1.062v.969h.074q.188-.492.61-.77.426-.277 1.019-.277.598 0 1.004.277.406.278.61.77h.062q.219-.48.684-.762.465-.285 1.113-.285.816 0 1.332.512.516.508.516 1.546V26h-1.11v-3.937q0-.626-.34-.899a1.22 1.22 0 0 0-.804-.277q-.59 0-.914.36-.325.354-.325.91V26H314v-4.02q0-.492-.312-.793-.313-.3-.809-.3-.336 0-.625.18a1.3 1.3 0 0 0-.465.492 1.5 1.5 0 0 0-.172.73V26zm12.182.121q-.835 0-1.461-.387a2.6 2.6 0 0 1-.972-1.082q-.344-.695-.344-1.625 0-.933.344-1.633.348-.7.972-1.085.625-.387 1.461-.387t1.461.387.969 1.085q.348.7.348 1.633 0 .93-.348 1.625a2.6 2.6 0 0 1-.969 1.082q-.624.387-1.461.387m.004-.941q.563 0 .93-.297.37-.297.551-.785.18-.49.179-1.07 0-.583-.179-1.075a1.8 1.8 0 0 0-.551-.793q-.368-.3-.93-.3-.57 0-.941.3-.367.3-.547.793-.18.492-.18 1.074t.18 1.07.547.786q.37.297.941.297m5.204-2.754V26h-1.105v-6h1.062v.969h.075q.21-.477.648-.762.441-.285 1.117-.285.613 0 1.071.254.46.255.714.758.258.503.254 1.25V26h-1.105v-3.695q0-.669-.348-1.043-.343-.375-.949-.375a1.47 1.47 0 0 0-.738.183 1.3 1.3 0 0 0-.512.524 1.75 1.75 0 0 0-.184.832M336.093 20v.898h-3.239V20zm-2.352-1.437h1.106v5.687q0 .351.105.527.106.176.274.239.168.062.359.062.144 0 .246-.02l.164-.03.207.929a2 2 0 0 1-.285.078 2 2 0 0 1-.457.043 2 2 0 0 1-.836-.164 1.5 1.5 0 0 1-.641-.527q-.242-.355-.242-.895zm4.904 3.863V26h-1.106v-8h1.094v2.969h.074q.211-.48.641-.762.433-.285 1.132-.285.618 0 1.079.25.464.25.718.754.258.504.258 1.258V26h-1.105v-3.695q0-.672-.348-1.043-.347-.375-.965-.375-.425 0-.758.183-.331.18-.523.524-.191.343-.191.832m9.913-.992-1 .199a1.4 1.4 0 0 0-.215-.39 1.06 1.06 0 0 0-.391-.305 1.4 1.4 0 0 0-.621-.122q-.507 0-.852.23-.34.228-.335.583a.6.6 0 0 0 .226.5q.231.188.734.308l.942.22q.82.19 1.223.593.406.4.406 1.031 0 .536-.309.953a2.1 2.1 0 0 1-.855.653q-.543.234-1.262.234-.988 0-1.617-.422-.625-.422-.774-1.21l1.063-.188q.113.457.445.687.337.227.871.227.594 0 .946-.25.351-.25.351-.606a.64.64 0 0 0-.211-.488q-.21-.196-.648-.297l-1.008-.226q-.84-.188-1.234-.606-.395-.418-.395-1.055 0-.523.293-.921a1.9 1.9 0 0 1 .809-.621 3 3 0 0 1 1.183-.223q.954 0 1.5.414.548.41.735 1.098" class="fill-secondary"/><path fill-rule="evenodd" d="M358.603 20.07a.42.42 0 0 0 .594.594L361 18.86l1.803 1.803a.42.42 0 0 0 .594-.594l-2.1-2.1a.42.42 0 0 0-.594 0zm4.794 3.86a.42.42 0 1 0-.594-.594L361 25.14l-1.803-1.803a.42.42 0 1 0-.594.594l2.1 2.1a.42.42 0 0 0 .594 0z" clip-rule="evenodd" class="fill-symbol"/><path d="M16.5 41.5a1 1 0 0 1 1-1h266v23h-266a1 1 0 0 1-1-1z" class="fill-container"/><path d="M16.5 41.5a1 1 0 0 1 1-1h266v23h-266a1 1 0 0 1-1-1z" class="stroke-border"/><path d="M26.615 49.818a1.06 1.06 0 0 0-.492-.796q-.433-.283-1.06-.283-.459 0-.803.148a1.3 1.3 0 0 0-.533.408.98.98 0 0 0-.189.59q0 .278.132.476.135.196.344.328.21.128.439.212.229.081.421.132l.702.189q.27.07.6.195.335.126.638.341.307.213.506.546.2.334.2.82 0 .56-.294 1.012-.29.452-.85.719-.558.266-1.353.266-.743 0-1.286-.24a2.05 2.05 0 0 1-.85-.667 1.9 1.9 0 0 1-.347-.995h.863q.034.39.264.648.232.252.587.377.357.122.769.122.48 0 .86-.155.38-.159.604-.439a1.04 1.04 0 0 0 .223-.661.8.8 0 0 0-.193-.56 1.4 1.4 0 0 0-.506-.351 5 5 0 0 0-.678-.236l-.85-.243q-.81-.233-1.282-.665-.472-.431-.472-1.13 0-.58.313-1.012.318-.435.85-.675a2.9 2.9 0 0 1 1.198-.243q.668 0 1.188.24.519.235.823.648.307.411.324.934zm4.344 5.29q-.749 0-1.292-.33a2.2 2.2 0 0 1-.833-.932q-.29-.6-.29-1.396 0-.797.29-1.404a2.3 2.3 0 0 1 .816-.951q.526-.344 1.228-.344.405 0 .8.135t.719.438q.323.3.516.796.192.496.192 1.222v.337h-3.994v-.688h3.184a1.7 1.7 0 0 0-.175-.783 1.3 1.3 0 0 0-.493-.543 1.4 1.4 0 0 0-.749-.2q-.475 0-.823.237-.344.233-.53.607-.185.375-.185.803v.459q0 .587.203.995.206.405.57.618.364.209.846.209.315 0 .567-.088.256-.09.442-.27.186-.182.287-.452l.769.216q-.121.39-.408.688a2 2 0 0 1-.709.459 2.6 2.6 0 0 1-.948.162m4.153-7.017V55h-.796v-6.91zm3.631 7.017q-.75 0-1.292-.33a2.2 2.2 0 0 1-.833-.932q-.29-.6-.29-1.396 0-.797.29-1.404a2.3 2.3 0 0 1 .816-.951q.526-.344 1.228-.344.405 0 .8.135.394.135.718.438.324.3.516.796.193.496.193 1.222v.337h-3.995v-.688h3.185a1.7 1.7 0 0 0-.175-.783 1.3 1.3 0 0 0-.493-.543 1.4 1.4 0 0 0-.749-.2q-.475 0-.823.237-.344.233-.53.607-.185.375-.185.803v.459q0 .587.202.995.206.405.57.618.365.209.847.209.314 0 .567-.088.255-.09.442-.27.186-.182.286-.452l.77.216q-.121.39-.408.688a2 2 0 0 1-.709.459 2.6 2.6 0 0 1-.948.162m5.462 0q-.729 0-1.255-.344-.525-.345-.81-.948-.283-.605-.283-1.38 0-.789.29-1.393.294-.607.816-.948.526-.344 1.228-.344.547 0 .985.202.439.202.72.567t.346.85h-.796a1.24 1.24 0 0 0-.404-.627q-.31-.277-.837-.277-.466 0-.816.243-.348.24-.544.678-.192.435-.192 1.022 0 .6.189 1.046.192.445.54.692.35.246.823.246.31 0 .563-.108a1.16 1.16 0 0 0 .678-.796h.797a1.85 1.85 0 0 1-1.033 1.406 2.25 2.25 0 0 1-1.005.213m5.455-5.29v.675h-2.685v-.675zm-1.903-1.241h.796v4.939q0 .336.098.506.101.165.257.222.158.054.334.054a1.4 1.4 0 0 0 .35-.04l.162.715q-.08.03-.226.06-.145.035-.367.035-.338 0-.662-.146a1.3 1.3 0 0 1-.533-.441q-.209-.297-.209-.75zm7.297 6.544q-.492 0-.894-.185a1.54 1.54 0 0 1-.637-.543q-.236-.358-.236-.864 0-.445.175-.722.175-.28.469-.438.294-.16.648-.236.358-.082.718-.129.472-.06.766-.09.297-.034.432-.112.138-.078.138-.27v-.027q0-.5-.273-.776-.27-.276-.82-.277-.57 0-.894.25a1.5 1.5 0 0 0-.455.533l-.756-.27q.203-.473.54-.735.34-.267.742-.371a3 3 0 0 1 .796-.108q.25 0 .574.06.327.058.63.24.307.182.51.55.202.367.202.985V55h-.796v-.702h-.04a1.4 1.4 0 0 1-.27.361 1.6 1.6 0 0 1-.503.328q-.313.135-.766.134m.122-.715q.472 0 .796-.185a1.26 1.26 0 0 0 .661-1.097v-.728q-.05.06-.223.11-.168.048-.39.085a18 18 0 0 1-.763.102q-.31.04-.58.131a1 1 0 0 0-.432.267q-.162.175-.162.479 0 .414.307.627.31.21.786.21m6.378.594v-5.182h.77v.81h.067q.162-.416.523-.645.36-.232.867-.232.512 0 .854.233.344.228.536.644h.054a1.5 1.5 0 0 1 .597-.638q.398-.24.955-.24.695 0 1.137.436.441.431.442 1.346V55h-.797v-3.468q0-.573-.313-.82a1.16 1.16 0 0 0-.74-.246q-.546 0-.846.33-.3.328-.3.83V55h-.81v-3.549q0-.442-.287-.712-.285-.273-.739-.273-.31 0-.58.165-.266.165-.431.459a1.35 1.35 0 0 0-.163.671V55zm10.43.108q-.75 0-1.292-.33a2.2 2.2 0 0 1-.834-.932q-.29-.6-.29-1.396 0-.797.29-1.404a2.3 2.3 0 0 1 .817-.951q.525-.344 1.228-.344.404 0 .8.135.394.135.718.438.324.3.516.796t.192 1.222v.337h-3.994v-.688h3.185q0-.439-.176-.783a1.3 1.3 0 0 0-.492-.543 1.4 1.4 0 0 0-.75-.2q-.474 0-.822.237-.345.233-.53.607-.186.375-.185.803v.459q0 .587.202.995.206.405.57.618.364.209.847.209.314 0 .567-.088.256-.09.442-.27.185-.182.286-.452l.77.216q-.123.39-.409.688a2 2 0 0 1-.708.459 2.6 2.6 0 0 1-.948.162m4.881.013q-.492 0-.894-.185a1.53 1.53 0 0 1-.637-.543q-.237-.358-.236-.864 0-.445.175-.722.175-.28.469-.438.293-.16.648-.236.357-.082.718-.129.472-.06.766-.09.297-.034.432-.112.138-.078.138-.27v-.027q0-.5-.273-.776-.27-.276-.82-.277-.57 0-.894.25a1.5 1.5 0 0 0-.455.533l-.756-.27q.203-.473.54-.735.34-.267.742-.371a3 3 0 0 1 .796-.108q.25 0 .574.06.327.058.63.24.307.182.51.55.202.367.202.985V55h-.796v-.702h-.04a1.4 1.4 0 0 1-.27.361 1.6 1.6 0 0 1-.503.328q-.313.135-.766.134m.122-.715q.472 0 .796-.185a1.26 1.26 0 0 0 .661-1.097v-.728q-.051.06-.222.11-.169.048-.392.085a18 18 0 0 1-.762.102q-.31.04-.58.131a1 1 0 0 0-.432.267q-.162.175-.162.479 0 .414.307.627.31.21.786.21m7.377-3.427-.715.202a1.3 1.3 0 0 0-.2-.347 1 1 0 0 0-.35-.284 1.3 1.3 0 0 0-.57-.111q-.476 0-.793.22-.314.214-.314.55 0 .296.216.468t.675.287l.769.189q.695.168 1.036.516.34.344.34.887 0 .445-.256.796a1.7 1.7 0 0 1-.708.554 2.6 2.6 0 0 1-1.06.202q-.793 0-1.312-.344-.52-.345-.658-1.006l.756-.188q.108.419.408.627.303.21.793.21.555 0 .884-.237.33-.24.33-.573 0-.27-.189-.453-.189-.184-.58-.276l-.864-.203q-.712-.168-1.045-.522-.33-.359-.33-.894 0-.439.245-.776.25-.338.678-.53.432-.192.979-.192.769 0 1.208.337.441.338.627.89m4.558 1.902v-3.063h.797V55h-.796v-.877h-.054a1.7 1.7 0 0 1-.567.671q-.385.274-.972.274a1.73 1.73 0 0 1-.863-.213 1.5 1.5 0 0 1-.594-.648q-.216-.435-.216-1.096v-3.293h.796v3.239q0 .567.317.904.32.337.817.337.296 0 .603-.151.31-.153.52-.466.213-.315.213-.8M91.178 55v-5.182h.77v.783H92q.142-.386.513-.624.37-.24.837-.24a9 9 0 0 1 .418.014v.81a2 2 0 0 0-.186-.031 2 2 0 0 0-.3-.024q-.378 0-.675.159-.292.154-.465.432-.17.273-.169.624V55zm5.55.108q-.75 0-1.293-.33a2.2 2.2 0 0 1-.833-.932q-.29-.6-.29-1.396 0-.797.29-1.404a2.3 2.3 0 0 1 .817-.951q.526-.344 1.227-.344.405 0 .8.135t.719.438q.323.3.516.796.192.496.192 1.222v.337h-3.994v-.688h3.184a1.7 1.7 0 0 0-.175-.783 1.3 1.3 0 0 0-.493-.543 1.4 1.4 0 0 0-.749-.2q-.475 0-.823.237-.344.233-.53.607-.185.375-.185.803v.459q0 .587.203.995.206.405.57.618.364.209.847.209.314 0 .566-.088.257-.09.442-.27.186-.182.287-.452l.77.216q-.123.39-.41.688a2 2 0 0 1-.708.459 2.6 2.6 0 0 1-.948.162m3.936-.054a.58.58 0 0 1-.428-.179.59.59 0 0 1-.179-.428q0-.25.179-.429a.58.58 0 0 1 .428-.178q.25 0 .429.178.179.18.179.429 0 .165-.085.303a.63.63 0 0 1-.219.223.6.6 0 0 1-.304.081m2.617 0a.58.58 0 0 1-.429-.179.59.59 0 0 1-.179-.428q0-.25.179-.429a.58.58 0 0 1 .429-.178q.25 0 .428.178.179.18.179.429 0 .165-.084.303a.63.63 0 0 1-.22.223.6.6 0 0 1-.303.081m2.616 0a.59.59 0 0 1-.429-.179.58.58 0 0 1-.178-.428q0-.25.178-.429a.59.59 0 0 1 .429-.178q.25 0 .428.178.18.18.179.429 0 .165-.084.303a.6.6 0 0 1-.22.223.6.6 0 0 1-.303.081m2.616 0a.58.58 0 0 1-.428-.179.58.58 0 0 1-.179-.428q0-.25.179-.429a.58.58 0 0 1 .428-.178q.25 0 .429.178.178.18.178.429 0 .165-.084.303a.63.63 0 0 1-.219.223.6.6 0 0 1-.304.081" class="fill-ghost"/><path fill-rule="evenodd" d="M274 51.2a2.8 2.8 0 1 1-5.6 0 2.8 2.8 0 0 1 5.6 0m-.553 2.812a3.6 3.6 0 1 1 .566-.566l2.27 2.27a.4.4 0 0 1-.566.566z" clip-rule="evenodd" class="fill-hint"/><mask id="path-8-inside-1_8394_39502" class="fill-main-contrast"><path d="M284 40h81a3 3 0 0 1 3 3v18a3 3 0 0 1-3 3h-81z"/></mask><path d="M284 40h81a3 3 0 0 1 3 3v18a3 3 0 0 1-3 3h-81z" class="fill-component"/><path d="M284 39h81a4 4 0 0 1 4 4h-2a2 2 0 0 0-2-2h-81zm85 22a4 4 0 0 1-4 4h-81v-2h81a2 2 0 0 0 2-2zm-85 3V40zm81-25a4 4 0 0 1 4 4v18a4 4 0 0 1-4 4v-2a2 2 0 0 0 2-2V43a2 2 0 0 0-2-2z" mask="url(#path-8-inside-1_8394_39502)" class="fill-border"/><path fill-rule="evenodd" d="M298.4 48.2a.4.4 0 1 0-.8 0v3.4h-3.4a.4.4 0 1 0 0 .8h3.4v3.4a.4.4 0 1 0 .8 0v-3.4h3.4a.4.4 0 1 0 0-.8h-3.4z" clip-rule="evenodd" class="fill-symbol"/><path d="M311.84 55h-1.221l2.459-6.91h1.373L316.91 55h-1.221l-1.899-5.573h-.054zm.111-2.706h3.617v.938h-3.617zm7.658 2.8q-.62 0-1.106-.317t-.766-.914q-.28-.6-.28-1.444 0-.853.283-1.45.284-.597.773-.908.49-.31 1.103-.31.47 0 .762.158.294.155.463.371.169.213.259.385h.054v-2.574h1.117V55h-1.093v-.813h-.078q-.095.18-.269.391a1.4 1.4 0 0 1-.469.365q-.294.15-.753.151m.284-.927q.411 0 .698-.22a1.37 1.37 0 0 0 .435-.617 2.6 2.6 0 0 0 .152-.92q0-.524-.148-.912a1.3 1.3 0 0 0-.436-.6 1.13 1.13 0 0 0-.701-.216q-.432 0-.722.226a1.33 1.33 0 0 0-.435.614 2.5 2.5 0 0 0-.146.887q0 .502.149.9.149.399.435.628.29.23.719.23m5.682.927a2 2 0 0 1-1.107-.317q-.486-.317-.766-.914-.28-.6-.28-1.444 0-.853.284-1.45.283-.597.772-.908.49-.31 1.103-.31.47 0 .763.158.293.155.462.371.168.213.26.385h.054v-2.574h1.116V55h-1.093v-.813h-.077a2.4 2.4 0 0 1-.27.391 1.4 1.4 0 0 1-.469.365q-.293.15-.752.151m.283-.927q.411 0 .698-.22.288-.222.436-.617a2.6 2.6 0 0 0 .151-.92q0-.524-.148-.912a1.3 1.3 0 0 0-.435-.6 1.13 1.13 0 0 0-.702-.216q-.432 0-.722.226a1.34 1.34 0 0 0-.435.614 2.5 2.5 0 0 0-.145.887q0 .502.148.9.148.399.435.628.29.23.719.23m8.695-4.349v.877h-2.904v-.877zm-2.159-1.241h1.117v4.885q0 .266.081.408a.42.42 0 0 0 .212.189q.135.047.294.047.118 0 .209-.017l.145-.027.196.894q-.095.03-.267.068a2 2 0 0 1-.421.047 1.9 1.9 0 0 1-.786-.142 1.3 1.3 0 0 1-.571-.469q-.212-.317-.209-.796zm5.392 6.528q-.746 0-1.295-.334a2.3 2.3 0 0 1-.854-.938q-.3-.6-.3-1.4 0-.807.3-1.41.304-.605.854-.938.55-.334 1.295-.334.746 0 1.296.334.55.333.85.938.303.603.303 1.41 0 .8-.303 1.4-.3.6-.85.938-.55.334-1.296.334m.004-.915q.445 0 .735-.24.294-.238.439-.637.145-.4.145-.884 0-.486-.145-.887a1.43 1.43 0 0 0-.439-.644q-.29-.243-.735-.243-.45 0-.743.243-.293.24-.438.644a2.6 2.6 0 0 0-.145.887q0 .483.145.884.145.398.438.638t.743.24m6.032.81v-6.91h1.151v5.938h3.083V55zm5.304 0v-5.182h1.117V55zm.564-5.948a.67.67 0 0 1-.476-.185.6.6 0 0 1-.196-.449q0-.26.196-.445a.67.67 0 0 1 .476-.186.66.66 0 0 1 .472.186.59.59 0 0 1 .199.445.6.6 0 0 1-.199.449.66.66 0 0 1-.472.185m5.849 2.085-1.016.142a.9.9 0 0 0-.172-.324.86.86 0 0 0-.32-.253 1.15 1.15 0 0 0-.503-.098q-.405 0-.678.179-.27.18-.27.462 0 .243.182.392.183.148.591.246l.857.189q.725.162 1.079.506t.358.897q-.004.48-.28.847a1.8 1.8 0 0 1-.763.573q-.486.21-1.123.21-.914 0-1.478-.385a1.6 1.6 0 0 1-.685-1.09l1.083-.135q.088.368.361.557.274.186.712.186.466 0 .746-.193.28-.196.283-.475a.5.5 0 0 0-.179-.388q-.171-.156-.539-.236l-.878-.193q-.738-.158-1.089-.523-.351-.367-.348-.924a1.3 1.3 0 0 1 .257-.816q.259-.35.722-.544.465-.195 1.069-.195.874 0 1.376.378.507.374.645 1.008m3.664-1.319v.877h-2.904v-.877zm-2.159-1.241h1.117v4.885q0 .266.081.408a.42.42 0 0 0 .212.189q.135.047.294.047.118 0 .209-.017l.145-.027.196.894q-.094.03-.267.068a2 2 0 0 1-.421.047 1.9 1.9 0 0 1-.786-.142 1.3 1.3 0 0 1-.571-.469q-.212-.317-.209-.796z" class="fill-accent"/><path fill-rule="evenodd" d="M20.4 77.7a.9.9 0 1 0 0-1.8.9.9 0 0 0 0 1.8m3.2 0a.9.9 0 1 0 0-1.8.9.9 0 0 0 0 1.8m.9 2.3a.9.9 0 1 1-1.8 0 .9.9 0 0 1 1.8 0m-4.1.9a.9.9 0 1 0 0-1.8.9.9 0 0 0 0 1.8m4.1 2.3a.9.9 0 1 1-1.8 0 .9.9 0 0 1 1.8 0m-4.1.9a.9.9 0 1 0 0-1.8.9.9 0 0 0 0 1.8" clip-rule="evenodd" class="fill-ghost"/><path d="M32.902 84v-8h2.895q.847 0 1.402.281.56.281.832.758.274.477.274 1.067 0 .503-.184.843a1.5 1.5 0 0 1-.488.543q-.3.204-.664.297v.078q.39.024.77.262.379.234.628.668.25.434.25 1.059 0 .609-.285 1.093-.285.485-.883.77-.594.28-1.527.281zm1.149-.992h1.785q.89 0 1.27-.344.382-.344.382-.852 0-.386-.195-.71a1.4 1.4 0 0 0-.559-.516 1.77 1.77 0 0 0-.855-.195H34.05zm0-3.535h1.66q.414 0 .746-.157.336-.159.531-.453a1.2 1.2 0 0 0 .196-.687q0-.504-.352-.848t-1.09-.344h-1.691zM39.987 84v-6h1.07v.941h.063q.164-.472.582-.75.418-.28.95-.28.105 0 .253.007.153.004.239.016v1.074a2 2 0 0 0-.239-.043 2.3 2.3 0 0 0-.36-.028q-.417.001-.745.176a1.35 1.35 0 0 0-.52.485 1.33 1.33 0 0 0-.187.707V84zm6.563.121q-.879 0-1.516-.379a2.55 2.55 0 0 1-.98-1.074q-.344-.695-.344-1.625 0-.922.344-1.625.344-.707.96-1.102.622-.394 1.45-.394.5 0 .969.164.473.165.851.523.38.355.598.93.222.574.223 1.395v.406H44.37v-.856h3.64a1.8 1.8 0 0 0-.195-.836 1.4 1.4 0 0 0-.535-.582 1.5 1.5 0 0 0-.808-.214q-.508 0-.883.25a1.7 1.7 0 0 0-.574.644 1.87 1.87 0 0 0-.203.86v.644q0 .621.218 1.055.22.434.61.66.395.226.918.226.344 0 .62-.097.279-.098.481-.293.204-.195.313-.485l1.05.211q-.133.48-.472.84-.34.36-.848.559-.507.195-1.152.195m5.629.012q-.57 0-1.032-.211a1.74 1.74 0 0 1-.73-.621q-.27-.411-.27-.996 0-.512.196-.836.2-.328.531-.516.336-.19.746-.285.41-.098.836-.152l.875-.102q.336-.043.492-.133.156-.093.157-.308v-.028q0-.526-.297-.816-.294-.293-.875-.293-.61 0-.957.266a1.45 1.45 0 0 0-.48.585l-1.044-.265q.207-.547.586-.875.379-.332.863-.477a3.45 3.45 0 0 1 1.746-.066q.399.078.754.3.355.22.582.633.227.415.227 1.086V84h-1.086v-.816h-.047q-.105.215-.332.437a1.8 1.8 0 0 1-.582.367 2.3 2.3 0 0 1-.86.145m.226-.906q.5 0 .852-.196.355-.199.539-.515.184-.32.184-.68v-.793a.6.6 0 0 1-.247.121q-.18.051-.414.09-.23.039-.453.066l-.367.047q-.344.046-.633.149a1.1 1.1 0 0 0-.46.296q-.173.192-.173.512 0 .445.329.676.33.227.843.227m8.698-3.793-1 .199a1.4 1.4 0 0 0-.214-.39 1.05 1.05 0 0 0-.391-.305 1.4 1.4 0 0 0-.621-.122q-.508 0-.852.23-.34.228-.335.583a.6.6 0 0 0 .226.5q.231.188.734.308l.942.22q.82.19 1.223.593.405.4.406 1.031 0 .536-.309.953-.308.414-.855.653-.543.234-1.262.234-.989 0-1.617-.422-.625-.422-.774-1.21l1.063-.188q.113.458.445.687.336.227.871.227.594 0 .945-.25.352-.25.352-.606a.64.64 0 0 0-.21-.488q-.212-.196-.65-.297l-1.007-.226q-.84-.187-1.235-.606-.394-.418-.394-1.055 0-.524.293-.921.293-.399.808-.622a3 3 0 0 1 1.184-.222q.954 0 1.5.414.548.41.734 1.098M65.278 78v.898H62.04V78zm-2.351-1.437h1.105v5.687q0 .351.106.527.105.176.273.239.168.062.36.062.144 0 .246-.02l.164-.03.207.929a2 2 0 0 1-.285.078 2 2 0 0 1-.457.043 2 2 0 0 1-.836-.164 1.5 1.5 0 0 1-.641-.527q-.242-.355-.242-.895zm13.314 2.011H75.09a2 2 0 0 0-.274-.695 2.006 2.006 0 0 0-1.113-.828 2.5 2.5 0 0 0-.734-.106q-.7 0-1.258.352-.555.352-.879 1.035-.32.68-.32 1.668 0 .993.324 1.676.325.68.879 1.031.555.348 1.254.348.382 0 .73-.102.348-.105.63-.312.284-.208.483-.508.2-.3.278-.692l1.152.004a3.2 3.2 0 0 1-.383 1.09 3 3 0 0 1-.714.844 3.2 3.2 0 0 1-.985.543q-.555.187-1.199.187-1.035 0-1.844-.496-.808-.495-1.273-1.418-.465-.921-.465-2.195 0-1.278.465-2.195.468-.923 1.277-1.418.809-.496 1.84-.496.63 0 1.176.18.55.18.988.527t.727.843.39 1.133m3.126 5.559q-.57 0-1.031-.211a1.74 1.74 0 0 1-.73-.621q-.27-.411-.27-.996 0-.512.195-.836.2-.328.531-.516.337-.19.747-.285.41-.098.835-.152l.875-.102q.337-.043.493-.133.156-.093.156-.308v-.028q0-.526-.297-.816-.293-.293-.875-.293-.609 0-.957.266a1.45 1.45 0 0 0-.48.585l-1.043-.265q.207-.547.586-.875.378-.332.863-.477a3.45 3.45 0 0 1 1.746-.066q.399.078.754.3.355.22.582.633.226.415.226 1.086V84h-1.085v-.816h-.047q-.105.215-.332.437a1.8 1.8 0 0 1-.582.367 2.3 2.3 0 0 1-.86.145m.227-.906q.5 0 .851-.196.356-.199.54-.515.183-.32.183-.68v-.793a.6.6 0 0 1-.246.121q-.18.051-.414.09-.231.039-.453.066l-.368.047q-.344.046-.632.149a1.1 1.1 0 0 0-.461.296q-.172.192-.172.512 0 .445.328.676.332.227.844.227m5.37-2.801V84h-1.106v-6h1.063v.969h.074q.21-.477.649-.762t1.117-.285q.613 0 1.07.254.461.254.715.758.258.503.254 1.25V84h-1.106v-3.695q0-.668-.347-1.043-.345-.375-.95-.375-.414 0-.738.183-.324.18-.512.524-.183.343-.183.832m7.94 3.695q-.862 0-1.488-.394a2.6 2.6 0 0 1-.957-1.098q-.332-.699-.332-1.602 0-.914.344-1.613.344-.704.96-1.098.622-.394 1.462-.394.667 0 1.195.246.53.246.86.695.328.446.394 1.04H94.26a1.4 1.4 0 0 0-.438-.727q-.34-.309-.914-.309a1.5 1.5 0 0 0-.875.262q-.375.261-.586.742-.207.477-.207 1.129 0 .665.203 1.152.207.489.582.754.376.266.883.266.345 0 .617-.121.278-.125.465-.356.192-.23.27-.558h1.082q-.066.57-.383 1.02-.312.448-.836.706-.52.258-1.219.258m6.282 0q-.877 0-1.515-.379a2.55 2.55 0 0 1-.98-1.074q-.345-.695-.344-1.625 0-.922.343-1.625.345-.707.961-1.102.621-.394 1.45-.394.5 0 .968.164.472.165.852.523.38.355.598.93.222.574.222 1.395v.406h-4.734v-.856h3.64a1.8 1.8 0 0 0-.195-.836 1.4 1.4 0 0 0-.535-.582 1.5 1.5 0 0 0-.809-.214q-.507 0-.882.25a1.67 1.67 0 0 0-.575.644 1.87 1.87 0 0 0-.203.86v.644q0 .621.219 1.055t.61.66q.393.226.917.226.344 0 .621-.097a1.3 1.3 0 0 0 .481-.293q.203-.195.312-.485l1.051.211q-.132.48-.472.84t-.848.559q-.508.195-1.153.195m3.879-.121v-6h1.071v.941h.062q.165-.472.582-.75.418-.28.949-.28.106 0 .254.007.153.004.239.016v1.074a2 2 0 0 0-.239-.043 2.3 2.3 0 0 0-.359-.028q-.418.001-.746.176a1.35 1.35 0 0 0-.52.485 1.33 1.33 0 0 0-.187.707V84zm11.62-5.926a1.16 1.16 0 0 0-.528-.875q-.465-.312-1.16-.312-.504 0-.875.16a1.33 1.33 0 0 0-.57.434 1.07 1.07 0 0 0-.203.628q0 .294.14.504t.364.356q.226.141.484.234.258.09.488.149l.789.207q.367.09.766.25.399.156.742.414.347.257.563.644.218.387.218.934 0 .667-.347 1.195-.344.528-1.004.832-.657.305-1.594.305-.887 0-1.535-.281a2.4 2.4 0 0 1-1.02-.797 2.3 2.3 0 0 1-.406-1.23h1.16q.036.44.285.73.255.285.649.425.395.141.863.141.523 0 .934-.164.41-.168.648-.469t.238-.703a.87.87 0 0 0-.207-.597 1.5 1.5 0 0 0-.554-.383 6 6 0 0 0-.774-.266l-.957-.262q-.957-.265-1.515-.77-.555-.507-.555-1.335 0-.684.371-1.195.375-.516 1.012-.801t1.429-.285q.801 0 1.418.285.618.28.977.773.36.492.375 1.125zm5.096 6.047q-.863 0-1.488-.394a2.6 2.6 0 0 1-.957-1.098q-.332-.699-.332-1.602 0-.914.344-1.613.343-.704.961-1.098.621-.394 1.461-.394.667 0 1.195.246.53.246.859.695.328.446.395 1.04h-1.082a1.4 1.4 0 0 0-.438-.727q-.34-.309-.914-.309a1.5 1.5 0 0 0-.875.262q-.375.261-.586.742-.207.477-.207 1.129 0 .665.203 1.152.207.489.582.754.376.266.883.266.344 0 .617-.121.278-.125.465-.356.192-.23.27-.558h1.082q-.067.57-.383 1.02-.312.448-.836.706-.52.258-1.219.258m3.716-.121v-6h1.07v.941h.063q.163-.472.582-.75.418-.28.949-.28.105 0 .254.007.153.004.238.016v1.074a2 2 0 0 0-.238-.043 2.3 2.3 0 0 0-.359-.028q-.419.001-.746.176a1.35 1.35 0 0 0-.52.485 1.33 1.33 0 0 0-.187.707V84zm6.563.121q-.88 0-1.516-.379a2.55 2.55 0 0 1-.981-1.074q-.343-.695-.343-1.625 0-.922.343-1.625.345-.707.961-1.102.621-.394 1.45-.394.5 0 .968.164.472.165.852.523.38.355.598.93.222.574.222 1.395v.406h-4.734v-.856h3.641a1.8 1.8 0 0 0-.196-.836 1.4 1.4 0 0 0-.535-.582 1.5 1.5 0 0 0-.809-.214q-.507 0-.882.25a1.7 1.7 0 0 0-.575.644 1.9 1.9 0 0 0-.203.86v.644q0 .621.219 1.055t.609.66q.394.226.918.226.345 0 .621-.097a1.3 1.3 0 0 0 .481-.293q.203-.195.312-.485l1.051.211q-.132.48-.472.84t-.848.559q-.509.195-1.152.195m6.445 0q-.879 0-1.516-.379a2.55 2.55 0 0 1-.98-1.074q-.344-.695-.344-1.625 0-.922.344-1.625.343-.707.961-1.102.621-.394 1.449-.394.5 0 .969.164.473.165.851.523.38.355.598.93.222.574.223 1.395v.406h-4.735v-.856h3.641a1.8 1.8 0 0 0-.195-.836 1.4 1.4 0 0 0-.536-.582 1.5 1.5 0 0 0-.808-.214q-.508 0-.883.25a1.67 1.67 0 0 0-.574.644 1.86 1.86 0 0 0-.203.86v.644q0 .621.218 1.055.219.434.61.66.394.226.918.226.344 0 .621-.097.278-.098.48-.293.204-.195.313-.485l1.051.211q-.134.48-.473.84-.34.36-.848.559-.507.195-1.152.195m4.633-.05a.73.73 0 0 1-.539-.223.73.73 0 0 1-.223-.54q0-.312.223-.535a.73.73 0 0 1 .539-.222q.308 0 .535.222a.72.72 0 0 1 .226.536.74.74 0 0 1-.105.386.8.8 0 0 1-.277.274.73.73 0 0 1-.379.101m2.941 0a.73.73 0 0 1-.539-.223.74.74 0 0 1-.223-.54q0-.312.223-.535a.73.73 0 0 1 .539-.222q.309 0 .535.222a.72.72 0 0 1 .227.536q0 .211-.106.386a.8.8 0 0 1-.277.274.73.73 0 0 1-.379.101m2.938 0a.73.73 0 0 1-.539-.223.73.73 0 0 1-.223-.54q0-.312.223-.535a.73.73 0 0 1 .539-.222q.308 0 .535.222a.72.72 0 0 1 .226.536.74.74 0 0 1-.105.386.8.8 0 0 1-.277.274.73.73 0 0 1-.379.101" class="fill-accent"/><g clip-path="url(#clip0_8394_39502)" class="fill-main"><path d="M165 72h16v16h-16z" opacity=".2"/><path d="M182 72h16v16h-16zM199 72h16v16h-16z" opacity=".3"/><path d="M216 72h16v16h-16z" opacity=".5"/><path d="M233 72h16v16h-16z" opacity=".3"/><path d="M250 72h16v16h-16z" opacity=".5"/><path d="M267 72h16v16h-16z" opacity=".2"/><path d="M284 72h16v16h-16z" opacity=".8"/><path d="M301 72h16v16h-16z" opacity=".1"/><path d="M318 72h16v16h-16z" opacity=".9"/><path d="M335 72h16v16h-16z" opacity=".8"/><path d="M352 72h16v16h-16z"/></g><path d="M16 89h352v16H16z" class="fill-tint"/><path fill-rule="evenodd" d="M20.4 94.7a.9.9 0 1 0 0-1.8.9.9 0 0 0 0 1.8m3.2 0a.9.9 0 1 0 0-1.8.9.9 0 0 0 0 1.8m.9 2.3a.9.9 0 1 1-1.8 0 .9.9 0 0 1 1.8 0m-4.1.9a.9.9 0 1 0 0-1.8.9.9 0 0 0 0 1.8m4.1 2.3a.9.9 0 1 1-1.8 0 .9.9 0 0 1 1.8 0m-4.1.9a.9.9 0 1 0 0-1.8.9.9 0 0 0 0 1.8" clip-rule="evenodd" class="fill-ghost"/><path d="M32.809 101v-8h1.39v3.41h3.782V93h1.386v8h-1.386v-3.418h-3.782V101zm10.749.121q-.903 0-1.555-.379a2.57 2.57 0 0 1-1-1.074q-.348-.696-.348-1.633 0-.926.352-1.625a2.64 2.64 0 0 1 .984-1.094q.633-.394 1.489-.394.543 0 1.03.176.494.175.872.543.379.366.598.941.218.57.218 1.367v.43h-4.883v-.934h3.579q0-.42-.176-.75a1.3 1.3 0 0 0-.492-.515 1.4 1.4 0 0 0-.73-.188q-.45 0-.79.215a1.47 1.47 0 0 0-.52.566 1.64 1.64 0 0 0-.187.762v.793q0 .543.195.93.196.386.547.59.355.203.832.203.314 0 .57-.09a1.2 1.2 0 0 0 .442-.266q.187-.18.285-.441l1.27.164a2.05 2.05 0 0 1-.477.894 2.35 2.35 0 0 1-.883.598 3.3 3.3 0 0 1-1.222.211m3.854-.121v-6h1.297v1.008h.074q.187-.508.617-.797t1.028-.29q.609 0 1.027.294.418.29.594.793h.062q.204-.492.676-.79.477-.296 1.129-.296.824 0 1.344.52.52.519.52 1.53V101h-1.352v-3.836q0-.57-.309-.832a1.1 1.1 0 0 0-.742-.266q-.528 0-.82.328-.293.326-.293.84V101h-1.332v-3.894q0-.474-.285-.754-.285-.286-.743-.286a1.06 1.06 0 0 0-.57.16q-.258.16-.414.45a1.4 1.4 0 0 0-.152.66V101zm12.438.121q-.872 0-1.512-.387a2.63 2.63 0 0 1-.992-1.086q-.352-.695-.352-1.62 0-.934.352-1.634.351-.7.992-1.085.64-.387 1.512-.387.87 0 1.511.387.64.386.992 1.085.352.7.352 1.633 0 .926-.352 1.621a2.63 2.63 0 0 1-.992 1.086q-.64.387-1.511.387m.003-1.098q.5 0 .829-.27a1.6 1.6 0 0 0 .488-.722q.165-.457.164-1.012 0-.555-.164-1.011a1.6 1.6 0 0 0-.488-.727q-.329-.273-.829-.273t-.831.273q-.332.27-.497.727-.16.457-.16 1.011 0 .556.16 1.012.164.453.497.723.33.27.831.269m6.656 3.352q-.75 0-1.29-.199a2.35 2.35 0 0 1-.866-.535 1.95 1.95 0 0 1-.465-.743l1.203-.335q.094.175.262.351.168.18.453.301.289.125.726.125.618 0 1.02-.301.405-.3.406-.973v-1.148h-.074q-.105.215-.313.445a1.6 1.6 0 0 1-.547.391q-.343.156-.867.156-.695 0-1.258-.324-.563-.329-.894-.98-.328-.653-.328-1.625 0-.981.328-1.665.329-.683.89-1.039.567-.355 1.266-.355.54 0 .879.18.344.18.543.43.2.245.309.452h.074V95h1.336v6.105q0 .77-.367 1.274a2.16 2.16 0 0 1-.996.75q-.63.246-1.43.246m.008-3.54q.465 0 .789-.222t.492-.64q.172-.419.172-1.004 0-.579-.168-1.012a1.5 1.5 0 0 0-.492-.676 1.3 1.3 0 0 0-.793-.242q-.484 0-.813.254a1.5 1.5 0 0 0-.488.688q-.165.436-.164.988 0 .563.168.984.168.418.492.653.324.23.805.23M72.132 93v8h-1.356v-8zm4.078 8.121q-.87 0-1.512-.387a2.63 2.63 0 0 1-.992-1.086q-.352-.695-.352-1.62 0-.934.352-1.634.351-.7.992-1.085.64-.387 1.512-.387.87 0 1.512.387.64.386.992 1.085.351.7.351 1.633 0 .926-.351 1.621a2.63 2.63 0 0 1-.992 1.086q-.64.387-1.512.387m.004-1.098q.5 0 .828-.27.329-.269.488-.722.165-.457.164-1.012 0-.555-.164-1.011a1.6 1.6 0 0 0-.488-.727q-.328-.273-.828-.273t-.832.273q-.333.27-.496.727-.16.457-.16 1.011 0 .556.16 1.012.165.453.496.723t.832.269m4.14.977v-8h1.355v2.984h.063q.105-.207.3-.453.2-.25.54-.43t.878-.18q.7 0 1.262.36.567.355.895 1.047.327.688.328 1.684 0 .98-.325 1.675-.324.691-.886 1.059a2.3 2.3 0 0 1-1.27.363q-.524 0-.867-.172a1.7 1.7 0 0 1-.543-.421 2.6 2.6 0 0 1-.312-.461h-.09V101zm1.328-3q0 .593.168 1.043.172.449.496.7t.789.25q.476 0 .8-.259.33-.261.497-.71.168-.454.168-1.024a2.8 2.8 0 0 0-.168-1.008 1.54 1.54 0 0 0-.489-.699q-.324-.254-.808-.254-.473 0-.797.246-.32.243-.488.684A2.9 2.9 0 0 0 81.682 98m5.52 3v-6h1.355v6zm.683-6.867a.8.8 0 0 1-.563-.219.71.71 0 0 1-.234-.535q0-.31.234-.527a.79.79 0 0 1 .563-.223q.328 0 .562.223a.7.7 0 0 1 .235.527.71.71 0 0 1-.235.535.8.8 0 0 1-.562.219m3.508 3.34V101h-1.356v-6h1.297v1.008h.074q.203-.495.656-.79.454-.296 1.126-.296.615 0 1.078.266.466.262.718.765.258.504.258 1.23V101H93.89v-3.617q0-.618-.32-.961-.317-.348-.876-.348-.378 0-.671.164-.294.165-.462.477a1.6 1.6 0 0 0-.167.758m9.109 3.527h-1.48l2.835-8h1.688l2.832 8h-1.481l-2.164-6.406h-.062zm.09-3.137h4.203v1.13h-4.203zM111.655 93v8h-1.39v-6.64h-.047l-1.883 1.21v-1.285L110.323 93zm9.949 2.676h-1.402a1.8 1.8 0 0 0-.238-.649 1.8 1.8 0 0 0-.43-.484 1.9 1.9 0 0 0-.582-.3 2.3 2.3 0 0 0-.691-.102q-.664 0-1.18.332-.511.332-.805.972-.293.637-.293 1.555 0 .933.293 1.57.294.637.805.965.515.324 1.172.324.363 0 .684-.097.324-.098.582-.29a1.7 1.7 0 0 0 .437-.468q.176-.282.246-.64l1.402.003a3.117 3.117 0 0 1-1.07 1.949q-.437.375-1.015.586a3.8 3.8 0 0 1-1.282.207q-1.05 0-1.875-.488-.823-.492-1.297-1.41-.472-.922-.472-2.211 0-1.29.476-2.207.477-.922 1.301-1.41.825-.492 1.867-.492.66 0 1.227.187.57.187 1.015.547.45.355.739.871.293.516.386 1.18m3.787-1.504V93h6.332v1.172h-2.477V101h-1.379v-6.828zm9.293 6.949q-.903 0-1.555-.379a2.57 2.57 0 0 1-1-1.074q-.348-.696-.348-1.633 0-.926.352-1.625.351-.703.984-1.094.633-.394 1.488-.394.543 0 1.032.176a2.4 2.4 0 0 1 .871.543q.379.366.597.941.219.57.219 1.367v.43h-4.883v-.934h3.579q0-.42-.176-.75a1.3 1.3 0 0 0-.492-.515 1.4 1.4 0 0 0-.731-.188q-.448 0-.789.215a1.47 1.47 0 0 0-.519.566 1.64 1.64 0 0 0-.188.762v.793q0 .543.195.93.196.386.547.59.356.203.832.203.313 0 .571-.09t.441-.266q.188-.18.285-.441l1.27.164a2.05 2.05 0 0 1-.477.894 2.35 2.35 0 0 1-.883.598 3.3 3.3 0 0 1-1.222.211m8.538-4.562-1.235.152a1.1 1.1 0 0 0-.191-.375 1 1 0 0 0-.367-.285 1.3 1.3 0 0 0-.567-.11q-.457 0-.765.2-.305.199-.305.52 0 .269.203.437.207.168.672.277l1.004.219q.848.187 1.262.586t.414 1.039q0 .558-.325.988-.324.429-.894.672-.57.242-1.316.242-1.079 0-1.743-.457-.66-.457-.797-1.277l1.321-.14a.98.98 0 0 0 .406.624q.312.211.809.211.523 0 .836-.215.315-.214.32-.531a.56.56 0 0 0-.203-.434q-.2-.175-.617-.265l-1.024-.219q-.855-.183-1.266-.61-.41-.425-.41-1.074 0-.55.301-.957.305-.405.848-.629.543-.225 1.254-.226 1.03 0 1.625.445.597.441.75 1.192m2.192 4.527a.82.82 0 0 1-.594-.246.8.8 0 0 1-.246-.594q0-.344.246-.59a.82.82 0 0 1 .594-.246q.34 0 .59.246t.25.59a.8.8 0 0 1-.117.422.95.95 0 0 1-.305.305.8.8 0 0 1-.418.113m2.856 0a.82.82 0 0 1-.594-.246.8.8 0 0 1-.246-.594q0-.344.246-.59a.82.82 0 0 1 .594-.246q.34 0 .589.246.25.246.25.59a.8.8 0 0 1-.117.422.94.94 0 0 1-.304.305.8.8 0 0 1-.418.113m2.859 0a.82.82 0 0 1-.594-.246.8.8 0 0 1-.246-.594q0-.344.246-.59a.82.82 0 0 1 .594-.246q.34 0 .59.246t.25.59a.8.8 0 0 1-.117.422.96.96 0 0 1-.305.305.8.8 0 0 1-.418.113" class="fill-primary"/><g clip-path="url(#clip1_8394_39502)" class="fill-main"><path d="M165 89h16v16h-16zM182 89h16v16h-16z" opacity=".3"/><path d="M199 89h16v16h-16z" opacity=".2"/><path d="M216 89h16v16h-16z" opacity=".5"/><path d="M233 89h16v16h-16z" opacity=".7"/><path d="M250 89h16v16h-16z" opacity=".5"/><path d="M267 89h16v16h-16z" opacity=".1"/><path d="M284 89h16v16h-16z" opacity=".5"/><path d="M301 89h16v16h-16z" opacity=".8"/><path d="M318 89h16v16h-16z" opacity=".5"/><path d="M335 89h16v16h-16z" opacity=".9"/><path d="M352 89h16v16h-16z" opacity=".8"/></g><path fill-rule="evenodd" d="M20.4 111.7a.9.9 0 1 0 0-1.8.9.9 0 0 0 0 1.8m3.2 0a.9.9 0 1 0 0-1.8.9.9 0 0 0 0 1.8m.9 2.3a.9.9 0 1 1-1.8 0 .9.9 0 0 1 1.8 0m-4.1.9a.9.9 0 1 0 0-1.8.9.9 0 0 0 0 1.8m4.1 2.3a.9.9 0 1 1-1.8 0 .9.9 0 0 1 1.8 0m-4.1.9a.9.9 0 1 0 0-1.8.9.9 0 0 0 0 1.8" clip-rule="evenodd" class="fill-ghost"/><path d="M35.46 118h-2.558v-8h2.649q1.172 0 2.011.48.84.477 1.29 1.372.449.89.449 2.136 0 1.25-.453 2.149a3.2 3.2 0 0 1-1.313 1.383q-.856.48-2.074.48m-1.41-1.008h1.345q.933 0 1.55-.351.618-.356.922-1.028.309-.672.309-1.625 0-.949-.305-1.613a2.17 2.17 0 0 0-.902-1.016q-.598-.351-1.489-.351h-1.43zM40.73 118v-6h1.105v6zm.558-6.945a.72.72 0 0 1-.508-.2.63.63 0 0 1-.21-.476q0-.282.21-.481a.73.73 0 0 1 .508-.199q.297 0 .508.199.21.2.21.481a.63.63 0 0 1-.21.476q-.21.2-.508.2m3.898 7.078q-.57 0-1.03-.211a1.73 1.73 0 0 1-.731-.621q-.27-.411-.27-.996 0-.512.196-.836a1.44 1.44 0 0 1 .53-.516q.337-.191.747-.285.41-.098.836-.152l.875-.102q.336-.043.492-.133.156-.093.156-.308v-.028q0-.526-.296-.816-.294-.293-.875-.293-.61 0-.958.266-.347.266-.48.585l-1.043-.265q.207-.547.586-.875.378-.332.863-.477a3.44 3.44 0 0 1 1.746-.066 2.2 2.2 0 0 1 .754.301q.355.218.582.632t.227 1.086V118h-1.086v-.816h-.047q-.105.215-.332.437a1.8 1.8 0 0 1-.582.367 2.3 2.3 0 0 1-.86.145m.227-.906q.5 0 .852-.196a1.347 1.347 0 0 0 .723-1.195v-.793a.6.6 0 0 1-.247.121q-.18.051-.414.09a10 10 0 0 1-.453.066l-.367.047q-.344.047-.633.149a1.07 1.07 0 0 0-.46.296q-.173.192-.173.512 0 .445.328.676.333.227.844.227m4.366.773v-8h1.106v2.969h.07q.105-.18.293-.426.187-.246.527-.434.345-.187.907-.187.734 0 1.304.371.575.368.899 1.062.328.691.328 1.657 0 .969-.324 1.664t-.895 1.07a2.32 2.32 0 0 1-1.3.371q-.555 0-.9-.183a1.7 1.7 0 0 1-.538-.434 3.6 3.6 0 0 1-.3-.43h-.099v.93zm1.086-3q0 .645.184 1.133.187.484.543.758.36.273.875.273.54 0 .898-.285a1.73 1.73 0 0 0 .547-.774 3.1 3.1 0 0 0 .184-1.105q0-.606-.18-1.086t-.543-.758q-.363-.28-.906-.281-.52 0-.88.266a1.6 1.6 0 0 0-.538.746 3.1 3.1 0 0 0-.184 1.113m8.243 3.121q-.878 0-1.515-.379a2.54 2.54 0 0 1-.98-1.074q-.345-.695-.344-1.625 0-.922.343-1.625.345-.707.961-1.102.62-.394 1.45-.394.5 0 .968.164.473.164.852.523.379.355.598.93.222.574.222 1.395v.406h-4.734v-.856h3.64a1.8 1.8 0 0 0-.195-.836 1.4 1.4 0 0 0-.535-.582 1.5 1.5 0 0 0-.809-.214q-.508 0-.883.25a1.67 1.67 0 0 0-.574.644 1.87 1.87 0 0 0-.203.859v.645q0 .621.219 1.055t.61.66q.393.226.917.226.344 0 .621-.097.278-.098.48-.293.204-.195.313-.485l1.051.211a1.96 1.96 0 0 1-.473.84q-.34.36-.847.559-.508.195-1.153.195M65.74 112v.898h-3.238V112zm-2.351-1.438h1.105v5.688q0 .351.106.527.105.177.273.239t.36.062q.144 0 .245-.019l.165-.032.207.93a2 2 0 0 1-.285.078 2 2 0 0 1-.458.043 2 2 0 0 1-.835-.164 1.5 1.5 0 0 1-.641-.527q-.242-.355-.242-.895zm6.17 7.559q-.877 0-1.515-.379a2.54 2.54 0 0 1-.98-1.074q-.345-.695-.344-1.625 0-.922.344-1.625.344-.707.96-1.102.622-.394 1.45-.394.5 0 .968.164.474.164.852.523.378.355.598.93.222.574.222 1.395v.406H67.38v-.856h3.64a1.8 1.8 0 0 0-.195-.836 1.4 1.4 0 0 0-.535-.582 1.5 1.5 0 0 0-.809-.214q-.507 0-.882.25a1.67 1.67 0 0 0-.575.644 1.9 1.9 0 0 0-.203.859v.645q0 .621.219 1.055t.61.66q.393.226.917.226.345 0 .622-.097.277-.098.48-.293t.312-.485l1.051.211a1.96 1.96 0 0 1-.472.84q-.34.36-.848.559-.509.195-1.152.195m8.313-4.687-1 .199a1.4 1.4 0 0 0-.215-.391 1.06 1.06 0 0 0-.39-.305 1.4 1.4 0 0 0-.621-.121q-.508 0-.852.231-.34.227-.336.582a.6.6 0 0 0 .227.5q.23.188.734.308l.941.219q.82.192 1.223.594.405.398.406 1.031 0 .536-.308.953-.309.414-.856.653-.543.234-1.261.234-.989 0-1.618-.422-.624-.422-.773-1.211l1.062-.187q.113.457.446.687.336.227.87.227.595 0 .946-.25t.352-.606a.64.64 0 0 0-.211-.488q-.21-.195-.649-.297l-1.008-.226q-.839-.188-1.234-.606-.394-.417-.394-1.055 0-.523.293-.921.292-.399.808-.621a3 3 0 0 1 1.184-.223q.953 0 1.5.414.547.41.734 1.098M82.35 118v-8h4.968v.992h-3.82v2.504h3.563v.992h-3.563v2.52h3.871V118zm7.215 2.25a2.5 2.5 0 0 1-.461-.039 1.3 1.3 0 0 1-.305-.086l.27-.918q.327.086.578.07a.68.68 0 0 0 .445-.199q.195-.183.351-.598l.153-.414L88.392 112h1.187l1.555 4.687h.062L92.751 112h1.188l-2.493 6.82q-.171.47-.433.789a1.7 1.7 0 0 1-.621.481q-.36.16-.828.16m7.85-2.129q-.879 0-1.516-.379a2.54 2.54 0 0 1-.98-1.074q-.344-.695-.344-1.625 0-.922.344-1.625.345-.707.96-1.102.622-.394 1.45-.394.5 0 .969.164.473.164.851.523.38.355.598.93.222.574.223 1.395v.406h-4.735v-.856h3.641a1.8 1.8 0 0 0-.195-.836 1.4 1.4 0 0 0-.536-.582 1.5 1.5 0 0 0-.808-.214q-.508 0-.883.25a1.67 1.67 0 0 0-.574.644 1.9 1.9 0 0 0-.203.859v.645q0 .621.218 1.055.22.434.61.66.395.226.918.226.344 0 .621-.097.277-.098.48-.293.204-.195.313-.485l1.05.211a1.96 1.96 0 0 1-.472.84q-.34.36-.848.559-.507.195-1.152.195m6.935-.121v-8h4.968v.992h-3.82v2.504h3.563v.992h-3.563v2.52h3.871V118zm7.379-6 1.351 2.363 1.359-2.363h1.227l-1.891 3 1.903 3h-1.223l-1.375-2.266-1.371 2.266h-1.227l1.879-3-1.859-3zm6.902 6.133q-.57 0-1.031-.211a1.73 1.73 0 0 1-.731-.621q-.27-.411-.269-.996 0-.512.195-.836.2-.328.531-.516.336-.191.746-.285.41-.098.836-.152l.875-.102q.336-.043.492-.133.157-.093.157-.308v-.028q0-.526-.297-.816-.293-.293-.875-.293-.609 0-.957.266a1.45 1.45 0 0 0-.481.585l-1.043-.265a2.1 2.1 0 0 1 .586-.875q.38-.332.864-.477a3.44 3.44 0 0 1 1.746-.066q.398.078.754.301.355.218.582.632t.226 1.086V118h-1.086v-.816h-.047q-.105.215-.332.437a1.8 1.8 0 0 1-.582.367 2.3 2.3 0 0 1-.859.145m.226-.906q.501 0 .852-.196.356-.199.539-.515.183-.32.184-.68v-.793a.6.6 0 0 1-.246.121q-.18.051-.414.09a10 10 0 0 1-.454.066l-.367.047a3.2 3.2 0 0 0-.633.149 1.1 1.1 0 0 0-.461.296q-.171.192-.171.512 0 .445.328.676.332.227.843.227m4.265.773v-6h1.063v.969h.074q.188-.492.609-.77.426-.277 1.02-.277.597 0 1.004.277.406.278.609.77h.062q.219-.48.684-.762.465-.285 1.113-.285.817 0 1.332.512.516.507.516 1.546V118h-1.109v-3.938q0-.624-.34-.898a1.22 1.22 0 0 0-.805-.277q-.59 0-.914.359-.324.355-.324.91V118h-1.106v-4.02q0-.492-.312-.792t-.809-.301q-.336 0-.625.179a1.3 1.3 0 0 0-.465.493 1.5 1.5 0 0 0-.171.73V118z" class="fill-accent"/><g clip-path="url(#clip2_8394_39502)" class="fill-main"><path d="M165 106h16v16h-16z" opacity=".1"/><path d="M182 106h16v16h-16zM199 106h16v16h-16z" opacity=".2"/><path d="M216 106h16v16h-16z" opacity=".3"/><path d="M233 106h16v16h-16z" opacity=".1"/><path d="M250 106h16v16h-16z" opacity=".7"/><path d="M267 106h16v16h-16z" opacity=".3"/><path d="M284 106h16v16h-16z" opacity=".4"/><path d="M301 106h16v16h-16z" opacity=".1"/><path d="M318 106h16v16h-16z" opacity=".7"/><path d="M335 106h16v16h-16z" opacity=".8"/><path d="M352 106h16v16h-16z" opacity=".9"/></g><path fill-rule="evenodd" d="M20.4 128.7a.9.9 0 1 0 0-1.8.9.9 0 0 0 0 1.8m3.2 0a.9.9 0 1 0 0-1.8.9.9 0 0 0 0 1.8m.9 2.3a.9.9 0 1 1-1.8 0 .9.9 0 0 1 1.8 0m-4.1.9a.9.9 0 1 0 0-1.8.9.9 0 0 0 0 1.8m4.1 2.3a.9.9 0 1 1-1.8 0 .9.9 0 0 1 1.8 0m-4.1.9a.9.9 0 1 0 0-1.8.9.9 0 0 0 0 1.8" clip-rule="evenodd" class="fill-ghost"/><path d="M34.05 127v8h-1.148v-8zm2.81 4.426V135h-1.105v-6h1.062v.969h.075q.21-.477.648-.762.441-.285 1.117-.285.614 0 1.07.254.462.254.715.758.258.504.254 1.25V135h-1.105v-3.695q0-.668-.348-1.043-.343-.375-.95-.375-.413 0-.737.183-.324.18-.512.524-.184.343-.184.832M45.106 129v.898h-3.352V129zm-2.415 6v-6.73q0-.551.246-.915.247-.367.649-.546.402-.184.863-.184.352 0 .59.059.242.054.36.101l-.27.906a6 6 0 0 0-.207-.054 1.2 1.2 0 0 0-.316-.035q-.435 0-.622.214-.183.216-.183.625V135zm4.75-8v8h-1.105v-8zm5.399 5.52V129h1.105v6h-1.09v-1.035h-.062a1.9 1.9 0 0 1-.66.797q-.453.316-1.13.316-.573 0-1.015-.254a1.76 1.76 0 0 1-.695-.758q-.25-.504-.25-1.25V129h1.105v3.695q0 .625.348.996.348.368.898.368.333 0 .665-.164a1.44 1.44 0 0 0 .554-.508q.227-.344.227-.867m5.268 2.601q-.877 0-1.515-.379a2.54 2.54 0 0 1-.98-1.074q-.345-.695-.344-1.625 0-.922.343-1.625.345-.707.961-1.102.62-.394 1.45-.394.5 0 .968.164.473.164.852.523.379.355.597.93.223.575.223 1.395v.406H55.93v-.856h3.64a1.8 1.8 0 0 0-.195-.836 1.4 1.4 0 0 0-.535-.582 1.5 1.5 0 0 0-.809-.214q-.508 0-.883.25a1.67 1.67 0 0 0-.574.644 1.9 1.9 0 0 0-.203.859v.645q0 .621.219 1.055t.61.66q.393.226.917.226.344 0 .621-.097.277-.098.48-.293.204-.195.313-.485l1.051.211a1.96 1.96 0 0 1-.473.84q-.34.36-.847.559-.508.195-1.153.195m4.985-3.695V135h-1.106v-6h1.063v.969h.074q.21-.477.648-.762.442-.285 1.118-.285.613 0 1.07.254.461.254.715.758.257.504.254 1.25V135h-1.106v-3.695q0-.668-.347-1.043-.345-.375-.95-.375-.414 0-.738.183a1.3 1.3 0 0 0-.512.524q-.183.343-.183.832m5.3 3.574v-.777l3.289-4.188v-.058h-3.184V129h4.574v.82l-3.175 4.145v.058h3.28V135zm7.923.133q-.57 0-1.03-.211a1.73 1.73 0 0 1-.731-.621q-.27-.411-.27-.996 0-.512.196-.836a1.44 1.44 0 0 1 .53-.516q.337-.191.747-.285.41-.098.836-.152l.875-.102q.336-.043.492-.133.156-.093.156-.308v-.028q0-.526-.297-.816-.293-.293-.875-.293-.609 0-.957.266-.347.266-.48.585l-1.043-.265q.207-.547.586-.875.378-.332.863-.477a3.44 3.44 0 0 1 1.746-.066 2.2 2.2 0 0 1 .754.301q.355.218.582.632.227.416.227 1.086V135h-1.086v-.816h-.047a1.6 1.6 0 0 1-.332.437 1.8 1.8 0 0 1-.582.367 2.3 2.3 0 0 1-.86.145m.227-.906q.5 0 .851-.196.356-.199.54-.515.183-.32.183-.68v-.793a.6.6 0 0 1-.246.121q-.18.051-.414.09a10 10 0 0 1-.453.066l-.367.047q-.344.047-.633.149a1.07 1.07 0 0 0-.461.296q-.172.192-.172.512 0 .445.328.676.333.227.844.227M85.012 127v8h-1.149v-8zm1.704 8v-6h1.062v.969h.075q.188-.492.609-.77.426-.277 1.02-.277.597 0 1.003.277.406.278.61.77h.062q.219-.48.684-.762.464-.285 1.113-.285.816 0 1.332.512.516.507.516 1.546V135h-1.11v-3.938q0-.625-.34-.898a1.22 1.22 0 0 0-.804-.277q-.59 0-.914.359-.324.355-.324.91V135h-1.106v-4.02q0-.492-.312-.792-.313-.301-.809-.301-.336 0-.625.179a1.3 1.3 0 0 0-.465.493 1.5 1.5 0 0 0-.172.73V135zm9.679 0v-6h1.062v.969h.074a1.56 1.56 0 0 1 .61-.77q.425-.277 1.02-.277.597 0 1.003.277.407.278.609.77h.063q.219-.48.684-.762.464-.285 1.113-.285.816 0 1.332.512.516.507.515 1.546V135h-1.109v-3.938q0-.625-.34-.898a1.22 1.22 0 0 0-.804-.277q-.59 0-.914.359-.325.355-.325.91V135h-1.105v-4.02q0-.492-.313-.792-.312-.301-.808-.301-.337 0-.625.179a1.3 1.3 0 0 0-.465.493 1.5 1.5 0 0 0-.172.73V135zm13.475-2.48V129h1.106v6h-1.09v-1.035h-.063a1.9 1.9 0 0 1-.66.797q-.453.316-1.129.316a2 2 0 0 1-1.015-.254 1.76 1.76 0 0 1-.696-.758q-.25-.504-.25-1.25V129h1.106v3.695q0 .625.347.996.348.368.899.368.332 0 .664-.164.332-.168.555-.508.226-.344.226-.867m3.808-1.094V135h-1.106v-6h1.063v.969h.074q.212-.477.648-.762.442-.285 1.118-.285.612 0 1.07.254.46.254.715.758.257.504.254 1.25V135h-1.106v-3.695q0-.668-.347-1.043-.345-.375-.95-.375-.414 0-.738.183-.324.18-.512.524-.183.343-.183.832m5.436 3.574v-6h1.106v6zm.559-6.945a.72.72 0 0 1-.508-.2.63.63 0 0 1-.211-.476q0-.282.211-.481a.73.73 0 0 1 .508-.199q.297 0 .508.199a.64.64 0 0 1 .211.481.63.63 0 0 1-.211.476.71.71 0 0 1-.508.2m2.012 6.945v-.777l3.289-4.188v-.058h-3.184V129h4.574v.82l-3.176 4.145v.058h3.282V135zm7.923.133q-.57 0-1.031-.211a1.73 1.73 0 0 1-.73-.621q-.27-.411-.27-.996 0-.512.195-.836.2-.328.532-.516a2.7 2.7 0 0 1 .746-.285q.41-.098.836-.152l.875-.102q.336-.043.492-.133.156-.093.156-.308v-.028q0-.526-.297-.816-.293-.293-.875-.293-.609 0-.957.266-.347.266-.48.585l-1.043-.265a2.1 2.1 0 0 1 .586-.875q.378-.332.863-.477a3.45 3.45 0 0 1 1.746-.066q.399.078.754.301.356.218.582.632.227.416.227 1.086V135h-1.086v-.816h-.047q-.105.215-.332.437a1.8 1.8 0 0 1-.582.367 2.3 2.3 0 0 1-.86.145m.227-.906q.5 0 .852-.196.355-.199.539-.515a1.35 1.35 0 0 0 .183-.68v-.793a.6.6 0 0 1-.246.121q-.18.051-.414.09a10 10 0 0 1-.453.066l-.367.047a3.2 3.2 0 0 0-.633.149 1.07 1.07 0 0 0-.461.296q-.172.192-.172.512 0 .445.328.676.333.227.844.227m7.019-5.227v.898h-3.239V129zm-2.352-1.438h1.105v5.688q0 .351.106.527.105.176.273.239.168.062.36.062.144 0 .246-.019l.164-.032.207.93a2 2 0 0 1-.285.078 2 2 0 0 1-.457.043 2 2 0 0 1-.836-.164 1.5 1.5 0 0 1-.641-.527q-.242-.355-.242-.895zm3.669 7.438v-6h1.105v6zm.558-6.945a.72.72 0 0 1-.507-.2.63.63 0 0 1-.211-.476q0-.282.211-.481a.72.72 0 0 1 .507-.199q.297 0 .508.199a.64.64 0 0 1 .211.481q0 .278-.211.476-.21.2-.508.2m2.903 7.015a.73.73 0 0 1-.539-.222.73.73 0 0 1-.223-.539.73.73 0 0 1 .223-.536.73.73 0 0 1 .539-.222q.309 0 .535.222a.73.73 0 0 1 .227.536.74.74 0 0 1-.106.386.8.8 0 0 1-.277.274.74.74 0 0 1-.379.101m2.941 0a.74.74 0 0 1-.539-.222.74.74 0 0 1-.222-.539q0-.313.222-.536a.74.74 0 0 1 .539-.222q.309 0 .535.222a.73.73 0 0 1 .227.536.73.73 0 0 1-.106.386.8.8 0 0 1-.277.274.74.74 0 0 1-.379.101m2.938 0a.73.73 0 0 1-.539-.222.73.73 0 0 1-.223-.539.73.73 0 0 1 .223-.536.73.73 0 0 1 .539-.222.74.74 0 0 1 .535.222.73.73 0 0 1 .226.536q0 .21-.105.386a.8.8 0 0 1-.277.274.74.74 0 0 1-.379.101" class="fill-accent"/><g clip-path="url(#clip3_8394_39502)" class="fill-main"><path d="M165 123h16v16h-16z" opacity=".2"/><path d="M182 123h16v16h-16z" opacity=".1"/><path d="M199 123h16v16h-16z" opacity=".5"/><path d="M216 123h16v16h-16z" opacity=".2"/><path d="M233 123h16v16h-16z" opacity=".3"/><path d="M250 123h16v16h-16z" opacity=".4"/><path d="M267 123h16v16h-16z" opacity=".2"/><path d="M284 123h16v16h-16z" opacity=".4"/><path d="M301 123h16v16h-16z" opacity=".8"/><path d="M318 123h16v16h-16z" opacity=".3"/><path d="M335 123h16v16h-16z" opacity=".8"/><path d="M352 123h16v16h-16z"/></g><mask id="path-72-inside-2_8394_39502" class="fill-main-contrast"><path d="M0 151h384v137H0z"/></mask><path d="M0 152h384v-2H0z" mask="url(#path-72-inside-2_8394_39502)" class="fill-divider"/><path d="M17.145 168.545h1.366l3.213 7.848h.111l3.213-7.848h1.367V178h-1.071v-7.183h-.093L22.297 178h-1.034l-2.955-7.183h-.092V178h-1.071zm14.39 9.603q-1.024 0-1.768-.453a3.03 3.03 0 0 1-1.14-1.274q-.396-.822-.397-1.911 0-1.09.397-1.921.402-.836 1.117-1.301.72-.471 1.68-.471.555 0 1.095.184.54.186.983.601.444.41.706 1.089.264.679.264 1.671v.462h-5.466v-.942h4.358q0-.6-.24-1.071a1.8 1.8 0 0 0-.674-.743 1.9 1.9 0 0 0-1.025-.273q-.651 0-1.127.324a2.1 2.1 0 0 0-.724.831q-.255.512-.254 1.098v.628q0 .804.277 1.362a2 2 0 0 0 .78.845q.498.286 1.159.286.429 0 .775-.12.351-.124.605-.369.255-.25.392-.619l1.053.296q-.165.535-.559.941a2.7 2.7 0 0 1-.97.628 3.6 3.6 0 0 1-1.296.222m6.68.018a2.9 2.9 0 0 1-1.223-.254 2.1 2.1 0 0 1-.872-.743q-.323-.489-.323-1.182 0-.609.24-.988a1.7 1.7 0 0 1 .641-.6q.402-.217.887-.323.49-.11.983-.175.645-.084 1.048-.125.406-.047.59-.152.19-.106.19-.37v-.037q0-.683-.374-1.061-.369-.38-1.122-.379-.78 0-1.223.342-.443.34-.623.729L36 172.479q.276-.647.738-1.007a2.8 2.8 0 0 1 1.016-.508q.555-.147 1.09-.147.341 0 .784.083.449.078.864.328.42.25.697.752.276.504.277 1.348V178h-1.09v-.96h-.055a2 2 0 0 1-.37.494 2.2 2.2 0 0 1-.687.448q-.43.184-1.048.184m.167-.978q.645 0 1.09-.254a1.73 1.73 0 0 0 .904-1.501v-.997q-.07.083-.304.152a5 5 0 0 1-.536.116 25 25 0 0 1-1.043.138 4 4 0 0 0-.794.18 1.4 1.4 0 0 0-.591.365q-.222.24-.222.656 0 .567.42.858.425.287 1.076.287m10.095-4.691-.979.277a1.8 1.8 0 0 0-.272-.475 1.3 1.3 0 0 0-.48-.388q-.305-.152-.78-.152-.651 0-1.085.3-.43.295-.43.752 0 .406.296.642t.923.392l1.053.259q.95.23 1.417.706.466.471.466 1.214 0 .61-.35 1.09-.347.48-.97.757-.624.276-1.45.277-1.085 0-1.795-.471-.711-.471-.9-1.376l1.033-.258q.148.572.559.858.416.287 1.085.287.761 0 1.21-.324.452-.327.452-.784a.82.82 0 0 0-.259-.619q-.258-.254-.794-.379l-1.182-.277q-.974-.23-1.43-.715-.453-.489-.453-1.224 0-.6.337-1.061.342-.462.928-.725.59-.263 1.339-.263 1.052 0 1.652.461.605.462.859 1.219m6.238 2.604v-4.192h1.09V178h-1.09v-1.2h-.074q-.25.54-.776.918-.526.375-1.329.374-.665 0-1.182-.291a2.03 2.03 0 0 1-.812-.886q-.296-.595-.296-1.5v-4.506h1.09v4.432q0 .775.434 1.237.438.462 1.117.462.406 0 .826-.208.425-.207.711-.637.29-.43.29-1.094M57.8 178v-7.091h1.053v1.071h.073q.194-.526.702-.854a2.07 2.07 0 0 1 1.145-.328q.12 0 .3.005t.272.014v1.108a3 3 0 0 0-.254-.042 2.6 2.6 0 0 0-.41-.032q-.517 0-.924.217-.401.212-.637.591-.23.374-.23.854V178zm7.594.148q-1.025 0-1.768-.453a3.03 3.03 0 0 1-1.14-1.274q-.397-.822-.397-1.911 0-1.09.397-1.921.401-.836 1.117-1.301.72-.471 1.68-.471.554 0 1.094.184.54.186.984.601.442.41.706 1.089t.263 1.671v.462h-5.466v-.942h4.358q0-.6-.24-1.071a1.8 1.8 0 0 0-.674-.743 1.9 1.9 0 0 0-1.025-.273q-.651 0-1.126.324a2.1 2.1 0 0 0-.725.831q-.254.512-.254 1.098v.628q0 .804.277 1.362a2 2 0 0 0 .78.845q.5.286 1.159.286.43 0 .776-.12.35-.124.604-.369.254-.25.393-.619l1.052.296q-.166.535-.558.941a2.7 2.7 0 0 1-.97.628 3.6 3.6 0 0 1-1.297.222M76.709 178h-2.918v-9.455h3.047q1.375 0 2.355.568a3.7 3.7 0 0 1 1.5 1.621q.522 1.052.522 2.52 0 1.477-.527 2.544a3.75 3.75 0 0 1-1.532 1.634q-1.007.568-2.447.568m-1.773-1.016h1.7q1.171 0 1.943-.452a2.8 2.8 0 0 0 1.15-1.288q.378-.835.378-1.99 0-1.145-.374-1.971a2.76 2.76 0 0 0-1.117-1.274q-.744-.448-1.852-.448h-1.828zm11.024 1.164q-1.024 0-1.768-.453a3.03 3.03 0 0 1-1.14-1.274q-.397-.822-.397-1.911 0-1.09.397-1.921.402-.836 1.117-1.301.72-.471 1.68-.471.555 0 1.095.184.54.186.983.601.442.41.706 1.089t.264 1.671v.462H83.43v-.942h4.358q0-.6-.24-1.071a1.8 1.8 0 0 0-.675-.743 1.9 1.9 0 0 0-1.024-.273q-.651 0-1.127.324a2.1 2.1 0 0 0-.725.831q-.254.512-.254 1.098v.628q0 .804.278 1.362a2 2 0 0 0 .78.845q.498.286 1.158.286.43 0 .776-.12.35-.124.605-.369.254-.25.392-.619l1.053.296q-.166.535-.559.941a2.7 2.7 0 0 1-.97.628 3.6 3.6 0 0 1-1.297.222m7.678-7.239v.923h-3.675v-.923zm-2.604-1.699h1.09v6.759q0 .461.133.692.14.227.351.305.217.074.457.074a1.8 1.8 0 0 0 .48-.056l.222.979a2 2 0 0 1-.31.083q-.198.046-.503.046-.461 0-.904-.198a1.8 1.8 0 0 1-.73-.605q-.285-.406-.286-1.025zm6.33 8.956a2.9 2.9 0 0 1-1.224-.254 2.1 2.1 0 0 1-.873-.743q-.323-.489-.323-1.182 0-.609.24-.988.24-.383.642-.6t.886-.323q.49-.11.983-.175.646-.084 1.048-.125.406-.047.591-.152.19-.106.19-.37v-.037q0-.683-.374-1.061-.37-.38-1.122-.379-.78 0-1.224.342-.443.34-.623.729l-1.034-.369q.277-.647.739-1.007a2.8 2.8 0 0 1 1.016-.508q.553-.147 1.089-.147.342 0 .785.083.447.078.863.328.42.25.697.752.277.504.277 1.348V178h-1.09v-.96h-.055a2 2 0 0 1-.37.494 2.2 2.2 0 0 1-.687.448q-.43.184-1.048.184m.165-.978q.646 0 1.09-.254a1.73 1.73 0 0 0 .905-1.501v-.997q-.07.083-.305.152a5 5 0 0 1-.536.116 25 25 0 0 1-1.043.138 4 4 0 0 0-.794.18 1.4 1.4 0 0 0-.59.365q-.223.24-.222.656 0 .567.42.858.424.287 1.075.287m5.073.812v-7.091h1.089V178zm.554-8.273a.77.77 0 0 1-.55-.217.7.7 0 0 1-.226-.521q0-.304.226-.522a.77.77 0 0 1 .55-.217q.319 0 .544.217a.7.7 0 0 1 .231.522.69.69 0 0 1-.231.521.76.76 0 0 1-.544.217m3.62-1.182V178h-1.089v-9.455zm7.018 3.952-.978.277a1.8 1.8 0 0 0-.273-.475 1.3 1.3 0 0 0-.48-.388q-.305-.152-.78-.152-.651 0-1.085.3-.429.295-.429.752 0 .406.295.642.296.236.923.392l1.053.259q.95.23 1.417.706.467.471.467 1.214 0 .61-.351 1.09-.346.48-.97.757-.623.276-1.449.277-1.086 0-1.796-.471-.711-.471-.9-1.376l1.034-.258q.147.572.558.858.416.287 1.085.287.762 0 1.21-.324.452-.327.452-.784a.83.83 0 0 0-.258-.619q-.259-.254-.794-.379l-1.182-.277q-.975-.23-1.431-.715-.453-.489-.453-1.224 0-.6.337-1.061a2.3 2.3 0 0 1 .928-.725q.59-.263 1.339-.263 1.053 0 1.653.461.605.462.858 1.219" class="fill-primary"/><path d="M123.5 167v12" class="stroke-divider"/><path d="M131.902 177v-8h1.149v3.496h4.054V169h1.153v8h-1.153v-3.512h-4.054V177zm10.619.121q-.88 0-1.516-.379a2.55 2.55 0 0 1-.981-1.074q-.343-.695-.343-1.625 0-.922.343-1.625.345-.707.961-1.102.62-.394 1.45-.394.5 0 .968.164.472.164.852.523.379.356.598.93.222.575.222 1.395v.406h-4.734v-.856h3.64a1.8 1.8 0 0 0-.195-.836 1.4 1.4 0 0 0-.535-.582 1.5 1.5 0 0 0-.809-.214 1.55 1.55 0 0 0-.882.25 1.67 1.67 0 0 0-.575.644 1.9 1.9 0 0 0-.203.859v.645q0 .621.219 1.055t.609.66q.394.226.918.226.344 0 .621-.097a1.3 1.3 0 0 0 .481-.293q.202-.195.312-.485l1.051.211a1.96 1.96 0 0 1-.472.84q-.34.36-.848.559-.509.195-1.152.195m3.878-.121v-6h1.063v.969h.074q.187-.492.61-.77.425-.277 1.019-.277.597 0 1.004.277.406.278.609.77h.063a1.7 1.7 0 0 1 .683-.762q.465-.285 1.114-.285.816 0 1.332.512.515.508.515 1.546V177h-1.109v-3.938q0-.624-.34-.898a1.22 1.22 0 0 0-.805-.277q-.589 0-.914.359-.324.355-.324.91V177h-1.105v-4.02q0-.492-.313-.792-.312-.301-.808-.301-.337 0-.625.179a1.3 1.3 0 0 0-.465.493 1.5 1.5 0 0 0-.172.73V177zm12.183.121q-.835 0-1.461-.387a2.6 2.6 0 0 1-.973-1.082q-.343-.695-.343-1.625 0-.933.343-1.632.348-.7.973-1.086.626-.387 1.461-.387t1.461.387q.625.386.969 1.086.347.699.347 1.632 0 .93-.347 1.625a2.6 2.6 0 0 1-.969 1.082q-.625.387-1.461.387m.004-.941q.563 0 .93-.297.371-.297.55-.785t.18-1.071q0-.582-.18-1.074a1.8 1.8 0 0 0-.55-.793q-.368-.3-.93-.301-.57 0-.941.301a1.8 1.8 0 0 0-.547.793q-.18.492-.18 1.074t.18 1.071q.179.488.547.785.37.297.941.297m6.591 3.195q-.704 0-1.211-.184a2.4 2.4 0 0 1-.828-.484 2.1 2.1 0 0 1-.489-.652l.938-.438q.11.169.289.367.184.2.496.34t.813.141q.679 0 1.121-.328.445-.329.445-1.047v-1.188h-.074a3 3 0 0 1-.301.422 1.6 1.6 0 0 1-.539.41q-.344.177-.902.176-.715 0-1.286-.336a2.37 2.37 0 0 1-.902-.992q-.332-.656-.332-1.609 0-.947.324-1.629.328-.688.899-1.055a2.37 2.37 0 0 1 1.308-.367q.562 0 .907.187.347.188.539.434.19.246.293.426h.089V171h1.079v6.145q0 .77-.356 1.261a2.07 2.07 0 0 1-.965.731 3.7 3.7 0 0 1-1.355.238m-.016-3.398q.516 0 .871-.243.36-.242.543-.691.188-.453.188-1.082a3 3 0 0 0-.184-1.086 1.57 1.57 0 0 0-.539-.734q-.355-.266-.879-.266-.543 0-.906.277-.36.278-.543.75-.18.473-.18 1.059 0 .597.184 1.051t.547.711q.363.254.898.254m5.397-6.977v8h-1.106v-8zm4.105 8.121q-.835 0-1.461-.387a2.6 2.6 0 0 1-.973-1.082q-.343-.695-.343-1.625 0-.933.343-1.632.348-.7.973-1.086t1.461-.387q.835 0 1.461.387.626.386.969 1.086.347.699.347 1.632 0 .93-.347 1.625a2.6 2.6 0 0 1-.969 1.082q-.626.387-1.461.387m.004-.941q.563 0 .93-.297.371-.297.55-.785t.18-1.071q0-.582-.18-1.074a1.8 1.8 0 0 0-.55-.793q-.368-.3-.93-.301-.57 0-.941.301a1.8 1.8 0 0 0-.547.793q-.18.492-.18 1.074t.18 1.071q.18.488.547.785.37.297.941.297m4.2.82v-8h1.106v2.969h.07q.105-.18.293-.426a1.7 1.7 0 0 1 .527-.434q.344-.187.907-.187.734 0 1.304.371.575.367.899 1.062.327.691.328 1.657 0 .968-.324 1.664-.325.695-.895 1.07a2.32 2.32 0 0 1-1.301.371q-.555 0-.898-.183a1.7 1.7 0 0 1-.539-.434 3.6 3.6 0 0 1-.301-.43h-.098v.93zm1.086-3q0 .644.184 1.133.188.484.543.758.359.273.875.273.539 0 .898-.285.364-.285.547-.774a3.2 3.2 0 0 0 .184-1.105q0-.606-.18-1.086a1.66 1.66 0 0 0-.543-.758q-.363-.28-.906-.281-.52 0-.879.266a1.6 1.6 0 0 0-.539.746 3.1 3.1 0 0 0-.184 1.113m5.677 3v-6h1.105v6zm.558-6.945a.72.72 0 0 1-.507-.2.63.63 0 0 1-.211-.476q0-.282.211-.481a.72.72 0 0 1 .507-.199q.297 0 .508.199a.64.64 0 0 1 .211.481q0 .278-.211.476-.21.2-.508.2m3.254 3.371V177h-1.105v-6h1.062v.969h.075q.21-.477.648-.762.442-.285 1.117-.285.613 0 1.071.254.46.254.714.758.258.504.254 1.25V177h-1.105v-3.695q0-.668-.348-1.043-.343-.375-.949-.375-.414 0-.738.183-.324.18-.512.524a1.75 1.75 0 0 0-.184.832m9.082 3.574h-1.214l2.89-8h1.297l2.895 8h-1.215l-2.297-6.594h-.063zm.254-3.129h4.141v.973h-4.141zM209.467 169v8h-1.149v-6.836h-.047l-1.921 1.258v-1.113l1.996-1.309zm9.914 2.574h-1.152a2 2 0 0 0-.274-.695 1.9 1.9 0 0 0-.48-.512 2 2 0 0 0-.633-.316 2.5 2.5 0 0 0-.735-.106q-.699 0-1.257.352-.555.351-.879 1.035-.321.68-.321 1.668 0 .992.325 1.676.324.68.879 1.031.554.348 1.253.348.383 0 .731-.102.348-.105.629-.312.285-.207.484-.508t.278-.692l1.152.004a3.2 3.2 0 0 1-.383 1.09 3 3 0 0 1-.715.844 3.2 3.2 0 0 1-.984.543q-.555.187-1.199.187-1.035 0-1.844-.496-.809-.495-1.274-1.418-.464-.921-.464-2.195 0-1.278.464-2.195.47-.923 1.278-1.418.808-.496 1.84-.496.629 0 1.175.179.552.18.989.528.437.347.726.843.29.497.391 1.133m4.025-1.582V169h6.145v.992h-2.5V177h-1.145v-7.008zm9.134 7.129q-.879 0-1.516-.379a2.54 2.54 0 0 1-.98-1.074q-.344-.695-.344-1.625 0-.922.344-1.625.343-.707.961-1.102.621-.394 1.449-.394.5 0 .969.164.473.164.851.523.38.356.598.93.223.575.223 1.395v.406h-4.735v-.856h3.641a1.8 1.8 0 0 0-.195-.836 1.4 1.4 0 0 0-.535-.582 1.5 1.5 0 0 0-.809-.214q-.508 0-.883.25a1.67 1.67 0 0 0-.574.644 1.86 1.86 0 0 0-.203.859v.645q0 .621.219 1.055.218.433.609.66.394.226.918.226.344 0 .621-.097.278-.098.48-.293.204-.195.313-.485l1.051.211a1.96 1.96 0 0 1-.473.84q-.34.36-.848.559-.507.195-1.152.195m8.313-4.687-1 .199a1.4 1.4 0 0 0-.215-.391 1.1 1.1 0 0 0-.391-.305 1.4 1.4 0 0 0-.621-.121q-.508 0-.852.231-.339.226-.336.582a.6.6 0 0 0 .227.5q.23.188.734.308l.942.219q.82.192 1.222.594.407.399.407 1.031 0 .536-.309.953a2.1 2.1 0 0 1-.855.653q-.543.234-1.262.234-.988 0-1.617-.422-.626-.422-.774-1.211l1.063-.187q.113.457.445.687.336.227.871.227.594 0 .946-.25.351-.25.351-.606a.64.64 0 0 0-.211-.488q-.21-.195-.648-.297l-1.008-.226q-.84-.187-1.234-.606-.395-.417-.395-1.055 0-.523.293-.921.293-.399.809-.621.519-.223 1.183-.223.954 0 1.5.414.548.41.735 1.098m4.174-1.434v.898h-3.238V171zm-2.351-1.438h1.105v5.688q0 .351.106.527.105.177.273.239t.36.062q.144 0 .246-.019l.164-.032.207.93a2 2 0 0 1-.285.078 2 2 0 0 1-.457.043 2 2 0 0 1-.836-.164 1.5 1.5 0 0 1-.641-.527q-.242-.355-.242-.895zm3.669 7.438v-6h1.105v6zm.558-6.945a.72.72 0 0 1-.507-.2.63.63 0 0 1-.211-.476q0-.282.211-.481a.72.72 0 0 1 .507-.199q.297 0 .508.199a.64.64 0 0 1 .211.481q0 .278-.211.476-.21.2-.508.2m3.254 3.371V177h-1.105v-6h1.062v.969h.074q.211-.477.649-.762.442-.285 1.117-.285.614 0 1.07.254.462.254.715.758.258.504.254 1.25V177h-1.105v-3.695q0-.668-.348-1.043-.344-.375-.949-.375-.414 0-.738.183-.325.18-.512.524-.184.343-.184.832m7.929 5.949q-.703 0-1.211-.184a2.4 2.4 0 0 1-.828-.484 2.1 2.1 0 0 1-.488-.652l.937-.438q.11.169.289.367.184.2.496.34.313.141.813.141.68 0 1.121-.328.445-.329.445-1.047v-1.188h-.074q-.106.184-.301.422a1.6 1.6 0 0 1-.539.41q-.344.177-.902.176-.715 0-1.285-.336a2.37 2.37 0 0 1-.903-.992q-.332-.656-.332-1.609 0-.947.324-1.629.329-.688.899-1.055a2.37 2.37 0 0 1 1.308-.367q.563 0 .907.187.347.188.539.434.19.246.293.426h.09V171h1.078v6.145q0 .77-.356 1.261a2.07 2.07 0 0 1-.965.731 3.7 3.7 0 0 1-1.355.238m-.016-3.398q.516 0 .871-.243.36-.242.543-.691.188-.453.188-1.082 0-.618-.184-1.086a1.57 1.57 0 0 0-.539-.734q-.356-.266-.879-.266-.543 0-.906.277-.36.278-.543.75-.18.473-.18 1.059 0 .597.184 1.051.183.453.547.711.364.254.898.254" class="fill-secondary"/><g clip-path="url(#clip4_8394_39502)"><path fill-rule="evenodd" d="M336.2 166.934c.258 0 .467.209.467.466v.467h4.666v-.467a.467.467 0 0 1 .934 0v.467h1.4a1.4 1.4 0 0 1 1.4 1.4v8.4a1.4 1.4 0 0 1-1.4 1.4h-9.334a1.4 1.4 0 0 1-1.4-1.4v-8.4a1.4 1.4 0 0 1 1.4-1.4h1.4v-.467c0-.257.209-.466.467-.466m5.133 1.866v.467a.467.467 0 1 0 .934 0v-.467h1.4c.257 0 .466.209.466.467v1.4h-10.266v-1.4c0-.258.209-.467.466-.467h1.4v.467a.467.467 0 1 0 .934 0v-.467zm-7.466 2.8v6.067c0 .258.209.467.466.467h9.334a.467.467 0 0 0 .466-.467V171.6zm4.666 1.4a.467.467 0 1 1 .933.001.467.467 0 0 1-.933-.001m2.334-.466a.467.467 0 1 0 0 .933.467.467 0 0 0 0-.933m1.4.466a.466.466 0 1 1 .933 0 .466.466 0 0 1-.933 0m.466 1.4a.467.467 0 1 0 .001.933.467.467 0 0 0-.001-.933m-2.333.467a.467.467 0 1 1 .934 0 .467.467 0 0 1-.934 0m-1.4-.467a.467.467 0 1 0 0 .934.467.467 0 0 0 0-.934m-2.333.467a.467.467 0 1 1 .933 0 .467.467 0 0 1-.933 0m-1.4-.467a.467.467 0 1 0 0 .934.467.467 0 0 0 0-.934m-.467 2.334a.467.467 0 1 1 .934 0 .467.467 0 0 1-.934 0m2.333-.467a.467.467 0 1 0 .001.933.467.467 0 0 0-.001-.933m1.4.467a.467.467 0 1 1 .934 0 .467.467 0 0 1-.934 0m2.334-.467a.467.467 0 1 0 0 .934.467.467 0 0 0 0-.934" clip-rule="evenodd" class="fill-symbol"/></g><path fill-rule="evenodd" d="M364.996 169.763a.536.536 0 1 0-.759-.759L361 172.241l-3.237-3.237a.536.536 0 1 0-.759.759l3.237 3.237-3.237 3.237a.536.536 0 1 0 .759.759l3.237-3.237 3.237 3.237a.536.536 0 1 0 .759-.759L361.759 173z" clip-rule="evenodd" class="fill-symbol"/><path fill="url(#paint0_linear_8394_39502)" d="M45 194a3 3 0 0 1 3-3h256a3 3 0 0 1 3 3v66H45z"/><mask id="path-80-inside-3_8394_39502" class="fill-main-contrast"><path d="M45 260h262v16H45z"/></mask><path d="M45 261h262v-2H45z" mask="url(#path-80-inside-3_8394_39502)" class="fill-divider"/><path d="M45.918 273v-.607l2.28-2.497q.402-.438.661-.762.26-.327.385-.614a1.5 1.5 0 0 0 .128-.607 1.12 1.12 0 0 0-.648-1.043 1.5 1.5 0 0 0-.674-.145q-.399 0-.695.165-.294.162-.456.456a1.4 1.4 0 0 0-.158.688h-.796q0-.607.28-1.066.279-.459.762-.715a2.3 2.3 0 0 1 1.09-.257q.606 0 1.076.257.47.256.735.691.267.436.267.969 0 .38-.139.745a3.3 3.3 0 0 1-.472.806q-.334.443-.927 1.08l-1.552 1.66v.054h3.211V273zm8.31.094q-.763 0-1.3-.414-.535-.419-.819-1.212-.283-.795-.283-1.923 0-1.12.283-1.912.286-.796.823-1.215.54-.422 1.296-.422.755 0 1.292.422.54.418.823 1.215.287.792.287 1.912 0 1.128-.284 1.923-.283.793-.82 1.212-.536.414-1.298.414m0-.742q.755 0 1.174-.728.418-.729.418-2.079 0-.897-.192-1.528-.19-.63-.547-.961a1.2 1.2 0 0 0-.853-.331q-.75 0-1.171.739-.422.735-.422 2.081 0 .898.19 1.525.188.628.542.955.359.327.86.327m7.082-6.261V273h-.837v-6.032h-.04l-1.687 1.12v-.85l1.727-1.147zm5.22 7.003a2.9 2.9 0 0 1-1.229-.246 2 2 0 0 1-.826-.685 1.7 1.7 0 0 1-.294-.998 1.84 1.84 0 0 1 .651-1.434q.307-.254.685-.32v-.041a1.33 1.33 0 0 1-.79-.557 1.7 1.7 0 0 1-.29-.981 1.67 1.67 0 0 1 .267-.942q.27-.414.742-.654.475-.24 1.083-.24.6 0 1.073.24.472.24.742.654.274.416.277.942a1.7 1.7 0 0 1-.3.981 1.33 1.33 0 0 1-.78.557v.041q.375.066.675.32.3.249.48.624.178.371.181.81a1.74 1.74 0 0 1-.303.998 2 2 0 0 1-.827.685q-.526.246-1.218.246m0-.742q.468 0 .809-.152t.526-.428q.186-.276.19-.648a1.24 1.24 0 0 0-.203-.691 1.4 1.4 0 0 0-.543-.473 1.7 1.7 0 0 0-.78-.172q-.44 0-.79.172-.344.173-.542.473-.195.3-.193.691a1.13 1.13 0 0 0 .18.648q.185.276.529.428t.816.152m0-3.279q.37 0 .657-.148.29-.149.456-.415.165-.267.168-.624a1.15 1.15 0 0 0-.165-.611 1.1 1.1 0 0 0-.449-.405 1.46 1.46 0 0 0-.668-.145q-.387 0-.678.145-.29.143-.448.405a1.13 1.13 0 0 0-.156.611q-.003.357.159.624.165.266.455.415t.668.148M91.67 273v-6.909h4.143v.742h-3.306v2.335h2.995v.742h-2.995V273zm7.26.108q-.75 0-1.292-.331a2.2 2.2 0 0 1-.834-.931q-.29-.6-.29-1.396 0-.797.29-1.404.294-.61.817-.951.525-.344 1.228-.344.404 0 .8.135.394.135.718.438.324.3.516.796t.192 1.222v.337h-3.994v-.688h3.185q0-.44-.176-.783a1.3 1.3 0 0 0-.492-.543 1.4 1.4 0 0 0-.75-.199q-.474 0-.822.236-.345.233-.53.607-.186.375-.185.803v.459q0 .587.202.995.206.405.57.618.364.209.847.209.313 0 .567-.088a1.2 1.2 0 0 0 .442-.27q.185-.182.286-.452l.769.216q-.12.391-.408.688a2 2 0 0 1-.708.459 2.6 2.6 0 0 1-.948.162m3.465-.108v-6.909h.796v2.55h.067q.088-.134.243-.344.159-.212.452-.378.297-.168.803-.168.654 0 1.154.327t.779.928q.28.6.28 1.417 0 .822-.28 1.427-.28.6-.776.931-.496.327-1.143.327-.5 0-.8-.165-.3-.17-.462-.382a6 6 0 0 1-.25-.357h-.094V273zm.782-2.591q0 .587.172 1.036.172.445.503.698.33.25.81.25.498 0 .833-.263.337-.266.506-.716.172-.452.172-1.005 0-.546-.169-.985a1.5 1.5 0 0 0-.502-.698q-.335-.26-.84-.26-.486 0-.817.246-.33.243-.499.682-.17.435-.169 1.015M129.503 266.091h.999l2.348 5.735h.081l2.348-5.735h.999V273h-.783v-5.249h-.068L133.268 273h-.755l-2.159-5.249h-.068V273h-.783zm9.869 7.03q-.492 0-.894-.185a1.54 1.54 0 0 1-.638-.543 1.54 1.54 0 0 1-.236-.864q0-.445.176-.722.175-.28.469-.438.293-.159.647-.237.358-.08.719-.128.472-.06.766-.091.297-.033.431-.111.14-.078.139-.27v-.027q0-.5-.273-.776-.27-.276-.82-.277-.57 0-.894.25a1.5 1.5 0 0 0-.456.533l-.755-.27q.203-.473.539-.735.341-.267.743-.371.404-.108.796-.108.249 0 .573.06.328.059.631.24.308.182.51.55.202.367.202.985V273h-.796v-.702h-.041a1.4 1.4 0 0 1-.27.361 1.6 1.6 0 0 1-.502.328 2 2 0 0 1-.766.134m.121-.715q.473 0 .797-.185a1.27 1.27 0 0 0 .661-1.097v-.728q-.05.06-.223.111-.168.047-.391.084a15 15 0 0 1-.763.101q-.31.04-.58.132a1 1 0 0 0-.432.267q-.162.175-.162.479 0 .414.307.627.31.21.786.209m3.707.594v-5.182h.769v.783h.054q.143-.385.513-.624.37-.24.837-.24a7 7 0 0 1 .418.014v.809a3.4 3.4 0 0 0-.486-.054 1.4 1.4 0 0 0-.674.159 1.167 1.167 0 0 0-.635 1.056V273zM168.337 266.091h.998l2.348 5.735h.081l2.348-5.735h.999V273h-.783v-5.249h-.067L172.102 273h-.756l-2.159-5.249h-.068V273h-.782zm9.868 7.03q-.492 0-.894-.185a1.54 1.54 0 0 1-.637-.543 1.53 1.53 0 0 1-.237-.864q0-.445.176-.722.175-.28.469-.438.292-.159.648-.237.357-.08.718-.128.472-.06.766-.091.297-.033.432-.111.138-.078.138-.27v-.027q0-.5-.273-.776-.27-.276-.82-.277-.57 0-.894.25a1.46 1.46 0 0 0-.455.533l-.756-.27q.202-.473.54-.735.34-.267.742-.371.405-.108.796-.108.25 0 .574.06.327.059.63.24.308.182.51.55.202.367.202.985V273h-.796v-.702h-.04a1.4 1.4 0 0 1-.27.361 1.6 1.6 0 0 1-.503.328 2 2 0 0 1-.766.134m.122-.715q.472 0 .796-.185a1.27 1.27 0 0 0 .661-1.097v-.728q-.05.06-.223.111-.169.047-.391.084a16 16 0 0 1-.762.101 3 3 0 0 0-.581.132 1 1 0 0 0-.431.267q-.162.175-.162.479 0 .414.307.627.31.21.786.209m4.034 2.537q-.203 0-.361-.034a1 1 0 0 1-.22-.06l.203-.702q.29.074.513.054a.6.6 0 0 0 .394-.199q.175-.175.321-.57l.148-.405-1.916-5.209h.864l1.43 4.129h.054l1.43-4.129h.864l-2.2 5.938a2.2 2.2 0 0 1-.367.664q-.219.267-.51.395a1.6 1.6 0 0 1-.647.128M210.815 266.091h.836v4.939q0 .661-.242 1.123a1.66 1.66 0 0 1-.685.702q-.442.24-1.043.239a2.4 2.4 0 0 1-1.008-.205 1.66 1.66 0 0 1-.695-.594 1.6 1.6 0 0 1-.253-.914h.823q0 .293.145.512a1 1 0 0 0 .405.338q.256.121.583.121.362 0 .614-.152a.96.96 0 0 0 .385-.445q.135-.297.135-.725zm5.671 4.79v-3.063h.796V273h-.796v-.877h-.054a1.7 1.7 0 0 1-.567.671q-.384.273-.972.273-.485 0-.863-.212a1.5 1.5 0 0 1-.594-.648q-.216-.435-.216-1.096v-3.293h.796v3.239q0 .567.317.904.32.337.817.337.297 0 .604-.152a1.3 1.3 0 0 0 .519-.465q.213-.314.213-.8m3.05-.998V273h-.796v-5.182h.769v.81h.068q.182-.395.553-.634.371-.243.958-.243.526 0 .921.216.395.212.614.647.219.432.219 1.093V273h-.796v-3.239q0-.61-.317-.951-.317-.344-.87-.344-.381 0-.682.165-.297.165-.469.483a1.6 1.6 0 0 0-.172.769M248.648 266.091h.837v4.939q0 .661-.243 1.123t-.685.702-1.042.239q-.567 0-1.009-.205a1.67 1.67 0 0 1-.695-.594 1.6 1.6 0 0 1-.253-.914h.823q0 .293.145.512a1 1 0 0 0 .405.338q.257.121.584.121.36 0 .614-.152a.96.96 0 0 0 .384-.445q.135-.297.135-.725zm5.671 4.79v-3.063h.796V273h-.796v-.877h-.054q-.182.395-.566.671-.385.273-.972.273-.486 0-.864-.212a1.5 1.5 0 0 1-.593-.648q-.216-.435-.216-1.096v-3.293h.796v3.239q0 .567.317.904.321.337.816.337.298 0 .604-.152.31-.151.52-.465.212-.314.212-.8m3.051-4.79V273h-.796v-6.909zM279.459 266.833v-.742h5.182v.742h-2.173V273h-.837v-6.167zm7.719 6.275q-.702 0-1.232-.334a2.27 2.27 0 0 1-.823-.935q-.293-.6-.293-1.403 0-.81.293-1.413.297-.605.823-.938.53-.334 1.232-.334.701 0 1.228.334.53.333.823.938.297.603.297 1.413 0 .803-.297 1.403a2.24 2.24 0 0 1-.823.935q-.527.334-1.228.334m0-.715q.532 0 .877-.274.344-.273.509-.718.165-.446.165-.965 0-.52-.165-.968a1.63 1.63 0 0 0-.509-.725q-.345-.277-.877-.277-.534 0-.878.277a1.63 1.63 0 0 0-.509.725q-.165.449-.165.968 0 .52.165.965t.509.718q.345.274.878.274m5.52.715q-.648 0-1.144-.327a2.2 2.2 0 0 1-.776-.931q-.28-.605-.28-1.427 0-.817.28-1.417t.779-.928a2.06 2.06 0 0 1 1.154-.327q.506 0 .8.168.296.167.452.378.158.21.246.344h.067v-2.55h.797V273h-.77v-.796h-.094a6 6 0 0 1-.25.357 1.5 1.5 0 0 1-.462.382q-.3.165-.799.165m.108-.715q.479 0 .809-.25.331-.253.503-.698.172-.449.172-1.036 0-.58-.169-1.015a1.48 1.48 0 0 0-.499-.682q-.33-.246-.816-.246-.507 0-.844.26-.334.256-.503.698a2.8 2.8 0 0 0-.165.985q0 .553.169 1.005.172.45.506.716.338.263.837.263m5.36.728q-.492 0-.894-.185a1.54 1.54 0 0 1-.637-.543 1.53 1.53 0 0 1-.237-.864q0-.445.176-.722.175-.28.469-.438.293-.159.647-.237.358-.08.719-.128.472-.06.766-.091.297-.033.432-.111.138-.078.138-.27v-.027q0-.5-.273-.776-.27-.276-.82-.277-.57 0-.894.25a1.46 1.46 0 0 0-.455.533l-.756-.27q.202-.473.54-.735.34-.267.742-.371.405-.108.796-.108.25 0 .573.06.328.059.631.24.308.182.51.55.202.367.202.985V273h-.796v-.702h-.04a1.4 1.4 0 0 1-.27.361 1.6 1.6 0 0 1-.503.328 2 2 0 0 1-.766.134m.122-.715q.471 0 .796-.185a1.27 1.27 0 0 0 .661-1.097v-.728q-.05.06-.223.111-.169.047-.391.084a16 16 0 0 1-.762.101 3 3 0 0 0-.581.132 1 1 0 0 0-.432.267q-.16.175-.161.479 0 .414.307.627.309.21.786.209m4.034 2.537q-.203 0-.361-.034a1 1 0 0 1-.22-.06l.203-.702q.29.074.512.054a.6.6 0 0 0 .395-.199q.175-.175.321-.57l.148-.405-1.916-5.209h.864l1.43 4.129h.054l1.43-4.129h.864l-2.2 5.938a2.3 2.3 0 0 1-.367.664q-.219.267-.51.395a1.6 1.6 0 0 1-.647.128M20.836 193.091V200H20v-6.032h-.04l-1.687 1.12v-.85L20 193.091zm5.22 7.003q-.762 0-1.299-.414-.535-.419-.82-1.212-.283-.795-.283-1.923 0-1.12.284-1.912.285-.797.823-1.215.54-.422 1.295-.422.756 0 1.292.422.54.418.823 1.215.288.792.287 1.912 0 1.128-.283 1.923-.284.794-.82 1.212-.536.414-1.299.414m0-.742q.756 0 1.174-.728.419-.729.418-2.079 0-.897-.192-1.528-.189-.63-.546-.961a1.2 1.2 0 0 0-.854-.331q-.75 0-1.17.739-.422.735-.422 2.081 0 .898.189 1.525.189.628.543.955.357.327.86.327m6.151.742q-.762 0-1.299-.414-.535-.419-.82-1.212-.283-.795-.283-1.923 0-1.12.284-1.912.285-.797.823-1.215.54-.422 1.295-.422.756 0 1.292.422.54.418.823 1.215.287.792.287 1.912 0 1.128-.283 1.923-.284.794-.82 1.212-.536.414-1.299.414m0-.742q.756 0 1.174-.728.418-.729.418-2.079 0-.897-.192-1.528-.189-.63-.546-.961a1.2 1.2 0 0 0-.854-.331q-.75 0-1.17.739-.423.735-.422 2.081 0 .898.189 1.525.189.628.543.955.357.327.86.327m7.312-.647v-.365q0-.378.155-.691.157-.317.459-.506a1.34 1.34 0 0 1 .735-.193q.438 0 .735.193.297.189.449.506.152.313.152.691v.365q0 .377-.155.695a1.23 1.23 0 0 1-.452.506q-.297.188-.73.188-.437 0-.738-.188a1.25 1.25 0 0 1-.455-.506 1.6 1.6 0 0 1-.155-.695m.688-.365v.365q0 .314.148.563.15.246.513.246.353 0 .5-.246a1.1 1.1 0 0 0 .148-.563v-.365q0-.314-.142-.56-.142-.249-.506-.249-.354 0-.51.249a1.05 1.05 0 0 0-.151.56m-4.13-3.589v-.365q0-.378.156-.691.158-.317.458-.506.304-.192.736-.193.438 0 .735.193.297.189.449.506.152.313.152.691v.365q0 .377-.155.695a1.23 1.23 0 0 1-.452.506 1.33 1.33 0 0 1-.73.189q-.437 0-.738-.189a1.25 1.25 0 0 1-.455-.506 1.56 1.56 0 0 1-.156-.695m.689-.365v.365q0 .314.148.563.148.246.513.246.353 0 .5-.246.148-.25.148-.563v-.365q0-.313-.142-.56-.142-.249-.506-.249-.354 0-.51.249a1.05 1.05 0 0 0-.151.56M36.334 200l4.75-6.909h.769L37.103 200zM24.275 264l3.09-6.113v-.054h-3.562v-.742h4.426v.783L25.152 264zm7.905.094q-.593 0-1.07-.236a2 2 0 0 1-.762-.647 1.77 1.77 0 0 1-.313-.938h.81q.046.468.424.776.381.303.911.303.425 0 .756-.199.334-.199.523-.546.192-.35.192-.793 0-.452-.2-.806a1.46 1.46 0 0 0-.539-.564 1.5 1.5 0 0 0-.786-.209 2.2 2.2 0 0 0-.651.098 1.8 1.8 0 0 0-.55.253l-.783-.095.419-3.4h3.59v.742h-2.889l-.242 2.038h.04q.213-.17.533-.28.32-.112.668-.112a2.12 2.12 0 0 1 1.913 1.127q.287.524.287 1.194 0 .662-.297 1.181a2.2 2.2 0 0 1-.81.817 2.3 2.3 0 0 1-1.174.296m7.339-1.389v-.365q0-.378.155-.691.157-.317.459-.506a1.34 1.34 0 0 1 .735-.193q.438 0 .735.193.297.188.449.506.152.313.152.691v.365q0 .377-.155.695a1.23 1.23 0 0 1-.452.506q-.297.188-.73.188-.437 0-.738-.188a1.25 1.25 0 0 1-.455-.506 1.6 1.6 0 0 1-.155-.695m.688-.365v.365q0 .314.148.563.15.246.513.246.353 0 .5-.246a1.1 1.1 0 0 0 .148-.563v-.365q0-.314-.142-.56-.142-.249-.506-.249-.354 0-.51.249a1.05 1.05 0 0 0-.151.56m-4.13-3.589v-.365q0-.378.156-.691.158-.317.458-.506.304-.192.736-.193.438 0 .735.193.297.188.449.506.152.313.152.691v.365q0 .378-.155.695a1.23 1.23 0 0 1-.452.506 1.33 1.33 0 0 1-.73.189q-.437 0-.738-.189a1.25 1.25 0 0 1-.455-.506 1.56 1.56 0 0 1-.156-.695m.689-.365v.365q0 .314.148.563.148.246.513.246.353 0 .5-.246.148-.25.148-.563v-.365q0-.313-.142-.56-.142-.249-.506-.249-.354 0-.51.249a1.05 1.05 0 0 0-.151.56M36.334 264l4.75-6.909h.769L37.103 264z" class="fill-hint"/><path d="M51.29 252.329a2.667 2.667 0 1 0 5.333 0 2.667 2.667 0 0 0-5.333 0m9.01-17.753.384-.321a.498.498 0 0 0-.854.153zm6.767 8.069-.383.322a.5.5 0 0 0 .817-.073zm6.767-11.835-.205-.456a.5.5 0 0 0-.229.208zm7.19-3.228.36-.348a.5.5 0 0 0-.565-.108zm6.767 6.994-.36.347c.155.16.395.199.592.096zm7.19-3.766.467-.177a.5.5 0 0 0-.7-.266zm5.921 15.601-.468.178a.5.5 0 0 0 .303.294.5.5 0 0 0 .42-.042zm6.343-3.766.256.43.013-.008zm7.613-4.841.403-.297a.5.5 0 0 0-.671-.125zm6.344 8.607-.402.297a.5.5 0 0 0 .786.024zm7.19-8.607-.239-.439a.5.5 0 0 0-.145.118zm5.921-3.228.239.439a.5.5 0 0 0 .207-.214zm7.613-15.064.436-.244a.502.502 0 0 0-.883.019zm6.344 11.298-.436.245a.5.5 0 0 0 .631.215zm7.612-3.228.227-.446a.5.5 0 0 0-.422-.014zm6.344 3.228-.227.446a.5.5 0 0 0 .432.01zm7.19-3.228.205.456a.5.5 0 0 0 .188-.147zm6.344-8.07.47-.169a.5.5 0 0 0-.863-.14zm7.19 19.906-.471.169a.5.5 0 0 0 .95-.027zm5.921-19.906.329-.376a.5.5 0 0 0-.809.234zm6.766 5.918-.329.377c.16.139.391.163.576.058zm7.613-4.304.294-.404a.5.5 0 0 0-.54-.031zm5.921 4.304-.294.405a.5.5 0 0 0 .551.024zm7.19-4.304-.123-.484a.5.5 0 0 0-.134.055zm6.344-1.614.318-.386a.5.5 0 0 0-.441-.098zm7.19 5.918-.318.386a.5.5 0 0 0 .635 0zm7.189-5.918.318.387.006-.005zm6.344-5.379.256-.43a.5.5 0 0 0-.579.048zm6.344 3.766.318-.386a1 1 0 0 0-.063-.044zm7.19 5.917-.318.386a.5.5 0 0 0 .647-.009zm6.767-5.917.329.376.03-.029zm6.767-6.994.268-.422a.5.5 0 0 0-.628.074zm5.075 3.228-.268.422a.5.5 0 0 0 .454.042zm8.035-3.228.187.464a1 1 0 0 0 .082-.042zm6.767-4.304.269.422a.5.5 0 0 0 .113-.099zm3.255-6.994a2.667 2.667 0 1 0 5.333 0 2.667 2.667 0 0 0-5.333 0m-239.2 52.89 6.343-17.753-.941-.336-6.344 17.753zm5.49-17.6 6.766 8.07.766-.643-6.766-8.069zm7.583 7.997 6.767-11.836-.868-.496-6.767 11.835zm6.538-11.628 7.19-3.228-.41-.912-7.19 3.228zm6.626-3.336 6.766 6.993.72-.695-6.768-6.994zm7.358 7.089 7.19-3.766-.464-.886-7.19 3.766zm6.49-4.032 5.921 15.602.935-.355-5.921-15.601zm6.644 15.854 6.344-3.766-.511-.86-6.344 3.766zm6.357-3.774 7.613-4.841-.537-.844-7.613 4.841zm6.942-4.967 6.344 8.608.805-.593-6.344-8.608zm7.13 8.632 7.19-8.608-.768-.641-7.19 8.608zm7.045-8.489 5.921-3.228-.478-.878-5.921 3.228zm6.128-3.442 7.613-15.063-.893-.451-7.612 15.063zm6.731-15.044 6.344 11.298.871-.49-6.343-11.297zm6.975 11.513 7.612-3.228-.39-.92-7.613 3.228zm7.19-3.242 6.344 3.228.454-.892-6.344-3.228zm6.776 3.238 7.19-3.228-.41-.912-7.19 3.228zm7.378-3.375 6.344-8.069-.786-.619-6.344 8.07zm5.481-8.209 7.189 19.905.941-.339-7.19-19.905zm8.139 19.878 5.921-19.905-.959-.285-5.921 19.905zm5.112-19.671 6.767 5.918.659-.753-6.767-5.918zm7.343 5.976 7.612-4.303-.492-.871-7.613 4.304zm7.072-4.334 5.921 4.304.588-.809-5.921-4.304zm6.472 4.328 7.19-4.304-.514-.858-7.19 4.304zm7.056-4.248 6.344-1.614-.246-.969-6.344 1.614zm5.903-1.712 7.19 5.917.635-.772-7.189-5.918zm7.825 5.917 7.19-5.917-.635-.773-7.19 5.918zm7.196-5.922 6.344-5.38-.647-.763-6.344 5.38zm5.765-5.331 6.344 3.766.51-.86-6.343-3.766zm6.281 3.722 7.19 5.917.636-.772-7.19-5.917zm7.837 5.908 6.767-5.918-.658-.753-6.767 5.918zm6.797-5.947 6.767-6.993-.719-.696-6.766 6.994zm6.139-6.919 5.076 3.228.536-.844-5.075-3.228zm5.53 3.27 8.036-3.228-.373-.928-8.036 3.228zm8.118-3.27 6.767-4.304-.537-.844-6.767 4.304zm6.88-4.403 5.921-6.994-.763-.646-5.921 6.994z" class="fill-main"/><path d="M332.683 214.23a4.6 4.6 0 0 1 1.605.313 3.9 3.9 0 0 1 1.451 1.004q.652.696 1.041 1.892.397 1.189.397 2.972 0 1.707-.32 3.056-.313 1.349-.914 2.288-.6.94-1.476 1.432-.87.492-1.982.492-1.086 0-1.937-.435a3.76 3.76 0 0 1-1.387-1.221 4.16 4.16 0 0 1-.677-1.821h1.463q.198.94.838 1.547.645.606 1.7.607 1.54 0 2.416-1.362.882-1.368.882-3.873h-.096q-.345.55-.837.952a3.8 3.8 0 0 1-2.397.831 3.9 3.9 0 0 1-2.045-.556 4.2 4.2 0 0 1-1.483-1.534q-.556-.978-.556-2.237 0-1.19.53-2.186a4.1 4.1 0 0 1 1.502-1.586q.972-.594 2.282-.575m0 1.323q-.817 0-1.47.409-.645.403-1.029 1.093a3.1 3.1 0 0 0-.377 1.522q0 .837.37 1.521.372.678 1.01 1.08.64.403 1.458.403.62 0 1.15-.243.537-.25.934-.677.396-.429.62-.978.223-.55.211-1.145a3.14 3.14 0 0 0-.397-1.476 2.96 2.96 0 0 0-1.022-1.093 2.6 2.6 0 0 0-1.458-.416m11.079 12.126q-1.119 0-2.013-.447a3.74 3.74 0 0 1-1.426-1.228 3.37 3.37 0 0 1-.575-1.777h1.438q.084.927.812 1.528t1.764.601q.825 0 1.464-.384.645-.39 1.01-1.067.37-.684.371-1.541 0-.882-.384-1.572a2.8 2.8 0 0 0-1.048-1.08 2.9 2.9 0 0 0-1.509-.403 4 4 0 0 0-1.253.192 3.5 3.5 0 0 0-1.041.505l-1.413-.173.793-6.424h6.718v1.323h-5.472l-.473 3.989h.07a3.6 3.6 0 0 1 1.023-.543 3.8 3.8 0 0 1 1.278-.218q1.19 0 2.129.569a4.05 4.05 0 0 1 1.477 1.553q.543.985.543 2.257 0 1.253-.556 2.231a4.1 4.1 0 0 1-1.522 1.546q-.97.563-2.205.563m13.515-2.627v-.665q0-.721.294-1.317.3-.594.863-.952t1.367-.358q.813 0 1.368.358t.844.952q.288.596.288 1.317v.665q0 .721-.294 1.317a2.3 2.3 0 0 1-.85.952q-.556.358-1.356.358-.811 0-1.374-.358a2.34 2.34 0 0 1-.856-.952 2.9 2.9 0 0 1-.294-1.317m1.227-.665v.665q0 .626.3 1.106.301.479.997.479.678 0 .972-.479.294-.48.294-1.106v-.665q0-.627-.288-1.106-.286-.479-.978-.479-.677 0-.99.479-.307.48-.307 1.106m-7.767-6.865v-.665q0-.721.295-1.317.3-.594.862-.952t1.368-.358q.812 0 1.368.358t.844.952q.288.596.288 1.317v.665q0 .722-.294 1.317a2.3 2.3 0 0 1-.851.952q-.555.358-1.355.358-.811 0-1.374-.358a2.33 2.33 0 0 1-.856-.952 2.9 2.9 0 0 1-.295-1.317m1.228-.665v.665q0 .626.3 1.106.3.479.997.479.678 0 .972-.479.294-.48.294-1.106v-.665q0-.626-.288-1.106-.286-.479-.978-.479-.677 0-.99.479-.307.48-.307 1.106m-.716 10.643 9-13.091h1.374l-9 13.091z" class="fill-accent"/><path d="M336.781 243.5v-6.909h.837v6.167h3.211v.742zm6.761.121q-.493 0-.894-.185a1.53 1.53 0 0 1-.638-.543 1.54 1.54 0 0 1-.236-.864q0-.445.175-.722.176-.28.469-.438.294-.159.648-.237.357-.08.719-.128.472-.06.765-.091.297-.033.432-.111.138-.078.138-.27v-.027q0-.5-.273-.776-.27-.276-.82-.277-.57 0-.894.25a1.5 1.5 0 0 0-.455.533l-.756-.27q.202-.472.54-.735a2 2 0 0 1 .742-.371q.406-.108.796-.108.25 0 .574.06.327.058.631.24.306.182.509.55.203.367.203.985v3.414h-.797v-.702h-.04a1.4 1.4 0 0 1-.27.361 1.6 1.6 0 0 1-.503.328 2 2 0 0 1-.765.134m.121-.715q.472 0 .796-.185a1.27 1.27 0 0 0 .493-.479q.168-.294.168-.618v-.728q-.05.06-.222.111-.169.047-.392.084a16 16 0 0 1-.762.101q-.31.04-.58.132a1 1 0 0 0-.432.267q-.162.175-.162.479 0 .414.307.627.31.21.786.209m7.377-3.427-.715.202a1.3 1.3 0 0 0-.199-.347.95.95 0 0 0-.351-.284 1.3 1.3 0 0 0-.57-.111q-.475 0-.793.219-.314.216-.314.55 0 .297.216.469t.675.287l.769.189q.696.168 1.036.516.34.344.341.887 0 .445-.257.796a1.7 1.7 0 0 1-.708.554 2.6 2.6 0 0 1-1.059.202q-.793 0-1.313-.344-.519-.345-.658-1.005l.756-.189q.108.418.408.627.304.21.793.209.557 0 .884-.236.33-.24.331-.573a.6.6 0 0 0-.189-.452q-.19-.186-.581-.277l-.863-.203q-.712-.168-1.046-.522a1.27 1.27 0 0 1-.331-.894q0-.439.247-.776.249-.338.678-.53.432-.192.978-.192.769 0 1.208.337.442.338.627.891m3.547-1.161v.675h-2.686v-.675zm-1.903-1.241h.796v4.939q0 .337.098.506.102.165.256.222.159.054.334.054a1.4 1.4 0 0 0 .351-.04l.162.715a1.8 1.8 0 0 1-.594.094 1.6 1.6 0 0 1-.661-.145 1.3 1.3 0 0 1-.533-.442q-.209-.296-.209-.748zm-28.659 11.514h.998l2.348 5.735h.081l2.348-5.735h.999v6.909h-.783v-5.249h-.067l-2.159 5.249h-.756l-2.159-5.249h-.068v5.249h-.782zm10.516 7.017q-.749 0-1.292-.331a2.2 2.2 0 0 1-.833-.931q-.291-.6-.291-1.396 0-.797.291-1.404.292-.61.816-.951.526-.344 1.228-.344.405 0 .799.135.395.135.719.438.324.3.516.796t.193 1.222v.337h-3.995v-.688h3.185q0-.44-.176-.783a1.3 1.3 0 0 0-.492-.543 1.4 1.4 0 0 0-.749-.199 1.43 1.43 0 0 0-.823.236q-.344.233-.53.607-.185.375-.185.803v.459q0 .587.202.995.206.405.57.618.364.209.847.209.314 0 .567-.088.256-.091.442-.27.185-.182.286-.452l.77.216q-.121.391-.409.688a2 2 0 0 1-.708.459 2.6 2.6 0 0 1-.948.162m4.881.013q-.492 0-.894-.185a1.54 1.54 0 0 1-.637-.543q-.236-.358-.236-.864 0-.445.175-.722.175-.28.469-.438.294-.159.648-.237a8 8 0 0 1 .718-.128q.473-.06.766-.091.297-.033.432-.111.138-.078.138-.27v-.027q0-.5-.273-.776-.27-.276-.82-.277-.57 0-.894.25a1.5 1.5 0 0 0-.455.533l-.756-.27q.202-.472.54-.735a2 2 0 0 1 .742-.371q.405-.108.796-.108.25 0 .574.06.327.058.631.24.306.182.509.55.202.367.202.985v3.414h-.796v-.702h-.04a1.4 1.4 0 0 1-.27.361 1.6 1.6 0 0 1-.503.328 2 2 0 0 1-.766.134m.122-.715q.472 0 .796-.185.327-.186.493-.479.168-.294.168-.618v-.728q-.05.06-.222.111-.169.047-.392.084-.22.034-.428.061l-.334.04q-.31.04-.58.132a1 1 0 0 0-.432.267q-.162.175-.162.479 0 .414.307.627.31.21.786.209m7.377-3.427-.715.202a1.3 1.3 0 0 0-.199-.347 1 1 0 0 0-.351-.284 1.3 1.3 0 0 0-.57-.111q-.475 0-.793.219-.314.216-.314.55 0 .297.216.469t.675.287l.769.189q.695.168 1.036.516.34.344.341.887 0 .445-.257.796a1.7 1.7 0 0 1-.708.554 2.6 2.6 0 0 1-1.06.202q-.793 0-1.312-.344-.52-.345-.658-1.005l.756-.189q.108.418.408.627.304.21.793.209.557 0 .884-.236.33-.24.33-.573a.6.6 0 0 0-.188-.452q-.19-.186-.581-.277l-.863-.203q-.713-.168-1.046-.522a1.27 1.27 0 0 1-.331-.894q0-.439.246-.776.25-.338.679-.53a2.4 2.4 0 0 1 .978-.192q.769 0 1.208.337.441.338.627.891m4.559 1.902v-3.063h.796v5.182h-.796v-.877h-.054a1.7 1.7 0 0 1-.567.671q-.384.273-.972.273-.486 0-.863-.212a1.5 1.5 0 0 1-.594-.648q-.216-.435-.216-1.096v-3.293h.796v3.239q0 .567.317.904.32.337.817.337.297 0 .604-.152a1.3 1.3 0 0 0 .519-.465q.213-.314.213-.8m2.254 2.119v-5.182h.769v.783h.054q.143-.386.513-.624.37-.24.837-.24a7 7 0 0 1 .418.014v.809a3.4 3.4 0 0 0-.486-.054q-.378 0-.675.159-.293.155-.465.432-.17.273-.169.624v3.279zm5.55.108q-.75 0-1.292-.331a2.2 2.2 0 0 1-.834-.931q-.29-.6-.29-1.396 0-.797.29-1.404.294-.61.817-.951.526-.344 1.228-.344.405 0 .799.135.395.135.719.438.324.3.516.796t.192 1.222v.337h-3.994v-.688h3.185q0-.44-.176-.783a1.33 1.33 0 0 0-.492-.543 1.4 1.4 0 0 0-.749-.199q-.476 0-.824.236a1.56 1.56 0 0 0-.529.607q-.186.375-.186.803v.459q0 .587.203.995.206.405.57.618.364.209.847.209.314 0 .566-.088.257-.091.442-.27.186-.182.287-.452l.769.216q-.122.391-.408.688a2 2 0 0 1-.708.459 2.6 2.6 0 0 1-.948.162m5.313 0q-.648 0-1.144-.327a2.2 2.2 0 0 1-.776-.931q-.28-.605-.28-1.427 0-.817.28-1.417t.78-.928a2.06 2.06 0 0 1 1.153-.327q.506 0 .8.168.297.167.452.378a6 6 0 0 1 .246.344h.068v-2.55h.796v6.909h-.769v-.796h-.095a5 5 0 0 1-.249.357 1.5 1.5 0 0 1-.462.382q-.301.165-.8.165m.108-.715q.479 0 .81-.25a1.56 1.56 0 0 0 .502-.698q.172-.449.172-1.036 0-.58-.168-1.015a1.5 1.5 0 0 0-.5-.682q-.33-.246-.816-.246-.506 0-.843.26a1.55 1.55 0 0 0-.503.698 2.8 2.8 0 0 0-.165.985q0 .553.168 1.005.173.45.506.716.338.263.837.263" class="fill-secondary"/><defs><clipPath id="clip0_8394_39502"><path d="M165 73.5a1.5 1.5 0 0 1 1.5-1.5h200a1.5 1.5 0 0 1 1.5 1.5v13a1.5 1.5 0 0 1-1.5 1.5h-200a1.5 1.5 0 0 1-1.5-1.5z" class="fill-main-contrast"/></clipPath><clipPath id="clip1_8394_39502"><path d="M165 90.5a1.5 1.5 0 0 1 1.5-1.5h200a1.5 1.5 0 0 1 1.5 1.5v13a1.5 1.5 0 0 1-1.5 1.5h-200a1.5 1.5 0 0 1-1.5-1.5z" class="fill-main-contrast"/></clipPath><clipPath id="clip2_8394_39502"><path d="M165 107.5a1.5 1.5 0 0 1 1.5-1.5h200a1.5 1.5 0 0 1 1.5 1.5v13a1.5 1.5 0 0 1-1.5 1.5h-200a1.5 1.5 0 0 1-1.5-1.5z" class="fill-main-contrast"/></clipPath><clipPath id="clip3_8394_39502"><path d="M165 124.5a1.5 1.5 0 0 1 1.5-1.5h200a1.5 1.5 0 0 1 1.5 1.5v13a1.5 1.5 0 0 1-1.5 1.5h-200a1.5 1.5 0 0 1-1.5-1.5z" class="fill-main-contrast"/></clipPath><clipPath id="clip4_8394_39502"><path d="M332 166h14v14h-14z" class="fill-main-contrast"/></clipPath><linearGradient id="paint0_linear_8394_39502" x1="176" x2="176" y1="260" y2="191" gradientUnits="userSpaceOnUse"><stop stop-color="#002000" stop-opacity=".063"/><stop offset="1" stop-color="#fff" stop-opacity="0"/></linearGradient></defs></svg>