<svg xmlns="http://www.w3.org/2000/svg" width="192" height="256" fill="none" viewBox="0 0 192 256" class="portfolio-widget"><path d="M.5 6A5.5 5.5 0 0 1 6 .5h180a5.5 5.5 0 0 1 5.5 5.5v244a5.5 5.5 0 0 1-5.5 5.5H6A5.5 5.5 0 0 1 .5 250z" class="fill-container"/><path d="M.5 6A5.5 5.5 0 0 1 6 .5h180a5.5 5.5 0 0 1 5.5 5.5v244a5.5 5.5 0 0 1-5.5 5.5H6A5.5 5.5 0 0 1 .5 250z" class="stroke-divider"/><path d="m16.524 27 1.551-9.454H19L17.447 27zm-4.302-2.622.147-.924h7.054l-.147.924zM13.2 27l1.551-9.454h.924L14.124 27zm-.424-5.91.147-.922h7.054l-.148.923zm8.68 5.91v-.831l3.122-3.416q.549-.6.904-1.044.356-.447.527-.84.175-.396.175-.83 0-.499-.24-.864a1.56 1.56 0 0 0-.646-.563 2.1 2.1 0 0 0-.923-.199q-.545 0-.951.227a1.56 1.56 0 0 0-.624.623 1.95 1.95 0 0 0-.217.941h-1.09q0-.83.384-1.458a2.66 2.66 0 0 1 1.043-.979q.665-.35 1.491-.35.831 0 1.473.35.642.352 1.006.946.366.596.365 1.325 0 .522-.19 1.02-.184.495-.645 1.104-.457.605-1.27 1.477l-2.123 2.271v.074h4.394V27zm11.41.13q-.915 0-1.63-.315a2.8 2.8 0 0 1-1.131-.872 2.35 2.35 0 0 1-.453-1.307h1.164q.036.457.314.79.276.328.724.508.449.18.993.18.609 0 1.08-.213.47-.212.739-.59a1.48 1.48 0 0 0 .268-.878q0-.522-.259-.918a1.7 1.7 0 0 0-.757-.628q-.498-.227-1.219-.227h-.757v-1.015h.757q.564 0 .988-.203.43-.203.67-.573.244-.369.244-.868a1.6 1.6 0 0 0-.212-.835 1.45 1.45 0 0 0-.6-.554 1.94 1.94 0 0 0-.905-.199q-.489 0-.924.18a1.7 1.7 0 0 0-.701.513q-.273.332-.296.803h-1.108a2.25 2.25 0 0 1 .448-1.302 2.8 2.8 0 0 1 1.099-.877 3.55 3.55 0 0 1 1.5-.314q.878 0 1.505.356.628.35.965.928.337.576.337 1.246 0 .798-.42 1.362a2.13 2.13 0 0 1-1.131.78v.074q.895.147 1.399.762.503.61.503 1.51 0 .77-.42 1.384a2.85 2.85 0 0 1-1.136.96q-.72.351-1.639.351m8.306-9.714q.58.005 1.163.222.582.216 1.062.72.48.498.77 1.362.291.863.291 2.165 0 1.26-.24 2.239-.235.974-.683 1.643a3 3 0 0 1-1.08 1.016q-.633.345-1.431.346-.794 0-1.418-.314a2.8 2.8 0 0 1-1.015-.881 3.1 3.1 0 0 1-.503-1.316h1.126q.152.65.605 1.076.457.42 1.205.42 1.095 0 1.726-.956.637-.956.637-2.7h-.073a2.9 2.9 0 0 1-.614.669 2.7 2.7 0 0 1-1.713.586 2.9 2.9 0 0 1-1.491-.402q-.675-.405-1.08-1.112-.402-.711-.402-1.625 0-.868.388-1.588a3 3 0 0 1 1.098-1.154q.71-.43 1.672-.416m0 1.016q-.583 0-1.048.29-.462.287-.734.776a2.2 2.2 0 0 0-.268 1.076q0 .59.258 1.075.264.48.716.767.456.281 1.039.281.438 0 .817-.17.378-.176.66-.476.286-.304.448-.688a2.115 2.115 0 0 0-.106-1.847 2.1 2.1 0 0 0-.73-.784q-.462-.3-1.052-.3" class="fill-secondary"/><path d="M56.13 20.085a1.3 1.3 0 0 0-.576-.975q-.504-.35-1.288-.35a2.5 2.5 0 0 0-.965.17q-.402.171-.623.471a1.1 1.1 0 0 0-.217.674.96.96 0 0 0 .143.545q.152.23.397.388.249.157.54.263.295.102.582.17l.904.232q.495.12.979.323.484.198.882.517.401.314.642.77.244.458.244 1.086 0 .812-.42 1.44-.415.627-1.21.983-.789.356-1.915.356-1.08 0-1.875-.337-.794-.338-1.241-.974-.444-.642-.485-1.542h1.56q.038.507.314.84.282.332.73.498.447.162.987.162.582 0 1.03-.18.447-.184.702-.508a1.2 1.2 0 0 0 .263-.752.96.96 0 0 0-.231-.651 1.6 1.6 0 0 0-.619-.425 6 6 0 0 0-.895-.3l-1.099-.295q-1.155-.306-1.823-.91-.67-.605-.665-1.606-.005-.827.443-1.445.453-.62 1.223-.96.771-.347 1.74-.347.984 0 1.732.346.747.342 1.177.947.43.6.448 1.375zM59.296 27v-7.09h1.464v1.18h.087q.222-.6.725-.936.509-.337 1.214-.337.716 0 1.205.341.494.338.711.933h.074a1.98 1.98 0 0 1 .799-.928q.558-.346 1.33-.346.968 0 1.583.614.614.609.614 1.814V27h-1.528v-4.561q0-.693-.37-1.006a1.34 1.34 0 0 0-.895-.314q-.642 0-1.002.397-.355.392-.355 1.01V27h-1.505v-4.64q0-.562-.347-.9-.346-.34-.895-.341-.379 0-.693.194t-.503.54q-.185.345-.185.803V27zm13.633.148a2.9 2.9 0 0 1-1.214-.245 2 2 0 0 1-.86-.72q-.312-.48-.313-1.177 0-.605.226-.993.23-.393.619-.623.387-.232.868-.346.484-.12.997-.176.627-.073 1.02-.124t.573-.162.18-.355v-.033q0-.558-.328-.868-.324-.309-.947-.309-.655 0-1.034.286-.378.287-.521.656l-1.427-.259q.208-.645.642-1.061.434-.42 1.03-.62.6-.201 1.292-.202.471 0 .96.11.495.11.914.38.42.267.679.747.263.48.263 1.219V27H75.07v-.97h-.056q-.138.278-.41.536-.273.258-.688.42a2.7 2.7 0 0 1-.988.162m.364-1.164q.54 0 .928-.212a1.57 1.57 0 0 0 .596-.563q.212-.35.212-.757v-.877a.8.8 0 0 1-.277.129q-.198.055-.448.101-.249.042-.489.074l-.41.056a3.4 3.4 0 0 0-.698.17q-.314.116-.498.333-.185.212-.185.558 0 .49.36.74.36.248.91.248m6.549-8.439V27h-1.528v-9.454zm3.313 0V27h-1.528v-9.454zM88.371 27v-9.454h3.462q1.095 0 1.824.406.735.4 1.103 1.103.375.702.374 1.588 0 .891-.374 1.593a2.68 2.68 0 0 1-1.108 1.103q-.738.402-1.832.402h-2.336V22.43h2.15q.67 0 1.09-.231t.619-.633q.198-.405.198-.923 0-.522-.198-.919a1.4 1.4 0 0 0-.623-.627q-.42-.227-1.094-.227h-1.68V27zm10.214.148a2.9 2.9 0 0 1-1.214-.245 2 2 0 0 1-.859-.72q-.315-.48-.314-1.177 0-.605.226-.993.23-.393.62-.623a3.1 3.1 0 0 1 .867-.346q.485-.12.997-.176.629-.073 1.02-.124.393-.051.573-.162.18-.11.18-.355v-.033q0-.558-.328-.868-.322-.309-.946-.309-.656 0-1.034.286-.38.287-.522.656l-1.427-.259q.209-.645.642-1.061.435-.42 1.03-.62.6-.201 1.292-.202.471 0 .96.11.494.11.915.38.42.267.678.747.263.48.263 1.219V27h-1.477v-.97h-.055q-.14.278-.411.536a2.1 2.1 0 0 1-.688.42 2.7 2.7 0 0 1-.988.162m.365-1.164q.54 0 .928-.212.387-.217.595-.563.212-.35.212-.757v-.877a.8.8 0 0 1-.277.129q-.198.055-.447.101-.25.042-.49.074l-.41.056a3.4 3.4 0 0 0-.698.17q-.314.116-.498.333-.185.212-.185.558 0 .49.36.74.36.248.91.248m6.548-3.167V27h-1.528v-7.09h1.464v1.18h.087a2 2 0 0 1 .776-.927q.53-.346 1.325-.346.73 0 1.274.31.545.308.845.904.304.595.304 1.459V27h-1.528v-4.298q0-.743-.383-1.159-.383-.42-1.057-.42-.462 0-.817.199a1.4 1.4 0 0 0-.559.577q-.203.378-.203.918m9.42 4.326q-1.058 0-1.823-.448a3 3 0 0 1-1.178-1.27q-.411-.821-.411-1.924 0-1.094.411-1.925a3.14 3.14 0 0 1 1.159-1.293q.743-.465 1.745-.466.632 0 1.205.203t1.02.637q.448.43.707 1.108.263.678.263 1.625v.498h-5.729v-1.08h4.247q0-.507-.213-.905a1.6 1.6 0 0 0-.595-.632 1.67 1.67 0 0 0-.886-.23q-.55 0-.961.262-.405.263-.632.693a2.04 2.04 0 0 0-.226.932v.891q0 .665.24 1.136t.669.72q.429.245 1.002.245.383 0 .692-.106.31-.111.531-.324.226-.216.347-.535l1.435.208a2.4 2.4 0 0 1-.563 1.043 2.8 2.8 0 0 1-1.034.692 3.9 3.9 0 0 1-1.422.245m10.027-5.429-1.39.194a1.3 1.3 0 0 0-.235-.443 1.2 1.2 0 0 0-.439-.346 1.6 1.6 0 0 0-.687-.134q-.555 0-.928.244-.37.245-.37.633 0 .333.25.535.249.204.808.337l1.172.259q.993.221 1.477.692.486.471.49 1.228a1.9 1.9 0 0 1-.383 1.16q-.374.497-1.044.784-.664.286-1.537.286-1.251 0-2.022-.526-.77-.531-.937-1.491l1.482-.185q.12.503.494.762.374.254.974.254.637 0 1.02-.264.383-.267.388-.65a.69.69 0 0 0-.245-.531q-.235-.213-.739-.323l-1.2-.264q-1.011-.216-1.491-.715-.48-.504-.475-1.265-.006-.642.35-1.117.356-.48.988-.744.637-.267 1.464-.267 1.196 0 1.883.517.693.512.882 1.38" class="fill-primary"/><path d="M159.778 16.533a.24.24 0 0 1 .444 0l1.309 3.147c.034.083.112.14.202.147l3.398.273a.24.24 0 0 1 .137.421l-2.589 2.218a.24.24 0 0 0-.077.238l.791 3.316a.24.24 0 0 1-.359.26l-2.909-1.777a.24.24 0 0 0-.25 0l-2.909 1.777a.24.24 0 0 1-.359-.26l.791-3.316a.24.24 0 0 0-.077-.238l-2.589-2.218a.24.24 0 0 1 .137-.421l3.398-.273a.24.24 0 0 0 .202-.147zM173.778 16.533a.24.24 0 0 1 .444 0l1.309 3.147c.034.083.112.14.202.147l3.398.273a.24.24 0 0 1 .137.421l-2.589 2.218a.24.24 0 0 0-.077.238l.791 3.316a.24.24 0 0 1-.359.26l-2.909-1.777a.24.24 0 0 0-.25 0l-2.909 1.777a.24.24 0 0 1-.359-.26l.791-3.316a.24.24 0 0 0-.077-.238l-2.589-2.218a.24.24 0 0 1 .137-.421l3.398-.273a.24.24 0 0 0 .202-.147z" class="fill-symbol"/><path d="M12.5 47a2.5 2.5 0 0 1 2.5-2.5h162a2.5 2.5 0 0 1 2.5 2.5v42a2.5 2.5 0 0 1-2.5 2.5H15a2.5 2.5 0 0 1-2.5-2.5z" class="fill-background"/><path d="M12.5 47a2.5 2.5 0 0 1 2.5-2.5h162a2.5 2.5 0 0 1 2.5 2.5v42a2.5 2.5 0 0 1-2.5 2.5H15a2.5 2.5 0 0 1-2.5-2.5z" class="stroke-border"/><g stroke-width=".5" clip-path="url(#clip0_8396_54360)" class="fill-container stroke-divider"><path d="M19.25 51.25h11.5v11.5h-11.5z"/><path d="M30.25 51.25h11.5v11.5h-11.5z"/><path d="M41.25 51.25h11.5v11.5h-11.5zM19.25 62.25h11.5v11.5h-11.5z"/><path d="M30.25 62.25h11.5v11.5h-11.5z"/><path d="M41.25 62.25h11.5v11.5h-11.5zM19.25 73.25h11.5v11.5h-11.5z"/><path d="M30.25 73.25h11.5v11.5h-11.5z"/><path d="M41.25 73.25h11.5v11.5h-11.5z"/></g><path d="M19.5 54a2.5 2.5 0 0 1 2.5-2.5h28a2.5 2.5 0 0 1 2.5 2.5v28a2.5 2.5 0 0 1-2.5 2.5H22a2.5 2.5 0 0 1-2.5-2.5z" class="stroke-divider"/><g stroke-width=".5" clip-path="url(#clip1_8396_54360)" class="fill-container stroke-divider"><path d="M59.25 51.25h11.5v11.5h-11.5z"/><path d="M70.25 51.25h11.5v11.5h-11.5z"/><path d="M81.25 51.25h11.5v11.5h-11.5zM59.25 62.25h11.5v11.5h-11.5z"/><path d="M70.25 62.25h11.5v11.5h-11.5z"/><path d="M81.25 62.25h11.5v11.5h-11.5zM59.25 73.25h11.5v11.5h-11.5z"/><path d="M70.25 73.25h11.5v11.5h-11.5z"/><path d="M81.25 73.25h11.5v11.5h-11.5z"/></g><path d="M59.5 54a2.5 2.5 0 0 1 2.5-2.5h28a2.5 2.5 0 0 1 2.5 2.5v28a2.5 2.5 0 0 1-2.5 2.5H62a2.5 2.5 0 0 1-2.5-2.5z" class="stroke-divider"/><g stroke-width=".5" clip-path="url(#clip2_8396_54360)" class="fill-container stroke-divider"><path d="M99.25 51.25h11.5v11.5h-11.5z"/><path d="M110.25 51.25h11.5v11.5h-11.5z"/><path d="M121.25 51.25h11.5v11.5h-11.5zM99.25 62.25h11.5v11.5h-11.5z"/><path d="M110.25 62.25h11.5v11.5h-11.5z"/><path d="M121.25 62.25h11.5v11.5h-11.5zM99.25 73.25h11.5v11.5h-11.5z"/><path d="M110.25 73.25h11.5v11.5h-11.5z"/><path d="M121.25 73.25h11.5v11.5h-11.5z"/></g><path d="M99.5 54a2.5 2.5 0 0 1 2.5-2.5h28a2.5 2.5 0 0 1 2.5 2.5v28a2.5 2.5 0 0 1-2.5 2.5h-28a2.5 2.5 0 0 1-2.5-2.5z" class="stroke-divider"/><g stroke-width=".5" clip-path="url(#clip3_8396_54360)" class="fill-container stroke-divider"><path d="M139.25 51.25h11.5v11.5h-11.5z"/><path d="M150.25 51.25h11.5v11.5h-11.5z"/><path d="M161.25 51.25h11.5v11.5h-11.5zM139.25 62.25h11.5v11.5h-11.5z"/><path d="M150.25 62.25h11.5v11.5h-11.5z"/><path d="M161.25 62.25h11.5v11.5h-11.5zM139.25 73.25h11.5v11.5h-11.5z"/><path d="M150.25 73.25h11.5v11.5h-11.5z"/><path d="M161.25 73.25h11.5v11.5h-11.5z"/></g><path d="M139.5 54a2.5 2.5 0 0 1 2.5-2.5h28a2.5 2.5 0 0 1 2.5 2.5v28a2.5 2.5 0 0 1-2.5 2.5h-28a2.5 2.5 0 0 1-2.5-2.5z" class="stroke-divider"/><path d="M12.809 116v-8h2.968q.923 0 1.543.344.625.34.942.937.32.599.32 1.356t-.32 1.355q-.32.594-.95.938-.629.34-1.554.34h-1.98v-1.149h1.808q.551 0 .898-.191.352-.192.516-.528.168-.336.168-.765 0-.434-.168-.766a1.17 1.17 0 0 0-.516-.519q-.35-.188-.91-.188H14.2V116zm6.998 0v-6h1.312v.988h.063q.164-.511.566-.793.406-.285.926-.285.117 0 .262.012.148.012.246.027v1.254a2 2 0 0 0-.282-.051 3 3 0 0 0-.363-.027q-.398 0-.707.168a1.27 1.27 0 0 0-.488.465q-.18.297-.18.679V116zm6.69.121q-.87 0-1.512-.387a2.63 2.63 0 0 1-.992-1.086q-.351-.694-.351-1.621 0-.933.351-1.632.352-.7.992-1.086t1.512-.387q.87 0 1.512.387.64.386.992 1.086.351.699.351 1.632 0 .927-.351 1.621a2.63 2.63 0 0 1-.992 1.086q-.64.387-1.512.387m.004-1.098q.5 0 .828-.269.329-.27.488-.723.164-.457.164-1.011 0-.555-.164-1.012a1.6 1.6 0 0 0-.488-.727q-.329-.273-.828-.273-.5 0-.832.273-.332.27-.496.727a3 3 0 0 0-.16 1.012q0 .554.16 1.011.165.453.496.723.332.27.832.269m4.14.977v-8h1.355v2.984h.063q.105-.207.3-.453.2-.25.54-.429.34-.18.878-.18.7 0 1.262.359.567.355.895 1.047.328.688.328 1.684 0 .98-.325 1.675-.324.691-.886 1.059a2.3 2.3 0 0 1-1.27.363q-.523 0-.867-.172a1.7 1.7 0 0 1-.543-.421 2.6 2.6 0 0 1-.312-.461h-.09V116zm1.328-3q0 .593.168 1.043.172.45.496.699.324.25.789.25.477 0 .8-.258.33-.261.497-.711a2.9 2.9 0 0 0 .168-1.023 2.8 2.8 0 0 0-.168-1.008 1.54 1.54 0 0 0-.489-.699q-.324-.254-.808-.254-.472 0-.797.246a1.5 1.5 0 0 0-.488.684 2.9 2.9 0 0 0-.168 1.031m6.875-5v8h-1.356v-8zm4.125 8.121q-.903 0-1.555-.379a2.57 2.57 0 0 1-1-1.074q-.348-.696-.348-1.633 0-.926.352-1.625.352-.703.984-1.094.633-.394 1.489-.394.543 0 1.03.176.494.175.872.543.38.366.598.941.218.57.218 1.367v.43h-4.882v-.934h3.578q0-.422-.176-.75a1.3 1.3 0 0 0-.492-.515 1.4 1.4 0 0 0-.73-.188q-.45 0-.79.215a1.47 1.47 0 0 0-.52.566 1.64 1.64 0 0 0-.187.762v.793q0 .543.196.93.195.386.546.59.356.203.832.203.314 0 .57-.09.26-.09.442-.266.188-.18.285-.441l1.27.164a2.06 2.06 0 0 1-.477.894 2.35 2.35 0 0 1-.883.598 3.3 3.3 0 0 1-1.222.211m3.854-.121v-6h1.297v1.008h.074q.188-.508.617-.797.43-.29 1.028-.289.61 0 1.027.293.419.29.594.793h.063q.203-.492.675-.789.477-.297 1.13-.297.823 0 1.343.519.52.52.52 1.532V116h-1.352v-3.836q0-.57-.309-.832a1.1 1.1 0 0 0-.742-.266q-.527 0-.82.329-.293.324-.293.839V116h-1.332v-3.895q0-.473-.285-.753-.285-.286-.743-.286-.312 0-.57.161-.258.16-.414.449-.153.285-.152.66V116z" class="fill-accent"/><path fill-rule="evenodd" d="M170.508 110.926a.4.4 0 0 1 .565-.018l2.927 2.744 2.926-2.744a.4.4 0 0 1 .548.584l-3.201 3a.4.4 0 0 1-.547 0l-3.2-3a.4.4 0 0 1-.018-.566" clip-rule="evenodd" class="fill-symbol"/><path d="m14.092 133-1.89-6.909h.85l1.444 5.627h.068l1.47-5.627h.945l1.471 5.627h.068l1.444-5.627h.85L18.922 133h-.863l-1.525-5.506h-.054L14.955 133zm8.45-3.117V133h-.796v-6.909h.796v2.537h.068q.181-.401.546-.638.369-.239.979-.239.53 0 .927.212.399.21.618.645.222.431.223 1.099V133h-.797v-3.239q0-.617-.32-.954-.318-.342-.88-.341-.392 0-.702.165-.308.165-.486.483a1.56 1.56 0 0 0-.176.769m6.99 3.225q-.75 0-1.292-.331a2.2 2.2 0 0 1-.834-.931q-.29-.6-.29-1.396 0-.797.29-1.404.294-.61.817-.951.526-.344 1.228-.344.405 0 .8.135.393.135.718.438.324.3.516.796t.192 1.222v.337h-3.994v-.688h3.185q0-.44-.176-.783a1.33 1.33 0 0 0-1.241-.742q-.476 0-.823.236-.344.233-.53.607-.186.375-.186.803v.459q0 .587.203.995.206.405.57.618.364.209.847.209.314 0 .566-.088a1.2 1.2 0 0 0 .442-.27q.186-.182.287-.452l.77.216q-.123.391-.409.688a2 2 0 0 1-.708.459 2.6 2.6 0 0 1-.948.162m4.153-3.225V133h-.797v-5.182h.77v.81h.067q.182-.395.553-.634.372-.243.958-.243.526 0 .921.216.396.212.614.647.22.432.22 1.093V133h-.797v-3.239q0-.61-.317-.951-.316-.344-.87-.344-.381 0-.681.165a1.2 1.2 0 0 0-.47.483 1.6 1.6 0 0 0-.172.769m7.432 5.06v-7.125h.77v.823h.094q.088-.135.243-.344.159-.211.452-.378.297-.168.803-.168.654 0 1.154.327.498.327.779.928.28.6.28 1.417 0 .822-.28 1.427-.28.6-.776.931a2.03 2.03 0 0 1-1.144.327q-.498 0-.8-.165-.3-.17-.461-.382a5 5 0 0 1-.25-.357h-.068v2.739zm.783-4.534q0 .587.172 1.036.172.445.503.698.33.25.81.25.498 0 .833-.263.337-.267.506-.716.171-.452.172-1.005 0-.547-.169-.985a1.5 1.5 0 0 0-.503-.698q-.333-.26-.84-.26-.486 0-.816.246-.33.243-.5.682-.168.435-.168 1.015m5.803-4.318V133h-.797v-6.909zm2.983 7.03a2.1 2.1 0 0 1-.894-.185 1.54 1.54 0 0 1-.638-.543 1.54 1.54 0 0 1-.236-.864q0-.445.175-.722.176-.28.47-.438.292-.159.647-.237.357-.08.719-.128.472-.06.765-.091.297-.033.432-.111.139-.078.139-.27v-.027q0-.5-.274-.776-.27-.276-.82-.277-.57 0-.893.25a1.5 1.5 0 0 0-.456.533l-.756-.27q.203-.472.54-.735.341-.267.742-.371a3 3 0 0 1 .797-.108q.249 0 .573.06.327.058.63.24.308.182.51.55.203.367.203.985V133h-.797v-.702h-.04a1.4 1.4 0 0 1-.27.361 1.6 1.6 0 0 1-.502.328q-.315.134-.766.134m.121-.715q.472 0 .796-.185a1.27 1.27 0 0 0 .661-1.097v-.728q-.05.06-.222.111-.169.047-.392.084a16 16 0 0 1-.762.101q-.31.04-.58.132a1 1 0 0 0-.432.267q-.162.175-.162.479 0 .414.307.627.31.21.786.209m5.96-4.588v.675h-2.685v-.675zm-1.902-1.241h.796v4.939q0 .337.098.506.101.165.256.222.159.054.334.054a1.4 1.4 0 0 0 .35-.04l.163.715a1.8 1.8 0 0 1-.594.094q-.337 0-.661-.145a1.3 1.3 0 0 1-.533-.442q-.21-.296-.21-.748zm5.217 6.531q-.75 0-1.292-.331a2.2 2.2 0 0 1-.833-.931q-.29-.6-.29-1.396 0-.797.29-1.404.292-.61.816-.951.526-.344 1.228-.344.404 0 .8.135.394.135.718.438.324.3.516.796t.193 1.222v.337h-3.995v-.688h3.185q0-.44-.175-.783a1.33 1.33 0 0 0-1.242-.742q-.475 0-.823.236-.344.233-.53.607-.185.375-.185.803v.459q0 .587.202.995.206.405.57.618.364.209.847.209.314 0 .567-.088a1.2 1.2 0 0 0 .442-.27q.185-.182.286-.452l.77.216q-.122.391-.409.688a2 2 0 0 1-.708.459 2.6 2.6 0 0 1-.948.162m8.12 1.943q-.576 0-.992-.148a2.1 2.1 0 0 1-.691-.385 2.1 2.1 0 0 1-.436-.506l.635-.445q.108.141.273.324.165.185.452.32.29.138.76.138.627 0 1.035-.303.408-.304.408-.952v-1.052h-.067a5 5 0 0 1-.25.351q-.159.206-.459.367-.296.159-.803.159-.627 0-1.127-.297a2.1 2.1 0 0 1-.786-.863q-.286-.567-.286-1.377 0-.796.28-1.386.28-.594.779-.918a2.06 2.06 0 0 1 1.154-.327q.506 0 .803.168.3.167.458.378.162.21.25.344h.081v-.823h.77v5.33q0 .669-.304 1.087-.3.422-.81.617a3 3 0 0 1-1.127.199m-.027-2.847q.48 0 .81-.219a1.37 1.37 0 0 0 .502-.631 2.6 2.6 0 0 0 .172-.985q0-.56-.168-.989a1.5 1.5 0 0 0-.5-.671q-.33-.243-.816-.243-.505 0-.843.256-.334.257-.503.689-.165.431-.165.958 0 .54.168.954.172.412.507.648.336.233.836.233m4.52-6.113V133H71.9v-6.909zm2.984 7.03q-.493 0-.894-.185a1.54 1.54 0 0 1-.638-.543 1.54 1.54 0 0 1-.236-.864q0-.445.175-.722.177-.28.47-.438.293-.159.647-.237.358-.08.719-.128.472-.06.766-.091.296-.033.431-.111.14-.078.139-.27v-.027q0-.5-.274-.776-.27-.276-.82-.277-.57 0-.893.25a1.5 1.5 0 0 0-.456.533l-.755-.27a1.8 1.8 0 0 1 .54-.735q.34-.267.742-.371a3 3 0 0 1 .796-.108q.249 0 .573.06.328.058.631.24.307.182.51.55.201.367.202.985V133h-.796v-.702h-.04a1.4 1.4 0 0 1-.27.361 1.6 1.6 0 0 1-.503.328q-.315.134-.766.134m.121-.715q.472 0 .797-.185a1.27 1.27 0 0 0 .66-1.097v-.728q-.05.06-.222.111-.168.047-.391.084-.22.034-.429.061l-.334.04a3 3 0 0 0-.58.132 1 1 0 0 0-.432.267q-.162.175-.162.479 0 .414.307.627.311.21.786.209m7.377-3.427-.715.202a1.3 1.3 0 0 0-.199-.347.96.96 0 0 0-.35-.284 1.3 1.3 0 0 0-.57-.111q-.476 0-.794.219-.313.216-.313.55 0 .297.216.469t.674.287l.77.189q.695.168 1.035.516.34.344.34.887 0 .445-.255.796a1.7 1.7 0 0 1-.709.554 2.6 2.6 0 0 1-1.06.202q-.792 0-1.311-.344-.52-.345-.658-1.005l.755-.189q.108.418.409.627.303.21.792.209.557 0 .884-.236.33-.24.33-.573a.6.6 0 0 0-.188-.452q-.19-.186-.58-.277l-.864-.203q-.712-.168-1.046-.522a1.27 1.27 0 0 1-.33-.894q0-.439.246-.776.249-.338.678-.53.432-.192.978-.192.77 0 1.208.337.443.338.627.891m4.964 0-.715.202a1.3 1.3 0 0 0-.2-.347.96.96 0 0 0-.35-.284 1.3 1.3 0 0 0-.57-.111q-.476 0-.793.219-.314.216-.314.55 0 .297.216.469t.675.287l.769.189q.694.168 1.036.516.34.344.34.887 0 .445-.256.796a1.7 1.7 0 0 1-.709.554 2.6 2.6 0 0 1-1.059.202q-.793 0-1.312-.344-.52-.345-.658-1.005l.756-.189q.108.418.408.627.303.21.793.209.555 0 .884-.236.33-.24.33-.573a.6.6 0 0 0-.189-.452q-.19-.186-.58-.277l-.864-.203q-.712-.168-1.045-.522a1.27 1.27 0 0 1-.331-.894q0-.439.246-.776.25-.338.678-.53.432-.192.979-.192.769 0 1.207.337.442.338.628.891M93.28 133l-1.58-5.182h.837l1.12 3.968h.055l1.106-3.968h.85l1.093 3.954h.054l1.12-3.954h.837L97.193 133h-.783l-1.133-3.981h-.081L94.062 133zm6.544 0v-5.182h.797V133zm.405-6.045a.56.56 0 0 1-.401-.159.5.5 0 0 1-.166-.381q0-.224.166-.381a.56.56 0 0 1 .401-.159q.233 0 .398.159a.5.5 0 0 1 .169.381.5.5 0 0 1-.169.381.55.55 0 0 1-.398.159m2.646 2.928V133h-.796v-5.182h.769v.81h.067q.182-.395.554-.634.37-.243.958-.243.526 0 .921.216.395.212.614.647.219.432.219 1.093V133h-.796v-3.239q0-.61-.317-.951-.318-.344-.871-.344a1.4 1.4 0 0 0-.681.165q-.297.165-.469.483a1.6 1.6 0 0 0-.172.769m6.718 3.225q-.648 0-1.144-.327a2.2 2.2 0 0 1-.776-.931q-.28-.605-.28-1.427 0-.817.28-1.417t.779-.928a2.06 2.06 0 0 1 1.154-.327q.506 0 .8.168.296.167.452.378.157.21.246.344h.067v-2.55h.797V133h-.77v-.796h-.094a6 6 0 0 1-.25.357 1.5 1.5 0 0 1-.462.382q-.3.165-.799.165m.108-.715q.479 0 .809-.25.331-.253.503-.698.172-.449.172-1.036 0-.58-.169-1.015a1.48 1.48 0 0 0-.499-.682q-.33-.246-.816-.246-.507 0-.844.26-.334.256-.503.698a2.8 2.8 0 0 0-.165.985q0 .553.169 1.005.172.45.506.716.338.263.837.263m5.94.715q-.701 0-1.231-.334a2.27 2.27 0 0 1-.823-.935q-.294-.6-.294-1.403 0-.81.294-1.413.297-.605.823-.938a2.26 2.26 0 0 1 1.231-.334q.703 0 1.228.334.53.333.824.938.296.603.296 1.413 0 .803-.296 1.403-.294.601-.824.935-.525.334-1.228.334m0-.715q.533 0 .878-.274.344-.273.509-.718.165-.446.165-.965 0-.52-.165-.968a1.63 1.63 0 0 0-.509-.725q-.345-.277-.878-.277-.532 0-.877.277a1.63 1.63 0 0 0-.509.725q-.165.449-.165.968 0 .52.165.965t.509.718q.345.274.877.274m4.562.607-1.579-5.182h.836l1.12 3.968h.054l1.107-3.968h.85l1.093 3.954h.054l1.12-3.954h.837L124.116 133h-.783l-1.133-3.981h-.081L120.985 133zm10.215-4.021-.715.202a1.3 1.3 0 0 0-.2-.347.96.96 0 0 0-.35-.284 1.3 1.3 0 0 0-.571-.111q-.475 0-.792.219-.314.216-.314.55 0 .297.216.469t.675.287l.769.189q.694.168 1.035.516.341.344.341.887 0 .445-.256.796a1.7 1.7 0 0 1-.709.554 2.6 2.6 0 0 1-1.059.202q-.793 0-1.312-.344-.52-.345-.658-1.005l.756-.189q.107.418.408.627.303.21.793.209.556 0 .883-.236.331-.24.331-.573a.6.6 0 0 0-.189-.452q-.189-.186-.58-.277l-.864-.203q-.711-.168-1.046-.522a1.27 1.27 0 0 1-.33-.894q0-.439.246-.776.25-.338.678-.53.432-.192.978-.192.77 0 1.208.337.442.338.628.891M134.49 133v-6.909h.797v2.55h.067q.088-.135.243-.344.159-.211.452-.378.297-.168.803-.168.654 0 1.154.327t.779.928q.28.6.28 1.417 0 .822-.28 1.427-.28.6-.776.931a2.03 2.03 0 0 1-1.144.327q-.498 0-.799-.165-.3-.17-.462-.382a6 6 0 0 1-.25-.357h-.094V133zm.783-2.591q0 .587.172 1.036.172.445.503.698.33.25.81.25.498 0 .833-.263.337-.267.506-.716.172-.452.172-1.005 0-.547-.169-.985a1.5 1.5 0 0 0-.502-.698q-.334-.26-.84-.26-.486 0-.817.246-.33.243-.499.682-.17.435-.169 1.015m7.182 2.699q-.749 0-1.292-.331a2.2 2.2 0 0 1-.833-.931q-.29-.6-.29-1.396 0-.797.29-1.404.294-.61.817-.951.525-.344 1.228-.344.404 0 .799.135t.719.438q.324.3.516.796t.192 1.222v.337h-3.994v-.688h3.184q0-.44-.175-.783a1.33 1.33 0 0 0-1.241-.742q-.477 0-.824.236a1.55 1.55 0 0 0-.529.607q-.186.375-.186.803v.459q0 .587.203.995.206.405.57.618.364.209.846.209.315 0 .567-.088.256-.091.442-.27.185-.182.287-.452l.769.216q-.121.391-.408.688a2 2 0 0 1-.709.459 2.6 2.6 0 0 1-.948.162m5.462 0q-.728 0-1.255-.344a2.25 2.25 0 0 1-.809-.948 3.2 3.2 0 0 1-.284-1.38q0-.79.29-1.393.294-.608.817-.948.526-.344 1.228-.344.547 0 .985.202.439.203.718.567.28.364.348.85h-.796a1.24 1.24 0 0 0-.405-.627q-.31-.277-.837-.277-.465 0-.816.243a1.57 1.57 0 0 0-.543.678q-.192.435-.193 1.022 0 .6.189 1.046a1.6 1.6 0 0 0 .54.691q.35.247.823.247.31 0 .564-.108a1.17 1.17 0 0 0 .678-.796h.796a1.84 1.84 0 0 1-1.032 1.406 2.25 2.25 0 0 1-1.006.213m4.727.013q-.494 0-.894-.185a1.54 1.54 0 0 1-.638-.543 1.54 1.54 0 0 1-.236-.864q0-.445.175-.722.176-.28.469-.438.294-.159.648-.237.357-.08.719-.128.472-.06.765-.091.297-.033.432-.111.139-.078.139-.27v-.027q0-.5-.274-.776-.27-.276-.82-.277-.57 0-.894.25a1.5 1.5 0 0 0-.455.533l-.756-.27q.202-.472.54-.735a2 2 0 0 1 .742-.371q.406-.108.796-.108.25 0 .574.06.327.058.631.24.307.182.509.55.203.367.203.985V133h-.796v-.702h-.041a1.4 1.4 0 0 1-.27.361 1.6 1.6 0 0 1-.503.328 2 2 0 0 1-.765.134m.121-.715q.472 0 .796-.185a1.27 1.27 0 0 0 .493-.479q.168-.294.169-.618v-.728q-.05.06-.223.111-.17.047-.391.084a16 16 0 0 1-.763.101q-.31.04-.58.132a1 1 0 0 0-.432.267q-.162.175-.162.479 0 .414.307.627.31.21.786.209m3.707.594v-5.182h.769v.81h.068a1.3 1.3 0 0 1 .522-.645q.362-.232.867-.232.513 0 .854.232.344.23.536.645h.054q.2-.401.597-.638.399-.239.955-.239.695 0 1.137.435.442.431.442 1.346V133h-.796v-3.468q0-.573-.314-.82a1.16 1.16 0 0 0-.739-.246q-.546 0-.846.331-.301.327-.301.829V133h-.809v-3.549q0-.442-.287-.712-.287-.273-.739-.273-.31 0-.58.165-.267.165-.432.459a1.35 1.35 0 0 0-.162.671V133zm10.429.108q-.749 0-1.292-.331a2.2 2.2 0 0 1-.833-.931q-.29-.6-.29-1.396 0-.797.29-1.404.294-.61.816-.951.527-.344 1.228-.344.405 0 .8.135t.718.438q.324.3.517.796.192.496.192 1.222v.337h-3.994v-.688h3.184q0-.44-.175-.783a1.33 1.33 0 0 0-1.242-.742q-.475 0-.823.236a1.55 1.55 0 0 0-.529.607q-.186.375-.186.803v.459q0 .587.202.995.207.405.571.618.364.209.846.209.314 0 .567-.088.256-.091.442-.27.185-.182.287-.452l.769.216q-.121.391-.408.688a2 2 0 0 1-.709.459 2.6 2.6 0 0 1-.948.162M12.729 146.943v-7.125h.769v.823h.094q.088-.135.243-.344.16-.211.452-.378.297-.168.803-.168.655 0 1.154.327.5.327.78.928.28.6.28 1.417 0 .822-.28 1.427-.28.6-.777.931a2.03 2.03 0 0 1-1.143.327q-.5 0-.8-.165-.3-.17-.462-.382a5 5 0 0 1-.25-.357h-.067v2.739zm.782-4.534q0 .587.172 1.036.173.445.503.698.33.25.81.25.499 0 .833-.263.338-.267.506-.716a2.8 2.8 0 0 0 .172-1.005q0-.547-.169-.985a1.5 1.5 0 0 0-.502-.698q-.335-.26-.84-.26-.486 0-.817.246-.33.243-.499.682-.168.435-.169 1.015m7.112 2.699q-.701 0-1.232-.334a2.27 2.27 0 0 1-.823-.935q-.293-.6-.293-1.403 0-.81.293-1.413.297-.605.823-.938a2.26 2.26 0 0 1 1.232-.334q.702 0 1.228.334.53.333.823.938.297.603.297 1.413 0 .803-.297 1.403-.294.601-.823.935-.526.334-1.228.334m0-.715q.533 0 .877-.274.345-.273.51-.718.165-.446.165-.965 0-.52-.166-.968a1.63 1.63 0 0 0-.509-.725q-.345-.277-.877-.277-.534 0-.877.277-.345.276-.51.725t-.165.968.165.965q.165.445.51.718.344.274.877.274m7.234-3.414-.715.202a1.3 1.3 0 0 0-.2-.347.96.96 0 0 0-.35-.284 1.3 1.3 0 0 0-.57-.111q-.477 0-.793.219-.315.216-.314.55 0 .297.216.469t.674.287l.77.189q.694.168 1.035.516.341.344.341.887 0 .445-.256.796a1.7 1.7 0 0 1-.709.554 2.6 2.6 0 0 1-1.059.202q-.793 0-1.312-.344-.52-.345-.658-1.005l.755-.189q.11.418.409.627.303.21.793.209.556 0 .883-.236.33-.24.331-.573a.6.6 0 0 0-.189-.452q-.19-.186-.58-.277l-.864-.203q-.711-.168-1.046-.522a1.27 1.27 0 0 1-.33-.894q0-.439.246-.776.25-.338.678-.53.432-.192.978-.192.77 0 1.208.337.442.338.628.891m4.963 0-.715.202a1.3 1.3 0 0 0-.2-.347.96.96 0 0 0-.35-.284 1.3 1.3 0 0 0-.57-.111q-.476 0-.793.219-.315.216-.314.55 0 .297.216.469t.675.287l.77.189q.694.168 1.035.516.34.344.34.887 0 .445-.256.796a1.7 1.7 0 0 1-.708.554 2.6 2.6 0 0 1-1.06.202q-.793 0-1.312-.344-.52-.345-.658-1.005l.756-.189q.108.418.408.627.304.21.793.209.557 0 .884-.236.33-.24.33-.573a.6.6 0 0 0-.189-.452q-.189-.186-.58-.277l-.863-.203q-.713-.168-1.046-.522a1.27 1.27 0 0 1-.33-.894q0-.439.245-.776.25-.338.678-.53.432-.192.979-.192.769 0 1.208.337.441.338.627.891M34.113 145v-5.182h.796V145zm.405-6.045a.56.56 0 0 1-.402-.159.5.5 0 0 1-.165-.381q0-.224.165-.381a.56.56 0 0 1 .402-.159q.233 0 .398.159a.5.5 0 0 1 .169.381.5.5 0 0 1-.17.381.55.55 0 0 1-.397.159M36.475 145v-6.909h.797v2.55h.067q.088-.135.243-.344.159-.211.452-.378.297-.168.803-.168.654 0 1.154.327.498.327.779.928.28.6.28 1.417 0 .822-.28 1.427-.28.6-.776.931a2.03 2.03 0 0 1-1.144.327q-.5 0-.8-.165-.3-.17-.461-.382a5 5 0 0 1-.25-.357h-.094V145zm.783-2.591q0 .587.172 1.036.172.445.503.698.33.25.81.25.498 0 .833-.263.336-.267.506-.716.171-.452.172-1.005 0-.547-.169-.985a1.5 1.5 0 0 0-.503-.698q-.333-.26-.84-.26-.485 0-.816.246-.33.243-.5.682-.168.435-.168 1.015m5.806-4.318V145h-.796v-6.909zm3.63 7.017q-.749 0-1.291-.331a2.2 2.2 0 0 1-.834-.931q-.29-.6-.29-1.396 0-.797.29-1.404.294-.61.817-.951.525-.344 1.228-.344.404 0 .8.135.394.135.718.438.324.3.516.796t.192 1.222v.337h-3.994v-.688h3.185q0-.44-.176-.783a1.33 1.33 0 0 0-1.241-.742q-.476 0-.823.236-.344.233-.53.607-.186.375-.186.803v.459q0 .587.203.995.205.405.57.618.364.209.847.209.314 0 .566-.088a1.2 1.2 0 0 0 .442-.27q.186-.182.287-.452l.77.216q-.123.391-.409.688a2 2 0 0 1-.708.459 2.6 2.6 0 0 1-.948.162m4.505-1.053-.054.365a7 7 0 0 1-.176.823 15 15 0 0 1-.24.826 24 24 0 0 1-.205.618h-.608l.115-.57a22 22 0 0 0 .263-1.684l.04-.378zm4.14 2.888v-7.125h.77v.823h.094q.088-.135.243-.344.16-.211.452-.378.297-.168.803-.168.654 0 1.154.327t.78.928q.28.6.28 1.417 0 .822-.28 1.427-.281.6-.777.931a2.03 2.03 0 0 1-1.143.327q-.5 0-.8-.165-.3-.17-.462-.382a5 5 0 0 1-.25-.357h-.067v2.739zm.783-4.534q0 .587.172 1.036.173.445.503.698.33.25.81.25.498 0 .833-.263.337-.267.506-.716.172-.452.172-1.005 0-.547-.169-.985a1.5 1.5 0 0 0-.502-.698q-.334-.26-.84-.26-.486 0-.817.246-.33.243-.5.682-.168.435-.168 1.015m7.18 2.699q-.75 0-1.293-.331a2.2 2.2 0 0 1-.833-.931q-.29-.6-.29-1.396 0-.797.29-1.404.293-.61.816-.951.526-.344 1.228-.344.405 0 .8.135.394.135.718.438.324.3.516.796.193.496.193 1.222v.337h-3.995v-.688h3.185q0-.44-.175-.783a1.33 1.33 0 0 0-1.242-.742q-.475 0-.823.236-.344.233-.53.607-.185.375-.185.803v.459q0 .587.202.995.207.405.57.618.365.209.847.209.314 0 .567-.088a1.2 1.2 0 0 0 .442-.27 1.2 1.2 0 0 0 .287-.452l.769.216q-.122.391-.408.688a2 2 0 0 1-.709.459 2.6 2.6 0 0 1-.948.162m5.461 0q-.702 0-1.231-.334a2.27 2.27 0 0 1-.823-.935q-.294-.6-.294-1.403 0-.81.293-1.413.297-.605.824-.938a2.26 2.26 0 0 1 1.231-.334q.702 0 1.228.334.53.333.823.938.297.603.297 1.413 0 .803-.297 1.403-.293.601-.823.935-.526.334-1.228.334m0-.715q.533 0 .877-.274.345-.273.51-.718.165-.446.165-.965 0-.52-.165-.968a1.63 1.63 0 0 0-.51-.725q-.345-.277-.877-.277-.533 0-.877.277-.345.276-.51.725t-.165.968.165.965q.165.445.51.718.345.274.877.274m3.563 2.55v-7.125h.77v.823h.094q.089-.135.243-.344.158-.211.452-.378.296-.168.803-.168.653 0 1.154.327.498.327.779.928.28.6.28 1.417 0 .822-.28 1.427-.28.6-.776.931a2.03 2.03 0 0 1-1.144.327q-.498 0-.8-.165-.3-.17-.461-.382a5 5 0 0 1-.25-.357h-.067v2.739zm.783-4.534q0 .587.172 1.036.172.445.503.698.33.25.81.25.498 0 .833-.263.337-.267.506-.716.172-.452.172-1.005 0-.547-.169-.985a1.5 1.5 0 0 0-.503-.698q-.333-.26-.84-.26-.486 0-.816.246-.33.243-.5.682-.168.435-.168 1.015m5.803-4.318V145h-.797v-6.909zm3.63 7.017q-.749 0-1.292-.331a2.2 2.2 0 0 1-.833-.931q-.29-.6-.29-1.396 0-.797.29-1.404.294-.61.816-.951.526-.344 1.228-.344.405 0 .8.135t.719.438q.323.3.516.796.192.496.192 1.222v.337h-3.994v-.688h3.184q0-.44-.175-.783a1.33 1.33 0 0 0-1.242-.742q-.475 0-.823.236-.345.233-.53.607-.185.375-.185.803v.459q0 .587.203.995.206.405.57.618.364.209.846.209.314 0 .567-.088a1.2 1.2 0 0 0 .442-.27 1.2 1.2 0 0 0 .287-.452l.769.216q-.12.391-.408.688a2 2 0 0 1-.709.459 2.6 2.6 0 0 1-.948.162m8.282-5.29v.675H88.14v-.675zm-1.902-1.241h.796v4.939q0 .337.098.506.101.165.256.222.159.054.334.054a1.4 1.4 0 0 0 .351-.04l.162.715a1.8 1.8 0 0 1-.594.094q-.337 0-.661-.145a1.3 1.3 0 0 1-.533-.442q-.21-.296-.21-.748zm4.008 3.306V145h-.797v-6.909h.797v2.537h.067q.183-.401.547-.638.367-.239.978-.239.53 0 .928.212.397.21.617.645.223.431.223 1.099V145h-.796v-3.239q0-.617-.32-.954-.318-.342-.881-.341-.392 0-.702.165-.308.165-.486.483a1.56 1.56 0 0 0-.175.769m6.921 3.225q-.701 0-1.231-.334a2.27 2.27 0 0 1-.823-.935q-.294-.6-.294-1.403 0-.81.294-1.413.297-.605.823-.938a2.26 2.26 0 0 1 1.231-.334q.703 0 1.228.334.53.333.824.938.296.603.296 1.413 0 .803-.296 1.403a2.24 2.24 0 0 1-.824.935q-.525.334-1.228.334m0-.715q.533 0 .878-.274.344-.273.509-.718.165-.446.165-.965 0-.52-.165-.968a1.63 1.63 0 0 0-.509-.725q-.345-.277-.878-.277-.532 0-.877.277-.344.276-.51.725-.165.449-.165.968 0 .52.166.965.165.445.51.718.344.274.876.274m6.829-1.512v-3.063h.797V145h-.797v-.877h-.054q-.182.395-.566.671-.386.273-.972.273-.486 0-.864-.212a1.5 1.5 0 0 1-.593-.648q-.216-.435-.216-1.096v-3.293h.796v3.239q0 .567.317.904.321.337.816.337.297 0 .604-.152.31-.151.52-.465.212-.314.212-.8m4.346 4.17q-.576 0-.991-.148a2.1 2.1 0 0 1-1.127-.891l.634-.445q.108.141.273.324.165.185.452.32.291.138.759.138.628 0 1.036-.303.408-.304.408-.952v-1.052h-.067a5 5 0 0 1-.25.351 1.4 1.4 0 0 1-.459.367q-.296.159-.803.159a2.16 2.16 0 0 1-1.126-.297 2.1 2.1 0 0 1-.786-.863q-.288-.567-.287-1.377 0-.796.28-1.386.28-.594.779-.918a2.06 2.06 0 0 1 1.154-.327q.506 0 .803.168.3.167.459.378.162.21.249.344h.081v-.823h.769v5.33q0 .669-.303 1.087-.3.422-.81.617a3 3 0 0 1-1.127.199m-.027-2.847q.48 0 .81-.219.33-.22.503-.631.172-.412.172-.985 0-.56-.169-.989a1.5 1.5 0 0 0-.499-.671q-.331-.243-.817-.243-.505 0-.843.256-.334.257-.503.689a2.7 2.7 0 0 0-.165.958q0 .54.169.954.171.412.506.648.338.233.836.233m4.521-2.321V145h-.796v-6.909h.796v2.537h.067a1.47 1.47 0 0 1 .547-.638q.367-.239.978-.239.53 0 .928.212.398.21.617.645.223.431.223 1.099V145h-.796v-3.239q0-.617-.321-.954-.317-.342-.88-.341-.391 0-.702.165-.306.165-.486.483a1.56 1.56 0 0 0-.175.769m7.07-2.065v.675h-2.685v-.675zm-1.903-1.241h.797v4.939q0 .337.097.506.101.165.257.222.159.054.334.054a1.4 1.4 0 0 0 .351-.04l.162.715a1.8 1.8 0 0 1-.594.094q-.337 0-.661-.145a1.3 1.3 0 0 1-.533-.442q-.21-.296-.21-.748zm8.026 1.241v.675h-2.685v-.675zm-1.902-1.241h.796v4.939q0 .337.098.506a.5.5 0 0 0 .256.222q.159.054.334.054a1.4 1.4 0 0 0 .351-.04l.162.715a1.8 1.8 0 0 1-.594.094q-.337 0-.661-.145a1.3 1.3 0 0 1-.533-.442q-.21-.296-.209-.748zm4.007 3.306V145h-.796v-6.909h.796v2.537h.068q.181-.401.546-.638.368-.239.979-.239.53 0 .927.212.399.21.618.645.222.431.222 1.099V145h-.796v-3.239q0-.617-.32-.954-.317-.342-.881-.341-.392 0-.701.165t-.486.483a1.56 1.56 0 0 0-.176.769m6.342 3.238q-.494 0-.894-.185a1.54 1.54 0 0 1-.638-.543 1.54 1.54 0 0 1-.236-.864q0-.445.175-.722.176-.28.469-.438.294-.159.648-.237.358-.08.719-.128.472-.06.766-.091.296-.033.431-.111.14-.078.139-.27v-.027q0-.5-.274-.776-.27-.276-.819-.277-.57 0-.894.25a1.5 1.5 0 0 0-.456.533l-.756-.27q.203-.472.54-.735a2 2 0 0 1 .742-.371q.405-.108.797-.108.249 0 .573.06.328.058.631.24.307.182.509.55.203.367.203.985V145h-.796v-.702h-.041a1.4 1.4 0 0 1-.27.361 1.6 1.6 0 0 1-.502.328 2 2 0 0 1-.766.134m.121-.715q.473 0 .796-.185a1.26 1.26 0 0 0 .662-1.097v-.728q-.05.06-.223.111-.168.047-.391.084a16 16 0 0 1-.763.101q-.31.04-.58.132a1 1 0 0 0-.432.267q-.162.175-.162.479 0 .414.307.627.31.21.786.209m5.961-4.588v.675h-2.686v-.675zm-1.903-1.241h.796v4.939q0 .337.098.506.101.165.256.222.159.054.334.054a1.4 1.4 0 0 0 .351-.04l.162.715a1.8 1.8 0 0 1-.594.094q-.337 0-.661-.145a1.3 1.3 0 0 1-.533-.442q-.209-.296-.209-.748zm8.026 1.241v.675h-2.686v-.675zm-1.903-1.241h.796v4.939q0 .337.098.506.101.165.256.222.159.054.334.054a1.4 1.4 0 0 0 .351-.04l.162.715a1.8 1.8 0 0 1-.594.094q-.337 0-.661-.145a1.3 1.3 0 0 1-.533-.442q-.209-.296-.209-.748zm4.008 3.306V145h-.796v-6.909h.796v2.537h.067a1.47 1.47 0 0 1 .547-.638q.368-.239.978-.239.53 0 .928.212.398.21.617.645.223.431.223 1.099V145h-.796v-3.239q0-.617-.321-.954-.317-.342-.88-.341-.391 0-.702.165-.308.165-.486.483a1.56 1.56 0 0 0-.175.769m6.989 3.225q-.749 0-1.292-.331a2.2 2.2 0 0 1-.833-.931q-.291-.6-.291-1.396 0-.797.291-1.404.293-.61.816-.951.526-.344 1.228-.344.405 0 .799.135.395.135.719.438.324.3.516.796t.192 1.222v.337h-3.994v-.688h3.185q0-.44-.176-.783a1.3 1.3 0 0 0-.492-.543 1.4 1.4 0 0 0-.749-.199 1.43 1.43 0 0 0-.823.236q-.344.233-.53.607-.186.375-.185.803v.459q0 .587.202.995.206.405.57.618.364.209.847.209.314 0 .567-.088.256-.091.442-.27.185-.182.286-.452l.77.216q-.122.391-.409.688a2 2 0 0 1-.708.459 2.6 2.6 0 0 1-.948.162m3.712 1.835q-.203 0-.361-.034a1 1 0 0 1-.22-.06l.203-.702q.29.074.513.054a.6.6 0 0 0 .394-.199q.175-.175.321-.57l.148-.405-1.916-5.209h.864l1.43 4.129h.054l1.43-4.129h.864l-2.199 5.938a2.3 2.3 0 0 1-.368.664q-.219.267-.51.395a1.6 1.6 0 0 1-.647.128m5.355-1.889a.59.59 0 0 1-.428-.179.59.59 0 0 1-.179-.428q0-.25.179-.429a.59.59 0 0 1 .428-.179q.25 0 .429.179a.58.58 0 0 1 .178.429q0 .165-.084.303a.6.6 0 0 1-.219.223.6.6 0 0 1-.304.081m2.591 0a.59.59 0 0 1-.428-.179.58.58 0 0 1-.179-.428q0-.25.179-.429a.59.59 0 0 1 .428-.179q.25 0 .429.179a.58.58 0 0 1 .178.429q0 .165-.084.303a.6.6 0 0 1-.219.223.6.6 0 0 1-.304.081m2.591 0a.59.59 0 0 1-.428-.179.58.58 0 0 1-.179-.428q0-.25.179-.429a.59.59 0 0 1 .428-.179q.25 0 .428.179.18.179.179.429 0 .165-.084.303a.6.6 0 0 1-.219.223.6.6 0 0 1-.304.081" class="fill-primary"/><path d="M17.164 166.176a1.09 1.09 0 0 0-.477-.813q-.413-.288-1.07-.289-.46 0-.793.141a1.16 1.16 0 0 0-.511.383.9.9 0 0 0-.18.55.8.8 0 0 0 .117.45q.12.187.324.32.207.129.45.219.246.085.492.144l.757.192q.434.101.848.277.419.172.75.445.336.27.535.657.203.386.203.91 0 .699-.359 1.23-.355.532-1.031.832-.672.301-1.625.301-.926 0-1.606-.289A2.4 2.4 0 0 1 12.93 171q-.383-.547-.414-1.324h1.37q.033.421.262.703.236.277.606.418.375.137.828.137.48 0 .848-.149.37-.148.582-.414a.96.96 0 0 0 .21-.617.77.77 0 0 0-.187-.535 1.4 1.4 0 0 0-.512-.352 5 5 0 0 0-.757-.25l-.918-.246q-.98-.253-1.551-.766-.57-.514-.567-1.371a2.02 2.02 0 0 1 .38-1.23 2.5 2.5 0 0 1 1.038-.82 3.6 3.6 0 0 1 1.489-.293q.843 0 1.48.293.64.292 1.004.808.363.516.379 1.184zm5.294 5.945q-.87 0-1.512-.387a2.63 2.63 0 0 1-.992-1.086q-.352-.694-.352-1.621 0-.933.352-1.632.352-.7.992-1.086t1.512-.387q.87 0 1.512.387.64.386.992 1.086.352.699.352 1.632 0 .927-.352 1.621a2.63 2.63 0 0 1-.992 1.086q-.64.387-1.512.387m.004-1.098q.5 0 .828-.269.329-.27.488-.723.165-.457.164-1.011 0-.555-.164-1.012a1.6 1.6 0 0 0-.488-.727q-.329-.273-.828-.273-.5 0-.832.273-.332.27-.496.727a3 3 0 0 0-.16 1.012q0 .554.16 1.011.164.453.496.723t.832.269M27.887 164v8H26.53v-8zm5.3 5.488V166h1.356v6h-1.316v-1.059h-.063q-.206.496-.668.817-.458.32-1.137.32-.585 0-1.035-.262a1.8 1.8 0 0 1-.703-.765q-.25-.504-.254-1.235V166h1.356v3.617q0 .582.316.926.32.344.836.344.32 0 .621-.153.3-.156.496-.464.2-.313.196-.782M38.967 166v1.055h-3.403V166zm-2.547-1.438h1.355v5.645q0 .297.09.453t.239.211.332.055q.132 0 .242-.02l.168-.031.23 1.07a4 4 0 0 1-.312.082q-.203.048-.5.055a2.25 2.25 0 0 1-.934-.164 1.5 1.5 0 0 1-.668-.547q-.246-.37-.242-.93zM40.174 172v-6h1.355v6zm.683-6.867a.8.8 0 0 1-.562-.219.71.71 0 0 1-.235-.535q0-.31.235-.527a.79.79 0 0 1 .562-.223q.33 0 .563.223a.7.7 0 0 1 .234.527.71.71 0 0 1-.234.535.8.8 0 0 1-.563.219m4.75 6.988q-.87 0-1.511-.387a2.63 2.63 0 0 1-.992-1.086q-.352-.694-.352-1.621 0-.933.351-1.632.352-.7.993-1.086.64-.387 1.511-.387.872 0 1.512.387.64.386.992 1.086.352.699.352 1.632 0 .927-.352 1.621a2.63 2.63 0 0 1-.992 1.086q-.64.387-1.512.387m.004-1.098q.5 0 .829-.269.327-.27.488-.723.165-.457.164-1.011 0-.555-.164-1.012a1.6 1.6 0 0 0-.488-.727q-.329-.273-.829-.273t-.832.273q-.331.27-.496.727a3 3 0 0 0-.16 1.012q0 .554.16 1.011.165.453.496.723.333.27.832.269m5.425-2.55V172h-1.355v-6h1.297v1.008h.074q.203-.496.656-.789.453-.297 1.125-.297.617 0 1.078.265.465.262.719.766.258.504.258 1.231V172h-1.356v-3.617q0-.618-.32-.961-.317-.348-.875-.348-.38 0-.672.164a1.17 1.17 0 0 0-.46.477 1.6 1.6 0 0 0-.169.758" class="fill-accent"/><path fill-rule="evenodd" d="M170.508 166.926a.4.4 0 0 1 .565-.018l2.927 2.744 2.926-2.744a.4.4 0 0 1 .548.584l-3.201 3a.4.4 0 0 1-.547 0l-3.2-3a.4.4 0 0 1-.018-.566" clip-rule="evenodd" class="fill-symbol"/><path d="M14.969 189h-2.132v-6.909h2.226q1.005 0 1.72.415.716.411 1.097 1.184.381.77.381 1.842 0 1.08-.384 1.859-.385.775-1.12 1.194-.736.415-1.788.415m-1.296-.742h1.242q.857 0 1.42-.331.564-.33.84-.941.277-.61.277-1.454 0-.837-.274-1.441a2.02 2.02 0 0 0-.816-.931q-.543-.327-1.353-.327h-1.336zm5.884.742v-5.182h.796V189zm.405-6.045a.56.56 0 0 1-.402-.159.5.5 0 0 1-.165-.381q0-.224.165-.381a.56.56 0 0 1 .402-.159q.233 0 .398.159a.5.5 0 0 1 .168.381.5.5 0 0 1-.168.381.55.55 0 0 1-.398.159m6.086.863L24.132 189h-.81l-1.916-5.182h.864l1.43 4.129h.054l1.43-4.129zM27.1 189v-5.182h.796V189zm.405-6.045a.56.56 0 0 1-.401-.159.5.5 0 0 1-.166-.381q0-.224.166-.381a.56.56 0 0 1 .401-.159q.233 0 .398.159a.5.5 0 0 1 .169.381.5.5 0 0 1-.169.381.55.55 0 0 1-.398.159m3.806 6.153a2.03 2.03 0 0 1-1.143-.327 2.2 2.2 0 0 1-.776-.931q-.28-.605-.28-1.427 0-.817.28-1.417t.78-.928a2.06 2.06 0 0 1 1.153-.327q.506 0 .8.168.296.167.451.378.159.21.247.344h.067v-2.55h.796V189h-.769v-.796h-.094a5 5 0 0 1-.25.357 1.5 1.5 0 0 1-.462.382q-.3.165-.8.165m.108-.715q.48 0 .81-.25.33-.253.503-.698.171-.449.172-1.036 0-.58-.169-1.015a1.48 1.48 0 0 0-.5-.682q-.33-.246-.816-.246-.505 0-.843.26-.334.256-.503.698-.165.439-.165.985 0 .553.169 1.005.171.45.506.716.337.263.836.263m6.009.715q-.75 0-1.292-.331a2.2 2.2 0 0 1-.834-.931q-.29-.6-.29-1.396 0-.797.29-1.404.294-.61.817-.951.525-.344 1.228-.344.405 0 .8.135.394.135.718.438.324.3.516.796t.192 1.222v.337h-3.994v-.688h3.185q0-.44-.176-.783a1.33 1.33 0 0 0-1.241-.742q-.476 0-.823.236-.344.233-.53.607-.186.375-.186.803v.459q0 .587.203.995.206.405.57.618.364.209.847.209.314 0 .566-.088a1.2 1.2 0 0 0 .442-.27 1.2 1.2 0 0 0 .287-.452l.77.216q-.123.391-.409.688a2 2 0 0 1-.708.459 2.6 2.6 0 0 1-.948.162m8.2 0q-.748 0-1.291-.331a2.2 2.2 0 0 1-.834-.931q-.29-.6-.29-1.396 0-.797.29-1.404.294-.61.817-.951.525-.344 1.228-.344.405 0 .8.135.394.135.718.438.324.3.516.796t.192 1.222v.337H43.78v-.688h3.185q0-.44-.176-.783a1.33 1.33 0 0 0-1.241-.742q-.476 0-.823.236-.344.233-.53.607-.186.375-.186.803v.459q0 .587.203.995.205.405.57.618.364.209.847.209.313 0 .567-.088a1.2 1.2 0 0 0 .441-.27q.186-.182.287-.452l.77.216q-.122.391-.409.688a2 2 0 0 1-.708.459 2.6 2.6 0 0 1-.948.162m4.882.013a2.1 2.1 0 0 1-.894-.185 1.54 1.54 0 0 1-.637-.543 1.54 1.54 0 0 1-.236-.864q0-.445.175-.722.175-.28.469-.438.294-.159.648-.237a8 8 0 0 1 .718-.128q.472-.06.766-.091.297-.033.432-.111.138-.078.138-.27v-.027q0-.5-.273-.776-.27-.276-.82-.277-.57 0-.894.25a1.5 1.5 0 0 0-.455.533l-.756-.27q.202-.472.54-.735.34-.267.742-.371a3 3 0 0 1 .796-.108q.25 0 .574.06.327.058.63.24.308.182.51.55.202.367.202.985V189h-.796v-.702h-.04a1.4 1.4 0 0 1-.27.361 1.6 1.6 0 0 1-.503.328q-.313.134-.766.134m.122-.715q.472 0 .796-.185a1.27 1.27 0 0 0 .661-1.097v-.728q-.051.06-.222.111-.169.047-.392.084a16 16 0 0 1-.762.101 3 3 0 0 0-.58.132 1 1 0 0 0-.432.267q-.162.175-.162.479 0 .414.307.627.31.21.786.209m5.812.702q-.729 0-1.255-.344a2.25 2.25 0 0 1-.81-.948 3.2 3.2 0 0 1-.283-1.38q0-.79.29-1.393.294-.608.816-.948.526-.344 1.228-.344.546 0 .985.202.439.203.719.567t.347.85h-.796a1.23 1.23 0 0 0-.405-.627q-.31-.277-.836-.277-.465 0-.817.243a1.6 1.6 0 0 0-.543.678q-.192.435-.192 1.022 0 .6.189 1.046.192.445.54.691.35.247.823.247.31 0 .563-.108a1.16 1.16 0 0 0 .678-.796h.796a1.84 1.84 0 0 1-1.032 1.406 2.25 2.25 0 0 1-1.005.213m3.997-3.225V189h-.796v-6.909h.796v2.537h.068q.181-.401.546-.638.368-.239.979-.239.53 0 .927.212.399.21.618.645.222.431.222 1.099V189h-.796v-3.239q0-.617-.32-.954-.318-.342-.88-.341-.392 0-.702.165-.307.165-.486.483a1.57 1.57 0 0 0-.176.769M69.103 189l-1.579-5.182h.837l1.12 3.968h.054l1.106-3.968h.85l1.093 3.954h.054l1.12-3.954h.837L73.016 189h-.782l-1.134-3.981h-.08L69.885 189zm6.545 0v-5.182h.796V189zm.404-6.045a.56.56 0 0 1-.401-.159.5.5 0 0 1-.165-.381q0-.224.165-.381a.56.56 0 0 1 .401-.159q.233 0 .399.159a.5.5 0 0 1 .168.381.5.5 0 0 1-.168.381.55.55 0 0 1-.398.159m2.646 2.928V189h-.796v-5.182h.77v.81h.067q.182-.395.553-.634.371-.243.958-.243.526 0 .921.216.395.212.614.647.22.432.22 1.093V189h-.797v-3.239q0-.61-.317-.951-.317-.344-.87-.344-.382 0-.682.165a1.2 1.2 0 0 0-.469.483 1.6 1.6 0 0 0-.172.769m6.718 3.225a2.03 2.03 0 0 1-1.144-.327 2.2 2.2 0 0 1-.776-.931q-.28-.605-.28-1.427 0-.817.28-1.417t.78-.928a2.06 2.06 0 0 1 1.153-.327q.507 0 .8.168.297.167.452.378.159.21.246.344h.068v-2.55h.796V189h-.77v-.796h-.094a5 5 0 0 1-.25.357 1.5 1.5 0 0 1-.462.382q-.3.165-.8.165m.108-.715q.48 0 .81-.25.33-.253.502-.698.172-.449.172-1.036 0-.58-.168-1.015a1.5 1.5 0 0 0-.5-.682q-.33-.246-.816-.246-.507 0-.844.26-.334.256-.502.698-.166.439-.166.985 0 .553.17 1.005.17.45.505.716.337.263.837.263m5.94.715q-.701 0-1.23-.334a2.27 2.27 0 0 1-.824-.935q-.293-.6-.293-1.403 0-.81.293-1.413.297-.605.823-.938a2.26 2.26 0 0 1 1.232-.334q.702 0 1.228.334.53.333.823.938.297.603.297 1.413 0 .803-.297 1.403-.294.601-.823.935-.526.334-1.228.334m0-.715q.533 0 .878-.274.344-.273.51-.718.165-.446.164-.965 0-.52-.165-.968a1.63 1.63 0 0 0-.51-.725q-.344-.277-.876-.277-.534 0-.877.277-.345.276-.51.725t-.165.968.165.965q.165.445.51.718.343.274.877.274m4.562.607-1.58-5.182h.838l1.12 3.968h.054l1.106-3.968h.85l1.093 3.954h.054l1.12-3.954h.837L99.939 189h-.783l-1.133-3.981h-.081L96.808 189zm9.216 0v-5.182h.797V189zm.405-6.045a.56.56 0 0 1-.401-.159.51.51 0 0 1-.166-.381q0-.224.166-.381a.56.56 0 0 1 .401-.159q.233 0 .398.159a.5.5 0 0 1 .169.381.5.5 0 0 1-.169.381.55.55 0 0 1-.398.159m2.646 2.928V189h-.796v-5.182h.769v.81h.067q.183-.395.554-.634.37-.243.958-.243.526 0 .921.216.395.212.614.647.219.432.219 1.093V189h-.796v-3.239q0-.61-.317-.951-.318-.344-.871-.344a1.4 1.4 0 0 0-.681.165q-.297.165-.469.483a1.6 1.6 0 0 0-.172.769m7.014-2.065v.675h-2.685v-.675zm-1.902-1.241h.796v4.939q0 .337.098.506.101.165.256.222.159.054.334.054a1.4 1.4 0 0 0 .351-.04l.162.715a1.8 1.8 0 0 1-.594.094q-.337 0-.661-.145a1.3 1.3 0 0 1-.533-.442q-.21-.296-.209-.748zm5.15 6.531q-.702 0-1.232-.334a2.27 2.27 0 0 1-.823-.935q-.294-.6-.294-1.403 0-.81.294-1.413.297-.605.823-.938.53-.334 1.232-.334.701 0 1.227.334.53.333.824.938.297.603.297 1.413 0 .803-.297 1.403-.293.601-.824.935-.526.334-1.227.334m0-.715q.532 0 .877-.274.344-.273.509-.718.165-.446.165-.965 0-.52-.165-.968a1.63 1.63 0 0 0-.509-.725q-.345-.277-.877-.277-.534 0-.878.277a1.63 1.63 0 0 0-.509.725q-.165.449-.165.968 0 .52.165.965t.509.718q.344.274.878.274m9.905-3.414-.715.202a1.3 1.3 0 0 0-.199-.347.96.96 0 0 0-.351-.284 1.3 1.3 0 0 0-.57-.111q-.475 0-.793.219-.314.216-.314.55 0 .297.216.469t.675.287l.769.189q.696.168 1.036.516.34.344.341.887 0 .445-.257.796a1.7 1.7 0 0 1-.708.554 2.6 2.6 0 0 1-1.06.202q-.792 0-1.312-.344-.519-.345-.658-1.005l.756-.189q.108.418.408.627.304.21.793.209.557 0 .884-.236.33-.24.33-.573a.6.6 0 0 0-.188-.452q-.19-.186-.581-.277l-.863-.203q-.712-.168-1.046-.522a1.27 1.27 0 0 1-.331-.894q0-.439.247-.776.249-.338.678-.53a2.4 2.4 0 0 1 .978-.192q.769 0 1.208.337.441.338.627.891m1.293 4.021v-5.182h.769v.81h.068a1.3 1.3 0 0 1 .523-.645q.36-.232.867-.232.513 0 .853.232.344.23.537.645h.054q.198-.401.597-.638.398-.239.954-.239.696 0 1.137.435.442.431.442 1.346V189h-.796v-3.468q0-.573-.314-.82a1.16 1.16 0 0 0-.738-.246q-.547 0-.847.331-.3.327-.3.829V189h-.81v-3.549q0-.442-.287-.712-.286-.273-.739-.273-.31 0-.58.165-.267.165-.432.459a1.35 1.35 0 0 0-.162.671V189zm9.782.121q-.494 0-.894-.185a1.54 1.54 0 0 1-.638-.543 1.54 1.54 0 0 1-.236-.864q0-.445.175-.722.176-.28.469-.438.294-.159.648-.237.358-.08.719-.128.472-.06.766-.091.296-.033.431-.111.14-.078.139-.27v-.027q0-.5-.274-.776-.27-.276-.819-.277-.57 0-.894.25a1.5 1.5 0 0 0-.456.533l-.756-.27q.203-.472.54-.735a2 2 0 0 1 .742-.371q.405-.108.797-.108.249 0 .573.06.328.058.631.24.307.182.509.55.203.367.203.985V189h-.796v-.702h-.041a1.4 1.4 0 0 1-.27.361 1.6 1.6 0 0 1-.502.328 2 2 0 0 1-.766.134m.121-.715q.473 0 .796-.185a1.26 1.26 0 0 0 .662-1.097v-.728q-.05.06-.223.111-.168.047-.391.084a16 16 0 0 1-.763.101q-.31.04-.58.132a1 1 0 0 0-.432.267q-.162.175-.162.479 0 .414.307.627.31.21.786.209m4.503-6.315V189h-.796v-6.909zm2.255 0V189h-.797v-6.909zm4.13 8.852v-7.125h.769v.823h.094q.088-.135.243-.344.16-.211.452-.378.297-.168.803-.168.654 0 1.154.327t.779.928q.28.6.28 1.417 0 .822-.28 1.427-.28.6-.776.931-.496.327-1.143.327-.5 0-.8-.165-.3-.17-.462-.382a6 6 0 0 1-.25-.357h-.067v2.739zm.782-4.534q0 .587.172 1.036.173.445.503.698.33.25.81.25.499 0 .833-.263.338-.266.506-.716.172-.452.172-1.005 0-.547-.169-.985a1.5 1.5 0 0 0-.502-.698q-.334-.26-.84-.26-.486 0-.817.246-.33.243-.499.682-.169.435-.169 1.015m6.532 2.712q-.494 0-.894-.185a1.53 1.53 0 0 1-.638-.543 1.54 1.54 0 0 1-.236-.864q0-.445.175-.722.175-.28.469-.438.294-.159.648-.237a8 8 0 0 1 .718-.128q.473-.06.766-.091.297-.033.432-.111.138-.078.138-.27v-.027q0-.5-.273-.776-.27-.276-.82-.277-.57 0-.894.25a1.5 1.5 0 0 0-.455.533l-.756-.27q.202-.472.54-.735a2 2 0 0 1 .742-.371q.405-.108.796-.108.25 0 .574.06.327.058.631.24.306.182.509.55.203.367.203.985V189h-.797v-.702h-.04a1.4 1.4 0 0 1-.27.361 1.6 1.6 0 0 1-.503.328 2 2 0 0 1-.765.134m.121-.715q.472 0 .796-.185a1.27 1.27 0 0 0 .493-.479q.168-.294.168-.618v-.728q-.05.06-.222.111-.169.047-.392.084-.22.034-.428.061l-.334.04q-.31.04-.58.132a1 1 0 0 0-.432.267q-.162.175-.162.479 0 .414.307.627.31.21.786.209m4.503-2.523V189h-.796v-5.182h.769v.81h.067q.183-.395.554-.634.37-.243.958-.243.526 0 .921.216.395.212.614.647.219.432.219 1.093V189h-.796v-3.239q0-.61-.317-.951-.318-.344-.871-.344a1.4 1.4 0 0 0-.681.165q-.297.165-.469.483a1.6 1.6 0 0 0-.172.769m6.933 3.225q-.749 0-1.292-.331a2.2 2.2 0 0 1-.833-.931q-.29-.6-.29-1.396 0-.797.29-1.404.294-.61.816-.951.527-.344 1.228-.344.405 0 .8.135t.719.438q.323.3.516.796.192.496.192 1.222v.337h-3.994v-.688h3.184q0-.44-.175-.783a1.33 1.33 0 0 0-1.242-.742q-.475 0-.823.236a1.55 1.55 0 0 0-.529.607q-.186.375-.186.803v.459q0 .587.203.995.206.405.57.618.364.209.846.209.315 0 .567-.088.256-.091.442-.27.185-.182.287-.452l.769.216q-.121.391-.408.688a2 2 0 0 1-.709.459 2.6 2.6 0 0 1-.948.162m7.028-4.129-.716.202a1.3 1.3 0 0 0-.199-.347.96.96 0 0 0-.35-.284 1.3 1.3 0 0 0-.571-.111q-.475 0-.792.219-.315.216-.314.55 0 .297.216.469t.674.287l.77.189q.694.168 1.035.516.34.344.341.887 0 .445-.256.796a1.7 1.7 0 0 1-.709.554 2.6 2.6 0 0 1-1.059.202q-.793 0-1.312-.344-.52-.345-.658-1.005l.755-.189q.108.418.409.627.303.21.792.209.558 0 .884-.236.331-.24.331-.573a.6.6 0 0 0-.189-.452q-.189-.186-.58-.277l-.864-.203q-.711-.168-1.046-.522a1.27 1.27 0 0 1-.33-.894q0-.439.246-.776.249-.338.678-.53.432-.192.978-.192.77 0 1.208.337.442.338.628.891m1.873 4.075a.59.59 0 0 1-.429-.179.58.58 0 0 1-.178-.428q0-.25.178-.429a.59.59 0 0 1 .429-.179q.25 0 .428.179a.59.59 0 0 1 .179.429q0 .165-.084.303a.6.6 0 0 1-.22.223.6.6 0 0 1-.303.081m-165.857 5.779v-.742h5.182v.742h-2.173V201h-.837v-6.167zm7.161 3.05V201h-.796v-6.909h.796v2.537h.067q.183-.401.547-.638.368-.239.978-.239.53 0 .928.212.398.21.617.645.223.431.223 1.099V201h-.796v-3.239q0-.617-.32-.954-.317-.342-.881-.341-.39 0-.702.165-.306.165-.485.483a1.56 1.56 0 0 0-.176.769m6.99 3.225q-.75 0-1.293-.331a2.2 2.2 0 0 1-.833-.931q-.29-.6-.29-1.396 0-.797.29-1.404.294-.61.816-.951.526-.344 1.228-.344.405 0 .8.135t.718.438q.324.3.517.796.192.496.192 1.222v.337H24.76v-.688h3.184q0-.44-.175-.783a1.33 1.33 0 0 0-1.242-.742q-.475 0-.823.236-.344.233-.53.607-.185.375-.185.803v.459q0 .587.202.995.207.405.57.618.365.209.847.209.314 0 .567-.088a1.2 1.2 0 0 0 .442-.27 1.2 1.2 0 0 0 .287-.452l.769.216q-.122.391-.408.688a2 2 0 0 1-.709.459 2.6 2.6 0 0 1-.948.162m7.026-4.129-.715.202a1.3 1.3 0 0 0-.199-.347.96.96 0 0 0-.35-.284 1.3 1.3 0 0 0-.57-.111q-.477 0-.794.219-.313.216-.313.55 0 .297.216.469.215.172.674.287l.77.189q.695.168 1.035.516.34.344.34.887 0 .445-.255.796a1.7 1.7 0 0 1-.709.554 2.6 2.6 0 0 1-1.06.202q-.792 0-1.312-.344-.519-.345-.657-1.005l.755-.189q.108.418.409.627.303.21.792.209.557 0 .884-.236.33-.24.33-.573a.6.6 0 0 0-.188-.452q-.19-.186-.58-.277l-.864-.203q-.712-.168-1.046-.522a1.27 1.27 0 0 1-.33-.894q0-.439.246-.776.249-.338.678-.53.432-.192.978-.192.77 0 1.208.337.442.338.627.891m3.466 4.129q-.75 0-1.292-.331a2.2 2.2 0 0 1-.833-.931q-.29-.6-.29-1.396 0-.797.29-1.404.292-.61.816-.951.526-.344 1.228-.344.405 0 .8.135.394.135.718.438.324.3.516.796.193.496.193 1.222v.337h-3.995v-.688h3.185q0-.44-.175-.783a1.33 1.33 0 0 0-1.242-.742q-.476 0-.823.236-.344.233-.53.607-.185.375-.185.803v.459q0 .587.202.995.205.405.57.618.364.209.847.209.314 0 .567-.088a1.2 1.2 0 0 0 .442-.27q.185-.182.286-.452l.77.216q-.121.391-.409.688a2 2 0 0 1-.708.459 2.6 2.6 0 0 1-.948.162m6.029 1.835v-7.125h.769v.823h.094q.088-.135.243-.344.159-.211.452-.378.297-.168.803-.168.654 0 1.154.327t.78.928q.28.6.28 1.417 0 .822-.28 1.427-.281.6-.777.931a2.03 2.03 0 0 1-1.144.327q-.498 0-.799-.165-.3-.17-.462-.382a5 5 0 0 1-.25-.357h-.067v2.739zm.782-4.534q0 .587.172 1.036.172.445.503.698.33.25.81.25.498 0 .833-.263.337-.266.506-.716.172-.452.172-1.005 0-.547-.169-.985a1.5 1.5 0 0 0-.502-.698q-.334-.26-.84-.26-.486 0-.817.246-.33.243-.5.682-.168.435-.168 1.015m6.532 2.712a2.1 2.1 0 0 1-.895-.185 1.54 1.54 0 0 1-.637-.543 1.54 1.54 0 0 1-.236-.864q0-.445.175-.722.175-.28.47-.438.292-.159.647-.237.358-.08.718-.128.472-.06.766-.091.297-.033.432-.111.138-.078.138-.27v-.027q0-.5-.273-.776-.27-.276-.82-.277-.57 0-.894.25a1.5 1.5 0 0 0-.455.533l-.756-.27q.203-.472.54-.735.34-.267.742-.371a3 3 0 0 1 .796-.108q.25 0 .574.06.327.058.63.24.307.182.51.55.203.367.203.985V201h-.797v-.702h-.04a1.4 1.4 0 0 1-.27.361 1.6 1.6 0 0 1-.503.328q-.313.134-.766.134m.12-.715q.474 0 .797-.185a1.27 1.27 0 0 0 .661-1.097v-.728q-.05.06-.222.111a4 4 0 0 1-.392.084 16 16 0 0 1-.762.101q-.31.04-.58.132a1 1 0 0 0-.432.267q-.162.175-.162.479 0 .414.307.627.31.21.786.209m4.504-2.523V201h-.796v-5.182h.769v.81h.067q.182-.395.554-.634.37-.243.958-.243.525 0 .92.216.395.212.615.647.219.432.219 1.093V201h-.796v-3.239q0-.61-.317-.951-.318-.344-.87-.344-.382 0-.682.165a1.2 1.2 0 0 0-.47.483 1.6 1.6 0 0 0-.171.769m6.933 3.225q-.749 0-1.292-.331a2.2 2.2 0 0 1-.833-.931q-.29-.6-.29-1.396 0-.797.29-1.404.294-.61.816-.951.526-.344 1.228-.344.405 0 .8.135t.719.438q.323.3.516.796.192.496.192 1.222v.337h-3.994v-.688h3.184q0-.44-.175-.783a1.33 1.33 0 0 0-1.242-.742q-.475 0-.823.236-.344.233-.53.607-.185.375-.185.803v.459q0 .587.202.995.207.405.57.618.365.209.847.209.314 0 .567-.088a1.2 1.2 0 0 0 .442-.27q.186-.182.287-.452l.769.216q-.121.391-.408.688a2 2 0 0 1-.709.459 2.6 2.6 0 0 1-.948.162m7.027-4.129-.715.202a1.3 1.3 0 0 0-.199-.347.96.96 0 0 0-.35-.284 1.3 1.3 0 0 0-.57-.111q-.477 0-.793.219-.314.216-.314.55 0 .297.216.469t.674.287l.77.189q.695.168 1.035.516.34.344.341.887 0 .445-.256.796a1.7 1.7 0 0 1-.709.554 2.6 2.6 0 0 1-1.06.202q-.792 0-1.312-.344-.519-.345-.657-1.005l.755-.189q.108.418.408.627.304.21.793.209.557 0 .884-.236.33-.24.33-.573a.6.6 0 0 0-.188-.452q-.19-.186-.58-.277l-.864-.203q-.712-.168-1.046-.522a1.27 1.27 0 0 1-.33-.894q0-.439.246-.776.249-.338.678-.53.432-.192.978-.192.77 0 1.208.337.443.338.627.891m6.07 4.129q-.728 0-1.255-.344a2.25 2.25 0 0 1-.81-.948 3.2 3.2 0 0 1-.283-1.38q0-.79.29-1.393.294-.608.817-.948.525-.344 1.228-.344.546 0 .985.202.438.203.719.567t.347.85h-.796a1.23 1.23 0 0 0-.405-.627q-.31-.277-.837-.277-.465 0-.816.243a1.6 1.6 0 0 0-.543.678q-.192.435-.192 1.022 0 .6.189 1.046.192.445.54.691.35.247.822.247.31 0 .564-.108a1.16 1.16 0 0 0 .678-.796h.796a1.84 1.84 0 0 1-1.032 1.406 2.25 2.25 0 0 1-1.006.213m4.727.013q-.492 0-.894-.185a1.54 1.54 0 0 1-.638-.543 1.54 1.54 0 0 1-.236-.864q0-.445.175-.722.176-.28.47-.438.293-.159.647-.237a8 8 0 0 1 .719-.128q.472-.06.766-.091.296-.033.431-.111.14-.078.139-.27v-.027q0-.5-.274-.776-.27-.276-.82-.277-.57 0-.893.25a1.5 1.5 0 0 0-.456.533l-.755-.27q.201-.472.54-.735.34-.267.742-.371a3 3 0 0 1 .796-.108q.249 0 .573.06.328.058.631.24.307.182.51.55.201.367.202.985V201h-.796v-.702h-.04a1.4 1.4 0 0 1-.27.361 1.6 1.6 0 0 1-.503.328q-.315.134-.766.134m.121-.715q.472 0 .796-.185a1.27 1.27 0 0 0 .662-1.097v-.728q-.05.06-.223.111-.168.047-.391.084a16 16 0 0 1-.763.101 3 3 0 0 0-.58.132 1 1 0 0 0-.432.267q-.162.175-.162.479 0 .414.307.627.311.21.786.209m4.503-2.523V201h-.796v-5.182h.77v.81h.067q.181-.395.553-.634.371-.243.958-.243.526 0 .921.216.395.212.614.647.22.432.22 1.093V201h-.797v-3.239q0-.61-.317-.951-.317-.344-.87-.344-.382 0-.682.165a1.2 1.2 0 0 0-.469.483 1.6 1.6 0 0 0-.172.769M91.99 201v-6.909h.797v2.55h.068q.087-.135.242-.344.159-.211.453-.378.296-.168.803-.168.654 0 1.153.327.5.327.78.928.28.6.28 1.417 0 .822-.28 1.427-.28.6-.776.931a2.03 2.03 0 0 1-1.144.327q-.5 0-.8-.165-.3-.17-.462-.382a5 5 0 0 1-.25-.357h-.094V201zm.784-2.591q0 .587.172 1.036.171.445.502.698.33.25.81.25.499 0 .833-.263.338-.266.506-.716.172-.452.172-1.005 0-.547-.168-.985a1.5 1.5 0 0 0-.503-.698q-.335-.26-.84-.26-.486 0-.816.246-.33.243-.5.682-.168.435-.168 1.015m7.182 2.699q-.75 0-1.292-.331a2.2 2.2 0 0 1-.833-.931q-.29-.6-.29-1.396 0-.797.29-1.404.292-.61.816-.951.525-.344 1.228-.344.404 0 .8.135.394.135.718.438.324.3.516.796.193.496.193 1.222v.337h-3.995v-.688h3.185q0-.44-.176-.783a1.3 1.3 0 0 0-.492-.543 1.4 1.4 0 0 0-.749-.199q-.475 0-.823.236-.345.233-.53.607-.185.375-.185.803v.459q0 .587.202.995.205.405.57.618.364.209.847.209.313 0 .567-.088.256-.091.442-.27.185-.182.286-.452l.77.216q-.121.391-.409.688a2 2 0 0 1-.708.459 2.6 2.6 0 0 1-.948.162m10.266-5.29L108.306 201h-.81l-1.916-5.182h.863l1.431 4.129h.054l1.43-4.129zm3.038 5.29q-.75 0-1.292-.331a2.2 2.2 0 0 1-.834-.931q-.29-.6-.29-1.396 0-.797.29-1.404.294-.61.817-.951.526-.344 1.228-.344.405 0 .799.135.395.135.719.438.324.3.516.796t.192 1.222v.337h-3.994v-.688h3.185q0-.44-.176-.783a1.33 1.33 0 0 0-.492-.543 1.4 1.4 0 0 0-.749-.199 1.43 1.43 0 0 0-.823.236q-.345.233-.53.607-.186.375-.186.803v.459q0 .587.203.995.205.405.57.618.364.209.847.209.314 0 .566-.088.257-.091.442-.27.186-.182.287-.452l.769.216q-.121.391-.408.688a2 2 0 0 1-.708.459 2.6 2.6 0 0 1-.948.162m3.356-.108v-5.182h.77v.783h.054q.141-.386.512-.624.372-.24.837-.24a6 6 0 0 1 .418.014v.809a3 3 0 0 0-.185-.03 2 2 0 0 0-.3-.024q-.378 0-.675.159a1.2 1.2 0 0 0-.466.432q-.168.273-.168.624V201zm4.206 1.943q-.203 0-.361-.034a1 1 0 0 1-.22-.06l.203-.702q.29.074.512.054a.6.6 0 0 0 .395-.199q.175-.175.321-.57l.148-.405-1.916-5.209h.864l1.43 4.129h.054l1.43-4.129h.864l-2.2 5.938a2.3 2.3 0 0 1-.367.664q-.219.267-.51.395a1.6 1.6 0 0 1-.647.128m11.117-5.964-.715.202a1.3 1.3 0 0 0-.199-.347.96.96 0 0 0-.351-.284 1.3 1.3 0 0 0-.57-.111q-.475 0-.793.219-.314.216-.314.55 0 .297.216.469t.675.287l.769.189q.696.168 1.036.516.34.344.341.887 0 .445-.257.796a1.7 1.7 0 0 1-.708.554 2.6 2.6 0 0 1-1.06.202q-.792 0-1.312-.344-.519-.345-.658-1.005l.756-.189q.108.418.408.627.304.21.793.209.557 0 .884-.236.33-.24.33-.573a.6.6 0 0 0-.188-.452q-.19-.186-.581-.277l-.863-.203q-.712-.168-1.046-.522a1.27 1.27 0 0 1-.331-.894q0-.439.247-.776.249-.338.678-.53.432-.192.978-.192.769 0 1.208.337.441.338.627.891m1.293 4.021v-5.182h.769v.81h.068a1.3 1.3 0 0 1 .523-.645q.36-.232.867-.232.513 0 .853.232.344.23.537.645h.054q.198-.401.597-.638.397-.239.954-.239.696 0 1.137.435.442.431.442 1.346V201h-.796v-3.468q0-.573-.314-.82a1.16 1.16 0 0 0-.738-.246q-.547 0-.847.331-.3.327-.3.829V201h-.81v-3.549q0-.442-.287-.712-.286-.273-.739-.273-.31 0-.58.165-.267.165-.432.459a1.35 1.35 0 0 0-.162.671V201zm9.782.121q-.494 0-.894-.185a1.54 1.54 0 0 1-.638-.543 1.54 1.54 0 0 1-.236-.864q0-.445.175-.722.176-.28.469-.438.294-.159.648-.237.358-.08.719-.128.472-.06.766-.091.296-.033.431-.111.14-.078.139-.27v-.027q0-.5-.274-.776-.27-.276-.819-.277-.57 0-.894.25a1.5 1.5 0 0 0-.456.533l-.756-.27q.202-.472.54-.735a2 2 0 0 1 .742-.371q.405-.108.797-.108.249 0 .573.06.327.058.631.24.307.182.509.55.203.367.203.985V201h-.796v-.702h-.041a1.4 1.4 0 0 1-.27.361 1.6 1.6 0 0 1-.502.328 2 2 0 0 1-.766.134m.121-.715q.473 0 .796-.185a1.26 1.26 0 0 0 .662-1.097v-.728q-.05.06-.223.111-.168.047-.391.084a16 16 0 0 1-.763.101q-.31.04-.58.132a1 1 0 0 0-.432.267q-.162.175-.162.479 0 .414.307.627.31.21.786.209m4.503-6.315V201h-.796v-6.909zm2.255 0V201h-.797v-6.909zm4.13 6.909v-5.182h.796V201zm.404-6.045a.56.56 0 0 1-.401-.159.5.5 0 0 1-.165-.381q0-.224.165-.381a.56.56 0 0 1 .401-.159q.233 0 .399.159a.5.5 0 0 1 .168.381.5.5 0 0 1-.168.381.56.56 0 0 1-.399.159m2.646 2.928V201h-.796v-5.182h.769v.81h.068q.182-.395.553-.634.371-.243.958-.243.526 0 .921.216.395.212.614.647.219.432.219 1.093V201h-.796v-3.239q0-.61-.317-.951-.317-.344-.87-.344a1.4 1.4 0 0 0-.682.165q-.297.165-.469.483a1.6 1.6 0 0 0-.172.769m6.718 3.225q-.648 0-1.144-.327a2.2 2.2 0 0 1-.776-.931q-.28-.605-.28-1.427 0-.817.28-1.417t.78-.928a2.05 2.05 0 0 1 1.153-.327q.506 0 .8.168.297.167.452.378a6 6 0 0 1 .246.344h.068v-2.55h.796V201h-.769v-.796h-.095a5 5 0 0 1-.249.357 1.5 1.5 0 0 1-.463.382q-.3.165-.799.165m.108-.715q.479 0 .809-.25.331-.253.503-.698.172-.449.172-1.036 0-.58-.169-1.015a1.47 1.47 0 0 0-.499-.682q-.33-.246-.816-.246-.507 0-.844.26-.333.256-.502.698a2.8 2.8 0 0 0-.166.985q0 .553.169 1.005.172.45.506.716.337.263.837.263m6.008.715q-.749 0-1.292-.331a2.2 2.2 0 0 1-.833-.931q-.29-.6-.29-1.396 0-.797.29-1.404.293-.61.816-.951.526-.344 1.228-.344.405 0 .8.135.394.135.718.438.324.3.516.796.193.496.193 1.222v.337h-3.995v-.688h3.185q0-.44-.175-.783a1.33 1.33 0 0 0-1.242-.742q-.475 0-.823.236a1.56 1.56 0 0 0-.53.607q-.185.375-.185.803v.459q0 .587.202.995.206.405.57.618.365.209.847.209.314 0 .567-.088.256-.091.442-.27.185-.182.287-.452l.769.216q-.121.391-.408.688a2 2 0 0 1-.709.459 2.6 2.6 0 0 1-.948.162m3.937-.054a.59.59 0 0 1-.428-.179.58.58 0 0 1-.179-.428q0-.25.179-.429a.59.59 0 0 1 .428-.179q.25 0 .429.179a.58.58 0 0 1 .178.429q0 .165-.084.303a.6.6 0 0 1-.219.223.6.6 0 0 1-.304.081m2.591 0a.59.59 0 0 1-.428-.179.58.58 0 0 1-.179-.428q0-.25.179-.429a.59.59 0 0 1 .428-.179q.25 0 .428.179.18.179.179.429 0 .165-.084.303a.6.6 0 0 1-.219.223.6.6 0 0 1-.304.081m2.591 0a.59.59 0 0 1-.429-.179.58.58 0 0 1-.178-.428q0-.25.178-.429a.59.59 0 0 1 .429-.179q.25 0 .428.179.18.179.179.429 0 .165-.084.303a.6.6 0 0 1-.219.223.6.6 0 0 1-.304.081" class="fill-primary"/><path d="M0 215.5h192" class="stroke-divider"/><path fill-rule="evenodd" d="M18.81 232.404c.54-.367 1.225-.375 1.733-.041.116.076.239.196.568.526.33.329.45.453.526.568.334.508.326 1.192-.041 1.733-.084.124-.214.256-.555.598l-.495.495a.4.4 0 0 0 .565.566l.495-.495.035-.035c.295-.295.485-.485.617-.679.54-.795.568-1.83.048-2.622-.127-.193-.312-.378-.593-.659l-.036-.036-.036-.036c-.28-.281-.465-.466-.659-.593-.792-.52-1.827-.492-2.622.048-.194.133-.383.322-.68.617l-.034.035-.495.495a.4.4 0 1 0 .566.565l.495-.495c.342-.341.474-.471.598-.555m-3.355 3.313a.4.4 0 1 0-.566-.565l-.495.494-.034.035c-.296.295-.486.485-.618.679-.54.795-.568 1.83-.048 2.622.127.193.312.378.593.659l.036.036.036.036c.28.281.466.466.659.593.792.52 1.827.492 2.622-.048.194-.132.384-.322.68-.617l.034-.035.495-.495a.4.4 0 1 0-.566-.565l-.495.495c-.342.341-.474.471-.598.555-.54.368-1.225.375-1.733.041-.116-.076-.239-.196-.568-.526-.33-.329-.45-.452-.526-.568-.334-.508-.326-1.192.041-1.733.084-.124.214-.256.556-.598zm4.243-.849a.4.4 0 1 0-.566-.565l-2.829 2.828a.4.4 0 0 0 .566.566z" clip-rule="evenodd" class="fill-symbol"/><path d="M29 229.5a1.5 1.5 0 0 1 1.5-1.5h69a1.5 1.5 0 0 1 1.5 1.5v13a1.5 1.5 0 0 1-1.5 1.5h-69a1.5 1.5 0 0 1-1.5-1.5z" class="fill-tone"/><path d="M34.122 239v-6.909h.837v3.077h3.684v-3.077h.836V239h-.836v-3.09h-3.684V239zm8.45.121a2.1 2.1 0 0 1-.895-.185 1.54 1.54 0 0 1-.637-.543 1.54 1.54 0 0 1-.237-.864q0-.445.176-.722.175-.28.469-.438.293-.159.648-.237.357-.08.718-.128.472-.06.766-.091.297-.033.432-.111.138-.078.138-.27v-.027q0-.5-.273-.776-.27-.276-.82-.277-.57 0-.894.25a1.5 1.5 0 0 0-.455.533l-.756-.27q.202-.472.54-.735.34-.267.742-.371a3 3 0 0 1 .796-.108q.25 0 .573.06.328.058.631.24.307.182.51.55.202.367.202.985V239h-.796v-.702h-.04a1.4 1.4 0 0 1-.27.361 1.6 1.6 0 0 1-.503.328q-.314.134-.766.134m.12-.715q.473 0 .797-.185a1.27 1.27 0 0 0 .661-1.097v-.728q-.05.06-.223.111-.168.047-.391.084a16 16 0 0 1-.762.101q-.31.04-.58.132a1 1 0 0 0-.433.267q-.16.175-.161.479 0 .414.307.627.31.21.786.209m4.504-6.315V239h-.797v-6.909zm3.765 1.727v.675h-2.793v-.675zM49.005 239v-5.897q0-.445.209-.742.21-.297.543-.446.335-.148.705-.148.293 0 .479.047.186.048.277.088l-.23.688-.168-.05a1 1 0 0 0-.277-.031q-.395 0-.57.199-.172.2-.172.584V239zm5.772-3.333v.742h-3.023v-.742zm2.345-3.576V239h-.836v-6.909zm2.366 3.792V239h-.796v-5.182h.769v.81h.068q.18-.395.553-.634.37-.243.958-.243.526 0 .92.216.396.212.615.647.22.432.22 1.093V239h-.797v-3.239q0-.61-.317-.951-.318-.344-.87-.344-.382 0-.682.165a1.2 1.2 0 0 0-.469.483 1.6 1.6 0 0 0-.172.769m6.866 3.225q-.729 0-1.255-.344a2.25 2.25 0 0 1-.81-.948 3.2 3.2 0 0 1-.283-1.38q0-.79.29-1.393.294-.608.817-.948.526-.344 1.228-.344.546 0 .985.202.438.203.718.567t.348.85h-.796a1.23 1.23 0 0 0-.405-.627q-.31-.277-.837-.277-.465 0-.816.243a1.6 1.6 0 0 0-.543.678q-.193.435-.193 1.022 0 .6.19 1.046.19.445.539.691.35.247.823.247.31 0 .564-.108a1.16 1.16 0 0 0 .677-.796h.797a1.84 1.84 0 0 1-1.033 1.406 2.25 2.25 0 0 1-1.005.213m3.998-3.225V239h-.796v-6.909h.796v2.537h.067q.183-.401.547-.638.368-.239.978-.239.53 0 .928.212.398.21.617.645.223.431.223 1.099V239h-.796v-3.239q0-.617-.32-.954-.318-.342-.881-.341-.392 0-.702.165-.308.165-.486.483a1.56 1.56 0 0 0-.175.769m7.218-3.05v-.742h5.182v.742H80.58V239h-.837v-6.167zM83.397 239v-5.182h.77v.783h.053a1.24 1.24 0 0 1 .513-.624q.372-.24.837-.24a6 6 0 0 1 .418.014v.809a3.4 3.4 0 0 0-.486-.054q-.377 0-.674.159-.294.155-.466.432-.168.273-.168.624V239zm3.535 0v-5.182h.796V239zm.405-6.045a.56.56 0 0 1-.402-.159.5.5 0 0 1-.165-.381q0-.224.165-.381a.56.56 0 0 1 .402-.159q.233 0 .398.159a.5.5 0 0 1 .169.381.5.5 0 0 1-.169.381.55.55 0 0 1-.398.159m1.85 6.045v-5.182h.769v.81h.067q.162-.415.523-.645.36-.232.867-.232.513 0 .853.232.345.23.537.645h.054q.2-.401.597-.638.398-.239.955-.239.694 0 1.137.435.441.431.442 1.346V239h-.797v-3.468q0-.573-.313-.82a1.16 1.16 0 0 0-.74-.246q-.546 0-.846.331-.3.327-.3.829V239h-.81v-3.549q0-.442-.287-.712-.286-.273-.738-.273-.31 0-.58.165-.267.165-.432.459a1.35 1.35 0 0 0-.162.671V239z" class="fill-primary"/><path d="M106 229.5a1.5 1.5 0 0 1 1.5-1.5h64a1.5 1.5 0 0 1 1.5 1.5v13a1.5 1.5 0 0 1-1.5 1.5h-64a1.5 1.5 0 0 1-1.5-1.5z" class="fill-tone"/><path d="M110.867 239v-6.909h4.143v.742h-3.306v2.335h2.996v.742h-2.996V239zm5.468 0v-5.182h.796V239zm.405-6.045a.57.57 0 0 1-.402-.159.5.5 0 0 1-.165-.381q0-.224.165-.381a.57.57 0 0 1 .402-.159q.233 0 .398.159a.5.5 0 0 1 .168.381.5.5 0 0 1-.168.381.55.55 0 0 1-.398.159m2.645-.864V239h-.796v-6.909zm3.712 1.727v.675h-2.685v-.675zm-1.902-1.241h.796v4.939q0 .337.098.506a.5.5 0 0 0 .256.222q.159.054.334.054a1.4 1.4 0 0 0 .351-.04l.162.715a1.8 1.8 0 0 1-.594.094q-.337 0-.661-.145a1.3 1.3 0 0 1-.533-.442q-.21-.296-.209-.748zm5.217 6.531q-.75 0-1.292-.331a2.2 2.2 0 0 1-.834-.931q-.29-.6-.29-1.396 0-.797.29-1.404.294-.61.817-.951.526-.344 1.228-.344.405 0 .799.135.395.135.719.438.324.3.516.796t.192 1.222v.337h-3.994v-.688h3.185q0-.44-.176-.783a1.32 1.32 0 0 0-1.241-.742 1.43 1.43 0 0 0-.823.236q-.345.233-.53.607-.186.375-.186.803v.459q0 .587.203.995.206.405.57.618.364.209.847.209.314 0 .567-.088.256-.091.441-.27.186-.182.287-.452l.769.216q-.121.391-.408.688a2 2 0 0 1-.708.459 2.6 2.6 0 0 1-.948.162m3.356-.108v-5.182h.77v.783h.054q.141-.386.512-.624.372-.24.837-.24a6 6 0 0 1 .418.014v.809a3 3 0 0 0-.485-.054q-.378 0-.675.159a1.2 1.2 0 0 0-.466.432q-.168.273-.168.624V239zm5.55.108q-.749 0-1.292-.331a2.2 2.2 0 0 1-.833-.931q-.29-.6-.29-1.396 0-.797.29-1.404.292-.61.816-.951.526-.344 1.228-.344.404 0 .8.135.394.135.718.438.324.3.516.796.193.496.193 1.222v.337h-3.995v-.688h3.185a1.7 1.7 0 0 0-.175-.783 1.33 1.33 0 0 0-1.242-.742q-.475 0-.823.236a1.56 1.56 0 0 0-.53.607q-.185.375-.185.803v.459q0 .587.202.995.206.405.57.618.364.209.847.209.314 0 .567-.088.256-.091.442-.27.185-.182.286-.452l.77.216q-.121.391-.409.688a2 2 0 0 1-.708.459 2.6 2.6 0 0 1-.948.162m5.313 0q-.647 0-1.143-.327a2.2 2.2 0 0 1-.776-.931q-.28-.605-.28-1.427 0-.817.28-1.417t.779-.928a2.06 2.06 0 0 1 1.154-.327q.506 0 .799.168.297.167.453.378.158.21.246.344h.067v-2.55h.796V239h-.769v-.796h-.094a6 6 0 0 1-.25.357 1.5 1.5 0 0 1-.462.382q-.3.165-.8.165m.108-.715q.48 0 .81-.25a1.57 1.57 0 0 0 .503-.698 2.9 2.9 0 0 0 .172-1.036q0-.58-.169-1.015a1.48 1.48 0 0 0-.499-.682q-.331-.246-.817-.246-.506 0-.843.26-.334.256-.503.698a2.8 2.8 0 0 0-.165.985q0 .553.169 1.005.171.45.506.716.338.263.836.263m6.616.607v-6.909h.837v6.167h3.211V239zm5.236 0v-5.182h.796V239zm.405-6.045a.57.57 0 0 1-.402-.159.5.5 0 0 1-.165-.381q0-.224.165-.381a.57.57 0 0 1 .402-.159q.232 0 .398.159a.5.5 0 0 1 .168.381.5.5 0 0 1-.168.381.56.56 0 0 1-.398.159m3.941 8.096q-.577 0-.992-.148a2.1 2.1 0 0 1-.692-.385 2.1 2.1 0 0 1-.435-.506l.634-.445q.108.141.274.324.165.185.452.32.29.138.759.138.627 0 1.035-.303.41-.304.409-.952v-1.052h-.068a5 5 0 0 1-.249.351 1.4 1.4 0 0 1-.459.367q-.297.159-.803.159-.627 0-1.127-.297a2.1 2.1 0 0 1-.786-.863q-.287-.567-.287-1.377 0-.796.28-1.386.28-.594.78-.918a2.05 2.05 0 0 1 1.153-.327q.506 0 .803.168.3.167.459.378.162.21.25.344h.081v-.823h.769v5.33q0 .669-.304 1.087-.3.422-.809.617a3 3 0 0 1-1.127.199m-.027-2.847q.479 0 .809-.219.331-.22.503-.631t.172-.985q0-.56-.169-.989a1.5 1.5 0 0 0-.499-.671q-.33-.243-.816-.243-.507 0-.844.256-.333.257-.502.689a2.7 2.7 0 0 0-.166.958q0 .54.169.954.172.413.506.648.338.233.837.233m4.52-2.321V239h-.796v-6.909h.796v2.537h.068q.181-.401.546-.638.369-.239.979-.239.53 0 .927.212.399.21.618.645.222.431.222 1.099V239h-.796v-3.239q0-.617-.32-.954-.317-.342-.881-.341-.391 0-.701.165-.308.165-.486.483a1.56 1.56 0 0 0-.176.769m7.071-2.065v.675h-2.686v-.675zm-1.903-1.241h.796v4.939q0 .337.098.506.101.165.256.222.159.054.334.054a1.4 1.4 0 0 0 .351-.04l.162.715a1.8 1.8 0 0 1-.594.094q-.337 0-.661-.145a1.3 1.3 0 0 1-.533-.442q-.209-.296-.209-.748z" class="fill-primary"/><defs><clipPath id="clip0_8396_54360"><path d="M19 54a3 3 0 0 1 3-3h28a3 3 0 0 1 3 3v28a3 3 0 0 1-3 3H22a3 3 0 0 1-3-3z" class="fill-main-contrast"/></clipPath><clipPath id="clip1_8396_54360"><path d="M59 54a3 3 0 0 1 3-3h28a3 3 0 0 1 3 3v28a3 3 0 0 1-3 3H62a3 3 0 0 1-3-3z" class="fill-main-contrast"/></clipPath><clipPath id="clip2_8396_54360"><path d="M99 54a3 3 0 0 1 3-3h28a3 3 0 0 1 3 3v28a3 3 0 0 1-3 3h-28a3 3 0 0 1-3-3z" class="fill-main-contrast"/></clipPath><clipPath id="clip3_8396_54360"><path d="M139 54a3 3 0 0 1 3-3h28a3 3 0 0 1 3 3v28a3 3 0 0 1-3 3h-28a3 3 0 0 1-3-3z" class="fill-main-contrast"/></clipPath></defs></svg>