<svg xmlns="http://www.w3.org/2000/svg" width="288" height="288" fill="none" viewBox="0 0 288 288" class="portfolio-widget"><path d="M.5 6A5.5 5.5 0 016 .5h276a5.5 5.5 0 015.5 5.5v276a5.5 5.5 0 01-5.5 5.5H6A5.5 5.5 0 01.5 282z" class="fill-container"/><path d="M.5 6A5.5 5.5 0 016 .5h276a5.5 5.5 0 015.5 5.5v276a5.5 5.5 0 01-5.5 5.5H6A5.5 5.5 0 01.5 282z" class="stroke-divider"/><path d="M12.983 13.546H14.9l2.909 7.1h.11l2.909-7.1h1.915V23h-1.504v-6.666h-.088l-2.696 6.643h-1.182l-2.696-6.657h-.088V23h-1.505zm13.693 9.602a2.9 2.9 0 01-1.214-.245 2 2 0 01-.859-.72q-.315-.48-.314-1.177 0-.605.226-.993.23-.393.619-.623a3.1 3.1 0 01.868-.346q.484-.12.997-.176.628-.073 1.02-.124.393-.051.573-.162.18-.11.18-.355v-.033q0-.558-.328-.868-.323-.309-.947-.309-.654 0-1.034.286-.378.287-.521.656l-1.427-.259q.208-.645.642-1.061.434-.42 1.03-.62.6-.202 1.292-.202.471 0 .96.11.494.11.914.38.42.267.679.747.263.48.263 1.219V23h-1.477v-.97h-.056a2 2 0 01-.41.536q-.273.258-.688.42a2.7 2.7 0 01-.988.162m.365-1.164q.54 0 .927-.212a1.57 1.57 0 00.596-.563q.212-.35.212-.757v-.877a.8.8 0 01-.277.129q-.198.055-.447.101-.25.042-.49.074l-.41.056a3.4 3.4 0 00-.698.17q-.314.116-.498.333-.185.212-.185.558 0 .49.36.74.36.248.91.248m6.548-3.167V23h-1.528v-7.09h1.463v1.18h.088a2 2 0 01.776-.927q.53-.346 1.325-.346.728 0 1.274.31.545.308.844.904.306.595.305 1.459V23h-1.528v-4.298q0-.743-.383-1.159-.384-.42-1.057-.42-.462 0-.817.199a1.4 1.4 0 00-.559.577q-.203.378-.203.918m8.372 4.33a2.9 2.9 0 01-1.214-.244 2 2 0 01-.859-.72q-.315-.48-.314-1.177 0-.605.226-.993.23-.393.619-.623.388-.232.868-.346.485-.12.997-.176.628-.073 1.02-.124.393-.051.573-.162.18-.11.18-.355v-.033q0-.558-.328-.868-.322-.309-.946-.309-.656 0-1.034.286-.38.287-.522.656L39.8 17.7q.209-.645.642-1.061.435-.42 1.03-.62.6-.202 1.292-.202.471 0 .96.11.494.11.915.38.42.267.678.747.263.48.263 1.219V23h-1.477v-.97h-.055q-.14.278-.411.536-.273.258-.688.42a2.7 2.7 0 01-.988.162m.365-1.163q.54 0 .928-.212a1.57 1.57 0 00.595-.563q.212-.35.212-.757v-.877a.8.8 0 01-.277.129q-.198.055-.447.101-.25.042-.49.074l-.41.056a3.4 3.4 0 00-.698.17q-.314.116-.498.333-.185.212-.185.558 0 .49.36.74.36.248.91.248m8.048 3.823q-.872 0-1.5-.231-.623-.23-1.01-.619a2.36 2.36 0 01-.56-.849l1.344-.425q.116.204.318.42a1.6 1.6 0 00.55.365q.346.152.882.152.747 0 1.237-.364.49-.36.49-1.173v-1.366h-.089a2.7 2.7 0 01-.364.521q-.24.273-.647.466-.405.19-1.034.19-.826 0-1.495-.388-.666-.393-1.058-1.163-.392-.771-.392-1.916t.388-1.953q.387-.808 1.057-1.233.67-.424 1.51-.424.64 0 1.043.217.406.211.642.508.235.29.36.526h.092v-1.159h1.5v7.23q0 .909-.429 1.5-.424.59-1.163.877-.74.29-1.672.29m.005-4.141q.563 0 .956-.268a1.65 1.65 0 00.595-.77q.208-.51.208-1.21 0-.697-.203-1.22a1.8 1.8 0 00-.596-.812q-.392-.295-.96-.295-.59 0-.988.305-.397.305-.595.83-.2.526-.199 1.192 0 .674.203 1.181.204.504.596.785.396.282.983.282m8.144 1.477q-1.057 0-1.824-.448a3 3 0 01-1.177-1.27q-.411-.821-.411-1.924 0-1.094.41-1.925a3.13 3.13 0 011.16-1.293q.743-.465 1.745-.466.632 0 1.204.203.573.203 1.02.637.45.43.707 1.108.263.678.263 1.625v.498h-5.729v-1.08h4.247q0-.507-.212-.905a1.6 1.6 0 00-.596-.632 1.67 1.67 0 00-.886-.23q-.549 0-.96.262-.407.263-.633.693a2.05 2.05 0 00-.226.932v.891q0 .665.24 1.136t.67.72q.43.245 1.001.245.384 0 .693-.106.31-.111.53-.324.228-.216.347-.535l1.436.208q-.153.595-.564 1.043-.405.443-1.034.692-.623.246-1.422.245M63.088 23v-7.09h1.482v1.153h.074q.195-.59.674-.923.485-.337 1.099-.337.133 0 .309.014.175.009.286.027v1.432a2 2 0 00-.318-.06 3 3 0 00-.43-.033q-.475 0-.849.203a1.5 1.5 0 00-.586.554 1.54 1.54 0 00-.213.813V23zm10.435 0-2.65-9.454h1.676l1.768 7.137h.087l1.87-7.137h1.579l1.87 7.141h.087l1.773-7.142h1.671L80.61 23h-1.565L77.1 16.14h-.073L75.083 23zm13.212.143q-1.02 0-1.773-.457a3.1 3.1 0 01-1.168-1.283q-.41-.822-.41-1.916 0-1.104.41-1.93.416-.826 1.168-1.283.753-.457 1.773-.457t1.773.457q.753.456 1.163 1.283.416.826.416 1.93 0 1.094-.416 1.916a3.1 3.1 0 01-1.163 1.283q-.753.457-1.773.457m.005-1.251q.609 0 1.006-.328.402-.328.6-.872.198-.55.199-1.21a3.6 3.6 0 00-.199-1.214 1.96 1.96 0 00-.6-.882q-.397-.332-1.006-.332-.615 0-1.016.332a1.96 1.96 0 00-.6.882 3.6 3.6 0 00-.199 1.214q0 .66.199 1.21.198.545.6.872.401.328 1.016.328M91.564 23v-7.09h1.482v1.153h.074a1.75 1.75 0 01.674-.923q.484-.337 1.098-.337.135 0 .31.014.175.009.286.027v1.432a2 2 0 00-.319-.06 3 3 0 00-.429-.033q-.475 0-.85.203a1.5 1.5 0 00-.586.554 1.54 1.54 0 00-.212.813V23zm6.477-2.313-.01-1.851h.259l2.687-2.927h1.8l-3.176 3.453h-.281zM96.642 23v-9.454h1.528V23zm4.469 0-2.429-3.296 1.044-1.076L102.953 23zm4.372-9.454V23h-1.529v-9.454zm4.827 9.597q-1.02 0-1.773-.457a3.13 3.13 0 01-1.168-1.283q-.41-.822-.41-1.916 0-1.104.41-1.93a3.1 3.1 0 011.168-1.283q.753-.457 1.773-.457t1.773.457q.752.456 1.163 1.283.416.826.416 1.93 0 1.094-.416 1.916a3.1 3.1 0 01-1.163 1.283q-.753.457-1.773.457m.005-1.251q.61 0 1.006-.328.402-.328.6-.872.2-.55.199-1.21 0-.665-.199-1.214a1.96 1.96 0 00-.6-.882q-.397-.332-1.006-.332-.614 0-1.016.332a1.96 1.96 0 00-.6.882 3.6 3.6 0 00-.198 1.214q0 .66.198 1.21.198.545.6.872.401.328 1.016.328m6.878 1.256a2.9 2.9 0 01-1.214-.245 2 2 0 01-.858-.72q-.314-.48-.314-1.177 0-.605.226-.993.231-.393.618-.623.388-.232.868-.346a7.5 7.5 0 01.998-.176q.627-.073 1.02-.124.392-.051.572-.162.18-.11.18-.355v-.033q0-.558-.328-.868-.322-.309-.946-.309-.656 0-1.034.286-.378.287-.522.656l-1.426-.259q.207-.645.642-1.061a2.7 2.7 0 011.029-.62q.6-.202 1.293-.202.471 0 .96.11.494.11.914.38.42.267.679.747.263.48.263 1.219V23h-1.478v-.97h-.055a2 2 0 01-.411.536 2.1 2.1 0 01-.688.42 2.7 2.7 0 01-.988.162m.365-1.164q.54 0 .928-.212.387-.217.595-.563.213-.35.213-.757v-.877a.8.8 0 01-.277.129q-.199.055-.448.101-.249.042-.489.074l-.411.056a3.4 3.4 0 00-.697.17q-.315.116-.499.333-.184.212-.184.558 0 .49.36.74.36.248.909.248m7.666 1.145a2.7 2.7 0 01-1.514-.434q-.666-.434-1.048-1.25-.384-.823-.384-1.977 0-1.167.388-1.985.388-.816 1.057-1.242.67-.424 1.51-.424.642 0 1.043.217.402.211.633.508.23.29.355.526h.074v-3.523h1.528V23h-1.496v-1.113h-.106a3.2 3.2 0 01-.369.536q-.235.29-.642.499-.402.207-1.029.207m.388-1.27q.563 0 .955-.3.392-.304.596-.844.207-.544.207-1.26t-.203-1.247a1.8 1.8 0 00-.595-.822q-.393-.295-.96-.295-.591 0-.988.31a1.83 1.83 0 00-.596.84 3.5 3.5 0 00-.198 1.213q0 .69.203 1.233.203.545.595.859.397.315.984.314" class="fill-primary"/><path d="M145.349 13.546h1.145v6.26q0 .97-.457 1.73a3.2 3.2 0 01-1.278 1.196q-.827.434-1.939.434t-1.939-.434a3.24 3.24 0 01-1.284-1.195q-.452-.762-.452-1.732v-6.26h1.145v6.168q0 .693.304 1.233.306.535.868.845.568.304 1.358.304.789 0 1.357-.304a2.15 2.15 0 00.868-.845q.304-.54.304-1.233zM148.633 23v-7.09h1.052v1.07h.074q.194-.525.702-.854t1.145-.328q.12 0 .3.005t.272.014v1.108a3 3 0 00-.254-.042 2.5 2.5 0 00-.41-.032q-.517 0-.924.217-.401.212-.637.59-.231.375-.231.855V23zm9.86-5.503-.979.277a1.8 1.8 0 00-.273-.475 1.3 1.3 0 00-.48-.388q-.304-.152-.78-.152-.65 0-1.085.3-.429.295-.429.752 0 .406.295.642.296.236.924.392l1.052.259q.951.23 1.418.706.466.471.466 1.214a1.8 1.8 0 01-.351 1.09q-.346.48-.97.757-.623.277-1.449.277-1.085 0-1.796-.471t-.9-1.376l1.034-.258q.147.572.559.858.415.287 1.084.287.762 0 1.21-.324.452-.327.452-.785a.83.83 0 00-.258-.618q-.258-.254-.794-.379l-1.182-.277q-.973-.23-1.431-.715-.453-.489-.453-1.224 0-.6.337-1.061.343-.462.928-.725a3.3 3.3 0 011.339-.263q1.053 0 1.653.461.604.461.859 1.22m6.238 2.604v-4.192h1.089V23h-1.089v-1.2h-.074q-.25.54-.776.918-.526.374-1.329.374-.666 0-1.182-.29a2.04 2.04 0 01-.813-.887q-.295-.595-.295-1.5v-4.506h1.089v4.432q0 .776.434 1.237.44.462 1.117.462.407 0 .827-.208.424-.207.711-.637.291-.43.291-1.094m4.174-6.555V23h-1.089v-9.454zm4.082 9.62a2.9 2.9 0 01-1.223-.254 2.1 2.1 0 01-.873-.743q-.323-.489-.323-1.182 0-.609.24-.988.24-.382.642-.6t.886-.323q.489-.11.984-.175.646-.084 1.047-.125.406-.046.591-.152.19-.106.19-.37v-.037q0-.683-.374-1.061-.37-.38-1.122-.379-.78 0-1.223.342-.444.34-.624.729l-1.034-.37q.277-.646.739-1.006a2.8 2.8 0 011.015-.508q.555-.147 1.09-.147.341 0 .785.083.447.078.863.328.42.25.697.752.277.504.277 1.348V23h-1.089v-.96h-.056a2 2 0 01-.369.494 2.1 2.1 0 01-.688.448q-.429.184-1.048.184m.166-.979q.646 0 1.09-.253a1.73 1.73 0 00.905-1.5v-.998q-.07.083-.305.152a5 5 0 01-.536.116 24 24 0 01-1.043.138 4 4 0 00-.794.18q-.364.12-.591.365-.222.24-.221.656 0 .567.42.858.424.287 1.075.287m8.877.813v-9.454h5.669v1.015h-4.524v3.195h4.099v1.015h-4.099V23zm7.406 0v-7.09h1.052v1.07h.074a1.7 1.7 0 01.702-.854q.507-.328 1.145-.328.12 0 .3.005t.272.014v1.108a3 3 0 00-.254-.042 2.5 2.5 0 00-.411-.032 1.9 1.9 0 00-.923.217q-.402.212-.637.59-.231.375-.231.855V23zm6.923.166a2.9 2.9 0 01-1.223-.254 2.1 2.1 0 01-.873-.743q-.323-.489-.323-1.182 0-.609.24-.988.24-.382.642-.6t.886-.323a11 11 0 01.984-.175q.645-.084 1.048-.125.405-.046.59-.152.19-.106.19-.37v-.037q0-.683-.374-1.061-.369-.38-1.122-.379-.78 0-1.223.342-.444.34-.624.729l-1.034-.37q.277-.646.739-1.006a2.8 2.8 0 011.016-.508 4.2 4.2 0 011.089-.147q.342 0 .785.083.447.078.863.328.42.25.697.752.277.504.277 1.348V23h-1.089v-.96h-.056a2 2 0 01-.369.494 2.1 2.1 0 01-.688.448q-.429.184-1.048.184m.166-.979q.646 0 1.09-.253a1.73 1.73 0 00.905-1.5v-.998q-.07.083-.305.152a5 5 0 01-.535.116 25 25 0 01-1.044.138 4 4 0 00-.794.18q-.364.12-.591.365-.22.24-.221.656 0 .567.42.858.424.287 1.075.287m6.162-3.453V23h-1.089v-7.09h1.052v1.107h.093q.249-.54.757-.868.507-.332 1.311-.332.72 0 1.26.295.54.291.84.887.3.59.3 1.495V23h-1.089v-4.432q0-.835-.434-1.302-.433-.47-1.191-.47-.522 0-.933.226-.405.225-.641.66-.236.434-.236 1.052m7.531 1.68-.019-1.347h.222l3.102-3.158h1.348l-3.305 3.342h-.092zM209.202 23v-9.454h1.09V23zm4.506 0-2.77-3.509.776-.757L215.093 23zm3.655-9.454V23h-1.089v-9.454zM219.358 23v-7.09h1.09V23zm.554-8.273a.78.78 0 01-.549-.217.7.7 0 01-.226-.521q0-.304.226-.522a.77.77 0 01.549-.217q.319 0 .545.217a.7.7 0 01.231.522.7.7 0 01-.231.521.76.76 0 01-.545.217m3.621 4.007V23h-1.09v-7.09h1.053v1.107h.092q.25-.54.757-.868.508-.332 1.312-.332.72 0 1.26.295.54.291.84.887.3.59.3 1.495V23h-1.089v-4.432q0-.835-.434-1.302-.435-.47-1.191-.47-.522 0-.933.226-.406.225-.642.66-.235.434-.235 1.052" class="fill-secondary"/><path d="M13.5 36.5h261a1 1 0 011 1v21a1 1 0 01-1 1h-261a1 1 0 01-1-1v-21a1 1 0 011-1" class="fill-container"/><path d="M13.5 36.5h261a1 1 0 011 1v21a1 1 0 01-1 1h-261a1 1 0 01-1-1v-21a1 1 0 011-1Z" class="stroke-border"/><path d="M18.719 44.09h1.4l2.125 5.19h.08l2.126-5.19h1.4V51h-1.1v-4.871h-.064l-1.97 4.854h-.863l-1.97-4.865h-.065V51h-1.1zm10.771 7.015q-.773 0-1.332-.328a2.2 2.2 0 0 1-.86-.927q-.3-.6-.3-1.407 0-.8.3-1.407.303-.608.846-.945.544-.34 1.276-.34.462 0 .88.148.418.149.746.466.327.313.516.81.192.495.192 1.187v.364h-4.187v-.79h3.104a1.4 1.4 0 0 0-.155-.66 1.16 1.16 0 0 0-.435-.463 1.2 1.2 0 0 0-.648-.168 1.27 1.27 0 0 0-1.164.698q-.162.314-.165.681v.652q0 .485.175.83.175.343.49.526.314.179.732.179.28 0 .506-.078.226-.081.387-.236.165-.158.254-.392l1.049.152q-.112.436-.412.763-.297.324-.756.506-.455.179-1.039.179m5.844-5.287v.877h-2.905v-.877zm-2.16-1.241h1.117v4.885q0 .266.081.408a.42.42 0 0 0 .212.189q.135.047.294.047.118 0 .21-.017l.144-.027.196.894q-.095.03-.267.068a2 2 0 0 1-.421.047 1.9 1.9 0 0 1-.786-.142 1.3 1.3 0 0 1-.57-.469q-.213-.317-.21-.796zM36.4 51v-5.182h1.083v.844h.054q.141-.432.492-.675.354-.246.803-.246.097 0 .226.01.127.006.21.02v1.046a1.3 1.3 0 0 0-.234-.044 2 2 0 0 0-.313-.024q-.348 0-.621.149-.27.144-.428.405-.156.255-.156.593V51zm3.71 0v-5.182h1.117V51zm.564-5.948a.67.67 0 0 1-.476-.185.6.6 0 0 1-.195-.449q0-.26.195-.445a.67.67 0 0 1 .476-.186q.276 0 .472.186a.59.59 0 0 1 .2.445.6.6 0 0 1-.2.449.66.66 0 0 1-.472.185m4.081 6.053q-.763 0-1.312-.341a2.3 2.3 0 0 1-.843-.945q-.294-.603-.294-1.386 0-.793.3-1.397t.847-.945q.55-.34 1.292-.34.611 0 1.086.226.477.222.763.627.29.405.337.948h-1.076a1.13 1.13 0 0 0-.354-.627q-.277-.257-.74-.257-.396 0-.697.213a1.4 1.4 0 0 0-.466.6q-.165.388-.165.928 0 .547.165.945.165.394.462.61.3.213.702.213.28 0 .503-.105.225-.105.377-.3.156-.199.213-.479h1.076q-.051.525-.327.938a1.9 1.9 0 0 1-.749.64q-.47.234-1.1.234m3.952-.034a.7.7 0 0 1-.503-.206.67.67 0 0 1-.206-.503.66.66 0 0 1 .206-.495q.21-.21.502-.21.285 0 .493.21a.68.68 0 0 1 .115.85.8.8 0 0 1-.257.26.67.67 0 0 1-.35.094m0-3.738a.7.7 0 0 1-.503-.206.67.67 0 0 1-.206-.503.66.66 0 0 1 .206-.495q.21-.21.502-.21.285 0 .493.21a.676.676 0 0 1 .115.853.8.8 0 0 1-.257.257.7.7 0 0 1-.35.094M59.315 44.09V51h-.81l-3.764-5.425h-.068V51h-.836v-6.91h.81l3.778 5.44h.067v-5.44zm4.832 4.791v-3.063h.796V51h-.796v-.877h-.054a1.7 1.7 0 0 1-.567.671q-.384.274-.971.274-.486 0-.864-.213a1.5 1.5 0 0 1-.594-.648q-.215-.435-.215-1.096v-3.293h.796v3.239q0 .567.317.904.321.337.816.337.297 0 .604-.151.31-.153.52-.466.212-.315.212-.8M66.401 51v-5.182h.77v.783h.054q.141-.386.513-.624.37-.24.836-.24a9 9 0 0 1 .419.014v.81a2 2 0 0 0-.186-.031 2 2 0 0 0-.3-.024 1.4 1.4 0 0 0-.675.159q-.293.154-.466.432-.168.273-.168.624V51zm7.206-4.021-.716.202a1.3 1.3 0 0 0-.199-.347 1 1 0 0 0-.35-.284 1.3 1.3 0 0 0-.57-.111q-.477 0-.793.22-.314.214-.314.55 0 .296.216.468t.674.287l.77.189q.695.168 1.035.516.341.344.341.887 0 .445-.256.796a1.7 1.7 0 0 1-.709.554 2.6 2.6 0 0 1-1.059.202q-.793 0-1.312-.344-.52-.345-.658-1.006l.756-.188q.108.419.408.627.303.21.793.21.556 0 .883-.237.33-.24.331-.573 0-.27-.189-.453-.19-.184-.58-.276l-.864-.203q-.711-.168-1.046-.522-.33-.359-.33-.894 0-.439.246-.776.249-.338.678-.53a2.4 2.4 0 0 1 .978-.192q.77 0 1.208.337.442.338.628.89M74.9 51v-5.182h.796V51zm.404-6.045a.57.57 0 0 1-.401-.159.5.5 0 0 1-.165-.381.5.5 0 0 1 .165-.381.57.57 0 0 1 .401-.159q.234 0 .398.159a.5.5 0 0 1 .17.38.5.5 0 0 1-.17.382.55.55 0 0 1-.398.159m2.646 2.928V51h-.796v-5.182h.77v.81h.067a1.5 1.5 0 0 1 .553-.634q.371-.243.958-.243.526 0 .921.216.395.212.614.647.22.432.22 1.093V51h-.797v-3.239q0-.61-.317-.951-.317-.345-.87-.344a1.4 1.4 0 0 0-.682.165q-.297.165-.469.483a1.6 1.6 0 0 0-.172.769m6.853 5.168q-.577 0-.992-.148a2.1 2.1 0 0 1-.692-.385 2.1 2.1 0 0 1-.435-.506l.634-.445q.108.141.274.324.165.185.452.32.29.138.759.138.627 0 1.035-.303.41-.304.409-.952v-1.052h-.068a4 4 0 0 1-.25.35q-.158.206-.458.368-.297.159-.803.159-.628 0-1.127-.297a2.1 2.1 0 0 1-.786-.864q-.287-.566-.287-1.376 0-.796.28-1.386.28-.594.78-.918a2.06 2.06 0 0 1 1.153-.327q.507 0 .803.168.3.166.459.378.162.21.25.344h.08v-.823h.77v5.33q0 .669-.304 1.087-.3.421-.81.617a3 3 0 0 1-1.126.2m-.027-2.847q.48 0 .81-.22.33-.219.502-.63t.172-.985q0-.56-.169-.989a1.5 1.5 0 0 0-.499-.671q-.33-.243-.816-.243-.507 0-.844.256-.333.256-.502.688a2.7 2.7 0 0 0-.166.959q0 .54.17.954.17.412.505.648.338.233.837.233M91.28 51v-6.91h4.17v.743h-3.333v2.335h3.117v.742h-3.117v2.348h3.387V51zm7.877-5.182v.675h-2.793v-.675zM97.201 51v-5.897q0-.445.209-.742.21-.297.543-.445.335-.15.705-.149.293 0 .48.047.185.048.276.088l-.23.688-.168-.05q-.105-.03-.277-.03-.395 0-.57.198-.172.2-.172.584V51zm5.38-5.182v.675h-2.794v-.675zM100.624 51v-5.897q0-.445.209-.742.21-.297.543-.445.334-.15.705-.149.294 0 .479.047.186.048.277.088l-.229.688-.169-.05q-.105-.03-.277-.03-.395 0-.57.198-.172.2-.172.584V51zm4.964.108q-.702 0-1.231-.334a2.27 2.27 0 0 1-.823-.934q-.294-.6-.294-1.404 0-.81.294-1.413.297-.605.823-.938a2.26 2.26 0 0 1 1.231-.334q.702 0 1.228.334.53.333.823.938.297.603.297 1.413 0 .802-.297 1.404-.293.6-.823.934-.526.334-1.228.334m0-.715q.534 0 .877-.273.345-.274.51-.72.165-.444.165-.964t-.165-.968q-.165-.45-.51-.726-.343-.276-.877-.276-.533 0-.877.276a1.63 1.63 0 0 0-.509.726 2.8 2.8 0 0 0-.166.968q0 .52.166.965.165.445.509.718.344.274.877.274m3.564.607v-5.182h.769v.783h.054q.141-.386.512-.624.372-.24.837-.24a9 9 0 0 1 .418.014v.81a2 2 0 0 0-.185-.031 2 2 0 0 0-.3-.024 1.4 1.4 0 0 0-.675.159 1.2 1.2 0 0 0-.466.432q-.168.273-.168.624V51zm6.112-5.182v.675h-2.685v-.675zm-1.902-1.241h.796v4.939q0 .336.098.506.101.165.256.222.159.054.334.054.132 0 .216-.013l.135-.027.162.715q-.08.03-.226.06a1.7 1.7 0 0 1-.368.035q-.337 0-.661-.146a1.3 1.3 0 0 1-.533-.441q-.21-.297-.209-.75zm5.88 6.423v-6.91h.796v2.551h.068a7 7 0 0 1 .242-.344q.159-.212.453-.378.296-.168.802-.168.655 0 1.154.327.5.327.779.928.28.6.28 1.417 0 .822-.28 1.427-.28.6-.775.93a2.03 2.03 0 0 1-1.144.328q-.499 0-.8-.165-.3-.17-.462-.382a5 5 0 0 1-.249-.357h-.095V51zm.783-2.59q0 .586.172 1.035.171.446.502.698.331.25.81.25.5 0 .833-.263.338-.267.506-.716a2.8 2.8 0 0 0 .172-1.005q0-.546-.168-.985a1.53 1.53 0 0 0-.503-.698q-.334-.26-.84-.26-.486 0-.816.246-.331.243-.5.682-.168.435-.168 1.015m5.337 4.533a1.7 1.7 0 0 1-.581-.094l.203-.702q.29.075.513.054a.6.6 0 0 0 .394-.199q.175-.175.321-.57l.148-.405-1.916-5.209h.864l1.43 4.13h.054l1.43-4.13h.864l-2.2 5.938a2.3 2.3 0 0 1-.367.664q-.219.267-.51.395a1.6 1.6 0 0 1-.647.128m13.114-6.693h-.836a1.74 1.74 0 0 0-.705-1.093 1.9 1.9 0 0 0-.577-.283 2.3 2.3 0 0 0-.661-.095q-.629 0-1.137.317-.506.318-.807.935-.297.617-.297 1.514 0 .898.297 1.515.3.617.807.935.508.317 1.137.317.343 0 .661-.095.316-.094.577-.28a1.78 1.78 0 0 0 .705-1.096h.836q-.094.53-.344.948a2.6 2.6 0 0 1-1.454 1.154 3.1 3.1 0 0 1-.981.151q-.885 0-1.573-.431a2.97 2.97 0 0 1-1.082-1.228q-.396-.796-.395-1.89 0-1.092.395-1.889t1.082-1.228a2.9 2.9 0 0 1 1.573-.432q.522 0 .981.152.462.152.834.446.37.29.62.708.25.416.344.948m2.769 4.871q-.492 0-.894-.185a1.53 1.53 0 0 1-.637-.543q-.237-.358-.237-.864 0-.445.176-.722.175-.28.469-.438.293-.16.648-.236a8 8 0 0 1 .718-.129q.472-.06.766-.09.297-.034.432-.112.138-.078.138-.27v-.027q0-.5-.273-.776-.27-.276-.82-.277-.57 0-.894.25a1.5 1.5 0 0 0-.455.533l-.756-.27q.203-.473.54-.735.34-.267.742-.371.405-.108.796-.108.25 0 .574.06.327.058.63.24.308.182.51.55.202.367.202.985V51h-.796v-.702h-.04a1.4 1.4 0 0 1-.27.361 1.6 1.6 0 0 1-.503.328q-.313.135-.766.134m.122-.715q.472 0 .796-.185a1.26 1.26 0 0 0 .661-1.097v-.728q-.05.06-.223.11-.168.048-.391.085a18 18 0 0 1-.762.102q-.31.04-.581.131a1 1 0 0 0-.431.267q-.162.175-.162.479 0 .414.307.627.31.21.786.21m7.377-3.427-.715.202a1.4 1.4 0 0 0-.199-.347 1 1 0 0 0-.351-.284 1.3 1.3 0 0 0-.57-.111q-.476 0-.793.22-.314.214-.314.55 0 .296.216.468t.675.287l.769.189q.694.168 1.036.516.34.344.34.887 0 .445-.256.796a1.7 1.7 0 0 1-.709.554 2.6 2.6 0 0 1-1.059.202q-.792 0-1.312-.344-.52-.345-.658-1.006l.756-.188q.108.419.408.627.303.21.793.21.556 0 .884-.237.33-.24.33-.573 0-.27-.189-.453-.189-.184-.58-.276l-.864-.203q-.712-.168-1.045-.522-.331-.359-.331-.894 0-.439.246-.776.25-.338.678-.53.432-.192.979-.192.769 0 1.207.337.442.338.628.89m3.465 4.129q-.749 0-1.292-.33a2.2 2.2 0 0 1-.833-.932q-.29-.6-.29-1.396 0-.797.29-1.404.294-.61.816-.951.527-.344 1.228-.344.405 0 .8.135t.719.438q.322.3.516.796.192.496.192 1.222v.337h-3.994v-.688h3.184q0-.439-.175-.783a1.3 1.3 0 0 0-.493-.543 1.4 1.4 0 0 0-.749-.2q-.475 0-.823.237a1.55 1.55 0 0 0-.529.607 1.8 1.8 0 0 0-.186.803v.459q0 .587.202.995.207.405.571.618.364.209.846.209.314 0 .567-.088.256-.09.442-.27a1.2 1.2 0 0 0 .287-.452l.769.216q-.121.39-.408.688a2 2 0 0 1-.709.459 2.6 2.6 0 0 1-.948.162m8.269-.108h-2.132v-6.91h2.226q1.006.001 1.721.416.715.411 1.096 1.184.382.77.382 1.842 0 1.08-.385 1.859-.384.775-1.12 1.194-.735.415-1.788.415m-1.295-.742h1.241q.857 0 1.42-.33.564-.331.84-.942.277-.61.277-1.454 0-.837-.273-1.44a2 2 0 0 0-.817-.932q-.543-.327-1.352-.327h-1.336zm9.149-1.377v-3.063h.796V51h-.796v-.877h-.054a1.7 1.7 0 0 1-.567.671q-.384.274-.972.274-.485 0-.863-.213a1.5 1.5 0 0 1-.594-.648q-.216-.435-.216-1.096v-3.293h.796v3.239q0 .567.317.904.32.337.817.337.297 0 .604-.151.31-.153.519-.466.213-.315.213-.8M170.586 51v-5.182h.769v.783h.054a1.25 1.25 0 0 1 .513-.624q.37-.24.837-.24a9 9 0 0 1 .418.014v.81a2 2 0 0 0-.186-.031 2 2 0 0 0-.3-.024q-.378 0-.674.159a1.2 1.2 0 0 0-.466.432q-.168.273-.169.624V51zm5.06.121q-.494 0-.894-.185a1.53 1.53 0 0 1-.638-.543 1.54 1.54 0 0 1-.236-.864q0-.445.175-.722.176-.28.469-.438.294-.16.648-.236a8 8 0 0 1 .719-.129q.472-.06.765-.09.297-.034.432-.112.138-.078.138-.27v-.027q0-.5-.273-.776-.27-.276-.82-.277-.57 0-.894.25a1.5 1.5 0 0 0-.455.533l-.756-.27q.202-.473.54-.735.341-.267.742-.371.406-.108.796-.108.25 0 .574.06.327.058.631.24.306.182.509.55.203.367.203.985V51h-.797v-.702h-.04a1.4 1.4 0 0 1-.27.361 1.6 1.6 0 0 1-.503.328q-.314.135-.765.134m.121-.715q.472 0 .796-.185a1.26 1.26 0 0 0 .661-1.097v-.728q-.05.06-.222.11-.169.048-.392.085a18 18 0 0 1-.762.102q-.31.04-.58.131a1 1 0 0 0-.432.267q-.162.175-.162.479 0 .414.307.627.31.21.786.21m5.96-4.588v.675h-2.685v-.675zm-1.902-1.241h.796v4.939q0 .336.098.506.101.165.256.222.159.054.334.054.132 0 .216-.013l.135-.027.162.715q-.08.03-.226.06a1.7 1.7 0 0 1-.368.035q-.337 0-.661-.146a1.3 1.3 0 0 1-.533-.441q-.21-.297-.209-.75zm3.1 6.423v-5.182h.796V51zm.405-6.045a.57.57 0 0 1-.402-.159.5.5 0 0 1-.165-.381.5.5 0 0 1 .165-.381.57.57 0 0 1 .402-.159q.233 0 .398.159a.5.5 0 0 1 .169.38.5.5 0 0 1-.169.382.55.55 0 0 1-.398.159m3.954 6.153a2.26 2.26 0 0 1-1.231-.334 2.27 2.27 0 0 1-.823-.934q-.294-.6-.294-1.404 0-.81.294-1.413.297-.605.823-.938a2.26 2.26 0 0 1 1.231-.334q.702 0 1.228.334.53.333.824.938.297.603.297 1.413 0 .802-.297 1.404-.293.6-.824.934-.525.334-1.228.334m0-.715q.534 0 .878-.273.344-.274.509-.72.165-.444.165-.964t-.165-.968q-.165-.45-.509-.726t-.878-.276q-.532 0-.877.276a1.63 1.63 0 0 0-.509.726q-.165.449-.165.968 0 .52.165.965t.509.718.877.274m4.36-2.51V51h-.796v-5.182h.769v.81h.067q.183-.395.554-.634.371-.243.958-.243.526 0 .921.216.395.212.614.647.219.432.219 1.093V51h-.796v-3.239q0-.61-.317-.951-.318-.345-.871-.344-.381 0-.681.165-.297.165-.469.483a1.6 1.6 0 0 0-.172.769" class="fill-accent"/><path fill-rule="evenodd" d="M261.345 46.945a.36.36 0 01.509 0L264 49.091l2.145-2.146a.36.36 0 11.509.51l-2.4 2.4a.36.36 0 01-.509 0l-2.4-2.4a.36.36 0 010-.51" clip-rule="evenodd" class="fill-hint"/><mask id="widget-__a" class="fill-main-contrast"><path d="M76 68h200v142H76z"/></mask><path d="M276 209H76v2h200z" mask="url(#widget-__a)" class="fill-divider"/><path d="M76 70.958h10v51.771H76z" class="fill-tone"/><path d="M76 79.833h10v22.188H76z" class="fill-paint"/><path d="M76 90.333h10" class="stroke-main"/><g clip-path="url(#widget-__b)"><path d="M87.25 78.355H98.5v44.375H87.25z" class="fill-tone"/><g clip-path="url(#widget-__c)"><path d="M87.25 87.23h11v22.188h-11z" class="fill-paint"/><path d="M87.25 97.73h11" class="stroke-main"/></g></g><g clip-path="url(#widget-__d)"><path d="M99.75 87.23h10v38.457h-10z" class="fill-tone"/><g clip-path="url(#widget-__e)"><path d="M99.75 96.105h10v22.188h-10z" class="fill-paint"/><path d="M99.75 106.604h10" class="stroke-main"/></g></g><path d="M111 84.27h11.25v56.209H111z" class="fill-tone"/><path d="M111 93.146h11v22.188h-11z" class="fill-paint"/><path d="M111 103.646h11" class="stroke-main"/><g clip-path="url(#widget-__f)"><path d="M123.5 102.021h10v44.375h-10z" class="fill-tone"/><g clip-path="url(#widget-__g)"><path d="M123.5 110.896h10v22.188h-10z" class="fill-paint"/><path d="M123.5 121.396h10" class="stroke-main"/></g></g><g clip-path="url(#widget-__h)"><path d="M134.75 94.625H146v71h-11.25z" class="fill-tone"/><g clip-path="url(#widget-__i)"><path d="M134.75 109.417h11V139h-11z" class="fill-paint"/><path d="M134.75 125.917h11" class="stroke-main"/></g></g><g clip-path="url(#widget-__j)"><path d="M147.25 102.021h10v62.125h-10z" class="fill-tone"/><g clip-path="url(#widget-__k)"><path d="M147.25 107.938h10v35.5h-10z" class="fill-paint"/><path d="M147.25 129.438h10" class="stroke-main"/></g></g><g clip-path="url(#widget-__l)"><path d="M158.5 99.063h11.25v65.082H158.5z" class="fill-tone"/><g clip-path="url(#widget-__m)"><path d="M158.5 133.083h11v22.188h-11z" class="fill-paint"/><path d="M158.5 147.583h11" class="stroke-main"/></g></g><path d="M171 109.417h10v68.042h-10z" class="fill-tone"/><path d="M171 122.729h10v42.896h-10z" class="fill-paint"/><path d="M171 150.229h10" class="stroke-main"/><g clip-path="url(#widget-__n)"><path d="M182.25 124.208h11.25v59.167h-11.25z" class="fill-tone"/><g clip-path="url(#widget-__o)"><path d="M182.25 139h11v32.542h-11z" class="fill-paint"/><path d="M182.25 156.5h11" class="stroke-main"/></g></g><g clip-path="url(#widget-__p)"><path d="M194.75 103.5h10v72.479h-10z" class="fill-tone"/><g clip-path="url(#widget-__q)"><path d="M194.75 141.958h10v23.667h-10z" class="fill-paint"/><path d="M194.75 155.458h10" class="stroke-main"/></g></g><path d="M206 113.854h11.25v57.688H206z" class="fill-tone"/><path d="M206 147.875h11v19.229h-11z" class="fill-paint"/><path d="M206 159.375h11" class="stroke-main"/><g clip-path="url(#widget-__r)"><path d="M218.5 137.521h10v51.771h-10z" class="fill-tone"/><g clip-path="url(#widget-__s)"><path d="M218.5 158.229h10v26.625h-10z" class="fill-paint"/><path d="M218.5 170.729h10" class="stroke-main"/></g></g><g clip-path="url(#widget-__t)"><path d="M229.75 130.125H241v65.083h-11.25z" class="fill-tone"/><g clip-path="url(#widget-__u)"><path d="M229.75 146.396h11v36.979h-11z" class="fill-paint"/><path d="M229.75 161.896h11" class="stroke-main"/></g></g><g clip-path="url(#widget-__v)"><path d="M242.25 144.917h10v60.646h-10z" class="fill-tone"/><g clip-path="url(#widget-__w)"><path d="M242.25 175.979h10v19.229h-10z" class="fill-paint"/><path d="M242.25 187.479h10" class="stroke-main"/></g></g><g clip-path="url(#widget-__x)"><path d="M253.5 168.583h11.25v34.021H253.5z" class="fill-tone"/><g clip-path="url(#widget-__y)"><path d="M253.5 180.416h11v16.271h-11z" class="fill-paint"/><path d="M253.5 188.916h11" class="stroke-main"/></g></g><path d="M266 184.854h10v20.708h-10z" class="fill-tone"/><path d="M266 189.292h10v11.833h-10z" class="fill-paint"/><path d="M266 195.792h10" class="stroke-main"/><path d="m116.257 236-2.188-8h.985l1.672 6.516h.078l1.703-6.516h1.094l1.703 6.516h.078l1.672-6.516h.984l-2.187 8h-1l-1.766-6.375h-.063L117.257 236zm10.82.125q-.867 0-1.496-.383a2.57 2.57 0 0 1-.965-1.078q-.336-.695-.336-1.617t.336-1.625q.34-.707.946-1.102.61-.398 1.421-.398.469 0 .926.156.457.157.832.508.375.348.598.922t.223 1.414v.39h-4.625v-.796h3.687q0-.508-.203-.907a1.54 1.54 0 0 0-.57-.629 1.6 1.6 0 0 0-.868-.23q-.55 0-.953.273a1.8 1.8 0 0 0-.613.704 2.1 2.1 0 0 0-.215.929v.532q0 .68.235 1.152.237.468.66.715.422.242.98.242.363 0 .656-.102.297-.105.512-.312.215-.211.332-.524l.891.25a2 2 0 0 1-.473.797 2.3 2.3 0 0 1-.82.531 3 3 0 0 1-1.098.188m6.402 0q-.867 0-1.496-.383a2.57 2.57 0 0 1-.964-1.078q-.336-.695-.336-1.617t.336-1.625q.339-.707.945-1.102.609-.398 1.422-.398.468 0 .926.156.457.157.832.508.375.348.597.922.223.574.223 1.414v.39h-4.625v-.796h3.687q0-.508-.203-.907a1.54 1.54 0 0 0-.57-.629 1.6 1.6 0 0 0-.867-.23q-.55 0-.953.273-.398.27-.614.704a2.1 2.1 0 0 0-.215.929v.532q0 .68.235 1.152.238.468.66.715.422.242.98.242.364 0 .657-.102.297-.105.511-.312.216-.211.332-.524l.891.25a2 2 0 0 1-.473.797 2.3 2.3 0 0 1-.82.531 3 3 0 0 1-1.098.188m4.747-2.313-.016-1.14h.187l2.625-2.672h1.141l-2.797 2.828h-.078zm-.86 2.188v-8h.922v8zm3.813 0-2.344-2.969.656-.64 2.86 3.609zm6.421-4.656-.829.234a1.5 1.5 0 0 0-.23-.402 1.1 1.1 0 0 0-.406-.328q-.258-.129-.66-.129-.552 0-.918.254-.364.25-.364.636 0 .345.25.543.25.2.782.332l.89.219q.805.196 1.199.598.395.398.395 1.027 0 .516-.297.922a2 2 0 0 1-.82.641q-.528.234-1.227.234-.918 0-1.519-.398-.602-.399-.762-1.165l.875-.218q.125.484.473.726.351.243.918.242.643 0 1.023-.273.383-.277.383-.664a.7.7 0 0 0-.219-.523q-.219-.215-.672-.321l-1-.234q-.824-.195-1.211-.606-.383-.414-.383-1.035 0-.507.286-.898.288-.391.785-.613a2.75 2.75 0 0 1 1.133-.223q.89 0 1.398.39.511.391.727 1.032m9.09-1.344a1.23 1.23 0 0 0-.57-.922q-.5-.328-1.226-.328-.532 0-.93.172a1.5 1.5 0 0 0-.617.473 1.13 1.13 0 0 0-.219.683 1 1 0 0 0 .152.551q.156.226.399.379a3 3 0 0 0 .508.246q.265.093.488.152l.812.219q.313.082.696.227.386.144.738.394.355.246.586.633t.23.949q0 .648-.34 1.172-.335.523-.984.832-.645.309-1.566.309-.86 0-1.489-.278a2.4 2.4 0 0 1-.984-.773 2.2 2.2 0 0 1-.402-1.152h1q.039.453.304.749.27.294.68.438.414.141.891.141.554 0 .996-.18a1.7 1.7 0 0 0 .699-.508q.258-.328.258-.766 0-.397-.223-.648a1.6 1.6 0 0 0-.586-.406 6 6 0 0 0-.785-.274l-.984-.281q-.937-.27-1.485-.769-.547-.5-.547-1.309 0-.672.364-1.172.368-.504.984-.781a3.3 3.3 0 0 1 1.387-.281q.773 0 1.375.277.602.273.953.75.355.477.375 1.082zm2.515 6v-6h.922v6zm.469-7a.65.65 0 0 1-.465-.184.59.59 0 0 1-.191-.441q0-.258.191-.441a.65.65 0 0 1 .465-.184.64.64 0 0 1 .461.184q.195.183.195.441a.58.58 0 0 1-.195.441.64.64 0 0 1-.461.184m3.063 3.391V236h-.922v-6h.891v.937h.078q.211-.456.641-.734.43-.28 1.109-.281.61 0 1.067.25.456.246.711.75.253.5.253 1.266V236h-.921v-3.75q0-.707-.368-1.102-.366-.398-1.007-.398-.442 0-.79.191-.344.192-.542.559-.2.368-.2.891m7.951 3.734q-.844 0-1.454-.398a2.6 2.6 0 0 1-.937-1.098q-.328-.7-.328-1.598 0-.914.336-1.613.339-.704.945-1.098.609-.398 1.422-.398.633 0 1.141.234.507.234.832.656t.402.985h-.922a1.43 1.43 0 0 0-.469-.727q-.359-.32-.968-.32-.54 0-.946.281a1.84 1.84 0 0 0-.629.785q-.222.504-.222 1.184 0 .696.218 1.211.223.516.625.801.406.285.954.285.359 0 .652-.125a1.33 1.33 0 0 0 .785-.922h.922a2.13 2.13 0 0 1-1.195 1.629 2.6 2.6 0 0 1-1.164.246m6.222 0q-.867 0-1.496-.383a2.57 2.57 0 0 1-.965-1.078q-.336-.695-.336-1.617t.336-1.625q.34-.707.946-1.102.61-.398 1.421-.398.47 0 .926.156.457.157.832.508.375.348.598.922t.223 1.414v.39h-4.625v-.796h3.687q0-.508-.203-.907a1.54 1.54 0 0 0-.57-.629 1.6 1.6 0 0 0-.868-.23q-.55 0-.953.273a1.8 1.8 0 0 0-.613.704 2.1 2.1 0 0 0-.215.929v.532q0 .68.235 1.152.237.468.66.715.422.242.98.242.363 0 .656-.102.297-.105.512-.312.215-.211.332-.524l.891.25a2 2 0 0 1-.473.797 2.3 2.3 0 0 1-.82.531 3 3 0 0 1-1.098.188m13.543-5.625h-.969a2 2 0 0 0-.816-1.266 2.2 2.2 0 0 0-.668-.328 2.7 2.7 0 0 0-.766-.109q-.726 0-1.316.367-.586.368-.934 1.082-.343.715-.343 1.754t.343 1.754q.348.714.934 1.082.59.367 1.316.367.399 0 .766-.109a2.3 2.3 0 0 0 .668-.324q.305-.22.516-.536.214-.32.3-.734h.969a3.3 3.3 0 0 1-.398 1.098 3 3 0 0 1-.719.824 3.2 3.2 0 0 1-.965.512 3.6 3.6 0 0 1-1.137.175q-1.023 0-1.82-.5t-1.254-1.422q-.457-.921-.457-2.187t.457-2.188q.458-.921 1.254-1.421.797-.5 1.82-.5a3.6 3.6 0 0 1 1.137.175q.535.176.965.516.43.336.719.82.288.482.398 1.098m3.206 5.641q-.57 0-1.035-.215a1.8 1.8 0 0 1-.738-.629q-.274-.415-.274-1 0-.516.203-.836.204-.324.543-.508.34-.183.75-.273.415-.094.832-.149.548-.07.887-.105.344-.039.5-.129.16-.09.16-.313v-.031q0-.578-.316-.898-.312-.321-.949-.321-.66 0-1.035.289-.375.29-.528.618l-.875-.313q.234-.546.625-.851.395-.309.86-.43.468-.125.921-.125.29 0 .664.07.38.066.731.278.356.21.59.636t.234 1.141V236h-.922v-.813h-.047q-.093.196-.312.418-.219.223-.582.379-.363.157-.887.157m.141-.829q.547 0 .922-.214.378-.215.57-.555.195-.34.195-.715v-.844q-.058.07-.258.129-.195.055-.453.098a21 21 0 0 1-.882.117q-.36.047-.672.152a1.16 1.16 0 0 0-.5.309q-.188.202-.188.555 0 .48.356.726.359.243.91.242m8.542-3.968-.828.234a1.5 1.5 0 0 0-.231-.402 1.1 1.1 0 0 0-.406-.328q-.258-.129-.66-.129-.55 0-.918.254-.363.25-.363.636 0 .345.25.543.25.2.781.332l.89.219q.806.196 1.2.598.394.398.394 1.027 0 .516-.297.922a1.97 1.97 0 0 1-.82.641q-.527.234-1.227.234-.918 0-1.519-.398-.602-.399-.762-1.165l.875-.218q.126.484.473.726.351.243.918.242.644 0 1.023-.273.383-.277.383-.664a.7.7 0 0 0-.219-.523q-.218-.215-.672-.321l-1-.234q-.824-.195-1.211-.606-.382-.414-.382-1.035 0-.507.285-.898.289-.391.785-.613a2.75 2.75 0 0 1 1.133-.223q.891 0 1.398.39.512.391.727 1.032m4.012 4.781q-.867 0-1.496-.383a2.57 2.57 0 0 1-.964-1.078q-.336-.695-.336-1.617t.336-1.625q.339-.707.945-1.102.609-.398 1.422-.398.468 0 .926.156.457.157.832.508.375.348.597.922.223.574.223 1.414v.39h-4.625v-.796h3.687q0-.508-.203-.907a1.54 1.54 0 0 0-.57-.629 1.6 1.6 0 0 0-.867-.23q-.55 0-.953.273-.398.27-.614.704a2.1 2.1 0 0 0-.215.929v.532q0 .68.235 1.152.238.468.66.715.422.242.98.242.364 0 .657-.102.297-.105.511-.312.216-.211.332-.524l.891.25a2 2 0 0 1-.473.797 2.3 2.3 0 0 1-.82.531 3 3 0 0 1-1.098.188M217.835 230a1.23 1.23 0 0 0-.57-.922q-.501-.328-1.227-.328-.531 0-.93.172a1.5 1.5 0 0 0-.617.473 1.13 1.13 0 0 0-.219.683q0 .32.153.551.156.226.398.379.243.148.508.246.266.093.488.152l.813.219q.312.082.695.227.387.144.738.394a2 2 0 0 1 .586.633q.231.387.231.949 0 .648-.34 1.172-.336.523-.984.832-.645.309-1.567.309-.86 0-1.488-.278a2.36 2.36 0 0 1-.984-.773 2.2 2.2 0 0 1-.403-1.152h1q.04.453.305.749.27.294.68.438.414.141.89.141.555 0 .996-.18.442-.183.7-.508.257-.328.257-.766 0-.397-.222-.648a1.6 1.6 0 0 0-.586-.406 6 6 0 0 0-.785-.274l-.985-.281q-.938-.27-1.484-.769-.547-.5-.547-1.309 0-.672.363-1.172.367-.504.985-.781a3.3 3.3 0 0 1 1.386-.281q.774 0 1.375.277.602.273.953.75.355.477.375 1.082zm5.124 0v.781h-3.109V230zm-2.203-1.438h.922v5.719q0 .391.113.586a.58.58 0 0 0 .297.258q.183.063.387.062.152 0 .25-.015l.156-.031.187.828a2 2 0 0 1-.261.07 2 2 0 0 1-.426.039q-.391 0-.766-.168a1.5 1.5 0 0 1-.617-.512q-.242-.344-.242-.867zm5.355 7.579q-.57 0-1.035-.215a1.8 1.8 0 0 1-.738-.629q-.273-.415-.274-1 0-.516.204-.836.202-.324.543-.508.339-.183.75-.273.414-.094.832-.149.546-.07.886-.105.344-.039.5-.129.16-.09.16-.313v-.031q0-.578-.316-.898-.312-.321-.949-.321-.66 0-1.035.289-.375.29-.528.618l-.875-.313q.235-.546.625-.851.395-.309.86-.43.468-.125.922-.125.288 0 .664.07.379.066.73.278.356.21.59.636t.234 1.141V236h-.922v-.813h-.046q-.094.196-.313.418-.219.223-.582.379-.363.157-.887.157m.141-.829q.547 0 .922-.214a1.47 1.47 0 0 0 .765-1.27v-.844q-.059.07-.257.129a4 4 0 0 1-.453.098 22 22 0 0 1-.883.117q-.36.047-.672.152a1.16 1.16 0 0 0-.5.309q-.188.202-.188.555 0 .48.356.726.359.243.91.242m4.292.688v-6h.891v.906h.062q.163-.446.594-.722.429-.278.969-.278.101 0 .253.004.153.004.231.012v.937a3.5 3.5 0 0 0-.563-.062q-.437 0-.781.183-.34.18-.539.5a1.35 1.35 0 0 0-.195.723V236zm7.078-6v.781h-3.109V230zm-2.203-1.438h.922v5.719q0 .391.113.586a.58.58 0 0 0 .297.258q.183.063.387.062.152 0 .25-.015l.156-.031.187.828a2 2 0 0 1-.261.07 2 2 0 0 1-.426.039q-.39 0-.766-.168a1.5 1.5 0 0 1-.617-.512q-.242-.344-.242-.867zM27.665 119h1.156l2.719 6.641h.094L34.352 119h1.157v8h-.907v-6.078h-.078l-2.5 6.078h-.875l-2.5-6.078h-.078V127h-.906zm9.661 8v-6h.922v6zm.469-7a.65.65 0 0 1-.465-.184.59.59 0 0 1-.191-.441q0-.258.191-.441a.65.65 0 0 1 .465-.184.64.64 0 0 1 .46.184q.196.183.196.441a.58.58 0 0 1-.195.441.64.64 0 0 1-.461.184m3.063 3.391V127h-.921v-6h.89v.937h.078q.21-.456.64-.734.43-.28 1.11-.281.61 0 1.067.25.456.246.71.75.255.5.255 1.266V127h-.922v-3.75q0-.707-.367-1.102-.367-.398-1.008-.398-.442 0-.79.191-.344.192-.542.559-.2.367-.2.891m9.294 1.156V121h.922v6h-.922v-1.016h-.062a1.97 1.97 0 0 1-.656.778q-.445.316-1.125.316-.563 0-1-.246a1.73 1.73 0 0 1-.688-.75q-.25-.504-.25-1.27V121h.922v3.75q0 .655.367 1.047.372.39.946.39.344 0 .699-.175.36-.176.601-.539.246-.364.246-.926m5.22-3.547v.781h-3.11V121zm-2.203-1.438h.922v5.719q0 .391.113.586a.6.6 0 0 0 .297.258q.183.062.387.062a2 2 0 0 0 .25-.015l.156-.031.187.828q-.094.035-.261.07a2 2 0 0 1-.426.039q-.39 0-.766-.168a1.5 1.5 0 0 1-.617-.512q-.242-.344-.242-.867zm6.041 7.563q-.867 0-1.496-.383a2.57 2.57 0 0 1-.965-1.078q-.336-.695-.336-1.617t.336-1.625q.34-.707.945-1.102.61-.398 1.422-.398.469 0 .926.156t.832.508q.376.348.598.922t.222 1.414v.39H57.07v-.796h3.688a2 2 0 0 0-.203-.907 1.54 1.54 0 0 0-.57-.629 1.6 1.6 0 0 0-.868-.23q-.55 0-.953.273-.398.27-.613.704a2.1 2.1 0 0 0-.215.929v.532q0 .68.234 1.152.24.469.66.715.423.242.981.242.362 0 .656-.102a1.4 1.4 0 0 0 .512-.312 1.4 1.4 0 0 0 .332-.524l.89.25a2 2 0 0 1-.472.797 2.3 2.3 0 0 1-.82.531 3 3 0 0 1-1.098.188m8.137-4.781-.828.234a1.5 1.5 0 0 0-.23-.402 1.1 1.1 0 0 0-.407-.328q-.258-.129-.66-.129-.55 0-.918.254-.364.25-.364.636 0 .345.25.543.25.2.782.332l.89.219q.805.196 1.2.598.394.398.394 1.027 0 .516-.297.922a2 2 0 0 1-.82.641q-.527.234-1.227.234-.917 0-1.52-.398-.6-.399-.76-1.165l.874-.218q.124.484.473.726.351.243.918.242.644 0 1.023-.273.383-.277.383-.664a.7.7 0 0 0-.219-.523q-.219-.215-.672-.321l-1-.234q-.825-.195-1.21-.606-.383-.414-.383-1.035 0-.507.285-.898.288-.391.785-.613.499-.223 1.133-.223.89 0 1.398.39.512.391.727 1.032M42.793 137a1.23 1.23 0 0 0-.57-.922q-.5-.328-1.227-.328-.531 0-.93.172a1.5 1.5 0 0 0-.617.473 1.13 1.13 0 0 0-.218.683q0 .32.152.551.156.226.398.379.243.148.508.246.266.093.488.152l.813.219q.312.082.695.227.387.144.738.394.356.246.586.633t.23.949q0 .648-.339 1.172-.336.523-.984.832-.645.309-1.567.309-.86 0-1.488-.278a2.37 2.37 0 0 1-.984-.773 2.2 2.2 0 0 1-.403-1.152h1q.04.453.305.749.27.294.68.438.414.141.89.141.555 0 .996-.18.442-.183.7-.508.257-.328.257-.766 0-.397-.222-.648a1.6 1.6 0 0 0-.586-.406 6 6 0 0 0-.785-.274l-.985-.281q-.938-.27-1.484-.769-.547-.5-.547-1.309 0-.672.363-1.172.367-.504.985-.781a3.3 3.3 0 0 1 1.386-.281q.774 0 1.375.277.602.273.953.75.355.477.376 1.082zm2.515 8.25V137h.89v.953h.11q.101-.156.28-.398.185-.246.524-.438.345-.195.93-.195.757 0 1.336.379.578.378.902 1.074.325.695.325 1.641 0 .953-.325 1.652a2.56 2.56 0 0 1-.898 1.078 2.35 2.35 0 0 1-1.324.379q-.579 0-.926-.191a1.7 1.7 0 0 1-.535-.442 6 6 0 0 1-.29-.414h-.078v3.172zm.906-5.25q0 .68.2 1.199.198.515.581.809.383.29.938.289.578 0 .965-.305.39-.309.585-.828.2-.524.2-1.164a3.2 3.2 0 0 0-.196-1.141 1.76 1.76 0 0 0-.582-.808q-.387-.301-.972-.301-.562 0-.946.285a1.7 1.7 0 0 0-.578.789q-.195.504-.195 1.176m8.312 3.125q-.867 0-1.496-.383a2.57 2.57 0 0 1-.965-1.078q-.335-.695-.335-1.617t.335-1.625q.34-.707.946-1.102.609-.398 1.422-.398.468 0 .925.156.457.157.832.508.376.348.598.922.223.574.223 1.414v.39h-4.625v-.796h3.687a2 2 0 0 0-.203-.907 1.54 1.54 0 0 0-.57-.629 1.6 1.6 0 0 0-.867-.23q-.552 0-.953.273-.398.27-.614.704a2.1 2.1 0 0 0-.215.929v.532q0 .68.235 1.152.238.468.66.715.422.242.98.242.364 0 .657-.102a1.4 1.4 0 0 0 .511-.312 1.4 1.4 0 0 0 .332-.524l.891.25a2 2 0 0 1-.473.797 2.3 2.3 0 0 1-.82.531 3 3 0 0 1-1.098.188m4.809-3.734V143h-.922v-6h.89v.937h.079q.21-.456.64-.734.43-.28 1.11-.281.61 0 1.066.25.457.246.711.75.255.5.254 1.266V143h-.922v-3.75q0-.707-.367-1.102-.367-.398-1.008-.398-.441 0-.789.191-.343.192-.543.559t-.199.891M67.457 137v.781h-3.11V137zm-2.203-1.438h.922v5.719q0 .391.113.586a.6.6 0 0 0 .297.258q.183.063.387.062.152 0 .25-.015l.156-.031.187.828q-.094.035-.261.07a2 2 0 0 1-.426.039q-.39 0-.766-.168a1.5 1.5 0 0 1-.617-.512q-.242-.344-.242-.867zM22.11 159v-8h2.703q.942 0 1.54.34.6.336.89.91t.29 1.281q0 .708-.29 1.285-.285.579-.883.922-.598.34-1.53.34h-1.938v-.859h1.906q.645 0 1.035-.223.391-.222.566-.601.18-.383.18-.864 0-.48-.18-.859a1.28 1.28 0 0 0-.57-.594q-.395-.219-1.047-.219H23.08V159zm9.309.125q-.867 0-1.496-.383a2.57 2.57 0 0 1-.965-1.078q-.336-.695-.336-1.617t.336-1.625q.34-.707.945-1.102.61-.398 1.422-.398.469 0 .926.156.457.157.832.508.376.348.598.922t.222 1.414v.39H29.28v-.796h3.688a2 2 0 0 0-.203-.907 1.54 1.54 0 0 0-.57-.629 1.6 1.6 0 0 0-.868-.23q-.55 0-.953.273-.399.27-.613.704a2.1 2.1 0 0 0-.215.929v.532q0 .68.234 1.152.24.468.66.715.423.242.98.242.364 0 .657-.102a1.4 1.4 0 0 0 .512-.312 1.4 1.4 0 0 0 .332-.524l.89.25a2 2 0 0 1-.472.797 2.3 2.3 0 0 1-.82.531 3 3 0 0 1-1.098.188m3.887-.125v-6h.89v.906h.063q.165-.446.593-.722.43-.278.97-.278.101 0 .253.004.153.004.23.012v.937a3.5 3.5 0 0 0-.562-.062q-.437 0-.781.183a1.349 1.349 0 0 0-.734 1.223V159zm13.749-5.5h-.97a2 2 0 0 0-.816-1.266 2.2 2.2 0 0 0-.668-.328 2.7 2.7 0 0 0-.765-.109q-.727 0-1.317.367-.585.368-.933 1.082-.344.715-.344 1.754t.344 1.754q.348.714.933 1.082.59.367 1.317.367.398 0 .765-.109.367-.11.669-.324a2.06 2.06 0 0 0 .816-1.27h.969a3.2 3.2 0 0 1-.399 1.098 3 3 0 0 1-.718.824 3.2 3.2 0 0 1-.965.512 3.6 3.6 0 0 1-1.137.175q-1.024 0-1.82-.5-.798-.5-1.254-1.422-.457-.921-.457-2.187t.457-2.188 1.254-1.421 1.82-.5a3.6 3.6 0 0 1 1.137.175q.534.176.965.516.43.336.718.82a3.2 3.2 0 0 1 .399 1.098m3.206 5.641q-.57 0-1.035-.215a1.8 1.8 0 0 1-.739-.629q-.273-.415-.273-1 0-.516.203-.836a1.44 1.44 0 0 1 .543-.508q.34-.183.75-.273.414-.094.832-.149.547-.07.887-.105.343-.039.5-.129.16-.09.16-.313v-.031q0-.578-.317-.898-.312-.321-.949-.321-.66 0-1.035.289-.375.29-.527.618l-.875-.313q.234-.546.625-.851.395-.309.86-.43.468-.125.921-.125.29 0 .664.07.38.066.73.278.356.21.59.636.235.426.235 1.141V159h-.922v-.813h-.047q-.094.196-.312.418-.219.223-.583.379-.363.157-.886.157m.14-.829q.547 0 .922-.214a1.47 1.47 0 0 0 .766-1.27v-.844q-.06.07-.258.129-.195.055-.453.098a22 22 0 0 1-.883.117q-.36.047-.672.152a1.16 1.16 0 0 0-.5.309q-.187.202-.187.555 0 .48.355.726.36.243.91.242m8.542-3.968-.828.234a1.5 1.5 0 0 0-.23-.402 1.1 1.1 0 0 0-.407-.328q-.257-.129-.66-.129-.55 0-.918.254-.363.25-.363.636 0 .345.25.543.25.2.781.332l.891.219q.804.196 1.2.598.393.398.394 1.027 0 .516-.297.922a2 2 0 0 1-.82.641q-.527.234-1.227.234-.918 0-1.52-.398-.6-.399-.761-1.165l.875-.218q.124.484.472.726.352.243.918.242.645 0 1.024-.273.383-.277.383-.664a.7.7 0 0 0-.22-.523q-.218-.215-.671-.321l-1-.234q-.825-.195-1.211-.606-.383-.414-.383-1.035 0-.507.285-.898.29-.391.785-.613a2.75 2.75 0 0 1 1.133-.223q.89 0 1.399.39.51.391.726 1.032m4.013 4.781q-.867 0-1.496-.383a2.57 2.57 0 0 1-.965-1.078q-.336-.695-.336-1.617t.336-1.625q.34-.707.945-1.102.61-.398 1.422-.398.469 0 .926.156.457.157.832.508.376.348.598.922t.222 1.414v.39h-4.625v-.796h3.688a2 2 0 0 0-.203-.907 1.54 1.54 0 0 0-.57-.629 1.6 1.6 0 0 0-.868-.23q-.55 0-.953.273-.398.27-.613.704a2.1 2.1 0 0 0-.215.929v.532q0 .68.234 1.152.24.468.66.715.423.242.981.242.363 0 .656-.102a1.4 1.4 0 0 0 .512-.312 1.4 1.4 0 0 0 .332-.524l.89.25a2 2 0 0 1-.472.797 2.3 2.3 0 0 1-.82.531 3 3 0 0 1-1.098.188" class="fill-secondary"/><path d="M57.555 72.09V79h-.837v-6.032h-.04l-1.687 1.12v-.85l1.727-1.147zm3.06 6.91v-.607l2.281-2.497q.401-.438.662-.762.26-.327.384-.614.129-.29.128-.607 0-.364-.175-.631a1.14 1.14 0 0 0-.472-.412 1.5 1.5 0 0 0-.675-.145q-.398 0-.695.165-.293.162-.455.456a1.4 1.4 0 0 0-.159.688h-.796q0-.607.28-1.066.279-.459.762-.715.486-.257 1.09-.257.608 0 1.076.257.47.255.736.691t.266.969q0 .38-.138.745-.136.361-.472.806-.334.443-.928 1.08l-1.552 1.66v.054h3.212V79zm8.31.094q-.76 0-1.298-.414-.536-.42-.82-1.212-.283-.795-.283-1.922 0-1.12.283-1.913.287-.797.823-1.215.54-.422 1.296-.422.755 0 1.292.422.54.418.823 1.215.287.792.287 1.913 0 1.126-.284 1.922-.283.793-.82 1.212-.536.414-1.298.414m0-.742q.757 0 1.175-.728.418-.73.418-2.078 0-.898-.192-1.529-.189-.63-.547-.961-.354-.33-.853-.33-.75 0-1.17.738-.422.735-.422 2.082 0 .897.188 1.524.189.628.544.955.357.327.86.327M76.501 219.094q-.762 0-1.299-.414-.535-.419-.82-1.212-.282-.795-.283-1.923 0-1.12.284-1.912.285-.797.823-1.215.54-.422 1.295-.422.756 0 1.292.422.54.418.823 1.215.287.792.287 1.912 0 1.128-.283 1.923-.283.794-.82 1.212-.536.414-1.299.414m0-.742q.756 0 1.174-.728.42-.729.419-2.079 0-.897-.193-1.528-.189-.63-.546-.961a1.2 1.2 0 0 0-.854-.331q-.75 0-1.17.739-.422.735-.422 2.081 0 .898.189 1.525.189.628.543.955.357.327.86.327M137.835 219.094q-.696 0-1.228-.246a2 2 0 0 1-.827-.685 1.7 1.7 0 0 1-.293-.998 1.84 1.84 0 0 1 .651-1.434q.307-.254.685-.32v-.041a1.33 1.33 0 0 1-.79-.557 1.7 1.7 0 0 1-.29-.981 1.67 1.67 0 0 1 .267-.942q.27-.414.742-.654a2.4 2.4 0 0 1 1.083-.24q.6 0 1.073.24.471.24.742.654.273.416.276.942a1.7 1.7 0 0 1-.3.981 1.33 1.33 0 0 1-.779.557v.041q.373.066.675.32.3.249.479.624.179.371.182.81a1.74 1.74 0 0 1-.304.998 2 2 0 0 1-.826.685 2.85 2.85 0 0 1-1.218.246m0-.742q.468 0 .809-.152t.527-.428.189-.648a1.24 1.24 0 0 0-.203-.691 1.4 1.4 0 0 0-.543-.473 1.7 1.7 0 0 0-.779-.172q-.442 0-.79.172-.344.173-.543.473-.195.3-.192.691-.004.372.179.648.185.276.529.428t.817.152m0-3.279q.37 0 .658-.148.29-.149.455-.415.165-.267.169-.624a1.16 1.16 0 0 0-.166-.611 1.1 1.1 0 0 0-.448-.405 1.46 1.46 0 0 0-.668-.145q-.389 0-.678.145-.29.142-.449.405a1.13 1.13 0 0 0-.155.611q-.003.357.158.624.166.266.456.415t.668.148M200.023 212.091V219h-.836v-6.032h-.041l-1.686 1.12v-.85l1.727-1.147zm5.261 7.003a2.6 2.6 0 0 1-.85-.161 2.04 2.04 0 0 1-.776-.523q-.351-.372-.564-1.002-.212-.635-.212-1.593 0-.916.172-1.626.172-.711.499-1.197.327-.49.789-.743a2.2 2.2 0 0 1 1.05-.253q.58 0 1.032.233.456.23.742.641.287.413.371.948h-.823a1.52 1.52 0 0 0-.445-.772q-.331-.307-.877-.307-.803 0-1.265.698-.459.699-.463 1.96h.054a2.04 2.04 0 0 1 1.029-.806 2 2 0 0 1 .672-.112q.593 0 1.086.297a2.2 2.2 0 0 1 .789.813q.297.516.297 1.184 0 .642-.287 1.174a2.17 2.17 0 0 1-.806.844q-.516.31-1.214.303m0-.742q.424 0 .762-.212.34-.213.537-.57a1.6 1.6 0 0 0 .199-.797q0-.428-.193-.779a1.46 1.46 0 0 0-.523-.563 1.38 1.38 0 0 0-.755-.209q-.321 0-.597.128a1.5 1.5 0 0 0-.486.344 1.7 1.7 0 0 0-.324.503 1.6 1.6 0 0 0 .607 1.936q.34.219.773.219M264.267 219v-.607l2.28-2.497q.402-.438.661-.762.26-.327.385-.614a1.5 1.5 0 0 0 .128-.607 1.12 1.12 0 0 0-.647-1.043 1.5 1.5 0 0 0-.675-.145q-.399 0-.695.165-.294.162-.456.456a1.44 1.44 0 0 0-.158.688h-.796q0-.607.28-1.066t.762-.715a2.3 2.3 0 0 1 1.09-.257q.607 0 1.076.257.47.256.735.691.267.436.267.969 0 .38-.138.745-.135.362-.473.806-.334.442-.927 1.08l-1.552 1.66v.054h3.211V219zm5.786-1.417v-.688l3.036-4.804h.5v1.066h-.338l-2.294 3.63v.054h4.089v.742zm3.252 1.417v-6.909h.797V219z" class="fill-hint"/><path d="M12 253a3 3 0 013-3h258a3 3 0 013 3v24a3 3 0 01-3 3H15a3 3 0 01-3-3z" class="fill-tint"/><path d="M40.408 272.179q-1.119 0-2.014-.447a3.74 3.74 0 01-1.425-1.228 3.36 3.36 0 01-.575-1.777h1.438q.083.927.812 1.528.728.601 1.764.601.824 0 1.463-.384.645-.39 1.01-1.067.371-.684.371-1.541 0-.882-.383-1.572a2.8 2.8 0 00-1.049-1.08 2.9 2.9 0 00-1.508-.403 4 4 0 00-1.253.192q-.627.198-1.042.505l-1.413-.173.793-6.424h6.718v1.323h-5.471l-.474 3.989h.07a3.6 3.6 0 011.023-.543q.615-.218 1.279-.218 1.189 0 2.128.569a4.04 4.04 0 011.477 1.553q.543.985.543 2.257 0 1.253-.556 2.231a4.07 4.07 0 01-1.521 1.546q-.972.563-2.205.563m10.88 0q-1.117 0-2.013-.447a3.74 3.74 0 01-1.425-1.228 3.36 3.36 0 01-.576-1.777h1.438q.084.927.812 1.528t1.764.601q.825 0 1.464-.384.645-.39 1.01-1.067.37-.684.371-1.541 0-.882-.384-1.572a2.8 2.8 0 00-1.048-1.08 2.9 2.9 0 00-1.508-.403q-.62-.006-1.253.192-.627.198-1.042.505l-1.413-.173.793-6.424h6.718v1.323h-5.472l-.473 3.989h.07a3.6 3.6 0 011.023-.543 3.8 3.8 0 011.279-.218q1.189 0 2.128.569a4.04 4.04 0 011.477 1.553q.543.985.543 2.257 0 1.253-.556 2.231a4.1 4.1 0 01-1.521 1.546q-.972.563-2.206.563" class="fill-accent"/><path d="M66.12 262h-.877l2.537-6.909h.864L71.18 262h-.877l-2.064-5.816h-.054zm.324-2.699h3.535v.742h-3.535zm9.292-2.483L73.82 262h-.81l-1.916-5.182h.864l1.43 4.129h.054l1.43-4.129zm2.957 7.233q-.576 0-.992-.148a2.1 2.1 0 01-.691-.385 2.1 2.1 0 01-.435-.506l.634-.445q.108.141.273.324.165.185.452.32.29.138.76.138.627 0 1.035-.303.408-.304.408-.952v-1.052h-.067a5 5 0 01-.25.351q-.158.206-.459.367-.296.159-.803.159-.627 0-1.126-.297a2.1 2.1 0 01-.786-.863q-.287-.567-.287-1.377 0-.796.28-1.386.28-.594.78-.918a2.06 2.06 0 011.153-.327q.506 0 .803.168.3.167.459.378.161.21.25.344h.08v-.823h.77v5.33q0 .669-.304 1.087-.3.422-.81.617a3 3 0 01-1.127.199m-.027-2.847q.48 0 .81-.219a1.37 1.37 0 00.503-.631 2.6 2.6 0 00.172-.985q0-.56-.169-.989a1.5 1.5 0 00-.5-.671q-.33-.243-.816-.243-.505 0-.843.256-.334.257-.503.689-.165.431-.165.958 0 .54.169.954.171.412.506.648.338.233.836.233m4.305.85a.59.59 0 01-.428-.179.58.58 0 01-.18-.428q0-.25.18-.429a.59.59 0 01.428-.179q.25 0 .428.179.18.179.18.429a.623.623 0 01-.304.526.6.6 0 01-.304.081m4.816-6.963h.998l2.348 5.735h.081l2.348-5.735h.999V262h-.783v-5.249h-.067L91.55 262h-.755l-2.159-5.249h-.067V262h-.783zM96.13 262v-5.182h.797V262zm.405-6.045a.56.56 0 01-.401-.159.5.5 0 01-.165-.381q0-.224.165-.381a.56.56 0 01.401-.159q.234 0 .398.159a.5.5 0 01.17.381.5.5 0 01-.17.381.55.55 0 01-.398.159m2.646 2.928V262h-.796v-5.182h.77v.81h.067q.182-.395.553-.634.371-.243.958-.243.526 0 .921.216.395.212.614.647.219.432.219 1.093V262h-.796v-3.239q0-.61-.317-.951-.317-.344-.87-.344a1.4 1.4 0 00-.682.165 1.2 1.2 0 00-.469.483 1.6 1.6 0 00-.172.769m8.027.998v-3.063h.796V262h-.796v-.877h-.054a1.7 1.7 0 01-.567.671q-.384.273-.972.273-.485 0-.863-.212a1.5 1.5 0 01-.594-.648q-.216-.435-.216-1.096v-3.293h.796v3.239q0 .567.317.904.32.337.817.337.297 0 .604-.152a1.3 1.3 0 00.519-.465q.213-.314.213-.8m4.508-3.063v.675h-2.686v-.675zm-1.903-1.241h.796v4.939q0 .337.098.506.101.165.256.222.159.054.334.054a1.4 1.4 0 00.351-.04l.162.715a1.8 1.8 0 01-.594.094q-.337 0-.661-.145a1.3 1.3 0 01-.533-.442q-.209-.296-.209-.748zm5.217 6.531q-.749 0-1.292-.331a2.2 2.2 0 01-.833-.931q-.29-.6-.29-1.396 0-.797.29-1.404.293-.61.816-.951.526-.344 1.228-.344.405 0 .8.135.394.135.718.438.324.3.516.796.193.496.193 1.222v.337h-3.995v-.688h3.185q0-.44-.175-.783a1.33 1.33 0 00-1.242-.742q-.475 0-.823.236a1.56 1.56 0 00-.53.607q-.185.375-.185.803v.459q0 .587.202.995.206.405.57.618.365.209.847.209.314 0 .567-.088.256-.091.442-.27.185-.182.287-.452l.769.216q-.121.391-.408.688a2 2 0 01-.709.459 2.6 2.6 0 01-.948.162m7.027-4.129-.715.202a1.3 1.3 0 00-.199-.347.95.95 0 00-.351-.284 1.3 1.3 0 00-.57-.111q-.475 0-.793.219-.313.216-.313.55a.57.57 0 00.215.469q.216.172.675.287l.769.189q.696.168 1.036.516.34.344.341.887 0 .445-.257.796a1.7 1.7 0 01-.708.554 2.6 2.6 0 01-1.059.202q-.793 0-1.313-.344-.519-.345-.658-1.005l.756-.189q.108.418.408.627.304.21.793.209.557 0 .884-.236.33-.24.331-.573a.6.6 0 00-.189-.452q-.19-.186-.581-.277l-.863-.203q-.712-.168-1.046-.522a1.27 1.27 0 01-.331-.894q0-.439.247-.776.249-.338.678-.53.432-.192.978-.192.769 0 1.208.337.442.338.627.891M65.837 274v-6.909h2.334q.813 0 1.33.293.519.291.768.786.25.497.25 1.107t-.25 1.11a1.85 1.85 0 01-.762.796q-.516.294-1.322.294H66.51v-.743h1.647q.556 0 .894-.192t.489-.519q.155-.331.155-.746t-.155-.742a1.1 1.1 0 00-.493-.513q-.34-.189-.904-.189h-1.47V274zm8.039.108q-.75 0-1.292-.331a2.2 2.2 0 01-.834-.931q-.29-.6-.29-1.396 0-.797.29-1.404.294-.61.817-.951.525-.344 1.228-.344.404 0 .8.135.394.135.718.438.324.3.516.796t.193 1.222v.337h-3.995v-.688h3.185q0-.44-.176-.783a1.33 1.33 0 00-1.241-.742q-.476 0-.823.236-.345.233-.53.607-.185.375-.185.803v.459q0 .587.202.995.206.405.57.618.364.209.847.209.314 0 .567-.088a1.2 1.2 0 00.442-.27 1.2 1.2 0 00.286-.452l.77.216q-.122.391-.409.688a2 2 0 01-.708.459 2.6 2.6 0 01-.948.162m3.357-.108v-5.182h.769v.783h.054q.141-.385.513-.624.37-.24.836-.24a6 6 0 01.418.014v.809a3.4 3.4 0 00-.485-.054q-.378 0-.675.159-.293.155-.466.432-.168.273-.168.624V274zm7.57 0-1.89-6.909h.85l1.444 5.627h.067l1.471-5.627h.945l1.47 5.627h.068l1.444-5.627h.85L89.633 274h-.864l-1.525-5.506h-.053L85.666 274zm9.344.108q-.75 0-1.292-.331a2.2 2.2 0 01-.834-.931q-.29-.6-.29-1.396 0-.797.29-1.404.294-.61.817-.951.526-.344 1.228-.344.404 0 .8.135.394.135.718.438.324.3.516.796t.193 1.222v.337h-3.995v-.688h3.185q0-.44-.176-.783a1.33 1.33 0 00-1.241-.742q-.476 0-.823.236-.344.233-.53.607-.186.375-.185.803v.459q0 .587.202.995.205.405.57.618.364.209.847.209.313 0 .567-.088a1.2 1.2 0 00.442-.27 1.2 1.2 0 00.286-.452l.77.216q-.123.391-.409.688a2 2 0 01-.708.459 2.6 2.6 0 01-.948.162m5.53 0q-.75 0-1.293-.331a2.2 2.2 0 01-.833-.931q-.29-.6-.29-1.396 0-.797.29-1.404.293-.61.816-.951.526-.344 1.228-.344.405 0 .8.135.394.135.718.438.324.3.516.796.193.496.193 1.222v.337h-3.995v-.688h3.185q0-.44-.175-.783a1.33 1.33 0 00-1.242-.742q-.475 0-.823.236-.345.233-.53.607-.185.375-.185.803v.459q0 .587.202.995.207.405.57.618.365.209.847.209.314 0 .567-.088.256-.091.442-.27.185-.182.287-.452l.769.216q-.121.391-.408.688a2 2 0 01-.709.459 2.6 2.6 0 01-.948.162m4.098-1.997-.013-.985h.162l2.267-2.308h.985l-2.416 2.443h-.067zm-.742 1.889v-6.909h.796V274zm3.293 0-2.025-2.564.567-.553 2.47 3.117z" class="fill-secondary"/><path d="M161.342 258.909V272h-1.489v-11.531h-.077l-3.164 2.103v-1.522l3.228-2.141zm8.037 13.27q-1.426 0-2.436-.793-1.003-.792-1.54-2.294-.531-1.509-.531-3.637 0-2.122.537-3.625.537-1.507 1.541-2.301 1.01-.8 2.429-.799 1.419 0 2.422.799 1.01.793 1.547 2.301.537 1.503.537 3.625 0 2.128-.537 3.637-.53 1.502-1.54 2.294-1.004.793-2.429.793m0-1.323q1.45 0 2.256-1.406.812-1.407.812-3.995 0-1.72-.371-2.934-.364-1.215-1.055-1.854a2.32 2.32 0 00-1.642-.639q-1.438 0-2.257 1.425-.811 1.419-.811 4.002 0 1.72.364 2.927t1.048 1.841q.69.633 1.656.633m13.639-1.304v-.665q0-.721.294-1.317.3-.594.863-.952t1.368-.358q.812 0 1.368.358t.843.952q.288.596.288 1.317v.665q0 .721-.294 1.317a2.3 2.3 0 01-.85.952q-.557.358-1.355.358-.813 0-1.375-.358a2.34 2.34 0 01-.856-.952 2.9 2.9 0 01-.294-1.317m1.227-.665v.665q0 .626.3 1.106.301.479.998.479.677 0 .971-.479.294-.48.294-1.106v-.665q0-.627-.287-1.106-.288-.479-.978-.479-.678 0-.991.479-.307.48-.307 1.106m-7.766-6.865v-.665q0-.721.294-1.317.3-.594.863-.952t1.368-.358q.812 0 1.367.358.556.358.844.952.288.596.288 1.317v.665q0 .722-.294 1.317a2.3 2.3 0 01-.85.952q-.557.358-1.355.358-.813 0-1.375-.358a2.33 2.33 0 01-.856-.952 2.9 2.9 0 01-.294-1.317m1.227-.665v.665q0 .627.3 1.106.301.479.998.479.677 0 .971-.479.294-.48.294-1.106v-.665q0-.626-.287-1.106-.288-.479-.978-.479-.678 0-.991.479-.307.48-.307 1.106M176.99 272l9-13.091h1.374l-9 13.091z" class="fill-accent"/><path d="M199.62 262h-.877l2.537-6.909h.863L204.68 262h-.877l-2.064-5.816h-.054zm.324-2.699h3.535v.742h-3.535zm9.292-2.483L207.32 262h-.809l-1.917-5.182h.864l1.43 4.129h.054l1.431-4.129zm2.957 7.233q-.576 0-.991-.148a2.1 2.1 0 01-1.127-.891l.634-.445q.108.141.273.324.165.185.452.32.291.138.759.138.628 0 1.036-.303.408-.304.408-.952v-1.052h-.067a5 5 0 01-.25.351 1.4 1.4 0 01-.459.367q-.297.159-.803.159a2.16 2.16 0 01-1.126-.297 2.1 2.1 0 01-.786-.863q-.287-.567-.287-1.377 0-.796.28-1.386.28-.594.779-.918a2.06 2.06 0 011.154-.327q.506 0 .803.168.3.167.459.378.162.21.249.344h.081v-.823h.769v5.33q0 .669-.303 1.087-.3.422-.81.617a3 3 0 01-1.127.199m-.027-2.847q.48 0 .81-.219.33-.22.503-.631.171-.412.172-.985 0-.56-.169-.989a1.5 1.5 0 00-.499-.671q-.331-.243-.817-.243-.505 0-.843.256-.334.257-.503.689a2.7 2.7 0 00-.165.958q0 .54.169.954.171.412.506.648.338.233.836.233m4.305.85a.59.59 0 01-.428-.179.58.58 0 01-.179-.428q0-.25.179-.429a.59.59 0 01.428-.179q.249 0 .429.179a.58.58 0 01.178.429q0 .165-.084.303a.6.6 0 01-.219.223.6.6 0 01-.304.081m10.376-4.804h-.837a1.74 1.74 0 00-.705-1.093 1.9 1.9 0 00-.577-.283 2.3 2.3 0 00-.661-.095q-.629 0-1.137.317-.506.317-.807.935-.296.617-.296 1.514 0 .898.296 1.515.3.618.807.935t1.137.317q.343 0 .661-.095.317-.094.577-.28a1.78 1.78 0 00.705-1.096h.837a2.8 2.8 0 01-.345.948 2.6 2.6 0 01-.62.712q-.371.29-.834.442a3.1 3.1 0 01-.981.151q-.885 0-1.572-.431a2.97 2.97 0 01-1.083-1.228q-.395-.796-.395-1.89 0-1.092.395-1.889a2.96 2.96 0 011.083-1.228 2.9 2.9 0 011.572-.432q.523 0 .981.152.463.152.834.446.37.29.62.708.25.416.345.948m2.04 1.633V262h-.796v-6.909h.796v2.537h.067a1.47 1.47 0 01.547-.638q.368-.239.978-.239.53 0 .928.212.398.21.617.645.223.431.223 1.099V262h-.796v-3.239q0-.617-.321-.954-.317-.341-.88-.341-.392 0-.702.165-.308.165-.486.483a1.56 1.56 0 00-.175.769m6.341 3.238q-.492 0-.894-.185a1.54 1.54 0 01-.637-.543 1.53 1.53 0 01-.237-.864q0-.445.176-.722.175-.28.469-.438.293-.159.647-.237.358-.08.719-.128.472-.06.766-.091.297-.033.432-.111.138-.078.138-.27v-.027q0-.5-.273-.776-.27-.276-.82-.277-.57 0-.894.25a1.46 1.46 0 00-.455.533l-.756-.27q.202-.473.54-.735.34-.267.742-.371.405-.108.796-.108.25 0 .573.06.328.059.631.24.308.182.51.55.202.367.202.985V262h-.796v-.702h-.04a1.4 1.4 0 01-.27.361 1.6 1.6 0 01-.503.328 2 2 0 01-.766.134m.122-.715q.471 0 .796-.185a1.27 1.27 0 00.661-1.097v-.728q-.05.06-.223.111-.168.047-.391.084a16 16 0 01-.762.101 3 3 0 00-.581.132 1 1 0 00-.431.267q-.162.175-.162.479 0 .414.307.627.309.21.786.209m4.502-2.523V262h-.796v-5.182h.77v.81h.067q.182-.395.553-.634.372-.243.958-.243.526 0 .921.216.395.212.614.647.22.432.22 1.093V262h-.797v-3.239q0-.61-.317-.951-.316-.344-.87-.344-.38 0-.682.165-.296.165-.468.483a1.6 1.6 0 00-.173.769m6.853 5.168q-.577 0-.992-.148a2.1 2.1 0 01-1.127-.891l.635-.445q.108.141.273.324.165.185.452.32.29.138.759.138.627 0 1.036-.303.408-.304.408-.952v-1.052h-.068a4 4 0 01-.249.351 1.4 1.4 0 01-.459.367q-.297.159-.803.159-.627 0-1.127-.297a2.1 2.1 0 01-.786-.863q-.286-.567-.286-1.377 0-.796.28-1.386.28-.594.779-.918a2.06 2.06 0 011.154-.327q.506 0 .803.168.3.167.458.378.162.21.25.344h.081v-.823h.769v5.33q0 .669-.303 1.087a1.73 1.73 0 01-.81.617 3 3 0 01-1.127.199m-.027-2.847q.478 0 .81-.219.33-.22.502-.631t.172-.985q0-.56-.168-.989a1.5 1.5 0 00-.5-.671q-.33-.243-.816-.243-.505 0-.843.256a1.56 1.56 0 00-.503.689 2.7 2.7 0 00-.165.958q0 .54.168.954.173.412.506.648.337.233.837.233m5.897.904q-.749 0-1.292-.331a2.2 2.2 0 01-.833-.931q-.29-.6-.29-1.396 0-.797.29-1.404.293-.61.816-.951.526-.344 1.228-.344.405 0 .8.135.394.135.718.438.324.3.516.796.193.496.193 1.222v.337h-3.995v-.688h3.185q0-.44-.175-.783a1.33 1.33 0 00-1.242-.742q-.475 0-.823.236a1.56 1.56 0 00-.53.607q-.185.375-.185.803v.459q0 .587.202.995.206.405.57.618.364.209.847.209.314 0 .567-.088.256-.091.442-.27.185-.182.287-.452l.769.216q-.121.391-.408.688a2 2 0 01-.709.459 2.6 2.6 0 01-.948.162M200.592 274l-1.89-6.909h.851l1.443 5.627h.068l1.471-5.627h.944l1.471 5.627h.068l1.444-5.627h.85L205.423 274h-.864l-1.525-5.506h-.054L201.455 274zm9.344.108q-.749 0-1.292-.331a2.2 2.2 0 01-.833-.931q-.29-.6-.29-1.396 0-.797.29-1.404.294-.61.816-.951.527-.344 1.228-.344.405 0 .8.135t.719.438q.323.3.516.796.192.496.192 1.222v.337h-3.994v-.688h3.184q0-.44-.175-.783a1.33 1.33 0 00-1.242-.742q-.475 0-.823.236a1.55 1.55 0 00-.529.607q-.186.375-.186.803v.459q0 .587.203.995.206.405.57.618.364.209.846.209.315 0 .567-.088.256-.091.442-.27.185-.182.287-.452l.769.216q-.121.391-.408.688a2 2 0 01-.709.459 2.6 2.6 0 01-.948.162m5.53 0q-.75 0-1.292-.331a2.2 2.2 0 01-.834-.931q-.29-.6-.29-1.396 0-.797.29-1.404.294-.61.817-.951.526-.344 1.228-.344.405 0 .799.135.395.135.719.438.324.3.516.796t.192 1.222v.337h-3.994v-.688h3.185q0-.44-.176-.783a1.32 1.32 0 00-1.241-.742 1.43 1.43 0 00-.823.236q-.344.233-.53.607-.186.375-.186.803v.459q0 .587.203.995.206.405.57.618.364.209.847.209.314 0 .566-.088.257-.091.442-.27.186-.182.287-.452l.769.216q-.121.391-.408.688a2 2 0 01-.708.459 2.6 2.6 0 01-.948.162m4.099-1.997-.014-.985h.162l2.267-2.308h.985l-2.415 2.443h-.068zm-.743 1.889v-6.909h.797V274zm3.293 0-2.024-2.564.567-.553 2.469 3.117zm6.8-5.182v.675h-2.685v-.675zm-1.902-1.241h.796v4.939q0 .337.098.506.101.165.256.222.159.054.334.054a1.4 1.4 0 00.351-.04l.162.715a1.8 1.8 0 01-.594.094q-.337 0-.661-.145a1.3 1.3 0 01-.533-.442q-.21-.296-.209-.748zm5.149 6.531q-.701 0-1.231-.334a2.27 2.27 0 01-.823-.935q-.294-.6-.294-1.403 0-.81.294-1.413.297-.605.823-.938a2.26 2.26 0 011.231-.334q.702 0 1.228.334.53.333.824.938.296.603.296 1.413 0 .803-.296 1.403-.293.601-.824.935-.525.334-1.228.334m0-.715q.534 0 .878-.274.344-.273.509-.718.165-.446.165-.965 0-.52-.165-.968a1.63 1.63 0 00-.509-.725q-.344-.277-.878-.277-.532 0-.877.277a1.63 1.63 0 00-.509.725q-.165.449-.165.968 0 .52.165.965t.509.718q.345.274.877.274m7.599.607-1.89-6.909h.851l1.443 5.627h.068l1.471-5.627h.944l1.471 5.627h.068l1.444-5.627h.85L244.592 274h-.864l-1.525-5.506h-.054L240.624 274zm9.344.108q-.749 0-1.292-.331a2.2 2.2 0 01-.833-.931q-.29-.6-.29-1.396 0-.797.29-1.404.294-.61.816-.951.527-.344 1.228-.344.405 0 .8.135t.719.438q.322.3.516.796.192.496.192 1.222v.337h-3.994v-.688h3.184q0-.44-.175-.783a1.33 1.33 0 00-1.242-.742q-.475 0-.823.236a1.55 1.55 0 00-.529.607q-.186.375-.186.803v.459q0 .587.202.995.207.405.571.618.364.209.846.209.314 0 .567-.088.256-.091.442-.27.185-.182.287-.452l.769.216q-.121.391-.408.688a2 2 0 01-.709.459 2.6 2.6 0 01-.948.162m5.53 0q-.75 0-1.292-.331a2.2 2.2 0 01-.834-.931q-.29-.6-.29-1.396 0-.797.29-1.404.294-.61.817-.951.526-.344 1.228-.344.405 0 .799.135.395.135.719.438.324.3.516.796t.192 1.222v.337h-3.994v-.688h3.185q0-.44-.176-.783a1.33 1.33 0 00-.492-.543 1.4 1.4 0 00-.749-.199 1.43 1.43 0 00-.823.236q-.345.233-.53.607-.186.375-.186.803v.459q0 .587.203.995.206.405.57.618.364.209.847.209.314 0 .566-.088.257-.091.442-.27.186-.182.287-.452l.769.216q-.121.391-.408.688a2 2 0 01-.708.459 2.6 2.6 0 01-.948.162m4.099-1.997-.014-.985h.162l2.267-2.308h.985l-2.415 2.443h-.068zm-.743 1.889v-6.909h.797V274zm3.293 0-2.024-2.564.567-.553 2.469 3.117z" class="fill-secondary"/><defs><clipPath id="widget-__b"><path d="M87.25 78.355H98.5v44.375H87.25z" class="fill-main-contrast"/></clipPath><clipPath id="widget-__c"><path d="M87.25 87.23h11v22.188h-11z" class="fill-main-contrast"/></clipPath><clipPath id="widget-__d"><path d="M99.75 87.23h10v38.457h-10z" class="fill-main-contrast"/></clipPath><clipPath id="widget-__e"><path d="M99.75 96.105h10v22.188h-10z" class="fill-main-contrast"/></clipPath><clipPath id="widget-__f"><path d="M123.5 102.021h10v44.375h-10z" class="fill-main-contrast"/></clipPath><clipPath id="widget-__g"><path d="M123.5 110.896h10v22.188h-10z" class="fill-main-contrast"/></clipPath><clipPath id="widget-__h"><path d="M134.75 94.625H146v71h-11.25z" class="fill-main-contrast"/></clipPath><clipPath id="widget-__i"><path d="M134.75 109.417h11V139h-11z" class="fill-main-contrast"/></clipPath><clipPath id="widget-__j"><path d="M147.25 102.021h10v62.125h-10z" class="fill-main-contrast"/></clipPath><clipPath id="widget-__k"><path d="M147.25 107.938h10v35.5h-10z" class="fill-main-contrast"/></clipPath><clipPath id="widget-__l"><path d="M158.5 99.063h11.25v65.082H158.5z" class="fill-main-contrast"/></clipPath><clipPath id="widget-__m"><path d="M158.5 133.083h11v22.188h-11z" class="fill-main-contrast"/></clipPath><clipPath id="widget-__n"><path d="M182.25 124.208h11.25v59.167h-11.25z" class="fill-main-contrast"/></clipPath><clipPath id="widget-__o"><path d="M182.25 139h11v32.542h-11z" class="fill-main-contrast"/></clipPath><clipPath id="widget-__p"><path d="M194.75 103.5h10v72.479h-10z" class="fill-main-contrast"/></clipPath><clipPath id="widget-__q"><path d="M194.75 141.958h10v23.667h-10z" class="fill-main-contrast"/></clipPath><clipPath id="widget-__r"><path d="M218.5 137.521h10v51.771h-10z" class="fill-main-contrast"/></clipPath><clipPath id="widget-__s"><path d="M218.5 158.229h10v26.625h-10z" class="fill-main-contrast"/></clipPath><clipPath id="widget-__t"><path d="M229.75 130.125H241v65.083h-11.25z" class="fill-main-contrast"/></clipPath><clipPath id="widget-__u"><path d="M229.75 146.396h11v36.979h-11z" class="fill-main-contrast"/></clipPath><clipPath id="widget-__v"><path d="M242.25 144.917h10v60.646h-10z" class="fill-main-contrast"/></clipPath><clipPath id="widget-__w"><path d="M242.25 175.979h10v19.229h-10z" class="fill-main-contrast"/></clipPath><clipPath id="widget-__x"><path d="M253.5 168.583h11.25v34.021H253.5z" class="fill-main-contrast"/></clipPath><clipPath id="widget-__y"><path d="M253.5 180.416h11v16.271h-11z" class="fill-main-contrast"/></clipPath></defs></svg>