<svg xmlns="http://www.w3.org/2000/svg" width="288" height="320" fill="none" viewBox="0 0 288 320" class="widget-__portfolio-widget"><path fill="#FCFDFC" d="M.5 6A5.5 5.5 0 016 .5h276a5.5 5.5 0 015.5 5.5v308a5.5 5.5 0 01-5.5 5.5H6A5.5 5.5 0 01.5 314z"/><path stroke="#D7DAD7" d="M.5 6A5.5 5.5 0 016 .5h276a5.5 5.5 0 015.5 5.5v308a5.5 5.5 0 01-5.5 5.5H6A5.5 5.5 0 01.5 314z"/><path fill="#1D211C" d="M24.956 21.675h-1.579a2.3 2.3 0 00-.295-.78 2 2 0 00-.522-.577q-.309-.24-.702-.36a2.8 2.8 0 00-.83-.12 2.6 2.6 0 00-1.418.397q-.618.397-.974 1.163-.355.766-.355 1.875 0 1.122.355 1.888.36.765.979 1.159.618.387 1.408.387.433 0 .822-.115a2.4 2.4 0 00.701-.346 2.1 2.1 0 00.526-.568 2.2 2.2 0 00.305-.771l1.579.005a3.7 3.7 0 01-1.274 2.299 3.7 3.7 0 01-1.191.678q-.675.24-1.487.24-1.237 0-2.206-.581-.97-.582-1.528-1.667-.555-1.09-.554-2.608 0-1.519.558-2.609.563-1.089 1.533-1.666.97-.582 2.197-.582.771 0 1.436.222.669.216 1.191.637.526.42.868 1.025.346.604.457 1.375m3.6 6.473a2.9 2.9 0 01-1.215-.245 2 2 0 01-.858-.72q-.315-.48-.314-1.177 0-.605.226-.993.23-.393.619-.623a3.1 3.1 0 01.868-.346q.484-.12.997-.176.627-.073 1.02-.124t.572-.162.18-.355v-.033q0-.558-.327-.868-.324-.309-.947-.309-.655 0-1.034.286-.378.287-.521.656l-1.427-.259q.208-.645.642-1.061.434-.42 1.03-.62.6-.201 1.292-.202.471 0 .96.11.495.11.914.38.42.267.679.747.263.48.263 1.219V28h-1.477v-.97h-.056q-.138.278-.41.536-.273.258-.688.42a2.7 2.7 0 01-.988.162m.364-1.164q.54 0 .928-.212a1.57 1.57 0 00.596-.563q.212-.35.212-.757v-.877a.8.8 0 01-.277.129q-.198.055-.448.101-.249.042-.489.074l-.41.056a3.4 3.4 0 00-.698.17q-.314.116-.498.333-.185.212-.185.558 0 .49.36.74.36.248.91.248m10.482-4.27-1.39.194a1.3 1.3 0 00-.235-.443 1.2 1.2 0 00-.438-.346 1.6 1.6 0 00-.688-.134q-.555 0-.928.244-.37.245-.37.633 0 .333.25.535.249.204.808.337l1.172.259q.993.221 1.477.692.486.471.49 1.228-.005.656-.383 1.16-.374.497-1.044.784-.664.286-1.537.286-1.251 0-2.022-.526-.77-.531-.937-1.491l1.482-.185q.12.503.494.762.374.254.974.254.637 0 1.02-.264.383-.267.388-.65a.69.69 0 00-.245-.531q-.235-.213-.739-.323l-1.2-.264q-1.01-.216-1.49-.715-.482-.504-.476-1.265-.005-.642.35-1.117.356-.48.988-.744.637-.267 1.464-.267 1.196 0 1.883.517.693.512.882 1.38m4.687 5.43q-1.058 0-1.824-.449a3 3 0 01-1.177-1.27q-.41-.821-.41-1.924 0-1.094.41-1.925a3.13 3.13 0 011.159-1.293q.743-.465 1.745-.466.633 0 1.205.203t1.02.637q.448.43.706 1.108.264.678.264 1.625v.498h-5.73v-1.08h4.248q0-.507-.213-.905a1.6 1.6 0 00-.595-.632 1.67 1.67 0 00-.886-.23q-.55 0-.96.262-.407.263-.633.693a2.05 2.05 0 00-.226.932v.891q0 .665.24 1.136t.669.72q.429.245 1.002.245.383 0 .692-.106.309-.111.531-.324.226-.216.346-.535l1.436.208q-.153.595-.563 1.043-.406.443-1.034.692-.624.246-1.422.245m7.558-8.269v-1.33h7.428v1.33h-2.931V28h-1.56v-8.125zM60.512 28v-7.09h1.528V28zm.771-8.139a.92.92 0 01-.65-.254.82.82 0 01-.269-.614q0-.355.268-.61a.92.92 0 01.651-.253q.379 0 .646.254.273.254.273.61 0 .36-.273.613a.9.9 0 01-.646.254M63.826 28v-7.09h1.463v1.18h.088q.22-.6.725-.936.507-.337 1.214-.337.715 0 1.204.341.495.338.711.933h.074a1.98 1.98 0 01.799-.928q.558-.346 1.33-.346.97 0 1.583.614.614.609.614 1.814V28h-1.528v-4.561q0-.693-.37-1.006a1.34 1.34 0 00-.895-.314q-.642 0-1.002.397-.355.392-.355 1.01V28h-1.505v-4.64q0-.562-.347-.9-.346-.34-.895-.341-.378 0-.692.194-.315.194-.504.54-.184.345-.184.803V28zm14.68.143q-1.058 0-1.824-.448a3 3 0 01-1.177-1.27q-.41-.821-.41-1.924 0-1.094.41-1.925a3.13 3.13 0 011.159-1.293q.743-.465 1.745-.466.632 0 1.205.203t1.02.637q.448.43.707 1.108.263.678.263 1.625v.498h-5.73v-1.08h4.248q0-.507-.213-.905a1.6 1.6 0 00-.595-.632 1.67 1.67 0 00-.886-.23q-.55 0-.96.262-.407.263-.633.693a2.05 2.05 0 00-.226.932v.891q0 .665.24 1.136t.669.72q.429.245 1.002.245.383 0 .692-.106.309-.111.531-.324.226-.216.346-.535l1.436.208q-.153.595-.563 1.043-.406.443-1.034.692-.624.246-1.422.245m6.094-9.597V28h-1.528v-9.454zM86.385 28v-7.09h1.528V28zm.771-8.139a.92.92 0 01-.65-.254.82.82 0 01-.269-.614q0-.355.268-.61a.92.92 0 01.651-.253q.379 0 .646.254.273.254.273.61 0 .36-.273.613a.9.9 0 01-.646.254m4.07 3.956V28H89.7v-7.09h1.463v1.18h.088a2 2 0 01.775-.927q.531-.346 1.325-.346.73 0 1.274.31.545.308.845.904.305.595.305 1.459V28h-1.528v-4.298q0-.743-.383-1.159-.384-.42-1.058-.42-.461 0-.817.199a1.4 1.4 0 00-.558.577q-.204.378-.203.918m9.421 4.326q-1.057 0-1.824-.448a3 3 0 01-1.177-1.27q-.411-.821-.411-1.924 0-1.094.41-1.925a3.13 3.13 0 011.16-1.293q.743-.465 1.745-.466.632 0 1.205.203.572.203 1.02.637.448.43.706 1.108.263.678.263 1.625v.498h-5.729v-1.08h4.247q0-.507-.212-.905a1.6 1.6 0 00-.596-.632 1.67 1.67 0 00-.886-.23q-.549 0-.96.262-.406.263-.633.693a2.05 2.05 0 00-.226.932v.891q0 .665.24 1.136t.67.72q.43.245 1.001.245.384 0 .693-.106a1.5 1.5 0 00.531-.324q.226-.216.346-.535l1.436.208q-.153.595-.563 1.043a2.76 2.76 0 01-1.035.692 3.9 3.9 0 01-1.421.245"/><path fill="#686E67" d="M17.297 47H16.28l2.938-8h1l2.937 8h-1.015l-2.391-6.734h-.062zm.375-3.125h4.094v.86h-4.094zM25.199 39v8h-.922v-8zm2.61 0v8h-.921v-8zm4.908 8v-8h4.828v.86h-3.86v2.703h3.61v.859h-3.61v2.719h3.922V47zm11.355-6-2.219 6h-.937l-2.219-6h1l1.656 4.781h.063L43.072 41zm3.518 6.125q-.867 0-1.496-.383a2.57 2.57 0 01-.965-1.078q-.336-.696-.336-1.617 0-.922.336-1.625a2.65 2.65 0 01.945-1.102q.61-.398 1.422-.398.469 0 .926.156.457.157.832.508.376.348.598.922t.222 1.414v.39H45.45v-.796h3.688q0-.508-.203-.907a1.53 1.53 0 00-.57-.629 1.6 1.6 0 00-.868-.23q-.55 0-.953.273-.399.27-.613.704a2.1 2.1 0 00-.215.93v.53q0 .68.234 1.153.24.468.66.715.422.242.98.242.365 0 .657-.102.297-.105.512-.312a1.4 1.4 0 00.332-.524l.89.25a2 2 0 01-.472.797 2.3 2.3 0 01-.82.532 3 3 0 01-1.098.187m4.808-3.734V47h-.921v-6h.89v.938h.078q.211-.457.64-.735.43-.28 1.11-.281.61 0 1.067.25.456.246.71.75.255.5.255 1.266V47h-.922v-3.75q0-.707-.367-1.102-.367-.398-1.008-.398-.442 0-.79.191a1.37 1.37 0 00-.542.559q-.2.368-.2.89M60.52 41v.781h-3.109V41zm-2.203-1.437h.922v5.718q0 .39.114.586a.6.6 0 00.296.258q.184.063.387.063.153 0 .25-.016l.156-.031.188.828q-.094.035-.262.07a2 2 0 01-.426.04q-.39 0-.765-.169a1.5 1.5 0 01-.617-.512q-.243-.343-.243-.867zm7.733 2.78-.828.235a1.5 1.5 0 00-.23-.402 1.1 1.1 0 00-.407-.328q-.258-.13-.66-.13-.55 0-.918.255-.363.25-.363.636 0 .344.25.543t.78.332l.891.22q.806.195 1.2.597.394.398.394 1.027 0 .516-.297.922-.292.406-.82.64-.527.235-1.227.235-.917 0-1.52-.398-.6-.399-.76-1.164l.874-.22q.126.486.473.727.351.242.918.242.644 0 1.023-.273.383-.277.383-.664a.7.7 0 00-.219-.523q-.218-.215-.672-.32l-1-.235q-.824-.195-1.21-.606-.383-.413-.383-1.035 0-.507.285-.898.289-.39.785-.614.499-.222 1.133-.222.891 0 1.398.39.512.39.727 1.032"/><g clip-path="url(#widget-__a)"><path fill="#717A6D" fill-rule="evenodd" d="M235.542 15.693a.91.91 0 00-.884.707l-.254 1.12a5.7 5.7 0 00-1.151.477l-.972-.612a.91.91 0 00-1.125.126l-.646.646c-.3.3-.352.766-.126 1.125l.613.972c-.199.361-.36.747-.477 1.15l-1.12.255a.91.91 0 00-.707.884v.914c0 .424.294.79.707.885l1.12.254q.177.608.477 1.151l-.613.972a.91.91 0 00.126 1.124l.647.647c.299.3.766.352 1.124.126l.972-.613q.544.3 1.151.477l.254 1.12a.91.91 0 00.884.707h.915c.423 0 .79-.294.884-.707l.254-1.12q.608-.177 1.151-.477l.972.613a.91.91 0 001.125-.126l.646-.646c.3-.3.352-.767.126-1.125l-.612-.972q.3-.543.478-1.151l1.119-.254a.91.91 0 00.707-.885v-.914a.91.91 0 00-.707-.884l-1.119-.254a5.7 5.7 0 00-.478-1.152l.613-.972a.91.91 0 00-.126-1.124l-.647-.647a.906.906 0 00-1.124-.126l-.972.613a5.7 5.7 0 00-1.152-.478l-.254-1.12a.91.91 0 00-.884-.706zm-2.293 3.373a4.8 4.8 0 011.914-.793l.379-1.673h.915l.379 1.672a4.8 4.8 0 011.915.794l1.451-.915.647.647-.915 1.451c.394.562.67 1.212.794 1.915l1.672.38v.913l-1.673.38a4.8 4.8 0 01-.793 1.915l.914 1.45-.646.647-1.451-.915a4.8 4.8 0 01-1.915.794l-.379 1.672h-.915l-.379-1.673a4.8 4.8 0 01-1.914-.793l-1.451.915-.647-.647.915-1.45a4.8 4.8 0 01-.793-1.915l-1.673-.38v-.914l1.673-.38a4.8 4.8 0 01.793-1.913l-.915-1.452.646-.646zM237.627 23a1.627 1.627 0 11-3.254-.001 1.627 1.627 0 013.254 0m.96 0a2.587 2.587 0 11-5.173 0 2.587 2.587 0 015.173 0" clip-rule="evenodd"/></g><path fill="#717A6D" fill-rule="evenodd" d="M259.867 23a1.2 1.2 0 11-2.4 0 1.2 1.2 0 012.4 0m5.333 0a1.2 1.2 0 11-2.4 0 1.2 1.2 0 012.4 0m4.133 1.2a1.2 1.2 0 100-2.4 1.2 1.2 0 000 2.4" clip-rule="evenodd"/><path fill="#FCFDFC" d="M16.5 61.5a1 1 0 011-1h253a1 1 0 011 1v29a1 1 0 01-1 1h-253a1 1 0 01-1-1z"/><path stroke="#CCCFCC" d="M16.5 61.5a1 1 0 011-1h253a1 1 0 011 1v29a1 1 0 01-1 1h-253a1 1 0 01-1-1z"/><path fill="#717A6D" fill-rule="evenodd" d="M28.8 69.066c.295 0 .534.24.534.534v.533h5.333V69.6a.533.533 0 011.067 0v.533h1.6a1.6 1.6 0 011.6 1.6v9.6a1.6 1.6 0 01-1.6 1.6H26.667a1.6 1.6 0 01-1.6-1.6v-9.6a1.6 1.6 0 011.6-1.6h1.6V69.6c0-.295.239-.534.533-.534m5.867 2.134v.533a.533.533 0 001.067 0V71.2h1.6c.294 0 .533.239.533.533v1.6H26.134v-1.6c0-.294.238-.533.533-.533h1.6v.533a.533.533 0 001.067 0V71.2zm-8.533 3.2v6.933c0 .295.238.533.533.533h10.667a.533.533 0 00.533-.533V74.4zm5.333 1.6a.533.533 0 111.067 0 .533.533 0 01-1.067 0m2.667-.534a.533.533 0 100 1.067.533.533 0 000-1.067m1.6.534a.533.533 0 111.066 0 .533.533 0 01-1.066 0m.533 1.6a.533.533 0 100 1.066.533.533 0 000-1.066m-2.667.533a.533.533 0 111.067 0 .533.533 0 01-1.067 0M32 77.6a.533.533 0 100 1.066.533.533 0 000-1.066m-2.666.533a.533.533 0 111.066 0 .533.533 0 01-1.066 0m-1.6-.533a.533.533 0 100 1.066.533.533 0 000-1.066m-.534 2.666a.533.533 0 111.067 0 .533.533 0 01-1.067 0m2.667-.533a.533.533 0 100 1.067.533.533 0 000-1.067m1.6.533a.533.533 0 111.067 0 .533.533 0 01-1.067 0m2.667-.533a.533.533 0 100 1.067.533.533 0 000-1.067" clip-rule="evenodd"/><path fill="#B0B3AF" d="M48.969 80v-8h4.797v.86h-3.828v2.703h3.468v.859h-3.468V80zm6.33 0v-6h.923v6zm.47-7a.66.66 0 01-.465-.184.6.6 0 01-.192-.441.6.6 0 01.192-.441.66.66 0 01.465-.184q.27 0 .46.184.196.184.196.441a.58.58 0 01-.195.441.64.64 0 01-.461.184m3.063-1v8h-.922v-8zm4.298 2v.781h-3.11V74zm-2.203-1.437h.922v5.718q0 .39.113.586a.6.6 0 00.297.258q.183.063.386.063.153 0 .25-.016l.157-.031.187.828q-.094.035-.261.07a2 2 0 01-.426.04q-.39 0-.766-.169a1.5 1.5 0 01-.617-.512q-.242-.343-.242-.867zm6.04 7.562q-.866 0-1.495-.383a2.57 2.57 0 01-.965-1.078q-.336-.694-.336-1.617 0-.922.336-1.625a2.65 2.65 0 01.945-1.102q.609-.398 1.422-.398.469 0 .926.156.457.157.832.508.376.348.597.922.223.574.223 1.414v.39h-4.625v-.796h3.688q0-.508-.204-.907a1.53 1.53 0 00-.57-.628 1.6 1.6 0 00-.867-.231q-.55 0-.953.273-.399.27-.613.704a2.1 2.1 0 00-.215.93v.53q0 .68.234 1.153.24.468.66.715.422.242.98.242.364 0 .657-.102.297-.105.512-.312a1.4 1.4 0 00.332-.524l.89.25a2 2 0 01-.472.797 2.3 2.3 0 01-.82.531 3 3 0 01-1.098.188M70.856 80v-6h.89v.906h.063q.164-.446.593-.722.43-.278.97-.278.1 0 .253.004.153.005.23.012v.937a3 3 0 00-.214-.035 2 2 0 00-.348-.027q-.438 0-.781.184-.34.18-.54.5-.195.315-.195.722V80zm9.702.125q-.868 0-1.496-.383a2.57 2.57 0 01-.965-1.078q-.336-.694-.336-1.617 0-.922.336-1.625a2.65 2.65 0 01.945-1.102q.609-.398 1.422-.398.468 0 .926.156.457.157.832.508.375.348.597.922.223.574.223 1.414v.39h-4.625v-.796h3.688q0-.508-.204-.907a1.53 1.53 0 00-.57-.628 1.6 1.6 0 00-.867-.231q-.55 0-.953.273-.399.27-.614.704a2.1 2.1 0 00-.214.93v.53q0 .68.234 1.153.239.468.66.715.422.242.98.242.365 0 .657-.102.296-.105.512-.312a1.4 1.4 0 00.332-.524l.89.25a2 2 0 01-.472.797 2.3 2.3 0 01-.82.531 3 3 0 01-1.098.188M89.167 74l-2.219 6h-.937l-2.219-6h1l1.656 4.781h.063L88.167 74zm3.518 6.125q-.868 0-1.496-.383a2.57 2.57 0 01-.965-1.078q-.336-.694-.336-1.617 0-.922.336-1.625a2.65 2.65 0 01.945-1.102q.609-.398 1.422-.398.468 0 .926.156.457.157.832.508.375.348.597.922.223.574.223 1.414v.39h-4.625v-.796h3.687q0-.508-.203-.907a1.53 1.53 0 00-.57-.628 1.6 1.6 0 00-.867-.231q-.55 0-.953.273-.398.27-.614.704a2.1 2.1 0 00-.214.93v.53q0 .68.234 1.153.239.468.66.715.422.242.98.242.365 0 .657-.102.296-.105.512-.312a1.4 1.4 0 00.332-.524l.89.25a2 2 0 01-.472.797 2.3 2.3 0 01-.82.531 3 3 0 01-1.098.188m4.808-3.734V80h-.922v-6h.89v.938h.079q.21-.457.64-.735.43-.28 1.11-.281.61 0 1.066.25.457.246.711.75.254.5.254 1.266V80h-.922v-3.75q0-.706-.367-1.102-.367-.398-1.008-.398-.441 0-.789.191a1.37 1.37 0 00-.543.559q-.199.368-.199.89M105.615 74v.781h-3.109V74zm-2.203-1.437h.922v5.718q0 .39.113.586a.6.6 0 00.297.258q.184.063.387.063.152 0 .25-.016l.156-.031.188.828q-.094.035-.262.07a2 2 0 01-.426.04 1.9 1.9 0 01-.766-.169 1.5 1.5 0 01-.617-.512q-.242-.343-.242-.867zm7.733 2.78-.829.235a1.5 1.5 0 00-.23-.402 1.1 1.1 0 00-.406-.328q-.258-.13-.66-.13-.552 0-.918.255-.364.25-.364.636 0 .344.25.543t.782.332l.89.22q.805.195 1.199.597.395.398.395 1.027 0 .516-.297.922a1.97 1.97 0 01-.82.64q-.528.235-1.227.235-.918 0-1.519-.398-.602-.399-.762-1.165l.875-.218q.125.484.473.726.351.243.918.243.644 0 1.023-.274.383-.277.383-.664a.7.7 0 00-.219-.523q-.219-.216-.672-.32l-1-.235q-.824-.195-1.211-.606-.383-.413-.383-1.035 0-.507.286-.898.288-.39.785-.614a2.8 2.8 0 011.133-.222q.89 0 1.398.39.511.39.727 1.032M115.86 80v-8h.922v2.953h.078q.102-.156.282-.398.183-.246.523-.438.343-.195.93-.195.757 0 1.336.379.578.378.902 1.074.324.695.324 1.64 0 .954-.324 1.653a2.56 2.56 0 01-.898 1.078 2.35 2.35 0 01-1.325.379q-.578 0-.925-.191a1.7 1.7 0 01-.536-.442 6 6 0 01-.289-.414h-.109V80zm.907-3q0 .68.199 1.2.2.514.582.808.383.29.937.289.578 0 .965-.305.391-.309.586-.828.2-.523.199-1.164a3.2 3.2 0 00-.195-1.14 1.77 1.77 0 00-.582-.81q-.387-.3-.973-.3-.563 0-.945.285-.383.281-.578.79-.195.503-.195 1.175m6.179 5.25a2 2 0 01-.672-.11l.235-.812q.336.085.594.063a.71.71 0 00.457-.23q.203-.204.371-.661l.172-.469L121.884 74h1l1.656 4.781h.063L126.259 74h1l-2.547 6.875q-.172.465-.426.77a1.6 1.6 0 01-.59.457 1.8 1.8 0 01-.75.148m10.889-2.125q-.75 0-1.324-.379a2.56 2.56 0 01-.899-1.078q-.324-.7-.324-1.652 0-.946.324-1.641t.903-1.074a2.4 2.4 0 011.336-.38q.585 0 .925.196.344.192.524.438.183.242.285.398h.078V72h.922v8h-.891v-.922h-.109q-.102.165-.289.414a1.7 1.7 0 01-.535.442q-.348.19-.926.191m.125-.828q.555 0 .937-.29.384-.292.582-.808.2-.52.2-1.199 0-.672-.196-1.176a1.7 1.7 0 00-.578-.789q-.382-.285-.945-.285-.586 0-.977.3a1.8 1.8 0 00-.582.81 3.2 3.2 0 00-.191 1.14q0 .64.195 1.164.2.52.586.828.391.305.969.305m6.207.844q-.57 0-1.035-.215a1.77 1.77 0 01-.738-.63q-.274-.413-.274-1 0-.515.203-.835.204-.324.543-.508.34-.183.75-.273.415-.094.832-.149.547-.07.887-.105.344-.04.5-.13.16-.088.16-.312v-.03q0-.579-.316-.9-.313-.32-.95-.32-.66 0-1.035.29-.375.288-.527.617l-.875-.313q.234-.547.625-.851.394-.31.859-.43a3.6 3.6 0 01.922-.125q.29 0 .664.07.379.066.731.277.355.211.59.637t.234 1.14V80h-.922v-.812h-.047q-.093.195-.312.418t-.582.378q-.363.157-.887.157m.141-.829q.546 0 .921-.214a1.47 1.47 0 00.766-1.27v-.844q-.058.07-.258.13-.195.054-.453.097a20 20 0 01-.883.117 3.6 3.6 0 00-.672.153q-.308.1-.5.308-.187.202-.187.555 0 .48.355.726.36.243.911.243M147.209 74v.781H144.1V74zm-2.203-1.437h.922v5.718q0 .39.113.586a.6.6 0 00.297.258q.183.063.387.063.152 0 .25-.016l.156-.031.187.828a2 2 0 01-.261.07 2 2 0 01-.426.04q-.391 0-.766-.169a1.5 1.5 0 01-.617-.512q-.242-.343-.242-.867zm6.041 7.562q-.867 0-1.496-.383a2.57 2.57 0 01-.965-1.078q-.336-.694-.336-1.617 0-.922.336-1.625.34-.707.945-1.102.61-.398 1.422-.398.469 0 .926.156.457.157.832.508.375.348.598.922t.222 1.414v.39h-4.625v-.796h3.688q0-.508-.203-.907a1.53 1.53 0 00-.571-.628 1.6 1.6 0 00-.867-.231q-.55 0-.953.273-.399.27-.613.704a2.06 2.06 0 00-.215.93v.53q0 .68.234 1.153.238.468.66.715.422.242.981.242.363 0 .656-.102.297-.105.512-.312.215-.21.332-.524l.891.25a2 2 0 01-.473.797 2.3 2.3 0 01-.82.531 3 3 0 01-1.098.188"/><path fill="#1D211C" d="M22.074 108h1.149v5.27q0 .836-.395 1.484a2.7 2.7 0 01-1.101 1.012q-.712.366-1.665.367-.957 0-1.668-.367a2.7 2.7 0 01-1.101-1.012 2.8 2.8 0 01-.39-1.484V108h1.148v5.176q0 .555.242.984.246.43.695.676.45.246 1.075.246.624 0 1.074-.246.453-.246.695-.676.242-.429.242-.984zm7.281 3.434-1 .199a1.4 1.4 0 00-.214-.391 1.06 1.06 0 00-.391-.305 1.4 1.4 0 00-.621-.121q-.508 0-.852.231-.339.227-.336.582a.6.6 0 00.227.5q.23.188.734.308l.942.219q.82.192 1.222.594.407.398.407 1.031 0 .536-.309.953-.308.414-.855.653-.543.234-1.262.234-.989 0-1.617-.422-.625-.422-.774-1.211l1.063-.187q.113.457.445.687.336.227.871.227.594 0 .945-.25.352-.25.352-.606a.64.64 0 00-.21-.488q-.212-.195-.65-.297l-1.007-.226q-.84-.188-1.235-.606-.394-.417-.394-1.055 0-.523.293-.921.293-.399.808-.621a3 3 0 011.184-.223q.954 0 1.5.414.547.41.735 1.098m3.988 4.687q-.879 0-1.516-.379a2.54 2.54 0 01-.98-1.074q-.345-.695-.344-1.625 0-.922.344-1.625.344-.707.96-1.102.622-.394 1.45-.394.5 0 .969.164.473.164.851.523.38.355.598.93.223.574.223 1.395v.406h-4.735v-.856h3.64a1.8 1.8 0 00-.195-.836 1.4 1.4 0 00-.535-.582 1.5 1.5 0 00-.808-.214q-.508 0-.883.25a1.67 1.67 0 00-.574.644 1.9 1.9 0 00-.203.859v.645q0 .621.218 1.055.22.434.61.66.395.226.918.226.344 0 .62-.097.279-.098.481-.293.204-.195.313-.485l1.05.211a1.96 1.96 0 01-.472.84q-.34.36-.848.559-.507.195-1.152.195m3.879-.121v-6h1.07v.941h.063q.163-.472.582-.75.417-.28.949-.281.105 0 .254.008.151.004.238.016v1.074a2 2 0 00-.238-.043 2.4 2.4 0 00-.36-.028q-.417 0-.746.176a1.35 1.35 0 00-.52.485 1.33 1.33 0 00-.187.707V116zm7.845 0h-1.215l2.891-8h1.297l2.895 8H49.72l-2.297-6.594h-.063zm.254-3.129h4.14v.973h-4.14zm9.121 3.25q-.862 0-1.488-.394a2.6 2.6 0 01-.957-1.098q-.332-.699-.332-1.602 0-.914.344-1.613.344-.703.96-1.098.622-.394 1.462-.394.667 0 1.195.246.53.246.86.695.328.446.394 1.039h-1.082a1.4 1.4 0 00-.438-.726q-.338-.309-.914-.309-.5 0-.875.262a1.7 1.7 0 00-.586.742q-.207.477-.207 1.129 0 .665.203 1.152.208.489.582.754.375.266.883.266.344 0 .617-.121a1.26 1.26 0 00.465-.356q.192-.23.27-.558h1.082a2.18 2.18 0 01-1.219 1.726q-.52.258-1.219.258m6.47-6.121v.898h-3.238V110zm-2.352-1.438h1.106v5.688q0 .351.106.527.104.177.273.239.168.062.36.062.144 0 .245-.019l.165-.032.207.93a2 2 0 01-.286.078 2 2 0 01-.457.043 2 2 0 01-.836-.164 1.5 1.5 0 01-.64-.527q-.242-.355-.242-.895zM62.23 116v-6h1.105v6zm.558-6.945a.72.72 0 01-.508-.2.63.63 0 01-.21-.476q0-.282.21-.481a.73.73 0 01.508-.199q.297 0 .508.199.21.2.21.481a.63.63 0 01-.21.476q-.21.2-.508.2m4.652 7.066q-.836 0-1.46-.387a2.6 2.6 0 01-.973-1.082q-.344-.695-.344-1.625 0-.933.344-1.632.348-.7.972-1.086.625-.387 1.461-.387t1.461.387q.625.386.97 1.086.346.699.347 1.632 0 .93-.348 1.625-.344.696-.969 1.082-.624.387-1.46.387m.004-.941q.563 0 .93-.297a1.76 1.76 0 00.55-.785q.18-.489.18-1.071t-.18-1.074a1.8 1.8 0 00-.55-.793q-.368-.3-.93-.301-.57 0-.941.301a1.8 1.8 0 00-.547.793q-.18.492-.18 1.074t.18 1.071q.18.488.547.785.37.297.941.297m5.204-2.754V116h-1.105v-6h1.063v.969h.074q.21-.477.648-.762.442-.285 1.117-.285.615 0 1.07.254.462.254.716.758.257.504.253 1.25V116H75.38v-3.695q0-.669-.348-1.043-.343-.375-.949-.375-.414 0-.738.183-.324.18-.512.524-.183.343-.184.832"/><path fill="#464D45" d="M83.938 108v8h-.97v-8zm6.067 3.344-.828.234a1.5 1.5 0 00-.23-.402 1.1 1.1 0 00-.407-.328q-.258-.129-.66-.129-.55 0-.918.254-.363.25-.363.636 0 .345.25.543.25.2.78.332l.891.219q.805.196 1.2.598.394.398.394 1.027 0 .516-.297.922a2 2 0 01-.82.641q-.527.234-1.227.234-.917 0-1.519-.398-.602-.399-.762-1.165l.875-.218q.126.484.473.726.351.243.918.242.644 0 1.023-.273.383-.277.383-.664a.7.7 0 00-.219-.523q-.219-.215-.671-.321l-1-.234q-.825-.195-1.211-.606-.383-.414-.383-1.035 0-.507.285-.898.289-.391.785-.613.5-.223 1.133-.223.891 0 1.398.39.512.391.727 1.032m3.935 4.781q-.813 0-1.426-.387a2.63 2.63 0 01-.953-1.082q-.34-.695-.34-1.625 0-.937.34-1.636.343-.7.953-1.086.614-.387 1.425-.387.813 0 1.422.387.614.386.953 1.086.344.699.344 1.636 0 .93-.344 1.625a2.6 2.6 0 01-.953 1.082q-.609.387-1.422.387m0-.828q.616 0 1.015-.317.399-.316.59-.832.19-.515.191-1.117a3.2 3.2 0 00-.191-1.121 1.9 1.9 0 00-.59-.84q-.398-.32-1.016-.32-.617 0-1.015.32a1.9 1.9 0 00-.59.84 3.2 3.2 0 00-.191 1.121q0 .602.191 1.117.191.517.59.832.398.317 1.015.317M98.986 108v8h-.922v-8zm3.454 8.141q-.57 0-1.035-.215a1.8 1.8 0 01-.738-.629q-.273-.415-.273-1 0-.516.203-.836.203-.324.543-.508.339-.183.75-.273.414-.094.832-.149.547-.07.886-.105.345-.039.5-.129.16-.09.161-.313v-.031q0-.578-.317-.898-.312-.321-.949-.321-.66 0-1.035.289-.375.29-.528.618l-.875-.313q.235-.546.625-.851.395-.309.86-.43.469-.125.922-.125.288 0 .664.07.378.066.73.278.356.21.59.636t.234 1.141V116h-.921v-.813h-.047q-.094.196-.313.418-.219.223-.582.379-.363.157-.887.157m.141-.829q.547 0 .922-.214.38-.215.57-.555.195-.34.196-.715v-.844q-.06.07-.258.129a4 4 0 01-.453.098 23 23 0 01-.883.117q-.36.047-.672.152a1.16 1.16 0 00-.5.309q-.188.203-.188.555 0 .48.356.726.359.243.91.242m6.901-5.312v.781h-3.109V110zm-2.203-1.438h.922v5.719q0 .391.113.586a.6.6 0 00.297.258q.184.062.387.062.153 0 .25-.015l.156-.031.188.828q-.094.035-.262.07a2 2 0 01-.426.039q-.39 0-.765-.168a1.5 1.5 0 01-.618-.512q-.242-.344-.242-.867zm6.041 7.563q-.867 0-1.496-.383a2.6 2.6 0 01-.965-1.078q-.336-.695-.336-1.617t.336-1.625q.34-.707.946-1.102.609-.398 1.422-.398.468 0 .925.156t.832.508q.376.348.598.922t.223 1.414v.39h-4.625v-.796h3.687q0-.508-.203-.907a1.54 1.54 0 00-.57-.629 1.6 1.6 0 00-.867-.23 1.66 1.66 0 00-.954.273 1.8 1.8 0 00-.613.704 2.1 2.1 0 00-.215.929v.532q0 .68.235 1.152.239.469.66.715.422.242.98.242.363 0 .657-.102.296-.105.511-.312.215-.211.332-.524l.891.25a2 2 0 01-.473.797 2.3 2.3 0 01-.82.531 3 3 0 01-1.098.188m7.106-.125v-8h.969v3.562h4.265V108h.969v8h-.969v-3.578h-4.265V116zm10.455.125q-.813 0-1.426-.387a2.63 2.63 0 01-.953-1.082q-.34-.695-.34-1.625 0-.937.34-1.636.344-.7.953-1.086.613-.387 1.426-.387t1.422.387q.613.386.953 1.086.344.699.344 1.636 0 .93-.344 1.625a2.6 2.6 0 01-.953 1.082q-.61.387-1.422.387m0-.828q.617 0 1.015-.317.4-.316.59-.832.192-.515.192-1.117 0-.601-.192-1.121a1.9 1.9 0 00-.59-.84q-.398-.32-1.015-.32-.618 0-1.016.32a1.9 1.9 0 00-.59.84q-.19.52-.191 1.121 0 .602.191 1.117.192.517.59.832.398.317 1.016.317m8.376-3.953-.828.234a1.5 1.5 0 00-.231-.402 1.1 1.1 0 00-.406-.328q-.258-.129-.66-.129-.55 0-.918.254-.363.25-.363.636 0 .345.25.543.25.2.781.332l.89.219q.806.196 1.2.598.394.398.394 1.027 0 .516-.297.922a1.97 1.97 0 01-.82.641q-.527.234-1.227.234-.918 0-1.519-.398-.602-.399-.762-1.165l.875-.218q.126.484.473.726.351.243.918.242.645 0 1.023-.273.383-.277.383-.664a.7.7 0 00-.219-.523q-.218-.215-.672-.321l-1-.234q-.824-.195-1.21-.606-.383-.414-.383-1.035 0-.507.285-.898.289-.391.785-.613a2.75 2.75 0 011.133-.223q.891 0 1.398.39.512.391.727 1.032m4.106-1.344v.781h-3.109V110zm-2.203-1.438h.922v5.719q0 .391.113.586a.58.58 0 00.297.258q.184.062.387.062.152 0 .25-.015l.156-.031.188.828q-.094.035-.262.07a2 2 0 01-.426.039q-.39 0-.765-.168a1.5 1.5 0 01-.618-.512q-.242-.344-.242-.867zm7.733 2.782-.829.234a1.5 1.5 0 00-.23-.402 1.1 1.1 0 00-.406-.328q-.258-.129-.66-.129-.552 0-.918.254-.364.25-.364.636 0 .345.25.543.25.2.782.332l.89.219q.805.196 1.199.598.395.398.395 1.027 0 .516-.297.922a2 2 0 01-.82.641q-.528.234-1.227.234-.918 0-1.519-.398-.602-.399-.762-1.165l.875-.218q.125.484.473.726.351.243.918.242.644 0 1.023-.273.383-.277.383-.664a.7.7 0 00-.219-.523q-.219-.215-.672-.321l-1-.234q-.824-.195-1.211-.606-.383-.414-.383-1.035 0-.507.286-.898.288-.391.785-.613a2.75 2.75 0 011.133-.223q.89 0 1.398.39.511.391.727 1.032"/><g clip-path="url(#widget-__b)"><path fill="#B0B3AF" fill-rule="evenodd" d="M266 106.701a5.298 5.298 0 100 10.596 5.298 5.298 0 000-10.596m-4.538 5.298a4.538 4.538 0 119.077 0 4.538 4.538 0 01-9.077 0m5.138-2.399a.6.6 0 11-1.201-.001.6.6 0 011.201.001m-1.8 1.2h1.2a.4.4 0 01.4.4v2.8h.8v.8h-2.4v-.8h.8v-2.4h-.8z" clip-rule="evenodd"/></g><path fill="#686E67" d="M20.008 126.091V133h-.837v-6.032h-.04l-1.687 1.12v-.85l1.727-1.147zm5.314-.324-2.226 8.272h-.73l2.227-8.272zm.768 5.816v-.688l3.037-4.804h.499v1.066h-.338l-2.294 3.63v.054h4.09v.742zM29.343 133v-6.909h.796V133zm5.516-7.233-2.226 8.272h-.73l2.227-8.272zM35.992 133v-.607l2.28-2.497q.401-.438.662-.762.26-.327.384-.614a1.5 1.5 0 0 0 .128-.607 1.12 1.12 0 0 0-.647-1.043 1.5 1.5 0 0 0-.675-.145q-.398 0-.695.165-.294.162-.456.456a1.4 1.4 0 0 0-.158.688h-.796q0-.607.28-1.066t.762-.715a2.3 2.3 0 0 1 1.09-.257q.607 0 1.076.257.47.256.736.691.266.436.266.969 0 .38-.138.745a3.3 3.3 0 0 1-.473.806q-.334.442-.927 1.08l-1.552 1.66v.054h3.211V133zm8.31.094q-.762 0-1.299-.414-.536-.418-.82-1.212-.283-.795-.283-1.923 0-1.12.283-1.912.287-.797.823-1.215.54-.422 1.296-.422.755 0 1.292.422.54.418.823 1.215.287.793.287 1.912 0 1.128-.284 1.923-.283.794-.82 1.212-.536.414-1.298.414m0-.742q.756 0 1.174-.728.418-.729.418-2.079 0-.897-.192-1.528-.189-.63-.547-.961a1.2 1.2 0 0 0-.853-.331q-.75 0-1.17.739-.422.735-.422 2.081 0 .898.188 1.525.189.628.543.955.359.327.86.327m3.992.648v-.607l2.28-2.497q.402-.438.661-.762.26-.327.385-.614.128-.29.128-.607a1.12 1.12 0 0 0-.648-1.043 1.5 1.5 0 0 0-.674-.145q-.398 0-.695.165-.294.162-.456.456a1.4 1.4 0 0 0-.158.688h-.796q0-.607.28-1.066.279-.459.762-.715a2.3 2.3 0 0 1 1.09-.257q.606 0 1.076.257.47.256.735.691.267.436.267.969 0 .38-.139.745-.135.362-.472.806-.334.442-.928 1.08l-1.551 1.66v.054h3.211V133zm6.15 0v-.607l2.281-2.497q.402-.438.661-.762.26-.327.385-.614.128-.29.128-.607a1.12 1.12 0 0 0-.648-1.043 1.5 1.5 0 0 0-.674-.145q-.398 0-.695.165-.294.162-.456.456a1.4 1.4 0 0 0-.158.688h-.797q0-.607.28-1.066t.763-.715a2.3 2.3 0 0 1 1.09-.257q.606 0 1.076.257.468.256.735.691.267.436.267.969 0 .38-.139.745-.135.362-.472.806a14 14 0 0 1-.928 1.08l-1.551 1.66v.054h3.211V133zM68.008 126.091V133h-.837v-6.032h-.04l-1.687 1.12v-.85l1.727-1.147zm6.15 0V133h-.836v-6.032h-.04l-1.687 1.12v-.85l1.727-1.147zm3.453 6.025a.58.58 0 0 1-.429-.179.58.58 0 0 1-.178-.428q0-.25.178-.429a.58.58 0 0 1 .429-.178q.25 0 .428.178.18.18.179.429a.623.623 0 0 1-.304.526.6.6 0 0 1-.303.081m0-3.495a.59.59 0 0 1-.429-.179.58.58 0 0 1-.178-.428q0-.25.178-.429a.58.58 0 0 1 .429-.178q.25 0 .428.178.18.18.179.429a.623.623 0 0 1-.304.526.6.6 0 0 1-.303.081m1.86 2.962v-.688l3.036-4.804h.5v1.066h-.338l-2.294 3.63v.054h4.09v.742zM82.723 133v-6.909h.796V133zm5.45.094q-.669 0-1.191-.229a2.03 2.03 0 0 1-.827-.638 1.7 1.7 0 0 1-.33-.954h.85q.026.333.23.577.2.239.529.371.327.13.725.131.445 0 .79-.155.344-.155.54-.432a1.08 1.08 0 0 0 .195-.641q0-.381-.189-.671a1.25 1.25 0 0 0-.553-.459q-.365-.165-.89-.165h-.554v-.742h.553q.412 0 .722-.149.314-.148.49-.418.177-.27.178-.634 0-.351-.155-.611a1.06 1.06 0 0 0-.439-.405 1.4 1.4 0 0 0-.661-.145q-.357 0-.675.132-.314.128-.512.374a.98.98 0 0 0-.216.587h-.81q.021-.543.327-.951.307-.412.803-.641.499-.23 1.097-.23.64 0 1.1.26.458.257.704.678.247.422.247.911 0 .584-.307.995a1.56 1.56 0 0 1-.827.571v.053q.654.108 1.022.557.368.446.368 1.103 0 .564-.307 1.012-.303.446-.83.702a2.7 2.7 0 0 1-1.198.256m6.839-.094h-.877l2.536-6.909h.864l2.537 6.909h-.877l-2.065-5.816h-.054zm.323-2.699h3.536v.742h-3.535zm5.813-4.21h.999l2.348 5.735h.081l2.348-5.735h.998V133h-.782v-5.249h-.068L104.913 133h-.756l-2.159-5.249h-.067V133h-.783z"/><circle cx="116" cy="130" r="1" fill="#8D918C"/><path fill="#686E67" d="M129.315 126.091V133h-.809l-3.765-5.425h-.068V133h-.836v-6.909h.809l3.779 5.438h.067v-5.438zm1.567 6.909v-5.182h.796V133zm.404-6.045a.56.56 0 01-.401-.159.5.5 0 01-.165-.381q0-.224.165-.381a.56.56 0 01.401-.159q.233 0 .398.159a.5.5 0 01.169.381.5.5 0 01-.169.381.55.55 0 01-.398.159m3.955 6.153q-.729 0-1.255-.344a2.25 2.25 0 01-.81-.948q-.283-.605-.283-1.38 0-.79.29-1.393.294-.608.817-.948.525-.344 1.228-.344.546 0 .985.202.439.203.718.567.28.364.348.85h-.796a1.24 1.24 0 00-.405-.627q-.31-.277-.837-.277-.465 0-.816.243a1.6 1.6 0 00-.544.678q-.192.435-.192 1.022 0 .6.189 1.046.192.445.54.691.35.247.823.247.31 0 .563-.108a1.16 1.16 0 00.679-.796h.796a1.85 1.85 0 01-.334.826 1.9 1.9 0 01-.699.58 2.25 2.25 0 01-1.005.213m3.944-1.997-.014-.985h.162l2.267-2.308h.985l-2.415 2.443h-.068zm-.742 1.889v-6.909h.796V133zm3.292 0-2.024-2.564.567-.553 2.469 3.117zm4.277-6.167v-.742h5.182v.742h-2.173V133h-.836v-6.167zm5.827 6.167v-5.182h.769v.783h.054q.143-.385.513-.624.37-.24.837-.24a7 7 0 01.418.014v.809a3.4 3.4 0 00-.486-.054q-.378 0-.675.159-.292.155-.465.432-.17.273-.169.624V133zm5.482.108q-.702 0-1.231-.334a2.27 2.27 0 01-.823-.935q-.294-.6-.294-1.403 0-.81.294-1.413.297-.605.823-.938.53-.334 1.231-.334t1.228.334q.53.333.823.938.297.603.297 1.413 0 .803-.297 1.403-.293.601-.823.935-.526.334-1.228.334m0-.715q.533 0 .877-.274a1.6 1.6 0 00.51-.718q.165-.446.165-.965 0-.52-.165-.968a1.63 1.63 0 00-.51-.725q-.344-.277-.877-.277t-.877.277a1.63 1.63 0 00-.509.725 2.8 2.8 0 00-.166.968q0 .52.166.965.165.445.509.718.344.274.877.274m3.563.607v-5.182h.77v.81h.067a1.3 1.3 0 01.523-.645q.362-.232.867-.232.513 0 .854.232.344.23.536.645h.054q.2-.401.597-.638.398-.239.955-.239.695 0 1.137.435.441.431.442 1.346V133h-.797v-3.468q0-.573-.313-.82a1.16 1.16 0 00-.739-.246q-.546 0-.847.331-.3.327-.3.829V133h-.81v-3.549q0-.442-.287-.712-.287-.273-.738-.273-.31 0-.581.165-.266.165-.431.459a1.35 1.35 0 00-.162.671V133zm8.365 0v-6.909h.796v2.55h.068q.087-.135.243-.344.158-.211.452-.378.297-.168.803-.168.654 0 1.154.327.498.327.779.928.28.6.28 1.417 0 .822-.28 1.427-.28.6-.776.931a2.03 2.03 0 01-1.144.327q-.5 0-.799-.165-.3-.17-.462-.382a5 5 0 01-.25-.357h-.095V133zm.783-2.591q0 .587.172 1.036.172.445.503.698.33.25.809.25.5 0 .834-.263a1.6 1.6 0 00.506-.716q.171-.452.172-1.005 0-.547-.169-.985a1.5 1.5 0 00-.503-.698q-.333-.26-.84-.26-.486 0-.816.246a1.47 1.47 0 00-.499.682q-.17.435-.169 1.015m5.806-4.318V133h-.796v-6.909zm3.631 7.017q-.75 0-1.292-.331a2.2 2.2 0 01-.834-.931q-.29-.6-.29-1.396 0-.797.29-1.404.294-.61.817-.951.526-.344 1.228-.344.405 0 .799.135.395.135.719.438.324.3.516.796t.192 1.222v.337h-3.994v-.688h3.185q0-.44-.176-.783a1.33 1.33 0 00-.492-.543 1.4 1.4 0 00-.749-.199 1.43 1.43 0 00-.823.236q-.344.233-.53.607-.186.375-.186.803v.459q0 .587.203.995.206.405.57.618.364.209.847.209.314 0 .566-.088.257-.091.442-.27.186-.182.287-.452l.769.216q-.122.391-.408.688a2 2 0 01-.708.459 2.6 2.6 0 01-.948.162m3.711 1.835a1.7 1.7 0 01-.361-.034 1 1 0 01-.219-.06l.203-.702q.29.074.512.054a.6.6 0 00.395-.199q.175-.175.321-.57l.148-.405-1.916-5.209h.863l1.431 4.129h.054l1.43-4.129h.864l-2.2 5.938a2.3 2.3 0 01-.367.664q-.22.267-.51.395a1.6 1.6 0 01-.648.128"/><mask id="widget-__c" fill="#fff"><path d="M16 146h256v72H16z"/></mask><path fill="#D7DAD7" d="M16 147h256v-2H16z" mask="url(#widget-__c)"/><path fill="#1D211C" d="M23.332 156v8h-1.07l-4.137-5.969h-.074V164h-1.149v-8h1.07l4.15 5.98h.073V156zm4.201 8.121q-.836 0-1.46-.387a2.6 2.6 0 01-.973-1.082q-.344-.695-.344-1.625 0-.933.344-1.632.347-.7.972-1.086.626-.387 1.461-.387t1.461.387q.625.386.969 1.086.348.699.348 1.632 0 .93-.348 1.625-.344.696-.969 1.082t-1.46.387m.004-.941q.563 0 .93-.297a1.76 1.76 0 00.55-.785q.18-.489.18-1.071t-.18-1.074a1.8 1.8 0 00-.55-.793q-.367-.3-.93-.301-.57 0-.941.301a1.8 1.8 0 00-.547.793q-.18.492-.18 1.074t.18 1.071q.18.488.547.785.37.297.941.297M34.39 158v.898H31.15V158zm-2.352-1.438h1.106v5.688q0 .351.105.527t.273.239q.168.062.36.062.144 0 .246-.019l.164-.032.207.93a2 2 0 01-.285.078 2 2 0 01-.457.043 2 2 0 01-.836-.164 1.5 1.5 0 01-.64-.527q-.243-.355-.243-.895zm6.171 7.559q-.879 0-1.516-.379a2.54 2.54 0 01-.98-1.074q-.344-.695-.344-1.625 0-.922.344-1.625.345-.707.96-1.102.622-.394 1.45-.394.5 0 .969.164.473.164.851.523.38.355.598.93.223.575.223 1.395v.406h-4.735v-.856h3.64a1.8 1.8 0 00-.194-.836 1.4 1.4 0 00-.535-.582 1.5 1.5 0 00-.81-.214q-.507 0-.882.25a1.67 1.67 0 00-.574.644 1.9 1.9 0 00-.203.859v.645q0 .621.219 1.055.218.433.609.66.395.226.918.226.344 0 .62-.097.279-.098.481-.293.204-.195.313-.485l1.05.211a1.96 1.96 0 01-.472.84q-.34.36-.848.559-.507.195-1.152.195m7.524-.121H44.52l2.89-8h1.297l2.895 8h-1.215l-2.297-6.594h-.063zm.254-3.129h4.14v.973h-4.14zm8.868 3.246q-.735 0-1.305-.371-.567-.375-.89-1.07-.325-.696-.325-1.664 0-.966.324-1.657.328-.695.899-1.062a2.36 2.36 0 011.308-.371q.563 0 .903.187.344.188.53.434.189.246.294.426h.07V156h1.11v8h-1.079v-.93h-.101a3.6 3.6 0 01-.301.43 1.7 1.7 0 01-.54.434q-.343.183-.898.183m.226-.953q.516 0 .871-.273.36-.274.543-.758a3.2 3.2 0 00.188-1.133q0-.637-.184-1.113-.18-.481-.539-.746-.356-.266-.879-.266-.543 0-.906.281-.36.278-.543.758-.18.48-.18 1.086 0 .613.184 1.105.183.489.547.774.363.285.898.285m6.638.953q-.735 0-1.305-.371-.566-.375-.89-1.07t-.325-1.664q0-.966.324-1.657.33-.695.899-1.062a2.36 2.36 0 011.309-.371q.561 0 .902.187.343.188.531.434t.293.426h.07V156h1.11v8h-1.078v-.93h-.102q-.105.184-.3.43a1.7 1.7 0 01-.54.434q-.343.183-.898.183m.226-.953q.516 0 .871-.273.36-.274.543-.758a3.2 3.2 0 00.188-1.133q0-.637-.184-1.113-.18-.481-.539-.746-.355-.266-.879-.266-.543 0-.906.281-.36.278-.543.758-.18.48-.18 1.086 0 .613.184 1.105.183.489.547.774.363.285.898.285m6.954.957q-.877 0-1.515-.379a2.54 2.54 0 01-.98-1.074q-.344-.695-.344-1.625 0-.922.343-1.625.345-.707.961-1.102.62-.394 1.45-.394.5 0 .968.164.473.164.852.523.379.355.597.93.223.575.223 1.395v.406H66.72v-.856h3.64a1.8 1.8 0 00-.195-.836 1.4 1.4 0 00-.535-.582 1.5 1.5 0 00-.809-.214q-.507 0-.882.25a1.67 1.67 0 00-.575.644 1.87 1.87 0 00-.203.859v.645q0 .621.219 1.055t.61.66q.393.226.917.226.344 0 .621-.097.278-.098.48-.293.204-.195.313-.485l1.051.211a1.96 1.96 0 01-.473.84q-.34.36-.847.559-.508.195-1.153.195m6.13-.004q-.735 0-1.305-.371-.567-.375-.891-1.07t-.324-1.664q0-.966.324-1.657.328-.695.898-1.062.575-.37 1.309-.371.563 0 .902.187.345.188.532.434t.293.426h.07V156h1.11v8h-1.079v-.93h-.101a3.6 3.6 0 01-.301.43 1.7 1.7 0 01-.54.434q-.343.183-.898.183m.226-.953q.516 0 .871-.273.36-.274.543-.758a3.2 3.2 0 00.187-1.133q0-.637-.183-1.113-.18-.481-.54-.746-.355-.266-.878-.266-.543 0-.906.281-.36.278-.543.758-.18.48-.18 1.086 0 .613.184 1.105.183.489.546.774t.899.285"/><g clip-path="url(#widget-__d)"><path fill="#B0B3AF" fill-rule="evenodd" d="M266 154.701a5.298 5.298 0 100 10.596 5.298 5.298 0 000-10.596m-4.538 5.298a4.538 4.538 0 119.077 0 4.538 4.538 0 01-9.077 0m5.138-2.399a.6.6 0 11-1.201-.001.6.6 0 011.201.001m-1.8 1.2h1.2a.4.4 0 01.4.4v2.8h.8v.8h-2.4v-.8h.8v-2.4h-.8z" clip-rule="evenodd"/></g><path fill="#686E67" d="M20.008 174.091V181h-.837v-6.032h-.04l-1.687 1.12v-.85l1.727-1.147zm5.314-.324-2.226 8.272h-.73l2.227-8.272zm.768 5.816v-.688l3.037-4.804h.499v1.066h-.338l-2.294 3.63v.054h4.09v.742zM29.343 181v-6.909h.796V181zm5.516-7.233-2.226 8.272h-.73l2.227-8.272zM35.992 181v-.607l2.28-2.497q.401-.438.662-.762.26-.327.384-.614a1.5 1.5 0 0 0 .128-.607 1.12 1.12 0 0 0-.647-1.043 1.5 1.5 0 0 0-.675-.145q-.398 0-.695.165-.294.162-.456.456a1.4 1.4 0 0 0-.158.688h-.796q0-.607.28-1.066t.762-.715a2.3 2.3 0 0 1 1.09-.257q.607 0 1.076.257.47.256.736.691.266.436.266.969 0 .38-.138.745a3.3 3.3 0 0 1-.473.806q-.334.442-.927 1.08l-1.552 1.66v.054h3.211V181zm8.31.094q-.762 0-1.299-.414-.536-.419-.82-1.212-.283-.795-.283-1.923 0-1.12.283-1.912.287-.797.823-1.215.54-.422 1.296-.422.755 0 1.292.422.54.418.823 1.215.287.792.287 1.912 0 1.128-.284 1.923-.283.794-.82 1.212-.536.414-1.298.414m0-.742q.756 0 1.174-.728.418-.729.418-2.079 0-.897-.192-1.528-.189-.63-.547-.961a1.2 1.2 0 0 0-.853-.331q-.75 0-1.17.739-.422.735-.422 2.081 0 .898.188 1.525.189.628.543.955.359.327.86.327m3.992.648v-.607l2.28-2.497q.402-.438.661-.762.26-.327.385-.614.128-.29.128-.607a1.12 1.12 0 0 0-.648-1.043 1.5 1.5 0 0 0-.674-.145q-.398 0-.695.165-.294.162-.456.456a1.4 1.4 0 0 0-.158.688h-.796q0-.607.28-1.066.279-.459.762-.715a2.3 2.3 0 0 1 1.09-.257q.606 0 1.076.257.47.256.735.691.267.436.267.969 0 .38-.139.745-.135.362-.472.806-.334.442-.928 1.08l-1.551 1.66v.054h3.211V181zm6.15 0v-.607l2.281-2.497q.402-.438.661-.762.26-.327.385-.614.128-.29.128-.607a1.12 1.12 0 0 0-.648-1.043 1.5 1.5 0 0 0-.674-.145q-.398 0-.695.165-.294.162-.456.456a1.4 1.4 0 0 0-.158.688h-.797q0-.607.28-1.066t.763-.715a2.3 2.3 0 0 1 1.09-.257q.606 0 1.076.257.468.256.735.691.267.436.267.969 0 .38-.139.745-.135.362-.472.806a14 14 0 0 1-.928 1.08l-1.551 1.66v.054h3.211V181zM68.008 174.091V181h-.837v-6.032h-.04l-1.687 1.12v-.85l1.727-1.147zm6.15 0V181h-.836v-6.032h-.04l-1.687 1.12v-.85l1.727-1.147zm3.453 6.025a.58.58 0 0 1-.429-.179.58.58 0 0 1-.178-.428q0-.25.178-.429a.58.58 0 0 1 .429-.178q.25 0 .428.178.18.18.179.429a.623.623 0 0 1-.304.526.6.6 0 0 1-.303.081m0-3.495a.59.59 0 0 1-.429-.179.58.58 0 0 1-.178-.428q0-.25.178-.429a.58.58 0 0 1 .429-.178q.25 0 .428.178.18.18.179.429a.623.623 0 0 1-.304.526.6.6 0 0 1-.303.081m1.86 2.962v-.688l3.036-4.804h.5v1.066h-.338l-2.294 3.63v.054h4.09v.742zM82.723 181v-6.909h.796V181zm5.45.094q-.669 0-1.191-.229a2.03 2.03 0 0 1-.827-.638 1.7 1.7 0 0 1-.33-.954h.85q.026.333.23.577.2.239.529.371.327.13.725.131.445 0 .79-.155.344-.155.54-.432a1.08 1.08 0 0 0 .195-.641q0-.381-.189-.671a1.25 1.25 0 0 0-.553-.459q-.365-.165-.89-.165h-.554v-.742h.553q.412 0 .722-.149.314-.148.49-.418.177-.27.178-.634 0-.351-.155-.611a1.06 1.06 0 0 0-.439-.405 1.4 1.4 0 0 0-.661-.145q-.357 0-.675.132-.314.128-.512.374a.98.98 0 0 0-.216.587h-.81q.021-.543.327-.951.307-.412.803-.641.499-.23 1.097-.23.64 0 1.1.26.458.256.704.678.247.422.247.911 0 .584-.307.995a1.56 1.56 0 0 1-.827.571v.053q.654.108 1.022.557.368.446.368 1.103 0 .564-.307 1.012-.303.446-.83.702a2.7 2.7 0 0 1-1.198.256m6.839-.094h-.877l2.536-6.909h.864l2.537 6.909h-.877l-2.065-5.816h-.054zm.323-2.699h3.536v.742h-3.535zm5.813-4.21h.999l2.348 5.735h.081l2.348-5.735h.998V181h-.782v-5.249h-.068L104.913 181h-.756l-2.159-5.249h-.067V181h-.783z"/><circle cx="116" cy="178" r="1" fill="#8D918C"/><path fill="#686E67" d="M129.315 174.091V181h-.809l-3.765-5.425h-.068V181h-.836v-6.909h.809l3.779 5.438h.067v-5.438zm1.567 6.909v-5.182h.796V181zm.404-6.045a.56.56 0 01-.401-.159.5.5 0 01-.165-.381q0-.224.165-.381a.56.56 0 01.401-.159q.233 0 .398.159a.5.5 0 01.169.381.5.5 0 01-.169.381.55.55 0 01-.398.159m3.955 6.153q-.729 0-1.255-.344a2.25 2.25 0 01-.81-.948q-.283-.605-.283-1.38 0-.79.29-1.393.294-.608.817-.948.525-.344 1.228-.344.546 0 .985.202.439.203.718.567.28.364.348.85h-.796a1.24 1.24 0 00-.405-.627q-.31-.277-.837-.277-.465 0-.816.243a1.6 1.6 0 00-.544.678q-.192.435-.192 1.022 0 .6.189 1.046.192.445.54.691.35.247.823.247.31 0 .563-.108a1.16 1.16 0 00.679-.796h.796a1.85 1.85 0 01-.334.826 1.9 1.9 0 01-.699.58 2.25 2.25 0 01-1.005.213m3.944-1.997-.014-.985h.162l2.267-2.308h.985l-2.415 2.443h-.068zm-.742 1.889v-6.909h.796V181zm3.292 0-2.024-2.564.567-.553 2.469 3.117zm4.277-6.167v-.742h5.182v.742h-2.173V181h-.836v-6.167zm5.827 6.167v-5.182h.769v.783h.054q.143-.386.513-.624.37-.24.837-.24a7 7 0 01.418.014v.809a3.4 3.4 0 00-.486-.054q-.378 0-.675.159-.292.155-.465.432-.17.273-.169.624V181zm5.482.108q-.702 0-1.231-.334a2.27 2.27 0 01-.823-.935q-.294-.6-.294-1.403 0-.81.294-1.413.297-.605.823-.938.53-.334 1.231-.334t1.228.334q.53.333.823.938.297.603.297 1.413 0 .803-.297 1.403-.293.601-.823.935-.526.334-1.228.334m0-.715q.533 0 .877-.274a1.6 1.6 0 00.51-.718q.165-.446.165-.965 0-.52-.165-.968a1.63 1.63 0 00-.51-.725q-.344-.277-.877-.277t-.877.277a1.63 1.63 0 00-.509.725 2.8 2.8 0 00-.166.968q0 .52.166.965.165.445.509.718.344.274.877.274m3.563.607v-5.182h.77v.81h.067a1.3 1.3 0 01.523-.645q.362-.232.867-.232.513 0 .854.232.344.23.536.645h.054q.2-.401.597-.638.398-.239.955-.239.695 0 1.137.435.441.431.442 1.346V181h-.797v-3.468q0-.573-.313-.82a1.16 1.16 0 00-.739-.246q-.546 0-.847.331-.3.327-.3.829V181h-.81v-3.549q0-.442-.287-.712-.287-.273-.738-.273-.31 0-.581.165-.266.165-.431.459a1.35 1.35 0 00-.162.671V181zm8.365 0v-6.909h.796v2.55h.068q.087-.135.243-.344.158-.211.452-.378.297-.168.803-.168.654 0 1.154.327.498.327.779.928.28.6.28 1.417 0 .822-.28 1.427-.28.6-.776.931a2.03 2.03 0 01-1.144.327q-.5 0-.799-.165-.3-.17-.462-.382a5 5 0 01-.25-.357h-.095V181zm.783-2.591q0 .587.172 1.036.172.445.503.698.33.25.809.25.5 0 .834-.263a1.6 1.6 0 00.506-.716q.171-.452.172-1.005 0-.547-.169-.985a1.5 1.5 0 00-.503-.698q-.333-.26-.84-.26-.486 0-.816.246a1.47 1.47 0 00-.499.682q-.17.435-.169 1.015m5.806-4.318V181h-.796v-6.909zm3.631 7.017q-.75 0-1.292-.331a2.2 2.2 0 01-.834-.931q-.29-.6-.29-1.396 0-.797.29-1.404.294-.61.817-.951.526-.344 1.228-.344.405 0 .799.135.395.135.719.438.324.3.516.796t.192 1.222v.337h-3.994v-.688h3.185q0-.44-.176-.783a1.33 1.33 0 00-.492-.543 1.4 1.4 0 00-.749-.199 1.43 1.43 0 00-.823.236q-.344.233-.53.607-.186.375-.186.803v.459q0 .587.203.995.206.405.57.618.364.209.847.209.314 0 .566-.088.257-.091.442-.27.186-.182.287-.452l.769.216q-.122.391-.408.688a2 2 0 01-.708.459 2.6 2.6 0 01-.948.162m3.711 1.835a1.7 1.7 0 01-.361-.034 1 1 0 01-.219-.06l.203-.702q.29.074.512.054a.6.6 0 00.395-.199q.175-.175.321-.57l.148-.405-1.916-5.209h.863l1.431 4.129h.054l1.43-4.129h.864l-2.2 5.938a2.3 2.3 0 01-.367.664q-.22.267-.51.395a1.6 1.6 0 01-.648.128"/><path fill="#004900" fill-opacity=".027" d="M16.5 191a2.5 2.5 0 012.5-2.5h250a2.5 2.5 0 012.5 2.5v14a2.5 2.5 0 01-2.5 2.5H19a2.5 2.5 0 01-2.5-2.5z"/><path stroke="#D7DAD7" d="M16.5 191a2.5 2.5 0 012.5-2.5h250a2.5 2.5 0 012.5 2.5v14a2.5 2.5 0 01-2.5 2.5H19a2.5 2.5 0 01-2.5-2.5z"/><path fill="#686E67" d="M36.142 201h-2.133v-6.909h2.227q1.006 0 1.72.415.716.411 1.097 1.184.381.77.381 1.842 0 1.08-.384 1.859-.385.775-1.12 1.194-.736.415-1.788.415m-1.296-.742h1.242q.855 0 1.42-.331.562-.33.84-.941.276-.61.277-1.454 0-.837-.274-1.441a2.02 2.02 0 00-.816-.931q-.543-.327-1.353-.327h-1.336zm5.884.742v-5.182h.796V201zm.405-6.045a.56.56 0 01-.402-.159.5.5 0 01-.165-.381q0-.224.165-.381a.56.56 0 01.402-.159q.232 0 .398.159a.5.5 0 01.168.381.5.5 0 01-.168.381.55.55 0 01-.398.159m5.52 2.024-.716.202a1.3 1.3 0 00-.199-.347.96.96 0 00-.35-.284 1.3 1.3 0 00-.57-.111q-.477 0-.794.219-.313.216-.313.55 0 .297.216.469t.674.287l.77.189q.694.168 1.035.516.34.344.341.887 0 .445-.256.796a1.7 1.7 0 01-.709.554 2.6 2.6 0 01-1.06.202q-.792 0-1.311-.344-.52-.345-.658-1.005l.755-.189q.108.418.409.627.303.21.792.209.557 0 .884-.236.33-.24.33-.573a.6.6 0 00-.188-.452q-.19-.186-.58-.277l-.864-.203q-.711-.168-1.046-.522a1.27 1.27 0 01-.33-.894q0-.439.246-.776.249-.338.678-.53.432-.192.978-.192.77 0 1.208.337.442.338.627.891m2.817 4.142a2.1 2.1 0 01-.894-.185 1.54 1.54 0 01-.637-.543 1.54 1.54 0 01-.236-.864q0-.445.175-.722.175-.28.469-.438.294-.159.648-.237a8 8 0 01.718-.128q.472-.06.766-.091.297-.033.432-.111.138-.078.138-.27v-.027q0-.5-.273-.776-.27-.276-.82-.277-.57 0-.894.25a1.5 1.5 0 00-.455.533l-.756-.27q.202-.472.54-.735.34-.267.742-.371a3 3 0 01.796-.108q.25 0 .574.06.327.058.63.24.307.182.51.55.202.367.202.985V201h-.796v-.702h-.04a1.4 1.4 0 01-.27.361 1.6 1.6 0 01-.503.328q-.314.134-.766.134m.122-.715q.472 0 .796-.185a1.27 1.27 0 00.661-1.097v-.728q-.05.06-.223.111-.168.047-.39.084a16 16 0 01-.763.101 3 3 0 00-.58.132 1 1 0 00-.432.267q-.162.175-.162.479 0 .414.307.627.31.21.786.209m3.814.594v-6.909h.797v2.55h.067q.089-.135.243-.344.158-.211.452-.378.297-.168.803-.168.654 0 1.154.327t.779.928q.28.6.28 1.417 0 .822-.28 1.427-.28.6-.776.931a2.03 2.03 0 01-1.144.327q-.498 0-.8-.165-.3-.17-.461-.382a5 5 0 01-.25-.357h-.094V201zm.783-2.591q0 .587.172 1.036.172.445.503.698.33.25.81.25.498 0 .833-.263.337-.266.506-.716.171-.452.172-1.005 0-.547-.169-.985a1.5 1.5 0 00-.502-.698q-.334-.26-.84-.26-.486 0-.817.246-.33.243-.5.682-.168.435-.168 1.015m5.806-4.318V201h-.796v-6.909zM61.455 201v-5.182h.796V201zm.405-6.045a.56.56 0 01-.401-.159.5.5 0 01-.166-.381q0-.224.166-.381a.56.56 0 01.401-.159q.233 0 .398.159a.5.5 0 01.169.381.5.5 0 01-.169.381.55.55 0 01-.398.159m2.646 2.928V201h-.796v-5.182h.769v.81h.067q.183-.395.554-.634.37-.243.958-.243.525 0 .92.216.396.212.615.647.219.432.219 1.093V201h-.796v-3.239q0-.61-.317-.951-.318-.344-.87-.344-.382 0-.682.165a1.2 1.2 0 00-.47.483 1.6 1.6 0 00-.171.769m6.852 5.168q-.576 0-.991-.148a2.1 2.1 0 01-.692-.385 2.1 2.1 0 01-.435-.506l.634-.445q.108.141.273.324.165.185.452.32.29.138.76.138.627 0 1.035-.303.408-.304.408-.952v-1.052h-.067a5 5 0 01-.25.351q-.158.206-.459.367-.296.159-.802.159-.628 0-1.127-.297a2.1 2.1 0 01-.786-.863q-.287-.567-.287-1.377 0-.796.28-1.386.28-.594.78-.918a2.06 2.06 0 011.153-.327q.506 0 .803.168.3.167.459.378.161.21.25.344h.08v-.823h.77v5.33q0 .669-.304 1.087-.3.422-.81.617a3 3 0 01-1.127.199m-.027-2.847q.48 0 .81-.219a1.37 1.37 0 00.503-.631 2.6 2.6 0 00.172-.985q0-.56-.169-.989a1.5 1.5 0 00-.5-.671q-.33-.243-.816-.243-.505 0-.843.256-.334.257-.503.689-.165.431-.165.958 0 .54.169.954.171.413.506.648.338.233.836.233m8.65-4.386v.675h-2.685v-.675zm-1.902-1.241h.796v4.939q0 .337.098.506.101.165.256.222.159.054.334.054a1.4 1.4 0 00.35-.04l.163.715a1.8 1.8 0 01-.594.094q-.337 0-.661-.145a1.3 1.3 0 01-.533-.442q-.21-.296-.21-.748zm4.007 3.306V201h-.796v-6.909h.796v2.537h.068q.181-.401.546-.638.368-.239.979-.239.53 0 .927.212.399.21.618.645.222.431.222 1.099V201h-.796v-3.239q0-.617-.32-.954-.318-.342-.88-.341-.393 0-.702.165t-.486.483a1.57 1.57 0 00-.176.769m6.99 3.225q-.75 0-1.292-.331a2.2 2.2 0 01-.834-.931q-.29-.6-.29-1.396 0-.797.29-1.404.294-.61.817-.951.525-.344 1.228-.344.405 0 .8.135.394.135.718.438.324.3.516.796t.192 1.222v.337h-3.994v-.688h3.185q0-.44-.176-.783a1.33 1.33 0 00-1.241-.742q-.477 0-.824.236-.344.233-.53.607-.185.375-.185.803v.459q0 .587.203.995.205.405.57.618.364.209.847.209.314 0 .566-.088a1.2 1.2 0 00.442-.27 1.2 1.2 0 00.287-.452l.77.216q-.123.391-.409.688a2 2 0 01-.708.459 2.6 2.6 0 01-.948.162m7.027-4.129-.715.202a1.3 1.3 0 00-.2-.347.96.96 0 00-.35-.284 1.3 1.3 0 00-.57-.111q-.477 0-.793.219-.314.216-.314.55 0 .297.216.469t.675.287l.769.189q.695.168 1.035.516.341.344.341.887 0 .445-.256.796a1.7 1.7 0 01-.709.554 2.6 2.6 0 01-1.059.202q-.793 0-1.312-.344-.52-.345-.658-1.005l.756-.189q.108.418.408.627.303.21.793.209.555 0 .883-.236.33-.24.331-.573a.6.6 0 00-.189-.452q-.19-.186-.58-.277l-.864-.203q-.711-.168-1.046-.522a1.27 1.27 0 01-.33-.894q0-.439.246-.776.25-.338.678-.53.432-.192.978-.192.77 0 1.208.337.442.338.628.891m3.465 4.129q-.749 0-1.292-.331a2.2 2.2 0 01-.833-.931q-.29-.6-.29-1.396 0-.797.29-1.404.294-.61.816-.951.526-.344 1.228-.344.405 0 .8.135t.718.438q.324.3.517.796.192.496.192 1.222v.337h-3.995v-.688h3.185q0-.44-.175-.783a1.33 1.33 0 00-1.242-.742q-.475 0-.823.236-.345.233-.53.607-.185.375-.185.803v.459q0 .587.202.995.207.405.57.618.365.209.847.209.314 0 .567-.088.256-.091.442-.27.185-.182.287-.452l.769.216q-.122.391-.408.688a2 2 0 01-.709.459 2.6 2.6 0 01-.948.162m6.825-3.225V201h-.796v-6.909h.796v2.537h.067a1.47 1.47 0 01.547-.638q.368-.239.978-.239.53 0 .928.212.398.21.617.645.223.431.223 1.099V201h-.796v-3.239q0-.617-.321-.954-.316-.342-.88-.341-.391 0-.702.165-.306.165-.486.483a1.56 1.56 0 00-.175.769m6.922 3.225a2.26 2.26 0 01-1.232-.334 2.3 2.3 0 01-.823-.935q-.293-.6-.293-1.403 0-.81.293-1.413.297-.605.823-.938a2.26 2.26 0 011.232-.334q.702 0 1.228.334.53.333.823.938.297.603.297 1.413 0 .803-.297 1.403a2.24 2.24 0 01-.823.935q-.526.334-1.228.334m0-.715q.532 0 .877-.274.344-.273.509-.718.166-.446.166-.965a2.8 2.8 0 00-.166-.968 1.63 1.63 0 00-.509-.725q-.345-.277-.877-.277-.534 0-.877.277-.345.276-.51.725t-.165.968.165.965.51.718q.343.274.877.274m7.234-3.414-.716.202a1.3 1.3 0 00-.199-.347.95.95 0 00-.351-.284 1.3 1.3 0 00-.57-.111q-.476 0-.792.219-.314.216-.314.55 0 .297.216.469t.674.287l.77.189q.695.168 1.035.516.34.344.341.887 0 .445-.256.796a1.7 1.7 0 01-.709.554 2.6 2.6 0 01-1.059.202q-.793 0-1.312-.344-.52-.345-.658-1.005l.755-.189q.108.418.409.627.303.21.792.209.557 0 .884-.236.331-.24.331-.573a.6.6 0 00-.189-.452q-.189-.186-.58-.277l-.864-.203q-.711-.168-1.046-.522a1.27 1.27 0 01-.33-.894q0-.439.246-.776.249-.338.678-.53.432-.192.978-.192.77 0 1.208.337.442.338.628.891m3.546-1.161v.675h-2.685v-.675zm-1.903-1.241h.797v4.939q0 .337.097.506.101.165.257.222.158.054.334.054.13 0 .216-.013l.135-.027.161.715a1.7 1.7 0 01-.593.094q-.338 0-.661-.145a1.3 1.3 0 01-.533-.442q-.21-.296-.21-.748zm6.678 2.402-.715.202a1.3 1.3 0 00-.199-.347.95.95 0 00-.351-.284 1.3 1.3 0 00-.57-.111q-.475 0-.793.219-.313.216-.313.55a.57.57 0 00.215.469q.216.172.675.287l.769.189q.696.168 1.036.516.34.344.341.887 0 .445-.257.796a1.7 1.7 0 01-.708.554 2.6 2.6 0 01-1.059.202q-.793 0-1.313-.344-.519-.345-.658-1.005l.756-.189q.108.418.408.627.304.21.793.209.557 0 .884-.236.33-.24.331-.573a.6.6 0 00-.189-.452q-.19-.186-.581-.277l-.863-.203q-.712-.168-1.046-.522a1.27 1.27 0 01-.331-.894q0-.439.247-.776.249-.338.678-.53.432-.192.978-.192.769 0 1.208.337.442.338.627.891m7.231 1.902v-3.063h.796V201h-.796v-.877h-.054a1.7 1.7 0 01-.567.671q-.384.273-.972.273-.485 0-.863-.212a1.5 1.5 0 01-.594-.648q-.216-.435-.216-1.096v-3.293h.796v3.239q0 .567.317.904.32.337.817.337.297 0 .604-.152a1.3 1.3 0 00.519-.465q.213-.314.213-.8m3.05-.998V201h-.796v-5.182h.769v.81h.068q.182-.395.553-.634.371-.243.958-.243.526 0 .921.216.395.212.614.647.219.432.219 1.093V201h-.796v-3.239q0-.61-.317-.951-.317-.344-.87-.344-.382 0-.682.165-.297.165-.469.483a1.6 1.6 0 00-.172.769m7.015-2.065v.675h-2.686v-.675zm-1.903-1.241h.796v4.939q0 .337.098.506.101.165.257.222.158.054.334.054a1.4 1.4 0 00.35-.04l.162.715a1.8 1.8 0 01-.593.094q-.338 0-.662-.145a1.3 1.3 0 01-.533-.442q-.209-.296-.209-.748zm3.1 6.423v-5.182h.797V201zm.405-6.045a.56.56 0 01-.401-.159.5.5 0 01-.165-.381q0-.224.165-.381a.56.56 0 01.401-.159q.233 0 .398.159a.5.5 0 01.169.381.5.5 0 01-.169.381.55.55 0 01-.398.159m2.646-.864V201h-.796v-6.909zm4.13 6.909v-5.182h.769v.783h.054q.143-.386.513-.624.37-.24.837-.24a7 7 0 01.418.014v.809a3.4 3.4 0 00-.486-.054 1.4 1.4 0 00-.674.159 1.167 1.167 0 00-.635 1.056V201zm5.482.108q-.702 0-1.231-.334a2.27 2.27 0 01-.823-.935q-.294-.6-.294-1.403 0-.81.294-1.413.297-.605.823-.938.53-.334 1.231-.334t1.228.334q.53.333.823.938.297.603.297 1.413 0 .803-.297 1.403-.293.601-.823.935-.526.334-1.228.334m0-.715q.534 0 .877-.274.345-.273.51-.718.165-.446.165-.965 0-.52-.165-.968a1.6 1.6 0 00-.51-.725q-.343-.277-.877-.277-.533 0-.877.277a1.63 1.63 0 00-.509.725 2.8 2.8 0 00-.166.968q0 .52.166.965.165.445.509.718.344.274.877.274m5.669.715q-.702 0-1.232-.334a2.27 2.27 0 01-.823-.935q-.293-.6-.293-1.403 0-.81.293-1.413.297-.605.823-.938.53-.334 1.232-.334.701 0 1.228.334.53.333.823.938.297.603.297 1.413 0 .803-.297 1.403a2.24 2.24 0 01-.823.935q-.527.334-1.228.334m0-.715q.532 0 .877-.274.344-.273.509-.718.165-.446.165-.965 0-.52-.165-.968a1.63 1.63 0 00-.509-.725q-.345-.277-.877-.277-.534 0-.877.277-.345.276-.51.725t-.165.968.165.965.51.718q.343.274.877.274m5.817-4.575v.675h-2.686v-.675zm-1.903-1.241h.796v4.939q0 .337.098.506.101.165.256.222.159.054.334.054a1.4 1.4 0 00.351-.04l.162.715a1.8 1.8 0 01-.594.094q-.337 0-.661-.145a1.3 1.3 0 01-.533-.442q-.209-.296-.209-.748zm7.877 6.531q-.729 0-1.255-.344a2.24 2.24 0 01-.809-.948 3.2 3.2 0 01-.284-1.38q0-.79.29-1.393.294-.608.817-.948.526-.344 1.228-.344.546 0 .985.202.439.203.718.567.28.364.348.85h-.796a1.24 1.24 0 00-.405-.627q-.31-.277-.837-.277-.465 0-.816.243a1.57 1.57 0 00-.543.678q-.193.435-.193 1.022 0 .6.189 1.046.192.445.54.691.35.247.823.247.31 0 .564-.108a1.17 1.17 0 00.678-.796h.796a1.85 1.85 0 01-.334.826 1.87 1.87 0 01-.699.58 2.24 2.24 0 01-1.005.213m4.727.013q-.494 0-.894-.185a1.53 1.53 0 01-.638-.543q-.237-.358-.236-.864 0-.445.175-.722.175-.28.469-.438.294-.159.648-.237a8 8 0 01.718-.128q.473-.06.766-.091.297-.033.432-.111.138-.078.138-.27v-.027q0-.5-.273-.776-.27-.276-.82-.277-.57 0-.894.25a1.5 1.5 0 00-.455.533l-.756-.27q.203-.472.54-.735a2 2 0 01.742-.371q.405-.108.796-.108.25 0 .574.06.327.058.631.24.306.182.509.55.203.367.203.985V201h-.797v-.702h-.04a1.4 1.4 0 01-.27.361 1.6 1.6 0 01-.503.328 2 2 0 01-.765.134m.121-.715q.472 0 .796-.185.327-.186.493-.479.168-.294.168-.618v-.728q-.05.06-.222.111-.169.047-.392.084-.22.034-.428.061l-.334.04q-.31.04-.58.132a1 1 0 00-.432.267q-.162.175-.162.479 0 .414.307.627.31.21.786.209m6.972-1.525v-3.063h.796V201h-.796v-.877h-.054q-.182.395-.566.671-.386.273-.972.273-.486 0-.864-.212a1.5 1.5 0 01-.593-.648q-.216-.435-.216-1.096v-3.293h.796v3.239q0 .567.317.904.321.337.816.337.297 0 .604-.152.31-.151.52-.465.212-.314.212-.8m5.925-1.902-.715.202a1.3 1.3 0 00-.199-.347.96.96 0 00-.351-.284 1.3 1.3 0 00-.57-.111q-.475 0-.793.219-.314.216-.314.55 0 .297.216.469t.675.287l.769.189q.696.168 1.036.516.34.344.341.887 0 .445-.257.796a1.7 1.7 0 01-.708.554 2.6 2.6 0 01-1.06.202q-.792 0-1.312-.344-.519-.345-.658-1.005l.756-.189q.108.418.408.627.304.21.793.209.557 0 .884-.236.33-.24.33-.573a.6.6 0 00-.188-.452q-.19-.186-.581-.277l-.863-.203q-.712-.168-1.046-.522a1.27 1.27 0 01-.331-.894q0-.439.247-.776.249-.338.678-.53a2.4 2.4 0 01.978-.192q.769 0 1.208.337.441.338.627.891m3.466 4.129q-.75 0-1.292-.331a2.2 2.2 0 01-.834-.931q-.29-.6-.29-1.396 0-.797.29-1.404.294-.61.817-.951.526-.344 1.228-.344.405 0 .799.135.395.135.719.438.324.3.516.796t.192 1.222v.337h-3.994v-.688h3.185q0-.44-.176-.783a1.33 1.33 0 00-.492-.543 1.4 1.4 0 00-.749-.199 1.43 1.43 0 00-.823.236q-.344.233-.53.607-.186.375-.186.803v.459q0 .587.203.995.206.405.57.618.364.209.847.209.314 0 .566-.088.257-.091.442-.27.186-.182.287-.452l.769.216q-.121.391-.408.688a2 2 0 01-.708.459 2.6 2.6 0 01-.948.162m6.028-.108v-5.182h.796V201zm.405-6.045a.56.56 0 01-.401-.159.5.5 0 01-.166-.381q0-.224.166-.381a.56.56 0 01.401-.159q.233 0 .398.159a.5.5 0 01.169.381.5.5 0 01-.169.381.55.55 0 01-.398.159m5.52 2.024-.715.202a1.3 1.3 0 00-.199-.347 1 1 0 00-.351-.284 1.3 1.3 0 00-.57-.111q-.475 0-.793.219-.314.216-.314.55 0 .297.216.469t.675.287l.769.189q.695.168 1.036.516.34.344.341.887 0 .445-.257.796a1.7 1.7 0 01-.708.554 2.6 2.6 0 01-1.06.202q-.793 0-1.312-.344-.52-.345-.658-1.005l.756-.189q.108.418.408.627.304.21.793.209.557 0 .884-.236.33-.24.33-.573a.6.6 0 00-.188-.452q-.19-.186-.581-.277l-.863-.203q-.713-.168-1.046-.522a1.27 1.27 0 01-.331-.894q0-.439.246-.776.25-.338.679-.53a2.4 2.4 0 01.978-.192q.769 0 1.208.337.441.338.627.891m3.965 4.021v-5.182h.769v.783h.054q.142-.386.513-.624.37-.24.837-.24a7 7 0 01.418.014v.809a3.4 3.4 0 00-.486-.054q-.378 0-.675.159a1.158 1.158 0 00-.634 1.056V201zm5.549.108q-.749 0-1.292-.331a2.2 2.2 0 01-.833-.931q-.29-.6-.29-1.396 0-.797.29-1.404.294-.61.817-.951.526-.344 1.227-.344.405 0 .8.135t.719.438q.324.3.516.796t.192 1.222v.337h-3.994v-.688h3.184q0-.44-.175-.783a1.33 1.33 0 00-1.242-.742q-.475 0-.823.236a1.55 1.55 0 00-.529.607q-.186.375-.186.803v.459q0 .587.203.995.205.405.57.618.364.209.846.209.315 0 .567-.088.256-.091.442-.27.185-.182.287-.452l.769.216q-.121.391-.408.688a2 2 0 01-.709.459 2.6 2.6 0 01-.948.162m7.028-4.129-.716.202a1.3 1.3 0 00-.199-.347.96.96 0 00-.35-.284 1.3 1.3 0 00-.571-.111q-.475 0-.792.219-.315.216-.314.55 0 .297.216.469t.674.287l.77.189q.694.168 1.035.516.341.344.341.887 0 .445-.256.796a1.7 1.7 0 01-.709.554 2.6 2.6 0 01-1.059.202q-.793 0-1.312-.344-.52-.345-.658-1.005l.755-.189q.108.418.409.627.303.21.792.209.558 0 .884-.236.331-.24.331-.573a.6.6 0 00-.189-.452q-.189-.186-.58-.277l-.864-.203q-.711-.168-1.046-.522a1.27 1.27 0 01-.33-.894q0-.439.246-.776.249-.338.678-.53.432-.192.978-.192.77 0 1.208.337.442.338.628.891m3.398 4.129q-.702 0-1.232-.334a2.27 2.27 0 01-.823-.935q-.293-.6-.293-1.403 0-.81.293-1.413.297-.605.823-.938.53-.334 1.232-.334.701 0 1.228.334.53.333.823.938.297.603.297 1.413 0 .803-.297 1.403a2.24 2.24 0 01-.823.935q-.527.334-1.228.334m0-.715q.532 0 .877-.274.344-.273.509-.718.166-.446.166-.965 0-.52-.166-.968a1.63 1.63 0 00-.509-.725q-.345-.277-.877-.277-.534 0-.877.277-.345.276-.51.725t-.165.968.165.965.51.718q.343.274.877.274m4.359-6.302V201h-.796v-6.909zm5.696 1.727L238.728 201h-.809l-1.916-5.182h.863l1.431 4.129h.054l1.43-4.129zm3.038 5.29q-.75 0-1.293-.331a2.2 2.2 0 01-.833-.931q-.29-.6-.29-1.396 0-.797.29-1.404.294-.61.817-.951.525-.344 1.228-.344.404 0 .799.135t.719.438q.324.3.516.796t.192 1.222v.337h-3.994v-.688h3.184q0-.44-.175-.783a1.33 1.33 0 00-1.241-.742q-.477 0-.824.236a1.55 1.55 0 00-.529.607q-.186.375-.186.803v.459q0 .587.203.995.206.405.57.618.364.209.847.209.314 0 .566-.088.257-.091.442-.27.186-.182.287-.452l.769.216q-.122.391-.408.688a2 2 0 01-.708.459 2.6 2.6 0 01-.948.162m5.313 0q-.648 0-1.144-.327a2.2 2.2 0 01-.776-.931q-.28-.605-.28-1.427 0-.817.28-1.417t.78-.928a2.06 2.06 0 011.153-.327q.506 0 .8.168.297.167.452.378a6 6 0 01.246.344h.068v-2.55h.796V201h-.769v-.796h-.095a5 5 0 01-.249.357 1.5 1.5 0 01-.463.382q-.3.165-.799.165m.108-.715q.478 0 .81-.25.33-.253.502-.698.172-.449.172-1.036 0-.58-.168-1.015a1.5 1.5 0 00-.5-.682q-.33-.246-.816-.246-.506 0-.844.26-.334.256-.502.698a2.8 2.8 0 00-.165.985q0 .553.168 1.005.173.45.506.716.338.263.837.263m4.416.661a.59.59 0 01-.429-.179.58.58 0 01-.178-.428q0-.25.178-.429a.59.59 0 01.429-.179q.25 0 .428.179.18.179.179.429 0 .165-.084.303a.6.6 0 01-.219.223.6.6 0 01-.304.081"/><mask id="widget-__e" fill="#fff"><path d="M16 218h256v48H16z"/></mask><path fill="#D7DAD7" d="M16 219h256v-2H16z" mask="url(#widget-__e)"/><path fill="#1D211C" d="M21.266 230.074a1.16 1.16 0 00-.528-.875q-.465-.312-1.16-.312-.503 0-.875.16a1.34 1.34 0 00-.57.433q-.199.278-.203.629 0 .294.14.504t.364.356q.226.14.484.234.258.09.488.149l.79.207q.367.089.765.25.399.156.742.414a2 2 0 01.563.644q.219.387.218.934 0 .668-.347 1.195-.344.528-1.004.832-.657.305-1.594.305-.887 0-1.535-.281a2.4 2.4 0 01-1.02-.797 2.3 2.3 0 01-.406-1.231h1.16q.036.441.285.731.255.285.649.425t.863.141q.524 0 .934-.164.41-.168.648-.469t.238-.703a.87.87 0 00-.207-.597 1.5 1.5 0 00-.554-.383 6 6 0 00-.774-.266l-.957-.262q-.957-.265-1.515-.769-.555-.508-.555-1.336 0-.684.371-1.195.375-.516 1.012-.801.635-.285 1.43-.285.8 0 1.417.285.617.28.977.773.36.492.375 1.125zm5.159 6.047q-.879 0-1.516-.379a2.54 2.54 0 01-.98-1.074q-.345-.695-.344-1.625 0-.922.344-1.625.344-.707.96-1.102.622-.394 1.45-.394.5 0 .969.164.473.164.851.523.38.356.598.93.223.575.223 1.395v.406h-4.735v-.856h3.64a1.8 1.8 0 00-.195-.836 1.4 1.4 0 00-.535-.582 1.5 1.5 0 00-.808-.214q-.508 0-.883.25a1.67 1.67 0 00-.574.644 1.9 1.9 0 00-.204.859v.645q0 .621.22 1.055.218.433.609.66.395.226.918.226.344 0 .62-.097.279-.098.481-.293.204-.195.313-.485l1.05.211a1.96 1.96 0 01-.472.84q-.34.36-.848.559-.508.195-1.152.195m5.629.012q-.57 0-1.032-.211a1.73 1.73 0 01-.73-.621q-.27-.411-.27-.996 0-.512.196-.836a1.44 1.44 0 01.531-.516q.336-.191.746-.285.41-.098.836-.152l.875-.102q.336-.043.492-.133.156-.093.157-.308v-.028q0-.526-.297-.816-.294-.293-.875-.293-.61 0-.957.266-.348.266-.48.585l-1.044-.265q.207-.547.586-.875.379-.332.863-.477a3.44 3.44 0 011.747-.066 2.2 2.2 0 01.753.301q.355.218.582.632.227.416.227 1.086V236h-1.086v-.816h-.047a1.6 1.6 0 01-.332.437 1.8 1.8 0 01-.582.367 2.3 2.3 0 01-.86.145m.226-.906q.5 0 .852-.196.355-.199.539-.515.183-.32.184-.68v-.793a.6.6 0 01-.247.121q-.18.051-.414.09a10 10 0 01-.453.066l-.367.047q-.344.047-.633.149a1.07 1.07 0 00-.46.296q-.173.192-.173.512 0 .445.328.676.333.227.844.227m4.265.773v-6h1.07v.941h.063q.164-.472.582-.75.417-.28.949-.281.105 0 .254.008.152.004.238.016v1.074a2 2 0 00-.238-.043 2.4 2.4 0 00-.36-.028q-.417 0-.746.176a1.35 1.35 0 00-.52.485 1.33 1.33 0 00-.187.707V236zm6.5.121q-.864 0-1.488-.394a2.63 2.63 0 01-.957-1.098q-.333-.699-.332-1.602 0-.914.343-1.613.345-.703.961-1.098.621-.394 1.461-.394.668 0 1.195.246.532.246.86.695.328.446.394 1.039H44.4a1.4 1.4 0 00-.437-.726q-.34-.309-.914-.309-.5 0-.875.262a1.7 1.7 0 00-.586.742q-.207.477-.207 1.129 0 .665.203 1.152.207.489.582.754.375.266.883.266.344 0 .617-.121a1.26 1.26 0 00.465-.356q.19-.23.27-.558h1.081a2.17 2.17 0 01-1.218 1.726q-.52.258-1.22.258m4.821-3.695V236h-1.105v-8h1.093v2.969h.075q.21-.48.64-.762.434-.285 1.133-.285.618 0 1.078.25.465.25.719.754.258.504.258 1.258V236H50.65v-3.695q0-.672-.347-1.043-.348-.375-.965-.375-.426 0-.758.183-.332.18-.523.524-.192.343-.192.832M56.401 236v-8h2.813q.934 0 1.543.32.613.317.914.883.3.563.3 1.289.001.731-.304 1.285-.3.551-.914.864-.61.308-1.535.308H57.05v-1h2.074q.602 0 .977-.172.375-.176.547-.5.175-.324.175-.785a1.7 1.7 0 00-.175-.797 1.17 1.17 0 00-.551-.519q-.375-.184-.985-.184H57.55V236zm3.903-3.605L62.276 236h-1.308l-1.942-3.605zm4.825 3.738q-.57 0-1.031-.211a1.73 1.73 0 01-.73-.621q-.27-.411-.27-.996 0-.512.195-.836a1.44 1.44 0 01.531-.516q.336-.191.746-.285.41-.098.836-.152l.875-.102q.336-.043.492-.133.157-.093.157-.308v-.028q0-.526-.297-.816-.293-.293-.875-.293-.609 0-.957.266t-.48.585l-1.044-.265q.207-.547.586-.875.379-.332.864-.477a3.44 3.44 0 011.746-.066 2.2 2.2 0 01.754.301q.354.218.582.632.225.416.226 1.086V236H66.95v-.816h-.047a1.6 1.6 0 01-.332.437 1.8 1.8 0 01-.582.367 2.3 2.3 0 01-.86.145m.227-.906q.5 0 .851-.196.356-.199.54-.515.182-.32.183-.68v-.793a.6.6 0 01-.246.121q-.18.051-.415.09a10 10 0 01-.453.066l-.367.047q-.343.047-.633.149a1.07 1.07 0 00-.46.296q-.172.192-.172.512 0 .445.328.676.331.227.844.227m5.37-2.801V236H69.62v-6h1.063v.969h.074q.21-.477.648-.762.442-.285 1.117-.285.615 0 1.07.254.462.254.716.758.257.504.253 1.25V236h-1.105v-3.695q0-.668-.348-1.043-.343-.375-.949-.375-.414 0-.738.183-.324.18-.512.524-.183.343-.183.832m7.928 5.949q-.703 0-1.21-.184a2.4 2.4 0 01-.829-.484 2.1 2.1 0 01-.488-.652l.938-.438q.109.169.288.367.184.2.497.34.312.141.812.141.68 0 1.121-.328.445-.329.445-1.047v-1.188h-.074q-.105.184-.3.422a1.6 1.6 0 01-.54.41q-.344.177-.902.176-.715 0-1.285-.336a2.37 2.37 0 01-.902-.992q-.332-.656-.332-1.609 0-.947.324-1.629.328-.688.898-1.055a2.37 2.37 0 011.309-.367q.563 0 .906.187.348.188.54.434.19.246.292.426h.09V230h1.078v6.145q0 .77-.355 1.261a2.07 2.07 0 01-.965.731 3.7 3.7 0 01-1.356.238m-.015-3.398q.515 0 .87-.243.36-.242.544-.691.187-.453.187-1.082 0-.618-.183-1.086-.18-.473-.54-.734-.355-.266-.878-.266-.543 0-.907.277a1.7 1.7 0 00-.543.75 3 3 0 00-.18 1.059q0 .597.184 1.051t.547.711q.363.254.899.254m6.857 1.144q-.879 0-1.515-.379a2.54 2.54 0 01-.981-1.074q-.344-.695-.344-1.625 0-.922.344-1.625.345-.707.96-1.102.622-.394 1.45-.394.5 0 .969.164.473.164.852.523.378.356.597.93.223.575.223 1.395v.406h-4.735v-.856h3.641a1.8 1.8 0 00-.195-.836 1.4 1.4 0 00-.535-.582 1.5 1.5 0 00-.809-.214q-.508 0-.883.25a1.67 1.67 0 00-.574.644 1.9 1.9 0 00-.203.859v.645q0 .621.219 1.055.218.433.609.66.395.226.918.226.344 0 .621-.097.277-.098.48-.293.204-.195.313-.485l1.05.211a1.96 1.96 0 01-.472.84q-.34.36-.848.559-.507.195-1.152.195m6.935-.121v-8h4.968v.992h-3.82v2.504h3.563v.992h-3.563v2.52h3.871V236zm7.379-6 1.351 2.363 1.36-2.363h1.226l-1.891 3 1.903 3h-1.223l-1.375-2.266L99.79 236h-1.227l1.879-3-1.859-3zm5.163 8.25V230h1.078v.969h.097q.106-.18.293-.426.188-.246.528-.434.344-.187.906-.187.734 0 1.305.371.573.367.898 1.062.328.691.328 1.657 0 .968-.324 1.664-.324.695-.894 1.07a2.33 2.33 0 01-1.301.371q-.555 0-.899-.183a1.7 1.7 0 01-.539-.434 4 4 0 01-.301-.43h-.07v3.18zm1.086-5.25q0 .644.183 1.133.187.484.543.758.36.273.875.273.54 0 .899-.285.363-.285.546-.774.184-.492.184-1.105 0-.606-.18-1.086-.178-.48-.543-.758-.363-.28-.906-.281-.519 0-.879.266a1.63 1.63 0 00-.539.746 3.1 3.1 0 00-.183 1.113m7.431 3.133q-.57 0-1.031-.211a1.73 1.73 0 01-.73-.621q-.27-.411-.27-.996 0-.512.195-.836.2-.328.532-.516a2.7 2.7 0 01.746-.285q.41-.098.836-.152l.875-.102q.336-.043.492-.133.156-.093.156-.308v-.028q0-.526-.297-.816-.293-.293-.875-.293-.609 0-.957.266t-.48.585l-1.043-.265a2.1 2.1 0 01.586-.875q.378-.332.863-.477a3.44 3.44 0 011.746-.066q.399.078.754.301.355.218.582.632.226.416.226 1.086V236h-1.085v-.816h-.047a1.7 1.7 0 01-.332.437 1.8 1.8 0 01-.582.367 2.3 2.3 0 01-.86.145m.227-.906q.5 0 .851-.196.356-.199.539-.515.184-.32.184-.68v-.793a.6.6 0 01-.246.121q-.18.051-.414.09a10 10 0 01-.453.066l-.367.047q-.345.047-.633.149a1.06 1.06 0 00-.461.296q-.172.192-.172.512 0 .445.328.676.332.227.844.227m5.37-2.801V236h-1.106v-6h1.063v.969h.074q.211-.477.649-.762.44-.285 1.117-.285.613 0 1.07.254.461.254.715.758.257.504.254 1.25V236h-1.106v-3.695q0-.668-.347-1.043-.344-.375-.949-.375-.415 0-.739.183a1.3 1.3 0 00-.511.524q-.184.343-.184.832m7.686 3.691a2.34 2.34 0 01-1.304-.371q-.567-.375-.891-1.07t-.324-1.664q0-.966.324-1.657.328-.695.899-1.062a2.36 2.36 0 011.308-.371q.563 0 .903.187.343.188.531.434.187.246.293.426h.07V228h1.109v8h-1.078v-.93h-.101a4 4 0 01-.301.43 1.7 1.7 0 01-.539.434q-.344.183-.899.183m.227-.953q.516 0 .871-.273.36-.274.543-.758a3.2 3.2 0 00.188-1.133q0-.637-.184-1.113-.18-.481-.539-.746-.355-.266-.879-.266-.543 0-.906.281-.36.278-.543.758-.18.48-.18 1.086 0 .613.184 1.105.183.489.547.774.363.285.898.285m6.954.957q-.879 0-1.516-.379a2.54 2.54 0 01-.98-1.074q-.344-.695-.344-1.625 0-.922.344-1.625.343-.707.961-1.102.621-.394 1.449-.394.5 0 .969.164.473.164.851.523.38.356.598.93.223.575.223 1.395v.406h-4.735v-.856h3.641a1.8 1.8 0 00-.195-.836 1.4 1.4 0 00-.535-.582 1.5 1.5 0 00-.809-.214q-.508 0-.883.25a1.67 1.67 0 00-.574.644 1.9 1.9 0 00-.203.859v.645q0 .621.219 1.055.218.433.609.66.394.226.918.226.344 0 .621-.097.278-.098.48-.293.204-.195.313-.485l1.051.211a1.96 1.96 0 01-.473.84q-.34.36-.848.559-.507.195-1.152.195m6.129-.004q-.734 0-1.305-.371-.566-.375-.89-1.07t-.325-1.664q0-.966.325-1.657.327-.695.898-1.062a2.36 2.36 0 011.309-.371q.563 0 .902.187.344.188.531.434t.293.426h.071V228h1.109v8h-1.078v-.93h-.102a3.5 3.5 0 01-.3.43 1.7 1.7 0 01-.54.434q-.343.183-.898.183m.227-.953q.515 0 .871-.273.358-.274.543-.758.187-.489.187-1.133 0-.637-.183-1.113-.18-.481-.54-.746-.355-.266-.878-.266-.543 0-.907.281-.358.278-.543.758a3.1 3.1 0 00-.179 1.086q0 .613.183 1.105.184.489.547.774t.899.285"/><g clip-path="url(#widget-__f)"><path fill="#B0B3AF" fill-rule="evenodd" d="M266 226.701a5.298 5.298 0 100 10.596 5.298 5.298 0 000-10.596m-4.538 5.298a4.538 4.538 0 119.077 0 4.538 4.538 0 01-9.077 0m5.138-2.399a.6.6 0 11-1.201-.001.6.6 0 011.201.001m-1.8 1.2h1.2a.4.4 0 01.4.4v2.8h.8v.8h-2.4v-.8h.8v-2.4h-.8z" clip-rule="evenodd"/></g><path fill="#686E67" d="M20.008 246.091V253h-.837v-6.032h-.04l-1.687 1.12v-.85l1.727-1.147zm5.314-.324-2.226 8.272h-.73l2.227-8.272zm.768 5.816v-.688l3.037-4.804h.499v1.066h-.338l-2.294 3.63v.054h4.09v.742zM29.343 253v-6.909h.796V253zm5.516-7.233-2.226 8.272h-.73l2.227-8.272zM35.992 253v-.607l2.28-2.497q.401-.438.662-.762.26-.327.384-.614a1.5 1.5 0 0 0 .128-.607 1.12 1.12 0 0 0-.647-1.043 1.5 1.5 0 0 0-.675-.145q-.398 0-.695.165-.294.162-.456.456a1.4 1.4 0 0 0-.158.688h-.796q0-.607.28-1.066t.762-.715a2.3 2.3 0 0 1 1.09-.257q.607 0 1.076.257.47.256.736.691.266.436.266.969 0 .38-.138.745a3.3 3.3 0 0 1-.473.806q-.334.442-.927 1.08l-1.552 1.66v.054h3.211V253zm8.31.094q-.762 0-1.299-.414-.536-.419-.82-1.212-.283-.795-.283-1.923 0-1.12.283-1.912.287-.797.823-1.215.54-.422 1.296-.422.755 0 1.292.422.54.418.823 1.215.287.792.287 1.912 0 1.128-.284 1.923-.283.794-.82 1.212-.536.414-1.298.414m0-.742q.756 0 1.174-.728.418-.729.418-2.079 0-.897-.192-1.528-.189-.63-.547-.961a1.2 1.2 0 0 0-.853-.331q-.75 0-1.17.739-.422.735-.422 2.081 0 .898.188 1.525.189.628.543.955.359.327.86.327m3.992.648v-.607l2.28-2.497q.402-.438.661-.762.26-.327.385-.614.128-.29.128-.607a1.12 1.12 0 0 0-.648-1.043 1.5 1.5 0 0 0-.674-.145q-.398 0-.695.165-.294.162-.456.456a1.4 1.4 0 0 0-.158.688h-.796q0-.607.28-1.066.279-.459.762-.715a2.3 2.3 0 0 1 1.09-.257q.606 0 1.076.257.47.256.735.691.267.436.267.969 0 .38-.139.745-.135.362-.472.806-.334.442-.928 1.08l-1.551 1.66v.054h3.211V253zm6.15 0v-.607l2.281-2.497q.402-.438.661-.762.26-.327.385-.614.128-.29.128-.607a1.12 1.12 0 0 0-.648-1.043 1.5 1.5 0 0 0-.674-.145q-.398 0-.695.165-.294.162-.456.456a1.4 1.4 0 0 0-.158.688h-.797q0-.607.28-1.066t.763-.715a2.3 2.3 0 0 1 1.09-.257q.606 0 1.076.257.468.256.735.691.267.436.267.969 0 .38-.139.745-.135.362-.472.806a14 14 0 0 1-.928 1.08l-1.551 1.66v.054h3.211V253zM68.008 246.091V253h-.837v-6.032h-.04l-1.687 1.12v-.85l1.727-1.147zm6.15 0V253h-.836v-6.032h-.04l-1.687 1.12v-.85l1.727-1.147zm3.453 6.025a.58.58 0 0 1-.429-.179.58.58 0 0 1-.178-.428q0-.25.178-.429a.58.58 0 0 1 .429-.178q.25 0 .428.178.18.18.179.429a.623.623 0 0 1-.304.526.6.6 0 0 1-.303.081m0-3.495a.59.59 0 0 1-.429-.179.58.58 0 0 1-.178-.428q0-.25.178-.429a.58.58 0 0 1 .429-.178q.25 0 .428.178.18.18.179.429a.623.623 0 0 1-.304.526.6.6 0 0 1-.303.081m1.86 2.962v-.688l3.036-4.804h.5v1.066h-.338l-2.294 3.63v.054h4.09v.742zM82.723 253v-6.909h.796V253zm5.45.094q-.669 0-1.191-.229a2.03 2.03 0 0 1-.827-.638 1.7 1.7 0 0 1-.33-.954h.85q.026.333.23.577.2.239.529.371.327.13.725.131.445 0 .79-.155.344-.155.54-.432a1.08 1.08 0 0 0 .195-.641q0-.381-.189-.671a1.25 1.25 0 0 0-.553-.459q-.365-.165-.89-.165h-.554v-.742h.553q.412 0 .722-.149.314-.148.49-.418.177-.27.178-.634 0-.351-.155-.611a1.06 1.06 0 0 0-.439-.405 1.4 1.4 0 0 0-.661-.145q-.357 0-.675.132-.314.128-.512.374a.98.98 0 0 0-.216.587h-.81q.021-.543.327-.951.307-.412.803-.641.499-.23 1.097-.23.64 0 1.1.26.458.256.704.678.247.422.247.911 0 .584-.307.995a1.56 1.56 0 0 1-.827.571v.053q.654.108 1.022.557.368.446.368 1.103 0 .564-.307 1.012-.303.446-.83.702a2.7 2.7 0 0 1-1.198.256m6.839-.094h-.877l2.536-6.909h.864l2.537 6.909h-.877l-2.065-5.816h-.054zm.323-2.699h3.536v.742h-3.535zm5.813-4.21h.999l2.348 5.735h.081l2.348-5.735h.998V253h-.782v-5.249h-.068L104.913 253h-.756l-2.159-5.249h-.067V253h-.783z"/><circle cx="116" cy="250" r="1" fill="#8D918C"/><path fill="#686E67" d="M129.315 246.091V253h-.809l-3.765-5.425h-.068V253h-.836v-6.909h.809l3.779 5.438h.067v-5.438zm1.567 6.909v-5.182h.796V253zm.404-6.045a.56.56 0 01-.401-.159.5.5 0 01-.165-.381q0-.224.165-.381a.56.56 0 01.401-.159q.233 0 .398.159a.5.5 0 01.169.381.5.5 0 01-.169.381.55.55 0 01-.398.159m3.955 6.153q-.729 0-1.255-.344a2.25 2.25 0 01-.81-.948q-.283-.605-.283-1.38 0-.79.29-1.393.294-.608.817-.948.525-.344 1.228-.344.546 0 .985.202.439.203.718.567.28.364.348.85h-.796a1.24 1.24 0 00-.405-.627q-.31-.277-.837-.277-.465 0-.816.243a1.6 1.6 0 00-.544.678q-.192.435-.192 1.022 0 .6.189 1.046.192.445.54.691.35.247.823.247.31 0 .563-.108a1.16 1.16 0 00.679-.796h.796a1.85 1.85 0 01-.334.826 1.9 1.9 0 01-.699.58 2.25 2.25 0 01-1.005.213m3.944-1.997-.014-.985h.162l2.267-2.308h.985l-2.415 2.443h-.068zm-.742 1.889v-6.909h.796V253zm3.292 0-2.024-2.564.567-.553 2.469 3.117zm4.277-6.167v-.742h5.182v.742h-2.173V253h-.836v-6.167zm5.827 6.167v-5.182h.769v.783h.054q.143-.386.513-.624.37-.24.837-.24a7 7 0 01.418.014v.809a3.4 3.4 0 00-.486-.054q-.378 0-.675.159-.292.155-.465.432-.17.273-.169.624V253zm5.482.108q-.702 0-1.231-.334a2.27 2.27 0 01-.823-.935q-.294-.6-.294-1.403 0-.81.294-1.413.297-.605.823-.938.53-.334 1.231-.334t1.228.334q.53.333.823.938.297.603.297 1.413 0 .803-.297 1.403-.293.601-.823.935-.526.334-1.228.334m0-.715q.533 0 .877-.274a1.6 1.6 0 00.51-.718q.165-.446.165-.965 0-.52-.165-.968a1.63 1.63 0 00-.51-.725q-.344-.277-.877-.277t-.877.277a1.63 1.63 0 00-.509.725 2.8 2.8 0 00-.166.968q0 .52.166.965.165.445.509.718.344.274.877.274m3.563.607v-5.182h.77v.81h.067a1.3 1.3 0 01.523-.645q.362-.232.867-.232.513 0 .854.232.344.23.536.645h.054q.2-.401.597-.638.398-.239.955-.239.695 0 1.137.435.441.431.442 1.346V253h-.797v-3.468q0-.573-.313-.82a1.16 1.16 0 00-.739-.246q-.546 0-.847.331-.3.327-.3.829V253h-.81v-3.549q0-.442-.287-.712-.287-.273-.738-.273-.31 0-.581.165-.266.165-.431.459a1.35 1.35 0 00-.162.671V253zm8.365 0v-6.909h.796v2.55h.068q.087-.135.243-.344.158-.211.452-.378.297-.168.803-.168.654 0 1.154.327.498.327.779.928.28.6.28 1.417 0 .822-.28 1.427-.28.6-.776.931a2.03 2.03 0 01-1.144.327q-.5 0-.799-.165-.3-.17-.462-.382a5 5 0 01-.25-.357h-.095V253zm.783-2.591q0 .587.172 1.036.172.445.503.698.33.25.809.25.5 0 .834-.263a1.6 1.6 0 00.506-.716q.171-.452.172-1.005 0-.547-.169-.985a1.5 1.5 0 00-.503-.698q-.333-.26-.84-.26-.486 0-.816.246a1.47 1.47 0 00-.499.682q-.17.435-.169 1.015m5.806-4.318V253h-.796v-6.909zm3.631 7.017q-.75 0-1.292-.331a2.2 2.2 0 01-.834-.931q-.29-.6-.29-1.396 0-.797.29-1.404.294-.61.817-.951.526-.344 1.228-.344.405 0 .799.135.395.135.719.438.324.3.516.796t.192 1.222v.337h-3.994v-.688h3.185q0-.44-.176-.783a1.33 1.33 0 00-.492-.543 1.4 1.4 0 00-.749-.199 1.43 1.43 0 00-.823.236q-.344.233-.53.607-.186.375-.186.803v.459q0 .587.203.995.206.405.57.618.364.209.847.209.314 0 .566-.088.257-.091.442-.27.186-.182.287-.452l.769.216q-.122.391-.408.688a2 2 0 01-.708.459 2.6 2.6 0 01-.948.162m3.711 1.835a1.7 1.7 0 01-.361-.034 1 1 0 01-.219-.06l.203-.702q.29.074.512.054a.6.6 0 00.395-.199q.175-.175.321-.57l.148-.405-1.916-5.209h.863l1.431 4.129h.054l1.43-4.129h.864l-2.2 5.938a2.3 2.3 0 01-.367.664q-.22.267-.51.395a1.6 1.6 0 01-.648.128"/><mask id="widget-__g" fill="#fff"><path d="M16 266h256v38H16z"/></mask><path fill="#D7DAD7" d="M16 267h256v-2H16z" mask="url(#widget-__g)"/><path fill="#1D211C" d="M21.266 278.074a1.16 1.16 0 00-.528-.875q-.465-.312-1.16-.312-.503 0-.875.16a1.34 1.34 0 00-.57.433q-.199.278-.203.629 0 .294.14.504t.364.356q.226.14.484.234.258.09.488.149l.79.207q.367.089.765.25.399.156.742.414a2 2 0 01.563.644q.219.387.218.934 0 .668-.347 1.195-.344.528-1.004.832-.657.305-1.594.305-.887 0-1.535-.281a2.4 2.4 0 01-1.02-.797 2.3 2.3 0 01-.406-1.231h1.16q.036.441.285.731.255.285.649.425t.863.141q.524 0 .934-.164.41-.168.648-.469t.238-.703a.87.87 0 00-.207-.597 1.5 1.5 0 00-.554-.383 6 6 0 00-.774-.266l-.957-.262q-.957-.265-1.515-.769-.555-.508-.555-1.336 0-.684.371-1.195.375-.516 1.012-.801.635-.285 1.43-.285.8 0 1.417.285.617.28.977.773.36.492.375 1.125zm5.159 6.047q-.879 0-1.516-.379a2.54 2.54 0 01-.98-1.074q-.345-.695-.344-1.625 0-.922.344-1.625.344-.707.96-1.102.622-.394 1.45-.394.5 0 .969.164.473.164.851.523.38.356.598.93.223.575.223 1.395v.406h-4.735v-.856h3.64a1.8 1.8 0 00-.195-.836 1.4 1.4 0 00-.535-.582 1.5 1.5 0 00-.808-.214q-.508 0-.883.25a1.67 1.67 0 00-.574.644 1.9 1.9 0 00-.204.859v.645q0 .621.22 1.055.218.433.609.66.395.226.918.226.344 0 .62-.097.279-.098.481-.293.204-.195.313-.485l1.05.211a1.96 1.96 0 01-.472.84q-.34.36-.848.559-.508.195-1.152.195m5.629.012q-.57 0-1.032-.211a1.73 1.73 0 01-.73-.621q-.27-.411-.27-.996 0-.512.196-.836a1.44 1.44 0 01.531-.516q.336-.191.746-.285.41-.098.836-.152l.875-.102q.336-.043.492-.133.156-.093.157-.308v-.028q0-.526-.297-.816-.294-.293-.875-.293-.61 0-.957.266-.348.266-.48.585l-1.044-.265q.207-.547.586-.875.379-.332.863-.477a3.44 3.44 0 011.747-.066 2.2 2.2 0 01.753.301q.355.219.582.632.227.416.227 1.086V284h-1.086v-.816h-.047a1.6 1.6 0 01-.332.437 1.8 1.8 0 01-.582.367 2.3 2.3 0 01-.86.145m.226-.906q.5 0 .852-.196.355-.199.539-.515.183-.32.184-.68v-.793a.6.6 0 01-.247.121q-.18.051-.414.09a10 10 0 01-.453.066l-.367.047q-.344.047-.633.149a1.07 1.07 0 00-.46.296q-.173.192-.173.512 0 .445.328.676.333.227.844.227m4.265.773v-6h1.07v.941h.063q.164-.473.582-.75.417-.28.949-.281.105 0 .254.008.152.004.238.016v1.074a2 2 0 00-.238-.043 2.4 2.4 0 00-.36-.028q-.417 0-.746.176a1.35 1.35 0 00-.52.485 1.33 1.33 0 00-.187.707V284zm6.5.121q-.864 0-1.488-.394a2.63 2.63 0 01-.957-1.098q-.333-.699-.332-1.602 0-.914.343-1.613.345-.703.961-1.098.621-.394 1.461-.394.668 0 1.195.246.532.246.86.695.328.446.394 1.039H44.4a1.4 1.4 0 00-.437-.726q-.34-.309-.914-.309-.5 0-.875.262a1.7 1.7 0 00-.586.742q-.207.477-.207 1.129 0 .664.203 1.152.207.489.582.754.375.266.883.266.344 0 .617-.121a1.26 1.26 0 00.465-.356q.19-.23.27-.558h1.081a2.17 2.17 0 01-1.218 1.726q-.52.258-1.22.258m4.821-3.695V284h-1.105v-8h1.093v2.969h.075q.21-.48.64-.762.434-.285 1.133-.285.618 0 1.078.25.465.25.719.754.258.504.258 1.258V284H50.65v-3.695q0-.672-.347-1.043-.348-.375-.965-.375-.426 0-.758.183-.332.18-.523.524-.192.343-.192.832M56.401 284v-8h2.813q.934 0 1.543.32.613.317.914.883.3.563.3 1.289.001.731-.304 1.285-.3.551-.914.864-.61.308-1.535.308H57.05v-1h2.074q.602 0 .977-.172.375-.176.547-.5.175-.324.175-.785a1.7 1.7 0 00-.175-.797 1.17 1.17 0 00-.551-.519q-.375-.184-.985-.184H57.55V284zm3.903-3.605L62.276 284h-1.308l-1.942-3.605zm4.825 3.738q-.57 0-1.031-.211a1.73 1.73 0 01-.73-.621q-.27-.411-.27-.996 0-.512.195-.836a1.44 1.44 0 01.531-.516q.336-.191.746-.285.41-.098.836-.152l.875-.102q.336-.043.492-.133.157-.093.157-.308v-.028q0-.526-.297-.816-.293-.293-.875-.293-.609 0-.957.266t-.48.585l-1.044-.265q.207-.547.586-.875.379-.332.864-.477a3.44 3.44 0 011.746-.066 2.2 2.2 0 01.754.301q.354.219.582.632.225.416.226 1.086V284H66.95v-.816h-.047a1.6 1.6 0 01-.332.437 1.8 1.8 0 01-.582.367 2.3 2.3 0 01-.86.145m.227-.906q.5 0 .851-.196.356-.199.54-.515.182-.32.183-.68v-.793a.6.6 0 01-.246.121q-.18.051-.415.09a10 10 0 01-.453.066l-.367.047q-.343.047-.633.149a1.07 1.07 0 00-.46.296q-.172.192-.172.512 0 .445.328.676.331.227.844.227m5.37-2.801V284H69.62v-6h1.063v.969h.074q.21-.477.648-.762.442-.285 1.117-.285.615 0 1.07.254.462.254.716.758.257.504.253 1.25V284h-1.105v-3.695q0-.668-.348-1.043-.343-.375-.949-.375-.414 0-.738.183-.324.18-.512.524-.183.343-.183.832m7.928 5.949q-.703 0-1.21-.184a2.4 2.4 0 01-.829-.484 2.1 2.1 0 01-.488-.652l.938-.438q.109.169.288.367.184.2.497.34.312.141.812.141.68 0 1.121-.328.445-.328.445-1.047v-1.188h-.074q-.105.184-.3.422a1.6 1.6 0 01-.54.41q-.344.176-.902.176-.715 0-1.285-.336a2.37 2.37 0 01-.902-.992q-.332-.656-.332-1.609 0-.946.324-1.629.328-.688.898-1.055a2.37 2.37 0 011.309-.367q.563 0 .906.187.348.188.54.434.19.246.292.426h.09V278h1.078v6.145q0 .77-.355 1.261a2.07 2.07 0 01-.965.731 3.7 3.7 0 01-1.356.238m-.015-3.398q.515 0 .87-.243.36-.242.544-.691.187-.453.187-1.082 0-.618-.183-1.086-.18-.473-.54-.734-.355-.266-.878-.266-.543 0-.907.277a1.7 1.7 0 00-.543.75 3 3 0 00-.18 1.059q0 .598.184 1.051t.547.711q.363.254.899.254m6.857 1.144q-.879 0-1.515-.379a2.54 2.54 0 01-.981-1.074q-.344-.695-.344-1.625 0-.922.344-1.625.345-.707.96-1.102.622-.394 1.45-.394.5 0 .969.164.473.164.852.523.378.356.597.93.223.575.223 1.395v.406h-4.735v-.856h3.641a1.8 1.8 0 00-.195-.836 1.4 1.4 0 00-.535-.582 1.5 1.5 0 00-.809-.214q-.508 0-.883.25a1.67 1.67 0 00-.574.644 1.9 1.9 0 00-.203.859v.645q0 .621.219 1.055.218.433.609.66.395.226.918.226.344 0 .621-.097.277-.098.48-.293.204-.195.313-.485l1.05.211a1.96 1.96 0 01-.472.84q-.34.36-.848.559-.507.195-1.152.195m6.935-.121v-8h4.968v.992h-3.82v2.504h3.563v.992h-3.563v2.52h3.871V284zm7.379-6 1.351 2.363 1.36-2.363h1.226l-1.891 3 1.903 3h-1.223l-1.375-2.266L99.79 284h-1.227l1.879-3-1.859-3zm5.163 8.25V278h1.078v.969h.097q.106-.18.293-.426.188-.246.528-.434.344-.187.906-.187.734 0 1.305.371.573.367.898 1.062.328.691.328 1.657 0 .969-.324 1.664t-.894 1.07a2.33 2.33 0 01-1.301.371q-.555 0-.899-.183a1.7 1.7 0 01-.539-.434 4 4 0 01-.301-.43h-.07v3.18zm1.086-5.25q0 .644.183 1.133.187.484.543.758.36.273.875.273.54 0 .899-.285.363-.285.546-.774.184-.492.184-1.105 0-.606-.18-1.086-.178-.48-.543-.758-.363-.28-.906-.281-.519 0-.879.266a1.63 1.63 0 00-.539.746 3.1 3.1 0 00-.183 1.113m7.431 3.133q-.57 0-1.031-.211a1.73 1.73 0 01-.73-.621q-.27-.411-.27-.996 0-.512.195-.836.2-.329.532-.516a2.7 2.7 0 01.746-.285q.41-.098.836-.152l.875-.102q.336-.043.492-.133.156-.093.156-.308v-.028q0-.526-.297-.816-.293-.293-.875-.293-.609 0-.957.266t-.48.585l-1.043-.265a2.1 2.1 0 01.586-.875q.378-.332.863-.477a3.44 3.44 0 011.746-.066q.399.078.754.301.355.219.582.632.226.416.226 1.086V284h-1.085v-.816h-.047a1.7 1.7 0 01-.332.437 1.8 1.8 0 01-.582.367 2.3 2.3 0 01-.86.145m.227-.906q.5 0 .851-.196.356-.199.539-.515.184-.32.184-.68v-.793a.6.6 0 01-.246.121q-.18.051-.414.09a10 10 0 01-.453.066l-.367.047q-.345.047-.633.149a1.06 1.06 0 00-.461.296q-.172.192-.172.512 0 .445.328.676.332.227.844.227m5.37-2.801V284h-1.106v-6h1.063v.969h.074q.211-.477.649-.762.44-.285 1.117-.285.613 0 1.07.254.461.254.715.758.257.504.254 1.25V284h-1.106v-3.695q0-.668-.347-1.043-.344-.375-.949-.375-.415 0-.739.183a1.3 1.3 0 00-.511.524q-.184.343-.184.832m7.686 3.691a2.34 2.34 0 01-1.304-.371q-.567-.375-.891-1.07t-.324-1.664q0-.966.324-1.657.328-.695.899-1.062a2.36 2.36 0 011.308-.371q.563 0 .903.187.343.188.531.434.187.246.293.426h.07V276h1.109v8h-1.078v-.93h-.101a4 4 0 01-.301.43 1.7 1.7 0 01-.539.434q-.344.183-.899.183m.227-.953q.516 0 .871-.273.36-.274.543-.758a3.2 3.2 0 00.188-1.133q0-.637-.184-1.113-.18-.481-.539-.746-.355-.266-.879-.266-.543 0-.906.281-.36.278-.543.758-.18.48-.18 1.086 0 .613.184 1.105.183.489.547.774.363.285.898.285m6.954.957q-.879 0-1.516-.379a2.54 2.54 0 01-.98-1.074q-.344-.695-.344-1.625 0-.922.344-1.625.343-.707.961-1.102.621-.394 1.449-.394.5 0 .969.164.473.164.851.523.38.356.598.93.223.575.223 1.395v.406h-4.735v-.856h3.641a1.8 1.8 0 00-.195-.836 1.4 1.4 0 00-.535-.582 1.5 1.5 0 00-.809-.214q-.508 0-.883.25a1.67 1.67 0 00-.574.644 1.9 1.9 0 00-.203.859v.645q0 .621.219 1.055.218.433.609.66.394.226.918.226.344 0 .621-.097.278-.098.48-.293.204-.195.313-.485l1.051.211a1.96 1.96 0 01-.473.84q-.34.36-.848.559-.507.195-1.152.195m6.129-.004q-.734 0-1.305-.371-.566-.375-.89-1.07t-.325-1.664q0-.966.325-1.657.327-.695.898-1.062a2.36 2.36 0 011.309-.371q.563 0 .902.187.344.188.531.434t.293.426h.071V276h1.109v8h-1.078v-.93h-.102a3.5 3.5 0 01-.3.43 1.7 1.7 0 01-.54.434q-.343.183-.898.183m.227-.953q.515 0 .871-.273.358-.274.543-.758.187-.489.187-1.133 0-.637-.183-1.113-.18-.481-.54-.746-.355-.266-.878-.266-.543 0-.907.281-.358.278-.543.758a3.1 3.1 0 00-.179 1.086q0 .613.183 1.105.184.489.547.774t.899.285"/><g clip-path="url(#widget-__h)"><path fill="#B0B3AF" fill-rule="evenodd" d="M266 274.701a5.298 5.298 0 100 10.596 5.298 5.298 0 000-10.596m-4.538 5.298a4.538 4.538 0 119.077 0 4.538 4.538 0 01-9.077 0m5.138-2.399a.6.6 0 11-1.201-.001.6.6 0 011.201.001m-1.8 1.2h1.2a.4.4 0 01.4.4v2.8h.8v.8h-2.4v-.8h.8v-2.4h-.8z" clip-rule="evenodd"/></g><path fill="#686E67" d="M20.008 294.091V301h-.837v-6.032h-.04l-1.687 1.12v-.85l1.727-1.147zm5.314-.324-2.226 8.272h-.73l2.227-8.272zm.768 5.816v-.688l3.037-4.804h.499v1.066h-.338l-2.294 3.63v.054h4.09v.742zM29.343 301v-6.909h.796V301zm5.516-7.233-2.226 8.272h-.73l2.227-8.272zM35.992 301v-.607l2.28-2.497q.401-.438.662-.762.26-.327.384-.614a1.5 1.5 0 0 0 .128-.607 1.12 1.12 0 0 0-.647-1.043 1.5 1.5 0 0 0-.675-.145q-.398 0-.695.165-.294.162-.456.456a1.4 1.4 0 0 0-.158.688h-.796q0-.607.28-1.066t.762-.715a2.3 2.3 0 0 1 1.09-.257q.607 0 1.076.257.47.256.736.691.266.436.266.969 0 .38-.138.745a3.3 3.3 0 0 1-.473.806q-.334.443-.927 1.08l-1.552 1.66v.054h3.211V301zm8.31.094q-.762 0-1.299-.414-.536-.419-.82-1.212-.283-.795-.283-1.923 0-1.12.283-1.912.287-.796.823-1.215.54-.422 1.296-.422.755 0 1.292.422.54.418.823 1.215.287.792.287 1.912 0 1.128-.284 1.923-.283.793-.82 1.212-.536.414-1.298.414m0-.742q.756 0 1.174-.728.418-.729.418-2.079 0-.897-.192-1.528-.189-.63-.547-.961a1.2 1.2 0 0 0-.853-.331q-.75 0-1.17.739-.422.735-.422 2.081 0 .898.188 1.525.189.628.543.955.359.327.86.327m3.992.648v-.607l2.28-2.497q.402-.438.661-.762.26-.327.385-.614.128-.29.128-.607a1.12 1.12 0 0 0-.648-1.043 1.5 1.5 0 0 0-.674-.145q-.398 0-.695.165-.294.162-.456.456a1.4 1.4 0 0 0-.158.688h-.796q0-.607.28-1.066.279-.459.762-.715a2.3 2.3 0 0 1 1.09-.257q.606 0 1.076.257.47.256.735.691.267.436.267.969 0 .38-.139.745-.135.362-.472.806-.334.443-.928 1.08l-1.551 1.66v.054h3.211V301zm6.15 0v-.607l2.281-2.497q.402-.438.661-.762.26-.327.385-.614.128-.29.128-.607a1.12 1.12 0 0 0-.648-1.043 1.5 1.5 0 0 0-.674-.145q-.398 0-.695.165-.294.162-.456.456a1.4 1.4 0 0 0-.158.688h-.797q0-.607.28-1.066t.763-.715a2.3 2.3 0 0 1 1.09-.257q.606 0 1.076.257.468.256.735.691.267.436.267.969 0 .38-.139.745-.135.362-.472.806a14 14 0 0 1-.928 1.08l-1.551 1.66v.054h3.211V301zM68.008 294.091V301h-.837v-6.032h-.04l-1.687 1.12v-.85l1.727-1.147zm6.15 0V301h-.836v-6.032h-.04l-1.687 1.12v-.85l1.727-1.147zm3.453 6.025a.58.58 0 0 1-.429-.179.58.58 0 0 1-.178-.428q0-.25.178-.429a.58.58 0 0 1 .429-.178q.25 0 .428.178.18.18.179.429a.623.623 0 0 1-.304.526.6.6 0 0 1-.303.081m0-3.495a.59.59 0 0 1-.429-.179.58.58 0 0 1-.178-.428q0-.25.178-.429a.58.58 0 0 1 .429-.178q.25 0 .428.178.18.18.179.429a.623.623 0 0 1-.304.526.6.6 0 0 1-.303.081m1.86 2.962v-.688l3.036-4.804h.5v1.066h-.338l-2.294 3.63v.054h4.09v.742zM82.723 301v-6.909h.796V301zm5.45.094q-.669 0-1.191-.229a2.03 2.03 0 0 1-.827-.638 1.7 1.7 0 0 1-.33-.954h.85q.026.333.23.577.2.239.529.371.327.13.725.131.445 0 .79-.155.344-.155.54-.432a1.08 1.08 0 0 0 .195-.641q0-.381-.189-.671a1.25 1.25 0 0 0-.553-.459q-.365-.165-.89-.165h-.554v-.742h.553q.412 0 .722-.149.314-.148.49-.418.177-.27.178-.634 0-.351-.155-.611a1.06 1.06 0 0 0-.439-.405 1.4 1.4 0 0 0-.661-.145q-.357 0-.675.132-.314.128-.512.374a.98.98 0 0 0-.216.587h-.81q.021-.543.327-.951.307-.412.803-.641.499-.23 1.097-.23.64 0 1.1.26.458.256.704.678.247.422.247.911 0 .584-.307.995a1.56 1.56 0 0 1-.827.571v.053q.654.108 1.022.557.368.446.368 1.103 0 .564-.307 1.012-.303.446-.83.702a2.7 2.7 0 0 1-1.198.256m6.839-.094h-.877l2.536-6.909h.864l2.537 6.909h-.877l-2.065-5.816h-.054zm.323-2.699h3.536v.742h-3.535zm5.813-4.21h.999l2.348 5.735h.081l2.348-5.735h.998V301h-.782v-5.249h-.068L104.913 301h-.756l-2.159-5.249h-.067V301h-.783z"/><circle cx="116" cy="298" r="1" fill="#8D918C"/><path fill="#686E67" d="M129.315 294.091V301h-.809l-3.765-5.425h-.068V301h-.836v-6.909h.809l3.779 5.438h.067v-5.438zm1.567 6.909v-5.182h.796V301zm.404-6.045a.56.56 0 01-.401-.159.5.5 0 01-.165-.381q0-.224.165-.381a.56.56 0 01.401-.159q.233 0 .398.159a.5.5 0 01.169.381.5.5 0 01-.169.381.55.55 0 01-.398.159m3.955 6.153q-.729 0-1.255-.344a2.25 2.25 0 01-.81-.948q-.283-.605-.283-1.38 0-.79.29-1.393.294-.607.817-.948.525-.344 1.228-.344.546 0 .985.202t.718.567q.28.364.348.85h-.796a1.24 1.24 0 00-.405-.627q-.31-.277-.837-.277-.465 0-.816.243a1.6 1.6 0 00-.544.678q-.192.435-.192 1.022 0 .6.189 1.046.192.445.54.691.35.247.823.247.31 0 .563-.108a1.16 1.16 0 00.679-.796h.796a1.85 1.85 0 01-.334.826 1.9 1.9 0 01-.699.58 2.25 2.25 0 01-1.005.213m3.944-1.997-.014-.985h.162l2.267-2.308h.985l-2.415 2.443h-.068zm-.742 1.889v-6.909h.796V301zm3.292 0-2.024-2.564.567-.553 2.469 3.117zm4.277-6.167v-.742h5.182v.742h-2.173V301h-.836v-6.167zm5.827 6.167v-5.182h.769v.783h.054q.143-.385.513-.624.37-.24.837-.24a7 7 0 01.418.014v.809a3.4 3.4 0 00-.486-.054q-.378 0-.675.159-.292.155-.465.432-.17.273-.169.624V301zm5.482.108q-.702 0-1.231-.334a2.27 2.27 0 01-.823-.935q-.294-.6-.294-1.403 0-.81.294-1.413.297-.605.823-.938.53-.334 1.231-.334t1.228.334q.53.333.823.938.297.603.297 1.413 0 .803-.297 1.403-.293.601-.823.935-.526.334-1.228.334m0-.715q.533 0 .877-.274a1.6 1.6 0 00.51-.718q.165-.446.165-.965 0-.52-.165-.968a1.63 1.63 0 00-.51-.725q-.344-.277-.877-.277t-.877.277a1.63 1.63 0 00-.509.725 2.8 2.8 0 00-.166.968q0 .52.166.965.165.445.509.718.344.274.877.274m3.563.607v-5.182h.77v.81h.067a1.3 1.3 0 01.523-.645q.362-.232.867-.232.513 0 .854.232.344.23.536.645h.054q.2-.401.597-.638.398-.239.955-.239.695 0 1.137.435.441.432.442 1.346V301h-.797v-3.468q0-.574-.313-.82a1.16 1.16 0 00-.739-.246q-.546 0-.847.331-.3.327-.3.829V301h-.81v-3.549q0-.442-.287-.712-.287-.273-.738-.273-.31 0-.581.165-.266.165-.431.459a1.35 1.35 0 00-.162.671V301zm8.365 0v-6.909h.796v2.55h.068q.087-.134.243-.344.158-.212.452-.378.297-.168.803-.168.654 0 1.154.327.498.327.779.928.28.6.28 1.417 0 .822-.28 1.427-.28.6-.776.931a2.03 2.03 0 01-1.144.327q-.5 0-.799-.165-.3-.17-.462-.382a5 5 0 01-.25-.357h-.095V301zm.783-2.591q0 .587.172 1.036.172.445.503.698.33.25.809.25.5 0 .834-.263a1.6 1.6 0 00.506-.716q.171-.452.172-1.005 0-.546-.169-.985a1.5 1.5 0 00-.503-.698q-.333-.26-.84-.26-.486 0-.816.246a1.47 1.47 0 00-.499.682q-.17.435-.169 1.015m5.806-4.318V301h-.796v-6.909zm3.631 7.017q-.75 0-1.292-.331a2.2 2.2 0 01-.834-.931q-.29-.6-.29-1.396 0-.797.29-1.404.294-.61.817-.951.526-.344 1.228-.344.405 0 .799.135.395.135.719.438.324.3.516.796t.192 1.222v.337h-3.994v-.688h3.185q0-.44-.176-.783a1.33 1.33 0 00-.492-.543 1.4 1.4 0 00-.749-.199 1.43 1.43 0 00-.823.236q-.344.233-.53.607-.186.375-.186.803v.459q0 .587.203.995.206.405.57.618.364.209.847.209.314 0 .566-.088.257-.091.442-.27.186-.182.287-.452l.769.216q-.122.391-.408.688a2 2 0 01-.708.459 2.6 2.6 0 01-.948.162m3.711 1.835a1.7 1.7 0 01-.361-.034 1 1 0 01-.219-.06l.203-.702q.29.074.512.054a.6.6 0 00.395-.199q.175-.175.321-.57l.148-.405-1.916-5.209h.863l1.431 4.129h.054l1.43-4.129h.864l-2.2 5.938a2.3 2.3 0 01-.367.664q-.22.267-.51.395a1.6 1.6 0 01-.648.128"/><defs><clipPath id="widget-__a"><path fill="#fff" d="M228 15h16v16h-16z"/></clipPath><clipPath id="widget-__b"><path fill="#fff" d="M260 106h12v12h-12z"/></clipPath><clipPath id="widget-__d"><path fill="#fff" d="M260 154h12v12h-12z"/></clipPath><clipPath id="widget-__f"><path fill="#fff" d="M260 226h12v12h-12z"/></clipPath><clipPath id="widget-__h"><path fill="#fff" d="M260 274h12v12h-12z"/></clipPath></defs></svg>