<svg xmlns="http://www.w3.org/2000/svg" width="384" height="320" fill="none" viewBox="0 0 384 320" class="widget-__portfolio-widget"><path fill="#FCFDFC" d="M.5 6A5.5 5.5 0 016 .5h372a5.5 5.5 0 015.5 5.5v308a5.5 5.5 0 01-5.5 5.5H6A5.5 5.5 0 01.5 314z"/><path stroke="#D7DAD7" d="M.5 6A5.5 5.5 0 016 .5h372a5.5 5.5 0 015.5 5.5v308a5.5 5.5 0 01-5.5 5.5H6A5.5 5.5 0 01.5 314z"/><path fill="#1D211C" d="M18.13 20.085a1.3 1.3 0 00-.576-.975q-.504-.35-1.288-.35a2.5 2.5 0 00-.965.17q-.402.171-.623.471a1.1 1.1 0 00-.217.674.96.96 0 00.143.545q.152.23.397.388.249.157.54.263.295.102.581.17l.905.232q.495.12.979.323.484.198.882.517.4.314.641.77.245.458.245 1.086 0 .812-.42 1.44-.415.627-1.21.983-.789.356-1.915.356-1.08 0-1.875-.337-.794-.338-1.241-.974-.444-.642-.485-1.542h1.56q.038.507.314.84.282.332.73.498.447.162.988.162.58 0 1.029-.18.448-.184.702-.508a1.2 1.2 0 00.263-.752.96.96 0 00-.231-.651 1.6 1.6 0 00-.619-.425 6 6 0 00-.895-.3l-1.099-.295q-1.154-.306-1.823-.91-.67-.605-.665-1.606-.005-.827.443-1.445.453-.62 1.223-.96.771-.347 1.74-.347.984 0 1.732.346.747.342 1.177.947.43.6.448 1.375zm4.12 9.574a3.3 3.3 0 01-.595-.05 2 2 0 01-.42-.116l.36-1.214q.374.105.665.092a.8.8 0 00.512-.198q.226-.19.388-.628l.162-.425-2.585-7.21h1.625l1.712 5.428h.074l1.722-5.429h1.63L24.614 27.9a3.1 3.1 0 01-.521.956q-.318.392-.776.595-.452.208-1.066.208m11.933-7.945-1.39.194a1.3 1.3 0 00-.235-.443 1.2 1.2 0 00-.438-.346 1.6 1.6 0 00-.688-.134q-.555 0-.928.244-.37.245-.37.633 0 .333.25.535.25.204.808.337l1.172.259q.993.221 1.478.692.484.471.49 1.228-.006.656-.384 1.16-.375.497-1.043.784-.666.286-1.538.286-1.251 0-2.022-.526-.77-.531-.937-1.491l1.482-.185q.12.503.494.762.375.254.974.254.637 0 1.02-.264.384-.267.388-.65a.69.69 0 00-.245-.531q-.236-.213-.738-.323l-1.2-.264q-1.012-.216-1.492-.715-.48-.504-.475-1.265-.004-.642.35-1.117.357-.48.989-.744.636-.267 1.463-.267 1.196 0 1.884.517.692.512.881 1.38m5.015-1.805v1.2h-3.975v-1.2zm-2.955-1.699h1.529v6.685q0 .365.11.558.111.19.291.259.184.065.402.065.161 0 .286-.023l.199-.037.267 1.223a4 4 0 01-.364.092q-.236.056-.578.065-.586.014-1.075-.194a1.77 1.77 0 01-.78-.642q-.291-.433-.287-1.09zm7.439 8.933q-1.057 0-1.824-.448a3 3 0 01-1.177-1.27q-.41-.821-.41-1.924 0-1.094.41-1.925a3.13 3.13 0 011.159-1.293q.743-.465 1.745-.466.632 0 1.205.203.571.203 1.02.637.448.43.706 1.108.263.678.263 1.625v.498H41.05v-1.08h4.248q0-.507-.213-.905a1.6 1.6 0 00-.595-.632 1.67 1.67 0 00-.887-.23 1.74 1.74 0 00-.96.262q-.406.263-.632.693a2.04 2.04 0 00-.227.932v.891q0 .665.24 1.136t.67.72q.429.245 1.002.245.383 0 .692-.106.31-.111.53-.324.227-.216.347-.535l1.436.208a2.4 2.4 0 01-.563 1.043q-.407.443-1.034.692-.624.246-1.422.245M48.247 27v-7.09h1.464v1.18h.088q.221-.6.724-.936.509-.337 1.214-.337.716 0 1.205.341.495.338.711.933h.074a1.98 1.98 0 01.799-.928q.558-.346 1.33-.346.969 0 1.583.614.615.609.614 1.814V27h-1.528v-4.561q0-.693-.37-1.006a1.34 1.34 0 00-.895-.314q-.642 0-1.002.397-.355.392-.355 1.01V27h-1.505v-4.64q0-.562-.347-.9-.346-.34-.895-.341-.379 0-.693.194t-.503.54q-.184.345-.184.803V27zm22.982-6.325h-1.578a2.3 2.3 0 00-.296-.78 2 2 0 00-.522-.577q-.31-.24-.701-.36a2.8 2.8 0 00-.831-.12 2.6 2.6 0 00-1.418.397q-.618.397-.974 1.163-.355.766-.355 1.875 0 1.122.355 1.888.36.765.98 1.159.617.387 1.407.387.434 0 .822-.115a2.4 2.4 0 00.702-.346 2.1 2.1 0 00.526-.568q.216-.337.305-.771l1.578.005a3.7 3.7 0 01-1.274 2.299 3.7 3.7 0 01-1.19.678q-.675.24-1.487.24-1.237 0-2.207-.581-.97-.582-1.528-1.667-.555-1.09-.554-2.608 0-1.519.559-2.609.563-1.089 1.532-1.666.97-.582 2.198-.582.77 0 1.435.222.67.216 1.192.637.526.42.867 1.025.346.604.457 1.375m3.6 6.473a2.9 2.9 0 01-1.214-.245 2 2 0 01-.859-.72q-.314-.48-.314-1.177 0-.605.227-.993.231-.393.618-.623a3.1 3.1 0 01.868-.346 7.5 7.5 0 01.997-.176q.629-.073 1.02-.124.393-.051.573-.162.18-.11.18-.355v-.033q0-.558-.328-.868-.322-.309-.946-.309-.656 0-1.034.286-.38.287-.522.656L72.67 21.7q.207-.645.641-1.061.435-.42 1.03-.62.6-.201 1.292-.202.471 0 .96.11.495.11.915.38.42.267.678.747.263.48.263 1.219V27h-1.477v-.97h-.055q-.14.278-.411.536-.273.258-.688.42a2.7 2.7 0 01-.988.162m.365-1.164q.54 0 .928-.212a1.57 1.57 0 00.595-.563q.213-.35.213-.757v-.877a.8.8 0 01-.277.129q-.2.055-.448.101-.25.042-.49.074l-.41.056a3.4 3.4 0 00-.698.17q-.314.116-.498.333-.185.212-.185.558 0 .49.36.74.36.248.91.248m5.02 3.675v-9.75h1.496v1.159h.106q.129-.236.36-.527.231-.295.633-.507.4-.217 1.043-.217a2.75 2.75 0 011.505.424q.67.426 1.057 1.242.388.818.388 1.985 0 1.154-.383 1.976-.384.818-1.048 1.251-.665.434-1.514.434-.629 0-1.034-.207a2 2 0 01-.642-.5 3.4 3.4 0 01-.365-.535h-.074v3.772zm1.5-6.204q0 .715.204 1.26.207.54.6.845.392.3.956.3.58 0 .978-.314.397-.315.596-.859a3.5 3.5 0 00.203-1.233q0-.683-.199-1.214a1.83 1.83 0 00-.595-.84q-.393-.31-.983-.31-.573.001-.965.296-.392.291-.596.822-.198.531-.198 1.247m8.629 3.693a2.9 2.9 0 01-1.214-.245 2 2 0 01-.859-.72q-.314-.48-.314-1.177 0-.605.226-.993.23-.393.619-.623a3.1 3.1 0 01.868-.346q.484-.12.997-.176.629-.073 1.02-.124.393-.051.573-.162.18-.11.18-.355v-.033q0-.558-.328-.868-.324-.309-.947-.309-.654 0-1.034.286-.378.287-.521.656l-1.427-.259q.208-.645.642-1.061.434-.42 1.03-.62.6-.201 1.292-.202.471 0 .96.11.494.11.914.38.42.267.679.747.263.48.263 1.219V27h-1.477v-.97h-.056a2 2 0 01-.41.536q-.273.258-.688.42a2.7 2.7 0 01-.988.162m.364-1.164q.54 0 .928-.212a1.57 1.57 0 00.596-.563q.212-.35.212-.757v-.877a.8.8 0 01-.277.129q-.198.055-.447.101-.25.042-.49.074l-.41.056a3.4 3.4 0 00-.698.17q-.314.116-.498.333-.185.212-.185.558 0 .49.36.74.36.248.91.248m8.063 1.16q-1.043 0-1.796-.467a3.14 3.14 0 01-1.154-1.293q-.4-.825-.401-1.897 0-1.085.41-1.911t1.16-1.293q.75-.465 1.767-.466.836 0 1.487.31.651.303 1.043.858.398.554.462 1.297h-1.473a1.55 1.55 0 00-.485-.859q-.378-.35-1.01-.35-.546 0-.956.29-.406.287-.637.822-.227.53-.227 1.27 0 .747.227 1.292.225.54.632.836.411.29.96.29.384 0 .688-.143.31-.143.517-.41.213-.273.291-.656h1.473q-.07.72-.448 1.283a2.6 2.6 0 01-1.025.878q-.642.318-1.505.318m4.41-.144v-7.09h1.528V27zm.771-8.139a.92.92 0 01-.651-.254.82.82 0 01-.268-.614q0-.355.268-.61a.92.92 0 01.651-.253q.379 0 .646.254.273.254.273.61 0 .36-.273.613a.9.9 0 01-.646.254m5.973 1.048v1.2h-3.975v-1.2zm-2.955-1.699h1.528v6.685q0 .365.111.558a.57.57 0 00.291.259q.185.065.401.065.162 0 .287-.023l.198-.037.268 1.223a4 4 0 01-.365.092 3 3 0 01-.577.065 2.6 2.6 0 01-1.076-.194 1.77 1.77 0 01-.78-.642q-.29-.433-.286-1.09zm5.368 11.45q-.323 0-.596-.052a2 2 0 01-.42-.115l.36-1.214q.375.105.665.092a.8.8 0 00.512-.198q.227-.19.388-.628l.162-.425-2.585-7.21h1.625l1.712 5.428h.074l1.722-5.429h1.63L114.7 27.9a3.1 3.1 0 01-.521.956q-.319.392-.776.595-.452.208-1.066.208"/><path fill="#717A6D" fill-rule="evenodd" d="M313.603 20.07a.42.42 0 00.594.594L316 18.86l1.803 1.803a.42.42 0 00.594-.594l-2.1-2.1a.42.42 0 00-.594 0zm4.794 3.86a.42.42 0 10-.594-.594L316 25.14l-1.803-1.803a.42.42 0 10-.594.594l2.1 2.1a.42.42 0 00.594 0z" clip-rule="evenodd"/><path fill="#464D45" d="M325.954 18.992V18h6.145v.992h-2.5V26h-1.145v-7.008zM332.769 26v-6h1.07v.941h.062q.165-.473.582-.75.418-.28.95-.28.105 0 .254.007.152.004.238.016v1.074a2 2 0 00-.238-.043 2.4 2.4 0 00-.36-.027q-.417 0-.746.175a1.34 1.34 0 00-.519.485 1.34 1.34 0 00-.188.707V26zm6.562.121q-.879 0-1.516-.379a2.55 2.55 0 01-.98-1.074q-.344-.695-.344-1.625 0-.922.344-1.625.343-.707.961-1.102.621-.394 1.449-.394.5 0 .969.164.473.165.851.523.38.355.598.93.223.574.223 1.395v.406h-4.735v-.856h3.641a1.8 1.8 0 00-.195-.836 1.4 1.4 0 00-.535-.582 1.5 1.5 0 00-.809-.214q-.508 0-.883.25a1.67 1.67 0 00-.574.644 1.86 1.86 0 00-.203.86v.644q0 .621.219 1.055.217.434.609.66.394.226.918.226.344 0 .621-.097.277-.098.48-.293.204-.195.313-.485l1.051.211q-.133.48-.473.84t-.848.559q-.507.195-1.152.195m6.445 0q-.879 0-1.515-.379a2.54 2.54 0 01-.981-1.074q-.343-.695-.343-1.625 0-.922.343-1.625.344-.707.961-1.102.621-.394 1.449-.394.501 0 .969.164.472.165.852.523.379.355.597.93.223.574.223 1.395v.406h-4.734v-.856h3.64a1.8 1.8 0 00-.195-.836 1.4 1.4 0 00-.535-.582 1.5 1.5 0 00-.809-.214q-.508 0-.883.25a1.7 1.7 0 00-.574.644 1.9 1.9 0 00-.203.86v.644q0 .621.219 1.055t.609.66q.394.226.918.226.343 0 .621-.097.277-.098.481-.293.202-.195.312-.485l1.051.211q-.133.48-.473.84t-.847.559q-.508.195-1.153.195m3.879-.121v-6h1.063v.969h.074a1.56 1.56 0 01.609-.77q.426-.277 1.02-.277.597 0 1.004.277.407.278.609.77h.063q.219-.48.683-.762.465-.285 1.114-.285.816 0 1.332.512.515.508.515 1.546V26h-1.109v-3.937q0-.626-.34-.899a1.22 1.22 0 00-.805-.277q-.59 0-.914.36-.324.354-.324.91V26h-1.105v-4.02q0-.492-.313-.793-.312-.3-.809-.3-.335 0-.625.18a1.3 1.3 0 00-.464.492 1.5 1.5 0 00-.172.73V26zm11.429.133q-.57 0-1.031-.211a1.74 1.74 0 01-.731-.621q-.269-.411-.269-.996 0-.512.195-.836.2-.328.531-.516.336-.191.746-.285.41-.098.836-.152l.875-.102q.336-.043.493-.133.156-.093.156-.308v-.028q0-.527-.297-.816-.293-.293-.875-.293-.609 0-.957.266a1.45 1.45 0 00-.481.585l-1.043-.265q.208-.547.586-.875.38-.331.864-.477a3.44 3.44 0 011.746-.066q.398.078.754.3.356.22.582.634t.226 1.085V26h-1.086v-.816h-.047q-.105.215-.332.437a1.8 1.8 0 01-.582.367 2.3 2.3 0 01-.859.145m.227-.906q.5 0 .851-.196.356-.199.539-.515a1.34 1.34 0 00.184-.68v-.793a.6.6 0 01-.246.121 4 4 0 01-.414.09q-.23.039-.454.066l-.367.047q-.343.046-.633.149a1.07 1.07 0 00-.46.297q-.172.191-.172.511 0 .445.328.676.331.227.844.227m4.264 3.023V20h1.078v.969h.098q.105-.18.293-.426t.527-.434q.344-.187.907-.187.734 0 1.304.371.575.367.899 1.063.327.69.328 1.656 0 .968-.324 1.664-.325.695-.895 1.07a2.3 2.3 0 01-1.301.371q-.555 0-.898-.183a1.7 1.7 0 01-.539-.434 4 4 0 01-.301-.43h-.07v3.18zm1.086-5.25q0 .644.184 1.133.188.484.543.758.359.273.875.273.539 0 .898-.285a1.73 1.73 0 00.547-.774q.184-.492.184-1.105 0-.606-.18-1.086a1.66 1.66 0 00-.543-.758q-.363-.28-.906-.281-.52 0-.879.266a1.63 1.63 0 00-.539.746 3.1 3.1 0 00-.184 1.113"/><path fill="#F8FAF8" d="M12.25 43A2.75 2.75 0 0115 40.25h354a2.75 2.75 0 012.75 2.75v262a2.75 2.75 0 01-2.75 2.75H15a2.75 2.75 0 01-2.75-2.75z"/><path stroke="#CCCFCC" stroke-width=".5" d="M12.25 43A2.75 2.75 0 0115 40.25h354a2.75 2.75 0 012.75 2.75v262a2.75 2.75 0 01-2.75 2.75H15a2.75 2.75 0 01-2.75-2.75z"/><path fill="#464D45" d="m18.125 53-1.936-6.91h1.224l1.293 5.216h.064l1.366-5.215h1.154l1.366 5.219h.064l1.296-5.22h1.22L23.305 53H22.16l-1.42-5.013h-.054L19.266 53zm7.952 0v-5.182h1.116V53zm.563-5.948a.67.67 0 01-.475-.185.6.6 0 01-.196-.449q0-.26.196-.445a.67.67 0 01.475-.186q.277 0 .473.186a.59.59 0 01.199.445.6.6 0 01-.2.449.66.66 0 01-.472.185m2.975 2.892V53h-1.117v-5.182h1.07v.864h.064q.178-.426.567-.678.386-.253.968-.253.532 0 .93.226.399.225.618.661.223.435.223 1.066V53H31.82v-3.14q0-.544-.28-.848-.28-.306-.772-.307-.338 0-.597.145-.26.146-.409.422a1.4 1.4 0 00-.148.672m6.55 3.15q-.621 0-1.107-.317a2.15 2.15 0 01-.766-.914q-.28-.6-.28-1.444 0-.853.284-1.45.283-.597.772-.908.489-.31 1.104-.31.468 0 .762.158.294.155.462.371.169.213.26.385h.054v-2.574h1.117V53h-1.094v-.813h-.077q-.094.18-.27.391a1.4 1.4 0 01-.469.365q-.293.15-.752.151m.283-.927q.411 0 .698-.22.288-.222.436-.617.15-.398.151-.92 0-.524-.148-.912a1.3 1.3 0 00-.435-.6 1.13 1.13 0 00-.702-.216 1.14 1.14 0 00-.722.226 1.34 1.34 0 00-.435.614 2.5 2.5 0 00-.145.887q0 .502.148.9.149.399.436.628.29.23.718.23m5.972.938q-.746 0-1.295-.334a2.3 2.3 0 01-.854-.938q-.3-.6-.3-1.4 0-.807.3-1.41.304-.605.854-.938.55-.334 1.295-.334t1.296.334.85.938q.303.603.303 1.41 0 .8-.303 1.4-.3.6-.85.938-.55.334-1.296.334m.004-.915q.445 0 .735-.24.294-.238.439-.637.144-.4.145-.884 0-.486-.145-.887a1.43 1.43 0 00-.439-.644q-.29-.243-.735-.243-.45 0-.743.243-.293.24-.438.644a2.6 2.6 0 00-.145.887q0 .483.145.884.145.398.438.638t.743.24m4.473.81-1.491-5.182h1.143l.962 3.725h.05l.972-3.725h1.137l.972 3.708h.05l.955-3.708h1.144L51.296 53h-1.15l-1.012-3.62h-.071L48.05 53zm10.79-3.863-1.016.142a.94.94 0 00-.492-.577 1.15 1.15 0 00-.503-.098q-.405 0-.678.179-.27.18-.27.462 0 .243.182.392.182.148.59.246l.857.189q.726.162 1.08.506t.357.897q-.003.48-.28.847a1.8 1.8 0 01-.762.573q-.486.21-1.123.21-.914 0-1.478-.385a1.6 1.6 0 01-.685-1.09l1.083-.135a.9.9 0 00.361.557q.274.186.712.186.465 0 .745-.193.28-.196.284-.475a.5.5 0 00-.179-.388q-.173-.156-.54-.236l-.877-.193q-.739-.158-1.09-.523-.351-.367-.347-.924a1.3 1.3 0 01.256-.816q.26-.35.722-.544.465-.195 1.07-.195.873 0 1.376.378.506.374.645 1.008M61.352 53v-6.91h1.15v2.963h3.323V46.09h1.147V53h-1.147v-2.972h-3.323V53zm9.26.105q-.773 0-1.333-.328a2.2 2.2 0 01-.86-.927q-.3-.6-.3-1.407 0-.8.3-1.407.303-.608.846-.945.543-.34 1.276-.34.462 0 .88.148.419.149.746.466.327.313.516.81.192.495.192 1.187v.364H68.69v-.79h3.103a1.4 1.4 0 00-.155-.66 1.16 1.16 0 00-.435-.463 1.2 1.2 0 00-.648-.168 1.27 1.27 0 00-1.164.698q-.162.314-.165.681v.652q0 .485.175.83.175.343.49.526.314.179.732.179.28 0 .506-.078.226-.081.388-.236.165-.158.253-.392l1.049.152q-.112.436-.412.763-.297.324-.755.506-.456.179-1.04.179m4.837.003q-.492 0-.887-.179a1.47 1.47 0 01-.627-.526q-.23-.35-.23-.86 0-.443.165-.726a1.3 1.3 0 01.452-.455q.284-.17.635-.253.354-.088.728-.128.46-.055.746-.091.286-.038.418-.118.132-.081.132-.26v-.024q0-.408-.24-.634-.236-.226-.691-.226-.48 0-.756.209-.276.21-.381.48l-1.043-.19q.153-.472.47-.776.316-.306.752-.452a3 3 0 01.944-.148q.344 0 .702.08.36.082.668.277.307.196.496.547.192.35.192.89V53h-1.08v-.709h-.04a1.4 1.4 0 01-.3.392 1.5 1.5 0 01-.503.307 2 2 0 01-.722.118m.267-.85q.395 0 .678-.155.284-.159.435-.412a1.05 1.05 0 00.155-.553v-.641a.6.6 0 01-.202.094 4 4 0 01-.328.075q-.18.03-.357.053-.175.024-.3.04a2.5 2.5 0 00-.51.126.85.85 0 00-.364.243.6.6 0 00-.135.408q0 .357.263.54.264.182.665.182m8.017-4.44L81.868 53h-1.215l-1.862-5.182h1.19l1.252 3.92h.054l1.255-3.92zm1.591 7.125q-.236 0-.435-.037a1.5 1.5 0 01-.307-.084l.264-.888q.273.078.485.068a.6.6 0 00.375-.145q.165-.138.283-.459l.118-.31-1.889-5.27h1.188l1.251 3.968h.054l1.258-3.968h1.191l-2.108 5.84a2.3 2.3 0 01-.381.698 1.5 1.5 0 01-.567.435q-.33.153-.78.152m13.063-6.565h-1.154a1.7 1.7 0 00-.216-.57 1.583 1.583 0 00-.894-.685 2 2 0 00-.607-.088q-.58 0-1.036.29-.45.29-.711.85t-.26 1.37q0 .82.26 1.38.262.56.715.847.452.283 1.029.283.316 0 .6-.084a1.8 1.8 0 00.513-.253q.23-.168.385-.415.158-.246.222-.563l1.154.003a2.7 2.7 0 01-.931 1.68q-.375.321-.87.496-.492.175-1.087.175-.904 0-1.612-.425a2.96 2.96 0 01-1.117-1.217q-.405-.797-.405-1.907t.408-1.906q.412-.795 1.12-1.218a3.06 3.06 0 011.606-.425q.564 0 1.05.162.488.159.87.466.385.307.634.749.253.442.334 1.005m3.353 4.727q-.746 0-1.296-.334a2.3 2.3 0 01-.853-.938q-.3-.6-.3-1.4 0-.807.3-1.41.303-.605.853-.938.55-.334 1.296-.334.745 0 1.295.334.55.333.85.938.304.603.304 1.41 0 .8-.304 1.4-.3.6-.85.938-.55.334-1.295.334m.003-.915q.446 0 .735-.24.294-.238.439-.637.145-.4.145-.884 0-.486-.145-.887a1.43 1.43 0 00-.439-.644q-.29-.243-.735-.243-.449 0-.742.243-.294.24-.439.644a2.6 2.6 0 00-.145.887q0 .483.145.884.145.398.439.638.293.24.742.24m4.642-6.1V53h-1.117v-6.91zm2.421 0V53h-1.116v-6.91zm3.572 7.015q-.772 0-1.332-.328a2.2 2.2 0 01-.861-.927q-.3-.6-.3-1.407 0-.8.3-1.407.304-.608.847-.945.543-.34 1.275-.34.462 0 .881.148.418.149.745.466.328.313.516.81.193.495.193 1.187v.364h-4.187v-.79h3.104q0-.37-.155-.66a1.17 1.17 0 00-.436-.463 1.2 1.2 0 00-.647-.168 1.27 1.27 0 00-1.164.698q-.162.314-.165.681v.652q0 .485.175.83.175.343.489.526.314.179.732.179.28 0 .506-.078.226-.081.388-.236.165-.158.253-.392l1.049.152a1.75 1.75 0 01-.411.763q-.297.324-.756.506-.455.179-1.039.179m5.56 0q-.763 0-1.313-.341a2.3 2.3 0 01-.843-.945q-.293-.603-.293-1.386 0-.793.3-1.397t.847-.945q.55-.34 1.292-.34.61 0 1.086.226a1.873 1.873 0 011.1 1.575h-1.076a1.13 1.13 0 00-.355-.627q-.276-.257-.738-.257-.399 0-.699.213-.297.21-.465.6a2.3 2.3 0 00-.166.928q0 .547.166.945a1.4 1.4 0 00.462.61q.3.213.702.213.28 0 .502-.105.227-.105.378-.3.154-.199.213-.479h1.076q-.05.525-.328.938a1.9 1.9 0 01-.748.64q-.47.234-1.1.234m5.729-5.287v.877h-2.905v-.877zm-2.159-1.241h1.117v4.885q0 .266.08.408a.42.42 0 00.213.189q.135.047.294.047.117 0 .209-.017l.145-.027.195.894q-.094.03-.266.068a2 2 0 01-.422.047 1.9 1.9 0 01-.786-.142 1.3 1.3 0 01-.57-.469q-.212-.317-.209-.796zm5.392 6.528q-.745 0-1.296-.334a2.3 2.3 0 01-.853-.938q-.3-.6-.301-1.4 0-.807.301-1.41.304-.605.853-.938.55-.334 1.296-.334t1.295.334q.55.333.85.938.304.603.304 1.41 0 .8-.304 1.4-.3.6-.85.938-.55.334-1.295.334m.003-.915q.445 0 .735-.24.294-.238.439-.637.145-.4.145-.884 0-.486-.145-.887a1.43 1.43 0 00-.439-.644q-.29-.243-.735-.243-.448 0-.742.243-.294.24-.439.644a2.6 2.6 0 00-.145.887q0 .483.145.884.145.398.439.638t.742.24m3.525.81v-5.182h1.083v.844h.054q.142-.432.493-.675.354-.246.803-.246.097 0 .226.01.128.006.209.02v1.046a1.3 1.3 0 00-.233-.044 2 2 0 00-.314-.024q-.347 0-.62.149a1.1 1.1 0 00-.429.405q-.155.255-.155.593V53zm7.702-3.863-1.015.142a.95.95 0 00-.493-.577 1.15 1.15 0 00-.502-.098q-.405 0-.678.179-.27.18-.27.462 0 .243.182.392.182.148.59.246l.857.189q.726.162 1.08.506t.357.897q-.003.48-.28.847a1.8 1.8 0 01-.762.573 2.8 2.8 0 01-1.124.21q-.914 0-1.477-.385a1.6 1.6 0 01-.685-1.09l1.083-.135a.9.9 0 00.361.557q.273.186.712.186.465 0 .745-.193.28-.196.284-.475a.5.5 0 00-.179-.388q-.172-.156-.54-.236l-.877-.193q-.74-.158-1.09-.523-.35-.367-.347-.924a1.3 1.3 0 01.256-.816q.26-.35.722-.544a2.7 2.7 0 011.07-.195q.873 0 1.376.378.506.374.644 1.008"/><path fill="#F8FAF8" d="M16.25 63A2.75 2.75 0 0119 60.25h170.438a2.75 2.75 0 012.75 2.75v135.565a2.75 2.75 0 01-2.75 2.75H19a2.75 2.75 0 01-2.75-2.75z"/><path stroke="#CCCFCC" stroke-width=".5" d="M16.25 63A2.75 2.75 0 0119 60.25h170.438a2.75 2.75 0 012.75 2.75v135.565a2.75 2.75 0 01-2.75 2.75H19a2.75 2.75 0 01-2.75-2.75z"/><path fill="#464D45" d="M20.837 73v-6.91h2.334q.813 0 1.33.294.519.29.768.787.25.495.25 1.106 0 .61-.25 1.11a1.86 1.86 0 01-.762.796q-.516.294-1.322.294H21.51v-.743h1.647q.556 0 .894-.192t.489-.52q.155-.33.155-.745t-.155-.742a1.1 1.1 0 00-.493-.513q-.34-.189-.904-.189h-1.47V73zm7.447.121q-.492 0-.894-.185a1.54 1.54 0 01-.638-.543q-.236-.358-.236-.864 0-.445.176-.722.175-.28.468-.438.294-.159.648-.237a8 8 0 01.719-.128q.473-.06.765-.09.297-.034.432-.112.14-.078.139-.27v-.027q0-.499-.274-.776-.27-.276-.82-.277-.57 0-.893.25a1.5 1.5 0 00-.456.533l-.756-.27q.203-.472.54-.735.341-.267.742-.371a3 3 0 01.797-.108q.249 0 .573.06.328.058.631.24.307.182.51.55.201.367.202.985V73h-.796v-.702h-.04a1.4 1.4 0 01-.27.361 1.6 1.6 0 01-.503.328q-.315.135-.766.134m.121-.715q.472 0 .796-.185a1.26 1.26 0 00.662-1.097v-.728q-.05.06-.223.11-.169.048-.391.085a18 18 0 01-.763.102q-.31.04-.58.131a1 1 0 00-.432.267q-.162.175-.162.479 0 .414.307.627.311.21.786.21m4.503-6.315V73h-.796v-6.91zm3.563 7.017a2.26 2.26 0 01-1.23-.334 2.27 2.27 0 01-.824-.934q-.294-.6-.294-1.404 0-.809.294-1.414.297-.604.823-.937a2.26 2.26 0 011.231-.334q.702 0 1.229.334.53.333.823.938.296.603.296 1.413 0 .803-.296 1.403-.293.6-.824.935-.526.334-1.227.334m0-.715q.534 0 .878-.273.344-.274.509-.72.165-.444.165-.964t-.165-.968q-.165-.45-.51-.725-.343-.277-.876-.277-.534 0-.878.277-.344.276-.509.725t-.165.968q0 .52.165.965t.51.719q.343.273.877.273m6.627.607h-.877l2.537-6.91h.863L48.159 73h-.877l-2.064-5.816h-.054zm.324-2.699h3.535v.742h-3.535zm6.5-4.21V73h-.795v-6.91zm3.713 1.727v.675h-2.686v-.675zm-1.903-1.241h.796v4.939q0 .336.098.506.101.165.256.222.159.054.334.054a1.4 1.4 0 00.351-.04l.162.715q-.082.03-.226.06-.146.034-.368.034-.338 0-.66-.145a1.3 1.3 0 01-.534-.441q-.21-.297-.21-.75zm5.15 6.531a2.26 2.26 0 01-1.232-.334 2.27 2.27 0 01-.823-.934q-.293-.6-.293-1.404 0-.809.293-1.414.297-.604.823-.937a2.26 2.26 0 011.232-.334q.702 0 1.228.334.53.333.823.938.297.603.297 1.413 0 .803-.297 1.403-.294.6-.823.935-.526.334-1.228.334m0-.715q.532 0 .877-.273.344-.274.51-.72.165-.444.165-.964t-.166-.968q-.165-.45-.51-.725-.343-.277-.876-.277-.534 0-.877.277-.345.276-.51.725t-.165.968q0 .52.165.965t.51.719q.343.273.877.273m6.343.607v-6.91h4.143v.743h-3.306v2.335h2.995v.742h-2.996V73zm5.468 0v-5.182h.796V73zm.404-6.046a.57.57 0 01-.401-.158.5.5 0 01-.165-.381.5.5 0 01.165-.381.57.57 0 01.401-.159q.233 0 .399.159a.5.5 0 01.168.38.5.5 0 01-.168.382.55.55 0 01-.399.158M70.947 73v-5.182h.77v.783h.053q.142-.386.513-.624.37-.24.837-.24a9 9 0 01.418.014v.81a2 2 0 00-.186-.031 2 2 0 00-.3-.024q-.378 0-.675.159-.292.154-.465.432-.17.273-.169.624V73zm5.55.108q-.75 0-1.293-.33a2.2 2.2 0 01-.833-.932q-.29-.6-.29-1.396 0-.797.29-1.404a2.3 2.3 0 01.817-.951q.526-.345 1.227-.344.405 0 .8.135t.719.438q.324.3.516.796t.192 1.222v.337h-3.994v-.688h3.184q0-.439-.175-.783a1.3 1.3 0 00-.492-.543 1.4 1.4 0 00-.75-.2q-.475 0-.823.237-.344.233-.53.607-.185.375-.185.803v.459q0 .587.203.995.206.405.57.618.364.209.846.209.315 0 .567-.088.257-.09.442-.27.186-.182.287-.452l.77.216q-.123.39-.41.688a2 2 0 01-.707.459 2.6 2.6 0 01-.948.162m4.53-.108-1.579-5.182h.837l1.12 3.968h.054l1.107-3.968h.85l1.093 3.954h.054l1.12-3.954h.836L84.941 73h-.783l-1.134-3.98h-.08L81.81 73zm8.07.121q-.492 0-.894-.185a1.53 1.53 0 01-.638-.543q-.236-.358-.236-.864 0-.445.175-.722.176-.28.47-.438.293-.159.647-.237a8 8 0 01.719-.128q.472-.06.766-.09.296-.034.431-.112.139-.078.139-.27v-.027q0-.499-.274-.776-.27-.276-.82-.277-.57 0-.893.25a1.5 1.5 0 00-.456.533l-.755-.27q.201-.472.54-.735.34-.267.742-.371a3 3 0 01.796-.108q.249 0 .573.06.328.058.631.24.307.182.51.55.201.367.202.985V73h-.796v-.702h-.04a1.4 1.4 0 01-.27.361 1.6 1.6 0 01-.503.328q-.315.135-.766.134m.121-.715q.472 0 .796-.185a1.26 1.26 0 00.662-1.097v-.728q-.05.06-.223.11a4 4 0 01-.391.085 18 18 0 01-.763.102q-.31.04-.58.131a1 1 0 00-.432.267q-.162.175-.162.479 0 .414.307.627.311.21.786.21m4.503-6.315V73h-.796v-6.91zm2.254 0V73h-.796v-6.91z"/><path fill="#F5F7F5" d="M19.25 80.5c0-.69.56-1.25 1.25-1.25h40.263c.69 0 1.25.56 1.25 1.25v117c0 .69-.56 1.25-1.25 1.25H20.5c-.69 0-1.25-.56-1.25-1.25z"/><path stroke="#D7DAD7" stroke-width=".5" d="M19.25 80.5c0-.69.56-1.25 1.25-1.25h40.263c.69 0 1.25.56 1.25 1.25v117c0 .69-.56 1.25-1.25 1.25H20.5c-.69 0-1.25-.56-1.25-1.25z"/><path fill="#464D45" d="M31.959 140.583v-.688l3.036-4.804h.499v1.066h-.337l-2.294 3.63v.054h4.088v.742zM35.21 142v-6.909h.796V142zm5.422.094q-.762 0-1.299-.414-.536-.418-.82-1.212-.283-.795-.283-1.923 0-1.12.283-1.912.287-.797.823-1.215.54-.422 1.296-.422.755 0 1.292.422.54.418.823 1.215.287.792.287 1.912 0 1.128-.284 1.923-.283.794-.82 1.212-.536.414-1.298.414m0-.742q.756 0 1.174-.728.418-.729.418-2.079 0-.897-.192-1.528-.189-.63-.547-.961a1.2 1.2 0 00-.853-.331q-.75 0-1.17.739-.422.735-.422 2.081 0 .898.188 1.525.189.628.544.955.357.327.86.327m6.15.742q-.694 0-1.227-.246a2 2 0 01-.827-.685 1.7 1.7 0 01-.293-.998 1.84 1.84 0 01.65-1.434q.308-.254.686-.32v-.041a1.33 1.33 0 01-.79-.557 1.7 1.7 0 01-.29-.981 1.67 1.67 0 01.267-.942q.27-.414.742-.654.475-.24 1.083-.24.6 0 1.072.24t.743.654q.273.416.276.942a1.7 1.7 0 01-.3.981 1.33 1.33 0 01-.78.557v.041q.375.066.675.32.3.249.48.624.179.371.182.81a1.74 1.74 0 01-.304.998 2 2 0 01-.826.685q-.526.246-1.218.246m0-.742q.47 0 .81-.152t.527-.428q.184-.276.189-.648a1.24 1.24 0 00-.203-.691 1.4 1.4 0 00-.543-.473 1.7 1.7 0 00-.78-.172q-.441 0-.789.172-.344.173-.543.473-.195.3-.192.691a1.13 1.13 0 00.179.648q.185.276.53.428.343.152.816.152m0-3.279q.371 0 .659-.148.29-.149.455-.415.165-.267.169-.624a1.15 1.15 0 00-.166-.611 1.1 1.1 0 00-.448-.405 1.46 1.46 0 00-.668-.145q-.389 0-.678.145-.29.142-.45.405a1.13 1.13 0 00-.154.611q-.004.357.158.624.165.266.456.415.29.148.668.148"/><path fill="#F5F7F5" d="M64.513 80.5c0-.69.56-1.25 1.25-1.25h59.5c.691 0 1.25.56 1.25 1.25v80.852c0 .69-.559 1.25-1.25 1.25h-59.5c-.69 0-1.25-.56-1.25-1.25z"/><path stroke="#D7DAD7" stroke-width=".5" d="M64.513 80.5c0-.69.56-1.25 1.25-1.25h59.5c.691 0 1.25.56 1.25 1.25v80.852c0 .69-.559 1.25-1.25 1.25h-59.5c-.69 0-1.25-.56-1.25-1.25z"/><path fill="#464D45" d="M89.39 124.02q-.668 0-1.19-.229a2.04 2.04 0 01-.827-.638 1.7 1.7 0 01-.33-.954h.85q.026.333.23.576.2.24.529.371.327.132.725.132.445 0 .79-.155.344-.156.54-.432a1.08 1.08 0 00.195-.641q0-.381-.189-.671a1.25 1.25 0 00-.553-.459q-.365-.165-.89-.165h-.554v-.743h.553q.411 0 .722-.148.314-.148.49-.418.177-.27.178-.635 0-.35-.155-.61a1.06 1.06 0 00-.439-.405 1.4 1.4 0 00-.66-.145q-.359 0-.676.131-.314.129-.512.375a.98.98 0 00-.216.587h-.81q.02-.543.327-.951.307-.412.803-.641.499-.23 1.097-.23.64 0 1.1.26.458.257.704.678.247.422.247.911 0 .584-.307.995a1.55 1.55 0 01-.827.57v.054q.655.108 1.022.557.369.446.368 1.103 0 .564-.307 1.012-.303.445-.83.702a2.7 2.7 0 01-1.197.256m6.07-7.098q.426.003.85.162.426.159.776.526.351.364.564.996.213.63.212 1.582 0 .92-.175 1.636-.172.712-.5 1.201a2.2 2.2 0 01-.789.742 2.14 2.14 0 01-1.045.253 2.3 2.3 0 01-1.036-.229 2 2 0 01-.742-.645 2.24 2.24 0 01-.368-.961h.823q.111.475.442.786.334.307.88.307.8 0 1.262-.698.466-.699.466-1.974h-.054a2.1 2.1 0 01-.449.489 2.003 2.003 0 01-1.252.429q-.592 0-1.09-.294a2.2 2.2 0 01-.789-.813 2.37 2.37 0 01-.293-1.187q0-.635.283-1.161a2.2 2.2 0 01.803-.843q.52-.314 1.221-.304m0 .742q-.424 0-.765.213a1.5 1.5 0 00-.537.567q-.195.354-.195.786t.189.786q.192.35.522.56.334.206.76.206a1.44 1.44 0 001.079-.473q.21-.222.327-.502.118-.283.118-.591 0-.405-.195-.759a1.55 1.55 0 00-.533-.573 1.4 1.4 0 00-.77-.22m6.151-.742q.426.003.85.162.426.159.776.526.351.364.564.996.212.63.212 1.582 0 .92-.175 1.636-.172.712-.499 1.201a2.2 2.2 0 01-.79.742 2.14 2.14 0 01-1.046.253q-.58 0-1.035-.229a2 2 0 01-.743-.645 2.24 2.24 0 01-.367-.961h.823q.11.475.442.786.334.307.88.307.8 0 1.262-.698.466-.699.466-1.974h-.054a2.1 2.1 0 01-.449.489 2 2 0 01-1.252.429q-.593 0-1.089-.294a2.2 2.2 0 01-.79-.813 2.37 2.37 0 01-.293-1.187q0-.635.283-1.161a2.2 2.2 0 01.803-.843q.52-.314 1.221-.304m0 .742q-.424 0-.765.213a1.5 1.5 0 00-.537.567q-.195.354-.196.786 0 .432.189.786.193.35.523.56.335.206.759.206.321 0 .597-.125.278-.129.483-.348.209-.222.327-.502.118-.283.118-.591 0-.405-.195-.759a1.56 1.56 0 00-.533-.573 1.4 1.4 0 00-.77-.22"/><path fill="#F5F7F5" d="M129.013 80.5c0-.69.56-1.25 1.25-1.25H187.5c.69 0 1.25.56 1.25 1.25v26.63c0 .69-.56 1.25-1.25 1.25h-57.237c-.69 0-1.25-.56-1.25-1.25z"/><path stroke="#D7DAD7" stroke-width=".5" d="M129.013 80.5c0-.69.56-1.25 1.25-1.25H187.5c.69 0 1.25.56 1.25 1.25v26.63c0 .69-.56 1.25-1.25 1.25h-57.237c-.69 0-1.25-.56-1.25-1.25z"/><path fill="#464D45" d="M155.807 96.909q-.694 0-1.228-.246a2 2 0 01-.826-.685 1.72 1.72 0 01-.294-.999 1.85 1.85 0 01.172-.81 1.76 1.76 0 01.48-.623 1.46 1.46 0 01.684-.321v-.04a1.34 1.34 0 01-.789-.557 1.7 1.7 0 01-.29-.982q-.003-.526.266-.941a1.9 1.9 0 01.743-.655q.476-.24 1.082-.24.601 0 1.073.24t.742.655q.274.414.277.941a1.7 1.7 0 01-.3.982 1.34 1.34 0 01-.779.556v.041q.374.068.674.32.3.25.479.625.179.37.182.81a1.74 1.74 0 01-.303.998q-.297.435-.827.685a2.85 2.85 0 01-1.218.246m0-.742q.47 0 .81-.152t.526-.428.189-.648a1.24 1.24 0 00-.202-.692 1.4 1.4 0 00-.543-.472 1.7 1.7 0 00-.78-.172q-.441 0-.789.172-.344.172-.543.472-.196.3-.192.692-.004.37.178.648.186.276.53.428t.816.152m0-3.28q.372 0 .658-.148.291-.148.456-.415a1.2 1.2 0 00.168-.624 1.15 1.15 0 00-.165-.61 1.07 1.07 0 00-.449-.405 1.46 1.46 0 00-.668-.145 1.5 1.5 0 00-.678.145q-.29.142-.448.404a1.13 1.13 0 00-.156.611q-.003.359.159.624.165.267.455.415.291.15.668.149m3.992 3.927v-.607l2.281-2.496q.401-.44.661-.763.26-.326.385-.614.128-.29.128-.607a1.12 1.12 0 00-.648-1.042 1.5 1.5 0 00-.675-.145q-.398 0-.695.165-.293.162-.455.455a1.4 1.4 0 00-.159.689h-.796q0-.607.28-1.067.28-.458.763-.715.486-.255 1.089-.256.608 0 1.076.256.47.257.736.692.267.435.266.968 0 .381-.138.746-.135.361-.472.806-.334.442-.928 1.08l-1.552 1.66v.053h3.212v.742z"/><path fill="#F5F7F5" d="M129.013 112.13c0-.69.56-1.25 1.25-1.25H187.5c.69 0 1.25.56 1.25 1.25v26.63c0 .69-.56 1.25-1.25 1.25h-57.237c-.69 0-1.25-.56-1.25-1.25z"/><path stroke="#D7DAD7" stroke-width=".5" d="M129.013 112.13c0-.69.56-1.25 1.25-1.25H187.5c.69 0 1.25.56 1.25 1.25v26.63c0 .69-.56 1.25-1.25 1.25h-57.237c-.69 0-1.25-.56-1.25-1.25z"/><path fill="#464D45" d="M155.807 128.539q-.694 0-1.228-.246a2 2 0 01-.826-.685 1.73 1.73 0 01-.294-.999 1.86 1.86 0 01.172-.81 1.8 1.8 0 01.48-.624q.306-.252.684-.32v-.041a1.34 1.34 0 01-.789-.556 1.7 1.7 0 01-.29-.982 1.67 1.67 0 01.266-.941 1.9 1.9 0 01.743-.655 2.4 2.4 0 011.082-.239q.601 0 1.073.239.472.24.742.655.274.414.277.941a1.7 1.7 0 01-.3.982 1.34 1.34 0 01-.779.556v.041q.374.068.674.32.3.25.479.624.179.372.182.81a1.75 1.75 0 01-.303.999 2 2 0 01-.827.685 2.85 2.85 0 01-1.218.246m0-.742q.47 0 .81-.152.341-.151.526-.429.186-.276.189-.647a1.24 1.24 0 00-.202-.692 1.4 1.4 0 00-.543-.472 1.7 1.7 0 00-.78-.172q-.441 0-.789.172-.344.172-.543.472-.196.3-.192.692-.004.37.178.647.186.278.53.429.344.152.816.152m0-3.28q.372 0 .658-.148.291-.148.456-.415t.168-.624a1.15 1.15 0 00-.165-.611 1.07 1.07 0 00-.449-.404 1.46 1.46 0 00-.668-.146q-.387 0-.678.146a1.04 1.04 0 00-.448.404 1.13 1.13 0 00-.156.611 1.16 1.16 0 00.159.624q.165.267.455.415t.668.148m7.082-2.982v6.909h-.836v-6.032h-.041l-1.687 1.12v-.85l1.728-1.147z"/><path fill="#F5F7F5" d="M129.013 143.759c0-.691.56-1.25 1.25-1.25H187.5c.69 0 1.25.559 1.25 1.25v26.629c0 .691-.56 1.25-1.25 1.25h-57.237a1.25 1.25 0 01-1.25-1.25z"/><path stroke="#D7DAD7" stroke-width=".5" d="M129.013 143.759c0-.691.56-1.25 1.25-1.25H187.5c.69 0 1.25.559 1.25 1.25v26.629c0 .691-.56 1.25-1.25 1.25h-57.237a1.25 1.25 0 01-1.25-1.25z"/><path fill="#464D45" d="m154.026 160.073 3.09-6.113v-.054h-3.562v-.742h4.426v.783l-3.077 6.126zm7.905.095q-.594 0-1.069-.236a2 2 0 01-.763-.648 1.77 1.77 0 01-.313-.938h.809q.048.469.425.776.382.303.911.304.426 0 .756-.2.334-.198.523-.546.192-.35.192-.793 0-.452-.199-.806a1.46 1.46 0 00-.54-.564 1.53 1.53 0 00-.786-.209 2.2 2.2 0 00-.651.098q-.334.098-.55.253l-.782-.094.418-3.401h3.589v.742h-2.887l-.243 2.038h.04a2.031 2.031 0 011.201-.391 2.12 2.12 0 011.913 1.126q.287.523.287 1.195 0 .66-.297 1.18a2.17 2.17 0 01-.81.817 2.3 2.3 0 01-1.174.297"/><path fill="#F5F7F5" d="M129.013 175.389c0-.691.56-1.25 1.25-1.25h30.079c.69 0 1.25.559 1.25 1.25V197.5c0 .69-.56 1.25-1.25 1.25h-30.079c-.69 0-1.25-.56-1.25-1.25z"/><path stroke="#D7DAD7" stroke-width=".5" d="M129.013 175.389c0-.691.56-1.25 1.25-1.25h30.079c.69 0 1.25.559 1.25 1.25V197.5c0 .69-.56 1.25-1.25 1.25h-30.079c-.69 0-1.25-.56-1.25-1.25z"/><path fill="#464D45" d="M139.705 188.027v-.688l3.036-4.804h.5v1.066h-.338l-2.294 3.63v.054h4.089v.742zm3.252 1.417v-6.909h.796v6.909zm3.263 0v-.607l2.281-2.496q.401-.44.661-.763.26-.327.385-.614.128-.29.128-.607a1.12 1.12 0 00-.648-1.042 1.5 1.5 0 00-.675-.146 1.4 1.4 0 00-.695.166q-.293.162-.455.455a1.4 1.4 0 00-.159.688h-.796q0-.607.28-1.066.28-.458.763-.715a2.3 2.3 0 011.089-.256q.607 0 1.077.256.468.257.735.692t.266.968q0 .381-.138.746-.135.36-.472.806-.334.441-.928 1.079l-1.552 1.66v.054h3.212v.742z"/><path fill="#F5F7F5" d="M164.092 175.389c0-.691.56-1.25 1.25-1.25H187.5c.69 0 1.25.559 1.25 1.25V197.5c0 .69-.56 1.25-1.25 1.25h-22.158c-.69 0-1.25-.56-1.25-1.25z"/><path stroke="#D7DAD7" stroke-width=".5" d="M164.092 175.389c0-.691.56-1.25 1.25-1.25H187.5c.69 0 1.25.559 1.25 1.25V197.5c0 .69-.56 1.25-1.25 1.25h-22.158c-.69 0-1.25-.56-1.25-1.25z"/><path fill="#464D45" d="M174.278 182.535v6.909h-.837v-6.032h-.04l-1.687 1.12v-.85l1.727-1.147zm5.193 7.004a2.4 2.4 0 01-1.07-.236 2 2 0 01-.762-.648 1.77 1.77 0 01-.314-.938h.81q.047.469.425.776.381.303.911.304.425 0 .755-.199.334-.2.523-.547.192-.35.193-.793 0-.452-.199-.806a1.47 1.47 0 00-.54-.563 1.53 1.53 0 00-.786-.21 2.2 2.2 0 00-.651.098q-.334.098-.55.253l-.783-.094.418-3.401h3.59v.742h-2.888l-.243 2.038h.041q.212-.168.533-.28.32-.111.668-.111a2.13 2.13 0 011.912 1.127q.288.522.287 1.194 0 .661-.297 1.181a2.16 2.16 0 01-.809.816 2.3 2.3 0 01-1.174.297"/><path fill="#F5F7F5" d="M64.513 166.352c0-.691.56-1.25 1.25-1.25h59.5c.691 0 1.25.559 1.25 1.25V197.5c0 .69-.559 1.25-1.25 1.25h-59.5c-.69 0-1.25-.56-1.25-1.25z"/><path stroke="#D7DAD7" stroke-width=".5" d="M64.513 166.352c0-.691.56-1.25 1.25-1.25h59.5c.691 0 1.25.559 1.25 1.25V197.5c0 .69-.559 1.25-1.25 1.25h-59.5c-.69 0-1.25-.56-1.25-1.25z"/><path fill="#464D45" d="M92.385 177.922q.425.003.85.162.426.159.776.526.351.364.564.996.212.63.212 1.582a7 7 0 01-.175 1.636q-.172.712-.5 1.201a2.2 2.2 0 01-.79.742 2.14 2.14 0 01-1.045.253 2.3 2.3 0 01-1.036-.229 2 2 0 01-.742-.645 2.24 2.24 0 01-.367-.961h.823q.11.476.442.786.334.307.88.307.8 0 1.262-.698.465-.699.465-1.974h-.054a2.1 2.1 0 01-.448.489 2.003 2.003 0 01-1.252.429q-.594 0-1.09-.294a2.2 2.2 0 01-.789-.813 2.37 2.37 0 01-.293-1.187q0-.635.283-1.161a2.2 2.2 0 01.803-.843q.519-.314 1.221-.304m0 .742q-.425 0-.766.213a1.5 1.5 0 00-.536.567q-.195.354-.196.786 0 .432.19.786.191.35.522.56.335.206.759.206a1.44 1.44 0 001.08-.473q.209-.222.327-.502.118-.284.118-.591 0-.405-.196-.759a1.55 1.55 0 00-.533-.573 1.4 1.4 0 00-.769-.22m4.424 6.262 3.09-6.113v-.054h-3.563v-.742h4.426v.782l-3.076 6.127z"/><path fill="#F8FAF8" d="M16.25 208.565a2.75 2.75 0 012.75-2.75h170.438a2.75 2.75 0 012.75 2.75V301a2.75 2.75 0 01-2.75 2.75H19a2.75 2.75 0 01-2.75-2.75z"/><path stroke="#CCCFCC" stroke-width=".5" d="M16.25 208.565a2.75 2.75 0 012.75-2.75h170.438a2.75 2.75 0 012.75 2.75V301a2.75 2.75 0 01-2.75 2.75H19a2.75 2.75 0 01-2.75-2.75z"/><path fill="#464D45" d="M20.837 218.565v-6.909h.836v6.167h3.212v.742zm5.235 0v-5.181h.797v5.181zm.405-6.045a.56.56 0 01-.401-.159.5.5 0 01-.166-.381.5.5 0 01.166-.381.56.56 0 01.401-.159q.233 0 .398.159a.5.5 0 01.169.381.5.5 0 01-.169.381.55.55 0 01-.398.159m2.646 2.928v3.117h-.796v-5.181h.769v.809h.067q.183-.394.554-.634.371-.243.958-.243.526 0 .92.216.396.213.615.648.22.432.22 1.093v3.292h-.797v-3.238q0-.61-.317-.952-.318-.344-.87-.344a1.4 1.4 0 00-.682.166q-.297.165-.469.482a1.6 1.6 0 00-.172.769m8.027.999v-3.063h.796v5.181h-.796v-.877h-.054q-.182.394-.567.672-.385.273-.972.273-.486 0-.863-.213a1.5 1.5 0 01-.594-.647q-.216-.435-.216-1.097v-3.292h.796v3.238q0 .567.317.904.32.338.817.338.297 0 .603-.152a1.3 1.3 0 00.52-.466q.213-.313.213-.799m2.848-3.063 1.241 2.118 1.242-2.118h.917l-1.673 2.591 1.673 2.59h-.917l-1.242-2.01-1.241 2.01h-.918l1.646-2.59-1.646-2.591zm7.316 5.181v-6.909h.837v3.077h3.684v-3.077h.836v6.909h-.836v-3.09H48.15v3.09zm9.03.108q-.702 0-1.232-.334a2.27 2.27 0 01-.823-.934q-.294-.6-.293-1.403 0-.81.293-1.414.297-.604.823-.938a2.26 2.26 0 011.232-.334q.701 0 1.228.334.53.334.823.938.297.604.297 1.414 0 .803-.297 1.403-.294.6-.823.934-.526.334-1.228.334m0-.715q.532 0 .877-.273.344-.273.51-.719.164-.445.164-.964 0-.52-.165-.969a1.63 1.63 0 00-.51-.725q-.343-.276-.876-.277-.534 0-.878.277-.344.276-.509.725a2.8 2.8 0 00-.165.969q0 .519.165.964.165.446.51.719.343.273.877.273m7.233-3.414-.715.203a1.3 1.3 0 00-.199-.348.96.96 0 00-.35-.283 1.3 1.3 0 00-.57-.112q-.477 0-.794.22-.313.216-.313.55 0 .296.215.468.218.173.675.287l.77.189q.695.17 1.035.516.34.344.34.888 0 .445-.256.796a1.7 1.7 0 01-.708.553 2.6 2.6 0 01-1.06.202q-.792 0-1.312-.344-.519-.344-.657-1.005l.755-.189q.108.418.408.628.304.209.793.209.557 0 .884-.236.33-.24.33-.574a.6.6 0 00-.188-.452q-.19-.186-.58-.277l-.864-.202q-.712-.17-1.046-.523-.33-.357-.33-.894 0-.438.246-.776.249-.337.678-.53.432-.192.978-.192.77 0 1.208.337.442.338.627.891m3.547-1.16v.674h-2.685v-.674zm-1.903-1.242h.796v4.939q0 .338.098.506.102.166.257.223.158.054.334.054a1.4 1.4 0 00.35-.041l.162.715q-.08.031-.226.061-.144.034-.367.034-.338 0-.662-.145a1.3 1.3 0 01-.533-.442q-.21-.297-.209-.749zm6.678 2.402-.715.203a1.3 1.3 0 00-.2-.348.96.96 0 00-.35-.283 1.3 1.3 0 00-.57-.112q-.475 0-.793.22-.314.216-.314.55 0 .296.216.468.217.173.675.287l.77.189q.695.17 1.035.516.34.344.34.888 0 .445-.256.796a1.7 1.7 0 01-.708.553 2.6 2.6 0 01-1.06.202q-.792 0-1.312-.344T68 217.324l.756-.189q.108.418.408.628.304.209.793.209.557 0 .884-.236.33-.24.33-.574a.6.6 0 00-.189-.452q-.188-.186-.58-.277l-.863-.202q-.712-.17-1.046-.523-.33-.357-.33-.894 0-.438.245-.776.25-.337.679-.53.432-.192.978-.192.769 0 1.208.337.441.338.627.891"/><path fill="#F5F7F5" d="M19.25 226.065c0-.69.56-1.25 1.25-1.25h58.886c.69 0 1.25.56 1.25 1.25v73c0 .691-.56 1.25-1.25 1.25H20.5a1.25 1.25 0 01-1.25-1.25z"/><path stroke="#D7DAD7" stroke-width=".5" d="M19.25 226.065c0-.69.56-1.25 1.25-1.25h58.886c.69 0 1.25.56 1.25 1.25v73c0 .691-.56 1.25-1.25 1.25H20.5a1.25 1.25 0 01-1.25-1.25z"/><path fill="#464D45" d="M41.634 265.565v-.607l2.28-2.496q.402-.44.662-.763.26-.327.385-.614.128-.29.128-.607 0-.364-.176-.631a1.14 1.14 0 00-.472-.411 1.5 1.5 0 00-.675-.145q-.398 0-.695.165a1.14 1.14 0 00-.455.455 1.4 1.4 0 00-.159.689h-.796q0-.608.28-1.067t.763-.715a2.3 2.3 0 011.09-.256q.606 0 1.075.256.47.257.736.692t.266.968q0 .381-.138.746a3.3 3.3 0 01-.472.806q-.334.442-.928 1.079l-1.552 1.66v.054h3.212v.742zm5.787-1.416v-.689l3.036-4.804h.5v1.066h-.338l-2.294 3.63v.054h4.089v.743zm3.252 1.416v-6.909h.796v6.909zm3.64 0 3.091-6.112v-.054h-3.562v-.743h4.426v.783l-3.077 6.126z"/><path fill="#F5F7F5" d="M83.136 226.065c0-.69.56-1.25 1.25-1.25h53.971c.691 0 1.25.56 1.25 1.25v73a1.25 1.25 0 01-1.25 1.25H84.386a1.25 1.25 0 01-1.25-1.25z"/><path stroke="#D7DAD7" stroke-width=".5" d="M83.136 226.065c0-.69.56-1.25 1.25-1.25h53.971c.691 0 1.25.56 1.25 1.25v73a1.25 1.25 0 01-1.25 1.25H84.386a1.25 1.25 0 01-1.25-1.25z"/><path fill="#464D45" d="M103.063 265.565v-.607l2.28-2.496q.401-.44.662-.763.26-.327.384-.614.128-.29.128-.607 0-.364-.175-.631a1.14 1.14 0 00-.472-.411 1.5 1.5 0 00-.675-.145q-.398 0-.695.165-.294.162-.456.455a1.44 1.44 0 00-.158.689h-.796q0-.608.28-1.067a1.95 1.95 0 01.762-.715 2.3 2.3 0 011.09-.256q.607 0 1.076.256.47.257.735.692.267.435.267.968 0 .381-.138.746-.135.36-.473.806-.334.442-.927 1.079l-1.552 1.66v.054h3.211v.742zm8.31.095q-.764 0-1.299-.415-.537-.419-.82-1.211-.283-.797-.283-1.923 0-1.12.283-1.913.287-.797.823-1.214.54-.422 1.296-.422.755 0 1.292.422.54.417.823 1.214.287.793.287 1.913 0 1.126-.284 1.923-.283.792-.819 1.211-.537.415-1.299.415m0-.742q.756 0 1.174-.729.418-.728.418-2.078 0-.897-.192-1.528-.189-.631-.547-.962-.354-.33-.853-.33-.75 0-1.171.738-.422.736-.422 2.082 0 .897.189 1.525t.543.954q.359.328.861.328m3.992.647v-.607l2.28-2.496q.402-.44.661-.763.26-.327.385-.614.128-.29.128-.607 0-.364-.175-.631a1.14 1.14 0 00-.473-.411 1.5 1.5 0 00-.674-.145q-.399 0-.695.165-.294.162-.456.455a1.44 1.44 0 00-.158.689h-.797q0-.608.281-1.067.279-.458.762-.715a2.3 2.3 0 011.09-.256q.606 0 1.076.256.469.257.735.692.267.435.267.968 0 .381-.139.746-.135.36-.472.806a14 14 0 01-.928 1.079l-1.551 1.66v.054h3.211v.742z"/><path fill="#F5F7F5" d="M142.107 226.065c0-.69.56-1.25 1.25-1.25H187.5c.69 0 1.25.56 1.25 1.25v37c0 .691-.56 1.25-1.25 1.25h-44.143a1.25 1.25 0 01-1.25-1.25z"/><path stroke="#D7DAD7" stroke-width=".5" d="M142.107 226.065c0-.69.56-1.25 1.25-1.25H187.5c.69 0 1.25.56 1.25 1.25v37c0 .691-.56 1.25-1.25 1.25h-44.143a1.25 1.25 0 01-1.25-1.25z"/><path fill="#464D45" d="M160.21 240.656v6.909h-.837v-6.032h-.04l-1.687 1.12v-.85l1.727-1.147zm5.247 7.004q-.668 0-1.191-.23a2.04 2.04 0 01-.827-.637 1.7 1.7 0 01-.33-.955h.85q.027.334.229.577.203.24.53.371.327.132.725.132.445 0 .79-.155a1.3 1.3 0 00.54-.432q.195-.277.195-.641 0-.381-.189-.672a1.25 1.25 0 00-.553-.458q-.365-.166-.891-.166h-.553v-.742h.553q.412 0 .722-.148.315-.149.49-.419.178-.27.178-.634 0-.35-.155-.611a1.06 1.06 0 00-.438-.404 1.4 1.4 0 00-.662-.145q-.357 0-.674.131-.314.128-.513.375a.97.97 0 00-.216.587h-.81q.02-.543.328-.952a2.06 2.06 0 01.802-.641 2.6 2.6 0 011.097-.229q.64 0 1.1.26.459.256.705.678.246.421.246.911 0 .583-.307.995a1.56 1.56 0 01-.827.57v.054q.656.108 1.023.557.367.444.367 1.103 0 .563-.307 1.012a2.07 2.07 0 01-.83.701q-.526.257-1.197.257m7.055-7.004v6.909h-.837v-6.032h-.04l-1.687 1.12v-.85l1.727-1.147z"/><path fill="#F5F7F5" d="M142.107 268.065c0-.69.56-1.25 1.25-1.25H187.5c.69 0 1.25.56 1.25 1.25v31c0 .691-.56 1.25-1.25 1.25h-44.143a1.25 1.25 0 01-1.25-1.25z"/><path stroke="#D7DAD7" stroke-width=".5" d="M142.107 268.065c0-.69.56-1.25 1.25-1.25H187.5c.69 0 1.25.56 1.25 1.25v31c0 .691-.56 1.25-1.25 1.25h-44.143a1.25 1.25 0 01-1.25-1.25z"/><path fill="#464D45" d="M160.21 279.656v6.909h-.837v-6.032h-.04l-1.687 1.12v-.85l1.727-1.147zm5.22 7.004q-.762 0-1.299-.415-.537-.419-.82-1.211-.283-.797-.283-1.923 0-1.12.283-1.913.287-.797.823-1.214.54-.422 1.296-.422.755 0 1.292.422.54.417.823 1.214.287.793.287 1.913 0 1.126-.284 1.923-.283.792-.819 1.211-.537.415-1.299.415m0-.742q.756 0 1.174-.729.418-.728.418-2.078 0-.897-.192-1.528-.189-.631-.547-.962-.354-.33-.853-.33-.749 0-1.171.738-.421.736-.421 2.082 0 .897.188 1.525.189.627.544.954.357.328.86.328m6.097-6.356q.425.003.85.162t.776.526q.351.365.563.995.213.631.213 1.583 0 .92-.176 1.636a3.7 3.7 0 01-.499 1.201 2.2 2.2 0 01-.789.742 2.14 2.14 0 01-1.046.253q-.58 0-1.036-.23a2 2 0 01-.742-.644 2.25 2.25 0 01-.368-.961h.823q.112.475.442.786.334.307.881.307.799 0 1.262-.699.465-.698.465-1.973h-.054a2.1 2.1 0 01-.449.489 1.97 1.97 0 01-1.251.428q-.594 0-1.09-.293a2.23 2.23 0 01-.789-.813 2.37 2.37 0 01-.294-1.188q0-.633.284-1.16.286-.53.803-.843.519-.315 1.221-.304m0 .742q-.426 0-.766.213a1.5 1.5 0 00-.536.566 1.6 1.6 0 00-.196.786q0 .432.189.786.192.351.523.56.333.206.759.206.32 0 .597-.125.276-.128.482-.347.21-.222.328-.503a1.55 1.55 0 00-.078-1.349 1.56 1.56 0 00-.533-.574 1.4 1.4 0 00-.769-.219"/><path fill="#F8FAF8" d="M196.688 224.739a2.75 2.75 0 012.75-2.75H365a2.75 2.75 0 012.75 2.75V301a2.75 2.75 0 01-2.75 2.75H199.438a2.75 2.75 0 01-2.75-2.75z"/><path stroke="#CCCFCC" stroke-width=".5" d="M196.688 224.739a2.75 2.75 0 012.75-2.75H365a2.75 2.75 0 012.75 2.75V301a2.75 2.75 0 01-2.75 2.75H199.438a2.75 2.75 0 01-2.75-2.75z"/><path fill="#464D45" d="M206.835 229.989h-.837a1.736 1.736 0 00-.705-1.093 1.9 1.9 0 00-.577-.283 2.3 2.3 0 00-.661-.095q-.627 0-1.137.317-.506.317-.806.935-.297.617-.297 1.515t.297 1.514q.3.618.806.935.51.317 1.137.317.344 0 .661-.094.318-.095.577-.28a1.77 1.77 0 00.705-1.097h.837a2.8 2.8 0 01-.344.948 2.6 2.6 0 01-.621.712 2.7 2.7 0 01-.833.442 3.1 3.1 0 01-.982.152 2.9 2.9 0 01-1.572-.432 2.96 2.96 0 01-1.083-1.228q-.395-.797-.395-1.889 0-1.094.395-1.889.395-.797 1.083-1.228a2.9 2.9 0 011.572-.432q.523 0 .982.152.462.151.833.445.37.29.621.708.25.415.344.948m1.244 4.75v-5.182h.796v5.182zm.405-6.045a.57.57 0 01-.402-.159.5.5 0 01-.165-.381.5.5 0 01.165-.381.57.57 0 01.402-.159q.232 0 .398.159a.5.5 0 01.168.381.5.5 0 01-.168.381.56.56 0 01-.398.159m5.52 2.024-.716.202a1.3 1.3 0 00-.199-.347.96.96 0 00-.35-.283 1.3 1.3 0 00-.571-.112q-.475 0-.792.219-.314.216-.314.55 0 .298.216.469.216.173.675.287l.769.189q.695.168 1.035.516.342.345.341.887 0 .446-.256.797a1.7 1.7 0 01-.709.553 2.6 2.6 0 01-1.059.202q-.793 0-1.312-.344-.52-.344-.658-1.005l.755-.189q.108.418.409.627.303.21.792.21.558 0 .884-.237.331-.238.331-.573a.6.6 0 00-.189-.452q-.189-.186-.58-.277l-.864-.202q-.711-.17-1.046-.523a1.27 1.27 0 01-.33-.894q0-.439.246-.776.249-.338.678-.53.432-.192.978-.192.77 0 1.208.337.442.338.628.891m3.398 4.129q-.729 0-1.255-.344a2.24 2.24 0 01-.81-.948q-.283-.603-.283-1.38 0-.789.29-1.393a2.3 2.3 0 01.816-.948q.526-.344 1.228-.344.547 0 .985.202.439.202.719.567t.347.85h-.796a1.24 1.24 0 00-.405-.627q-.31-.277-.836-.277-.466 0-.817.243-.347.24-.543.678-.192.435-.192 1.022 0 .601.189 1.046.192.446.54.692.35.246.823.246.31 0 .563-.108a1.16 1.16 0 00.429-.31q.175-.202.249-.486h.796a1.84 1.84 0 01-1.032 1.407 2.26 2.26 0 01-1.005.212m5.306 0q-.701 0-1.231-.334a2.27 2.27 0 01-.823-.934q-.294-.6-.294-1.404 0-.81.294-1.413.297-.604.823-.938a2.26 2.26 0 011.231-.334q.702 0 1.228.334.53.334.823.938.297.604.297 1.413 0 .803-.297 1.404-.293.6-.823.934-.526.334-1.228.334m0-.715q.534 0 .877-.273.345-.273.51-.719t.165-.965q0-.52-.165-.968a1.6 1.6 0 00-.51-.725q-.343-.277-.877-.277-.532 0-.877.277a1.63 1.63 0 00-.509.725q-.166.449-.166.968 0 .52.166.965.165.446.509.719.345.273.877.273m6.343.607v-6.909h2.335q.81 0 1.329.277.52.273.769.752.25.479.25 1.09 0 .61-.25 1.083a1.76 1.76 0 01-.765.742q-.517.267-1.319.266h-1.89v-.755h1.863q.552 0 .89-.162.34-.162.493-.459.155-.3.155-.715a1.6 1.6 0 00-.155-.726 1.07 1.07 0 00-.496-.479q-.341-.172-.901-.172h-1.471v6.167zm3.253-3.103 1.7 3.103h-.972l-1.673-3.103zm4.766 3.211q-.702 0-1.232-.334a2.27 2.27 0 01-.823-.934q-.293-.6-.293-1.404 0-.81.293-1.413.297-.604.823-.938.53-.334 1.232-.334.701 0 1.228.334.53.334.823.938.297.604.297 1.413 0 .803-.297 1.404-.294.6-.823.934-.527.334-1.228.334m0-.715q.532 0 .877-.273.344-.273.509-.719t.165-.965q0-.52-.165-.968a1.63 1.63 0 00-.509-.725q-.345-.277-.877-.277-.534 0-.877.277-.345.276-.51.725t-.165.968.165.965.51.719q.343.273.877.273m6.829-1.511v-3.064h.796v5.182h-.796v-.877h-.054a1.7 1.7 0 01-.567.671q-.385.274-.972.274-.486 0-.863-.213a1.5 1.5 0 01-.594-.648q-.216-.435-.216-1.096v-3.293h.796v3.239q0 .567.317.904.32.338.817.338.297 0 .604-.152.31-.152.519-.466.213-.313.213-.799m4.508-3.064v.675h-2.686v-.675zm-1.903-1.241h.796v4.939q0 .337.098.506.101.165.256.223.159.054.334.054a1.4 1.4 0 00.351-.041l.162.715a1.693 1.693 0 01-.594.095q-.337 0-.661-.145a1.3 1.3 0 01-.533-.442q-.209-.297-.209-.749zm5.217 6.531q-.749 0-1.292-.33a2.2 2.2 0 01-.833-.932q-.29-.6-.29-1.396 0-.797.29-1.404.293-.61.816-.951.526-.344 1.228-.344.405 0 .8.135.394.135.718.438.324.301.516.797.193.495.193 1.221v.337h-3.995v-.688h3.185q0-.438-.175-.783a1.33 1.33 0 00-1.242-.742q-.475 0-.823.236a1.57 1.57 0 00-.53.608 1.8 1.8 0 00-.185.802v.459q0 .588.202.995.206.405.57.618.364.209.847.209.313 0 .567-.088.256-.09.442-.27.185-.182.287-.452l.769.216a1.7 1.7 0 01-.408.688 2 2 0 01-.709.459 2.6 2.6 0 01-.948.162m3.357-.108v-5.182h.769v.783h.054q.141-.384.513-.624.37-.24.836-.24.088 0 .22.004.131.003.199.01v.81a2 2 0 00-.186-.031 2 2 0 00-.3-.023q-.378 0-.675.158a1.158 1.158 0 00-.634 1.056v3.279z"/><path fill="#F5F7F5" d="M199.688 242.239c0-.69.56-1.25 1.25-1.25h59.236c.69 0 1.25.56 1.25 1.25v57c0 .691-.56 1.25-1.25 1.25h-59.236a1.25 1.25 0 01-1.25-1.25z"/><path stroke="#D7DAD7" stroke-width=".5" d="M199.688 242.239c0-.69.56-1.25 1.25-1.25h59.236c.69 0 1.25.56 1.25 1.25v57c0 .691-.56 1.25-1.25 1.25h-59.236a1.25 1.25 0 01-1.25-1.25z"/><path fill="#464D45" d="M225.338 266.83v6.909h-.837v-6.032h-.041l-1.686 1.12v-.85l1.727-1.147zm3.438 6.909 3.09-6.113v-.054h-3.562v-.742h4.426v.783l-3.077 6.126zm5.409-1.417v-.688l3.036-4.804h.499v1.066h-.337l-2.294 3.63v.054h4.089v.742zm3.252 1.417v-6.909h.796v6.909z"/><path fill="#F5F7F5" d="M263.924 242.239c0-.69.559-1.25 1.25-1.25h34.529c.691 0 1.25.56 1.25 1.25v57a1.25 1.25 0 01-1.25 1.25h-34.529a1.25 1.25 0 01-1.25-1.25z"/><path stroke="#D7DAD7" stroke-width=".5" d="M263.924 242.239c0-.69.559-1.25 1.25-1.25h34.529c.691 0 1.25.56 1.25 1.25v57a1.25 1.25 0 01-1.25 1.25h-34.529a1.25 1.25 0 01-1.25-1.25z"/><path fill="#464D45" d="M277.22 266.83v6.909h-.837v-6.032h-.04l-1.687 1.12v-.85l1.727-1.147zm5.247 7.004q-.668 0-1.191-.23a2.05 2.05 0 01-.827-.637 1.7 1.7 0 01-.33-.955h.85q.027.334.229.577.203.24.53.371.327.132.725.132.445 0 .79-.156.344-.155.539-.431.196-.278.196-.641 0-.382-.189-.672a1.26 1.26 0 00-.553-.459q-.365-.165-.891-.165h-.553v-.742h.553q.412 0 .722-.149.314-.148.489-.418.18-.27.179-.634 0-.351-.155-.611a1.07 1.07 0 00-.438-.405 1.4 1.4 0 00-.662-.145q-.357 0-.674.132-.315.128-.513.374a.97.97 0 00-.216.587h-.81q.021-.543.327-.951.308-.411.803-.641a2.6 2.6 0 011.097-.229q.64 0 1.1.259.458.256.705.679.246.421.246.91 0 .584-.307.996a1.56 1.56 0 01-.827.57v.054q.655.108 1.023.556.367.446.367 1.104 0 .562-.307 1.012-.303.444-.83.701t-1.197.257m6.124 0q-.696 0-1.228-.247a2 2 0 01-.827-.684 1.7 1.7 0 01-.293-.999 1.83 1.83 0 01.651-1.434 1.47 1.47 0 01.685-.32v-.041a1.34 1.34 0 01-.79-.556 1.7 1.7 0 01-.29-.982 1.67 1.67 0 01.267-.941 1.87 1.87 0 01.742-.655 2.4 2.4 0 011.083-.239q.6 0 1.072.239.473.24.743.655.273.414.276.941a1.7 1.7 0 01-.3.982 1.33 1.33 0 01-.779.556v.041q.374.068.674.32.3.25.48.624.178.372.182.81a1.76 1.76 0 01-.304.999q-.297.435-.826.684-.526.247-1.218.247m0-.742q.468 0 .809-.152.34-.151.527-.429.184-.276.189-.647a1.25 1.25 0 00-.203-.692 1.4 1.4 0 00-.543-.472 1.7 1.7 0 00-.779-.172q-.442 0-.79.172-.344.171-.543.472-.195.3-.192.692-.003.37.179.647.185.277.529.429t.817.152m0-3.28q.37 0 .658-.148.29-.148.455-.415t.169-.624a1.16 1.16 0 00-.166-.611 1.1 1.1 0 00-.448-.405 1.5 1.5 0 00-.668-.145q-.389 0-.678.145-.29.143-.449.405a1.1 1.1 0 00-.155.611q-.004.357.158.624.165.267.456.415.29.148.668.148"/><path fill="#F5F7F5" d="M303.453 242.239c0-.69.56-1.25 1.25-1.25h34.53c.69 0 1.25.56 1.25 1.25v57c0 .691-.56 1.25-1.25 1.25h-34.53a1.25 1.25 0 01-1.25-1.25z"/><path stroke="#D7DAD7" stroke-width=".5" d="M303.453 242.239c0-.69.56-1.25 1.25-1.25h34.53c.69 0 1.25.56 1.25 1.25v57c0 .691-.56 1.25-1.25 1.25h-34.53a1.25 1.25 0 01-1.25-1.25z"/><path fill="#464D45" d="M316.749 266.83v6.909h-.836v-6.032h-.041l-1.687 1.12v-.85l1.728-1.147zm5.22 7.004q-.762 0-1.299-.415-.536-.419-.82-1.211-.283-.797-.283-1.923 0-1.12.283-1.913.288-.796.824-1.215.539-.421 1.295-.421t1.292.421q.54.419.823 1.215.287.792.287 1.913 0 1.126-.283 1.923-.283.792-.82 1.211-.537.414-1.299.415m0-.742q.756 0 1.174-.729.418-.73.418-2.078 0-.898-.192-1.529-.189-.63-.546-.961a1.2 1.2 0 00-.854-.331q-.748 0-1.171.739-.421.736-.421 2.082 0 .897.189 1.525t.543.954q.357.327.86.328m6.191.742a2.6 2.6 0 01-.85-.162 2.05 2.05 0 01-.776-.523q-.35-.371-.563-1.002-.213-.635-.213-1.592 0-.918.173-1.626.171-.712.499-1.198.327-.49.789-.742.466-.253 1.049-.253.58 0 1.033.232.455.23.742.641t.371.948h-.823a1.53 1.53 0 00-.445-.772q-.331-.307-.878-.307-.803 0-1.265.698-.459.699-.462 1.96h.054a2.04 2.04 0 011.029-.806q.317-.111.671-.111.594 0 1.087.297.492.293.789.813.297.516.297 1.184 0 .64-.287 1.174-.287.53-.806.843-.516.31-1.215.304m0-.742q.426 0 .763-.213.34-.213.536-.57.2-.358.199-.796 0-.429-.192-.78a1.46 1.46 0 00-.523-.563 1.4 1.4 0 00-.756-.209q-.32 0-.597.128a1.5 1.5 0 00-.485.344 1.6 1.6 0 00-.324.503 1.598 1.598 0 00.607 1.936q.341.22.772.22"/><path fill="#F5F7F5" d="M342.983 242.239c0-.69.559-1.25 1.25-1.25h19.706c.69 0 1.25.56 1.25 1.25v57c0 .691-.56 1.25-1.25 1.25h-19.706a1.25 1.25 0 01-1.25-1.25z"/><path stroke="#D7DAD7" stroke-width=".5" d="M342.983 242.239c0-.69.559-1.25 1.25-1.25h19.706c.69 0 1.25.56 1.25 1.25v57c0 .691-.56 1.25-1.25 1.25h-19.706a1.25 1.25 0 01-1.25-1.25z"/><path fill="#464D45" d="M350.957 266.736q.426.003.851.162.425.158.776.526.35.365.563.995.213.631.212 1.582 0 .921-.175 1.637a3.7 3.7 0 01-.499 1.201 2.2 2.2 0 01-.79.742 2.15 2.15 0 01-1.045.253 2.3 2.3 0 01-1.036-.23 2 2 0 01-.742-.644 2.2 2.2 0 01-.368-.962h.823q.111.477.442.787.334.306.881.307.8 0 1.261-.699.466-.698.466-1.973h-.054a2.1 2.1 0 01-.449.489 1.97 1.97 0 01-1.251.428q-.595 0-1.09-.293a2.2 2.2 0 01-.79-.813 2.4 2.4 0 01-.293-1.188q0-.634.283-1.16.287-.53.803-.844.52-.313 1.221-.303m0 .742a1.4 1.4 0 00-.765.212 1.54 1.54 0 00-.537.567q-.195.354-.195.786t.189.786q.192.351.522.56.334.206.759.206a1.44 1.44 0 001.08-.472q.21-.223.327-.503.118-.284.118-.59 0-.405-.195-.759a1.56 1.56 0 00-.533-.574 1.4 1.4 0 00-.77-.219m6.151-.742q.426.003.85.162.426.158.776.526.351.365.564.995.212.631.212 1.582 0 .921-.175 1.637a3.7 3.7 0 01-.499 1.201 2.2 2.2 0 01-.79.742 2.15 2.15 0 01-1.046.253q-.58 0-1.035-.23a2 2 0 01-.742-.644 2.2 2.2 0 01-.368-.962h.823q.11.477.442.787.334.306.88.307.8 0 1.262-.699.465-.698.466-1.973h-.054a2.1 2.1 0 01-.449.489 1.97 1.97 0 01-1.252.428q-.593 0-1.089-.293a2.2 2.2 0 01-.79-.813 2.4 2.4 0 01-.293-1.188q0-.634.283-1.16.287-.53.803-.844.52-.313 1.221-.303m0 .742a1.4 1.4 0 00-.765.212 1.54 1.54 0 00-.537.567q-.195.354-.196.786 0 .432.189.786.193.351.523.56.334.206.759.206.321 0 .597-.125.278-.128.483-.347.208-.223.327-.503.118-.284.118-.59 0-.405-.195-.759a1.56 1.56 0 00-.533-.574 1.4 1.4 0 00-.77-.219"/><path fill="#F8FAF8" d="M196.688 63a2.75 2.75 0 012.75-2.75h82.658a2.75 2.75 0 012.75 2.75v151.739a2.75 2.75 0 01-2.75 2.75h-82.658a2.75 2.75 0 01-2.75-2.75z"/><path stroke="#CCCFCC" stroke-width=".5" d="M196.688 63a2.75 2.75 0 012.75-2.75h82.658a2.75 2.75 0 012.75 2.75v151.739a2.75 2.75 0 01-2.75 2.75h-82.658a2.75 2.75 0 01-2.75-2.75z"/><path fill="#464D45" d="M205.054 67.818a1.06 1.06 0 00-.493-.796q-.432-.283-1.059-.283-.46 0-.803.148a1.3 1.3 0 00-.533.408.98.98 0 00-.189.59q0 .278.131.476.135.195.345.328.209.128.438.212.23.081.422.132l.701.189q.27.07.601.195.334.126.638.341.306.213.506.547.199.333.199.82 0 .56-.294 1.011-.29.453-.85.719-.556.267-1.353.266-.742 0-1.285-.24a2.05 2.05 0 01-.85-.667 1.9 1.9 0 01-.348-.995h.864q.033.39.263.648.233.252.587.377.357.122.769.122.48 0 .86-.155.382-.159.604-.439.223-.284.223-.661a.8.8 0 00-.192-.56 1.4 1.4 0 00-.506-.351 5 5 0 00-.678-.236l-.851-.243q-.809-.233-1.282-.665-.472-.431-.472-1.13 0-.58.314-1.012.317-.435.85-.675a2.9 2.9 0 011.198-.243q.668 0 1.187.24.52.236.823.648.308.412.324.934zm4.344 5.29q-.749 0-1.292-.33a2.2 2.2 0 01-.833-.932q-.291-.6-.291-1.396 0-.797.291-1.404a2.3 2.3 0 01.816-.951q.526-.345 1.228-.344.405 0 .799.135.395.135.719.438.324.3.516.796t.192 1.222v.337h-3.994v-.688h3.185q0-.439-.176-.783a1.3 1.3 0 00-.492-.543 1.4 1.4 0 00-.749-.2q-.476 0-.823.237-.345.233-.53.607a1.8 1.8 0 00-.185.803v.459q0 .587.202.995.206.405.57.618.364.209.847.209.313 0 .567-.088.256-.09.442-.27.185-.182.286-.452l.769.216q-.12.39-.408.688a2 2 0 01-.708.459 2.6 2.6 0 01-.948.162m5.462 0q-.729 0-1.255-.344a2.24 2.24 0 01-.81-.948q-.283-.605-.283-1.38 0-.789.29-1.393.293-.608.816-.948.526-.345 1.228-.344.547 0 .985.202.439.203.719.567t.347.85h-.796a1.24 1.24 0 00-.405-.627q-.31-.277-.836-.277a1.4 1.4 0 00-.817.243 1.6 1.6 0 00-.543.678q-.192.435-.192 1.022 0 .6.189 1.046.192.445.54.692.35.246.823.246.31 0 .563-.108.254-.109.429-.31.175-.203.249-.486h.796a1.84 1.84 0 01-1.032 1.406 2.25 2.25 0 01-1.005.213m6.467-2.227v-3.063h.796V73h-.796v-.877h-.054a1.7 1.7 0 01-.567.671q-.384.273-.971.273-.486 0-.864-.212a1.5 1.5 0 01-.594-.648q-.216-.435-.216-1.096v-3.293h.796v3.239q0 .567.317.904.32.337.817.337.297 0 .604-.151.31-.153.519-.466.213-.314.213-.8M223.581 73v-5.182h.769v.783h.054a1.25 1.25 0 01.513-.624q.371-.24.837-.24a9 9 0 01.418.014v.81a2 2 0 00-.185-.031 2 2 0 00-.301-.024q-.378 0-.674.159a1.2 1.2 0 00-.466.432q-.168.273-.169.624V73zm3.535 0v-5.182h.796V73zm.405-6.046a.57.57 0 01-.402-.158.5.5 0 01-.165-.381.5.5 0 01.165-.381.57.57 0 01.402-.159q.233 0 .398.159a.5.5 0 01.168.38.5.5 0 01-.168.382.55.55 0 01-.398.158m4.103.864v.675h-2.686v-.675zm-1.903-1.241h.796v4.939q0 .336.098.506.101.165.257.222.158.054.334.054a1.4 1.4 0 00.35-.04l.162.715q-.08.03-.226.06a1.7 1.7 0 01-.367.034q-.338 0-.662-.145a1.3 1.3 0 01-.533-.441q-.209-.297-.209-.75zm3.613 8.366a1.8 1.8 0 01-.58-.094l.202-.702q.291.074.513.054a.62.62 0 00.395-.199q.176-.176.32-.57l.149-.405-1.916-5.209h.863l1.431 4.13h.054l1.43-4.13h.864l-2.2 5.938a2.2 2.2 0 01-.368.664q-.22.267-.509.395a1.6 1.6 0 01-.648.128"/><path fill="#F5F7F5" d="M199.688 80.5c0-.69.56-1.25 1.25-1.25h80c.691 0 1.25.56 1.25 1.25v35.25c0 .69-.559 1.25-1.25 1.25h-80c-.69 0-1.25-.56-1.25-1.25z"/><path stroke="#D7DAD7" stroke-width=".5" d="M199.688 80.5c0-.69.56-1.25 1.25-1.25h80c.691 0 1.25.56 1.25 1.25v35.25c0 .69-.559 1.25-1.25 1.25h-80c-.69 0-1.25-.56-1.25-1.25z"/><path fill="#464D45" d="M232.63 101.125v-.607l2.28-2.497q.401-.438.662-.762.26-.327.384-.614.129-.29.128-.607a1.1 1.1 0 00-.175-.631 1.14 1.14 0 00-.472-.412 1.5 1.5 0 00-.675-.145q-.399 0-.695.165-.294.162-.456.456a1.43 1.43 0 00-.158.688h-.796q0-.607.28-1.066t.762-.715a2.3 2.3 0 011.09-.257q.607 0 1.076.257.47.255.735.691.267.435.267.969 0 .38-.138.745-.135.361-.473.806-.334.443-.927 1.08l-1.552 1.66v.054h3.211v.742zm6.151 0v-.607l2.28-2.497q.402-.438.661-.762.26-.327.385-.614.128-.29.128-.607a1.1 1.1 0 00-.175-.631 1.14 1.14 0 00-.473-.412 1.5 1.5 0 00-.674-.145q-.399 0-.695.165-.294.162-.456.456a1.43 1.43 0 00-.158.688h-.796q0-.607.28-1.066.279-.459.762-.715a2.3 2.3 0 011.09-.257q.607 0 1.076.257.47.255.735.691.267.435.267.969 0 .38-.138.745-.135.361-.473.806-.334.443-.927 1.08l-1.552 1.66v.054h3.211v.742zm8.31.094q-.763 0-1.299-.414-.537-.419-.82-1.212-.283-.795-.283-1.922 0-1.12.283-1.913.287-.797.823-1.215.54-.422 1.296-.422.755 0 1.292.422.54.418.823 1.215.287.792.287 1.913 0 1.126-.284 1.922-.283.793-.82 1.212-.536.414-1.298.414m0-.742q.755 0 1.174-.728.418-.73.418-2.078 0-.898-.192-1.529-.189-.63-.547-.961a1.2 1.2 0 00-.853-.33q-.75 0-1.171.738-.422.735-.422 2.082 0 .897.189 1.524.189.628.543.955.358.327.861.327"/><path fill="#F5F7F5" d="M199.688 120.75c0-.69.56-1.25 1.25-1.25h80c.691 0 1.25.56 1.25 1.25v29.5c0 .69-.559 1.25-1.25 1.25h-80c-.69 0-1.25-.56-1.25-1.25z"/><path stroke="#D7DAD7" stroke-width=".5" d="M199.688 120.75c0-.69.56-1.25 1.25-1.25h80c.691 0 1.25.56 1.25 1.25v29.5c0 .69-.559 1.25-1.25 1.25h-80c-.69 0-1.25-.56-1.25-1.25z"/><path fill="#464D45" d="M232.63 138.5v-.607l2.28-2.497q.401-.438.662-.762.26-.327.384-.614a1.5 1.5 0 00.128-.607 1.12 1.12 0 00-.647-1.043 1.5 1.5 0 00-.675-.145q-.399 0-.695.165-.294.162-.456.456a1.44 1.44 0 00-.158.688h-.796q0-.607.28-1.066t.762-.715a2.3 2.3 0 011.09-.257q.607 0 1.076.257.47.256.735.691.267.436.267.969 0 .38-.138.745-.135.362-.473.806-.334.442-.927 1.08l-1.552 1.66v.054h3.211v.742zm6.151 0v-.607l2.28-2.497q.402-.438.661-.762.26-.327.385-.614.128-.29.128-.607a1.12 1.12 0 00-.648-1.043 1.5 1.5 0 00-.674-.145q-.399 0-.695.165-.294.162-.456.456a1.44 1.44 0 00-.158.688h-.796q0-.607.28-1.066.279-.459.762-.715a2.3 2.3 0 011.09-.257q.607 0 1.076.257.47.256.735.691.267.436.267.969 0 .38-.138.745-.135.362-.473.806-.334.442-.927 1.08l-1.552 1.66v.054h3.211v.742zm8.31.094q-.763 0-1.299-.414-.537-.418-.82-1.212-.283-.795-.283-1.923 0-1.12.283-1.912.287-.797.823-1.215.54-.422 1.296-.422.755 0 1.292.422.54.418.823 1.215.287.792.287 1.912 0 1.128-.284 1.923-.283.794-.82 1.212-.536.414-1.298.414m0-.742q.755 0 1.174-.728.418-.729.418-2.079 0-.897-.192-1.528-.189-.63-.547-.961a1.2 1.2 0 00-.853-.331q-.75 0-1.171.739-.422.735-.422 2.081 0 .898.189 1.525.189.628.543.955.358.327.861.327"/><path fill="#F5F7F5" d="M199.688 155.25c0-.69.56-1.25 1.25-1.25h80c.691 0 1.25.56 1.25 1.25v29.5c0 .69-.559 1.25-1.25 1.25h-80c-.69 0-1.25-.56-1.25-1.25z"/><path stroke="#D7DAD7" stroke-width=".5" d="M199.688 155.25c0-.69.56-1.25 1.25-1.25h80c.691 0 1.25.56 1.25 1.25v29.5c0 .69-.559 1.25-1.25 1.25h-80c-.69 0-1.25-.56-1.25-1.25z"/><path fill="#464D45" d="M232.63 173v-.607l2.28-2.497q.401-.438.662-.762.26-.327.384-.614a1.5 1.5 0 00.128-.607 1.12 1.12 0 00-.647-1.043 1.5 1.5 0 00-.675-.145q-.399 0-.695.165-.294.162-.456.456a1.44 1.44 0 00-.158.688h-.796q0-.607.28-1.066t.762-.715a2.3 2.3 0 011.09-.257q.607 0 1.076.257.47.256.735.691.267.436.267.969 0 .38-.138.745-.135.362-.473.806-.334.442-.927 1.08l-1.552 1.66v.054h3.211V173zm9.241-6.909V173h-.837v-6.032h-.04l-1.687 1.12v-.85l1.727-1.147zm5.193 7.003q-.594 0-1.07-.236a2 2 0 01-.762-.647 1.77 1.77 0 01-.314-.938h.81q.047.468.425.776.381.303.911.303.425 0 .755-.199.334-.199.523-.546.192-.35.193-.793 0-.452-.2-.806a1.46 1.46 0 00-.539-.564 1.53 1.53 0 00-.786-.209 2.2 2.2 0 00-.651.098 1.8 1.8 0 00-.55.253l-.783-.095.418-3.4h3.59v.742h-2.888l-.243 2.038h.041q.212-.17.533-.28.32-.112.668-.112a2.13 2.13 0 011.912 1.127q.287.524.287 1.194 0 .662-.297 1.181a2.2 2.2 0 01-.809.817 2.3 2.3 0 01-1.174.296"/><path fill="#F5F7F5" d="M199.688 189.75c0-.69.56-1.25 1.25-1.25h42.5c.691 0 1.25.56 1.25 1.25v23.75c0 .69-.559 1.25-1.25 1.25h-42.5c-.69 0-1.25-.56-1.25-1.25z"/><path stroke="#D7DAD7" stroke-width=".5" d="M199.688 189.75c0-.69.56-1.25 1.25-1.25h42.5c.691 0 1.25.56 1.25 1.25v23.75c0 .69-.559 1.25-1.25 1.25h-42.5c-.69 0-1.25-.56-1.25-1.25z"/><path fill="#464D45" d="m217.333 204.625 3.09-6.113v-.054h-3.562v-.742h4.426v.783l-3.077 6.126zm7.905.094q-.594 0-1.069-.236a2 2 0 01-.763-.647 1.77 1.77 0 01-.313-.938h.809q.048.468.425.776.381.303.911.303.425 0 .756-.199.334-.199.523-.546.192-.35.192-.793 0-.452-.199-.806a1.45 1.45 0 00-.54-.564 1.5 1.5 0 00-.786-.209 2.2 2.2 0 00-.651.098 1.8 1.8 0 00-.55.253l-.782-.095.418-3.4h3.589v.742h-2.887l-.243 2.038h.04q.213-.17.533-.28.321-.112.668-.112.635 0 1.13.304.5.3.783.823.287.524.287 1.194 0 .662-.297 1.181a2.2 2.2 0 01-.81.817 2.3 2.3 0 01-1.174.296"/><path fill="#F5F7F5" d="M247.188 189.75c0-.69.56-1.25 1.25-1.25h32.5c.691 0 1.25.56 1.25 1.25v23.75c0 .69-.559 1.25-1.25 1.25h-32.5c-.69 0-1.25-.56-1.25-1.25z"/><path stroke="#D7DAD7" stroke-width=".5" d="M247.188 189.75c0-.69.56-1.25 1.25-1.25h32.5c.691 0 1.25.56 1.25 1.25v23.75c0 .69-.559 1.25-1.25 1.25h-32.5c-.69 0-1.25-.56-1.25-1.25z"/><path fill="#464D45" d="M261.655 204.719a2.6 2.6 0 01-.85-.161 2.04 2.04 0 01-.776-.523q-.351-.372-.564-1.002-.212-.635-.212-1.593 0-.916.172-1.626.172-.711.499-1.197a2.25 2.25 0 01.79-.743q.465-.252 1.049-.253.58 0 1.032.233.456.23.742.641.287.413.371.948h-.823a1.52 1.52 0 00-.445-.772q-.331-.307-.877-.307-.804 0-1.265.698-.459.699-.463 1.96h.054a2.04 2.04 0 011.029-.806q.318-.112.672-.112.594 0 1.086.297.493.294.789.813.297.516.297 1.184 0 .642-.286 1.174-.287.53-.807.844-.516.31-1.214.303m0-.742q.424 0 .762-.212.34-.213.537-.57a1.6 1.6 0 00.199-.797q0-.428-.193-.779a1.46 1.46 0 00-.523-.563 1.38 1.38 0 00-.755-.209q-.321 0-.597.128a1.5 1.5 0 00-.486.344 1.7 1.7 0 00-.324.503 1.6 1.6 0 00.607 1.936q.34.219.773.219m6.151.742a2.6 2.6 0 01-.85-.161 2.04 2.04 0 01-.776-.523q-.351-.372-.564-1.002-.212-.635-.212-1.593 0-.916.172-1.626.171-.711.499-1.197.327-.49.789-.743a2.2 2.2 0 011.05-.253q.58 0 1.032.233.456.23.742.641.287.413.371.948h-.823a1.52 1.52 0 00-.445-.772q-.331-.307-.877-.307-.803 0-1.265.698-.459.699-.463 1.96h.054a2.04 2.04 0 011.029-.806 2 2 0 01.672-.112q.593 0 1.086.297a2.2 2.2 0 01.789.813q.297.516.297 1.184 0 .642-.287 1.174a2.17 2.17 0 01-.806.844q-.516.31-1.214.303m0-.742q.425 0 .762-.212.34-.213.536-.57.2-.358.2-.797 0-.428-.193-.779a1.46 1.46 0 00-.523-.563 1.38 1.38 0 00-.755-.209q-.321 0-.597.128a1.5 1.5 0 00-.486.344 1.7 1.7 0 00-.324.503 1.6 1.6 0 00.607 1.936q.34.219.773.219"/><path fill="#F8FAF8" d="M289.346 63a2.75 2.75 0 012.75-2.75H365a2.75 2.75 0 012.75 2.75v150.391a2.75 2.75 0 01-2.75 2.75h-72.904a2.75 2.75 0 01-2.75-2.75z"/><path stroke="#CCCFCC" stroke-width=".5" d="M289.346 63a2.75 2.75 0 012.75-2.75H365a2.75 2.75 0 012.75 2.75v150.391a2.75 2.75 0 01-2.75 2.75h-72.904a2.75 2.75 0 01-2.75-2.75z"/><path fill="#464D45" d="M297.711 67.818a1.06 1.06 0 00-.493-.796q-.431-.283-1.059-.283-.458 0-.803.148a1.3 1.3 0 00-.533.408.98.98 0 00-.189.59.84.84 0 00.132.476q.135.195.344.328.209.128.439.212.228.081.421.132l.702.189q.27.07.6.195.335.126.638.341.307.213.506.547.2.333.199.82 0 .56-.293 1.011-.29.453-.851.719-.557.267-1.352.266-.743 0-1.286-.24a2.05 2.05 0 01-.85-.667 1.9 1.9 0 01-.347-.995h.863q.035.39.263.648.233.252.587.377.358.122.77.122.479 0 .86-.155.38-.159.604-.439.222-.284.222-.661a.8.8 0 00-.192-.56 1.4 1.4 0 00-.506-.351 5 5 0 00-.678-.236l-.85-.243q-.81-.233-1.282-.665-.472-.431-.472-1.13 0-.58.313-1.012.317-.435.851-.675a2.9 2.9 0 011.197-.243q.667 0 1.188.24.519.236.823.648.306.412.324.934zm2.685 7.125a1.7 1.7 0 01-.581-.094l.203-.702q.29.074.512.054a.62.62 0 00.395-.199q.175-.176.321-.57l.148-.405-1.916-5.209h.864l1.43 4.13h.054l1.43-4.13h.864l-2.2 5.938a2.3 2.3 0 01-.367.664q-.22.267-.51.395a1.6 1.6 0 01-.647.128m8.445-5.964-.715.202a1.3 1.3 0 00-.199-.347.96.96 0 00-.351-.284 1.3 1.3 0 00-.57-.111q-.475 0-.793.22-.313.214-.313.55 0 .295.215.468.216.172.675.287l.769.189q.696.168 1.036.516.34.345.341.887 0 .445-.257.796a1.7 1.7 0 01-.708.553 2.6 2.6 0 01-1.059.203q-.793 0-1.313-.344-.519-.345-.658-1.005l.756-.19q.108.42.408.628.304.21.793.21.557 0 .884-.237.33-.24.331-.573 0-.27-.189-.453-.19-.185-.581-.276l-.863-.203q-.712-.168-1.046-.522a1.27 1.27 0 01-.331-.894q0-.439.247-.776a1.67 1.67 0 01.678-.53 2.4 2.4 0 01.978-.192q.769 0 1.208.337.442.338.627.89m3.547-1.16v.674h-2.686v-.675zm-1.903-1.242h.796v4.939q0 .336.098.506a.5.5 0 00.256.222q.159.054.334.054a1.4 1.4 0 00.351-.04l.162.715q-.08.03-.226.06a1.7 1.7 0 01-.368.034q-.336 0-.661-.145a1.3 1.3 0 01-.533-.441q-.209-.297-.209-.75zm5.217 6.531q-.749 0-1.292-.33a2.2 2.2 0 01-.833-.932q-.29-.6-.29-1.396 0-.797.29-1.404.294-.61.816-.951.527-.345 1.228-.344.405 0 .8.135t.718.438q.324.3.517.796.192.496.192 1.222v.337h-3.994v-.688h3.184q0-.439-.175-.783a1.3 1.3 0 00-.493-.543 1.4 1.4 0 00-.749-.2q-.475 0-.823.237a1.55 1.55 0 00-.529.607 1.8 1.8 0 00-.186.803v.459q0 .587.202.995.207.405.571.618.364.209.846.209.313 0 .567-.088.256-.09.442-.27a1.2 1.2 0 00.287-.452l.769.216q-.121.39-.408.688a2 2 0 01-.709.459 2.6 2.6 0 01-.948.162m3.357-.108v-5.182h.769v.81h.068a1.3 1.3 0 01.523-.644q.36-.233.867-.233.512 0 .853.233.344.228.536.644h.054a1.5 1.5 0 01.598-.638q.398-.24.954-.24.696 0 1.137.436.442.431.442 1.346V73h-.796v-3.468q0-.573-.314-.82a1.16 1.16 0 00-.739-.246q-.546 0-.846.33-.301.328-.301.83V73h-.809v-3.549q0-.442-.287-.712-.286-.273-.739-.273-.31 0-.58.165-.267.165-.432.459a1.35 1.35 0 00-.162.671V73z"/><path fill="#F5F7F5" d="M292.346 80.5c0-.69.56-1.25 1.25-1.25h32.5c.69 0 1.25.56 1.25 1.25v34.958c0 .691-.56 1.25-1.25 1.25h-32.5a1.25 1.25 0 01-1.25-1.25z"/><path stroke="#D7DAD7" stroke-width=".5" d="M292.346 80.5c0-.69.56-1.25 1.25-1.25h32.5c.69 0 1.25.56 1.25 1.25v34.958c0 .691-.56 1.25-1.25 1.25h-32.5a1.25 1.25 0 01-1.25-1.25z"/><path fill="#464D45" d="M304.627 94.07v6.909h-.836v-6.031h-.041l-1.686 1.12v-.85l1.727-1.148zm5.22 7.004q-.762 0-1.299-.415-.536-.419-.819-1.211-.284-.796-.284-1.923 0-1.12.284-1.913.286-.795.823-1.214.54-.422 1.295-.422.756 0 1.292.422.54.418.823 1.214.287.793.287 1.913 0 1.127-.283 1.923-.283.792-.82 1.211-.537.415-1.299.415m0-.742q.756 0 1.174-.729.419-.728.419-2.078 0-.897-.193-1.528-.189-.63-.546-.962a1.2 1.2 0 00-.854-.33q-.749 0-1.17.738-.423.736-.422 2.082 0 .897.189 1.525t.543.955q.357.327.86.327m3.992.647v-.607l2.281-2.496q.401-.44.661-.763a2.8 2.8 0 00.384-.614q.129-.29.129-.607a1.12 1.12 0 00-.648-1.042 1.5 1.5 0 00-.675-.145q-.398 0-.695.165-.294.162-.455.455a1.4 1.4 0 00-.159.689h-.796q0-.607.28-1.066t.762-.716q.486-.255 1.09-.256.608 0 1.076.256.47.257.736.692t.266.968q0 .381-.138.746-.135.361-.472.806-.334.442-.928 1.08l-1.552 1.659v.054h3.212v.742z"/><path fill="#F5F7F5" d="M292.346 120.458c0-.69.56-1.25 1.25-1.25h32.5c.69 0 1.25.56 1.25 1.25v29.25c0 .69-.56 1.25-1.25 1.25h-32.5c-.69 0-1.25-.56-1.25-1.25z"/><path stroke="#D7DAD7" stroke-width=".5" d="M292.346 120.458c0-.69.56-1.25 1.25-1.25h32.5c.69 0 1.25.56 1.25 1.25v29.25c0 .69-.56 1.25-1.25 1.25h-32.5c-.69 0-1.25-.56-1.25-1.25z"/><path fill="#464D45" d="M306.718 131.079q.425.005.85.162.425.16.776.527.351.364.563.995.213.63.213 1.582 0 .92-.176 1.636a3.7 3.7 0 01-.499 1.201 2.2 2.2 0 01-.789.742 2.14 2.14 0 01-1.046.253q-.58 0-1.036-.229a2.03 2.03 0 01-.742-.644 2.25 2.25 0 01-.368-.962h.823q.112.476.442.786.334.307.881.307.799 0 1.262-.698.465-.698.465-1.974h-.054a2.1 2.1 0 01-.449.49 2 2 0 01-1.251.428q-.594 0-1.09-.293a2.2 2.2 0 01-.789-.814 2.37 2.37 0 01-.294-1.187q0-.635.284-1.161.286-.53.803-.843.519-.313 1.221-.304m0 .743q-.426 0-.766.212a1.53 1.53 0 00-.536.567 1.6 1.6 0 00-.196.786q0 .432.189.786.192.351.523.56.333.206.759.206a1.44 1.44 0 001.079-.472q.21-.223.328-.503.118-.283.118-.591 0-.404-.196-.759a1.55 1.55 0 00-.533-.573 1.4 1.4 0 00-.769-.219m4.423 6.261 3.091-6.113v-.054h-3.563v-.742h4.426v.783l-3.076 6.126z"/><path fill="#F5F7F5" d="M292.346 154.708c0-.69.56-1.25 1.25-1.25h32.5c.69 0 1.25.56 1.25 1.25v29.25c0 .69-.56 1.25-1.25 1.25h-32.5c-.69 0-1.25-.56-1.25-1.25z"/><path stroke="#D7DAD7" stroke-width=".5" d="M292.346 154.708c0-.69.56-1.25 1.25-1.25h32.5c.69 0 1.25.56 1.25 1.25v29.25c0 .69-.56 1.25-1.25 1.25h-32.5c-.69 0-1.25-.56-1.25-1.25z"/><path fill="#464D45" d="M306.772 172.427q-.696 0-1.228-.246a2 2 0 01-.827-.685 1.7 1.7 0 01-.293-.998 1.84 1.84 0 01.651-1.434q.307-.253.685-.32v-.041a1.33 1.33 0 01-.79-.557 1.7 1.7 0 01-.29-.981 1.67 1.67 0 01.267-.942q.27-.414.742-.654a2.4 2.4 0 011.083-.24q.6 0 1.073.24.471.24.742.654.273.416.276.942a1.7 1.7 0 01-.3.981 1.33 1.33 0 01-.779.557v.041q.373.067.675.32.3.249.479.624.179.371.182.81a1.74 1.74 0 01-.304.998 2 2 0 01-.826.685 2.85 2.85 0 01-1.218.246m0-.742q.468 0 .809-.152t.527-.428.189-.648a1.24 1.24 0 00-.203-.691 1.4 1.4 0 00-.543-.473 1.7 1.7 0 00-.779-.172q-.442 0-.79.172-.344.173-.543.473-.195.3-.192.691-.003.372.179.648.185.276.529.428.345.153.817.152m0-3.279q.37 0 .658-.148.29-.149.455-.415.165-.267.169-.624a1.16 1.16 0 00-.166-.611 1.1 1.1 0 00-.448-.405 1.5 1.5 0 00-.668-.145q-.389 0-.678.145-.29.143-.449.405a1.13 1.13 0 00-.155.611q-.004.357.158.624.166.266.456.415t.668.148m6.124 4.021q-.594 0-1.07-.236a2 2 0 01-.762-.647 1.77 1.77 0 01-.314-.938h.81q.047.468.425.776.381.303.911.303.425 0 .755-.199.334-.199.523-.546.192-.35.193-.793 0-.452-.199-.806a1.46 1.46 0 00-.54-.564 1.53 1.53 0 00-.786-.209 2.2 2.2 0 00-.651.098 1.8 1.8 0 00-.55.253l-.783-.095.418-3.4h3.59v.742h-2.888l-.243 2.038h.041q.212-.17.533-.28.32-.112.668-.112a2.13 2.13 0 011.912 1.127q.288.523.287 1.194 0 .662-.297 1.181a2.2 2.2 0 01-.809.817 2.3 2.3 0 01-1.174.296"/><path fill="#F5F7F5" d="M292.346 188.958c0-.69.56-1.25 1.25-1.25h70c.69 0 1.25.56 1.25 1.25V212.5c0 .69-.56 1.25-1.25 1.25h-70c-.69 0-1.25-.56-1.25-1.25z"/><path stroke="#D7DAD7" stroke-width=".5" d="M292.346 188.958c0-.69.56-1.25 1.25-1.25h70c.69 0 1.25.56 1.25 1.25V212.5c0 .69-.56 1.25-1.25 1.25h-70c-.69 0-1.25-.56-1.25-1.25z"/><path fill="#464D45" d="M325.495 203.823a2.4 2.4 0 01-1.07-.236 2 2 0 01-.762-.648 1.77 1.77 0 01-.314-.938h.81q.047.47.425.776.381.304.911.304.425 0 .755-.199.334-.2.523-.547.193-.35.193-.793 0-.452-.199-.806a1.47 1.47 0 00-1.326-.772 2.1 2.1 0 00-.651.097q-.334.099-.55.253l-.783-.094.418-3.401h3.59v.743h-2.888l-.243 2.037h.041q.212-.168.533-.28.32-.111.668-.111.634 0 1.13.304.5.3.783.823.286.522.286 1.194 0 .661-.297 1.181a2.16 2.16 0 01-.809.816 2.3 2.3 0 01-1.174.297m4.396-.094 3.091-6.113v-.054h-3.563v-.743h4.426v.783l-3.076 6.127z"/><path fill="#F5F7F5" d="M329.846 80.5c0-.69.56-1.25 1.25-1.25h32.5c.69 0 1.25.56 1.25 1.25v34.958c0 .691-.56 1.25-1.25 1.25h-32.5a1.25 1.25 0 01-1.25-1.25z"/><path stroke="#D7DAD7" stroke-width=".5" d="M329.846 80.5c0-.69.56-1.25 1.25-1.25h32.5c.69 0 1.25.56 1.25 1.25v34.958c0 .691-.56 1.25-1.25 1.25h-32.5a1.25 1.25 0 01-1.25-1.25z"/><path fill="#464D45" d="M342.127 94.07v6.909h-.836v-6.031h-.041l-1.686 1.12v-.85l1.727-1.148zm5.22 7.004q-.762 0-1.299-.415-.536-.419-.819-1.211-.284-.796-.284-1.923 0-1.12.284-1.913.286-.795.823-1.214.54-.422 1.295-.422.756 0 1.292.422.54.418.823 1.214.287.793.287 1.913 0 1.127-.283 1.923-.283.792-.82 1.211-.537.415-1.299.415m0-.742q.756 0 1.174-.729.419-.728.419-2.078 0-.897-.193-1.528-.189-.63-.546-.962a1.2 1.2 0 00-.854-.33q-.749 0-1.17.738-.423.736-.422 2.082 0 .897.189 1.525t.543.955q.357.327.86.327m7.082-6.262v6.909h-.836v-6.031h-.041l-1.687 1.12v-.85l1.728-1.148z"/><path fill="#F5F7F5" d="M329.846 120.458c0-.69.56-1.25 1.25-1.25h32.5c.69 0 1.25.56 1.25 1.25v29.25c0 .69-.56 1.25-1.25 1.25h-32.5c-.69 0-1.25-.56-1.25-1.25z"/><path stroke="#D7DAD7" stroke-width=".5" d="M329.846 120.458c0-.69.56-1.25 1.25-1.25h32.5c.69 0 1.25.56 1.25 1.25v29.25c0 .69-.56 1.25-1.25 1.25h-32.5c-.69 0-1.25-.56-1.25-1.25z"/><path fill="#464D45" d="M344.218 131.079q.425.005.85.162.425.16.776.527.351.364.563.995.213.63.213 1.582 0 .92-.176 1.636a3.7 3.7 0 01-.499 1.201 2.2 2.2 0 01-.789.742 2.14 2.14 0 01-1.046.253q-.58 0-1.036-.229a2.03 2.03 0 01-.742-.644 2.25 2.25 0 01-.368-.962h.823q.112.476.442.786.334.307.881.307.799 0 1.262-.698.465-.698.465-1.974h-.054a2.1 2.1 0 01-.449.49 2 2 0 01-1.251.428q-.594 0-1.09-.293a2.2 2.2 0 01-.789-.814 2.37 2.37 0 01-.294-1.187q0-.635.284-1.161.286-.53.803-.843.519-.313 1.221-.304m0 .743q-.426 0-.766.212a1.53 1.53 0 00-.536.567 1.6 1.6 0 00-.196.786q0 .432.189.786.192.351.523.56.333.206.759.206a1.44 1.44 0 001.079-.472q.21-.223.328-.503.118-.283.118-.591 0-.404-.196-.759a1.55 1.55 0 00-.533-.573 1.4 1.4 0 00-.769-.219m6.232 6.355q-.669 0-1.191-.229a2.03 2.03 0 01-.827-.638 1.7 1.7 0 01-.33-.954h.85q.027.334.229.577.203.239.53.371.327.13.725.131.445 0 .79-.155.344-.155.539-.432.196-.276.196-.641a1.2 1.2 0 00-.189-.671 1.25 1.25 0 00-.553-.459q-.365-.165-.891-.165h-.553v-.742h.553q.412 0 .722-.149a1.16 1.16 0 00.489-.418q.18-.27.179-.634 0-.351-.155-.611a1.07 1.07 0 00-.439-.405 1.4 1.4 0 00-.661-.145q-.357 0-.675.132-.314.128-.512.374a.97.97 0 00-.216.587h-.81q.021-.543.327-.951.308-.412.803-.641.5-.23 1.097-.23.641 0 1.099.26.459.256.705.678.247.422.247.911 0 .584-.307.995a1.56 1.56 0 01-.827.571v.053q.655.108 1.022.557.368.446.368 1.103 0 .564-.307 1.012a2.1 2.1 0 01-.83.702q-.526.256-1.197.256"/><path fill="#F5F7F5" d="M329.846 154.708c0-.69.56-1.25 1.25-1.25h32.5c.69 0 1.25.56 1.25 1.25v29.25c0 .69-.56 1.25-1.25 1.25h-32.5c-.69 0-1.25-.56-1.25-1.25z"/><path stroke="#D7DAD7" stroke-width=".5" d="M329.846 154.708c0-.69.56-1.25 1.25-1.25h32.5c.69 0 1.25.56 1.25 1.25v29.25c0 .69-.56 1.25-1.25 1.25h-32.5c-.69 0-1.25-.56-1.25-1.25z"/><path fill="#464D45" d="m342.491 172.333 3.09-6.113v-.054h-3.563v-.742h4.426v.783l-3.076 6.126zm5.773 0v-.607l2.28-2.497q.402-.438.661-.762.26-.327.385-.614.128-.29.128-.607a1.12 1.12 0 00-.648-1.043 1.54 1.54 0 00-.674-.145q-.399 0-.695.165-.294.162-.456.456a1.44 1.44 0 00-.158.688h-.796q0-.607.28-1.066.279-.459.762-.715a2.3 2.3 0 011.09-.257q.606 0 1.076.257.469.256.735.691.267.436.267.969 0 .38-.139.745-.135.362-.472.806-.333.442-.928 1.08l-1.551 1.66v.054h3.211v.742z"/></svg>