<svg xmlns="http://www.w3.org/2000/svg" width="320" height="320" fill="none" viewBox="0 0 320 320" class="widget-__portfolio-widget"><g clip-path="url(#widget-__a)"><path fill="#FCFDFC" d="M0 6a6 6 0 016-6h308a6 6 0 016 6v308a6 6 0 01-6 6H6a6 6 0 01-6-6z"/><mask id="widget-__b" fill="#fff"><path d="M0 0h320v48H0z"/></mask><path fill="#D7DAD7" d="M320 47H0v2h320z" mask="url(#widget-__b)"/><path fill="#B0B3AF" fill-rule="evenodd" d="M13.134 21.317a1.05 1.05 0 100-2.1 1.05 1.05 0 000 2.1m3.733 0a1.05 1.05 0 100-2.1 1.05 1.05 0 000 2.1M17.917 24a1.05 1.05 0 11-2.1 0 1.05 1.05 0 012.1 0m-4.784 1.05a1.05 1.05 0 100-2.1 1.05 1.05 0 000 2.1m4.784 2.683a1.05 1.05 0 11-2.1 0 1.05 1.05 0 012.1 0m-4.784 1.05a1.05 1.05 0 100-2.1 1.05 1.05 0 000 2.1" clip-rule="evenodd"/><path fill="#1D211C" d="M42.753 14.5h-1.145a2.38 2.38 0 00-.965-1.496 2.6 2.6 0 00-.79-.387q-.433-.13-.904-.13-.859 0-1.556.434-.693.435-1.103 1.279-.407.845-.407 2.073t.407 2.073q.411.844 1.103 1.278.697.434 1.556.434.47 0 .905-.129.433-.13.79-.383.36-.258.608-.633.254-.378.356-.867h1.145a3.8 3.8 0 01-.471 1.297q-.341.572-.85.974a3.7 3.7 0 01-1.14.605 4.3 4.3 0 01-1.343.207q-1.21 0-2.151-.59-.942-.592-1.482-1.681-.54-1.09-.54-2.585 0-1.496.54-2.585.54-1.09 1.482-1.68.94-.592 2.15-.592.717 0 1.344.208.633.208 1.14.61.509.396.85.969.342.567.47 1.297m6.17 3.6v-4.19h1.09V21h-1.09v-1.2h-.073q-.25.54-.776.918-.525.374-1.33.374-.663 0-1.18-.29a2.04 2.04 0 01-.813-.887q-.296-.595-.296-1.5v-4.506h1.09v4.432q0 .776.434 1.237.438.462 1.117.462.406 0 .826-.208a1.8 1.8 0 00.711-.637q.29-.43.29-1.094M52.01 21v-7.09h1.052v1.07h.074q.195-.525.702-.854.507-.327 1.145-.328.12 0 .3.005t.272.014v1.108a3 3 0 00-.254-.042 2.5 2.5 0 00-.41-.032 1.9 1.9 0 00-.924.217q-.401.212-.637.59-.23.375-.23.855V21zm4.837 0v-7.09h1.052v1.07h.074q.194-.525.702-.854.508-.327 1.145-.328.12 0 .3.005t.272.014v1.108a3 3 0 00-.254-.042 2.5 2.5 0 00-.41-.032 1.9 1.9 0 00-.924.217q-.402.212-.637.59-.23.375-.23.855V21zm7.594.148q-1.025 0-1.768-.453a3.04 3.04 0 01-1.14-1.274q-.397-.822-.397-1.911 0-1.09.397-1.92.401-.837 1.117-1.302.72-.471 1.68-.471.555 0 1.094.184.54.185.983.6.444.412.707 1.09t.263 1.671v.462H61.91v-.942h4.358q0-.6-.24-1.07a1.8 1.8 0 00-.674-.744 1.9 1.9 0 00-1.025-.272q-.651 0-1.126.323-.471.318-.725.83a2.44 2.44 0 00-.254 1.1v.627q0 .804.277 1.362.282.554.78.845.5.285 1.159.286.43 0 .776-.12a1.7 1.7 0 00.604-.37q.254-.248.393-.618l1.052.296q-.166.535-.558.941a2.7 2.7 0 01-.97.628 3.6 3.6 0 01-1.297.222m5.683-4.414V21h-1.09v-7.09h1.053v1.107h.092q.25-.54.757-.868.509-.332 1.311-.332.72 0 1.26.295.54.291.84.887.3.59.3 1.495V21h-1.089v-4.432q0-.835-.433-1.302-.435-.47-1.192-.47-.52 0-.932.226-.406.225-.642.66-.235.434-.235 1.052m9.599-2.825v.923h-3.675v-.923zm-2.604-1.699h1.09v6.759q0 .46.133.692.14.227.351.305.217.075.457.074.18 0 .296-.019l.184-.037.222.98a2 2 0 01-.31.082q-.198.046-.503.046-.461 0-.904-.198a1.8 1.8 0 01-.73-.605q-.285-.405-.286-1.025zM85.552 21h-1.2l3.471-9.454h1.182L92.477 21h-1.2l-2.826-7.959h-.073zm.443-3.693h4.838v1.015h-4.838zm10.67 6.5q-.79 0-1.358-.203a2.9 2.9 0 01-.947-.527 2.9 2.9 0 01-.595-.692l.868-.61q.147.195.374.444.226.254.618.438.397.19 1.04.19.858 0 1.416-.416.56-.415.559-1.302v-1.44h-.092q-.12.195-.342.48a1.9 1.9 0 01-.628.503q-.406.217-1.099.217a2.96 2.96 0 01-1.541-.406q-.68-.406-1.076-1.182-.392-.776-.392-1.883 0-1.09.383-1.898.382-.812 1.066-1.255.684-.448 1.579-.448.693 0 1.099.23.411.227.627.518.222.285.342.47h.11V13.91h1.053v7.294q0 .915-.415 1.487a2.37 2.37 0 01-1.108.844 4.2 4.2 0 01-1.542.273m-.038-3.896q.655 0 1.108-.3t.688-.864.235-1.348q0-.766-.23-1.352a2.03 2.03 0 00-.684-.92q-.452-.331-1.117-.332-.692 0-1.154.351a2.13 2.13 0 00-.688.942 3.6 3.6 0 00-.226 1.311q0 .739.23 1.307.237.562.693.886.462.318 1.145.319m8.07 1.237q-1.026 0-1.768-.453a3.04 3.04 0 01-1.141-1.274q-.396-.822-.397-1.911 0-1.09.397-1.92a3.14 3.14 0 011.118-1.302q.72-.471 1.68-.471.554 0 1.094.184.54.185.983.6.444.412.707 1.09t.263 1.671v.462h-5.466v-.942h4.358q0-.6-.24-1.07a1.8 1.8 0 00-.674-.744 1.9 1.9 0 00-1.025-.272q-.65 0-1.126.323-.471.318-.725.83-.255.512-.254 1.1v.627q0 .804.277 1.362.282.554.78.845.498.285 1.159.286.429 0 .775-.12.351-.124.605-.37.254-.248.392-.618l1.053.296a2.3 2.3 0 01-.559.941 2.7 2.7 0 01-.969.628 3.6 3.6 0 01-1.297.222"/><path fill="#686E67" d="M37.438 38h-2.47v-8h2.579q1.164 0 1.992.48.828.477 1.27 1.372.441.89.441 2.132 0 1.25-.445 2.153a3.17 3.17 0 01-1.297 1.383q-.852.48-2.07.48m-1.5-.86h1.437q.992 0 1.645-.382a2.36 2.36 0 00.972-1.09q.32-.707.32-1.684 0-.968-.316-1.668a2.33 2.33 0 00-.945-1.078q-.63-.378-1.567-.379h-1.547zm9.328.985q-.867 0-1.496-.383a2.57 2.57 0 01-.965-1.078q-.336-.696-.336-1.617 0-.922.336-1.625a2.65 2.65 0 01.945-1.102q.609-.398 1.422-.398.468 0 .926.156.457.157.832.508.375.348.597.922.223.574.223 1.414v.39h-4.625v-.796h3.688q0-.508-.204-.907a1.53 1.53 0 00-.57-.629 1.6 1.6 0 00-.867-.23q-.55 0-.953.273-.398.27-.614.704a2.1 2.1 0 00-.214.93v.53q0 .68.234 1.153.239.468.66.715.422.242.98.242.364 0 .657-.102.297-.105.512-.312a1.4 1.4 0 00.332-.524l.89.25a2 2 0 01-.472.797 2.3 2.3 0 01-.82.532 3 3 0 01-1.098.187M49.152 38v-6h.891v.938h.078q.187-.48.606-.747.417-.27 1.004-.27.593 0 .988.27.398.266.62.746h.063q.23-.464.692-.738.46-.277 1.105-.277.806 0 1.317.504.51.5.511 1.558V38h-.922v-4.016q0-.664-.363-.949a1.35 1.35 0 00-.855-.285q-.633 0-.98.383-.348.379-.348.96V38h-.938v-4.11q0-.51-.332-.824-.331-.316-.855-.316-.36 0-.672.191a1.45 1.45 0 00-.5.532 1.57 1.57 0 00-.188.777V38zm11.998.125q-.812 0-1.425-.387a2.63 2.63 0 01-.953-1.082q-.34-.695-.34-1.625 0-.937.34-1.636.343-.7.953-1.086.613-.387 1.425-.387t1.422.387q.614.386.953 1.086.345.699.344 1.636 0 .93-.344 1.625a2.6 2.6 0 01-.953 1.082q-.609.387-1.422.387m0-.828q.617 0 1.016-.316.399-.318.59-.833t.191-1.117q0-.6-.191-1.12a1.9 1.9 0 00-.59-.84q-.399-.321-1.016-.321t-1.015.32a1.9 1.9 0 00-.59.84q-.192.52-.192 1.121 0 .602.192 1.117.19.516.59.832.398.317 1.015.317m6.548 3.078q-.668 0-1.148-.172a2.4 2.4 0 01-.801-.445 2.4 2.4 0 01-.504-.586l.734-.516q.126.165.317.375.191.216.523.371.336.16.88.16.726 0 1.198-.351.474-.352.473-1.102v-1.218h-.078q-.101.163-.29.406-.182.238-.53.426-.345.183-.93.183-.727 0-1.305-.343a2.4 2.4 0 01-.91-1q-.332-.657-.332-1.594 0-.922.324-1.606.324-.687.903-1.062.577-.38 1.336-.38.585 0 .93.196.347.192.53.438.188.242.29.398h.093V32h.891v6.172q0 .774-.352 1.258a2 2 0 01-.937.715q-.586.23-1.305.23m-.031-3.297q.555 0 .938-.254.383-.255.581-.73.2-.477.2-1.14a3.1 3.1 0 00-.196-1.145q-.195-.496-.578-.778-.382-.28-.945-.281-.585 0-.977.297a1.8 1.8 0 00-.582.797 3.1 3.1 0 00-.191 1.11q0 .624.195 1.105.2.476.586.75.39.27.969.27M71.98 38v-6h.89v.906h.063q.164-.446.593-.722.43-.278.97-.278.1 0 .253.004t.23.012v.937a3 3 0 00-.214-.035 2 2 0 00-.348-.027q-.438 0-.781.184-.34.18-.54.5-.195.315-.195.722V38zm5.858.14q-.57 0-1.035-.214a1.8 1.8 0 01-.739-.63q-.273-.412-.273-1 0-.514.203-.835.204-.325.543-.508t.75-.273q.414-.094.832-.149.547-.07.887-.105.344-.04.5-.13.16-.088.16-.312v-.03q0-.579-.316-.9-.313-.32-.95-.32-.66 0-1.035.29-.374.288-.527.617l-.875-.313q.235-.546.625-.851a2.3 2.3 0 01.86-.43q.469-.125.921-.125.29 0 .664.07.38.067.73.277.356.211.59.637.235.426.235 1.14V38h-.922v-.812h-.047q-.093.195-.312.417-.219.223-.582.38-.364.156-.887.156m.14-.828q.547 0 .922-.214a1.46 1.46 0 00.766-1.27v-.844q-.059.07-.258.13a4 4 0 01-.453.097 20 20 0 01-.883.117q-.36.047-.672.152-.308.102-.5.31-.187.203-.187.554 0 .48.355.726.36.242.91.242m4.293 2.938V32h.89v.953h.11q.101-.156.28-.398.185-.246.524-.438.345-.195.93-.195.757 0 1.336.379.578.378.902 1.074.324.695.324 1.64 0 .954-.324 1.653a2.56 2.56 0 01-.898 1.078 2.35 2.35 0 01-1.325.379q-.578 0-.925-.191a1.7 1.7 0 01-.535-.442 6 6 0 01-.29-.414h-.078v3.172zm.906-5.25q0 .68.199 1.2.2.514.582.808.383.288.938.289.578 0 .964-.305.39-.309.586-.828.2-.523.2-1.164 0-.633-.196-1.14a1.76 1.76 0 00-.582-.81q-.387-.3-.972-.3-.563 0-.946.285-.383.281-.578.79-.195.503-.195 1.175m6.718-.61V38h-.921v-8h.921v2.938h.079q.21-.465.632-.739.426-.277 1.133-.277.614 0 1.075.246.46.242.714.746.258.5.258 1.273V38h-.922v-3.75q0-.715-.37-1.105-.368-.396-1.02-.395-.454 0-.813.191a1.4 1.4 0 00-.562.559q-.204.368-.204.89M95.474 38v-6h.921v6zm.468-7a.66.66 0 01-.464-.184.6.6 0 01-.192-.441.6.6 0 01.192-.441.66.66 0 01.464-.184q.27 0 .461.184.196.184.196.441a.58.58 0 01-.196.441.64.64 0 01-.46.184m4.58 7.125q-.844 0-1.454-.398a2.6 2.6 0 01-.937-1.098q-.328-.7-.328-1.598 0-.914.336-1.613.339-.703.945-1.098.609-.398 1.422-.398.633 0 1.141.234.507.235.832.657.324.42.402.984h-.922a1.43 1.43 0 00-.469-.727q-.359-.32-.968-.32-.54 0-.946.281a1.83 1.83 0 00-.629.785q-.222.503-.222 1.184 0 .696.218 1.21.223.517.625.802.407.285.954.285.359 0 .652-.125a1.35 1.35 0 00.785-.922h.922a2.13 2.13 0 01-1.195 1.629q-.501.246-1.164.246m7.957-4.781-.829.234a1.5 1.5 0 00-.23-.402 1.1 1.1 0 00-.406-.328q-.258-.13-.66-.13-.552 0-.918.255-.364.25-.364.636 0 .344.25.543t.782.332l.89.22q.805.195 1.199.597.395.398.395 1.027 0 .516-.297.922a1.97 1.97 0 01-.82.64q-.528.235-1.227.235-.918 0-1.519-.398-.601-.399-.762-1.164l.875-.22q.125.486.473.727.351.242.918.242.644 0 1.023-.273.383-.277.383-.664a.7.7 0 00-.219-.523q-.219-.215-.672-.32l-1-.235q-.824-.195-1.211-.606-.383-.413-.383-1.035 0-.507.286-.898.288-.39.785-.614a2.8 2.8 0 011.133-.222q.89 0 1.398.39.511.39.727 1.032"/><path fill="#F5F7F5" d="M254.5 17a2.5 2.5 0 012.5-2.5h26a2.5 2.5 0 012.5 2.5v14a2.5 2.5 0 01-2.5 2.5h-26a2.5 2.5 0 01-2.5-2.5z"/><path stroke="#CCCFCC" d="M254.5 17a2.5 2.5 0 012.5-2.5h26a2.5 2.5 0 012.5 2.5v14a2.5 2.5 0 01-2.5 2.5h-26a2.5 2.5 0 01-2.5-2.5z"/><path fill="#717A6D" fill-rule="evenodd" d="M270.271 17.94a.53.53 0 0 0-.543 0l-5.866 3.467a.532.532 0 0 0 0 .918l5.866 3.467a.53.53 0 0 0 .543 0l5.867-3.467a.534.534 0 0 0 0-.918zM270 24.713l-4.819-2.847L270 19.02l4.818 2.847zm-5.596.16a.533.533 0 1 0-.542.919l5.866 3.467a.53.53 0 0 0 .543 0l5.867-3.467a.535.535 0 0 0-.543-.918L270 28.18zM308.996 20.763a.536.536 0 1 0-.759-.76L305 23.242l-3.237-3.237a.537.537 0 0 0-.759.759L304.241 24l-3.237 3.237a.536.536 0 1 0 .759.76L305 24.758l3.237 3.237a.537.537 0 0 0 .759-.759L305.759 24z" clip-rule="evenodd"/><mask id="widget-__c" fill="#fff"><path d="M0 48h320v48H0z"/></mask><path fill="#004900" fill-opacity=".027" d="M0 48h320v48H0z"/><path fill="#D7DAD7" d="M320 95H0v2h320z" mask="url(#widget-__c)"/><path fill="#B0B3AF" fill-rule="evenodd" d="M13.134 69.317a1.05 1.05 0 100-2.1 1.05 1.05 0 000 2.1m3.733 0a1.05 1.05 0 100-2.1 1.05 1.05 0 000 2.1M17.917 72a1.05 1.05 0 11-2.1 0 1.05 1.05 0 012.1 0m-4.784 1.05a1.05 1.05 0 100-2.1 1.05 1.05 0 000 2.1m4.784 2.684a1.05 1.05 0 11-2.1 0 1.05 1.05 0 012.1 0m-4.784 1.05a1.05 1.05 0 100-2.1 1.05 1.05 0 000 2.1" clip-rule="evenodd"/><path fill="#464D45" d="M40.13 62.085a1.3 1.3 0 0 0-.576-.975q-.504-.35-1.288-.35a2.5 2.5 0 0 0-.965.17q-.402.171-.623.471a1.1 1.1 0 0 0-.217.674.96.96 0 0 0 .143.545q.152.23.397.388.249.156.54.263.295.102.582.17l.904.232q.495.12.979.323.484.198.882.517.401.314.642.77.244.457.244 1.086 0 .811-.42 1.44-.415.628-1.21.983-.789.356-1.915.356-1.08 0-1.875-.337-.794-.338-1.241-.974-.444-.642-.485-1.542h1.56q.038.507.314.84.282.332.73.498.447.162.987.162.582 0 1.03-.18.447-.184.702-.508a1.2 1.2 0 0 0 .263-.752.96.96 0 0 0-.231-.651 1.6 1.6 0 0 0-.619-.425 6 6 0 0 0-.895-.3l-1.099-.295q-1.155-.305-1.823-.91-.67-.604-.665-1.606-.005-.827.443-1.445.453-.62 1.223-.96.771-.347 1.74-.347.984 0 1.732.346.747.342 1.177.947.43.6.448 1.375zm6.267 7.058q-1.056 0-1.823-.448a3 3 0 0 1-1.177-1.27q-.411-.821-.411-1.924 0-1.094.41-1.925a3.13 3.13 0 0 1 1.16-1.293q.743-.466 1.745-.466.632 0 1.204.203.573.203 1.02.637.45.43.707 1.108.263.678.263 1.625v.498h-5.729v-1.08h4.247q0-.507-.212-.905a1.6 1.6 0 0 0-.596-.632 1.67 1.67 0 0 0-.886-.23q-.549 0-.96.262-.407.264-.633.693a2.05 2.05 0 0 0-.226.932v.891q0 .665.24 1.136t.67.72q.43.245 1.001.245.384 0 .693-.106.31-.111.53-.324.228-.216.347-.535l1.436.208q-.153.595-.564 1.043-.405.443-1.034.692-.623.246-1.422.245m10.568-7.234L54.412 69H52.75l-2.548-7.09h1.63l1.712 5.363h.074l1.717-5.364zm4.083 7.234q-1.057 0-1.824-.448a3 3 0 0 1-1.177-1.27q-.41-.821-.41-1.924 0-1.094.41-1.925a3.13 3.13 0 0 1 1.159-1.293q.743-.466 1.745-.466.633 0 1.205.203t1.02.637q.448.43.706 1.108.264.678.264 1.625v.498h-5.73v-1.08h4.248q0-.507-.213-.905a1.6 1.6 0 0 0-.595-.632 1.67 1.67 0 0 0-.887-.23 1.74 1.74 0 0 0-.96.262q-.405.264-.632.693a2.04 2.04 0 0 0-.226.932v.891q0 .665.24 1.136t.669.72q.429.245 1.002.245.383 0 .692-.106.31-.111.531-.324.226-.216.346-.535l1.436.208q-.152.595-.563 1.043-.406.443-1.034.692-.624.246-1.422.245M65.614 69v-7.09h1.481v1.153h.074q.195-.591.674-.923.485-.337 1.1-.337.133 0 .308.014.176.009.287.027v1.432a2 2 0 0 0-.319-.06 3 3 0 0 0-.43-.033q-.475 0-.849.203a1.5 1.5 0 0 0-.586.554 1.54 1.54 0 0 0-.212.813V69zm5.078 0v-7.09h1.528V69zm.77-8.139a.92.92 0 0 1-.65-.254.82.82 0 0 1-.268-.614q0-.355.268-.61a.92.92 0 0 1 .65-.253q.379 0 .647.254.273.254.272.61 0 .36-.272.613a.9.9 0 0 1-.646.254m5.973 1.048v1.2H73.46v-1.2zm-2.954-1.699h1.528v6.685q0 .365.11.559.111.189.291.258.185.065.402.065.162 0 .286-.023l.199-.037.267 1.223a4 4 0 0 1-.364.092q-.236.056-.577.065-.587.015-1.076-.194a1.77 1.77 0 0 1-.78-.642q-.291-.433-.286-1.09zm5.368 11.45a3.3 3.3 0 0 1-.596-.052 2 2 0 0 1-.42-.115l.36-1.214q.374.105.665.092a.8.8 0 0 0 .512-.198q.226-.19.388-.628l.162-.425-2.586-7.21h1.625l1.713 5.428h.074l1.722-5.429h1.63L82.212 69.9a3.1 3.1 0 0 1-.522.956q-.318.392-.775.595-.453.208-1.067.208m15.05-9.575a1.3 1.3 0 0 0-.578-.975q-.503-.35-1.288-.35a2.5 2.5 0 0 0-.965.17q-.4.171-.623.471a1.1 1.1 0 0 0-.217.674.96.96 0 0 0 .143.545q.153.23.397.388.25.156.54.263.296.102.582.17l.905.232q.495.12.979.323.485.198.881.517.402.314.642.77.245.457.245 1.086 0 .811-.42 1.44-.415.628-1.21.983-.79.356-1.916.356-1.08 0-1.874-.337-.794-.338-1.242-.974-.443-.642-.485-1.542h1.56q.037.507.315.84.28.332.73.498.447.162.987.162.582 0 1.03-.18.447-.184.701-.508a1.2 1.2 0 0 0 .263-.752.96.96 0 0 0-.23-.651 1.6 1.6 0 0 0-.62-.425 6 6 0 0 0-.895-.3l-1.098-.295q-1.155-.305-1.824-.91-.67-.604-.665-1.606-.005-.827.444-1.445.452-.62 1.223-.96.771-.347 1.74-.347.984 0 1.731.346.748.342 1.178.947.429.6.447 1.375zm6.206 7.058q-1.043 0-1.796-.466a3.13 3.13 0 0 1-1.154-1.293q-.401-.826-.401-1.897 0-1.085.41-1.911t1.16-1.293q.75-.466 1.767-.466.836 0 1.487.31.65.303 1.043.858.398.553.462 1.297h-1.473a1.55 1.55 0 0 0-.485-.859q-.378-.35-1.011-.35a1.6 1.6 0 0 0-.955.29q-.407.286-.637.822-.227.53-.227 1.27 0 .747.227 1.292.225.54.632.836.411.29.96.29.384 0 .688-.142.31-.144.517-.411.213-.273.291-.656h1.473q-.07.72-.448 1.283a2.6 2.6 0 0 1-1.025.878q-.642.318-1.505.318m7.452 0q-1.02 0-1.772-.457a3.1 3.1 0 0 1-1.168-1.283q-.411-.822-.411-1.916 0-1.104.411-1.93.415-.826 1.168-1.283t1.772-.457 1.773.457q.752.456 1.163 1.283.416.826.416 1.93 0 1.095-.416 1.916a3.1 3.1 0 0 1-1.163 1.283q-.753.457-1.773.457m.005-1.251q.61 0 1.006-.328.402-.328.6-.872.2-.55.199-1.21 0-.665-.199-1.214a1.96 1.96 0 0 0-.6-.882q-.396-.332-1.006-.332-.614 0-1.016.332a1.96 1.96 0 0 0-.6.882 3.6 3.6 0 0 0-.198 1.214q0 .66.198 1.21.198.545.6.872.402.328 1.016.328M113.386 69v-7.09h1.482v1.153h.074a1.75 1.75 0 0 1 .674-.923 1.88 1.88 0 0 1 1.099-.337q.133 0 .309.014.175.009.286.027v1.432a2 2 0 0 0-.318-.06 3 3 0 0 0-.43-.033q-.475 0-.849.203a1.5 1.5 0 0 0-.586.554 1.54 1.54 0 0 0-.213.813V69zm7.914.143q-1.058 0-1.824-.448a3 3 0 0 1-1.177-1.27q-.411-.821-.411-1.924 0-1.094.411-1.925a3.13 3.13 0 0 1 1.159-1.293q.743-.466 1.745-.466.632 0 1.205.203.572.203 1.02.637.448.43.706 1.108.264.678.264 1.625v.498h-5.729v-1.08h4.247q0-.507-.213-.905a1.6 1.6 0 0 0-.595-.632 1.67 1.67 0 0 0-.887-.23 1.74 1.74 0 0 0-.96.262 1.8 1.8 0 0 0-.632.693 2.04 2.04 0 0 0-.226.932v.891q0 .665.24 1.136t.669.72q.429.245 1.002.245.383 0 .692-.106a1.5 1.5 0 0 0 .531-.324q.226-.216.346-.535l1.436.208a2.4 2.4 0 0 1-.563 1.043 2.8 2.8 0 0 1-1.034.692 3.9 3.9 0 0 1-1.422.245M41.406 80.5h-.968a2.02 2.02 0 0 0-.817-1.266 2.2 2.2 0 0 0-.668-.328q-.367-.11-.766-.11a2.44 2.44 0 0 0-1.316.368q-.585.367-.934 1.082-.343.715-.343 1.754t.343 1.754q.349.715.934 1.082a2.44 2.44 0 0 0 1.316.367q.399 0 .766-.11.368-.108.668-.324a2.06 2.06 0 0 0 .816-1.269h.97a3.2 3.2 0 0 1-.4 1.098 3 3 0 0 1-1.683 1.336 3.6 3.6 0 0 1-1.136.175q-1.025 0-1.82-.5-.798-.5-1.255-1.421-.457-.922-.457-2.188t.457-2.187 1.254-1.422 1.82-.5q.606 0 1.137.175.536.177.965.516.43.336.719.82.288.48.398 1.098M43.77 78v8h-.922v-8zm1.688 8v-6h.922v6zm.469-7a.66.66 0 0 1-.465-.184.6.6 0 0 1-.191-.441.6.6 0 0 1 .19-.441.66.66 0 0 1 .466-.184q.27 0 .46.184.196.184.196.441a.58.58 0 0 1-.195.441.64.64 0 0 1-.461.184m3.063 3.39V86h-.922v-6h.891v.938h.078q.21-.457.64-.735.43-.28 1.11-.281.61 0 1.066.25.457.246.712.75.253.5.253 1.266V86h-.922v-3.75q0-.706-.367-1.102-.367-.398-1.008-.398-.441 0-.789.191a1.37 1.37 0 0 0-.543.559q-.198.368-.199.89M54.502 86v-6h.922v6zm.469-7a.66.66 0 0 1-.465-.184.6.6 0 0 1-.191-.441.6.6 0 0 1 .19-.441.66.66 0 0 1 .466-.184q.27 0 .46.184.196.184.196.441a.58.58 0 0 1-.195.441.64.64 0 0 1-.461.184m4.579 7.125q-.844 0-1.453-.398a2.6 2.6 0 0 1-.938-1.098q-.328-.7-.328-1.598 0-.915.336-1.613.34-.703.945-1.098.61-.398 1.422-.398.633 0 1.14.234.51.234.833.656.324.423.402.985h-.922a1.43 1.43 0 0 0-.468-.727q-.36-.32-.97-.32-.539 0-.944.281a1.83 1.83 0 0 0-.63.785q-.222.504-.222 1.184 0 .695.219 1.21.222.517.625.802.405.285.953.285.36 0 .652-.125a1.35 1.35 0 0 0 .785-.922h.922a2.14 2.14 0 0 1-1.195 1.629q-.5.246-1.164.246m5.472.016q-.57 0-1.035-.215a1.8 1.8 0 0 1-.738-.63q-.273-.413-.273-1 0-.515.203-.835.203-.324.543-.508.339-.183.75-.273.414-.094.832-.149.546-.07.886-.105.345-.04.5-.13.16-.088.16-.312v-.03q0-.579-.316-.9-.312-.32-.949-.32-.66 0-1.035.29-.375.288-.528.617l-.875-.313q.235-.547.626-.851a2.3 2.3 0 0 1 .859-.43q.469-.126.922-.125.288 0 .664.07.378.066.73.277.356.211.59.637t.234 1.14V86h-.921v-.812h-.047q-.094.195-.313.418t-.582.378q-.363.157-.887.157m.141-.829q.547 0 .922-.214a1.46 1.46 0 0 0 .766-1.27v-.844q-.06.07-.258.13-.196.054-.453.097a20 20 0 0 1-.883.117q-.36.046-.672.153-.309.1-.5.308-.187.202-.187.555 0 .48.355.726.36.243.91.243M70.377 78v8h-.922v-8zm7.376 8h-2.469v-8h2.578q1.164 0 1.993.48.828.477 1.269 1.372.441.89.441 2.132 0 1.25-.445 2.153a3.17 3.17 0 0 1-1.297 1.382q-.851.48-2.07.481m-1.5-.86h1.437q.993 0 1.645-.382.653-.383.973-1.09t.32-1.684q0-.968-.317-1.668a2.33 2.33 0 0 0-.945-1.078q-.63-.379-1.566-.379h-1.547zm8.578 1q-.57 0-1.035-.214a1.8 1.8 0 0 1-.738-.63q-.274-.413-.274-1 0-.515.203-.835.204-.324.543-.508.34-.183.75-.273.415-.094.832-.149.547-.07.887-.105.345-.04.5-.13.16-.088.16-.312v-.03q0-.579-.316-.9-.313-.32-.95-.32-.66 0-1.035.29-.374.288-.527.617l-.875-.313q.235-.547.625-.851a2.3 2.3 0 0 1 .86-.43q.469-.126.921-.125.29 0 .664.07.38.066.73.277.357.211.59.637.235.426.235 1.14V86h-.922v-.812h-.047q-.093.195-.312.418t-.582.378q-.363.157-.887.157m.14-.828q.548 0 .923-.214a1.46 1.46 0 0 0 .765-1.27v-.844q-.059.07-.258.13-.194.054-.453.097a20 20 0 0 1-.883.117q-.36.046-.671.153-.31.1-.5.308-.188.202-.188.555 0 .48.355.726.36.243.91.243M91.874 80v.781h-3.11V80zm-2.203-1.437h.922v5.718q0 .39.113.586a.6.6 0 0 0 .297.258q.183.063.387.063.152 0 .25-.016l.156-.031.187.828q-.094.035-.261.07a2 2 0 0 1-.426.04q-.39 0-.766-.169a1.5 1.5 0 0 1-.617-.512q-.242-.343-.242-.867zm5.355 7.578q-.57 0-1.035-.215a1.8 1.8 0 0 1-.738-.63q-.273-.413-.273-1 0-.515.203-.835.203-.324.543-.508.339-.183.75-.273.414-.094.832-.149.547-.07.886-.105.344-.04.5-.13.16-.088.16-.312v-.03q0-.579-.316-.9-.312-.32-.95-.32-.66 0-1.034.29-.375.288-.528.617l-.875-.313q.235-.547.625-.851a2.3 2.3 0 0 1 .86-.43q.469-.126.922-.125.288 0 .664.07.379.066.73.277.356.211.59.637t.234 1.14V86h-.922v-.812h-.046q-.094.195-.313.418t-.582.378q-.363.157-.887.157m.141-.829q.547 0 .922-.214a1.46 1.46 0 0 0 .766-1.27v-.844q-.06.07-.258.13a4 4 0 0 1-.453.097 20 20 0 0 1-.883.117q-.36.046-.672.153-.308.1-.5.308-.188.202-.188.555 0 .48.356.726.36.243.91.243"/><path fill="#002000" fill-opacity=".063" d="M254.5 65a2.5 2.5 0 012.5-2.5h26a2.5 2.5 0 012.5 2.5v14a2.5 2.5 0 01-2.5 2.5h-26a2.5 2.5 0 01-2.5-2.5z"/><path stroke="#CCCFCC" d="M254.5 65a2.5 2.5 0 012.5-2.5h26a2.5 2.5 0 012.5 2.5v14a2.5 2.5 0 01-2.5 2.5h-26a2.5 2.5 0 01-2.5-2.5z"/><path fill="#717A6D" fill-rule="evenodd" d="M270.271 65.94a.53.53 0 0 0-.543 0l-5.866 3.467a.532.532 0 0 0 0 .918l5.866 3.467a.53.53 0 0 0 .543 0l5.867-3.467a.534.534 0 0 0 0-.918zM270 72.713l-4.819-2.847L270 67.02l4.818 2.847zm-5.596.16a.533.533 0 1 0-.542.919l5.866 3.467a.53.53 0 0 0 .543 0l5.867-3.467a.535.535 0 0 0-.543-.918L270 76.18zM308.996 68.763a.536.536 0 1 0-.759-.76L305 71.242l-3.237-3.237a.537.537 0 0 0-.759.759L304.241 72l-3.237 3.237a.536.536 0 1 0 .759.76L305 72.758l3.237 3.237a.537.537 0 0 0 .759-.759L305.759 72z" clip-rule="evenodd"/><mask id="widget-__d" fill="#fff"><path d="M0 96h320v48H0z"/></mask><path fill="#D7DAD7" d="M320 143H0v2h320z" mask="url(#widget-__d)"/><path fill="#B0B3AF" fill-rule="evenodd" d="M13.134 117.317a1.05 1.05 0 100-2.1 1.05 1.05 0 000 2.1m3.733 0a1.05 1.05 0 100-2.1 1.05 1.05 0 000 2.1m1.05 2.683a1.05 1.05 0 11-2.1 0 1.05 1.05 0 012.1 0m-4.784 1.05a1.05 1.05 0 100-2.1 1.05 1.05 0 000 2.1m4.784 2.683a1.05 1.05 0 11-2.1 0 1.05 1.05 0 012.1 0m-4.784 1.05a1.05 1.05 0 100-2.1 1.05 1.05 0 000 2.1" clip-rule="evenodd"/><path fill="#1D211C" d="M35.533 117h-1.2l3.471-9.455h1.182L42.457 117h-1.2l-2.825-7.959h-.074zm.443-3.693h4.838v1.015h-4.838zm8.896-5.762V117h-1.09v-9.455zm4.082 9.621a2.9 2.9 0 01-1.223-.254 2.1 2.1 0 01-.873-.743q-.323-.489-.323-1.182 0-.609.24-.988.24-.382.642-.6.401-.217.886-.323.49-.11.983-.175.646-.084 1.048-.125.407-.047.591-.152.19-.106.19-.37v-.037q0-.683-.375-1.061-.37-.38-1.121-.379-.78 0-1.224.342-.443.34-.623.729l-1.034-.369q.276-.647.739-1.007a2.8 2.8 0 011.015-.508q.555-.147 1.09-.147.342 0 .785.083.447.078.863.328.42.25.697.752.277.504.277 1.348V117h-1.09v-.96h-.055a2 2 0 01-.37.494 2.2 2.2 0 01-.687.448q-.43.184-1.048.184m.166-.978q.646 0 1.09-.254a1.73 1.73 0 00.904-1.501v-.997q-.069.083-.304.152a5 5 0 01-.536.116 25 25 0 01-1.043.138 4 4 0 00-.794.18 1.4 1.4 0 00-.591.365q-.222.24-.222.656 0 .567.42.858.426.287 1.076.287m6.162-3.454V117h-1.09v-7.091h1.053v1.108h.092q.25-.54.757-.868.508-.332 1.312-.332.72 0 1.26.295.54.291.84.887.3.59.3 1.495V117h-1.09v-4.432q0-.835-.433-1.302-.435-.471-1.191-.471a1.9 1.9 0 00-.933.227q-.406.226-.642.66-.235.434-.235 1.052M61.797 117v-7.091h1.09V117zm.554-8.273a.77.77 0 01-.55-.217.7.7 0 01-.226-.521q0-.304.227-.522a.77.77 0 01.549-.217q.318 0 .545.217.23.218.23.522a.69.69 0 01-.23.521.76.76 0 01-.545.217m3.62 4.007V117h-1.09v-7.091h1.053v1.108h.093q.249-.54.757-.868.507-.332 1.311-.332.72 0 1.26.295.54.291.84.887.3.59.3 1.495V117h-1.089v-4.432q0-.835-.434-1.302-.435-.471-1.19-.471a1.9 1.9 0 00-.933.227q-.406.226-.642.66t-.236 1.052m9.488 4.414q-1.024 0-1.768-.453a3.03 3.03 0 01-1.14-1.274q-.397-.822-.397-1.911 0-1.09.397-1.921.402-.836 1.117-1.301.72-.471 1.68-.471.555 0 1.095.184.54.186.983.601.443.41.706 1.089.264.679.263 1.671v.462H72.93v-.942h4.358q0-.6-.24-1.071a1.8 1.8 0 00-.674-.743 1.9 1.9 0 00-1.025-.273q-.651 0-1.127.324a2.1 2.1 0 00-.725.831q-.254.511-.254 1.098v.628q0 .804.278 1.362a2 2 0 00.78.845q.498.286 1.158.286.43 0 .776-.12a1.7 1.7 0 00.605-.369q.254-.25.392-.619l1.053.296q-.166.535-.559.941a2.7 2.7 0 01-.97.628 3.6 3.6 0 01-1.297.222m8.786-.148h-1.2l3.47-9.455h1.183L91.169 117h-1.2l-2.825-7.959h-.074zm.443-3.693h4.838v1.015h-4.838zM92.494 117v-7.091h1.053v1.108h.092q.221-.568.716-.882.493-.318 1.186-.318.702 0 1.168.318.471.314.734.882h.074q.272-.55.817-.872.545-.328 1.306-.328.952 0 1.556.595.605.591.605 1.842V117h-1.089v-4.746q0-.784-.43-1.122a1.6 1.6 0 00-1.01-.337q-.75 0-1.16.453-.41.447-.41 1.136V117h-1.108v-4.857q0-.604-.393-.974-.392-.374-1.01-.374-.426 0-.795.227a1.7 1.7 0 00-.59.628q-.222.396-.222.918V117zm11.299 0v-7.091h1.09V117zm.554-8.273a.77.77 0 01-.549-.217.7.7 0 01-.227-.521q0-.304.227-.522a.77.77 0 01.549-.217q.318 0 .545.217a.7.7 0 01.231.522.69.69 0 01-.231.521.76.76 0 01-.545.217m3.621 4.007V117h-1.09v-7.091h1.053v1.108h.092q.249-.54.757-.868.508-.332 1.311-.332.72 0 1.26.295.54.291.841.887.3.59.3 1.495V117h-1.09v-4.432q0-.835-.434-1.302-.433-.471-1.191-.471-.521 0-.932.227-.407.226-.642.66t-.235 1.052m9.395 4.414q-.96 0-1.685-.457a3.1 3.1 0 01-1.126-1.279q-.402-.822-.402-1.921 0-1.107.402-1.934a3.1 3.1 0 011.126-1.283q.725-.457 1.685-.457t1.681.457q.724.456 1.126 1.283.406.827.406 1.934 0 1.1-.406 1.921a3.07 3.07 0 01-1.126 1.279q-.721.456-1.681.457m0-.979q.73 0 1.2-.374.471-.374.698-.983.226-.61.226-1.321 0-.71-.226-1.324a2.23 2.23 0 00-.698-.993q-.47-.379-1.2-.379-.729 0-1.2.379a2.23 2.23 0 00-.697.993 3.8 3.8 0 00-.226 1.324q0 .712.226 1.321.226.61.697.983.471.374 1.2.374m7.96-6.26v.923h-3.675v-.923zm-2.604-1.699h1.09v6.759q0 .462.134.692a.7.7 0 00.351.305q.217.074.457.074.18 0 .295-.019l.185-.037.221.979a2 2 0 01-.309.083q-.198.046-.503.046a2.2 2.2 0 01-.905-.198 1.8 1.8 0 01-.729-.605q-.287-.406-.287-1.025zm4.243 8.79v-7.091h1.053v1.071h.073q.195-.526.702-.854a2.07 2.07 0 011.145-.328q.12 0 .3.005t.272.014v1.108a3 3 0 00-.253-.042 2.6 2.6 0 00-.411-.032q-.518 0-.924.217-.401.212-.637.591a1.6 1.6 0 00-.231.854V117zm6.924.166a2.9 2.9 0 01-1.224-.254 2.1 2.1 0 01-.872-.743q-.323-.489-.323-1.182 0-.609.24-.988.24-.382.641-.6t.887-.323q.49-.11.983-.175.646-.084 1.048-.125.406-.047.591-.152.189-.106.189-.37v-.037q0-.683-.374-1.061-.369-.38-1.122-.379-.78 0-1.223.342-.443.34-.623.729l-1.034-.369q.277-.647.738-1.007.467-.364 1.016-.508a4.2 4.2 0 011.089-.147q.342 0 .785.083.448.078.863.328.421.25.698.752.276.504.277 1.348V117h-1.09v-.96h-.055a1.9 1.9 0 01-.37.494 2.2 2.2 0 01-.687.448q-.43.184-1.048.184m.166-.978q.647 0 1.089-.254a1.73 1.73 0 00.905-1.501v-.997q-.07.083-.305.152a5 5 0 01-.535.116 26 26 0 01-1.043.138 4 4 0 00-.794.18 1.36 1.36 0 00-.591.365q-.222.24-.222.656 0 .567.42.858.425.287 1.076.287m6.162-3.454V117h-1.09v-7.091h1.053v1.108h.092a2.03 2.03 0 01.757-.868q.509-.332 1.311-.332.72 0 1.26.295.541.291.841.887.3.59.3 1.495V117h-1.09v-4.432q0-.835-.434-1.302-.434-.471-1.191-.471-.522 0-.932.227-.406.226-.642.66-.235.434-.235 1.052m11.537-1.237-.978.277a1.8 1.8 0 00-.273-.475 1.3 1.3 0 00-.48-.388q-.304-.153-.78-.152-.651 0-1.085.3-.429.295-.429.752 0 .407.295.642.296.236.924.392l1.052.259q.95.23 1.417.706.467.471.467 1.214 0 .61-.351 1.09-.346.48-.97.757-.623.276-1.449.277-1.085 0-1.796-.471t-.9-1.376l1.034-.258q.147.572.558.858.416.287 1.085.287.762 0 1.21-.324.452-.328.452-.784a.83.83 0 00-.258-.619q-.259-.254-.794-.379l-1.182-.277q-.975-.23-1.431-.715-.453-.489-.453-1.224 0-.6.337-1.061a2.3 2.3 0 01.928-.725q.59-.264 1.339-.263 1.053 0 1.653.461.605.462.858 1.219m4.927-1.588v.923h-3.822v-.923zM154.001 117v-8.07q0-.609.286-1.015t.743-.61.965-.203q.401 0 .656.065.253.064.378.12l-.314.942a5 5 0 00-.231-.07 1.4 1.4 0 00-.378-.041q-.54 0-.78.272-.236.273-.236.799V117zm6.885.148q-1.024 0-1.768-.453a3.03 3.03 0 01-1.14-1.274q-.397-.822-.397-1.911 0-1.09.397-1.921.402-.836 1.117-1.301.72-.471 1.68-.471.555 0 1.094.184.54.186.984.601.443.41.706 1.089t.263 1.671v.462h-5.466v-.942h4.358q0-.6-.24-1.071a1.8 1.8 0 00-.674-.743 1.9 1.9 0 00-1.025-.273q-.65 0-1.126.324a2.1 2.1 0 00-.725.831 2.44 2.44 0 00-.254 1.098v.628q0 .804.277 1.362.282.554.78.845.5.286 1.159.286.43 0 .776-.12.35-.125.605-.369.254-.25.392-.619l1.052.296q-.166.535-.558.941a2.7 2.7 0 01-.97.628 3.6 3.6 0 01-1.297.222m4.594-.148v-7.091h1.052v1.071h.074q.193-.526.702-.854.507-.328 1.145-.328.12 0 .3.005t.272.014v1.108a3 3 0 00-.254-.042 2.6 2.6 0 00-.411-.032q-.516 0-.923.217-.402.212-.637.591a1.6 1.6 0 00-.231.854V117zm6.923.166a2.9 2.9 0 01-1.223-.254 2.1 2.1 0 01-.873-.743q-.323-.489-.323-1.182 0-.609.24-.988.24-.382.642-.6a3.4 3.4 0 01.886-.323q.489-.11.984-.175.646-.084 1.047-.125.406-.047.591-.152.19-.106.19-.37v-.037q0-.683-.374-1.061-.369-.38-1.122-.379-.78 0-1.223.342-.444.34-.624.729l-1.034-.369q.277-.647.739-1.007a2.8 2.8 0 011.015-.508q.555-.147 1.09-.147.341 0 .785.083.447.078.863.328.42.25.697.752.277.504.277 1.348V117h-1.089v-.96h-.056a2 2 0 01-.369.494 2.2 2.2 0 01-.688.448q-.429.184-1.048.184m.166-.978q.646 0 1.09-.254.447-.255.674-.656a1.67 1.67 0 00.231-.845v-.997q-.07.083-.305.152a5 5 0 01-.536.116 25 25 0 01-1.043.138 4 4 0 00-.794.18q-.364.12-.591.365-.221.24-.221.656 0 .567.42.858.424.287 1.075.287m10.095-4.691-.978.277a1.8 1.8 0 00-.273-.475 1.3 1.3 0 00-.48-.388q-.305-.153-.78-.152-.651 0-1.085.3-.429.295-.429.752 0 .407.295.642.296.236.924.392l1.052.259q.951.23 1.417.706.467.471.467 1.214 0 .61-.351 1.09-.346.48-.97.757-.623.276-1.449.277-1.085 0-1.796-.471t-.9-1.376l1.034-.258q.148.572.558.858.416.287 1.085.287.762 0 1.21-.324.452-.328.452-.784a.83.83 0 00-.258-.619q-.259-.254-.794-.379l-1.182-.277q-.975-.23-1.431-.715-.453-.489-.453-1.224 0-.6.337-1.061a2.3 2.3 0 01.928-.725q.59-.264 1.339-.263 1.053 0 1.653.461.604.462.858 1.219m4.743 5.651q-1.026 0-1.768-.453a3.03 3.03 0 01-1.141-1.274q-.397-.822-.397-1.911 0-1.09.397-1.921.401-.836 1.118-1.301.72-.471 1.68-.471.554 0 1.094.184.54.186.983.601.444.41.707 1.089t.263 1.671v.462h-5.466v-.942h4.358q0-.6-.24-1.071a1.8 1.8 0 00-.674-.743 1.9 1.9 0 00-1.025-.273q-.651 0-1.127.324a2.1 2.1 0 00-.724.831q-.255.511-.254 1.098v.628q0 .804.277 1.362.282.554.78.845.499.286 1.159.286.429 0 .775-.12.351-.125.605-.369.254-.25.392-.619l1.053.296a2.3 2.3 0 01-.559.941 2.7 2.7 0 01-.969.628 3.6 3.6 0 01-1.297.222m8.637-4.875q0-1.745.453-3.209a10 10 0 011.301-2.7h.961q-.333.457-.624 1.126-.285.665-.503 1.463-.216.795-.341 1.644-.12.85-.12 1.676 0 1.098.212 2.229t.572 2.101.804 1.579h-.961a10 10 0 01-1.301-2.696q-.453-1.469-.453-3.213m4.858 4.727h-1.2l3.471-9.455h1.182l3.472 9.455h-1.201l-2.825-7.959h-.074zm.443-3.693h4.838v1.015h-4.838zm7.954 3.693v-9.455h1.145v8.439h4.395V117zm5.539-8.439v-1.016h7.091v1.016h-2.973V117h-1.145v-8.439zm11.037 3.712q0 1.744-.457 3.213a10 10 0 01-1.298 2.696h-.96q.333-.457.619-1.127.29-.665.508-1.458.216-.8.337-1.648a11.6 11.6 0 00-.088-3.906 13 13 0 00-.573-2.101q-.36-.969-.803-1.578h.96a9.9 9.9 0 011.298 2.7q.457 1.464.457 3.209"/><path fill="#686E67" d="M41.406 128.5h-.968a2 2 0 00-.817-1.266 2.2 2.2 0 00-.668-.328 2.7 2.7 0 00-.766-.109q-.726 0-1.316.367-.585.368-.934 1.082-.343.715-.343 1.754t.343 1.754q.349.714.934 1.082.59.367 1.316.367.399 0 .766-.109.368-.11.668-.324a2.06 2.06 0 00.816-1.27h.97a3.2 3.2 0 01-.4 1.098 3 3 0 01-.718.824 3.2 3.2 0 01-.965.512 3.6 3.6 0 01-1.136.175q-1.025 0-1.82-.5-.798-.5-1.255-1.422T34.656 130q0-1.266.457-2.188.458-.921 1.254-1.421.797-.5 1.82-.5.606 0 1.137.175.536.176.965.516.43.336.719.82a3.2 3.2 0 01.398 1.098m2.363-2.5v8h-.922v-8zm1.688 8v-6h.922v6zm.469-7a.65.65 0 01-.465-.184.59.59 0 01-.191-.441q0-.258.19-.441a.65.65 0 01.466-.184.64.64 0 01.46.184q.196.183.196.441a.58.58 0 01-.195.441.64.64 0 01-.461.184m3.063 3.391V134h-.922v-6h.891v.937h.078q.21-.456.64-.734.43-.28 1.11-.281.61 0 1.066.25.457.246.712.75.253.5.253 1.266V134h-.922v-3.75q0-.707-.367-1.102-.367-.398-1.008-.398-.441 0-.789.191-.343.192-.543.559-.198.368-.199.891M54.502 134v-6h.922v6zm.469-7a.65.65 0 01-.465-.184.59.59 0 01-.191-.441q0-.258.19-.441a.65.65 0 01.466-.184.64.64 0 01.46.184q.196.183.196.441a.58.58 0 01-.195.441.64.64 0 01-.461.184m4.579 7.125q-.844 0-1.453-.398a2.6 2.6 0 01-.938-1.098q-.328-.7-.328-1.598 0-.914.336-1.613.34-.703.945-1.098.61-.398 1.422-.398.633 0 1.14.234.51.234.833.656.324.423.402.985h-.922a1.43 1.43 0 00-.468-.727q-.36-.32-.97-.32-.539 0-.944.281a1.84 1.84 0 00-.63.785q-.222.504-.222 1.184 0 .695.219 1.211.222.516.625.801.405.285.953.285.36 0 .652-.125a1.33 1.33 0 00.785-.922h.922a2.14 2.14 0 01-.386.957 2.2 2.2 0 01-.81.672q-.499.246-1.163.246m5.472.016q-.57 0-1.035-.215a1.8 1.8 0 01-.738-.629q-.273-.415-.273-1 0-.516.203-.836a1.44 1.44 0 01.543-.508 2.9 2.9 0 01.75-.273q.414-.094.832-.149.546-.07.886-.105.345-.039.5-.129.16-.09.16-.313v-.031q0-.578-.316-.898-.312-.321-.949-.321-.66 0-1.035.289-.375.29-.528.618l-.875-.313q.235-.546.626-.851.393-.309.859-.43.469-.125.922-.125.288 0 .664.07.378.066.73.278.356.21.59.636t.234 1.141V134h-.921v-.813h-.047q-.094.196-.313.418a1.8 1.8 0 01-.582.379q-.363.157-.887.157m.141-.829q.547 0 .922-.214a1.47 1.47 0 00.766-1.27v-.844q-.06.07-.258.129-.196.055-.453.098a22 22 0 01-.883.117q-.36.047-.672.152a1.16 1.16 0 00-.5.309q-.187.202-.187.555 0 .48.355.726.36.243.91.242M70.377 126v8h-.922v-8zm7.376 8h-2.469v-8h2.578q1.164 0 1.993.48.828.477 1.269 1.372.441.89.441 2.132 0 1.25-.445 2.153a3.17 3.17 0 01-1.297 1.383q-.851.48-2.07.48m-1.5-.859h1.437q.993 0 1.645-.383a2.36 2.36 0 00.973-1.09q.32-.707.32-1.684 0-.968-.317-1.668a2.34 2.34 0 00-.945-1.078q-.63-.378-1.566-.379h-1.547zm8.578 1q-.57 0-1.035-.215a1.8 1.8 0 01-.738-.629q-.274-.415-.274-1 0-.516.203-.836a1.44 1.44 0 01.543-.508 2.9 2.9 0 01.75-.273q.415-.094.832-.149.547-.07.887-.105.345-.039.5-.129.16-.09.16-.313v-.031q0-.578-.316-.898-.313-.321-.95-.321-.66 0-1.035.289-.374.29-.527.618l-.875-.313q.235-.546.625-.851.395-.309.86-.43.469-.125.921-.125.29 0 .664.07.38.066.73.278.357.21.59.636.235.426.235 1.141V134h-.922v-.813h-.047q-.093.196-.312.418a1.8 1.8 0 01-.582.379q-.363.157-.887.157m.14-.829q.548 0 .923-.214a1.47 1.47 0 00.765-1.27v-.844q-.059.07-.258.129-.194.055-.453.098a22 22 0 01-.883.117q-.36.047-.671.152a1.16 1.16 0 00-.5.309q-.188.202-.188.555 0 .48.355.726.36.243.91.242M91.874 128v.781h-3.11V128zm-2.203-1.438h.922v5.719q0 .391.113.586a.6.6 0 00.297.258q.183.063.387.062.152 0 .25-.015l.156-.031.187.828q-.094.035-.261.07a2 2 0 01-.426.039q-.39 0-.766-.168a1.5 1.5 0 01-.617-.512q-.242-.344-.242-.867zm5.355 7.579q-.57 0-1.035-.215a1.8 1.8 0 01-.738-.629q-.273-.415-.273-1 0-.516.203-.836a1.44 1.44 0 01.543-.508q.339-.183.75-.273.414-.094.832-.149.547-.07.886-.105.344-.039.5-.129.16-.09.16-.313v-.031q0-.578-.316-.898-.312-.321-.95-.321-.66 0-1.034.289-.375.29-.528.618l-.875-.313q.235-.546.625-.851.395-.309.86-.43.469-.125.922-.125.288 0 .664.07.379.066.73.278.356.21.59.636t.234 1.141V134h-.922v-.813h-.046q-.094.196-.313.418a1.8 1.8 0 01-.582.379q-.363.157-.887.157m.141-.829q.547 0 .922-.214a1.47 1.47 0 00.766-1.27v-.844q-.06.07-.258.129-.196.055-.453.098a22 22 0 01-.883.117q-.36.047-.672.152a1.16 1.16 0 00-.5.309q-.188.202-.188.555 0 .48.356.726.36.243.91.242"/><path fill="#F5F7F5" d="M254.5 113a2.5 2.5 0 012.5-2.5h26a2.5 2.5 0 012.5 2.5v14a2.5 2.5 0 01-2.5 2.5h-26a2.5 2.5 0 01-2.5-2.5z"/><path stroke="#CCCFCC" d="M254.5 113a2.5 2.5 0 012.5-2.5h26a2.5 2.5 0 012.5 2.5v14a2.5 2.5 0 01-2.5 2.5h-26a2.5 2.5 0 01-2.5-2.5z"/><path fill="#717A6D" fill-rule="evenodd" d="M270.271 113.94a.53.53 0 0 0-.543 0l-5.866 3.467a.533.533 0 0 0 0 .918l5.866 3.467a.53.53 0 0 0 .543 0l5.867-3.467a.533.533 0 0 0 0-.918zm-.271 6.773-4.819-2.847 4.819-2.847 4.818 2.847zm-5.596.161a.532.532 0 1 0-.542.918l5.866 3.467a.53.53 0 0 0 .543 0l5.867-3.467a.534.534 0 0 0-.543-.918L270 124.18zM308.996 116.763a.536.536 0 1 0-.759-.759L305 119.241l-3.237-3.237a.536.536 0 1 0-.759.759l3.237 3.237-3.237 3.237a.536.536 0 1 0 .759.759l3.237-3.237 3.237 3.237a.536.536 0 1 0 .759-.759L305.759 120z" clip-rule="evenodd"/><mask id="widget-__e" fill="#fff"><path d="M0 144h320v32H0z"/></mask><path fill="#D7DAD7" d="M320 175H0v2h320z" mask="url(#widget-__e)"/><path fill="#B0B3AF" fill-rule="evenodd" d="M13.134 157.317a1.05 1.05 0 100-2.1 1.05 1.05 0 000 2.1m3.733 0a1.05 1.05 0 100-2.1 1.05 1.05 0 000 2.1m1.05 2.683a1.05 1.05 0 11-2.1 0 1.05 1.05 0 012.1 0m-4.784 1.05a1.05 1.05 0 100-2.1 1.05 1.05 0 000 2.1m4.784 2.683a1.05 1.05 0 11-2.1 0 1.05 1.05 0 012.1 0m-4.784 1.05a1.05 1.05 0 100-2.1 1.05 1.05 0 000 2.1" clip-rule="evenodd"/><path fill="#1D211C" d="M40.315 157.909a1.45 1.45 0 00-.674-1.089q-.59-.388-1.45-.388-.627 0-1.098.203-.466.203-.73.559a1.34 1.34 0 00-.258.807q0 .38.18.651.184.268.471.448.285.175.6.291.315.111.577.18l.96.259q.37.096.822.267a3.8 3.8 0 01.873.467q.42.29.692.747.273.458.273 1.122 0 .767-.402 1.385-.398.619-1.163.983-.762.365-1.852.365-1.015 0-1.759-.328a2.8 2.8 0 01-1.163-.914 2.6 2.6 0 01-.475-1.362h1.181q.047.536.36.887.319.346.804.517.49.166 1.052.166.656 0 1.178-.212.521-.218.826-.6.305-.389.305-.905 0-.471-.264-.767a1.9 1.9 0 00-.692-.48 7 7 0 00-.928-.323l-1.163-.332q-1.108-.32-1.755-.91-.645-.59-.646-1.546 0-.794.43-1.385.434-.596 1.163-.923a3.9 3.9 0 011.639-.333q.914 0 1.625.328.712.323 1.126.886.42.564.443 1.279zm7.44 4.192v-4.192h1.09V165h-1.09v-1.2h-.073q-.25.54-.776.918-.526.375-1.329.374-.665 0-1.182-.291a2.03 2.03 0 01-.812-.886q-.296-.595-.296-1.5v-4.506h1.09v4.432q0 .775.434 1.237.438.462 1.117.462.406 0 .826-.208.425-.207.711-.637.29-.43.29-1.094M50.842 165v-7.091h1.053v1.071h.073q.195-.526.702-.854a2.07 2.07 0 011.145-.328q.12 0 .3.005t.272.014v1.108a3 3 0 00-.254-.042 2.6 2.6 0 00-.41-.032q-.517 0-.924.217-.401.211-.637.591-.23.374-.23.854V165zm10.85-7.091L59.07 165h-1.108l-2.622-7.091h1.181l1.958 5.651h.074l1.957-5.651zM63.13 165v-7.091h1.09V165zm.554-8.273a.77.77 0 01-.55-.217.7.7 0 01-.226-.521q0-.304.227-.522a.77.77 0 01.549-.217q.318 0 .545.217.23.218.23.522a.69.69 0 01-.23.521.76.76 0 01-.545.217m8.33 1.182L69.39 165h-1.108l-2.622-7.091h1.182l1.957 5.651h.074l1.957-5.651zm3.308 7.257a2.9 2.9 0 01-1.223-.254 2.1 2.1 0 01-.873-.743q-.323-.489-.323-1.182 0-.609.24-.988a1.7 1.7 0 01.642-.6q.402-.217.886-.323.49-.11.983-.175.646-.084 1.048-.125.407-.047.591-.152.19-.106.19-.37v-.037q0-.683-.374-1.061-.369-.38-1.122-.379-.78 0-1.224.342-.443.34-.623.729l-1.034-.369q.277-.647.739-1.007a2.8 2.8 0 011.015-.508q.555-.147 1.09-.147.342 0 .785.083.447.078.863.328.42.25.697.752.277.504.277 1.348V165h-1.09v-.96h-.055a2 2 0 01-.37.494 2.2 2.2 0 01-.687.448q-.43.184-1.048.184m.166-.978q.646 0 1.09-.254a1.73 1.73 0 00.905-1.501v-.997q-.07.083-.305.152a5 5 0 01-.536.116 25 25 0 01-1.043.138 4 4 0 00-.794.18 1.4 1.4 0 00-.59.365q-.223.24-.222.656 0 .567.42.858.424.287 1.075.287m6.162-8.643V165h-1.09v-9.455z"/><path fill="#F5F7F5" d="M254.5 153a2.5 2.5 0 012.5-2.5h26a2.5 2.5 0 012.5 2.5v14a2.5 2.5 0 01-2.5 2.5h-26a2.5 2.5 0 01-2.5-2.5z"/><path stroke="#CCCFCC" d="M254.5 153a2.5 2.5 0 012.5-2.5h26a2.5 2.5 0 012.5 2.5v14a2.5 2.5 0 01-2.5 2.5h-26a2.5 2.5 0 01-2.5-2.5z"/><path fill="#717A6D" fill-rule="evenodd" d="M270.271 153.94a.53.53 0 0 0-.543 0l-5.866 3.467a.533.533 0 0 0 0 .918l5.866 3.467a.53.53 0 0 0 .543 0l5.867-3.467a.533.533 0 0 0 0-.918zm-.271 6.773-4.819-2.847 4.819-2.847 4.818 2.847zm-5.596.161a.532.532 0 1 0-.542.918l5.866 3.467a.53.53 0 0 0 .543 0l5.867-3.467a.534.534 0 0 0-.543-.918L270 164.18zM308.996 156.763a.536.536 0 1 0-.759-.759L305 159.241l-3.237-3.237a.536.536 0 1 0-.759.759l3.237 3.237-3.237 3.237a.536.536 0 1 0 .759.759l3.237-3.237 3.237 3.237a.536.536 0 1 0 .759-.759L305.759 160z" clip-rule="evenodd"/><path fill="#B0B3AF" fill-rule="evenodd" d="M13.134 189.317a1.05 1.05 0 100-2.1 1.05 1.05 0 000 2.1m3.733 0a1.05 1.05 0 100-2.1 1.05 1.05 0 000 2.1m1.05 2.683a1.05 1.05 0 11-2.1 0 1.05 1.05 0 012.1 0m-4.784 1.05a1.05 1.05 0 100-2.1 1.05 1.05 0 000 2.1m4.784 2.683a1.05 1.05 0 11-2.1 0 1.05 1.05 0 012.1 0m-4.784 1.05a1.05 1.05 0 100-2.1 1.05 1.05 0 000 2.1" clip-rule="evenodd"/><path fill="#1D211C" d="M40.315 189.909a1.45 1.45 0 00-.674-1.089q-.59-.388-1.45-.388-.627 0-1.098.203-.466.203-.73.559a1.34 1.34 0 00-.258.807q0 .38.18.651.184.268.471.448.285.175.6.291.315.111.577.18l.96.259q.37.096.822.267a3.8 3.8 0 01.873.467q.42.29.692.747.273.458.273 1.122 0 .767-.402 1.385-.398.619-1.163.983-.762.366-1.852.365-1.015 0-1.759-.328a2.8 2.8 0 01-1.163-.914 2.6 2.6 0 01-.475-1.362h1.181q.047.536.36.887.319.346.804.517.49.166 1.052.166.656 0 1.178-.212.521-.218.826-.6.305-.389.305-.905 0-.471-.264-.767a1.9 1.9 0 00-.692-.48 7 7 0 00-.928-.323l-1.163-.332q-1.108-.32-1.755-.91-.645-.59-.646-1.546 0-.795.43-1.385.434-.596 1.163-.923a3.9 3.9 0 011.639-.333q.914 0 1.625.328.712.323 1.126.886.42.564.443 1.279zm5.059 7.257a2.9 2.9 0 01-1.224-.254 2.1 2.1 0 01-.872-.743q-.323-.489-.323-1.182 0-.609.24-.988a1.7 1.7 0 01.642-.6q.401-.217.886-.323.49-.11.983-.175.646-.084 1.048-.125.407-.047.591-.152.19-.106.19-.37v-.037q0-.683-.375-1.061-.37-.38-1.121-.379-.78 0-1.224.342-.443.34-.623.729l-1.034-.369q.277-.647.739-1.007a2.8 2.8 0 011.015-.508q.555-.147 1.09-.147.341 0 .784.083.449.078.864.328.42.25.697.752.276.504.277 1.348V197h-1.09v-.96h-.055a2 2 0 01-.37.494 2.2 2.2 0 01-.687.448q-.43.184-1.048.184m.166-.978q.645 0 1.09-.254a1.73 1.73 0 00.904-1.501v-.997q-.069.083-.304.152a5 5 0 01-.536.116 25 25 0 01-1.043.138 4 4 0 00-.794.18 1.4 1.4 0 00-.591.365q-.222.24-.222.656 0 .567.42.858.425.287 1.076.287m10.617-6.279L53.535 197h-1.108l-2.623-7.091h1.182l1.958 5.651h.074l1.957-5.651zm4.157 7.239q-1.025 0-1.768-.453a3.03 3.03 0 01-1.14-1.274q-.398-.822-.398-1.911 0-1.09.398-1.921.401-.836 1.117-1.301.72-.471 1.68-.471.554 0 1.094.184.54.186.984.601.442.41.706 1.089t.263 1.671v.462h-5.466v-.942h4.358q0-.6-.24-1.071a1.8 1.8 0 00-.674-.743 1.9 1.9 0 00-1.025-.273q-.652 0-1.126.324a2.1 2.1 0 00-.725.831q-.255.512-.254 1.098v.628q0 .804.277 1.362a2 2 0 00.78.845q.5.286 1.159.286.43 0 .776-.12.35-.124.604-.369.254-.25.393-.619l1.052.296q-.166.535-.558.941a2.7 2.7 0 01-.97.628 3.6 3.6 0 01-1.297.222m7.27 0q-.886 0-1.564-.448-.679-.452-1.062-1.274-.383-.826-.383-1.953 0-1.117.383-1.939t1.067-1.269q.682-.448 1.578-.448.693 0 1.094.231.406.226.62.517.216.285.336.471h.092v-3.491h1.09V197h-1.053v-1.089h-.129q-.12.194-.342.489a2 2 0 01-.632.522q-.411.225-1.094.226m.149-.979q.655 0 1.108-.342.452-.345.687-.955.236-.615.236-1.417 0-.795-.231-1.39-.231-.6-.683-.933-.453-.337-1.117-.337-.693 0-1.154.356a2.13 2.13 0 00-.688.956q-.227.6-.227 1.348 0 .756.231 1.375.235.615.693.979.462.36 1.145.36m14.223-6.26a1.45 1.45 0 00-.674-1.089q-.59-.388-1.45-.388-.627 0-1.098.203-.466.203-.73.559a1.34 1.34 0 00-.258.807q0 .38.18.651.185.268.47.448.287.175.6.291.314.111.578.18l.96.259q.369.096.822.267a3.8 3.8 0 01.872.467q.42.29.693.747.272.458.272 1.122 0 .767-.401 1.385-.397.619-1.164.983-.762.366-1.851.365-1.015 0-1.759-.328a2.8 2.8 0 01-1.163-.914 2.6 2.6 0 01-.476-1.362h1.182q.045.536.36.887.318.346.803.517.49.166 1.053.166.656 0 1.177-.212.522-.218.827-.6.304-.389.304-.905 0-.471-.263-.767a1.9 1.9 0 00-.692-.48 7 7 0 00-.928-.323l-1.164-.332q-1.107-.32-1.754-.91-.646-.59-.646-1.546 0-.795.43-1.385.432-.596 1.163-.923a3.9 3.9 0 011.638-.333q.915 0 1.625.328.711.323 1.127.886.42.564.443 1.279zm7.44 4.192v-4.192h1.09V197h-1.09v-1.2h-.073q-.25.54-.776.918-.525.375-1.33.374-.665 0-1.181-.291a2.03 2.03 0 01-.813-.886q-.295-.595-.295-1.5v-4.506h1.09v4.432q0 .775.433 1.237.44.462 1.117.462.407 0 .827-.208.425-.207.71-.637.292-.43.292-1.094M92.63 197v-9.455h1.09v3.491h.092q.12-.186.332-.471.217-.291.62-.517.405-.231 1.098-.231.895 0 1.579.448.682.447 1.066 1.269.383.822.383 1.939 0 1.126-.383 1.953-.383.822-1.062 1.274-.678.447-1.565.448-.683 0-1.094-.226a2 2 0 01-.632-.522 7 7 0 01-.342-.489h-.13V197zm1.071-3.545q0 .802.236 1.417.235.61.688.955.451.342 1.108.342.682 0 1.14-.36.461-.364.692-.979a3.8 3.8 0 00.236-1.375q0-.748-.231-1.348a2.1 2.1 0 00-.688-.956q-.457-.356-1.15-.356-.664 0-1.117.337-.452.333-.683.933-.23.595-.23 1.39m6.856 6.204v-9.75h1.052v1.127h.13q.12-.186.332-.471a1.9 1.9 0 01.619-.517q.406-.231 1.098-.231.896 0 1.579.448.684.447 1.067 1.269t.383 1.939q0 1.126-.383 1.953-.384.822-1.062 1.274a2.8 2.8 0 01-1.565.448q-.683 0-1.094-.226a2 2 0 01-.633-.522 7 7 0 01-.341-.489h-.093v3.748zm1.071-6.204q0 .802.235 1.417.235.61.688.955.453.342 1.108.342.684 0 1.14-.36.462-.364.693-.979.235-.619.235-1.375 0-.748-.231-1.348a2.1 2.1 0 00-.687-.956q-.457-.356-1.15-.356-.665 0-1.117.337-.453.333-.683.933-.231.595-.231 1.39m9.731 3.693q-.96 0-1.685-.457a3.1 3.1 0 01-1.126-1.279q-.402-.822-.402-1.921 0-1.107.402-1.934a3.1 3.1 0 011.126-1.283q.725-.457 1.685-.457t1.681.457q.724.456 1.126 1.283.406.827.406 1.934 0 1.1-.406 1.921a3.07 3.07 0 01-1.126 1.279q-.72.456-1.681.457m0-.979q.73 0 1.201-.374.47-.374.697-.983.226-.61.226-1.321 0-.71-.226-1.324a2.23 2.23 0 00-.697-.993q-.47-.379-1.201-.379-.729 0-1.2.379a2.23 2.23 0 00-.697.993 3.8 3.8 0 00-.226 1.324q0 .712.226 1.321.226.61.697.983.471.374 1.2.374m4.876 3.49v-9.75h1.053v1.127h.129q.12-.186.333-.471.217-.291.618-.517.406-.231 1.099-.231.895 0 1.579.448.683.447 1.066 1.269t.383 1.939q0 1.126-.383 1.953-.382.822-1.062 1.274-.678.447-1.565.448-.683 0-1.094-.226a2 2 0 01-.632-.522 7 7 0 01-.342-.489h-.092v3.748zm1.071-6.204q0 .802.236 1.417.235.61.688.955.452.342 1.108.342.682 0 1.14-.36.462-.364.692-.979.236-.619.236-1.375 0-.748-.231-1.348a2.1 2.1 0 00-.688-.956q-.457-.356-1.149-.356-.665 0-1.117.337-.453.333-.684.933-.231.595-.231 1.39m11.32.646v-4.192h1.09V197h-1.09v-1.2h-.074q-.249.54-.775.918-.526.375-1.33.374a2.37 2.37 0 01-1.182-.291 2.03 2.03 0 01-.812-.886q-.296-.595-.296-1.5v-4.506h1.09v4.432q0 .775.434 1.237.439.462 1.117.462.406 0 .826-.208.425-.207.711-.637.291-.43.291-1.094m4.175-6.556V197h-1.09v-9.455zm4.082 9.621q-.674 0-1.224-.254a2.1 2.1 0 01-.872-.743q-.323-.489-.323-1.182 0-.609.24-.988.24-.383.641-.6.402-.217.887-.323.49-.11.983-.175.646-.084 1.048-.125.406-.047.591-.152.189-.106.189-.37v-.037q0-.683-.374-1.061-.369-.38-1.122-.379-.78 0-1.223.342-.443.34-.623.729l-1.034-.369q.277-.647.738-1.007.467-.364 1.016-.508a4.2 4.2 0 011.089-.147q.342 0 .785.083.448.078.864.328.42.25.697.752.276.504.277 1.348V197h-1.09v-.96h-.055a1.9 1.9 0 01-.37.494 2.2 2.2 0 01-.687.448q-.43.184-1.048.184m.166-.978q.647 0 1.089-.254a1.72 1.72 0 00.905-1.501v-.997q-.07.083-.305.152a5 5 0 01-.535.116 26 26 0 01-1.043.138 4 4 0 00-.794.18q-.365.12-.591.365-.222.24-.222.656 0 .567.42.858.425.287 1.076.287m8.156-6.279v.923h-3.675v-.923zm-2.604-1.699h1.09v6.759q0 .461.134.692a.7.7 0 00.351.305q.216.074.457.074.18 0 .295-.019l.185-.037.221.979a2 2 0 01-.309.083q-.198.046-.503.046-.462 0-.905-.198a1.8 1.8 0 01-.729-.605q-.287-.406-.287-1.025zm4.243 8.79v-7.091h1.089V197zm.554-8.273a.77.77 0 01-.55-.217.7.7 0 01-.226-.521q0-.305.226-.522a.77.77 0 01.55-.217q.318 0 .545.217.23.217.23.522a.7.7 0 01-.23.521.76.76 0 01-.545.217m5.412 8.421q-.96 0-1.686-.457a3.1 3.1 0 01-1.126-1.279q-.402-.822-.402-1.921 0-1.107.402-1.934a3.1 3.1 0 011.126-1.283q.725-.457 1.686-.457.96 0 1.68.457.725.456 1.126 1.283.407.827.407 1.934 0 1.1-.407 1.921a3.06 3.06 0 01-1.126 1.279q-.72.456-1.68.457m0-.979q.729 0 1.2-.374.47-.374.697-.983.226-.61.226-1.321 0-.71-.226-1.324a2.23 2.23 0 00-.697-.993q-.471-.379-1.2-.379-.73 0-1.201.379a2.23 2.23 0 00-.697.993 3.8 3.8 0 00-.226 1.324q0 .712.226 1.321.226.61.697.983.47.374 1.201.374m5.965-3.435V197h-1.089v-7.091h1.052v1.108h.093q.249-.54.757-.868.507-.332 1.311-.332.72 0 1.26.295.54.291.84.887.3.59.3 1.495V197h-1.089v-4.432q0-.835-.434-1.302-.433-.471-1.191-.471a1.9 1.9 0 00-.933.227q-.406.226-.641.66-.236.434-.236 1.052m11.538-1.237-.979.277a1.8 1.8 0 00-.272-.475 1.3 1.3 0 00-.48-.388q-.304-.152-.78-.152-.651 0-1.085.3-.43.295-.43.752 0 .406.296.642.295.236.923.392l1.053.259q.95.23 1.417.706.466.471.466 1.214 0 .61-.351 1.09-.347.48-.969.757-.624.276-1.45.277-1.085 0-1.796-.471t-.9-1.376l1.034-.258q.148.572.559.858.416.287 1.085.287.762 0 1.209-.324.453-.327.453-.784a.82.82 0 00-.259-.619q-.258-.254-.794-.379l-1.182-.277q-.974-.23-1.431-.715-.452-.489-.452-1.224 0-.6.337-1.061a2.3 2.3 0 01.928-.725q.59-.263 1.339-.263 1.052 0 1.652.461.605.462.859 1.219"/><path fill="#686E67" d="M177.172 193q0-1.476.383-2.715a8.5 8.5 0 011.101-2.285h.813a5 5 0 00-.528.953 9 9 0 00-.425 1.238 12 12 0 00-.289 1.391q-.102.719-.102 1.418 0 .93.18 1.887.179.957.484 1.777t.68 1.336h-.813a8.5 8.5 0 01-1.101-2.281q-.384-1.243-.383-2.719m3.454 2.359v-.797l3.516-5.562h.578v1.234h-.391l-2.656 4.203v.063h4.734v.859zm3.766 1.641v-8h.921v8zm5.528-4q0 1.476-.387 2.719a8.4 8.4 0 01-1.097 2.281h-.813q.282-.387.523-.953.247-.563.43-1.235.184-.675.285-1.394a9.7 9.7 0 00-.074-3.305q-.18-.957-.484-1.777-.305-.82-.68-1.336h.813a8.4 8.4 0 011.097 2.285q.387 1.239.387 2.715"/><path fill="#717A6D" fill-rule="evenodd" d="M199.345 190.945a.36.36 0 01.509 0l2.146 2.146 2.145-2.146a.36.36 0 11.509.509l-2.4 2.4a.357.357 0 01-.509 0l-2.4-2.4a.36.36 0 010-.509" clip-rule="evenodd"/><path fill="#F5F7F5" d="M254.5 185a2.5 2.5 0 012.5-2.5h26a2.5 2.5 0 012.5 2.5v14a2.5 2.5 0 01-2.5 2.5h-26a2.5 2.5 0 01-2.5-2.5z"/><path stroke="#CCCFCC" d="M254.5 185a2.5 2.5 0 012.5-2.5h26a2.5 2.5 0 012.5 2.5v14a2.5 2.5 0 01-2.5 2.5h-26a2.5 2.5 0 01-2.5-2.5z"/><path fill="#717A6D" fill-rule="evenodd" d="M270.271 185.94a.53.53 0 0 0-.543 0l-5.866 3.467a.533.533 0 0 0 0 .918l5.866 3.467a.53.53 0 0 0 .543 0l5.867-3.467a.533.533 0 0 0 0-.918zm-.271 6.773-4.819-2.847 4.819-2.847 4.818 2.847zm-5.596.161a.532.532 0 1 0-.542.918l5.866 3.467a.53.53 0 0 0 .543 0l5.867-3.467a.534.534 0 0 0-.543-.918L270 196.18zM308.996 188.763a.536.536 0 1 0-.759-.759L305 191.241l-3.237-3.237a.536.536 0 1 0-.759.759l3.237 3.237-3.237 3.237a.536.536 0 1 0 .759.759l3.237-3.237 3.237 3.237a.536.536 0 1 0 .759-.759L305.759 192z" clip-rule="evenodd"/><path fill="#B0B3AF" fill-rule="evenodd" d="M18.703 217.811c.27.176.345.538.169.807l-3.967 6.067a.585.585 0 01-.88.113l-2.568-2.334a.583.583 0 11.785-.863l2.06 1.873 3.593-5.494a.583.583 0 01.808-.169" clip-rule="evenodd"/><path fill="#1D211C" d="M34.969 225.333v-8h.968v3.563h4.266v-3.563h.969v8h-.969v-3.578h-4.266v3.578zm10.455.125q-.813 0-1.426-.387a2.63 2.63 0 01-.953-1.082q-.34-.695-.34-1.625 0-.937.34-1.636.344-.7.953-1.086.613-.387 1.426-.387t1.422.387q.613.386.953 1.086.344.699.344 1.636 0 .93-.344 1.625a2.6 2.6 0 01-.953 1.082q-.609.387-1.422.387m0-.828q.617 0 1.016-.317.398-.316.59-.832.19-.515.19-1.117a3.2 3.2 0 00-.19-1.121 1.9 1.9 0 00-.59-.84q-.4-.32-1.016-.32-.617 0-1.016.32a1.9 1.9 0 00-.59.84 3.2 3.2 0 00-.191 1.121q0 .602.191 1.117.192.516.59.832.399.317 1.016.317m8.376-3.953-.828.234a1.5 1.5 0 00-.23-.402 1.1 1.1 0 00-.407-.328q-.258-.129-.66-.129-.55 0-.918.254-.363.25-.363.636 0 .345.25.543.25.2.78.332l.891.219q.805.196 1.2.598.394.398.394 1.027 0 .516-.297.922a2 2 0 01-.82.641q-.527.234-1.227.234-.917 0-1.52-.398-.6-.399-.76-1.164l.874-.219q.126.484.473.726.351.243.918.243.644 0 1.023-.274.383-.277.383-.664a.7.7 0 00-.219-.523q-.218-.215-.672-.321l-1-.234q-.824-.195-1.21-.606-.383-.414-.383-1.035 0-.508.285-.898.289-.391.785-.613.499-.223 1.133-.223.891 0 1.398.391.512.39.727 1.031m1.497 6.906v-8.25h.89v.953h.11q.102-.156.281-.398.183-.246.524-.438.343-.195.93-.195.758 0 1.335.379.578.378.903 1.074.324.695.324 1.641 0 .953-.325 1.652a2.55 2.55 0 01-.898 1.078 2.35 2.35 0 01-1.324.379q-.579 0-.926-.191a1.7 1.7 0 01-.535-.442 6 6 0 01-.29-.414h-.077v3.172zm.906-5.25q0 .68.2 1.199.198.516.581.809.383.29.938.289.578 0 .965-.305.39-.309.586-.828.2-.523.199-1.164a3.2 3.2 0 00-.195-1.141 1.76 1.76 0 00-.582-.808q-.388-.301-.973-.301-.562 0-.945.285a1.7 1.7 0 00-.579.789q-.195.504-.195 1.176m5.797 3v-6h.922v6zm.469-7a.65.65 0 01-.465-.184.59.59 0 01-.191-.441q0-.258.19-.441a.65.65 0 01.466-.184.64.64 0 01.46.184q.196.183.196.441a.58.58 0 01-.195.441.64.64 0 01-.461.184m4.75 1v.781H64.11v-.781zm-2.202-1.437h.922v5.718q0 .391.113.586a.6.6 0 00.297.258q.183.063.386.063.153 0 .25-.016l.157-.031.187.828q-.094.035-.262.07a2 2 0 01-.425.039q-.39 0-.766-.168a1.5 1.5 0 01-.617-.512q-.243-.344-.242-.867zm5.355 7.578q-.57 0-1.035-.215a1.8 1.8 0 01-.738-.629q-.274-.414-.274-1 0-.516.203-.836a1.44 1.44 0 01.543-.508q.34-.183.75-.273.415-.094.832-.149.547-.07.887-.105.345-.039.5-.129.16-.09.16-.313v-.031q0-.578-.316-.898-.313-.321-.95-.321-.66 0-1.035.289-.374.29-.527.618l-.875-.313q.235-.546.625-.851.395-.309.86-.43.469-.125.921-.125.29 0 .664.07.38.066.73.278.356.21.59.636.235.426.235 1.141v3.953H72.2v-.812h-.047q-.093.195-.312.417a1.8 1.8 0 01-.582.379q-.363.157-.887.157m.14-.828q.548 0 .923-.215a1.47 1.47 0 00.765-1.27v-.844q-.059.07-.258.129-.194.055-.453.098a22 22 0 01-.883.117q-.36.047-.671.152a1.16 1.16 0 00-.5.309q-.188.202-.188.555 0 .48.356.726.36.243.91.243m5.215-7.313v8h-.922v-8zm1.688 8v-6h.922v6zm.469-7a.65.65 0 01-.465-.184.59.59 0 01-.191-.441q0-.258.19-.441a.65.65 0 01.466-.184.64.64 0 01.46.184q.195.183.196.441a.58.58 0 01-.195.441.64.64 0 01-.461.184m1.97 7v-.703l3.406-4.375v-.063h-3.297v-.859h4.484v.734l-3.312 4.344v.063h3.422v.859zm8.466.125q-.867 0-1.496-.383a2.57 2.57 0 01-.965-1.078q-.336-.695-.336-1.617t.336-1.625q.34-.707.946-1.102.609-.398 1.422-.398.468 0 .925.156.457.157.832.508.376.348.598.922.223.574.223 1.414v.391H86.18v-.797h3.687a2 2 0 00-.203-.907 1.54 1.54 0 00-.57-.629 1.6 1.6 0 00-.867-.23q-.551 0-.954.273-.398.27-.613.704a2.1 2.1 0 00-.215.929v.532q0 .68.235 1.152.238.469.66.715.422.242.98.242.364 0 .657-.102a1.4 1.4 0 00.511-.312 1.4 1.4 0 00.332-.524l.89.25a2 2 0 01-.472.797 2.3 2.3 0 01-.82.532 3 3 0 01-1.098.187m6.153 0q-.75 0-1.325-.379a2.55 2.55 0 01-.898-1.078q-.324-.7-.324-1.652 0-.946.324-1.641t.902-1.074 1.336-.379q.586 0 .926.195a1.6 1.6 0 01.523.438q.184.242.286.398h.078v-2.953h.922v8h-.891v-.922h-.11q-.1.165-.288.414a1.7 1.7 0 01-.536.442q-.347.19-.925.191m.125-.828q.555 0 .937-.289.383-.293.582-.809.2-.52.2-1.199 0-.672-.196-1.176a1.7 1.7 0 00-.578-.789q-.382-.285-.945-.285-.586 0-.977.301a1.8 1.8 0 00-.582.808 3.2 3.2 0 00-.191 1.141q0 .64.195 1.164.2.519.586.828.39.305.969.305m12.035-5.297a1.23 1.23 0 00-.57-.922q-.501-.328-1.227-.328-.531 0-.93.172a1.5 1.5 0 00-.617.473 1.13 1.13 0 00-.219.683q0 .32.153.551.156.226.398.379.243.148.508.246.266.093.488.152l.813.219q.312.082.695.227.387.144.738.394a2 2 0 01.586.633q.231.387.231.949 0 .648-.34 1.172-.336.523-.985.832-.643.309-1.566.309-.86 0-1.488-.278a2.37 2.37 0 01-.985-.773 2.2 2.2 0 01-.402-1.152h1q.04.453.305.75.269.293.679.437.414.141.891.141.555 0 .996-.18.442-.184.699-.508.258-.328.258-.765 0-.399-.222-.649a1.6 1.6 0 00-.586-.406 6 6 0 00-.786-.274l-.984-.281q-.938-.27-1.484-.769-.547-.5-.547-1.309 0-.672.363-1.172.368-.504.984-.781a3.3 3.3 0 011.387-.281q.774 0 1.375.277.602.273.953.75.355.477.375 1.082zm2.514 6v-6h.891v.938h.078q.188-.482.606-.747.417-.269 1.004-.269.593 0 .988.269.398.265.621.747h.062q.231-.465.692-.739.461-.277 1.105-.277.806 0 1.317.504.511.5.511 1.558v4.016h-.921v-4.016q0-.663-.364-.949a1.34 1.34 0 00-.855-.285q-.633 0-.981.383-.347.379-.347.961v3.906h-.938v-4.109q0-.512-.332-.825-.331-.316-.855-.316-.36 0-.672.191a1.44 1.44 0 00-.5.532 1.57 1.57 0 00-.188.777v3.75zm11.999.125q-.813 0-1.426-.387a2.6 2.6 0 01-.953-1.082q-.34-.695-.34-1.625 0-.937.34-1.636.343-.7.953-1.086.613-.387 1.426-.387t1.421.387q.614.386.954 1.086.343.699.343 1.636 0 .93-.343 1.625a2.6 2.6 0 01-.954 1.082q-.61.387-1.421.387m0-.828q.617 0 1.015-.317a1.86 1.86 0 00.59-.832q.191-.515.191-1.117a3.2 3.2 0 00-.191-1.121 1.9 1.9 0 00-.59-.84q-.398-.32-1.015-.32-.618 0-1.016.32a1.9 1.9 0 00-.59.84 3.2 3.2 0 00-.191 1.121q0 .602.191 1.117.191.516.59.832.398.317 1.016.317m4.985-1.484-.016-1.141h.188l2.625-2.672h1.14l-2.797 2.828h-.078zm-.86 2.187v-8h.922v8zm3.813 0-2.344-2.969.656-.64 2.86 3.609zm4.439.125q-.867 0-1.496-.383a2.57 2.57 0 01-.964-1.078q-.336-.695-.336-1.617t.336-1.625q.339-.707.945-1.102.609-.398 1.422-.398.469 0 .925.156.458.157.833.508.375.348.597.922.223.574.223 1.414v.391h-4.625v-.797h3.687q0-.508-.203-.907a1.54 1.54 0 00-.57-.629 1.6 1.6 0 00-.867-.23q-.55 0-.953.273-.398.27-.614.704a2.1 2.1 0 00-.215.929v.532q0 .68.235 1.152.238.469.66.715.422.242.98.242.364 0 .657-.102.297-.105.511-.312.215-.211.332-.524l.891.25a2 2 0 01-.473.797 2.3 2.3 0 01-.82.532 3 3 0 01-1.098.187m3.887-.125v-6h.891v.906h.062q.165-.446.594-.722.429-.278.969-.278.1 0 .254.004.152.005.23.012v.937a3.5 3.5 0 00-.562-.062q-.437 0-.782.183-.34.18-.539.5a1.35 1.35 0 00-.195.723v3.797zm8.343-4.656-.828.234a1.5 1.5 0 00-.231-.402 1.1 1.1 0 00-.406-.328q-.258-.129-.66-.129-.55 0-.918.254-.363.25-.363.636 0 .345.25.543.25.2.781.332l.891.219q.804.196 1.199.598.394.398.394 1.027 0 .516-.297.922a1.97 1.97 0 01-.82.641q-.527.234-1.226.234-.918 0-1.52-.398-.602-.399-.762-1.164l.875-.219q.126.484.473.726.351.243.918.243.645 0 1.023-.274.384-.277.383-.664a.7.7 0 00-.219-.523q-.218-.215-.671-.321l-1-.234q-.825-.195-1.211-.606-.383-.414-.383-1.035 0-.508.285-.898.289-.391.785-.613a2.75 2.75 0 011.133-.223q.891 0 1.398.391.513.39.727 1.031"/><path fill="#717A6D" fill-rule="evenodd" d="M308.996 218.096a.536.536 0 10-.759-.759L305 220.574l-3.237-3.237a.536.536 0 10-.759.759l3.237 3.237-3.237 3.237a.536.536 0 10.759.759l3.237-3.237 3.237 3.237a.536.536 0 10.759-.759l-3.237-3.237z" clip-rule="evenodd"/><path fill="#B0B3AF" fill-rule="evenodd" d="M18.703 244.478c.27.176.345.538.169.807l-3.967 6.067a.58.58 0 01-.88.112l-2.568-2.333a.583.583 0 11.785-.863l2.06 1.873 3.593-5.494a.583.583 0 01.808-.169" clip-rule="evenodd"/><path fill="#1D211C" d="M41.406 246.5h-.968a2 2 0 00-.817-1.266 2.2 2.2 0 00-.668-.328 2.7 2.7 0 00-.766-.109q-.726 0-1.316.367-.585.368-.934 1.082-.343.715-.343 1.754t.343 1.754q.349.714.934 1.082.59.367 1.316.367.399 0 .766-.109.368-.11.668-.324a2.06 2.06 0 00.816-1.27h.97a3.2 3.2 0 01-.4 1.098 3 3 0 01-.718.824 3.2 3.2 0 01-.965.512 3.6 3.6 0 01-1.136.175q-1.025 0-1.82-.5-.798-.5-1.255-1.422T34.656 248q0-1.266.457-2.188.458-.921 1.254-1.421.797-.5 1.82-.5.606 0 1.137.175.536.176.965.516.43.336.719.82a3.2 3.2 0 01.398 1.098m8.316 1.5q0 1.266-.457 2.187-.458.922-1.254 1.422-.797.5-1.82.5-1.025 0-1.82-.5-.798-.5-1.255-1.422T42.66 248q0-1.266.457-2.188.458-.921 1.254-1.421.797-.5 1.82-.5 1.025 0 1.82.5.798.5 1.255 1.421.457.922.457 2.188m-.938 0q0-1.039-.347-1.754-.344-.714-.934-1.082a2.4 2.4 0 00-1.313-.367q-.726 0-1.316.367-.585.368-.934 1.082-.343.715-.343 1.754t.343 1.754q.348.714.934 1.082.59.367 1.316.367t1.313-.367q.59-.368.934-1.082.347-.715.347-1.754m2.519-4 2.375 6.734h.094L56.147 244h1.015l-2.937 8h-1l-2.938-8zm8.074 0v8h-.969v-8zm4.411 8H61.32v-8h2.578q1.164 0 1.993.48.828.477 1.27 1.372.44.89.44 2.132 0 1.25-.445 2.153a3.17 3.17 0 01-1.297 1.383q-.85.48-2.07.48m-1.5-.859h1.438q.992 0 1.644-.383a2.36 2.36 0 00.973-1.09q.32-.707.32-1.684 0-.968-.316-1.668a2.34 2.34 0 00-.946-1.078q-.629-.379-1.566-.379h-1.547zm10.25-3.571v.86h-3.5v-.86zm5.419-3.57v8h-.969v-6.984h-.047l-1.953 1.296v-.984l2-1.328zm5.982-.109q.492.004.984.187.492.184.898.609.407.423.653 1.153t.246 1.832q0 1.066-.203 1.894-.2.825-.578 1.391-.375.567-.915.859-.535.293-1.21.293a2.6 2.6 0 01-1.2-.265 2.36 2.36 0 01-.86-.746 2.6 2.6 0 01-.425-1.114h.953q.13.552.512.911.387.355 1.02.355.926 0 1.46-.809.54-.808.54-2.285h-.063a2.5 2.5 0 01-.52.567 2.3 2.3 0 01-1.449.496q-.687 0-1.261-.34a2.6 2.6 0 01-.915-.942 2.75 2.75 0 01-.34-1.375q0-.734.329-1.343.332-.614.93-.977.6-.363 1.413-.351m0 .859q-.493 0-.887.246-.39.243-.621.656a1.85 1.85 0 00-.227.91q0 .5.219.911.222.406.605.648.387.238.88.238a1.67 1.67 0 001.25-.547q.24-.257.378-.582.137-.327.137-.683 0-.47-.227-.879a1.8 1.8 0 00-.617-.664 1.6 1.6 0 00-.89-.254m7.684 7.25v-8h2.703q.941 0 1.54.34.6.336.89.91t.289 1.281q0 .708-.29 1.285-.284.579-.882.922-.597.34-1.531.34h-1.938v-.859h1.907q.644 0 1.035-.223.39-.222.566-.601.18-.383.18-.864 0-.48-.18-.859a1.28 1.28 0 00-.57-.594q-.394-.219-1.047-.219h-1.703V252zm9.231.125q-.813 0-1.426-.387a2.63 2.63 0 01-.953-1.082q-.34-.695-.34-1.625 0-.937.34-1.636.344-.7.953-1.086.613-.387 1.426-.387t1.421.387q.614.386.954 1.086.343.699.343 1.636 0 .93-.343 1.625a2.6 2.6 0 01-.954 1.082q-.61.387-1.421.387m0-.828q.617 0 1.015-.317a1.86 1.86 0 00.59-.832q.192-.515.191-1.117a3.2 3.2 0 00-.191-1.121 1.9 1.9 0 00-.59-.84q-.398-.32-1.015-.32t-1.016.32a1.9 1.9 0 00-.59.84 3.2 3.2 0 00-.191 1.121q0 .602.191 1.117.192.517.59.832.398.317 1.016.317m8.375-3.953-.828.234a1.6 1.6 0 00-.23-.402 1.1 1.1 0 00-.406-.328q-.258-.129-.661-.129-.55 0-.917.254-.364.25-.364.636 0 .345.25.543.25.2.781.332l.891.219q.805.196 1.199.598.395.398.395 1.027 0 .516-.297.922a2 2 0 01-.82.641q-.528.234-1.227.234-.918 0-1.519-.398-.602-.399-.762-1.165l.875-.218q.125.484.473.726.351.243.917.242.645 0 1.024-.273.383-.277.383-.664a.7.7 0 00-.219-.523q-.219-.215-.672-.321l-1-.234q-.824-.195-1.211-.606-.383-.414-.383-1.035 0-.507.286-.898.288-.391.785-.613a2.75 2.75 0 011.132-.223q.89 0 1.399.39.511.391.726 1.032m1.498 4.656v-6h.921v6zm.468-7a.66.66 0 01-.465-.184.6.6 0 01-.191-.441.6.6 0 01.191-.441.66.66 0 01.465-.184q.27 0 .461.184.196.183.196.441a.58.58 0 01-.196.441.64.64 0 01-.461.184m4.751 1v.781h-3.109V246zm-2.203-1.438h.922v5.719q0 .391.113.586a.58.58 0 00.297.258q.184.063.387.062.152 0 .25-.015l.156-.031.188.828q-.094.035-.262.07a2 2 0 01-.426.039q-.39 0-.765-.168a1.5 1.5 0 01-.618-.512q-.242-.344-.242-.867zm3.59 7.438v-6h.922v6zm.469-7a.65.65 0 01-.465-.184.59.59 0 01-.191-.441q0-.258.191-.441a.65.65 0 01.465-.184q.269 0 .461.184.195.183.195.441a.58.58 0 01-.195.441.64.64 0 01-.461.184m7.048 1-2.219 6h-.938l-2.218-6h1l1.656 4.781h.062L123.85 246zm3.517 6.125q-.867 0-1.496-.383a2.57 2.57 0 01-.965-1.078q-.336-.695-.336-1.617t.336-1.625q.34-.707.946-1.102.61-.398 1.421-.398.47 0 .926.156.457.157.832.508.375.348.598.922t.223 1.414v.39h-4.625v-.796h3.687q0-.508-.203-.907a1.54 1.54 0 00-.57-.629 1.6 1.6 0 00-.868-.23q-.55 0-.953.273a1.8 1.8 0 00-.613.704 2.1 2.1 0 00-.215.929v.532q0 .68.235 1.152.237.468.66.715.422.242.98.242.363 0 .656-.102.297-.105.512-.312.215-.211.332-.524l.891.25a2 2 0 01-.473.797 2.3 2.3 0 01-.82.531 3 3 0 01-1.098.188m7.106-.125v-8h2.703q.94 0 1.539.34.602.336.89.91.29.575.29 1.281 0 .708-.29 1.285-.285.579-.882.922-.598.34-1.532.34h-1.937v-.859h1.906q.645 0 1.035-.223.391-.222.567-.601.18-.383.179-.864 0-.48-.179-.859a1.28 1.28 0 00-.571-.594q-.395-.219-1.046-.219h-1.704V252zm8.623.141q-.572 0-1.035-.215a1.8 1.8 0 01-.739-.629q-.273-.415-.273-1 0-.516.203-.836.202-.324.543-.508.339-.183.75-.273.414-.094.832-.149.547-.07.887-.105.344-.039.5-.129.16-.09.16-.313v-.031q0-.578-.317-.898-.312-.321-.949-.321-.66 0-1.035.289-.375.29-.527.618l-.875-.313q.234-.546.625-.851a2.3 2.3 0 01.859-.43q.47-.125.922-.125.29 0 .664.07.38.066.73.278.356.21.59.636.235.426.235 1.141V252h-.922v-.813h-.047q-.094.196-.313.418a1.8 1.8 0 01-.582.379q-.363.157-.886.157m.14-.829q.547 0 .922-.214a1.47 1.47 0 00.766-1.27v-.844q-.058.07-.258.129-.195.055-.453.098a22 22 0 01-.883.117q-.36.047-.672.152a1.16 1.16 0 00-.5.309q-.187.202-.187.555 0 .48.355.726.36.243.91.242m6.902-5.312v.781h-3.11V246zm-2.203-1.438h.921v5.719q0 .391.114.586a.58.58 0 00.297.258q.183.063.386.062.153 0 .25-.015l.157-.031.187.828q-.094.035-.262.07a2 2 0 01-.425.039q-.391 0-.766-.168a1.5 1.5 0 01-.617-.512q-.243-.344-.242-.867zm3.589 7.438v-6h.922v6zm.469-7a.65.65 0 01-.465-.184.6.6 0 01-.191-.441.6.6 0 01.191-.441.65.65 0 01.465-.184.64.64 0 01.461.184q.195.183.195.441a.58.58 0 01-.195.441.64.64 0 01-.461.184m4.657 7.125q-.867 0-1.496-.383a2.6 2.6 0 01-.965-1.078q-.335-.695-.335-1.617t.335-1.625q.34-.707.946-1.102.609-.398 1.422-.398.469 0 .925.156.457.157.832.508.375.348.598.922t.223 1.414v.39h-4.625v-.796h3.687q0-.508-.203-.907a1.54 1.54 0 00-.57-.629 1.6 1.6 0 00-.867-.23q-.552 0-.953.273-.4.27-.614.704a2.1 2.1 0 00-.215.929v.532q0 .68.235 1.152.238.468.66.715.422.242.98.242.364 0 .657-.102.297-.105.511-.312.216-.211.332-.524l.891.25a2 2 0 01-.473.797 2.3 2.3 0 01-.82.531 3 3 0 01-1.098.188m4.809-3.734V252h-.922v-6h.891v.937h.078q.21-.456.64-.734.43-.28 1.11-.281.61 0 1.066.25.457.246.711.75.254.5.254 1.266V252h-.922v-3.75q0-.707-.367-1.102-.368-.398-1.008-.398-.441 0-.789.191-.344.192-.543.559t-.199.891m8.122-2.391v.781h-3.109V246zm-2.203-1.438h.922v5.719q0 .391.113.586a.58.58 0 00.297.258q.183.063.387.062.152 0 .25-.015l.156-.031.187.828a2 2 0 01-.261.07 2 2 0 01-.426.039q-.39 0-.766-.168a1.5 1.5 0 01-.617-.512q-.242-.344-.242-.867zm7.732 2.782-.828.234a1.6 1.6 0 00-.23-.402 1.1 1.1 0 00-.406-.328q-.258-.129-.661-.129-.55 0-.918.254-.363.25-.363.636 0 .345.25.543.25.2.781.332l.891.219q.804.196 1.199.598.395.398.395 1.027 0 .516-.297.922a2 2 0 01-.82.641q-.528.234-1.227.234-.918 0-1.52-.398-.602-.399-.761-1.165l.875-.218q.125.484.472.726.353.243.918.242.645 0 1.024-.273.383-.277.383-.664a.7.7 0 00-.219-.523q-.219-.215-.672-.321l-1-.234q-.825-.195-1.211-.606-.383-.414-.383-1.035 0-.507.285-.898.29-.391.786-.613.5-.223 1.132-.223.89 0 1.399.39.511.391.726 1.032"/><g fill="#717A6D" fill-rule="evenodd" clip-path="url(#widget-__f)" clip-rule="evenodd"><path d="M187 243.44a4.56 4.56 0 100 9.12 4.56 4.56 0 000-9.12m-5.28 4.56a5.28 5.28 0 1110.56 0 5.28 5.28 0 01-10.56 0"/><path d="M191.8 248.32h-9.6v-.64h9.6z"/><path d="M186.68 252.8v-9.6h.64v9.6zm2.62-4.8c0-1.738-.625-3.457-1.851-4.594l.381-.411c1.362 1.263 2.03 3.144 2.03 5.005 0 1.862-.668 3.743-2.03 5.006l-.381-.411c1.226-1.137 1.851-2.856 1.851-4.595m-5.1 0c0-1.859.646-3.738 1.966-5.002l.387.405c-1.186 1.136-1.793 2.857-1.793 4.597s.607 3.462 1.793 4.598l-.387.405c-1.32-1.264-1.966-3.143-1.966-5.003"/><path d="M187 245.166c1.735 0 3.5.321 4.696.989a.28.28 0 11-.273.489c-1.08-.603-2.737-.918-4.423-.918-1.687 0-3.344.315-4.424.918a.28.28 0 11-.273-.489c1.196-.668 2.961-.989 4.697-.989m0 5.514c1.735 0 3.5-.321 4.696-.99a.28.28 0 10-.273-.488c-1.08.603-2.737.918-4.423.918-1.687 0-3.344-.315-4.424-.918a.28.28 0 10-.273.488c1.196.669 2.961.99 4.697.99"/></g><path fill="#717A6D" fill-rule="evenodd" d="M308.996 244.763a.536.536 0 10-.759-.759L305 247.241l-3.237-3.237a.536.536 0 10-.759.759l3.237 3.237-3.237 3.237a.536.536 0 10.759.759l3.237-3.237 3.237 3.237a.536.536 0 10.759-.759L305.759 248z" clip-rule="evenodd"/><path fill="#B0B3AF" fill-rule="evenodd" d="M18.703 271.144c.27.176.345.538.169.807l-3.967 6.067a.585.585 0 01-.88.113l-2.568-2.334a.583.583 0 11.785-.863l2.06 1.873 3.593-5.494a.583.583 0 01.808-.169" clip-rule="evenodd"/><path fill="#1D211C" d="M34.969 270.666h1.156l2.719 6.641h.093l2.72-6.641h1.156v8h-.907v-6.078h-.078l-2.5 6.078h-.875l-2.5-6.078h-.078v6.078h-.906zm12.098 8.125q-.812 0-1.425-.387a2.63 2.63 0 01-.954-1.082q-.34-.695-.34-1.625 0-.937.34-1.636.344-.7.954-1.086.613-.387 1.425-.387t1.422.387q.614.386.953 1.086.345.699.344 1.636 0 .93-.344 1.625a2.6 2.6 0 01-.953 1.082q-.609.387-1.422.387m0-.828q.617 0 1.016-.317a1.86 1.86 0 00.59-.832q.19-.515.191-1.117a3.2 3.2 0 00-.191-1.121 1.9 1.9 0 00-.59-.84q-.398-.32-1.016-.32-.617 0-1.015.32a1.9 1.9 0 00-.59.84 3.2 3.2 0 00-.192 1.121q0 .602.192 1.117.19.517.59.832.398.317 1.015.317m5.048-7.297v8h-.922v-8zm4.204 8.125q-.867 0-1.496-.383a2.57 2.57 0 01-.965-1.078q-.335-.695-.335-1.617t.335-1.625q.34-.707.946-1.102.609-.398 1.422-.398.468 0 .925.156.457.157.832.508.376.348.598.922t.223 1.414v.391h-4.625v-.797h3.687a2 2 0 00-.203-.907 1.54 1.54 0 00-.57-.629 1.6 1.6 0 00-.867-.23q-.551 0-.953.273-.399.27-.614.704a2.1 2.1 0 00-.215.929v.532q0 .68.235 1.152.239.468.66.715.422.242.98.242.363 0 .657-.102a1.4 1.4 0 00.511-.312 1.4 1.4 0 00.332-.524l.891.25a2 2 0 01-.473.797 2.3 2.3 0 01-.82.532 3 3 0 01-1.098.187m6.325 0q-.844 0-1.454-.398a2.6 2.6 0 01-.937-1.098q-.328-.7-.328-1.598 0-.914.336-1.613.339-.704.945-1.098.609-.398 1.422-.398.633 0 1.14.234.509.235.833.657.324.421.402.984h-.922a1.43 1.43 0 00-.469-.727q-.36-.32-.968-.32-.54 0-.946.281a1.84 1.84 0 00-.629.785q-.222.504-.222 1.184 0 .695.218 1.211.223.516.625.801.406.285.954.285.36 0 .652-.125t.496-.359.29-.563h.92a2.14 2.14 0 01-.386.957 2.17 2.17 0 01-.808.672q-.501.246-1.164.246m7.488-2.578v-3.547h.922v6h-.922v-1.016h-.063a1.97 1.97 0 01-.656.778q-.445.316-1.125.316-.562 0-1-.246a1.73 1.73 0 01-.687-.75q-.25-.504-.25-1.269v-3.813h.921v3.75q0 .656.368 1.047.37.39.945.391.344 0 .7-.176.36-.176.6-.539.247-.364.247-.926m3.532-5.547v8h-.922v-8zm3.454 8.141q-.57 0-1.035-.215a1.8 1.8 0 01-.738-.629q-.274-.414-.274-1 0-.516.203-.836a1.44 1.44 0 01.543-.508 2.9 2.9 0 01.75-.273q.415-.094.832-.149.547-.07.887-.105.345-.039.5-.129.16-.09.16-.313v-.031q0-.578-.316-.898-.313-.321-.95-.321-.66 0-1.035.289-.374.29-.527.618l-.875-.313q.234-.546.625-.851.395-.309.86-.43.469-.125.921-.125.29 0 .665.07.379.066.73.278.356.21.59.636t.234 1.141v3.953h-.922v-.812H78.9q-.093.195-.312.417a1.8 1.8 0 01-.582.379q-.363.157-.887.157m.14-.828q.548 0 .923-.215a1.47 1.47 0 00.765-1.27v-.844q-.059.07-.257.129-.195.055-.454.098a22 22 0 01-.882.117q-.36.047-.672.152a1.16 1.16 0 00-.5.309q-.188.203-.188.555 0 .48.356.726.36.243.91.243m4.293.687v-6h.89v.906h.063a1.44 1.44 0 01.594-.722q.43-.278.968-.278.102 0 .254.004.153.005.23.012v.937a3.6 3.6 0 00-.562-.062q-.437 0-.781.183a1.349 1.349 0 00-.734 1.223v3.797zm7.311 0v-8h2.703q.942 0 1.54.34.6.336.89.91t.29 1.281q0 .708-.29 1.285-.285.579-.883.922-.597.34-1.53.34h-1.938v-.859h1.906q.645 0 1.035-.223.391-.223.566-.601.18-.383.18-.864 0-.48-.18-.859a1.28 1.28 0 00-.57-.594q-.395-.219-1.047-.219h-1.703v7.141zm6.858 0v-6h.89v.906h.063q.164-.445.594-.722.43-.278.968-.278.102 0 .254.004.153.005.23.012v.937a3.5 3.5 0 00-.562-.062q-.437 0-.781.183a1.349 1.349 0 00-.734 1.223v3.797zm6.347.125q-.812 0-1.425-.387a2.6 2.6 0 01-.953-1.082q-.34-.695-.34-1.625 0-.937.34-1.636.343-.7.953-1.086.613-.387 1.425-.387t1.422.387q.614.386.953 1.086.344.699.344 1.636 0 .93-.344 1.625a2.6 2.6 0 01-.953 1.082q-.609.387-1.422.387m0-.828q.617 0 1.016-.317a1.86 1.86 0 00.59-.832q.19-.515.191-1.117 0-.601-.191-1.121a1.9 1.9 0 00-.59-.84q-.399-.32-1.016-.32t-1.015.32a1.9 1.9 0 00-.59.84 3.2 3.2 0 00-.191 1.121q0 .602.191 1.117.191.517.59.832.398.317 1.015.317m6.798-5.297v.781h-3.234v-.781zm-2.265 6v-6.828q0-.516.242-.859.242-.345.629-.516t.816-.172q.34 0 .555.055.215.054.32.101l-.266.797a4 4 0 00-.195-.058 1.2 1.2 0 00-.32-.036q-.458 0-.66.231-.2.23-.2.676v6.609zm3.557 0v-6h.922v6zm.469-7a.65.65 0 01-.465-.184.6.6 0 01-.191-.441.6.6 0 01.191-.441.65.65 0 01.465-.184.64.64 0 01.461.184q.195.183.195.441a.58.58 0 01-.195.441.64.64 0 01-.461.184m3.063-1v8h-.921v-8zm1.689 8v-6h.922v6zm.469-7a.65.65 0 01-.465-.184.59.59 0 01-.192-.441q0-.258.192-.441a.65.65 0 01.465-.184q.269 0 .461.184.195.183.195.441a.58.58 0 01-.195.441.64.64 0 01-.461.184m3.063 3.391v3.609h-.922v-6h.891v.938h.078q.211-.458.641-.735.43-.28 1.109-.281.61 0 1.066.25.458.246.711.75.255.5.254 1.266v3.812h-.922v-3.75q0-.707-.367-1.102-.368-.398-1.008-.398-.441 0-.789.191-.343.192-.543.559-.198.368-.199.891m7.935 5.984q-.668 0-1.149-.172a2.4 2.4 0 01-.8-.445 2.4 2.4 0 01-.504-.586l.734-.516q.125.165.316.375.191.215.524.371.336.16.879.161.726 0 1.199-.352.473-.351.473-1.102v-1.218h-.079a5 5 0 01-.289.406 1.6 1.6 0 01-.531.426q-.344.183-.93.183-.726 0-1.304-.343a2.4 2.4 0 01-.91-1q-.332-.657-.332-1.594 0-.922.324-1.606.324-.687.902-1.062a2.4 2.4 0 011.336-.379q.586 0 .93.195.348.192.531.438.187.242.289.398h.094v-.953h.89v6.172q0 .774-.351 1.258a2 2 0 01-.938.715q-.585.23-1.304.23m-.032-3.297q.555 0 .938-.254t.582-.73q.2-.477.199-1.141a3.1 3.1 0 00-.195-1.144 1.7 1.7 0 00-.578-.778q-.383-.28-.946-.281-.585 0-.976.297a1.8 1.8 0 00-.582.797 3.1 3.1 0 00-.192 1.109q0 .625.196 1.106.2.476.586.75.39.269.968.269m7.532.922v-8h2.703q.938 0 1.539.32.602.317.891.871.288.555.289 1.262 0 .707-.289 1.254a2.04 2.04 0 01-.887.859q-.598.309-1.528.309h-2.187v-.875h2.156q.64 0 1.031-.187.395-.188.571-.532a1.8 1.8 0 00.179-.828q0-.48-.179-.84a1.23 1.23 0 00-.574-.554q-.395-.2-1.043-.2h-1.704v7.141zm3.765-3.594 1.969 3.594h-1.125l-1.937-3.594zm5.597 3.719q-.867 0-1.496-.383a2.57 2.57 0 01-.965-1.078q-.336-.695-.336-1.617t.336-1.625a2.66 2.66 0 01.945-1.102q.61-.398 1.422-.398.469 0 .926.156.457.157.832.508.375.348.598.922t.222 1.414v.391h-4.625v-.797h3.688q0-.508-.203-.907a1.54 1.54 0 00-.571-.629 1.6 1.6 0 00-.867-.23q-.55 0-.953.273-.398.27-.613.704a2.1 2.1 0 00-.215.929v.532q0 .68.234 1.152.238.468.661.715.422.242.98.242.363 0 .656-.102.297-.105.512-.312.215-.211.332-.524l.891.25a2 2 0 01-.473.797 2.3 2.3 0 01-.82.532 3 3 0 01-1.098.187m7.981 2.125v-3.172h-.079q-.101.165-.289.414a1.7 1.7 0 01-.535.442q-.347.19-.926.191-.75 0-1.324-.379a2.55 2.55 0 01-.898-1.078q-.324-.7-.324-1.652 0-.946.324-1.641t.902-1.074a2.4 2.4 0 011.336-.379q.586 0 .926.195.343.192.523.438.184.242.285.398h.11v-.953h.89v8.25zm-1.704-2.953q.555 0 .938-.289.382-.293.582-.809a3.3 3.3 0 00.199-1.199q0-.672-.195-1.176a1.7 1.7 0 00-.578-.789q-.384-.285-.946-.285-.586 0-.976.301a1.8 1.8 0 00-.582.808 3.2 3.2 0 00-.192 1.141q0 .64.196 1.164.2.519.586.828.39.305.968.305m8.094-1.75v-3.547H159v6h-.922v-1.016h-.062q-.211.457-.657.778-.444.316-1.125.316-.562 0-1-.246a1.73 1.73 0 01-.687-.75q-.25-.504-.25-1.269v-3.813h.922v3.75q0 .656.367 1.047.37.39.945.391.344 0 .699-.176a1.5 1.5 0 00.602-.539q.246-.364.246-.926m2.61 2.453v-6h.922v6zm.469-7a.66.66 0 01-.465-.184.6.6 0 01-.191-.441.6.6 0 01.191-.441.66.66 0 01.465-.184q.27 0 .461.184.195.183.195.441a.58.58 0 01-.195.441.64.64 0 01-.461.184m2.142 7v-6h.89v.906h.063q.163-.445.594-.722.43-.278.968-.278.102 0 .254.004.153.005.231.012v.937a3.5 3.5 0 00-.563-.062q-.437 0-.781.183-.34.18-.539.5a1.35 1.35 0 00-.195.723v3.797zm6.426.125q-.868 0-1.496-.383a2.56 2.56 0 01-.965-1.078q-.336-.695-.336-1.617t.336-1.625q.339-.707.945-1.102.609-.398 1.422-.398.468 0 .926.156.456.157.832.508.375.348.597.922.223.574.223 1.414v.391h-4.625v-.797h3.687q0-.508-.203-.907a1.53 1.53 0 00-.57-.629 1.6 1.6 0 00-.867-.23q-.55 0-.953.273-.398.27-.614.704a2.1 2.1 0 00-.214.929v.532q0 .68.234 1.152.238.468.66.715.422.242.981.242.363 0 .656-.102.296-.105.512-.312.214-.211.332-.524l.89.25a2 2 0 01-.472.797 2.3 2.3 0 01-.821.532 3 3 0 01-1.097.187m6.152 0q-.75 0-1.324-.379a2.55 2.55 0 01-.899-1.078q-.324-.7-.324-1.652 0-.946.324-1.641a2.5 2.5 0 01.903-1.074q.577-.38 1.336-.379.585 0 .925.195.345.192.524.438.183.242.285.398h.078v-2.953h.922v8h-.891v-.922h-.109a6 6 0 01-.289.414 1.7 1.7 0 01-.535.442q-.348.19-.926.191m.125-.828q.555 0 .937-.289.384-.293.582-.809.2-.52.2-1.199 0-.672-.196-1.176a1.7 1.7 0 00-.578-.789q-.382-.285-.945-.285-.586 0-.977.301a1.8 1.8 0 00-.582.808 3.2 3.2 0 00-.191 1.141q0 .64.195 1.164.2.519.586.828.392.305.969.305"/><path fill="#717A6D" fill-rule="evenodd" d="M308.996 271.429a.536.536 0 10-.759-.759L305 273.907l-3.237-3.237a.536.536 0 10-.759.759l3.237 3.237-3.237 3.237a.536.536 0 10.759.759l3.237-3.237 3.237 3.237a.536.536 0 10.759-.759l-3.237-3.237z" clip-rule="evenodd"/><mask id="widget-__g" fill="#fff"><path d="M0 288h320v32H0z"/></mask><path fill="#D7DAD7" d="M0 289h320v-2H0z" mask="url(#widget-__g)"/><path fill="#B0B3AF" fill-rule="evenodd" d="M13.134 301.317a1.05 1.05 0 100-2.1 1.05 1.05 0 000 2.1m3.733 0a1.05 1.05 0 100-2.1 1.05 1.05 0 000 2.1m1.05 2.683a1.05 1.05 0 11-2.1 0 1.05 1.05 0 012.1 0m-4.784 1.05a1.05 1.05 0 100-2.1 1.05 1.05 0 000 2.1m4.784 2.683a1.05 1.05 0 11-2.1 0 1.05 1.05 0 012.1 0m-4.784 1.05a1.05 1.05 0 100-2.1 1.05 1.05 0 000 2.1" clip-rule="evenodd"/><path fill="#1D211C" d="M35.145 299.545h1.366l3.213 7.848h.111l3.213-7.848h1.367V309h-1.071v-7.183h-.093L40.297 309h-1.034l-2.955-7.183h-.092V309h-1.071zm14.298 9.603q-.96 0-1.685-.457a3.1 3.1 0 01-1.126-1.279q-.402-.822-.402-1.921 0-1.107.402-1.934.405-.827 1.126-1.283.725-.457 1.685-.457t1.68.457q.726.456 1.127 1.283.405.827.406 1.934 0 1.1-.406 1.921a3.06 3.06 0 01-1.126 1.279q-.72.457-1.68.457m0-.979q.73 0 1.2-.374.472-.374.698-.983.226-.61.226-1.321a3.8 3.8 0 00-.226-1.324 2.23 2.23 0 00-.697-.993q-.472-.379-1.2-.379-.73 0-1.201.379a2.23 2.23 0 00-.697.993 3.8 3.8 0 00-.226 1.324q0 .712.226 1.321.226.61.697.983.471.374 1.2.374m5.966-8.624V309h-1.09v-9.455zm4.968 9.603q-1.024 0-1.768-.453a3.03 3.03 0 01-1.14-1.274q-.397-.822-.397-1.911 0-1.09.397-1.921.402-.836 1.117-1.301.72-.471 1.68-.471.555 0 1.095.184.54.186.983.601.442.41.706 1.089t.264 1.671v.462h-5.466v-.942h4.358q0-.6-.24-1.071a1.8 1.8 0 00-.675-.743 1.9 1.9 0 00-1.024-.273q-.651 0-1.127.324a2.1 2.1 0 00-.725.831q-.254.512-.254 1.098v.628q0 .804.277 1.362a2 2 0 00.78.845q.5.286 1.16.286.429 0 .775-.12.351-.125.605-.369.254-.25.392-.619l1.053.296q-.166.535-.559.941a2.7 2.7 0 01-.97.628 3.6 3.6 0 01-1.297.222m7.474 0q-.996 0-1.717-.471a3.07 3.07 0 01-1.108-1.297q-.387-.827-.388-1.889 0-1.08.397-1.906.401-.832 1.118-1.297.72-.471 1.68-.471.748 0 1.348.277.6.276.983.775t.476 1.164h-1.09a1.7 1.7 0 00-.554-.859q-.424-.379-1.144-.379-.638 0-1.118.333-.475.328-.743.928-.263.595-.263 1.399 0 .82.258 1.431.264.609.74.946.48.337 1.126.337.425 0 .77-.148.347-.147.587-.424.24-.278.341-.665h1.09a2.5 2.5 0 01-.457 1.131q-.36.498-.956.794-.59.291-1.376.291m8.85-3.047v-4.192h1.09V309H76.7v-1.2h-.074q-.249.54-.775.918-.526.374-1.33.374-.665 0-1.181-.291a2.03 2.03 0 01-.813-.886q-.296-.595-.296-1.5v-4.506h1.09v4.432q0 .775.434 1.237.439.462 1.117.462.406 0 .826-.208.425-.207.711-.637.291-.43.291-1.094m4.175-6.556V309h-1.09v-9.455zm4.082 9.621a2.9 2.9 0 01-1.224-.254 2.1 2.1 0 01-.872-.743q-.323-.489-.323-1.182 0-.609.24-.988a1.7 1.7 0 01.642-.6q.401-.217.886-.323.49-.11.983-.175.646-.084 1.048-.125.407-.047.591-.152.19-.106.19-.37v-.037q0-.683-.375-1.061-.37-.38-1.121-.379-.78 0-1.224.342-.443.34-.623.729l-1.034-.369q.277-.647.739-1.007a2.8 2.8 0 011.015-.508q.555-.147 1.09-.147.34 0 .785.083.447.078.863.328.42.25.697.752.276.504.277 1.348V309h-1.09v-.96h-.055a2 2 0 01-.37.494 2.2 2.2 0 01-.687.448q-.43.184-1.048.184m.166-.978q.645 0 1.09-.254a1.73 1.73 0 00.904-1.501v-.997q-.069.083-.304.152a5 5 0 01-.536.116 25 25 0 01-1.043.138 4 4 0 00-.794.18 1.4 1.4 0 00-.591.365q-.222.24-.222.656 0 .567.42.858.425.287 1.076.287m5.072.812v-7.091h1.053v1.071h.074q.194-.526.702-.854a2.07 2.07 0 011.144-.328q.12 0 .3.005t.273.014v1.108a3 3 0 00-.254-.042 2.6 2.6 0 00-.41-.032q-.518 0-.924.217-.402.212-.637.591-.231.374-.231.854V309zm11.559 0h-2.918v-9.455h3.047q1.376 0 2.355.568a3.72 3.72 0 011.5 1.621q.522 1.052.522 2.52 0 1.478-.527 2.544a3.74 3.74 0 01-1.532 1.634q-1.007.568-2.447.568m-1.773-1.016h1.699q1.173 0 1.944-.452a2.8 2.8 0 001.149-1.288q.378-.835.379-1.99 0-1.144-.374-1.971a2.76 2.76 0 00-1.118-1.274q-.742-.448-1.851-.448h-1.828zm10.138 1.182a2.9 2.9 0 01-1.223-.254 2.1 2.1 0 01-.873-.743q-.323-.489-.323-1.182 0-.609.24-.988.24-.382.642-.6.401-.217.886-.323.49-.11.983-.175.647-.084 1.048-.125.406-.047.591-.152.189-.106.189-.37v-.037q0-.683-.373-1.061-.37-.38-1.122-.379-.78 0-1.224.342-.443.34-.623.729l-1.034-.369q.277-.647.739-1.007a2.8 2.8 0 011.015-.508q.555-.147 1.09-.147.341 0 .785.083.447.078.863.328.42.25.697.752.277.504.277 1.348V309h-1.09v-.96h-.055a2 2 0 01-.369.494 2.2 2.2 0 01-.688.448q-.43.184-1.048.184m.166-.978q.646 0 1.09-.254.447-.255.674-.656.23-.401.23-.845v-.997q-.069.083-.304.152a5 5 0 01-.536.116 25 25 0 01-1.043.138 4 4 0 00-.794.18q-.365.12-.591.365-.222.24-.222.656 0 .567.42.858.425.287 1.076.287m8.156-6.279v.923h-3.674v-.923zm-2.603-1.699h1.089v6.759q0 .461.134.692a.7.7 0 00.351.305q.216.074.457.074.18 0 .295-.019l.185-.037.222.979a2 2 0 01-.31.083q-.198.046-.503.046a2.2 2.2 0 01-.905-.198 1.8 1.8 0 01-.729-.605q-.286-.406-.286-1.025zm6.329 8.956q-.674 0-1.224-.254a2.1 2.1 0 01-.872-.743q-.323-.489-.323-1.182 0-.609.24-.988.24-.382.642-.6.401-.217.886-.323.49-.11.983-.175.646-.084 1.048-.125.406-.047.591-.152.189-.106.189-.37v-.037q0-.683-.374-1.061-.37-.38-1.121-.379-.78 0-1.224.342-.443.34-.623.729l-1.034-.369q.277-.647.739-1.007.465-.364 1.015-.508a4.2 4.2 0 011.09-.147q.341 0 .784.083.448.078.864.328.42.25.697.752.276.504.277 1.348V309h-1.09v-.96h-.055a2 2 0 01-.369.494 2.2 2.2 0 01-.688.448q-.43.184-1.048.184m.166-.978q.647 0 1.089-.254a1.72 1.72 0 00.905-1.501v-.997q-.069.083-.304.152a5 5 0 01-.536.116 25 25 0 01-1.043.138 4 4 0 00-.794.18q-.365.12-.591.365-.222.24-.222.656 0 .567.42.858.425.287 1.076.287"/><path fill="#F5F7F5" d="M254.5 297a2.5 2.5 0 012.5-2.5h26a2.5 2.5 0 012.5 2.5v14a2.5 2.5 0 01-2.5 2.5h-26a2.5 2.5 0 01-2.5-2.5z"/><path stroke="#CCCFCC" d="M254.5 297a2.5 2.5 0 012.5-2.5h26a2.5 2.5 0 012.5 2.5v14a2.5 2.5 0 01-2.5 2.5h-26a2.5 2.5 0 01-2.5-2.5z"/><path fill="#717A6D" fill-rule="evenodd" d="M265.2 305.6c0-2.667 1.6-5.067 4.8-8 3.2 2.933 4.8 5.333 4.8 8a4.8 4.8 0 1 1-9.6 0m8.483-.744c-1.364-.514-2.842.17-4.227.81-1.128.522-2.193 1.015-3.086.81a3.8 3.8 0 0 1-.103-.876c0-2.014 1.095-3.977 3.733-6.535 2.313 2.243 3.44 4.028 3.683 5.791M308.996 300.763a.536.536 0 1 0-.759-.759L305 303.241l-3.237-3.237a.536.536 0 1 0-.759.759l3.237 3.237-3.237 3.237a.536.536 0 1 0 .759.759l3.237-3.237 3.237 3.237a.536.536 0 1 0 .759-.759L305.759 304z" clip-rule="evenodd"/></g><path stroke="#D7DAD7" d="M.5 6A5.5 5.5 0 016 .5h308a5.5 5.5 0 015.5 5.5v308a5.5 5.5 0 01-5.5 5.5H6A5.5 5.5 0 01.5 314z"/><defs><clipPath id="widget-__a"><path fill="#fff" d="M0 6a6 6 0 016-6h308a6 6 0 016 6v308a6 6 0 01-6 6H6a6 6 0 01-6-6z"/></clipPath><clipPath id="widget-__f"><path fill="#fff" d="M181 242h12v12h-12z"/></clipPath></defs></svg>